<?xml version="1.0" encoding="utf-8"?>
<!-- Generator: Adobe Illustrator 22.0.1, SVG Export Plug-In . SVG Version: 6.00 Build 0)  -->
<svg version="1.1" id="Layer_1" xmlns="http://www.w3.org/2000/svg" xmlns:xlink="http://www.w3.org/1999/xlink" x="0px" y="0px"
	 viewBox="0 0 134.3 105.7" style="enable-background:new 0 0 134.3 105.7;" xml:space="preserve">
<style type="text/css">
	.st0{fill:#A7D0D4;}
</style>
<title>hey</title>
<path class="st0" d="M9.6,86.2c17,22.7,50.6,26.1,75.2,7.8c8.6-6.4,15.3-15,19.4-25L131.9,58c1.9-0.8,2.9-2.9,2.1-4.9
	c-0.4-0.9-1.1-1.6-2-2l-24.8-11.2c-1.3-7.4-4.3-14.3-8.8-20.3c-17-22.7-50.6-26.1-75.2-7.8l0-0.1C-1.2,30.2-7.4,63.5,9.6,86.2z
	 M44,48.6l-0.1,0l0,0L44,48.6C43.9,48.6,43.9,48.6,44,48.6z M44.6,49.2l-0.4,0.1l0-0.1L44.6,49.2C44.6,49.1,44.6,49.1,44.6,49.2z
	 M45.2,50.5l-0.2,0l0-0.1L45.2,50.5L45.2,50.5L45.2,50.5z M45.8,51.1l-0.4,0l0,0L45.8,51.1L45.8,51.1z M46.2,52.4L46.2,52.4l-0.1,0
	L46.2,52.4L46.2,52.4z M46.9,52.9L46.5,53l0-0.1L46.9,52.9L46.9,52.9z M80.2,30.1L80,30.1l0,0l0,0c0,0,0,0,0-0.1l0.1,0L80.2,30.1
	C80.2,30.1,80.2,30.1,80.2,30.1z M81.5,32l-0.6,0.1c0,0,0-0.1,0-0.1L81.5,32C81.5,31.9,81.4,32,81.5,32z M81.8,32.6L81.8,32.6
	L81.8,32.6C81.8,32.6,81.8,32.6,81.8,32.6z M82.5,33.9L82,33.9L82,34L81.6,34c0,0,0,0,0,0l0.4-0.1L82.5,33.9L82.5,33.9z M81.9,35.3
	l0.3,0l0,0.1L81.9,35.3C81.9,35.4,82,35.3,81.9,35.3z M83.2,35.8C83.1,35.9,83.1,35.9,83.2,35.8l-1.1,0.3c0,0,0-0.1,0-0.1L83.2,35.8
	z M82.2,40.8l0.9-0.1L82.2,40.8C82.2,40.9,82.2,40.8,82.2,40.8z M83.3,37.2l-1,0.2l0,0L83.3,37.2L83.3,37.2z M83.6,37.8L83.6,37.8
	l-0.9,0.2l0-0.1L83.6,37.8z M83.8,39.2l-0.9,0.1l-0.6,0.1c0,0,0,0,0-0.1l0.6-0.1l0.1,0L83.8,39.2C83.7,39.2,83.8,39.2,83.8,39.2z
	 M83.8,39.9L83.7,40l0,0l0,0L83.8,39.9L83.8,39.9z M83.8,41.3l-1.2,0.2l-0.1,0l0,0L83.8,41.3C83.8,41.3,83.8,41.3,83.8,41.3z
	 M83.7,42.7L81.8,43l0,0L83.7,42.7C83.7,42.7,83.7,42.7,83.7,42.7z M80,47.5l0.7-0.1l0,0l0,0L80,47.5C80,47.5,80,47.5,80,47.5z
	 M80.8,46C80.8,46,80.8,46,80.8,46l1.1-0.2l0,0l0,0.1L80.8,46z M81.4,44.4l1.6-0.2l0,0L81.4,44.4C81.4,44.5,81.4,44.5,81.4,44.4z
	 M83.2,44.9l-0.7,0.1l0-0.1L83.2,44.9C83.2,44.9,83.2,44.9,83.2,44.9z M82.7,46.4l-1.3,0.2l0-0.1L82.7,46.4L82.7,46.4
	C82.7,46.4,82.7,46.4,82.7,46.4z M81.5,48l-1.3,0.2l0-0.1L81.5,48L81.5,48l0.5-0.2c0,0,0,0,0,0L81.5,48L81.5,48z M80.4,49.6
	l-1.3,0.2l0-0.1L80.4,49.6L80.4,49.6l0.8-0.2c0,0,0,0-0.1,0.1L80.4,49.6L80.4,49.6z M79,49.1L79,49.1l0.6-0.1l0,0l0,0.1L79,49.1z
	 M79.3,51.1L78,51.4l0-0.1L79.3,51.1L79.3,51.1l0.7-0.2c0,0,0,0-0.1,0.1L79.3,51.1L79.3,51.1z M78.5,50.6l-0.9,0.1c0,0,0,0,0.1-0.1
	L78.5,50.6L78.5,50.6L78.5,50.6z M76.8,52.9l1.3-0.2l0.1,0l0.2,0c0,0,0,0-0.1,0.1l-0.1,0l-0.1,0L76.8,52.9L76.8,52.9z M75.8,52.4
	c0,0,0.1,0,0.1-0.1l1.5-0.2l0,0L75.8,52.4z M76.3,53.7l-2.7,0.4l-0.1,0l0,0L76.3,53.7L76.3,53.7L76.3,53.7z M75.7,54.5l0.5-0.1
	c-0.1,0-0.1,0.1-0.1,0.1L75.7,54.5L75.7,54.5z M72.4,55.8l2-0.3c-0.1,0-0.1,0-0.2,0.1L72.4,55.8L72.4,55.8z M70.3,55.4l1.3-0.2
	l0.1,0l1.3-0.2l0,0l-1.3,0.2l0,0L70.3,55.4L70.3,55.4z M67.1,56.6l2.6-0.4l0,0L67.1,56.6L67.1,56.6z M63.9,50.7
	c1.6-2.2,6.4-0.4,10-5.5s1.8-11.3-3.1-14.8c-4.9-3.5-11.3-3.1-14.9,2c-2.9,4.1-1.2,7.4-2.5,9.3c-0.9,1.3-2.8,1.8-4.2,0.8
	c-0.8-0.6-1.1-1.3-1.3-2.3c-0.7-4,0.8-8.2,3.1-11.4c5.5-7.7,16.1-9.4,23.8-3.9c7.7,5.5,9.7,16.1,4.2,23.8c-2.8,3.9-7.4,6.7-12.3,7.1
	c-0.7,0-1.3-0.1-1.9-0.5C63.3,54.4,62.9,52.1,63.9,50.7z M48,54.8L48,54.8L48,54.8L48,54.8l-0.3,0.2l0-0.1L48,54.8z M49.2,56.7
	L49.2,56.7l-0.4,0.1l0,0L49.2,56.7z M50,58.7L50,58.7l0.3,0l0,0L50,58.7L50,58.7l-0.1,0.1l0-0.1L50,58.7z M51.1,43.3
	c0.1,0,0.3,0,0.4,0c0.1,0,0.3-0.1,0.5-0.1l0.9-0.1l0,0.1l-1.3,0.2l0,0L51.1,43.3L51.1,43.3z M51.5,60.5L51.5,60.5l-0.4,0.2l0-0.1
	L51.5,60.5z M51.9,61.2L51.9,61.2L51.9,61.2L51.9,61.2z M52.3,43.9L52.3,43.9L52.3,43.9l2.7-0.5l0,0c0,0,0,0-0.1,0L52.3,43.9z
	 M52.9,63L52.9,63l0.1,0L52.9,63L52.9,63L52.9,63z M53.8,64.3L53.8,64.3l-0.4,0.1l0-0.1L53.8,64.3z M54.2,64.9L54.2,64.9L53.9,65
	l0,0L54.2,64.9z M60.6,75.7L60.6,75.7L60.6,75.7L59.3,76c0,0,0,0,0-0.1L60.6,75.7z M59.3,74.6L59.3,74.6l0.5-0.1l0,0L59.3,74.6z
	 M59.1,73.9C59.1,73.9,59.1,73.9,59.1,73.9l0.4-0.1l0,0.1L59.1,73.9z M59,32.3l-1,0.2l0-0.1L59,32.3C59,32.2,59,32.2,59,32.3z
	 M58.8,72.6l-0.4,0.1l0-0.1L58.8,72.6L58.8,72.6z M58,72L58,72l0.4-0.1l0,0.1L58,72z M56.6,31.9C56.6,31.9,56.6,31.9,56.6,31.9
	l2-0.4l0,0l0,0L56.6,31.9z M58.4,30.3c0.1,0,0.1-0.1,0.1-0.1l1.2-0.2l0,0l0,0.1L58.4,30.3z M57.6,70.7l-0.4,0l0,0l0.4-0.1L57.6,70.7
	z M56.9,34L56.9,34l0.8-0.2c0,0,0,0-0.1,0.1L56.9,34z M56.8,70.1L56.8,70.1l0.4-0.1l0,0L56.8,70.1z M55.6,33.5L55.6,33.5l1.9-0.4
	l0,0l0,0.1L55.6,33.5z M55.8,40.5l-1.2,0.2l0,0l0-0.1L55.8,40.5C55.8,40.4,55.8,40.4,55.8,40.5z M55.7,39.1L55.7,39.1L55.7,39.1
	l0.2-0.1c0,0,0,0,0,0L55.7,39.1z M54.3,40C54.3,40,54.3,40,54.3,40l0.8-0.2l0,0L54.3,40z M54.3,38.5l0.5,0l0.1,0l1-0.2
	c0,0,0,0,0,0.1l-1,0.2l0,0L54.3,38.5C54.4,38.6,54.4,38.6,54.3,38.5z M54.6,37.2L54.6,37.2l1.3-0.3l0.1,0l0.2,0c0,0,0,0,0,0l-0.1,0
	L56,37L54.6,37.2z M54.5,36.4l0.7-0.1l0,0L54.5,36.4C54.6,36.5,54.5,36.4,54.5,36.4z M54.9,35.1C54.9,35,54.9,35,54.9,35.1l1.5-0.3
	l0,0l0,0L54.9,35.1z M56.8,35.4L56.8,35.4l-1,0.2l0-0.1L56.8,35.4z M56.5,68.8l-0.4,0.1l0-0.1L56.5,68.8L56.5,68.8z M55.7,68.2
	L55.7,68.2l0.4-0.1l0,0.1L55.7,68.2z M53.4,42.3L53.4,42.3l2.2-0.4c0,0,0,0,0,0L53.4,42.3z M53.9,41.4L53.9,41.4L53.9,41.4
	L53.9,41.4C53.9,41.5,54,41.4,53.9,41.4z M55.3,66.9L55,66.9l0,0l0-0.1L55.3,66.9L55.3,66.9z M54.6,66.3L54.6,66.3l0.4-0.1l0,0.1
	L54.6,66.3z M52.7,62.5l-0.4,0l0,0H52.7L52.7,62.5z M62.4,29.6l2.7-0.5l0,0l0,0L62.4,29.6L62.4,29.6z M61.7,29L61.7,29l-1.4,0.2
	l0-0.1L61.7,29L61.7,29l1.3-0.3l0,0.1L61.7,29z M61.5,30.4l-0.9,0.2l0,0l-1.3,0.2l0-0.1l1.3-0.2l0.1,0l1.1-0.2
	C61.6,30.4,61.5,30.4,61.5,30.4z M60.8,76.4L60,76.5l0-0.1L60.8,76.4C60.8,76.4,60.8,76.4,60.8,76.4z M58.9,78.1l1.3-0.2l0.1,0
	l0.3,0c0,0,0,0-0.1,0.1l-0.2,0l-0.1,0L58.9,78.1L58.9,78.1z M58.5,77.5L58.5,77.5l1-0.2l0,0l0,0L58.5,77.5z M56.3,79.2l2-0.3l0,0
	l0,0.1l-1.9,0.3L56.3,79.2z M54.5,78.8l0.3-0.1l0,0l0.7-0.2c0,0,0.1,0,0.2,0l-0.9,0.1l0,0l-0.2,0L54.5,78.8z M52.6,78.4l1-0.2l0.2,0
	l-1,0.2L52.6,78.4z M50.8,78l1-0.2l0,0l0,0.1L51,78L50.8,78z M49,77.7l0.7-0.2l0,0l-0.6,0.1L49,77.7z M47.2,77.2l0.4-0.1l0,0.1
	l-0.3,0L47.2,77.2z M45.4,76.8L45.4,76.8L45.4,76.8L45.4,76.8L45.4,76.8z M35.3,74.4l0.2-0.1l0.2,0L35.3,74.4L35.3,74.4z M33.1,74.1
	L33.1,74.1l0.5-0.2l0.2,0L33.1,74.1z M31,73.7L31,73.7l0.8-0.2l0.1,0L31,73.7L31,73.7z M28.9,73.3l1-0.2l0.2,0l-1,0.2L28.9,73.3z
	 M27.3,72.9l0.8-0.2l0.2,0L27.3,72.9L27.3,72.9z M23.8,67.1c0.7-1,1.9-1.5,3.1-1.2l23.5,5.3L37.6,50.9c-0.6-1-0.5-2.4,0.2-3.4
	c0.9-1.3,3-1.6,4.3-0.6c0.3,0.2,0.6,0.6,0.9,1l15.6,25.9c0.6,1.1,0.5,2.3-0.2,3.3c-0.7,1-1.9,1.5-3,1.2l-29.6-6.3
	c-0.5-0.1-0.9-0.2-1.3-0.5C23.2,70.5,22.8,68.5,23.8,67.1z"/>
</svg>
