<svg xmlns="http://www.w3.org/2000/svg" xmlns:xlink="http://www.w3.org/1999/xlink" viewBox="0 0 150 150"><defs><style>.cls-1{fill:url(#Degradado_sin_nombre);}.cls-2{fill:url(#Degradado_sin_nombre-2);}.cls-3{fill:url(#Degradado_sin_nombre-3);}.cls-4{fill:url(#Degradado_sin_nombre-4);}</style><linearGradient id="Degradado_sin_nombre" x1="65.69" y1="82.96" x2="102.59" y2="82.96" gradientUnits="userSpaceOnUse"><stop offset="0" stop-color="#00f2fe"/><stop offset="0.02" stop-color="#03effe"/><stop offset="0.29" stop-color="#24d2fe"/><stop offset="0.55" stop-color="#3cbdfe"/><stop offset="0.8" stop-color="#4ab0fe"/><stop offset="1" stop-color="#4facfe"/></linearGradient><linearGradient id="Degradado_sin_nombre-2" x1="46.9" y1="83.39" x2="58.99" y2="83.39" xlink:href="#Degradado_sin_nombre"/><linearGradient id="Degradado_sin_nombre-3" x1="0" y1="75" x2="150" y2="75" xlink:href="#Degradado_sin_nombre"/><linearGradient id="Degradado_sin_nombre-4" x1="46.18" y1="53.95" x2="59.78" y2="53.95" xlink:href="#Degradado_sin_nombre"/></defs><title>contact-linkedin</title><g id="Layer_2" data-name="Layer 2"><g id="Layer_1-2" data-name="Layer 1"><path class="cls-1" d="M88.67,64.34a12,12,0,0,0-10.89,6V65.2H65.69c.15,3.41,0,36.38,0,36.38H77.78V81.25a8.31,8.31,0,0,1,.39-3,6.63,6.63,0,0,1,6.21-4.42c4.37,0,6.12,3.33,6.12,8.23v19.46h12.09V80.71C102.59,69.54,96.62,64.34,88.67,64.34Zm-10.9,6.13h-.08a.83.83,0,0,0,.08-.12Z"/><rect class="cls-2" x="46.9" y="65.2" width="12.09" height="36.38"/><path class="cls-3" d="M75,0a75,75,0,1,0,75,75A75.09,75.09,0,0,0,75,0Zm39.77,108.92a5.84,5.84,0,0,1-5.92,5.77H40.64a5.84,5.84,0,0,1-5.92-5.77v-69a5.84,5.84,0,0,1,5.92-5.77h68.21a5.85,5.85,0,0,1,5.92,5.77Z"/><path class="cls-4" d="M53,47.66c-4.13,0-6.84,2.72-6.84,6.29s2.63,6.28,6.68,6.28h.08c4.22,0,6.84-2.79,6.84-6.28S57.16,47.66,53,47.66Z"/></g></g></svg>