<svg xmlns="http://www.w3.org/2000/svg" xmlns:xlink="http://www.w3.org/1999/xlink" viewBox="0 0 322 322"><defs><style>.cls-1{fill:none;}.cls-2{clip-path:url(#clip-path);}.cls-3{fill:#a7d7ea;}.cls-4{fill:#a6d6ea;}.cls-5{fill:#a5d6e9;}.cls-6{fill:#a4d5e9;}.cls-7{fill:#a3d5e8;}.cls-8{fill:#a2d4e8;}.cls-9{fill:#a2d4e7;}.cls-10{fill:#a1d3e7;}.cls-11{fill:#a0d3e7;}.cls-12{fill:#9fd2e6;}.cls-13{fill:#9ed2e6;}.cls-14{fill:#9dd1e5;}.cls-15{fill:#9cd0e5;}.cls-16{fill:#9bd0e4;}.cls-17{fill:#9acfe4;}.cls-18{fill:#99cfe3;}.cls-19{fill:#98cee3;}.cls-20{fill:#97cde2;}.cls-21{fill:#96cde2;}.cls-22{fill:#95cce1;}.cls-23{fill:#94cbe1;}.cls-24{fill:#93cbe0;}.cls-25{fill:#92cae0;}.cls-26{fill:#91c9df;}.cls-27{fill:#90c9df;}.cls-28{fill:#8fc8de;}.cls-29{fill:#8ec7de;}.cls-30{fill:#8dc7dd;}.cls-31{fill:#8bc6dc;}.cls-32{fill:#8ac5dc;}.cls-33{fill:#89c5db;}.cls-34{fill:#88c4db;}.cls-35{fill:#87c3da;}.cls-36{fill:#86c2da;}.cls-37{fill:#84c2d9;}.cls-38{fill:#83c1d8;}.cls-39{fill:#82c0d8;}.cls-40{fill:#81bfd7;}.cls-41{fill:#7fbfd7;}.cls-42{fill:#7ebed6;}.cls-43{fill:#7dbdd5;}.cls-44{fill:#7cbcd5;}.cls-45{fill:#7bbcd4;}.cls-46{fill:#79bbd4;}.cls-47{fill:#78bad3;}.cls-48{clip-path:url(#clip-path-2);}.cls-49{clip-path:url(#clip-path-3);}.cls-50{clip-path:url(#clip-path-4);}.cls-51{clip-path:url(#clip-path-5);}.cls-52{clip-path:url(#clip-path-6);}.cls-53{fill:url(#linear-gradient);}.cls-54{fill:url(#linear-gradient-2);}.cls-55{fill:url(#linear-gradient-3);}.cls-56{fill:url(#linear-gradient-4);}.cls-57{fill:url(#linear-gradient-5);}.cls-58{fill:url(#linear-gradient-6);}.cls-59{fill:url(#linear-gradient-7);}.cls-60{fill:url(#linear-gradient-8);}.cls-61{fill:url(#linear-gradient-9);}</style><clipPath id="clip-path"><rect class="cls-1" x="43.88" y="216" width="0.25" height="106"/></clipPath><clipPath id="clip-path-2"><rect class="cls-1" x="43.88" y="44" width="0.25" height="106"/></clipPath><clipPath id="clip-path-3"><rect class="cls-1" x="277.88" y="44" width="0.25" height="106"/></clipPath><clipPath id="clip-path-4"><rect class="cls-1" x="44" y="43.88" width="234" height="0.25"/></clipPath><clipPath id="clip-path-5"><rect class="cls-1" x="44" y="215.88" width="147" height="0.25"/></clipPath><clipPath id="clip-path-6"><rect class="cls-1" x="44" y="149.88" width="147" height="0.25"/></clipPath><linearGradient id="linear-gradient" x1="282.26" y1="151.01" x2="274.74" y2="137.99" gradientUnits="userSpaceOnUse"><stop offset="0" stop-color="#f1a9b7"/><stop offset="1" stop-color="#d9788b"/></linearGradient><linearGradient id="linear-gradient-2" x1="47.26" y1="323.01" x2="39.74" y2="309.99" xlink:href="#linear-gradient"/><linearGradient id="linear-gradient-3" x1="311" y1="322" x2="311" y2="172" gradientUnits="userSpaceOnUse"><stop offset="0" stop-color="#509ab6"/><stop offset="1" stop-color="#327d99"/></linearGradient><linearGradient id="linear-gradient-4" x1="224" y1="322" x2="224" y2="172" gradientUnits="userSpaceOnUse"><stop offset="0" stop-color="#a7d7ea"/><stop offset="1" stop-color="#78bad3"/></linearGradient><linearGradient id="linear-gradient-5" x1="256.5" y1="322" x2="256.5" y2="172" gradientUnits="userSpaceOnUse"><stop offset="0" stop-color="#509ab6"/><stop offset="1" stop-color="#78bad3"/></linearGradient><linearGradient id="linear-gradient-6" y1="183" x2="191" y2="183" gradientUnits="userSpaceOnUse"><stop offset="0" stop-color="#b3465b"/><stop offset="1" stop-color="#d9788b"/></linearGradient><linearGradient id="linear-gradient-7" x1="11" y1="322" x2="11" gradientUnits="userSpaceOnUse"><stop offset="0" stop-color="#8d2136"/><stop offset="1" stop-color="#b3465b"/></linearGradient><linearGradient id="linear-gradient-8" y1="11" x2="322" y2="11" xlink:href="#linear-gradient-6"/><linearGradient id="linear-gradient-9" x1="311" y1="150" x2="311" gradientUnits="userSpaceOnUse"><stop offset="0" stop-color="#d9788b"/><stop offset="1" stop-color="#d9788b"/></linearGradient></defs><title>logo_1</title><g id="Layer_2" data-name="Layer 2"><g id="Layer_1-2" data-name="Layer 1"><g class="cls-2"><path class="cls-3" d="M43.88,216v0Z"/><rect class="cls-3" x="43.88" y="216" width="0.01" height="106"/><rect class="cls-3" x="43.88" y="216" width="0.01" height="106"/><rect class="cls-4" x="43.89" y="216" width="0.01" height="106"/><rect class="cls-5" x="43.89" y="216" width="0.01" height="106"/><rect class="cls-5" x="43.9" y="216" width="0.01" height="106"/><rect class="cls-6" x="43.9" y="216" width="0.01" height="106"/><rect class="cls-7" x="43.91" y="216" width="0.01" height="106"/><rect class="cls-8" x="43.91" y="216" width="0.01" height="106"/><rect class="cls-9" x="43.92" y="216" width="0.01" height="106"/><rect class="cls-10" x="43.92" y="216" width="0.01" height="106"/><rect class="cls-11" x="43.93" y="216" width="0.01" height="106"/><rect class="cls-12" x="43.93" y="216" width="0.01" height="106"/><rect class="cls-13" x="43.94" y="216" width="0.01" height="106"/><rect class="cls-14" x="43.94" y="216" width="0.01" height="106"/><rect class="cls-15" x="43.95" y="216" width="0.01" height="106"/><rect class="cls-16" x="43.95" y="216" width="0.01" height="106"/><rect class="cls-17" x="43.96" y="216" width="0.01" height="106"/><rect class="cls-18" x="43.97" y="216" width="0.01" height="106"/><rect class="cls-19" x="43.97" y="216" width="0.01" height="106"/><rect class="cls-20" x="43.98" y="216" width="0.01" height="106"/><rect class="cls-21" x="43.98" y="216" width="0.01" height="106"/><rect class="cls-22" x="43.99" y="216" width="0.01" height="106"/><rect class="cls-23" x="43.99" y="216" width="0.01" height="106"/><rect class="cls-24" x="44" y="216" width="0.01" height="106"/><rect class="cls-25" x="44" y="216" width="0.01" height="106"/><rect class="cls-26" x="44.01" y="216" width="0.01" height="106"/><rect class="cls-27" x="44.01" y="216" width="0.01" height="106"/><rect class="cls-28" x="44.02" y="216" width="0.01" height="106"/><rect class="cls-29" x="44.02" y="216" width="0.01" height="106"/><rect class="cls-30" x="44.03" y="216" width="0.01" height="106"/><rect class="cls-31" x="44.03" y="216" width="0.01" height="106"/><rect class="cls-32" x="44.04" y="216" width="0.01" height="106"/><rect class="cls-33" x="44.05" y="216" width="0.01" height="106"/><rect class="cls-34" x="44.05" y="216" width="0.01" height="106"/><rect class="cls-35" x="44.06" y="216" width="0.01" height="106"/><rect class="cls-36" x="44.06" y="216" width="0.01" height="106"/><rect class="cls-37" x="44.07" y="216" width="0.01" height="106"/><rect class="cls-38" x="44.07" y="216" width="0.01" height="106"/><rect class="cls-39" x="44.08" y="216" width="0.01" height="106"/><rect class="cls-40" x="44.08" y="216" width="0.01" height="106"/><rect class="cls-41" x="44.09" y="216" width="0.01" height="106"/><rect class="cls-42" x="44.09" y="216" width="0.01" height="106"/><rect class="cls-43" x="44.1" y="216" width="0.01" height="106"/><rect class="cls-44" x="44.1" y="216" width="0.01" height="106"/><rect class="cls-45" x="44.11" y="216" width="0.01" height="106"/><rect class="cls-46" x="44.11" y="216" width="0.01" height="106"/><rect class="cls-47" x="44.12" y="216" width="0.01" height="106"/><path class="cls-47" d="M44.12,322v0Z"/></g><g class="cls-48"><path class="cls-3" d="M43.88,44v0Z"/><rect class="cls-3" x="43.88" y="44" width="0.01" height="106"/><rect class="cls-3" x="43.88" y="44" width="0.01" height="106"/><rect class="cls-4" x="43.89" y="44" width="0.01" height="106"/><rect class="cls-5" x="43.89" y="44" width="0.01" height="106"/><rect class="cls-5" x="43.9" y="44" width="0.01" height="106"/><rect class="cls-6" x="43.9" y="44" width="0.01" height="106"/><rect class="cls-7" x="43.91" y="44" width="0.01" height="106"/><rect class="cls-8" x="43.91" y="44" width="0.01" height="106"/><rect class="cls-9" x="43.92" y="44" width="0.01" height="106"/><rect class="cls-10" x="43.92" y="44" width="0.01" height="106"/><rect class="cls-11" x="43.93" y="44" width="0.01" height="106"/><rect class="cls-12" x="43.93" y="44" width="0.01" height="106"/><rect class="cls-13" x="43.94" y="44" width="0.01" height="106"/><rect class="cls-14" x="43.94" y="44" width="0.01" height="106"/><rect class="cls-15" x="43.95" y="44" width="0.01" height="106"/><rect class="cls-16" x="43.95" y="44" width="0.01" height="106"/><rect class="cls-17" x="43.96" y="44" width="0.01" height="106"/><rect class="cls-18" x="43.97" y="44" width="0.01" height="106"/><rect class="cls-19" x="43.97" y="44" width="0.01" height="106"/><rect class="cls-20" x="43.98" y="44" width="0.01" height="106"/><rect class="cls-21" x="43.98" y="44" width="0.01" height="106"/><rect class="cls-22" x="43.99" y="44" width="0.01" height="106"/><rect class="cls-23" x="43.99" y="44" width="0.01" height="106"/><rect class="cls-24" x="44" y="44" width="0.01" height="106"/><rect class="cls-25" x="44" y="44" width="0.01" height="106"/><rect class="cls-26" x="44.01" y="44" width="0.01" height="106"/><rect class="cls-27" x="44.01" y="44" width="0.01" height="106"/><rect class="cls-28" x="44.02" y="44" width="0.01" height="106"/><rect class="cls-29" x="44.02" y="44" width="0.01" height="106"/><rect class="cls-30" x="44.03" y="44" width="0.01" height="106"/><rect class="cls-31" x="44.03" y="44" width="0.01" height="106"/><rect class="cls-32" x="44.04" y="44" width="0.01" height="106"/><rect class="cls-33" x="44.05" y="44" width="0.01" height="106"/><rect class="cls-34" x="44.05" y="44" width="0.01" height="106"/><rect class="cls-35" x="44.06" y="44" width="0.01" height="106"/><rect class="cls-36" x="44.06" y="44" width="0.01" height="106"/><rect class="cls-37" x="44.07" y="44" width="0.01" height="106"/><rect class="cls-38" x="44.07" y="44" width="0.01" height="106"/><rect class="cls-39" x="44.08" y="44" width="0.01" height="106"/><rect class="cls-40" x="44.08" y="44" width="0.01" height="106"/><rect class="cls-41" x="44.09" y="44" width="0.01" height="106"/><rect class="cls-42" x="44.09" y="44" width="0.01" height="106"/><rect class="cls-43" x="44.1" y="44" width="0.01" height="106"/><rect class="cls-44" x="44.1" y="44" width="0.01" height="106"/><rect class="cls-45" x="44.11" y="44" width="0.01" height="106"/><rect class="cls-46" x="44.11" y="44" width="0.01" height="106"/><rect class="cls-47" x="44.12" y="44" width="0.01" height="106"/><path class="cls-47" d="M44.12,150v0Z"/></g><g class="cls-49"><path class="cls-3" d="M277.88,44v0Z"/><rect class="cls-3" x="277.88" y="44" width="0.01" height="106"/><rect class="cls-3" x="277.88" y="44" width="0.01" height="106"/><rect class="cls-4" x="277.89" y="44" width="0.01" height="106"/><rect class="cls-5" x="277.89" y="44" width="0.01" height="106"/><rect class="cls-5" x="277.9" y="44" width="0.01" height="106"/><rect class="cls-6" x="277.9" y="44" width="0.01" height="106"/><rect class="cls-7" x="277.91" y="44" width="0.01" height="106"/><rect class="cls-8" x="277.91" y="44" width="0.01" height="106"/><rect class="cls-9" x="277.92" y="44" width="0.01" height="106"/><rect class="cls-10" x="277.92" y="44" width="0.01" height="106"/><rect class="cls-11" x="277.93" y="44" width="0.01" height="106"/><rect class="cls-12" x="277.93" y="44" width="0.01" height="106"/><rect class="cls-13" x="277.94" y="44" width="0.01" height="106"/><rect class="cls-14" x="277.94" y="44" width="0.01" height="106"/><rect class="cls-15" x="277.95" y="44" width="0.01" height="106"/><rect class="cls-16" x="277.95" y="44" width="0.01" height="106"/><rect class="cls-17" x="277.96" y="44" width="0.01" height="106"/><rect class="cls-18" x="277.97" y="44" width="0.01" height="106"/><rect class="cls-19" x="277.97" y="44" width="0.01" height="106"/><rect class="cls-20" x="277.98" y="44" width="0.01" height="106"/><rect class="cls-21" x="277.98" y="44" width="0.01" height="106"/><rect class="cls-22" x="277.99" y="44" width="0.01" height="106"/><rect class="cls-23" x="277.99" y="44" width="0.01" height="106"/><rect class="cls-24" x="278" y="44" width="0.01" height="106"/><rect class="cls-25" x="278" y="44" width="0.01" height="106"/><rect class="cls-26" x="278.01" y="44" width="0.01" height="106"/><rect class="cls-27" x="278.01" y="44" width="0.01" height="106"/><rect class="cls-28" x="278.02" y="44" width="0.01" height="106"/><rect class="cls-29" x="278.02" y="44" width="0.01" height="106"/><rect class="cls-30" x="278.03" y="44" width="0.01" height="106"/><rect class="cls-31" x="278.03" y="44" width="0.01" height="106"/><rect class="cls-32" x="278.04" y="44" width="0.01" height="106"/><rect class="cls-33" x="278.05" y="44" width="0.01" height="106"/><rect class="cls-34" x="278.05" y="44" width="0.01" height="106"/><rect class="cls-35" x="278.06" y="44" width="0.01" height="106"/><rect class="cls-36" x="278.06" y="44" width="0.01" height="106"/><rect class="cls-37" x="278.07" y="44" width="0.01" height="106"/><rect class="cls-38" x="278.07" y="44" width="0.01" height="106"/><rect class="cls-39" x="278.08" y="44" width="0.01" height="106"/><rect class="cls-40" x="278.08" y="44" width="0.01" height="106"/><rect class="cls-41" x="278.09" y="44" width="0.01" height="106"/><rect class="cls-42" x="278.09" y="44" width="0.01" height="106"/><rect class="cls-43" x="278.1" y="44" width="0.01" height="106"/><rect class="cls-44" x="278.1" y="44" width="0.01" height="106"/><rect class="cls-45" x="278.11" y="44" width="0.01" height="106"/><rect class="cls-46" x="278.11" y="44" width="0.01" height="106"/><rect class="cls-47" x="278.12" y="44" width="0.01" height="106"/><path class="cls-47" d="M278.12,150v0Z"/></g><g class="cls-50"><path class="cls-3" d="M44,43.88v0Z"/><rect class="cls-3" x="44" y="43.88" width="4.98" height="0.25"/><rect class="cls-3" x="48.98" y="43.88" width="4.98" height="0.25"/><rect class="cls-4" x="53.96" y="43.88" width="4.98" height="0.25"/><rect class="cls-5" x="58.94" y="43.88" width="4.98" height="0.25"/><rect class="cls-5" x="63.91" y="43.88" width="4.98" height="0.25"/><rect class="cls-6" x="68.89" y="43.88" width="4.98" height="0.25"/><rect class="cls-7" x="73.87" y="43.88" width="4.98" height="0.25"/><rect class="cls-8" x="78.85" y="43.88" width="4.98" height="0.25"/><rect class="cls-9" x="83.83" y="43.88" width="4.98" height="0.25"/><rect class="cls-10" x="88.81" y="43.88" width="4.98" height="0.25"/><rect class="cls-11" x="93.79" y="43.88" width="4.98" height="0.25"/><rect class="cls-12" x="98.77" y="43.88" width="4.98" height="0.25"/><rect class="cls-13" x="103.74" y="43.88" width="4.98" height="0.25"/><rect class="cls-14" x="108.72" y="43.88" width="4.98" height="0.25"/><rect class="cls-15" x="113.7" y="43.88" width="4.98" height="0.25"/><rect class="cls-16" x="118.68" y="43.88" width="4.98" height="0.25"/><rect class="cls-17" x="123.66" y="43.88" width="4.98" height="0.25"/><rect class="cls-18" x="128.64" y="43.88" width="4.98" height="0.25"/><rect class="cls-19" x="133.62" y="43.88" width="4.98" height="0.25"/><rect class="cls-20" x="138.6" y="43.88" width="4.98" height="0.25"/><rect class="cls-21" x="143.57" y="43.88" width="4.98" height="0.25"/><rect class="cls-22" x="148.55" y="43.88" width="4.98" height="0.25"/><rect class="cls-23" x="153.53" y="43.88" width="4.98" height="0.25"/><rect class="cls-24" x="158.51" y="43.88" width="4.98" height="0.25"/><rect class="cls-25" x="163.49" y="43.88" width="4.98" height="0.25"/><rect class="cls-26" x="168.47" y="43.88" width="4.98" height="0.25"/><rect class="cls-27" x="173.45" y="43.88" width="4.98" height="0.25"/><rect class="cls-28" x="178.43" y="43.88" width="4.98" height="0.25"/><rect class="cls-29" x="183.4" y="43.88" width="4.98" height="0.25"/><rect class="cls-30" x="188.38" y="43.88" width="4.98" height="0.25"/><rect class="cls-31" x="193.36" y="43.88" width="4.98" height="0.25"/><rect class="cls-32" x="198.34" y="43.88" width="4.98" height="0.25"/><rect class="cls-33" x="203.32" y="43.88" width="4.98" height="0.25"/><rect class="cls-34" x="208.3" y="43.88" width="4.98" height="0.25"/><rect class="cls-35" x="213.28" y="43.88" width="4.98" height="0.25"/><rect class="cls-36" x="218.26" y="43.88" width="4.98" height="0.25"/><rect class="cls-37" x="223.23" y="43.88" width="4.98" height="0.25"/><rect class="cls-38" x="228.21" y="43.88" width="4.98" height="0.25"/><rect class="cls-39" x="233.19" y="43.88" width="4.98" height="0.25"/><rect class="cls-40" x="238.17" y="43.88" width="4.98" height="0.25"/><rect class="cls-41" x="243.15" y="43.88" width="4.98" height="0.25"/><rect class="cls-42" x="248.13" y="43.88" width="4.98" height="0.25"/><rect class="cls-43" x="253.11" y="43.88" width="4.98" height="0.25"/><rect class="cls-44" x="258.09" y="43.88" width="4.98" height="0.25"/><rect class="cls-45" x="263.06" y="43.88" width="4.98" height="0.25"/><rect class="cls-46" x="268.04" y="43.88" width="4.98" height="0.25"/><rect class="cls-47" x="273.02" y="43.88" width="4.98" height="0.25"/><path class="cls-47" d="M278,44.12v0Z"/></g><g class="cls-51"><path class="cls-3" d="M44,215.88v0Z"/><rect class="cls-3" x="44" y="215.88" width="3.13" height="0.25"/><rect class="cls-3" x="47.13" y="215.88" width="3.13" height="0.25"/><rect class="cls-4" x="50.26" y="215.88" width="3.13" height="0.25"/><rect class="cls-5" x="53.38" y="215.88" width="3.13" height="0.25"/><rect class="cls-5" x="56.51" y="215.88" width="3.13" height="0.25"/><rect class="cls-6" x="59.64" y="215.88" width="3.13" height="0.25"/><rect class="cls-7" x="62.77" y="215.88" width="3.13" height="0.25"/><rect class="cls-8" x="65.89" y="215.88" width="3.13" height="0.25"/><rect class="cls-9" x="69.02" y="215.88" width="3.13" height="0.25"/><rect class="cls-10" x="72.15" y="215.88" width="3.13" height="0.25"/><rect class="cls-11" x="75.28" y="215.88" width="3.13" height="0.25"/><rect class="cls-12" x="78.4" y="215.88" width="3.13" height="0.25"/><rect class="cls-13" x="81.53" y="215.88" width="3.13" height="0.25"/><rect class="cls-14" x="84.66" y="215.88" width="3.13" height="0.25"/><rect class="cls-15" x="87.79" y="215.88" width="3.13" height="0.25"/><rect class="cls-16" x="90.91" y="215.88" width="3.13" height="0.25"/><rect class="cls-17" x="94.04" y="215.88" width="3.13" height="0.25"/><rect class="cls-18" x="97.17" y="215.88" width="3.13" height="0.25"/><rect class="cls-19" x="100.3" y="215.88" width="3.13" height="0.25"/><rect class="cls-20" x="103.43" y="215.88" width="3.13" height="0.25"/><rect class="cls-21" x="106.55" y="215.88" width="3.13" height="0.25"/><rect class="cls-22" x="109.68" y="215.88" width="3.13" height="0.25"/><rect class="cls-23" x="112.81" y="215.88" width="3.13" height="0.25"/><rect class="cls-24" x="115.94" y="215.88" width="3.13" height="0.25"/><rect class="cls-25" x="119.06" y="215.88" width="3.13" height="0.25"/><rect class="cls-26" x="122.19" y="215.88" width="3.13" height="0.25"/><rect class="cls-27" x="125.32" y="215.88" width="3.13" height="0.25"/><rect class="cls-28" x="128.45" y="215.88" width="3.13" height="0.25"/><rect class="cls-29" x="131.57" y="215.88" width="3.13" height="0.25"/><rect class="cls-30" x="134.7" y="215.88" width="3.13" height="0.25"/><rect class="cls-31" x="137.83" y="215.88" width="3.13" height="0.25"/><rect class="cls-32" x="140.96" y="215.88" width="3.13" height="0.25"/><rect class="cls-33" x="144.09" y="215.88" width="3.13" height="0.25"/><rect class="cls-34" x="147.21" y="215.88" width="3.13" height="0.25"/><rect class="cls-35" x="150.34" y="215.88" width="3.13" height="0.25"/><rect class="cls-36" x="153.47" y="215.88" width="3.13" height="0.25"/><rect class="cls-37" x="156.6" y="215.88" width="3.13" height="0.25"/><rect class="cls-38" x="159.72" y="215.88" width="3.13" height="0.25"/><rect class="cls-39" x="162.85" y="215.88" width="3.13" height="0.25"/><rect class="cls-40" x="165.98" y="215.88" width="3.13" height="0.25"/><rect class="cls-41" x="169.11" y="215.88" width="3.13" height="0.25"/><rect class="cls-42" x="172.23" y="215.88" width="3.13" height="0.25"/><rect class="cls-43" x="175.36" y="215.88" width="3.13" height="0.25"/><rect class="cls-44" x="178.49" y="215.88" width="3.13" height="0.25"/><rect class="cls-45" x="181.62" y="215.88" width="3.13" height="0.25"/><rect class="cls-46" x="184.74" y="215.88" width="3.13" height="0.25"/><rect class="cls-47" x="187.87" y="215.88" width="3.13" height="0.25"/><path class="cls-47" d="M191,216.12v0Z"/></g><g class="cls-52"><path class="cls-3" d="M44,149.88v0Z"/><rect class="cls-3" x="44" y="149.88" width="3.13" height="0.25"/><rect class="cls-3" x="47.13" y="149.88" width="3.13" height="0.25"/><rect class="cls-4" x="50.26" y="149.88" width="3.13" height="0.25"/><rect class="cls-5" x="53.38" y="149.88" width="3.13" height="0.25"/><rect class="cls-5" x="56.51" y="149.88" width="3.13" height="0.25"/><rect class="cls-6" x="59.64" y="149.88" width="3.13" height="0.25"/><rect class="cls-7" x="62.77" y="149.88" width="3.13" height="0.25"/><rect class="cls-8" x="65.89" y="149.88" width="3.13" height="0.25"/><rect class="cls-9" x="69.02" y="149.88" width="3.13" height="0.25"/><rect class="cls-10" x="72.15" y="149.88" width="3.13" height="0.25"/><rect class="cls-11" x="75.28" y="149.88" width="3.13" height="0.25"/><rect class="cls-12" x="78.4" y="149.88" width="3.13" height="0.25"/><rect class="cls-13" x="81.53" y="149.88" width="3.13" height="0.25"/><rect class="cls-14" x="84.66" y="149.88" width="3.13" height="0.25"/><rect class="cls-15" x="87.79" y="149.88" width="3.13" height="0.25"/><rect class="cls-16" x="90.91" y="149.88" width="3.13" height="0.25"/><rect class="cls-17" x="94.04" y="149.88" width="3.13" height="0.25"/><rect class="cls-18" x="97.17" y="149.88" width="3.13" height="0.25"/><rect class="cls-19" x="100.3" y="149.88" width="3.13" height="0.25"/><rect class="cls-20" x="103.43" y="149.88" width="3.13" height="0.25"/><rect class="cls-21" x="106.55" y="149.88" width="3.13" height="0.25"/><rect class="cls-22" x="109.68" y="149.88" width="3.13" height="0.25"/><rect class="cls-23" x="112.81" y="149.88" width="3.13" height="0.25"/><rect class="cls-24" x="115.94" y="149.88" width="3.13" height="0.25"/><rect class="cls-25" x="119.06" y="149.88" width="3.13" height="0.25"/><rect class="cls-26" x="122.19" y="149.88" width="3.13" height="0.25"/><rect class="cls-27" x="125.32" y="149.88" width="3.13" height="0.25"/><rect class="cls-28" x="128.45" y="149.88" width="3.13" height="0.25"/><rect class="cls-29" x="131.57" y="149.88" width="3.13" height="0.25"/><rect class="cls-30" x="134.7" y="149.88" width="3.13" height="0.25"/><rect class="cls-31" x="137.83" y="149.88" width="3.13" height="0.25"/><rect class="cls-32" x="140.96" y="149.88" width="3.13" height="0.25"/><rect class="cls-33" x="144.09" y="149.88" width="3.13" height="0.25"/><rect class="cls-34" x="147.21" y="149.88" width="3.13" height="0.25"/><rect class="cls-35" x="150.34" y="149.88" width="3.13" height="0.25"/><rect class="cls-36" x="153.47" y="149.88" width="3.13" height="0.25"/><rect class="cls-37" x="156.6" y="149.88" width="3.13" height="0.25"/><rect class="cls-38" x="159.72" y="149.88" width="3.13" height="0.25"/><rect class="cls-39" x="162.85" y="149.88" width="3.13" height="0.25"/><rect class="cls-40" x="165.98" y="149.88" width="3.13" height="0.25"/><rect class="cls-41" x="169.11" y="149.88" width="3.13" height="0.25"/><rect class="cls-42" x="172.23" y="149.88" width="3.13" height="0.25"/><rect class="cls-43" x="175.36" y="149.88" width="3.13" height="0.25"/><rect class="cls-44" x="178.49" y="149.88" width="3.13" height="0.25"/><rect class="cls-45" x="181.62" y="149.88" width="3.13" height="0.25"/><rect class="cls-46" x="184.74" y="149.88" width="3.13" height="0.25"/><rect class="cls-47" x="187.87" y="149.88" width="3.13" height="0.25"/><path class="cls-47" d="M191,150.12v0Z"/></g><rect class="cls-53" x="273" y="139" width="11" height="11"/><rect class="cls-54" x="38" y="311" width="11" height="11"/><rect class="cls-55" x="300" y="172" width="22" height="150"/><rect class="cls-56" x="213" y="172" width="22" height="150"/><polygon class="cls-57" points="213 172 300 322 300 277 239 172 213 172"/><rect class="cls-58" y="172" width="191" height="22"/><rect class="cls-59" width="22" height="322"/><rect class="cls-60" width="322" height="22"/><rect class="cls-61" x="300" width="22" height="150"/></g></g></svg>