<svg id="Layer_1" data-name="Layer 1" xmlns="http://www.w3.org/2000/svg" viewBox="0 0 134.33 105.71"><defs><style>.cls-1{fill:#a7d0d4;}</style></defs><title>hey</title><path class="cls-1" d="M1193.33,636.06c-24.57,18.39-30.73,51.67-13.77,74.34s50.64,26.14,75.21,7.75a58.67,58.67,0,0,0,19.39-25l27.77-10.92a3.75,3.75,0,0,0,.17-6.91l-24.77-11.15a47.78,47.78,0,0,0-8.8-20.31c-17-22.67-50.64-26.14-75.21-7.75h0Zm38.9,43.32a5,5,0,1,1-8,6l-16.35-21.85a5,5,0,0,1,8-6Zm7.28,18.07a5.5,5.5,0,1,1,1.11-7.7,5.51,5.51,0,0,1-1.11,7.7h0Zm0,0" transform="translate(-1169.98 -624.25)"/></svg>