<svg id="Layer_1" data-name="Layer 1" xmlns="http://www.w3.org/2000/svg" viewBox="0 0 329.14 512"><defs><style>.cls-1{fill:#d88584;}</style></defs><title>prev</title><path class="cls-1" d="M447.29,400.15A54.86,54.86,0,1,1,392.43,455a54.85,54.85,0,0,1,54.86-54.86" transform="translate(-392.43 -199.01)"/><path class="cls-1" d="M557,409.29a54.86,54.86,0,1,1,54.86-54.86A54.85,54.85,0,0,1,557,409.29" transform="translate(-392.43 -199.01)"/><path class="cls-1" d="M666.71,308.72a54.86,54.86,0,1,1,54.86-54.86,54.85,54.85,0,0,1-54.86,54.86" transform="translate(-392.43 -199.01)"/><path class="cls-1" d="M557,500.72a54.86,54.86,0,1,1-54.86,54.86A54.85,54.85,0,0,1,557,500.72" transform="translate(-392.43 -199.01)"/><path class="cls-1" d="M666.71,601.29a54.86,54.86,0,1,1-54.86,54.86,54.85,54.85,0,0,1,54.86-54.86" transform="translate(-392.43 -199.01)"/></svg>