<svg id="Layer_1" data-name="Layer 1" xmlns="http://www.w3.org/2000/svg" viewBox="0 0 379.15 309.08"><defs><style>.cls-1{fill:none;}.cls-2{fill:#fff;}.cls-3{fill:#d88584;}.cls-4{fill:#473648;}.cls-5{fill:#309ad6;}.cls-6{fill:#d82e2e;}.cls-7{fill:#f7f7f7;}.cls-8{opacity:0.2;}.cls-9{fill:#4d3751;}</style></defs><title>sect3-bg-hgl1</title><path class="cls-1" d="M307.6,417.59c7.5-5.53,7.5-8.38,0-13.92C257.31,366.56,202.53,295,202.53,247.12a110.61,110.61,0,0,1,14.13-54c0.59-1.07,1.22-2.12,1.85-3.12H203V161H186V427H295.91C299.82,423,303.72,420.45,307.6,417.59Z" transform="translate(-149 -117.92)"/><path class="cls-1" d="M459.05,190c0.63,1,1.26,2,1.85,3.09a110.49,110.49,0,0,1,14.14,54C475,295,420.25,366.46,370,403.58c-7.48,5.53-7.48,8.49,0,14,3.88,2.86,7.78,5.4,11.68,9.4H492V161H475v29H459.05Z" transform="translate(-149 -117.92)"/><path class="cls-2" d="M370,403.56C420.25,366.44,475,295,475,247.07A110.64,110.64,0,0,0,460.9,193c-0.59-1.07-1.22-2.12-1.85-3.17H218.51c-0.63,1-1.26,2.1-1.85,3.17a110.79,110.79,0,0,0-14.13,54.05c0,47.92,54.78,119.37,105.06,156.49,7.5,5.53,7.5,8.27,0,13.8q-5.82,4.29-11.68,9.17h44.61c-0.26-.41-0.53-0.82-0.79-1.23a0.94,0.94,0,0,0,.15.07,0.55,0.55,0,0,1-.11-0.07h0l-0.2-.07a3.37,3.37,0,0,1-.39.14c-0.07,0-.18,0-0.18,0V425c-2-.87-2.53-2.76-3.33-4.45C319.19,385.89,280,368.44,257,339a175.4,175.4,0,0,1-16.39-25.42c-2.41-4.52-12.08-20-3.83-24.08a8.18,8.18,0,0,1,2.82-.65c23.64-2.38,47.25,6.58,70.7,9.64,9.54,1.25,19.06,1.52,28.54-.35,8.42-1.66,16.41-5,24.6-7.51a142.24,142.24,0,0,1,57.9-5.46c5.89,0.67,12.08,1.87,16.51,5.8,14.06,12.48-8,38.14-15.69,48-23,29.48-62.18,46.93-78.66,81.56a14.32,14.32,0,0,1-2.06,3.41A124.76,124.76,0,0,1,350.13,405c11.09-19.84,25.93-37.83,33.3-59.33-7.37,21.5-22.26,39.49-33.34,59.33a125,125,0,0,0-8.75,18.91l0,0c-0.3.86-.52,1.72-0.8,2.59h41.13q-5.86-4.87-11.68-9.17C362.48,411.82,362.48,409.09,370,403.56Z" transform="translate(-149 -117.92)"/><path class="cls-3" d="M218.51,190a124.55,124.55,0,0,1,23.07-28H436a124.43,124.43,0,0,1,23.05,28H475V161H203v29h15.51Z" transform="translate(-149 -117.92)"/><path class="cls-3" d="M436,162H241.58a124.55,124.55,0,0,0-23.07,28H459.05A124.43,124.43,0,0,0,436,162Z" transform="translate(-149 -117.92)"/><polygon class="cls-4" points="37 21.46 37 42.92 53.53 42.92 53.53 36.96 326.05 36.96 326.05 42.92 342.58 42.92 342.58 21.46 364.62 21.46 364.62 42.92 379.15 42.92 379.15 0 0.43 0 0.43 42.92 14.96 42.92 14.96 21.46 37 21.46"/><rect class="cls-4" x="14.96" y="21.46" width="22.04" height="21.46"/><rect class="cls-4" x="342.58" y="21.46" width="22.04" height="21.46"/><rect class="cls-4" x="53.53" y="36.96" width="272.52" height="5.96"/><path class="cls-5" d="M262.91,309.7c-2.52-2.16-5.12-5.08-4.52-8.35,0.9-4.94,7.63-5.67,12.62-5,13,1.62,26,4.24,39,6q0.13-1.94.29-3.88c-23.45-3.06-47.06-12-70.7-9.64a8.18,8.18,0,0,0-2.82.65c-8.25,4.07,1.42,19.56,3.83,24.08A175.4,175.4,0,0,0,257,339c23,29.48,62.2,46.93,78.68,81.56,0.8,1.69,1.33,3.57,3.33,4.45v0.43s0.11,0,.18,0a3.37,3.37,0,0,0,.39-0.14l0.2,0.07C322.23,397,312.23,364.22,310,330.92,292.68,327.89,276.17,321.11,262.91,309.7Z" transform="translate(-149 -117.92)"/><path class="cls-6" d="M417.15,294.07c5.57,1.8,12.43,5.76,11,11.43-0.92,3.54-4.75,5.34-8.16,6.65-10.52,4.05-21.18,7.94-32,11.23a89.23,89.23,0,0,1-4.53,22.3c-7.37,21.5-22.21,39.49-33.3,59.33a124.76,124.76,0,0,0-8.71,18.91,14.32,14.32,0,0,0,2.06-3.41C360,385.89,399.15,368.44,422.15,339c7.72-9.89,29.75-35.55,15.69-48-4.44-3.93-10.62-5.13-16.51-5.8a141.6,141.6,0,0,0-38,.84q1.16,3.54,2,7.16C395.86,291.11,406.39,290.59,417.15,294.07Z" transform="translate(-149 -117.92)"/><path class="cls-7" d="M330.21,304.16c18.75,0.6,36.86-7.52,55.19-11q-0.89-3.62-2-7.16a140.86,140.86,0,0,0-19.93,4.62c-8.19,2.55-16.18,5.85-24.6,7.51-9.48,1.87-19,1.6-28.54.35q-0.17,1.94-.29,3.88A195.51,195.51,0,0,0,330.21,304.16Z" transform="translate(-149 -117.92)"/><path class="cls-7" d="M340,425a1.91,1.91,0,0,0,1.33-1v0l0,0A125,125,0,0,1,350.09,405c11.09-19.84,26-37.83,33.34-59.33a89.23,89.23,0,0,0,4.53-22.3c-15.6,4.75-31.5,8.27-47.75,9.2A132,132,0,0,1,310,330.92c2.23,33.3,12.24,66.07,29.78,94.38h0a0.55,0.55,0,0,0,.11.07,0.57,0.57,0,0,1,.12,0V425Z" transform="translate(-149 -117.92)"/><path class="cls-7" d="M310,330.92h0c2.23,33.3,12.23,66.07,29.78,94.38h0C322.23,397,312.23,364.22,310,330.92Z" transform="translate(-149 -117.92)"/><path class="cls-5" d="M310,302.57c0-.08,0-0.17,0-0.25-13-1.78-25.95-4.4-39-6-5-.62-11.71.11-12.62,5-0.6,3.27,2,6.18,4.52,8.35,13.26,11.41,29.77,18.19,47.09,21.22A213.86,213.86,0,0,1,310,302.57Z" transform="translate(-149 -117.92)"/><path class="cls-8" d="M310,302.57c0-.08,0-0.17,0-0.25-13-1.78-25.95-4.4-39-6-5-.62-11.71.11-12.62,5-0.6,3.27,2,6.18,4.52,8.35,13.26,11.41,29.77,18.19,47.09,21.22A213.86,213.86,0,0,1,310,302.57Z" transform="translate(-149 -117.92)"/><path class="cls-6" d="M428.11,305.5c1.47-5.66-5.39-9.63-11-11.43-10.76-3.48-21.29-3-31.75-1A97,97,0,0,1,388,323.38c10.8-3.29,21.46-7.18,32-11.23C423.36,310.84,427.2,309,428.11,305.5Z" transform="translate(-149 -117.92)"/><path class="cls-8" d="M428.11,305.5c1.47-5.66-5.39-9.63-11-11.43-10.76-3.48-21.29-3-31.75-1A97,97,0,0,1,388,323.38c10.8-3.29,21.46-7.18,32-11.23C423.36,310.84,427.2,309,428.11,305.5Z" transform="translate(-149 -117.92)"/><path class="cls-7" d="M385.4,293.12c-18.33,3.52-36.45,11.65-55.19,11A195.51,195.51,0,0,1,310,302.32c0,0.08,0,.17,0,0.25a213.8,213.8,0,0,0,0,28.34,132,132,0,0,0,30.22,1.67c16.25-.94,32.15-4.45,47.75-9.2A97,97,0,0,0,385.4,293.12Z" transform="translate(-149 -117.92)"/><path class="cls-8" d="M385.4,293.12c-18.33,3.52-36.45,11.65-55.19,11A195.51,195.51,0,0,1,310,302.32c0,0.08,0,.17,0,0.25a213.8,213.8,0,0,0,0,28.34,132,132,0,0,0,30.22,1.67c16.25-.94,32.15-4.45,47.75-9.2A97,97,0,0,0,385.4,293.12Z" transform="translate(-149 -117.92)"/><path class="cls-7" d="M310,302.57a213.86,213.86,0,0,0,0,28.34h0A213.8,213.8,0,0,1,310,302.57Z" transform="translate(-149 -117.92)"/><path class="cls-8" d="M310,302.57a213.86,213.86,0,0,0,0,28.34h0A213.8,213.8,0,0,1,310,302.57Z" transform="translate(-149 -117.92)"/><rect class="cls-3" x="54" y="21.46" width="272" height="50.63"/><rect class="cls-4" x="0.43" width="378.73" height="42.92"/><rect class="cls-9" x="343" y="37.08" width="22" height="272"/><rect class="cls-9" x="16" y="37.08" width="22" height="272"/></svg>