<svg id="Layer_1" data-name="Layer 1" xmlns="http://www.w3.org/2000/svg" viewBox="0 0 50.15 70.53"><defs><style>.cls-1{fill:#4b8689;}.cls-2{fill:#6dafaf;}.cls-3{fill:#49220f;}.cls-4{fill:#80a7a6;}.cls-5{fill:#a1c7c9;}.cls-6{fill:#4b230f;}.cls-7{fill:#bbdbd9;}.cls-8{fill:#e8f5f4;}.cls-9{fill:#f15b22;}.cls-10{fill:#ffc340;}.cls-11{fill:#e2a23b;}.cls-12{opacity:0.5;}.cls-13{fill:#fff6d2;}.cls-14{fill:#ffe3a6;}.cls-15{fill:#ff881b;opacity:0.3;}.cls-16{fill:#4c4518;}.cls-17{fill:#fff;}</style></defs><title>sect3-matchmi</title><polygon class="cls-1" points="10.06 35.57 14.65 50.47 6.77 53.87 8.25 70.14 2.98 53.07 2.74 52.29 2.31 50.9 1.87 49.46 0.4 44.68 10.06 35.57"/><polygon class="cls-2" points="10.5 37.01 10.95 38.45 2.31 50.9 1.87 49.46 10.5 37.01"/><polygon class="cls-2" points="11.38 39.84 11.62 40.61 2.98 53.07 2.74 52.29 11.38 39.84"/><path class="cls-3" d="M282.11,321.09h0a0.39,0.39,0,0,1-.45-0.27l-7.86-25.46a0.4,0.4,0,0,1,.11-0.4l9.67-9.11a0.39,0.39,0,0,1,.65.17l4.59,14.9a0.4,0.4,0,0,1-.22.48l-7.61,3.28,1.46,16A0.39,0.39,0,0,1,282.11,321.09Zm-7.53-25.71L281.25,317l-1.14-12.52a0.4,0.4,0,0,1,.23-0.4l7.55-3.26-4.3-14Z" transform="translate(-273.74 -250.57)"/><polygon class="cls-1" points="41.94 31.89 42.21 32.8 42.64 34.19 42.88 34.97 49.76 57.37 41.83 43.08 36.55 44.09 35.66 44.26 34.05 44.57 33.4 44.69 28.82 29.8 41.45 31.82 41.94 31.89"/><polygon class="cls-2" points="41.94 31.89 42.21 32.8 34.05 44.57 33.4 44.69 33.13 43.82 41.45 31.82 41.94 31.89"/><polygon class="cls-2" points="42.64 34.19 42.88 34.97 36.55 44.09 35.66 44.26 42.64 34.19"/><path class="cls-3" d="M323.6,308.32a0.4,0.4,0,0,1-.46-0.19l-7.78-14-8.14,1.57a0.39,0.39,0,0,1-.45-0.27l-4.59-14.9a0.39,0.39,0,0,1,.07-0.37,0.41,0.41,0,0,1,.36-0.14l13.11,2.1a0.39,0.39,0,0,1,.32.28l7.81,25.47a0.39,0.39,0,0,1-.22.48h0Zm-16.19-13.5,8.08-1.55a0.4,0.4,0,0,1,.42.2l6.1,11-6.64-21.64-12.25-2Z" transform="translate(-273.74 -250.57)"/><polygon class="cls-4" points="34.51 53.52 19.34 58.15 13.56 48.85 33.17 42.82 34.51 53.52"/><path class="cls-3" d="M308.36,304.47h0L293.2,309.1a0.4,0.4,0,0,1-.45-0.17l-5.79-9.3a0.41,0.41,0,0,1,0-.35,0.42,0.42,0,0,1,.26-0.24l19.61-6a0.4,0.4,0,0,1,.33.05,0.39,0.39,0,0,1,.18.28l1.34,10.7A0.39,0.39,0,0,1,308.36,304.47Zm-15.1,3.79,14.56-4.45-1.25-9.91-18.67,5.75Z" transform="translate(-273.74 -250.57)"/><path class="cls-5" d="M305.76,277.78c2.31,7.5,3,14.74,2.25,20.43L289.28,304a35.6,35.6,0,0,1-2.45-3.1,53.73,53.73,0,0,1-7.17-15.06l-0.2-.64c-0.47-1.62-.87-3.27-1.18-4.93a58,58,0,0,1-.94-13.39,37.84,37.84,0,0,1,1.9-10.76c1-2.72,2.31-4.53,3.81-5s3.79,0.3,6.25,2.05a37.45,37.45,0,0,1,7.56,7.61,56.63,56.63,0,0,1,6.85,11.54A51.23,51.23,0,0,1,305.76,277.78Z" transform="translate(-273.74 -250.57)"/><path class="cls-6" d="M308.12,298.59l-18.73,5.76a0.41,0.41,0,0,1-.41-0.12,35.67,35.67,0,0,1-2.48-3.14,54.4,54.4,0,0,1-7.23-15.17c-0.06-.22-0.13-0.43-0.19-0.65-0.47-1.6-.87-3.27-1.19-5a58.48,58.48,0,0,1-1-13.48A37.82,37.82,0,0,1,278.87,256c1.07-2.94,2.48-4.75,4.07-5.24s3.94,0.22,6.59,2.11a37.88,37.88,0,0,1,7.64,7.69,57,57,0,0,1,6.9,11.63,49.28,49.28,0,0,1,2.06,5.51c2.25,7.3,3.06,14.61,2.26,20.59A0.39,0.39,0,0,1,308.12,298.59Zm-18.72,4.93,18.24-5.62c0.72-5.82-.08-12.92-2.26-20a51.11,51.11,0,0,0-2-5.43A56.37,56.37,0,0,0,296.54,261a37.11,37.11,0,0,0-7.48-7.52c-2.41-1.72-4.51-2.43-5.9-2s-2.59,2.1-3.56,4.75a37.46,37.46,0,0,0-1.88,10.64,57.8,57.8,0,0,0,.94,13.29c0.31,1.66.71,3.31,1.17,4.89,0.06,0.21.13,0.43,0.2,0.64a53.46,53.46,0,0,0,7.12,14.94A36.13,36.13,0,0,0,289.41,303.52Z" transform="translate(-273.74 -250.57)"/><path class="cls-1" d="M303.69,316l-13.36-30.74c2.08-3.05,4.37-3,6.62-2Z" transform="translate(-273.74 -250.57)"/><path class="cls-3" d="M303.8,316.37a0.4,0.4,0,0,1-.48-0.22L290,285.41a0.39,0.39,0,0,1,0-.38,6.08,6.08,0,0,1,3.16-2.61,5.59,5.59,0,0,1,3.94.44,0.39,0.39,0,0,1,.23.28l6.74,32.77a0.4,0.4,0,0,1-.27.46h0Zm-13-31.07,11.76,27.05-5.93-28.86a4.65,4.65,0,0,0-3.21-.32A5.18,5.18,0,0,0,290.78,285.3Z" transform="translate(-273.74 -250.57)"/><g id="_Group_" data-name="&lt;Group&gt;"><path class="cls-7" d="M299,263.69a56.51,56.51,0,0,1,4.75,8.62,59.6,59.6,0,0,0-9.31,1.45l-1.46.37c-0.62.17-1.24,0.34-1.86,0.53l-0.89.28a59,59,0,0,0-9.91,4.19c-0.59.32-1.17,0.64-1.74,1l-0.26.15c-0.14-.77-0.27-1.53-0.39-2.3h0c-0.06-.44-0.12-0.87-0.18-1.3h0a58,58,0,0,1-.38-9.78q2.92-1.4,5.95-2.53l0.92-.33,1.91-.65,1.51-.47h0a71.52,71.52,0,0,1,9-2.06l0.28,0,0.32,0.41c0.34,0.45.68,0.9,1,1.37S298.7,263.31,299,263.69Z" transform="translate(-273.74 -250.57)"/></g><path class="cls-8" d="M284.2,264l-6.31,13.95c-0.06-.44-0.12-0.87-0.18-1.3h0l5.57-12.31Z" transform="translate(-273.74 -250.57)"/><path class="cls-8" d="M287.63,262.88l-7.35,16.25c-0.59.32-1.17,0.64-1.74,1l7.58-16.75Z" transform="translate(-273.74 -250.57)"/><path class="cls-8" d="M297.18,261.19l-6.09,13.47-0.89.28,6.39-14.12,0.28,0Z" transform="translate(-273.74 -250.57)"/><path class="cls-8" d="M299,263.69l-4.56,10.07-1.46.37,5.23-11.57C298.44,262.93,298.7,263.31,299,263.69Z" transform="translate(-273.74 -250.57)"/><path class="cls-3" d="M278.4,280.62a0.4,0.4,0,0,1-.28,0,0.39,0.39,0,0,1-.23-0.29c-0.15-.76-0.27-1.54-0.39-2.31h0c-0.07-.47-0.13-0.89-0.18-1.3,0,0,0,0,0,0a58.06,58.06,0,0,1-.39-9.85,0.39,0.39,0,0,1,.22-0.33c2-.94,4-1.79,6-2.54l0.92-.34c0.63-.23,1.28-0.44,1.92-0.65l1.07-.34,0.45-.14a70.89,70.89,0,0,1,9-2.07l0.19,0,0.09,0a0.4,0.4,0,0,1,.38.15l0.32,0.42c0.33,0.44.67,0.9,1,1.38s0.54,0.78.79,1.15a56.71,56.71,0,0,1,4.77,8.64l0,0.08a0.39,0.39,0,0,1-.26.49l-0.09,0a59,59,0,0,0-9.24,1.44l-1.45.37c-0.6.16-1.22,0.33-1.85,0.53l-0.88.27a58.32,58.32,0,0,0-9.85,4.16c-0.59.32-1.17,0.64-1.73,1l-0.26.15Zm-0.12-2.74h0c0.08,0.58.18,1.16,0.28,1.74l1.53-.85a59.35,59.35,0,0,1,10-4.22l0.89-.28c0.63-.19,1.27-0.37,1.87-0.53l1.47-.37a59.22,59.22,0,0,1,8.81-1.41,56.13,56.13,0,0,0-4.49-8.05c-0.24-.36-0.5-0.73-0.78-1.13s-0.66-.92-1-1.36l-0.18-.23h0a71.27,71.27,0,0,0-8.9,2.06l-0.45.14-1.05.33c-0.63.21-1.28,0.42-1.9,0.65l-0.92.33c-1.92.72-3.83,1.52-5.7,2.41a57,57,0,0,0,.39,9.47,0,0,0,0,0,0,0C278.16,277,278.22,277.42,278.28,277.88Z" transform="translate(-273.74 -250.57)"/><path class="cls-6" d="M290.49,275.25A0.39,0.39,0,0,1,290,275l-3.62-11.73a0.4,0.4,0,0,1,.26-0.49h0a0.4,0.4,0,0,1,.49.26l3.62,11.73a0.39,0.39,0,0,1-.26.49h0Z" transform="translate(-273.74 -250.57)"/><path class="cls-9" d="M289.3,253.16a21.32,21.32,0,0,1-10.06,2.94c1-2.72,2.31-4.53,3.81-5S286.84,251.41,289.3,253.16Z" transform="translate(-273.74 -250.57)"/><path class="cls-6" d="M284.85,255.55a20.84,20.84,0,0,1-5.6.95,0.4,0.4,0,0,1-.33-0.17,0.41,0.41,0,0,1,0-.36c1.07-2.94,2.48-4.75,4.07-5.24s3.94,0.22,6.59,2.11a0.4,0.4,0,0,1,.16.34,0.4,0.4,0,0,1-.19.32A21,21,0,0,1,284.85,255.55Zm-5,.13a21.1,21.1,0,0,0,8.74-2.55c-2.2-1.46-4.1-2-5.39-1.65S280.76,253.35,279.82,255.68Z" transform="translate(-273.74 -250.57)"/><path class="cls-3" d="M296.52,307.91a0.4,0.4,0,0,1-.46-0.19l-2.66-5a0.4,0.4,0,1,1,.7-0.37l2.66,5a0.4,0.4,0,0,1-.16.53Z" transform="translate(-273.74 -250.57)"/><path class="cls-3" d="M304.72,305.39l-0.08,0a0.39,0.39,0,0,1-.43-0.36l-0.59-5.6A0.39,0.39,0,0,1,304,299a0.39,0.39,0,0,1,.43.35L305,305A0.39,0.39,0,0,1,304.72,305.39Z" transform="translate(-273.74 -250.57)"/><path class="cls-6" d="M278.58,265.48a0.34,0.34,0,0,1-.28-0.62s0.25-.15.7-0.39a0.35,0.35,0,1,1,.32.61c-0.43.23-.67,0.37-0.67,0.37Z" transform="translate(-273.74 -250.57)"/><path class="cls-6" d="M280.8,264.34a0.34,0.34,0,0,1-.24-0.64c0.51-.24,1-0.47,1.58-0.69a0.35,0.35,0,0,1,.45.19,0.34,0.34,0,0,1-.19.45l-1.55.68Zm11.41-3.56h0l-1.67.34a0.35,0.35,0,0,1-.41-0.26,0.35,0.35,0,0,1,.27-0.41c0.56-.12,1.12-0.24,1.69-0.34a0.34,0.34,0,0,1,.4.27A0.34,0.34,0,0,1,292.22,260.78ZM284,263a0.34,0.34,0,0,1-.42-0.21,0.34,0.34,0,0,1,.2-0.44c0.53-.2,1.08-0.39,1.63-0.57a0.34,0.34,0,0,1,.44.22,0.35,0.35,0,0,1-.22.44c-0.54.17-1.08,0.37-1.6,0.56h0Zm4.9-1.52h0l-1.64.44a0.34,0.34,0,1,1-.19-0.66c0.55-.16,1.11-0.31,1.66-0.46a0.35,0.35,0,0,1,.42.25A0.34,0.34,0,0,1,288.87,261.51Z" transform="translate(-273.74 -250.57)"/><path class="cls-6" d="M294.69,260.39h-0.06l-0.77.11a0.35,0.35,0,0,1-.39-0.29,0.34,0.34,0,0,1,.29-0.39l0.78-.11a0.35,0.35,0,0,1,.39.3A0.34,0.34,0,0,1,294.69,260.39Z" transform="translate(-273.74 -250.57)"/><path class="cls-6" d="M279.67,282a0.34,0.34,0,0,1-.31-0.6s0.24-.17.67-0.46a0.35,0.35,0,0,1,.48.1,0.34,0.34,0,0,1-.1.48c-0.41.27-.63,0.44-0.63,0.43Z" transform="translate(-273.74 -250.57)"/><path class="cls-6" d="M281.68,280.72a0.35,0.35,0,0,1-.28-0.63c0.45-.26.92-0.52,1.41-0.78a0.35,0.35,0,0,1,.32.61c-0.48.25-.94,0.5-1.38,0.76Zm19.54-6.24h-0.06l-1.56.22a0.35,0.35,0,0,1-.1-0.68l1.58-.22A0.35,0.35,0,0,1,301.22,274.48Zm-16.73,4.76a0.35,0.35,0,0,1-.42-0.18,0.35,0.35,0,0,1,.16-0.46l1.46-.66a0.34,0.34,0,0,1,.45.18,0.35,0.35,0,0,1-.18.46c-0.49.21-1,.43-1.43,0.65ZM298.08,275h0l-1.55.3a0.34,0.34,0,0,1-.41-0.27,0.34,0.34,0,0,1,.26-0.41l1.57-.3A0.35,0.35,0,0,1,298.08,275Zm-10.68,3a0.35,0.35,0,0,1-.23-0.65l1.49-.57a0.35,0.35,0,1,1,.23.65c-0.49.18-1,.36-1.47,0.56h0ZM295,275.6h0c-0.52.12-1,.25-1.53,0.38a0.34,0.34,0,1,1-.18-0.66l1.55-.39A0.35,0.35,0,0,1,295,275.6Zm-4.59,1.29a0.34,0.34,0,0,1-.21-0.66c0.5-.17,1-0.32,1.52-0.47a0.34,0.34,0,0,1,.43.23,0.34,0.34,0,0,1-.23.43h0l-1.51.47h0Z" transform="translate(-273.74 -250.57)"/><path class="cls-6" d="M303.58,274.22l-0.07,0-0.78.07a0.34,0.34,0,0,1-.07-0.68l0.79-.07A0.34,0.34,0,0,1,303.58,274.22Z" transform="translate(-273.74 -250.57)"/><path class="cls-5" d="M291.07,298.24a14.11,14.11,0,0,1-4.24,2.63,53.73,53.73,0,0,1-7.17-15.06l-0.2-.64a30.5,30.5,0,0,1,5.41-2A90,90,0,0,0,291.07,298.24Z" transform="translate(-273.74 -250.57)"/><path class="cls-6" d="M286.95,301.25a0.39,0.39,0,0,1-.44-0.15,54.4,54.4,0,0,1-7.23-15.17c-0.06-.22-0.13-0.43-0.19-0.65a0.39,0.39,0,0,1,.2-0.46,31.31,31.31,0,0,1,5.48-2.07,0.39,0.39,0,0,1,.48.27,90.06,90.06,0,0,0,6.17,15,0.4,0.4,0,0,1-.06.46,14.5,14.5,0,0,1-4.37,2.71Zm-7-15.87,0.1,0.32A53.62,53.62,0,0,0,287,300.38a15,15,0,0,0,3.61-2.22,91.56,91.56,0,0,1-6-14.55l-0.57.17A30.27,30.27,0,0,0,279.93,285.38Z" transform="translate(-273.74 -250.57)"/><path class="cls-5" d="M303.26,294.49a14.18,14.18,0,0,0,5-.21,54,54,0,0,0-2.54-16.48c-0.06-.22-0.13-0.43-0.2-0.64a30.19,30.19,0,0,0-5.62,1.35A90,90,0,0,1,303.26,294.49Z" transform="translate(-273.74 -250.57)"/><path class="cls-6" d="M308.36,294.66h0a14.44,14.44,0,0,1-5.14.21,0.4,0.4,0,0,1-.31-0.35,89.89,89.89,0,0,0-3.36-15.9,0.39,0.39,0,0,1,.25-0.49,30.66,30.66,0,0,1,5.69-1.37,0.4,0.4,0,0,1,.44.26l0.2,0.65a54.31,54.31,0,0,1,2.55,16.61A0.39,0.39,0,0,1,308.36,294.66Zm-4.74-.51a15,15,0,0,0,4.24-.19,53.87,53.87,0,0,0-2.52-16c0-.11-0.06-0.21-0.1-0.32a29.87,29.87,0,0,0-4.29,1l-0.57.18A92,92,0,0,1,303.62,294.14Z" transform="translate(-273.74 -250.57)"/><path class="cls-10" d="M284.07,274.55a6.65,6.65,0,0,0,8.49,4.06,6.52,6.52,0,0,0,4.26-8.39c-2.44-7.14-9-11-9-11s0.66,4.18,0,4.24c-1.3.12-4.14-6.7-4.14-6.7S281.71,267.64,284.07,274.55Z" transform="translate(-273.74 -250.57)"/><path class="cls-11" d="M283.53,274.74c-2.38-7-.5-17.63-0.42-18.08l0.34-1.91,0.74,1.79a25.58,25.58,0,0,0,3.33,6.16,19.38,19.38,0,0,0-.28-3.39l-0.19-1.19,1,0.61c0.27,0.16,6.77,4,9.25,11.3a7,7,0,0,1-.31,5.42,7.35,7.35,0,0,1-4.3,3.69A7.24,7.24,0,0,1,283.53,274.74Zm4.85-11a0.75,0.75,0,0,1-.52.3c-1.16.11-2.66-2.47-3.92-5.21-0.43,3.42-1,10.59.67,15.55h0a6.09,6.09,0,0,0,7.76,3.7A6.22,6.22,0,0,0,296,275a5.91,5.91,0,0,0,.26-4.55,21.79,21.79,0,0,0-7.72-10C288.72,261.84,288.76,263.25,288.39,263.74Z" transform="translate(-273.74 -250.57)"/><g class="cls-12"><path class="cls-13" d="M288.55,263.82s0.81,0.55,0-3.43c7.34,5.68,10.87,13.86,5.11,17.26C298.65,274,293.22,265.39,288.55,263.82Z" transform="translate(-273.74 -250.57)"/><path class="cls-14" d="M293.58,277.5a4.83,4.83,0,0,0,1.81-4.9c-0.55-3.51-3.72-7.48-6.81-8.57a0.36,0.36,0,0,1-.13-0.05l-1.16-.78,1.32,0.44h0c0.06-.08.28-0.58-0.24-3.22l-0.1-.5,0.4,0.31c5.12,4,8.28,9,8,12.9a5.67,5.67,0,0,1-2.95,4.67ZM289,263.78a12.67,12.67,0,0,1,6.77,8.76,5.74,5.74,0,0,1-.39,3.38,5.16,5.16,0,0,0,1-2.81c0.23-3.65-2.7-8.43-7.49-12.26C289.2,262.73,289.14,263.47,289,263.78Z" transform="translate(-273.74 -250.57)"/></g><g class="cls-12"><path class="cls-13" d="M287.11,263.83a5.56,5.56,0,0,1-3.43-2.84l0.3-2s1.82,4.57,3.13,4.8" transform="translate(-273.74 -250.57)"/><path class="cls-14" d="M286.93,264a5.69,5.69,0,0,1-3.42-2.91l0-.05,0.41-2.72,0.26,0.65c0.47,1.19,1.87,4.23,2.86,4.65l0.14,0-0.08.37Zm-3.06-3a5.1,5.1,0,0,0,2.06,2.16,17.23,17.23,0,0,1-1.87-3.39Z" transform="translate(-273.74 -250.57)"/></g><path class="cls-15" d="M283.82,270.93s0.82,5.89,6.29,7.47C290.11,278.4,284.36,278.68,283.82,270.93Z" transform="translate(-273.74 -250.57)"/><ellipse class="cls-16" cx="287.91" cy="272.88" rx="1.33" ry="3.17" transform="translate(-346.24 -143.4) rotate(-18.77)"/><ellipse class="cls-16" cx="292.9" cy="271.19" rx="1.33" ry="3.17" transform="translate(-345.43 -141.88) rotate(-18.77)"/><ellipse class="cls-17" cx="287.77" cy="271.55" rx="0.54" ry="0.95" transform="translate(-345.82 -143.51) rotate(-18.77)"/><ellipse class="cls-17" cx="292.76" cy="269.86" rx="0.54" ry="0.95" transform="matrix(0.95, -0.32, 0.32, 0.95, -345.01, -142)"/></svg>