<svg id="Layer_1" data-name="Layer 1" xmlns="http://www.w3.org/2000/svg" viewBox="0 0 379.15 301.12"><defs><style>.cls-1{fill:none;}.cls-2{fill:#fff;}.cls-3{fill:#d88584;}.cls-4{fill:#473648;}.cls-5{fill:#b2222d;}.cls-6{fill:#fbad1a;}.cls-7{fill:#d82e2e;}.cls-8{fill:#4d3751;}</style></defs><title>sect3-bg-hgl2</title><path class="cls-1" d="M381.65,427C428.38,465,475,529.94,475,574.17c0,30.61-12.66,57.83-33.53,79.83H475v31h17V427H381.65Z" transform="translate(-149 -427)"/><path class="cls-1" d="M236.06,654c-20.88-22-33.53-49.21-33.53-79.83,0-44.23,46.66-109.17,93.38-147.17H186V685h17V654h33.06Z" transform="translate(-149 -427)"/><path class="cls-2" d="M295.91,426.53c-46.72,38.82-93.38,103.08-93.38,147.32,0,30.61,12.65,58.58,33.53,80h9.52c-3.54-.06-11.68-16.08-13.27-19A97.34,97.34,0,0,1,223,610.34c-4-17.48,3.5-28.43,18.47-37.69a313.23,313.23,0,0,1,34.14-18.33c14.64-6.73,30.36-12.74,41-24.81,5.85-6.61,11.44-15.61,20.26-15.52a10.69,10.69,0,0,1,1.71.14c5.77,0.87,10.43,5.67,14.77,9.8A108.76,108.76,0,0,0,389,546.46c12.34,4.78,25.46,7.27,37.77,12.11,9.72,3.83,22.35,10.62,27.7,20.51a20.46,20.46,0,0,1,2.58,9.86c0,24.48-9.38,47-25.05,64.87h9.54c20.88-21.39,33.53-49.36,33.53-80,0-44.23-46.67-108.49-93.39-147.32H295.91Z" transform="translate(-149 -427)"/><path class="cls-3" d="M441.51,654c-4.39,4-9.13,9-14.21,12h-177c-5.08-3-9.83-8-14.22-12H203v31H475V654H441.51Z" transform="translate(-149 -427)"/><path class="cls-3" d="M432,654H236.06c4.39,4,9.14,9,14.22,12h177c5.08-3,9.82-8,14.21-12H432Z" transform="translate(-149 -427)"/><polygon class="cls-4" points="364.62 284.15 342.58 284.15 342.58 258.2 326.05 258.2 326.05 261.79 53.53 261.79 53.53 258.2 37 258.2 37 284.15 14.96 284.15 14.96 258.2 0.43 258.2 0.43 301.12 379.15 301.12 379.15 258.2 364.62 258.2 364.62 284.15"/><rect class="cls-4" x="14.96" y="258.2" width="22.04" height="25.95"/><rect class="cls-4" x="342.58" y="258.2" width="22.04" height="25.95"/><path class="cls-5" d="M457,589a20.64,20.64,0,0,0-2.58-9.9,12.64,12.64,0,0,1-2.16,8.63l-61.62.85c-7.33.11-14.82,0.17-21.82-2-14.53-4.51-24.75-18.25-28.87-32.9a93.68,93.68,0,0,1-3.08-32,24.77,24.77,0,0,1,1.73-7.65,10.69,10.69,0,0,0-1.71-.14c-8.82-.09-14.41,8.91-20.26,15.52-10.67,12.07-26.39,18.08-41,24.81a313.23,313.23,0,0,0-34.14,18.33c-15,9.26-22.51,20.21-18.47,37.69a98,98,0,0,0,9.32,24.54C233.91,637.83,242,654,245.58,654H432C447.65,636,457,613.51,457,589ZM345.11,621.58l-21.58-1.05a1.87,1.87,0,0,0-1.57.73l-13.1,17.18a1.87,1.87,0,0,1-3.28-.64l-5.67-20.84a1.87,1.87,0,0,0-1.18-1.27l-20.38-7.15a1.87,1.87,0,0,1-.4-3.32L296,593.37a1.87,1.87,0,0,0,.84-1.52l0.5-21.6a1.87,1.87,0,0,1,3-1.41l16.84,13.53a1.87,1.87,0,0,0,1.7.33l20.69-6.2A1.87,1.87,0,0,1,341.9,579l-7.67,20.19a1.87,1.87,0,0,0,.21,1.72l12.29,17.76A1.87,1.87,0,0,1,345.11,621.58Z" transform="translate(-149 -427)"/><rect class="cls-4" x="53.53" y="258.2" width="272.52" height="3.59"/><path class="cls-5" d="M432,654h0Z" transform="translate(-149 -427)"/><path class="cls-6" d="M334.45,600.89a1.87,1.87,0,0,1-.21-1.72L341.9,579a1.87,1.87,0,0,0-2.28-2.45l-20.69,6.2a1.87,1.87,0,0,1-1.7-.33l-16.84-13.53a1.87,1.87,0,0,0-3,1.41l-0.5,21.6a1.87,1.87,0,0,1-.84,1.52l-18.07,11.83a1.87,1.87,0,0,0,.4,3.32l20.38,7.15a1.87,1.87,0,0,1,1.18,1.27l5.67,20.84a1.87,1.87,0,0,0,3.28.64L322,621.26a1.87,1.87,0,0,1,1.57-.73l21.58,1.05a1.87,1.87,0,0,0,1.63-2.93Z" transform="translate(-149 -427)"/><path class="cls-5" d="M340,553.72c4.12,14.65,14.34,28.39,28.87,32.9,7,2.16,14.49,2.09,21.82,2l61.62-.86a12.7,12.7,0,0,0,2.16-8.66c-5.35-9.89-18-16.68-27.7-20.51-12.31-4.84-25.43-7.33-37.77-12.11a108.76,108.76,0,0,1-35.59-22.54c-4.34-4.13-9-8.93-14.77-9.8a24.76,24.76,0,0,0-1.73,7.65A93.67,93.67,0,0,0,340,553.72Z" transform="translate(-149 -427)"/><path class="cls-7" d="M340,553.72c4.12,14.65,14.34,28.39,28.87,32.9,7,2.16,14.49,2.09,21.82,2l61.62-.86a12.7,12.7,0,0,0,2.16-8.66c-5.35-9.89-18-16.68-27.7-20.51-12.31-4.84-25.43-7.33-37.77-12.11a108.76,108.76,0,0,1-35.59-22.54c-4.34-4.13-9-8.93-14.77-9.8a24.76,24.76,0,0,0-1.73,7.65A93.67,93.67,0,0,0,340,553.72Z" transform="translate(-149 -427)"/><rect class="cls-3" x="53.53" y="227" width="272.47" height="44.17"/><rect class="cls-4" x="0.43" y="258.2" width="378.73" height="42.92"/><rect class="cls-8" x="343" width="22" height="292"/><rect class="cls-8" x="17" width="22" height="292"/></svg>