<svg id="Layer_1" data-name="Layer 1" xmlns="http://www.w3.org/2000/svg" xmlns:xlink="http://www.w3.org/1999/xlink" viewBox="0 0 57.72 57.09"><defs><style>.cls-1{fill:url(#linear-gradient);}</style><linearGradient id="linear-gradient" x1="1215.94" y1="1100.68" x2="1215.94" y2="1043.6" gradientUnits="userSpaceOnUse"><stop offset="0" stop-color="#d88584"/><stop offset="0.16" stop-color="#dea09f"/><stop offset="0.4" stop-color="#e6c3c3"/><stop offset="0.63" stop-color="#ecdddd"/><stop offset="0.84" stop-color="#f0eded"/><stop offset="1" stop-color="#f1f2f2"/></linearGradient></defs><title>scroll-down</title><path class="cls-1" d="M1243.62,1069a4,4,0,0,1,0,5.72l-24.82,24.82a4,4,0,0,1-5.71,0l-24.82-24.82A4,4,0,0,1,1194,1069l22,22,22-22a4,4,0,0,1,5.72,0h0Zm-30.53,6.35a4,4,0,0,0,5.71,0l24.82-24.82a4,4,0,0,0-5.72-5.72l-22,22-22-22a4,4,0,0,0-5.72,5.72Zm0,0" transform="translate(-1187.08 -1043.6)"/></svg>