<svg id="Layer_1" data-name="Layer 1" xmlns="http://www.w3.org/2000/svg" xmlns:xlink="http://www.w3.org/1999/xlink" viewBox="0 0 60.42 60.57"><defs><style>.cls-1{fill:#b9c6b9;}.cls-2{fill:#a3aea3;}.cls-3{fill:url(#radial-gradient);}.cls-4{fill:url(#radial-gradient-2);}.cls-5{fill:url(#radial-gradient-3);}.cls-6{fill:url(#radial-gradient-4);}.cls-7{fill:url(#radial-gradient-5);}.cls-8{fill:url(#radial-gradient-6);}.cls-9{fill:url(#radial-gradient-7);}.cls-10{fill:url(#radial-gradient-8);}.cls-11{fill:url(#radial-gradient-9);}.cls-12{fill:url(#radial-gradient-10);}.cls-13{fill:url(#radial-gradient-11);}.cls-14{fill:url(#radial-gradient-12);}.cls-15{fill:#868e86;}.cls-16{fill:#4c1d1c;}.cls-17{fill:#221f1f;}.cls-18{fill:#403f41;}.cls-19{fill:#d0d2d3;}</style><radialGradient id="radial-gradient" cx="323.89" cy="287.08" r="4.66" gradientTransform="translate(117.32 -124.21) rotate(14.69)" gradientUnits="userSpaceOnUse"><stop offset="0" stop-color="#dae4da"/><stop offset="1" stop-color="#9da6a0"/></radialGradient><radialGradient id="radial-gradient-2" cx="315" cy="304.4" r="4.83" xlink:href="#radial-gradient"/><radialGradient id="radial-gradient-3" cx="314.3" cy="281.19" r="2.19" xlink:href="#radial-gradient"/><radialGradient id="radial-gradient-4" cx="307.59" cy="294.23" r="4.02" xlink:href="#radial-gradient"/><radialGradient id="radial-gradient-5" cx="310.95" cy="269.8" r="3.95" xlink:href="#radial-gradient"/><radialGradient id="radial-gradient-6" cx="300.53" cy="282.63" r="4.12" xlink:href="#radial-gradient"/><radialGradient id="radial-gradient-7" cx="298.3" cy="310.47" r="3.04" xlink:href="#radial-gradient"/><radialGradient id="radial-gradient-8" cx="296.12" cy="269.6" r="3.37" xlink:href="#radial-gradient"/><radialGradient id="radial-gradient-9" cx="287.68" cy="301.55" r="3.61" xlink:href="#radial-gradient"/><radialGradient id="radial-gradient-10" cx="286.71" cy="280.29" r="4.12" xlink:href="#radial-gradient"/><radialGradient id="radial-gradient-11" cx="281.68" cy="264.1" r="76.33" xlink:href="#radial-gradient"/><radialGradient id="radial-gradient-12" cx="281.08" cy="291.47" r="2.98" xlink:href="#radial-gradient"/></defs><title>sect3-works</title><path class="cls-1" d="M368.45,233c1.33,0.43.54,4.71-.32,5.75A6.5,6.5,0,0,1,368.45,233Z" transform="translate(-309.13 -202)"/><path class="cls-2" d="M361.54,250.95c-0.07,1.25-2,3.79-3.37,3.17a2.87,2.87,0,0,0-.63-0.19C359.69,250.53,361.54,250.95,361.54,250.95Z" transform="translate(-309.13 -202)"/><path class="cls-3" d="M358.86,229.43c1.55,0.49,2,3.57.91,6.87s-3.16,5.58-4.71,5.08a1.55,1.55,0,0,1-.75-0.53c1.42-.27,3.06-2.33,3.95-5.12s0.74-5.21-.16-6.33A1.51,1.51,0,0,1,358.86,229.43Z" transform="translate(-309.13 -202)"/><path class="cls-2" d="M366,220.16c-1.87-1.07-2.82-4.39-2.86-4.55l0.11-.33C364.74,215.79,366.29,218.68,366,220.16Z" transform="translate(-309.13 -202)"/><path class="cls-2" d="M358.1,229.39c0.9,1.12,1,3.65.16,6.33s-2.53,4.85-3.95,5.12c-0.9-1.12-1-3.65-.16-6.33S356.68,229.67,358.1,229.39Z" transform="translate(-309.13 -202)"/><path class="cls-4" d="M350.87,248.16c0.47,1.56-1.84,3.63-5.16,4.63s-6.38.55-6.85-1a1.53,1.53,0,0,1,0-.92c1,1,3.65,1.21,6.45.37s4.72-2.33,5.14-3.71A1.54,1.54,0,0,1,350.87,248.16Z" transform="translate(-309.13 -202)"/><path class="cls-2" d="M350.48,247.52c-0.42,1.38-2.45,2.9-5.14,3.71s-5.42.65-6.45-.37c0.41-1.38,2.44-2.89,5.14-3.7S349.45,246.5,350.48,247.52Z" transform="translate(-309.13 -202)"/><path class="cls-2" d="M340,261.35a4.64,4.64,0,0,1,4.74-.93C343.73,262.32,340.76,262.73,340,261.35Z" transform="translate(-309.13 -202)"/><path class="cls-5" d="M351.28,227.63c-0.22,1.55-1.11,2.7-2,2.58a1.05,1.05,0,0,1-.64-0.36,3.29,3.29,0,0,0,1.37-2.46,3.4,3.4,0,0,0-.57-2.67,1,1,0,0,1,.62-0.12C350.95,224.72,351.49,226.08,351.28,227.63Z" transform="translate(-309.13 -202)"/><path class="cls-2" d="M350,227.38a3.29,3.29,0,0,1-1.37,2.46,3.4,3.4,0,0,1-.57-2.67,3.27,3.27,0,0,1,1.37-2.46A3.4,3.4,0,0,1,350,227.38Z" transform="translate(-309.13 -202)"/><path class="cls-2" d="M352.33,219.57a7.92,7.92,0,0,1-4.13-2.39c-1.73-1.68-2.71-3.58-2.49-4.64a7.93,7.93,0,0,1,4.13,2.39C351.58,216.61,352.56,218.51,352.33,219.57Z" transform="translate(-309.13 -202)"/><path class="cls-2" d="M349.12,204.91c1.15-.71,3.81.94,4,1.95C350.66,207.4,349.12,204.91,349.12,204.91Z" transform="translate(-309.13 -202)"/><path class="cls-6" d="M345.16,235.95c0.32,1.49-1.06,3.48-3.35,4.68-2.55,1.33-5.25,1.18-6-.34a2.21,2.21,0,0,1-.12-1.64c1.17,0.8,3.38.87,5.63,0.05A7.91,7.91,0,0,0,345.16,235.95Z" transform="translate(-309.13 -202)"/><path class="cls-2" d="M345,235.47a1.88,1.88,0,0,1,.18.48,7.91,7.91,0,0,1-3.88,2.75c-2.26.81-4.46,0.75-5.63-.05a6.37,6.37,0,0,1,3.29-3.52C341.49,233.8,344.19,234,345,235.47Z" transform="translate(-309.13 -202)"/><path class="cls-7" d="M346,212c0.82-.84,3.15.09,5.19,2.09s3.05,4.29,2.24,5.13a1.28,1.28,0,0,1-1.07.3c0.23-1.06-.75-3-2.48-4.64a7.93,7.93,0,0,0-4.13-2.39A1,1,0,0,1,346,212Z" transform="translate(-309.13 -202)"/><path class="cls-2" d="M341.39,225.4c0.3,2.06-1.74,4.06-4.55,4.46-2.52.37-4.81-.67-5.47-2.38h0c0.6-1.54,2.53-2.86,5-3.22a6.89,6.89,0,0,1,5,1Z" transform="translate(-309.13 -202)"/><path class="cls-8" d="M341.36,225.27a6.89,6.89,0,0,0-5-1c-2.45.36-4.39,1.68-5,3.22a2.84,2.84,0,0,1-.16-0.61c-0.3-2.06,1.74-4.06,4.54-4.47S341,223.28,341.36,225.27Z" transform="translate(-309.13 -202)"/><path class="cls-9" d="M330.54,252.81a1.51,1.51,0,0,1-.26,1c-0.73,1-2.7.81-4.4-.43s-2.5-3-1.78-4a1.45,1.45,0,0,1,.7-0.51,4.52,4.52,0,0,0,2,3.07A4.35,4.35,0,0,0,330.54,252.81Z" transform="translate(-309.13 -202)"/><path class="cls-2" d="M330.54,252.81a4.35,4.35,0,0,1-3.7-.94,4.52,4.52,0,0,1-2-3.07,4.35,4.35,0,0,1,3.7.94A4.52,4.52,0,0,1,330.54,252.81Z" transform="translate(-309.13 -202)"/><path class="cls-2" d="M339.36,211.28c-0.22,1.1-1.48,2.25-3.23,2.81a4.85,4.85,0,0,1-4-.22h0c0.22-1.1,1.49-2.24,3.23-2.81A4.83,4.83,0,0,1,339.36,211.28Z" transform="translate(-309.13 -202)"/><path class="cls-10" d="M339.32,210.48a1.53,1.53,0,0,1,0,.8,4.83,4.83,0,0,0-4-.22c-1.74.56-3,1.71-3.23,2.81a1.67,1.67,0,0,1-.66-0.85c-0.41-1.29,1-2.9,3.19-3.61S338.91,209.19,339.32,210.48Z" transform="translate(-309.13 -202)"/><path class="cls-2" d="M331.79,203.42c1-1.16,4.09-1.43,5.11-.24A5.71,5.71,0,0,1,331.79,203.42Z" transform="translate(-309.13 -202)"/><path class="cls-2" d="M320.82,256.33c-1.83,0-5.13-3-4.62-4.34l0.57,0.15S320.2,253.55,320.82,256.33Z" transform="translate(-309.13 -202)"/><path class="cls-2" d="M327,215.3c1,1.06,1.1,3.32.24,5.62s-2.34,3.79-3.71,4.06h0c-1-1.06-1.1-3.32-.24-5.62S325.65,215.56,327,215.3Z" transform="translate(-309.13 -202)"/><path class="cls-2" d="M321.81,240.12a5.52,5.52,0,0,1-.83,4.22c-1.24-.2-2.41-1.9-2.73-4.11a5.54,5.54,0,0,1,.83-4.22C320.33,236.21,321.49,237.91,321.81,240.12Z" transform="translate(-309.13 -202)"/><path class="cls-11" d="M318.26,240.23c0.32,2.2,1.48,3.9,2.73,4.11a1.74,1.74,0,0,1-1.05.62c-1.4.2-2.83-1.64-3.19-4.11s0.49-4.64,1.89-4.84a1.53,1.53,0,0,1,.46,0A5.54,5.54,0,0,0,318.26,240.23Z" transform="translate(-309.13 -202)"/><path class="cls-12" d="M326.3,214.8a1.83,1.83,0,0,1,.72.5c-1.38.27-2.88,1.85-3.71,4.06s-0.72,4.56.24,5.62a1.92,1.92,0,0,1-1-.07c-1.58-.59-2-3.33-1-6.12S324.72,214.2,326.3,214.8Z" transform="translate(-309.13 -202)"/><path class="cls-2" d="M317.94,229.39a4.52,4.52,0,0,1-1.7,3.28,4.37,4.37,0,0,1-1-3.69,4.52,4.52,0,0,1,1.7-3.28A4.37,4.37,0,0,1,317.94,229.39Z" transform="translate(-309.13 -202)"/><path class="cls-13" d="M317,225.7a1.45,1.45,0,0,0-.79-0.37c-1.23-.15-2.43,1.43-2.68,3.52s0.53,3.91,1.76,4.06a1.52,1.52,0,0,0,1-.24,4.52,4.52,0,0,0,1.7-3.28A4.37,4.37,0,0,0,317,225.7Zm27.74,34.72a4.64,4.64,0,0,0-4.74.93,3.16,3.16,0,0,0-.21-0.31h0a28.63,28.63,0,0,1-17.11-4.94,10,10,0,0,1-1.82.23c-0.62-2.78-4.06-4.19-4.06-4.19L316.2,252a0.34,0.34,0,0,1,0-.08,3.19,3.19,0,0,0,.27-1.5,28.62,28.62,0,0,1-3.82-6.27,3.62,3.62,0,0,1-.86,0c0.34-4-1.82-4.56-1.82-4.56a4.31,4.31,0,0,0,.82-1.16h0a28.34,28.34,0,0,1,.34-13c0.1-.37.2-0.74,0.31-1.1a10.93,10.93,0,0,0-1.66-3,1.58,1.58,0,0,1-.23-0.51,5.82,5.82,0,0,0,3-4.1,7.61,7.61,0,0,0,2.54.06,28.37,28.37,0,0,1,3.36-4.1c0-.3,0-0.64,0-1,0,0,3.42-.79,4.23-3.45v0h0a1.06,1.06,0,0,1,.47.16l0.41,0.24a28.46,28.46,0,0,1,7.12-3.21h0a6.52,6.52,0,0,0,.86-1.48,1.43,1.43,0,0,1,.24-0.38,5.71,5.71,0,0,0,5.11-.24c0.26,0.31.52,0.65,0.78,1a28.46,28.46,0,0,1,8.23.92c0.52,0.14,1,.28,1.53.45a6.18,6.18,0,0,0,1.68-.6s1.55,2.49,4,1.95a11.93,11.93,0,0,1,.09,1.24,28.43,28.43,0,0,1,8,7.07,5,5,0,0,0,1.42,0,1.33,1.33,0,0,1,.6.06l-0.11.33c0,0.16,1,3.48,2.86,4.55a15,15,0,0,1-.74,2.16,28.31,28.31,0,0,1,1.92,9.92,4.18,4.18,0,0,0,1.29.74,6.5,6.5,0,0,0-.32,5.75,7.13,7.13,0,0,1-2,1.33,28.48,28.48,0,0,1-4.63,9.53h0c0,0.51,0,1,0,1.36,0,0-1.85-.42-4,3A28.56,28.56,0,0,1,344.7,260.42Zm3.94-30.57a1.05,1.05,0,0,0,.64.36c0.88,0.12,1.78-1,2-2.58s-0.33-2.9-1.21-3a1,1,0,0,0-.62.12,3.27,3.27,0,0,0-1.37,2.46A3.4,3.4,0,0,0,348.65,229.85Zm11.12,6.45c1.05-3.3.64-6.37-.91-6.87a1.51,1.51,0,0,0-.75,0c-1.42.27-3.06,2.33-4,5.12s-0.74,5.21.16,6.33a1.55,1.55,0,0,0,.75.53C356.61,241.87,358.71,239.59,359.76,236.3Zm-14,16.49c3.32-1,5.62-3.07,5.16-4.63a1.54,1.54,0,0,0-.39-0.64c-1-1-3.66-1.21-6.46-.37s-4.72,2.33-5.14,3.7a1.53,1.53,0,0,0,0,.92C339.34,253.33,342.41,253.79,345.72,252.79Zm7.68-33.52c0.82-.84-0.18-3.14-2.24-5.13S346.79,211.2,346,212a1,1,0,0,0-.25.49c-0.23,1.06.76,3,2.49,4.64a7.92,7.92,0,0,0,4.13,2.39A1.28,1.28,0,0,0,353.4,219.27Zm-11.59,21.36c2.29-1.2,3.67-3.19,3.35-4.68a1.88,1.88,0,0,0-.18-0.48c-0.79-1.52-3.49-1.67-6-.34a6.37,6.37,0,0,0-3.29,3.52,2.21,2.21,0,0,0,.12,1.64C336.56,241.8,339.26,242,341.81,240.62Zm-5-10.76c2.81-.41,4.85-2.41,4.55-4.46l0-.13c-0.39-2-2.86-3.25-5.61-2.85s-4.84,2.41-4.54,4.47a2.84,2.84,0,0,0,.16.61h0C332,229.19,334.32,230.23,336.84,229.86Zm-6.56,23.92a1.51,1.51,0,0,0,.26-1,4.52,4.52,0,0,0-2-3.07,4.35,4.35,0,0,0-3.7-.94,1.45,1.45,0,0,0-.7.51c-0.72,1,.07,2.81,1.78,4S329.55,254.78,330.28,253.79Zm5.85-39.7c1.74-.56,3-1.71,3.23-2.81a1.53,1.53,0,0,0,0-.8c-0.41-1.29-2.52-1.77-4.7-1.07s-3.61,2.31-3.19,3.61a1.67,1.67,0,0,0,.66.85h0A4.85,4.85,0,0,0,336.13,214.08Zm-8.86,6.84c0.86-2.3.72-4.57-.24-5.62a1.83,1.83,0,0,0-.72-0.5c-1.58-.59-3.71,1.19-4.75,4s-0.61,5.53,1,6.12a1.92,1.92,0,0,0,1,.07h0C324.93,224.71,326.44,223.13,327.27,220.92ZM321,244.34a5.52,5.52,0,0,0,.83-4.22c-0.32-2.2-1.48-3.9-2.72-4.11a1.53,1.53,0,0,0-.46,0c-1.4.2-2.24,2.37-1.89,4.84s1.78,4.31,3.19,4.11A1.74,1.74,0,0,0,321,244.34Z" transform="translate(-309.13 -202)"/><path class="cls-2" d="M322.7,208.09v0c-0.81,2.66-4.23,3.45-4.23,3.45C318.44,209.92,321.21,207.91,322.7,208.09Z" transform="translate(-309.13 -202)"/><path class="cls-14" d="M316.24,232.67a1.52,1.52,0,0,1-1,.24c-1.23-.15-2-2-1.76-4.06s1.45-3.67,2.68-3.52a1.45,1.45,0,0,1,.79.37,4.52,4.52,0,0,0-1.7,3.28A4.37,4.37,0,0,0,316.24,232.67Z" transform="translate(-309.13 -202)"/><path class="cls-2" d="M310,239.55s2.16,0.59,1.82,4.56a1.47,1.47,0,0,1-.58-0.26C310.18,243.06,309,240.47,310,239.55Z" transform="translate(-309.13 -202)"/><path class="cls-2" d="M312.55,216.63a5.82,5.82,0,0,1-3,4.1C309.16,219,311.19,216.28,312.55,216.63Z" transform="translate(-309.13 -202)"/><ellipse class="cls-2" cx="326.45" cy="232.39" rx="2.98" ry="3.88" transform="translate(-341.55 208.67) rotate(-61.86)"/><ellipse class="cls-2" cx="330.57" cy="241.84" rx="1.74" ry="2.41" transform="translate(-347.77 217.15) rotate(-61.84)"/><ellipse class="cls-2" cx="334.18" cy="218.23" rx="2.41" ry="1.74" transform="translate(-361.1 -84.69) rotate(-18.5)"/><ellipse class="cls-2" cx="327.9" cy="211.85" rx="1.91" ry="1.38" transform="translate(-359.45 -86.83) rotate(-18.53)"/><ellipse class="cls-2" cx="316.75" cy="221.96" rx="1.91" ry="1.38" transform="translate(-335.98 197.52) rotate(-62.35)"/><ellipse class="cls-2" cx="320.45" cy="248.71" rx="1.74" ry="2.41" transform="translate(-359.12 212.01) rotate(-61.86)"/><ellipse class="cls-15" cx="349.63" cy="238.01" rx="3.88" ry="2.99" transform="translate(-307.37 276.59) rotate(-68.91)"/><ellipse class="cls-15" cx="335.27" cy="256.23" rx="1.74" ry="2.41" transform="translate(-237.16 383.97) rotate(-88.78)"/><ellipse class="cls-2" cx="349.84" cy="221.88" rx="1.74" ry="2.41" transform="translate(-367.62 89.77) rotate(-42.1)"/><ellipse class="cls-2" cx="358.44" cy="219.4" rx="1.38" ry="1.91" transform="translate(-363.69 95.12) rotate(-42.13)"/><ellipse class="cls-15" cx="363.19" cy="233.68" rx="1.91" ry="1.38" transform="translate(-190.77 387.45) rotate(-88.22)"/><path class="cls-15" d="M352.67,248.61c0.45,0.85,1.77,1,2.94.42s1.77-1.81,1.32-2.66-1.76-1-2.94-.42S352.23,247.76,352.67,248.61Z" transform="translate(-309.13 -202)"/><path class="cls-16" d="M337.69,204.56l0-.82a29,29,0,0,1,9.9,1.38l-0.25.78A28.16,28.16,0,0,0,337.69,204.56Z" transform="translate(-309.13 -202)"/><path class="cls-16" d="M360.88,215.43a27.86,27.86,0,0,0-7.89-7l0.42-.7a28.65,28.65,0,0,1,8.12,7.18Z" transform="translate(-309.13 -202)"/><path class="cls-16" d="M366.75,232.25a27.86,27.86,0,0,0-1.89-9.78l0.76-.3a28.59,28.59,0,0,1,1.95,10.06h-0.82Z" transform="translate(-309.13 -202)"/><path class="cls-16" d="M361.86,249.84l-0.66-.49a27.87,27.87,0,0,0,4.56-9.4l0.79,0.21A28.82,28.82,0,0,1,361.86,249.84Z" transform="translate(-309.13 -202)"/><path class="cls-16" d="M344.3,260.51a0.41,0.41,0,0,1,.31-0.49,28.22,28.22,0,0,0,12.65-6.4,0.41,0.41,0,0,1,.54.61,29,29,0,0,1-13,6.58A0.41,0.41,0,0,1,344.3,260.51Z" transform="translate(-309.13 -202)"/><path class="cls-16" d="M331.37,260.52a28.8,28.8,0,0,1-9-4.08,0.41,0.41,0,0,1,.46-0.68,28.2,28.2,0,0,0,16.87,4.87,0.41,0.41,0,0,1,0,.82A28.9,28.9,0,0,1,331.37,260.52Z" transform="translate(-309.13 -202)"/><path class="cls-16" d="M316.19,250.67a29,29,0,0,1-3.88-6.36l0.75-.33a28.35,28.35,0,0,0,3.77,6.18Z" transform="translate(-309.13 -202)"/><path class="cls-16" d="M310.42,238.47a28.6,28.6,0,0,1,.67-14.31l0.78,0.24a27.85,27.85,0,0,0-.64,13.91Z" transform="translate(-309.13 -202)"/><path class="cls-16" d="M315.42,216.92l-0.68-.46a28.39,28.39,0,0,1,3.41-4.16l0.58,0.57A28,28,0,0,0,315.42,216.92Z" transform="translate(-309.13 -202)"/><path class="cls-16" d="M323.78,208.84l-0.43-.69a28.91,28.91,0,0,1,7.22-3.25l0.23,0.78A28.23,28.23,0,0,0,323.78,208.84Z" transform="translate(-309.13 -202)"/><path class="cls-16" d="M328.06,207.45a6.54,6.54,0,0,0,.56-0.41,8.41,8.41,0,0,0,1.84-1.94,7.1,7.1,0,0,0,.79-1.52,2.41,2.41,0,0,1,1.18-1.1c1.44-.71,3.81-0.72,4.76.48,1.25,1.58,1.79,2.89,3.38,3.59-1.73-.26-2.73-1.81-4-3.15a1.88,1.88,0,0,0-1.14-.53,4.13,4.13,0,0,0-3.47.85,1,1,0,0,0-.14.21,6.24,6.24,0,0,1-.74,1.25A6.7,6.7,0,0,1,328.06,207.45Z" transform="translate(-309.13 -202)"/><path class="cls-16" d="M325.81,209.11a4.79,4.79,0,0,1-2.55-.48l-0.24-.13-0.09,0c-1.1-.41-4,1.54-4.12,3.09a7.73,7.73,0,0,1-.49,2.76,2.92,2.92,0,0,1-.78,1c0.59-1,.68-1.65.59-3.38a3.13,3.13,0,0,1,0-.62c0.16-1.4,1.71-2.74,3-3.27a2.68,2.68,0,0,1,1.9-.16,1.32,1.32,0,0,1,.2.1l0.07,0a4.57,4.57,0,0,0,.6.4,6.19,6.19,0,0,0,.73.35A7.07,7.07,0,0,0,325.81,209.11Z" transform="translate(-309.13 -202)"/><path class="cls-16" d="M331.76,203.4a8.11,8.11,0,0,0,.82.15,11.81,11.81,0,0,0,4.32-.38,4.45,4.45,0,0,1-4.4.68,2.71,2.71,0,0,1-.68-0.41Z" transform="translate(-309.13 -202)"/><path class="cls-16" d="M318.46,211.58c2.32-1.23,3.19-1.82,4.23-3.45a3,3,0,0,1-.43,1.29A4.91,4.91,0,0,1,318.46,211.58Z" transform="translate(-309.13 -202)"/><path class="cls-16" d="M316.66,216.44a9,9,0,0,1-4.18.51h0c-1.05-.19-2.69,2.09-2.54,3.5a2.25,2.25,0,0,0,.55,1.13,6.3,6.3,0,0,1,1.27,4.27,3,3,0,0,1-.19.68,3.76,3.76,0,0,0,0-.69c-0.08-1.91-1.52-3.54-2.13-4.44-1.26-1.87,1.34-5.56,3.09-5.1,0.22,0.06.19,0.06,0.44,0.11A15.52,15.52,0,0,0,316.66,216.44Z" transform="translate(-309.13 -202)"/><path class="cls-16" d="M309.33,220.86a13.83,13.83,0,0,0,2.78-3.47c0.24-.42.36-0.65,0.44-0.76a3.48,3.48,0,0,1-.34,2.06,3.94,3.94,0,0,1-2.63,2.14A1.54,1.54,0,0,1,309.33,220.86Z" transform="translate(-309.13 -202)"/><path class="cls-16" d="M311.61,236.34a6.54,6.54,0,0,1-1.34,3.45l-0.07.08c-0.62.76,0.47,3.14,1.31,3.74s2.37-.26,3.08,1.37a1.63,1.63,0,0,0-1.6-.61,2.59,2.59,0,0,1-1.94-.23c-1.3-.92-2.37-3.44-1.49-4.61a7.12,7.12,0,0,0,1.83-2.71l0.17-.35Z" transform="translate(-309.13 -202)"/><path class="cls-16" d="M316.14,248.09c0.2,0.44,1,2.61.38,4h0l0,0.06a0.67,0.67,0,0,0,0,.24c0.17,1.16,2.76,3.52,4.33,3.62h0c2,0,3.52-.78,5.12.18-1.87-.53-3,0.43-5.12.55a3.37,3.37,0,0,1-1.43-.34A7.37,7.37,0,0,1,316,253.2a1.6,1.6,0,0,1-.09-1.4,2.56,2.56,0,0,0,.33-1.24A12.05,12.05,0,0,0,316.14,248.09Z" transform="translate(-309.13 -202)"/><path class="cls-16" d="M310,239.55a2.09,2.09,0,0,1,1.71,1.14,2.52,2.52,0,0,1,.12.24,3.44,3.44,0,0,1,.26.78,4,4,0,0,1-.28,2.51C311.51,243.3,311.42,240.68,310,239.55Z" transform="translate(-309.13 -202)"/><path class="cls-16" d="M316.76,252.14a5,5,0,0,1,3.89,3,2.74,2.74,0,0,1,.17,1.22,10.75,10.75,0,0,0-2.42-2.78l-0.92-.78C316.9,252.27,316.76,252.14,316.76,252.14Z" transform="translate(-309.13 -202)"/><path class="cls-16" d="M358.13,214.3a14.05,14.05,0,0,0,4.39.5,1.69,1.69,0,0,1,.57,0,4.2,4.2,0,0,1,2.57,2.18,6.39,6.39,0,0,1,.74,1.88,3.43,3.43,0,0,1,.05,1.25s0,0.07,0,.11l0,0.06v0l0,0.17c0,0.06,0,.12-0.06.18-0.53,1.6-1.49,2.62-1.41,4.28-0.65-1.59.33-3.12,0.65-4.89h0c0.16-1.35-1.31-4-2.54-4.37l-0.23,0h-0.09A8.85,8.85,0,0,1,358.13,214.3Z" transform="translate(-309.13 -202)"/><path class="cls-16" d="M363.11,215.61a24,24,0,0,1,1.41,2.33,13.56,13.56,0,0,0,1.45,2.23C364.25,219.9,362.92,217.11,363.11,215.61Z" transform="translate(-309.13 -202)"/><path class="cls-16" d="M344.78,206a21.61,21.61,0,0,0,4.12-1.47c1.4-.91,4.4.83,4.66,2.26a18.38,18.38,0,0,0,.19,2.92,3,3,0,0,0,.46.95l0.15,0.2c0.11,0.12,0,0,.23.26-2-.94-1.73-3.1-1.95-4.15h0c-0.35-.82-2.51-2-3.3-1.63h0A10.18,10.18,0,0,1,344.78,206Z" transform="translate(-309.13 -202)"/><path class="cls-16" d="M336.3,258.87a7.52,7.52,0,0,1,3.69,1.94l0.06,0.07a3.1,3.1,0,0,1,.22.3h0a1,1,0,0,0,.16.2c1,0.86,3.23.3,4-1.15a3.43,3.43,0,0,0,.22-0.54,3.76,3.76,0,0,1,3.14-2.6,4,4,0,0,0-2.37,2.38,4,4,0,0,1-1,2,3.82,3.82,0,0,1-.93.68,3.77,3.77,0,0,1-2.27.39,2.3,2.3,0,0,1-1.26-.6,1.65,1.65,0,0,1-.2-0.23l-0.15-.24A9.24,9.24,0,0,0,336.3,258.87Z" transform="translate(-309.13 -202)"/><path class="cls-16" d="M354.21,254.1a6.76,6.76,0,0,1,4.1-.29h0c1.12,0.41,2.83-2,2.85-2.88,0.1-1.24-.11-3.77,1-4.71-0.73,1-.25,3.31-0.27,4.7,0,1.55-2.16,4.31-3.92,3.51A9.4,9.4,0,0,0,354.21,254.1Z" transform="translate(-309.13 -202)"/><path class="cls-16" d="M366,231.07c2.25,2.05,2.65,1.27,3.18,2.13,0.83,1.33.14,4.78-.8,5.79s-2.55,1.07-3.65,2.4a5.23,5.23,0,0,1,2.32-2.18,2.38,2.38,0,0,0,1-1.14c0.6-1.37,1.06-4.44.26-4.8h0a5.17,5.17,0,0,1-2.28-2.07Z" transform="translate(-309.13 -202)"/><path class="cls-16" d="M334.18,229.91a3.93,3.93,0,0,1-3.14-3,3.49,3.49,0,0,1,1.16-3,6.36,6.36,0,0,1,3.54-1.67,6.84,6.84,0,0,1,2.69.13,3.93,3.93,0,0,1,3.14,3c0.31,2.15-1.8,4.25-4.7,4.67A6.84,6.84,0,0,1,334.18,229.91Zm4.15-7.2a6.45,6.45,0,0,0-2.55-.12,6,6,0,0,0-3.34,1.56,3.16,3.16,0,0,0-1.06,2.7,3.59,3.59,0,0,0,2.88,2.71,6.43,6.43,0,0,0,2.55.12c2.71-.39,4.68-2.31,4.4-4.26A3.59,3.59,0,0,0,338.33,222.71Z" transform="translate(-309.13 -202)"/><path class="cls-16" d="M331.54,227.55l-0.35-.14c0.63-1.64,2.69-3,5.14-3.33a7.08,7.08,0,0,1,5.15,1l-0.23.3a6.71,6.71,0,0,0-4.87-1C334.07,224.79,332.13,226,331.54,227.55Z" transform="translate(-309.13 -202)"/><path class="cls-16" d="M337.25,241.6a2.49,2.49,0,0,1-1.66-1.22,2.86,2.86,0,0,1,.34-2.85,7.53,7.53,0,0,1,2.92-2.58,6.83,6.83,0,0,1,4.65-.79,2.51,2.51,0,0,1,1.67,1.21,2.87,2.87,0,0,1-.34,2.85,7.54,7.54,0,0,1-2.92,2.58A6.83,6.83,0,0,1,337.25,241.6Zm6.14-7a6.41,6.41,0,0,0-4.36.76c-2.44,1.27-3.82,3.46-3.09,4.87a2.11,2.11,0,0,0,1.41,1,6.41,6.41,0,0,0,4.36-.75,7.06,7.06,0,0,0,2.76-2.43,2.47,2.47,0,0,0,.33-2.44A2.11,2.11,0,0,0,343.39,234.56Z" transform="translate(-309.13 -202)"/><path class="cls-16" d="M336.65,239.32a3.62,3.62,0,0,1-1.12-.49l0.24-.36c1.14,0.78,3.32.79,5.43,0a7.72,7.72,0,0,0,3.77-2.67l0.36,0.24a8.05,8.05,0,0,1-4,2.84A8.25,8.25,0,0,1,336.65,239.32Z" transform="translate(-309.13 -202)"/><path class="cls-16" d="M322.63,225.17l-0.19-.06a2.83,2.83,0,0,1-1.6-2.41c-0.63-4,2.8-9.14,5.54-8.11A2.82,2.82,0,0,1,328,217a8.08,8.08,0,0,1-.51,4,8.24,8.24,0,0,1-2.14,3.27A3,3,0,0,1,322.63,225.17ZM326.07,215a2.6,2.6,0,0,0-2.3.81,8.41,8.41,0,0,0-2.52,6.87,2.43,2.43,0,0,0,1.33,2.07,2.5,2.5,0,0,0,2.45-.76,8.4,8.4,0,0,0,2.51-6.87,2.43,2.43,0,0,0-1.33-2.07Z" transform="translate(-309.13 -202)"/><path class="cls-16" d="M323.39,225.12c-1-1.15-1.16-3.5-.28-5.84s2.39-3.91,3.87-4.19l0.08,0.43c-1.34.26-2.77,1.84-3.55,3.92s-0.73,4.38.2,5.4Z" transform="translate(-309.13 -202)"/><path class="cls-16" d="M313.29,228.83c0.28-2.3,1.67-4.05,3.12-3.67,1.25,0.33,2,2.16,1.74,4.26a5.68,5.68,0,0,1-1,2.71,2.13,2.13,0,0,1-1.9,1C313.87,233,313,231.05,313.29,228.83Zm2.87-3.28a1.72,1.72,0,0,0-1.51.83c-1.6,2.1-1.12,6.1.64,6.31a1.72,1.72,0,0,0,1.5-.83,5.24,5.24,0,0,0,.93-2.49C318,227.42,317.26,225.69,316.15,225.55Z" transform="translate(-309.13 -202)"/><path class="cls-16" d="M316.1,232.83a4.55,4.55,0,0,1-1-3.88,4.71,4.71,0,0,1,1.8-3.44l0.23,0.37a4.32,4.32,0,0,0-1.59,3.12,4.19,4.19,0,0,0,.9,3.5Z" transform="translate(-309.13 -202)"/><path class="cls-16" d="M327.74,254.5c-2.71-.71-5-3.71-3.82-5.32,0.81-1.12,2.92-.92,4.71.38s2.65,3.22,1.83,4.35A2.45,2.45,0,0,1,327.74,254.5Zm-3.47-5.07c-0.9,1.25,1,4,3.58,4.65a2.06,2.06,0,0,0,2.25-.42c0.65-.89-0.14-2.59-1.73-3.74S324.92,248.54,324.27,249.44Z" transform="translate(-309.13 -202)"/><path class="cls-16" d="M324.59,248.81l0.43,0a4.34,4.34,0,0,0,2,2.91,4.19,4.19,0,0,0,3.49.91l0.15,0.41C328.43,253.81,324.7,251.24,324.59,248.81Z" transform="translate(-309.13 -202)"/><path class="cls-16" d="M316.83,237.5a2.41,2.41,0,0,1,1.77-1.71,1.76,1.76,0,0,1,.7,0c1.3,0.34,2.42,2.09,2.73,4.25a6.81,6.81,0,0,1-.3,3.38,2.42,2.42,0,0,1-1.78,1.71C317.48,245.54,315.6,240.64,316.83,237.5Zm2.36-1.24a1.31,1.31,0,0,0-.52,0c-1.27.18-2,2.27-1.71,4.6s1.66,4.11,2.94,3.93a2,2,0,0,0,1.43-1.43,6.4,6.4,0,0,0,.27-3.16C321.32,238.18,320.3,236.54,319.19,236.25Z" transform="translate(-309.13 -202)"/><path class="cls-16" d="M320.78,244.52c-1.29-.34-2.42-2.08-2.74-4.25a5.74,5.74,0,0,1,.88-4.4l0.33,0.29a5.37,5.37,0,0,0-.78,4c0.3,2,1.39,3.73,2.55,3.92l-0.07.43Z" transform="translate(-309.13 -202)"/><path class="cls-16" d="M340.56,253.36c-3.66-1-2.15-4.78,3.39-6.45a10.15,10.15,0,0,1,5.23-.33,2.47,2.47,0,0,1,1.93,1.51C352,251,344.83,254.48,340.56,253.36Zm8.49-6.3a9.66,9.66,0,0,0-5,.33c-4.45,1.34-6.84,4.59-3.41,5.5,2.54,0.67,6.72-.46,8.86-2.38,0.89-.8,1.28-1.62,1.09-2.27A2.08,2.08,0,0,0,349.06,247.06Z" transform="translate(-309.13 -202)"/><path class="cls-16" d="M340.18,251.79a3.22,3.22,0,0,1-1.47-.76l0.35-.35c1,1,3.59,1.1,6.21.31s4.57-2.22,5-3.54l0.47,0.14c-0.45,1.5-2.58,3.05-5.3,3.87A10.19,10.19,0,0,1,340.18,251.79Z" transform="translate(-309.13 -202)"/><path class="cls-16" d="M355.06,241.64l-0.08,0c-0.85-.27-1.41-1.19-1.6-2.58a11,11,0,0,1,.53-4.59c1.08-3.39,3.25-5.71,4.93-5.27s2.23,3.8,1.15,7.2S356.75,242.08,355.06,241.64Zm-0.68-7a10.41,10.41,0,0,0-.51,4.38c0.16,1.18.61,2,1.26,2.18l0.06,0a2.53,2.53,0,0,0,2.26-1.11,11.59,11.59,0,0,0,2.59-8.21C359.49,227.65,355.91,229.8,354.39,234.59Z" transform="translate(-309.13 -202)"/><path class="cls-16" d="M354.35,241.08l-0.09-.49c1.35-.26,2.93-2.34,3.77-5s0.75-5-.12-6.1l0.39-.31c1,1.22,1.06,3.86.2,6.56S355.89,240.79,354.35,241.08Z" transform="translate(-309.13 -202)"/><path class="cls-16" d="M351.76,219.71a9.19,9.19,0,0,1-3.73-2.36,10.27,10.27,0,0,1-2.25-3.08c-0.91-2.1.08-3.14,1.83-2.68a9.18,9.18,0,0,1,3.73,2.35,10.24,10.24,0,0,1,2.24,3.08c0.46,1.07.46,1.92,0,2.41A1.8,1.8,0,0,1,351.76,219.71Zm-5.61-7.49a1.8,1.8,0,0,0,.09,1.86,9.76,9.76,0,0,0,2.14,2.92c2,1.95,4.18,2.77,4.85,2.09a1.8,1.8,0,0,0-.09-1.86,9.75,9.75,0,0,0-2.13-2.92C349,212.36,346.81,211.54,346.15,212.22Z" transform="translate(-309.13 -202)"/><path class="cls-16" d="M352.09,219.51c0.21-1-.8-2.84-2.41-4.41a7.8,7.8,0,0,0-4-2.32l0-.49a8.16,8.16,0,0,1,4.28,2.45c1.78,1.73,2.81,3.69,2.56,4.87Z" transform="translate(-309.13 -202)"/><path class="cls-16" d="M332.94,214.5a2.29,2.29,0,0,1-1.73-1.41,2.35,2.35,0,0,1,.68-2.25c2.12-2.4,6.93-2.71,7.67-.43a2.35,2.35,0,0,1-.68,2.25,6.07,6.07,0,0,1-2.67,1.65A6,6,0,0,1,332.94,214.5Zm4.76-5a6.06,6.06,0,0,0-5.46,1.69,1.89,1.89,0,0,0-.58,1.79,1.84,1.84,0,0,0,1.4,1.09,6.07,6.07,0,0,0,5.46-1.69,1.89,1.89,0,0,0,.58-1.79A1.84,1.84,0,0,0,337.7,209.46Z" transform="translate(-309.13 -202)"/><path class="cls-16" d="M331.86,213.82c0.25-1.21,1.61-2.41,3.39-3a5.11,5.11,0,0,1,4.25.25l-0.27.39a4.62,4.62,0,0,0-3.83-.19c-1.6.51-2.86,1.59-3.07,2.63Z" transform="translate(-309.13 -202)"/><path class="cls-16" d="M349.13,230.34h0c-0.91-.24-1.44-1.61-1.22-3.18a4.27,4.27,0,0,1,.78-2,1.5,1.5,0,0,1,1.52-.7c0.91,0.24,1.44,1.61,1.22,3.18a4.22,4.22,0,0,1-.78,2,1.54,1.54,0,0,1-1.39.73Zm-0.19-5a4,4,0,0,0-.71,1.84c-0.19,1.39.24,2.63,1,2.83h0l0.09,0a1.24,1.24,0,0,0,1.1-.6,4,4,0,0,0,.71-1.84C351.43,225.33,350.11,223.85,348.94,225.36Z" transform="translate(-309.13 -202)"/><path class="cls-16" d="M348.72,230l-0.14-.28a3.16,3.16,0,0,0,1.28-2.35,3.27,3.27,0,0,0-.53-2.54l0.24-.22a3.54,3.54,0,0,1,.61,2.8A3.42,3.42,0,0,1,348.72,230Z" transform="translate(-309.13 -202)"/><path class="cls-16" d="M349.12,204.91a17.32,17.32,0,0,0,2.44,1.5,7.48,7.48,0,0,0,1.56.45,2.45,2.45,0,0,1-2.89-.25A2.91,2.91,0,0,1,349.12,204.91Z" transform="translate(-309.13 -202)"/><path class="cls-16" d="M368.45,233a15.14,15.14,0,0,0-.4,5c0,0.12,0,.46.05,0.48s0,0.27,0,.27a3.59,3.59,0,0,1-.8-1.51,4.57,4.57,0,0,1,.93-4.05A1.56,1.56,0,0,1,368.45,233Z" transform="translate(-309.13 -202)"/><path class="cls-16" d="M361.54,250.95a2.69,2.69,0,0,0-.33.11,6.32,6.32,0,0,0-1.74,1.18c-0.3.24-1.48,1.41-1.93,1.7a4,4,0,0,1,.27-0.81,4.4,4.4,0,0,1,1.53-1.82,2.71,2.71,0,0,1,1.7-.5A1.24,1.24,0,0,1,361.54,250.95Z" transform="translate(-309.13 -202)"/><path class="cls-16" d="M340,261.35a2.79,2.79,0,0,1,1.91-1.45A3.52,3.52,0,0,1,344,260a3,3,0,0,1,.54.27l0.19,0.14A13.06,13.06,0,0,0,340,261.35Z" transform="translate(-309.13 -202)"/><path class="cls-17" d="M349.7,220.41l-14.84-3.89a2,2,0,0,0-2.29,1.24l-1.95,7.43a1.69,1.69,0,0,0,1.5,1.75L347,230.83a1.69,1.69,0,0,0,2.17-.79l1.95-7.43A2,2,0,0,0,349.7,220.41Zm-2.1,7.89a1.69,1.69,0,0,1-2.17.79l-11.12-2.92a1.69,1.69,0,0,1-1.5-1.75l1.29-4.92a1.69,1.69,0,0,1,2.17-.79l11.12,2.92a1.69,1.69,0,0,1,1.5,1.75Z" transform="translate(-309.13 -202)"/><rect class="cls-17" x="326.75" y="217.45" width="21.62" height="34.43" transform="translate(-284.17 299.68) rotate(-75.31)"/><polygon class="cls-18" points="13.92 17.47 11.93 25.08 28.79 31.31 46.5 34.28 48.53 26.54 13.92 17.47"/><rect class="cls-19" x="336.39" y="231.6" width="3.95" height="3.64" transform="translate(-282.37 299.52) rotate(-75.31)"/><circle class="cls-17" cx="338.48" cy="232.99" r="0.7" transform="translate(-281.86 299.31) rotate(-75.31)"/><rect class="cls-17" x="337.62" y="233.37" width="1.35" height="0.68" transform="translate(-282.7 299.68) rotate(-75.31)"/></svg>