<svg xmlns="http://www.w3.org/2000/svg" viewBox="0 0 85.76 89.06"><defs><style>.cls-1{isolation:isolate;}.cls-2{fill:#fbad1a;}.cls-3{fill:#e9faff;}.cls-4{fill:#c8edfc;}.cls-5{fill:#177bad;}.cls-6{fill:#d88584;}.cls-7{mix-blend-mode:multiply;}.cls-8{fill:#83c8dd;}.cls-9{fill:#0b375e;}.cls-10{fill:#ffe326;}.cls-11{fill:#003061;}.cls-12{fill:#f79fcb;}.cls-13{fill:#f0cd35;}.cls-14{fill:#fffce0;}.cls-15{fill:#fcd25e;}.cls-16{fill:#eed862;}.cls-17{fill:#d4a7a1;}.cls-18{fill:#fff;}.cls-19{fill:#166a94;}.cls-20{fill:#daeff9;}</style></defs><title>sect3-born</title><g class="cls-1"><g id="Layer_1" data-name="Layer 1"><polygon class="cls-2" points="13.03 35.53 16.24 39.44 17.63 34.32 21.72 32.58 18.07 30.06 17.63 25.19 13.81 28.32 9.12 27.02 10.77 31.19 7.73 35.53 13.03 35.53"/><polygon class="cls-2" points="25.28 27.06 28.13 25.19 30.84 26.09 30.16 23.33 32.02 20.8 28.85 20.68 27.16 18.05 26.17 20.76 22.86 21.55 25.4 23.81 25.28 27.06"/><polygon class="cls-2" points="6.97 50.69 9.83 48.82 12.53 49.72 11.85 46.96 13.72 44.43 10.55 44.31 8.85 41.68 7.86 44.39 4.55 45.18 7.1 47.44 6.97 50.69"/><polygon class="cls-2" points="26.18 37.93 24.81 35.82 24.02 38 21.35 38.63 23.4 40.45 23.3 43.07 25.6 41.57 27.78 42.3 27.23 40.07 28.73 38.03 26.18 37.93"/><polygon class="cls-2" points="32.02 39.03 37.32 39.03 40.54 42.94 41.93 37.81 46.02 36.08 42.36 33.56 41.93 28.69 38.11 31.82 33.41 30.51 35.06 34.69 32.02 39.03"/><polygon class="cls-2" points="19.66 46.48 18.95 45.38 18.54 46.52 17.14 46.85 18.21 47.8 18.16 49.16 19.36 48.38 20.5 48.76 20.21 47.6 21 46.54 19.66 46.48"/><polygon class="cls-2" points="14.67 19.96 15.88 19.18 17.01 19.56 16.73 18.4 17.51 17.34 16.18 17.28 15.46 16.18 15.05 17.32 13.65 17.65 14.73 18.6 14.67 19.96"/><polygon class="cls-2" points="2.22 31.69 3.36 32.07 3.07 30.91 3.86 29.85 2.52 29.8 1.81 28.69 1.39 29.83 0 30.16 1.07 31.11 1.02 32.48 2.22 31.69"/><polygon class="cls-2" points="36.61 48.69 33.44 48.56 31.74 45.94 30.75 48.65 27.44 49.44 29.98 51.7 29.86 54.94 32.72 53.07 35.42 53.98 34.74 51.22 36.61 48.69"/><polygon class="cls-2" points="20.05 51.89 16.23 55.02 11.54 53.72 13.19 57.89 10.15 62.24 15.45 62.24 18.66 66.15 20.05 61.02 24.14 59.28 20.49 56.76 20.05 51.89"/><polygon class="cls-2" points="43.87 48.05 43.15 46.94 42.74 48.08 41.34 48.42 42.41 49.37 42.36 50.73 43.56 49.95 44.7 50.33 44.41 49.16 45.2 48.1 43.87 48.05"/><polygon class="cls-2" points="39.69 27.06 42.75 24.28 46.65 24.86 44.77 21.17 46.22 18.03 42.79 18.49 39.99 15.91 39.42 19.71 36.04 21.42 39.17 22.96 39.69 27.06"/><polygon class="cls-2" points="48.62 34.21 49.82 33.43 50.95 33.81 50.67 32.64 51.45 31.58 50.12 31.53 49.41 30.42 48.99 31.56 47.6 31.89 48.67 32.85 48.62 34.21"/><polygon class="cls-2" points="51.17 44.33 51.05 47.58 53.9 45.7 56.6 46.61 55.92 43.85 57.79 41.32 54.62 41.2 52.92 38.57 51.94 41.28 48.63 42.07 51.17 44.33"/><polygon class="cls-2" points="28.04 63.17 27.32 62.06 26.91 63.2 25.51 63.53 26.58 64.49 26.53 65.85 27.73 65.07 28.87 65.45 28.58 64.28 29.37 63.22 28.04 63.17"/><polygon class="cls-2" points="38.67 67.31 42.2 65 45.55 66.12 44.71 62.69 47.02 59.57 43.09 59.41 40.99 56.16 39.77 59.51 35.67 60.49 38.82 63.29 38.67 67.31"/><polygon class="cls-2" points="5.79 54.21 4.45 54.15 3.74 53.05 3.32 54.19 1.93 54.52 3 55.47 2.95 56.84 4.15 56.05 5.29 56.43 5 55.27 5.79 54.21"/><polygon class="cls-2" points="53.8 55.16 53.09 54.06 52.67 55.2 51.28 55.53 52.35 56.48 52.3 57.85 53.5 57.06 54.64 57.44 54.35 56.28 55.14 55.22 53.8 55.16"/><polygon class="cls-2" points="58.05 60.18 54.23 63.31 49.53 62.01 51.18 66.18 48.14 70.53 53.44 70.53 56.66 74.44 58.05 69.31 62.13 67.57 58.48 65.05 58.05 60.18"/><polygon class="cls-2" points="11.56 68.77 9.86 66.15 8.88 68.86 5.56 69.64 8.11 71.9 7.99 75.15 10.84 73.28 13.54 74.19 12.86 71.42 14.73 68.9 11.56 68.77"/><polygon class="cls-2" points="20.21 75.48 21 74.42 19.66 74.36 18.95 73.26 18.54 74.4 17.14 74.73 18.21 75.68 18.16 77.05 19.36 76.26 20.5 76.64 20.21 75.48"/><polygon class="cls-2" points="34.47 70.98 31.05 71.44 28.25 68.86 27.68 72.67 24.29 74.37 27.43 75.91 27.95 80.01 31 77.24 34.91 77.81 33.02 74.13 34.47 70.98"/><polygon class="cls-2" points="48.63 72.24 44.12 75.94 38.59 74.4 40.53 79.32 36.95 84.45 43.2 84.45 46.99 89.06 48.63 83.01 53.45 80.96 49.15 77.99 48.63 72.24"/><polygon class="cls-2" points="22.31 83.03 21.6 81.93 21.18 83.07 19.79 83.4 20.86 84.35 20.81 85.72 22.01 84.93 23.15 85.31 22.86 84.15 23.65 83.09 22.31 83.03"/><polygon class="cls-2" points="62.73 51.8 62.01 50.69 61.6 51.83 60.2 52.16 61.28 53.12 61.22 54.48 62.42 53.7 63.56 54.08 63.28 52.91 64.06 51.85 62.73 51.8"/><polygon class="cls-2" points="58.42 24.45 59.63 23.66 60.76 24.04 60.48 22.88 61.26 21.82 59.93 21.77 59.21 20.66 58.8 21.8 57.41 22.13 58.48 23.08 58.42 24.45"/><polygon class="cls-2" points="70.07 35.08 66.91 32.38 67.29 28.3 64.08 30.29 60.03 28.41 60.81 32.8 58.05 36.05 62.51 36.44 64.56 39.57 66.1 36.17 70.07 35.08"/><polygon class="cls-2" points="76.87 47.94 80.95 46.2 77.3 43.68 76.87 38.81 73.04 41.94 68.35 40.64 70 44.81 66.96 49.16 72.26 49.16 75.48 53.06 76.87 47.94"/><polygon class="cls-2" points="66.84 58.42 66.43 59.56 65.03 59.89 66.1 60.84 66.05 62.21 67.25 61.42 68.39 61.8 68.1 60.64 68.89 59.58 67.56 59.53 66.84 58.42"/><polygon class="cls-2" points="59.93 78.75 59.21 77.64 58.8 78.78 57.41 79.11 58.48 80.06 58.42 81.43 59.63 80.64 60.76 81.03 60.48 79.86 61.26 78.8 59.93 78.75"/><polygon class="cls-2" points="82.34 62.26 81.94 57.7 78.35 60.63 73.96 59.41 75.5 63.31 72.65 67.39 77.62 67.39 80.63 71.05 81.94 66.25 85.76 64.62 82.34 62.26"/><polygon class="cls-2" points="67.56 72.47 66.84 71.36 66.43 72.5 65.03 72.84 66.1 73.79 66.05 75.15 67.25 74.37 68.39 74.75 68.1 73.58 68.89 72.52 67.56 72.47"/><path class="cls-3" d="M427.5,573.41c0.08,2.06-3.87,8.72-15,13.37-10.8,4.5-18.09,1.8-21.24,0-2.49-1.44-10.1-26.73-13.12-37.09,0.81-.9,5,2.81,7.62,1.79s2.55-4.07,5.64-4.22,3.47,1.64,6.49.66c3.58-1.16,2.79-2.9,5.64-4.07,4.15-1.7,6.81,1.82,8.2-2.54C417.65,552.45,427.4,571.06,427.5,573.41Z" transform="translate(-354.31 -508.62)"/><path class="cls-4" d="M411.69,541.3c-1.39,4.37-4,.84-8.2,2.54-2.86,1.17-2.07,2.9-5.64,4.07-3,1-3.39-.81-6.49-0.66s-3,3.21-5.64,4.22-6.81-2.69-7.62-1.79c-0.79-2.69-1.27-4.37-1.27-4.37s20.85,0.5,30.36-12.37C407.27,533.08,409.13,536.49,411.69,541.3Z" transform="translate(-354.31 -508.62)"/><path class="cls-5" d="M407.19,532.93c-9.51,12.87-30.36,12.37-30.36,12.37-2.48-2.24-3.41-9.76-2.79-11a1.12,1.12,0,0,1,.94-0.13c1.76,0.09,6.12.48,14.4-2.57,7.7-2.83,10.62-7.08,12.15-8.09a0.94,0.94,0,0,1,.69-0.21c2.56,0.56,5.31,9.17,5.31,9.17Z" transform="translate(-354.31 -508.62)"/><path class="cls-6" d="M401.43,523.4l0.09,0.1c-1.53,1-4.45,5.27-12.15,8.09-8.28,3-12.63,2.66-14.4,2.57a13.28,13.28,0,0,1,1.07-8.5c2.16-4.15,2.9-4.87,2.79-7.13s-2.71-6.85,1.41-9.13c5.74-3.17,5.77,4.1,9.13,6.08C392.29,517.19,398.86,517.23,401.43,523.4Z" transform="translate(-354.31 -508.62)"/><g class="cls-7"><path class="cls-8" d="M377.59,545.08c1.68,5.25,3.3,10.5,5,15.72s3.41,10.45,5.31,15.59c1,2.55,1.92,5.14,3.05,7.51a10.93,10.93,0,0,0,.88,1.53l0.09,0.11a0.68,0.68,0,0,0,.26.15c0.32,0.18.57,0.29,0.85,0.42a17.23,17.23,0,0,0,3.61,1.2,21.76,21.76,0,0,0,7.7.2,31.27,31.27,0,0,0,7.53-2.14l1.89-.83,1.75-.87,1.73-1c0.55-.36,1.12-0.69,1.66-1.07a24,24,0,0,0,5.68-5.26,11.78,11.78,0,0,0,1-1.55,4,4,0,0,0,.47-1.33v0h0a1.1,1.1,0,0,1,0,.15l0-.13-0.05-.25a1.53,1.53,0,0,0-.12-0.42c-0.1-.25-0.14-0.42-0.28-0.76-0.24-.61-0.49-1.23-0.77-1.85-1.1-2.47-2.27-5-3.47-7.43-2.39-4.94-4.89-9.85-7.39-14.75l-7.49-14.73,0.12,0.17h0a0.79,0.79,0,0,1,1.15-1.08h0a0.63,0.63,0,0,1,.1.13l0,0c2.75,4.78,5.42,9.58,8.09,14.41s5.23,9.71,7.76,14.62c1.26,2.46,2.52,4.92,3.66,7.48,0.29,0.63.57,1.29,0.84,2,0.13,0.29.29,0.78,0.42,1.18a3.9,3.9,0,0,1,.16.57l0.05,0.25,0,0.13c0-.14,0,0.23,0,0.21v0.16a4.79,4.79,0,0,1-.28,1.45,8,8,0,0,1-.48,1.13,14.58,14.58,0,0,1-1.2,2,26.77,26.77,0,0,1-6.33,6c-0.59.42-1.2,0.78-1.8,1.18l-1.86,1.07-1.94,1-1.88.85a32.27,32.27,0,0,1-8.33,2.33,24.66,24.66,0,0,1-8.73-.31,20.07,20.07,0,0,1-4.2-1.43c-0.34-.17-0.71-0.34-1-0.51a3.54,3.54,0,0,1-.61-0.38,3.2,3.2,0,0,1-.62-0.64,13,13,0,0,1-1.18-2,76.09,76.09,0,0,1-3.06-7.84c-1.79-5.25-3.39-10.53-5-15.82s-3-10.62-4.37-16A0.79,0.79,0,0,1,377.59,545.08Z" transform="translate(-354.31 -508.62)"/></g><path class="cls-9" d="M378.8,534.18l0.4,1.67c0.23,1,.55,2.34.88,3.66s0.69,2.64,1,3.64l0.33,1.22,0.11,0.47-1,.45-0.29-.41a11,11,0,0,1-.67-1.14c-0.13-.24-0.27-0.5-0.39-0.79s-0.27-.58-0.38-0.91a18.84,18.84,0,0,1-.65-2,17.5,17.5,0,0,1-.41-2.1,13.91,13.91,0,0,1-.13-1.87,9.55,9.55,0,0,1,.14-1.84h1.05Z" transform="translate(-354.31 -508.62)"/><path class="cls-9" d="M383.73,533.37s0.26,0.64.6,1.63,0.76,2.29,1.19,3.59l1.16,3.59,0.38,1.2,0.13,0.47-0.93.49-0.3-.4a11.35,11.35,0,0,1-.72-1.1,15.85,15.85,0,0,1-.85-1.65,20.42,20.42,0,0,1-1.32-4,16.29,16.29,0,0,1-.3-1.82,10.87,10.87,0,0,1-.07-1.82Z" transform="translate(-354.31 -508.62)"/><path class="cls-9" d="M389.87,531.41a17.76,17.76,0,0,1,.9,1.6c0.5,1,1.09,2.29,1.62,3.64s1,2.71,1.32,3.74c0.16,0.52.29,1,.37,1.25l0.12,0.46-0.93.49s-0.13-.16-0.31-0.43-0.43-.67-0.7-1.15a31.36,31.36,0,0,1-1.72-3.64,33.6,33.6,0,0,1-1.27-3.8,17.11,17.11,0,0,1-.39-1.79Z" transform="translate(-354.31 -508.62)"/><path class="cls-9" d="M395.12,529a12.15,12.15,0,0,1,1.22,1.37,21.82,21.82,0,0,1,2.15,3.36,20.3,20.3,0,0,1,1.51,3.72,11.64,11.64,0,0,1,.3,1.3l0.08,0.5-1,.33-0.25-.42L398.53,538l-1.8-3.38-0.95-1.82c-0.3-.58-0.57-1.14-0.8-1.61-0.46-1-.73-1.62-0.73-1.62Z" transform="translate(-354.31 -508.62)"/><path class="cls-9" d="M399.33,525.43a10.71,10.71,0,0,1,1.39,1.26,18.32,18.32,0,0,1,2.45,3.26,17.91,17.91,0,0,1,1,1.95,14.31,14.31,0,0,1,.67,1.8,10.15,10.15,0,0,1,.32,1.32l0.08,0.51-1,.33-0.25-.43-0.62-1.12c-0.51-.92-1.21-2.13-1.93-3.33l-2-3.31c-0.55-.91-0.9-1.53-0.9-1.53Z" transform="translate(-354.31 -508.62)"/><path class="cls-10" d="M399.75,553.2c-0.79-1.34-5.62.48-5.62,0.48s-2.62-3.11-3.9-2.36-1.07,4.61-1.07,4.61-3.8,2.67-4.08,3.73,4.35,2.34,4.35,2.34,0.72,4.59,1.7,4.84c1.32,0.34,4.37-3.77,4.37-3.77s5.35,0.53,5.66-.68-2.87-4.64-2.87-4.64S400.54,554.54,399.75,553.2Zm-8.84-.59a0.4,0.4,0,1,1,.14-0.55A0.4,0.4,0,0,1,390.91,552.62Z" transform="translate(-354.31 -508.62)"/><path class="cls-11" d="M392.21,558.92l0.15,0,0.35,0.08a0.89,0.89,0,0,0,.32,0s0,0,0,0h0L393,559h0l0.08,0,0.09,0h0l0,0a0.05,0.05,0,0,0,0,0,0.43,0.43,0,0,0,.19-0.19c0.12-.21.22-0.45,0.23-0.42a0.53,0.53,0,1,1,1-.28,1.8,1.8,0,0,1,.34.79,1.77,1.77,0,0,1-.51,1.56,2.28,2.28,0,0,1-.56.38l-0.08,0-0.08,0h-0.07l-0.09,0a1.75,1.75,0,0,1-1-.07,1.79,1.79,0,0,1-.77-0.57,1.74,1.74,0,0,1-.29-0.52,1.78,1.78,0,0,1-.06-0.23A0.53,0.53,0,1,1,392.21,558.92Z" transform="translate(-354.31 -508.62)"/><circle class="cls-12" cx="390.73" cy="560.84" r="1.01" transform="translate(-584.34 -233.89) rotate(-30.39)"/><circle class="cls-12" cx="396.48" cy="558.5" r="1.01" transform="translate(-582.42 -231.2) rotate(-30.4)"/><path class="cls-11" d="M389.55,558.5l0.11,0,0.27,0.11a0.72,0.72,0,0,0,.25.07c0.06,0-.07-0.05-0.11,0h0l-0.06,0h0l0.06,0a0.14,0.14,0,1,1,0,0s0,0,0,0a0.33,0.33,0,0,0,.11-0.19c0.07-.19.09-0.39,0.1-0.37a0.4,0.4,0,1,1,.72-0.32,1.53,1.53,0,0,1,.35.52,1.33,1.33,0,0,1,.06.76,1.27,1.27,0,0,1-.24.51,1.7,1.7,0,0,1-.23.22l-0.05,0h0l-0.07,0h0l-0.07,0a1.2,1.2,0,0,1-.63.12,1.19,1.19,0,0,1-.53-0.17,1.36,1.36,0,0,1-.5-0.52,1.46,1.46,0,0,1-.18-0.58,0.44,0.44,0,0,1,.42-0.45h0.1Z" transform="translate(-354.31 -508.62)"/><path class="cls-11" d="M394.52,556.61l0.11,0,0.27,0.11a0.72,0.72,0,0,0,.25.07c0.06,0-.07-0.05-0.11,0h0l-0.06,0h0l0.06,0a0.14,0.14,0,1,1,0,0s0,0,0,0a0.33,0.33,0,0,0,.11-0.19c0.07-.19.09-0.39,0.1-0.37A0.4,0.4,0,0,1,396,556a1.53,1.53,0,0,1,.35.52,1.33,1.33,0,0,1,.06.76,1.27,1.27,0,0,1-.24.51,1.7,1.7,0,0,1-.23.22l-0.05,0h0l-0.07,0h0l-0.07,0a1.2,1.2,0,0,1-.63.12,1.19,1.19,0,0,1-.53-0.17,1.36,1.36,0,0,1-.5-0.52,1.46,1.46,0,0,1-.18-0.58,0.44,0.44,0,0,1,.42-0.45h0.1Z" transform="translate(-354.31 -508.62)"/><path class="cls-13" d="M392,565.45a0.62,0.62,0,0,0-.5.1,0.57,0.57,0,0,0-.25.41,0.28,0.28,0,0,0,.15.25,0.6,0.6,0,0,0,.3.07,0.88,0.88,0,0,0,.41-0.1A0.4,0.4,0,0,0,392,565.45Z" transform="translate(-354.31 -508.62)"/><path class="cls-13" d="M393.12,564.62a1.38,1.38,0,0,0-.67-0.08c-0.25,0-.6-0.06-0.63.3a0.58,0.58,0,0,0,.63.48,0.94,0.94,0,0,0,.73-0.28A0.27,0.27,0,0,0,393.12,564.62Z" transform="translate(-354.31 -508.62)"/><path class="cls-13" d="M393.32,563.57l-0.07,0-0.11,0c0.05,0,.05,0,0,0l-0.07,0c0.07,0,0,0,0,0a0.35,0.35,0,0,0-.24.59,0.71,0.71,0,0,0,.84.11A0.42,0.42,0,0,0,393.32,563.57Z" transform="translate(-354.31 -508.62)"/><path class="cls-13" d="M394.31,562.72a0.51,0.51,0,0,0-.27,0l-0.07,0h0a0.39,0.39,0,0,0-.18.76,0.68,0.68,0,0,0,.78-0.24A0.38,0.38,0,0,0,394.31,562.72Z" transform="translate(-354.31 -508.62)"/><path class="cls-13" d="M398.13,556.12a0.22,0.22,0,0,0-.27.16,0.64,0.64,0,0,0,0,.55,0.35,0.35,0,0,0,.59,0A0.5,0.5,0,0,0,398.13,556.12Z" transform="translate(-354.31 -508.62)"/><path class="cls-13" d="M398.88,555.29a0.59,0.59,0,0,0-.25-0.06,0.64,0.64,0,0,0-.2.05,0.31,0.31,0,0,0-.17.46,0.5,0.5,0,0,0,.08.23,0.44,0.44,0,0,0,.48.2,0.44,0.44,0,0,0,.32-0.42A0.48,0.48,0,0,0,398.88,555.29Z" transform="translate(-354.31 -508.62)"/><path class="cls-13" d="M398.94,554.38a0.28,0.28,0,0,0-.18.5,0.45,0.45,0,0,0,.12.19,0.36,0.36,0,0,0,.56-0.44A0.57,0.57,0,0,0,398.94,554.38Z" transform="translate(-354.31 -508.62)"/><path class="cls-14" d="M392,552.8a0.3,0.3,0,0,0,.3.51A0.3,0.3,0,0,0,392,552.8Z" transform="translate(-354.31 -508.62)"/><path class="cls-14" d="M392.91,554a0.41,0.41,0,0,0-.08.41,0.33,0.33,0,0,0,.55.14,0.41,0.41,0,0,0,.13-0.4A0.36,0.36,0,0,0,392.91,554Z" transform="translate(-354.31 -508.62)"/><path class="cls-15" d="M419.35,572.42c-0.25-.92-5.42-0.41-7.75-4.72-2.68-5,3.39-9.46,2.81-10.16-0.8-.95-10.12-2-13,6.59-2.5,7.5,1.54,13.13,7.37,14.07S419.8,574,419.35,572.42Zm-13.3-11.05a0.6,0.6,0,1,1,.65-0.55A0.6,0.6,0,0,1,406.05,561.37Z" transform="translate(-354.31 -508.62)"/><circle class="cls-11" cx="407.27" cy="566.35" r="0.56" transform="translate(-546.69 414.17) rotate(-85.01)"/><circle class="cls-12" cx="405.17" cy="569.6" r="2.1" transform="translate(-551.94 414.86) rotate(-84.99)"/><path class="cls-11" d="M406.41,568.76s0.4,0,1,0h0.9a4.65,4.65,0,0,0,.88-0.1l0.09,0h0l0.07,0,0.26-.09a3,3,0,0,0,.33-0.14,2.63,2.63,0,0,0,.57-0.39c0.31-.28.49-0.6,0.49-0.55a0.53,0.53,0,0,1,1.05.06,2.38,2.38,0,0,1-.2,1.33,2.9,2.9,0,0,1-.85,1.09,3.64,3.64,0,0,1-.68.42l-0.3.12-0.07,0-0.13,0-0.2.06a4.24,4.24,0,0,1-2.61-.29,3.71,3.71,0,0,1-1-.59,0.56,0.56,0,0,1,.36-1h0Z" transform="translate(-354.31 -508.62)"/><path class="cls-16" d="M406.39,574.52a0.74,0.74,0,0,0-.25-0.25,0.7,0.7,0,0,0-.83.11,1.44,1.44,0,0,0-.48,1.08,0.42,0.42,0,0,0,.53.4,1.87,1.87,0,0,0,.38-0.11,1.35,1.35,0,0,0,.65-0.54A0.67,0.67,0,0,0,406.39,574.52Z" transform="translate(-354.31 -508.62)"/><path class="cls-16" d="M407.29,575.29a0.56,0.56,0,0,0-.52-0.14,1.23,1.23,0,0,0-.69.83,0.42,0.42,0,0,0,.57.57l0.37-.25a0.79,0.79,0,0,0,.42-0.64A0.51,0.51,0,0,0,407.29,575.29Z" transform="translate(-354.31 -508.62)"/><path class="cls-16" d="M408.86,575.82a0.53,0.53,0,0,0-.64-0.08,2.36,2.36,0,0,0-.74,1.08,0.43,0.43,0,0,0,.68.52,2,2,0,0,0,.84-1A0.55,0.55,0,0,0,408.86,575.82Z" transform="translate(-354.31 -508.62)"/><path class="cls-16" d="M410.59,576.09a0.61,0.61,0,0,0-.6-0.16,0.88,0.88,0,0,0-.58.69l-0.06.2c0-.1,0-0.07,0,0.08l0,0.15a0.46,0.46,0,0,0,.05.33,0.45,0.45,0,0,0,.44.23,0.92,0.92,0,0,0,.7-0.31,1.1,1.1,0,0,0,.28-0.49A0.75,0.75,0,0,0,410.59,576.09Z" transform="translate(-354.31 -508.62)"/><path class="cls-16" d="M412.74,576a0.59,0.59,0,0,0-.44-0.57,0.6,0.6,0,0,0-.67.27,1.27,1.27,0,0,0-.16.66,0.6,0.6,0,1,0,1.2,0v0l0-.05A2,2,0,0,0,412.74,576Z" transform="translate(-354.31 -508.62)"/><path class="cls-16" d="M414.24,575.33a0.68,0.68,0,0,0-1.17,0,0.94,0.94,0,0,0-.12.44s0,0,0,.07a0.67,0.67,0,0,0,.16.5,0.69,0.69,0,0,0,.87.11,0.8,0.8,0,0,0,.35-0.48A0.94,0.94,0,0,0,414.24,575.33Z" transform="translate(-354.31 -508.62)"/><path class="cls-16" d="M415,574.6h0a0.6,0.6,0,0,0,0,1h0A0.6,0.6,0,1,0,415,574.6Z" transform="translate(-354.31 -508.62)"/><path class="cls-14" d="M412.27,557.85a0.66,0.66,0,1,0-.51,1.2,0.64,0.64,0,0,0,.64-0.17A0.66,0.66,0,0,0,412.27,557.85Z" transform="translate(-354.31 -508.62)"/><path class="cls-14" d="M410.85,559.7a0.73,0.73,0,0,0-.59.89,0.79,0.79,0,0,0,.35.45,0.73,0.73,0,0,0,1.07-.43A0.74,0.74,0,0,0,410.85,559.7Z" transform="translate(-354.31 -508.62)"/><path class="cls-17" d="M377.73,525.47a0.07,0.07,0,0,0-.13,0,1.16,1.16,0,0,1-.2.37,0.09,0.09,0,0,0,.13.13A0.48,0.48,0,0,0,377.73,525.47Z" transform="translate(-354.31 -508.62)"/><path class="cls-17" d="M378.49,525.77a0.86,0.86,0,0,0-.61-0.81,0.84,0.84,0,0,0-1,.58s0,0.22,0,.29h0v0l-0.06.13a3.52,3.52,0,0,0-.37,1.08,0.81,0.81,0,0,0,1.37.57A2.66,2.66,0,0,0,378.49,525.77Z" transform="translate(-354.31 -508.62)"/><path class="cls-17" d="M376.47,529.4l-0.08,0a0.59,0.59,0,0,0-.86.33,5.41,5.41,0,0,0-.18.71,1.16,1.16,0,0,0,.37.88,0.78,0.78,0,0,0,.76.2A0.81,0.81,0,0,0,377,531a3,3,0,0,0,.19-0.69A0.81,0.81,0,0,0,376.47,529.4Z" transform="translate(-354.31 -508.62)"/><path class="cls-17" d="M379.8,528.24a1,1,0,0,0-.82-0.47h0a0.94,0.94,0,0,0-.91.7,1,1,0,0,0,.66,1.17l0,0A1,1,0,0,0,379.8,528.24Z" transform="translate(-354.31 -508.62)"/><path class="cls-17" d="M379.69,531.12a0.87,0.87,0,0,0-.53-0.42l-0.11,0h-0.17a0.59,0.59,0,0,0-.7.3,0.85,0.85,0,0,0,.14,1,0.89,0.89,0,0,0,1.27,0A0.72,0.72,0,0,0,379.69,531.12Z" transform="translate(-354.31 -508.62)"/><path class="cls-17" d="M378.93,530.66h0Z" transform="translate(-354.31 -508.62)"/><path class="cls-17" d="M383.8,529.71a1.58,1.58,0,0,0-1.06-.12h0l-0.29,0-0.3.06a0.62,0.62,0,0,0-.44.44,0.64,0.64,0,0,0,.29.71,1.8,1.8,0,0,0,1.84.25A0.81,0.81,0,0,0,383.8,529.71Z" transform="translate(-354.31 -508.62)"/><path class="cls-17" d="M387,529.59a0.93,0.93,0,0,0-.52,0h-0.12a0.82,0.82,0,0,0,0,1.65,1.12,1.12,0,0,0,1.1-.5A0.79,0.79,0,0,0,387,529.59Z" transform="translate(-354.31 -508.62)"/><path class="cls-18" d="M385.63,513.25a4.73,4.73,0,0,0-2.92-3,0.54,0.54,0,0,0-.78.32c-0.4,1.39,1.53,2,1.7,3.21a1,1,0,0,0,1,.77l0.28,0A1.05,1.05,0,0,0,385.63,513.25Z" transform="translate(-354.31 -508.62)"/><path class="cls-18" d="M393.38,518.35a4.59,4.59,0,0,0-1.94-.77,12.86,12.86,0,0,1-1.88-.63,0.21,0.21,0,0,0-.31.12c-0.24.65,0.53,1.23,1,1.49a8.42,8.42,0,0,0,2.43.95A0.7,0.7,0,0,0,393.38,518.35Z" transform="translate(-354.31 -508.62)"/><path class="cls-18" d="M403.44,525.32a1.46,1.46,0,0,0-.32-0.54,1.36,1.36,0,0,0-.56-0.31,0.86,0.86,0,0,0-.92.25,0.91,0.91,0,0,0-.47.4,1,1,0,0,0,.35,1.33l0,0h0a2.54,2.54,0,0,0,.37.26,1,1,0,0,0,1.38-.36A1.26,1.26,0,0,0,403.44,525.32Z" transform="translate(-354.31 -508.62)"/><path class="cls-18" d="M399.57,527.75v0a0.66,0.66,0,0,0-.3-0.17,0.88,0.88,0,0,0-.45-0.14h0l-0.28-.07a1,1,0,0,0-.75.15,0.87,0.87,0,0,0-.31,1.17,1.26,1.26,0,0,0,1.1.71,1.19,1.19,0,0,0,1.09-.83,0.75,0.75,0,0,0,0-.13A0.48,0.48,0,0,0,399.57,527.75Z" transform="translate(-354.31 -508.62)"/><path class="cls-18" d="M394.2,531l-0.11,0s-0.08,0,0,0h0l0,0a1,1,0,0,0-.61-0.12,1,1,0,0,0-.63.26,0.9,0.9,0,0,0-.23.87,1.22,1.22,0,0,0,1.15,1,1.15,1.15,0,0,0,.62-0.2,1.84,1.84,0,0,0,.43-0.46A0.88,0.88,0,0,0,394.2,531Z" transform="translate(-354.31 -508.62)"/><path class="cls-18" d="M400.27,528.91a0.71,0.71,0,0,0,0,1.41A0.71,0.71,0,0,0,400.27,528.91Z" transform="translate(-354.31 -508.62)"/><path class="cls-18" d="M389.12,533.48a1.14,1.14,0,0,0-1.15,0,1.16,1.16,0,0,0-.54.94,0.91,0.91,0,0,0,.51.86h0l0.09,0a1,1,0,0,0,.31.09h0.13a1,1,0,0,0,.32,0,1.22,1.22,0,0,0,.7-0.56A1,1,0,0,0,389.12,533.48Z" transform="translate(-354.31 -508.62)"/><path class="cls-18" d="M389.75,535.59a0.71,0.71,0,0,0,0,1.43A0.71,0.71,0,0,0,389.75,535.59Z" transform="translate(-354.31 -508.62)"/><path class="cls-18" d="M404.58,527.77l-0.09-.11a0.68,0.68,0,0,0-1,1l0.11,0.09A0.66,0.66,0,1,0,404.58,527.77Z" transform="translate(-354.31 -508.62)"/><path class="cls-19" d="M376.45,539.67a1.35,1.35,0,0,0-.23-0.1l-0.19,0H376a0.4,0.4,0,0,0-.47.46v0.07a0.84,0.84,0,0,0,.41.72,0.62,0.62,0,0,0,.6,0,0.59,0.59,0,0,0,.29-0.51A0.73,0.73,0,0,0,376.45,539.67Z" transform="translate(-354.31 -508.62)"/><path class="cls-19" d="M378,542a1,1,0,0,0-.5-0.63,1.18,1.18,0,0,0-.81-0.1,0.9,0.9,0,0,0-.63,1.12,1.15,1.15,0,0,0,.48.64,1,1,0,0,0,1,0A0.91,0.91,0,0,0,378,542Z" transform="translate(-354.31 -508.62)"/><path class="cls-19" d="M378.25,543.15a0.63,0.63,0,0,0,0,1.25A0.63,0.63,0,0,0,378.25,543.15Z" transform="translate(-354.31 -508.62)"/><path class="cls-19" d="M381.57,539.54a0.88,0.88,0,1,0-1.53.89,1.41,1.41,0,0,0,.21.28c-0.16-.16-0.06-0.07,0,0a0.7,0.7,0,0,0,.78.34,1,1,0,0,0,.56-0.49A1.05,1.05,0,0,0,381.57,539.54Z" transform="translate(-354.31 -508.62)"/><path class="cls-19" d="M381.89,541.47a0.63,0.63,0,0,0,0,1.27A0.63,0.63,0,0,0,381.89,541.47Z" transform="translate(-354.31 -508.62)"/><circle class="cls-19" cx="29.45" cy="34.67" r="0.71"/><path class="cls-19" d="M387.11,538.29a1.17,1.17,0,0,0-.81-0.33,0.84,0.84,0,0,0-.74.42,0.87,0.87,0,0,0,0,.86l0,0a0.83,0.83,0,0,0,.22.31,1.19,1.19,0,0,0,.76.32,0.85,0.85,0,0,0,.82-0.62A1.08,1.08,0,0,0,387.11,538.29Z" transform="translate(-354.31 -508.62)"/><path class="cls-19" d="M388.07,540.6a1,1,0,0,0-1.21,1.38,1,1,0,0,0,1.21.45A0.95,0.95,0,0,0,388.07,540.6Z" transform="translate(-354.31 -508.62)"/><circle class="cls-19" cx="35.99" cy="33.39" r="1.07"/><path class="cls-19" d="M395.35,537.64a1.38,1.38,0,0,0-1-.94l0.31,0.13a2.62,2.62,0,0,0-.52-0.24,1.29,1.29,0,0,0-1.24.33,1.25,1.25,0,0,0-.33,1.24,1.64,1.64,0,0,0,.8,1,1.41,1.41,0,0,0,1,.13,1.36,1.36,0,0,0,.79-0.61A1.29,1.29,0,0,0,395.35,537.64Z" transform="translate(-354.31 -508.62)"/><path class="cls-19" d="M397.42,539.31a1,1,0,0,0-.92-0.7,1,1,0,0,0-1,.78,0.93,0.93,0,0,0,.41,1,1,1,0,0,0,1.11,0A1,1,0,0,0,397.42,539.31Z" transform="translate(-354.31 -508.62)"/><path class="cls-19" d="M400.58,535a1,1,0,0,0-.64-0.65,0.87,0.87,0,0,0-1.06,1.06,1,1,0,0,0,.65.64A0.86,0.86,0,0,0,400.58,535Z" transform="translate(-354.31 -508.62)"/><path class="cls-19" d="M401.67,536.19a0.86,0.86,0,0,0-.62.58,0.74,0.74,0,0,0,.52.91h0a0.75,0.75,0,0,0,.75-0.2,1,1,0,0,0,.23-0.41A0.74,0.74,0,0,0,401.67,536.19Z" transform="translate(-354.31 -508.62)"/><circle class="cls-19" cx="50.39" cy="22.28" r="0.79"/><circle class="cls-19" cx="51.47" cy="24.54" r="0.85"/><path class="cls-18" d="M408.53,539.45a6,6,0,0,0-.72-1.77,2.71,2.71,0,0,0-1-1,1.09,1.09,0,0,0-1.62.93,3.55,3.55,0,0,0,1.47,3,1.16,1.16,0,0,0,1.36.18A1.12,1.12,0,0,0,408.53,539.45Z" transform="translate(-354.31 -508.62)"/><path class="cls-20" d="M390.62,576.77c0-.26,0-0.53,0-0.79a2.34,2.34,0,0,0-.16-1.29,0.75,0.75,0,0,0-.82-0.33c-1.09.23-1.24,2.08-1.35,2.95a1.19,1.19,0,0,0,.88,1.15,1.22,1.22,0,0,0,1.47-.84,1.14,1.14,0,0,0,.08-0.51A1.25,1.25,0,0,0,390.62,576.77Z" transform="translate(-354.31 -508.62)"/><path class="cls-20" d="M393,580.71a29.94,29.94,0,0,1-.3-3.86,0.62,0.62,0,0,0-1-.27c-1.17,1-1.33,3.08-1.19,4.47C390.68,582.94,393.5,582.47,393,580.71Z" transform="translate(-354.31 -508.62)"/><path class="cls-20" d="M396.35,583.93c-0.49-1.07.13-2.9-1-3.63a0.52,0.52,0,0,0-.61.08,3.73,3.73,0,0,0-.91,2.09,4.08,4.08,0,0,0,.29,2.76,1.19,1.19,0,0,0,2,.14l0,0.12A1.31,1.31,0,0,0,396.35,583.93Z" transform="translate(-354.31 -508.62)"/><path class="cls-20" d="M399.31,584.33c-0.18-.52-0.6-1.69-1.37-1.29s-0.45,1.62-.36,2.22c0.11,0.79.74,2,1.7,1.9a0.89,0.89,0,0,0,.88-0.88A10.15,10.15,0,0,0,399.31,584.33Z" transform="translate(-354.31 -508.62)"/><path class="cls-20" d="M401.43,584.65v0A0.12,0.12,0,1,0,401.43,584.65Z" transform="translate(-354.31 -508.62)"/><path class="cls-20" d="M403.44,584.49a1.84,1.84,0,0,0-1.4-.92,0.72,0.72,0,0,0-.62,1.05c0,0.09.21,0.44,0.16,0.33,0.12,0.3.14,0.33,0.23,0.55a5.25,5.25,0,0,0,.31.73,1.47,1.47,0,0,0,.79.67,1,1,0,0,0,1.22-.93A2.45,2.45,0,0,0,403.44,584.49Z" transform="translate(-354.31 -508.62)"/><path class="cls-20" d="M407.44,585a1.79,1.79,0,0,0-.83-0.76c-0.25-.14-0.49-0.28-0.75-0.4A0.73,0.73,0,0,0,405,585a5.29,5.29,0,0,1,.37.52,1.91,1.91,0,0,0,.76.82A1,1,0,0,0,407.44,585Z" transform="translate(-354.31 -508.62)"/><path class="cls-20" d="M409.86,583.77a1.37,1.37,0,0,0-1.7-.41,0.66,0.66,0,0,0,0,1.27,1.6,1.6,0,0,0,1.61-.13A0.62,0.62,0,0,0,409.86,583.77Z" transform="translate(-354.31 -508.62)"/></g></g></svg>