<svg xmlns="http://www.w3.org/2000/svg" xmlns:xlink="http://www.w3.org/1999/xlink" viewBox="0 0 86.84 88.48"><defs><style>.cls-1{fill:none;}.cls-2{isolation:isolate;}.cls-3{fill:#f0ecc7;}.cls-4{fill:#d88584;}.cls-5{fill:#fbad1a;}.cls-6{fill:#010c30;}.cls-26,.cls-7{fill:#12216d;}.cls-8{fill:#111128;}.cls-9{fill:#e0d192;}.cls-10{fill:#0a184c;}.cls-11{fill:#1d1d49;}.cls-11,.cls-14{opacity:0.58;}.cls-11,.cls-14,.cls-16,.cls-19,.cls-23,.cls-25{mix-blend-mode:multiply;}.cls-12,.cls-25{fill:#efe8ca;}.cls-13,.cls-16,.cls-21{fill:#242144;}.cls-15{fill:#424275;}.cls-16{opacity:0.53;}.cls-17,.cls-23{fill:#f2c666;}.cls-18{fill:#d8b084;}.cls-19{fill:#ffa46a;opacity:0.36;}.cls-20{fill:#fff;}.cls-21,.cls-26{mix-blend-mode:screen;}.cls-22{clip-path:url(#clip-path);}.cls-23{opacity:0.37;}.cls-24{fill:#2a2a51;}</style><clipPath id="clip-path" transform="translate(-260.85 -459.73)"><path class="cls-1" d="M314.36,481.25a3.35,3.35,0,0,0,3.87-.15l0.14-.12c1.52-1.33,3.44-1.75,4.71-.89s3.41,2.37,1.67,5.4-6.72,4.09-9.42,3.73-9.66-2.33-8-7.2C308.67,478.09,312.12,479.82,314.36,481.25Z"/></clipPath></defs><title>sect3-graduate</title><g class="cls-2"><g id="Layer_1" data-name="Layer 1"><path class="cls-3" d="M305.6,531.5a13.17,13.17,0,0,0-1.79.79l-0.08,0,0-.08a13.49,13.49,0,0,0-1.15-1.58,0.12,0.12,0,0,0-.15,0,0.12,0.12,0,0,0-.05.14,13.17,13.17,0,0,0,.79,1.79l0,0.08-0.08.05a13.13,13.13,0,0,0-1.58,1.15,0.12,0.12,0,0,0,.12.2,13.41,13.41,0,0,0,1.79-.79l0.08,0,0.05,0.08a13.13,13.13,0,0,0,1.15,1.58,0.12,0.12,0,0,0,.15,0,0.12,0.12,0,0,0,.05-0.14,13.49,13.49,0,0,0-.79-1.79l0-.08,0.08,0a13.45,13.45,0,0,0,1.58-1.15A0.12,0.12,0,0,0,305.6,531.5Z" transform="translate(-260.85 -459.73)"/><path class="cls-3" d="M301.93,544.78a13.54,13.54,0,0,0-1.79.79l-0.08,0,0-.08a13.42,13.42,0,0,0-1.15-1.58,0.12,0.12,0,0,0-.2.11,13.22,13.22,0,0,0,.79,1.79l0,0.08-0.08.05a13.51,13.51,0,0,0-1.58,1.15,0.12,0.12,0,0,0,0,.15,0.12,0.12,0,0,0,.14.05,13.28,13.28,0,0,0,1.79-.79l0.08,0,0.05,0.08a13.18,13.18,0,0,0,1.15,1.58,0.12,0.12,0,0,0,.2-0.12,13.47,13.47,0,0,0-.79-1.79l0-.08,0.08-.05A13.31,13.31,0,0,0,302,545a0.12,0.12,0,0,0,0-.15A0.12,0.12,0,0,0,301.93,544.78Z" transform="translate(-260.85 -459.73)"/><path class="cls-3" d="M302.41,482.41a13.54,13.54,0,0,0-1.79.79l-0.08,0,0-.08a13.44,13.44,0,0,0-1.15-1.58,0.12,0.12,0,0,0-.15,0,0.12,0.12,0,0,0-.05.14,13.25,13.25,0,0,0,.79,1.79l0,0.08-0.08.05a13.52,13.52,0,0,0-1.58,1.15,0.12,0.12,0,0,0,0,.15,0.12,0.12,0,0,0,.14.05,13.36,13.36,0,0,0,1.79-.79l0.08,0,0,0.08a13.23,13.23,0,0,0,1.15,1.58,0.12,0.12,0,0,0,.15,0,0.12,0.12,0,0,0,.05-0.14,13.48,13.48,0,0,0-.79-1.79l0-.08,0.08,0a13.37,13.37,0,0,0,1.58-1.15,0.12,0.12,0,0,0,0-.15A0.12,0.12,0,0,0,302.41,482.41Z" transform="translate(-260.85 -459.73)"/><path class="cls-3" d="M297.45,527.47a18.6,18.6,0,0,0-2.49,1.1l-0.12.06-0.07-.11a18.63,18.63,0,0,0-1.6-2.2,0.17,0.17,0,0,0-.21,0,0.16,0.16,0,0,0-.07.19A18.21,18.21,0,0,0,294,529l0.06,0.12-0.11.07a18.53,18.53,0,0,0-2.2,1.6,0.17,0.17,0,0,0,.16.28,18.8,18.8,0,0,0,2.49-1.1l0.12-.06,0.07,0.11a18.14,18.14,0,0,0,1.6,2.2,0.16,0.16,0,0,0,.2,0,0.17,0.17,0,0,0,.07-0.19,18.64,18.64,0,0,0-1.1-2.49l-0.06-.12,0.11-.07a18.88,18.88,0,0,0,2.2-1.6A0.17,0.17,0,0,0,297.45,527.47Z" transform="translate(-260.85 -459.73)"/><path class="cls-3" d="M313.36,486.38a14.38,14.38,0,0,0-1.93.85l-0.09,0-0.05-.09a14.49,14.49,0,0,0-1.24-1.7,0.13,0.13,0,0,0-.22.12,14.25,14.25,0,0,0,.85,1.93l0,0.09-0.09.05a14.36,14.36,0,0,0-1.7,1.24,0.13,0.13,0,0,0,.12.22,14.45,14.45,0,0,0,1.93-.85l0.09,0,0.05,0.09a14.22,14.22,0,0,0,1.24,1.7,0.13,0.13,0,0,0,.22-0.12,14.54,14.54,0,0,0-.85-1.93l0-.09,0.09-.05a14.47,14.47,0,0,0,1.7-1.24A0.13,0.13,0,0,0,313.36,486.38Z" transform="translate(-260.85 -459.73)"/><g id="_Group_" data-name="&lt;Group&gt;"><path class="cls-4" d="M284.95,519.5a66.49,66.49,0,0,1,22.42,2.81c3.26,0.94,6.4,2,9.34,3.21,3.11,1.24,6,2.56,8.6,3.85,2.85,1.42,5.34,2.79,7.37,4,1.32,0.77,2.44,1.46,3.34,2l-2.45-5.71-1.8-4.19a0.91,0.91,0,0,1,0-.73,0.89,0.89,0,0,1,.56-0.47l1.29-.35,9.92-2.75-9.53-10a0.88,0.88,0,0,1,.29-1.42l7.85-3.38A67.24,67.24,0,0,0,331,503.4c-2.42-.43-4.82-0.72-7.18-0.9a85.18,85.18,0,0,0-12.15-.05c-3,.19-5.85.53-8.55,0.95a102.06,102.06,0,0,0-18.77,4.75l6.88,1.06a0.89,0.89,0,0,1,.48,1.51l-6.06,5.81c8-1.11,16.48.42,22.79,2.15l1.67,0.48c2.77,0.82,5.22,1.7,7.22,2.47,3.35,1.31,5.43,2.34,5.57,2.41a0.88,0.88,0,0,1,.39,1.18,0.87,0.87,0,0,1-.47.43,0.88,0.88,0,0,1-.72,0s-1.87-.93-4.87-2.13c-2.07-.82-4.69-1.78-7.66-2.66l-1.46-.42c-6.43-1.78-15.21-3.36-23.3-2Z" transform="translate(-260.85 -459.73)"/><path class="cls-5" d="M269.63,516.41l-6-6,8.38-1.14a0.87,0.87,0,0,0,.67-0.48l3.81-7.55,3.67,7.61,0,0,0.08,0.12,0,0,0.1,0.09,0.05,0,0.12,0.07,0,0,0.19,0.05,8.36,1.29-6.11,5.85a0.88,0.88,0,0,0-.26.78l1.36,8.34-7.45-4a0.86,0.86,0,0,0-.82,0l-7.52,3.87,1.5-8.32A0.9,0.9,0,0,0,269.63,516.41Zm11.83,4.4a0.66,0.66,0,0,0,.41-0.74l-0.73-3.76,2.71-2.4a0.66,0.66,0,0,0-.88-1l-3,2.65a0.65,0.65,0,0,0-.21.62l0.8,4.13a0.66,0.66,0,0,0,.78.52Z" transform="translate(-260.85 -459.73)"/><path class="cls-6" d="M268.05,517.34l-6.94-6.89a0.88,0.88,0,0,1-.21-0.91,0.9,0.9,0,0,1,.72-0.6l9.69-1.32,4.41-8.73a0.88,0.88,0,0,1,1.58,0l4.09,8.47A99.68,99.68,0,0,1,301,501.92C312,500,328.64,499,344.85,505.47a0.88,0.88,0,0,1,0,1.63l-8.69,3.74L345.85,521a0.89,0.89,0,0,1-.4,1.46l-11.65,3.23,5,11.67a0.89,0.89,0,0,1-.26,1,0.91,0.91,0,0,1-.23.13,0.89,0.89,0,0,1-.84-0.1c-0.27-.19-26.68-18.75-52.25-17.19l1,5.9a0.88,0.88,0,0,1-.36.86,0.86,0.86,0,0,1-.19.1,0.88,0.88,0,0,1-.74,0l-8.62-4.62-8.69,4.47-0.08,0h0a0.88,0.88,0,0,1-1.14-.5,0.85,0.85,0,0,1,0-.59Zm7.84,4.31a0.86,0.86,0,0,1,.82,0l7.45,4-1.36-8.34a0.88,0.88,0,0,1,.26-0.78l6.11-5.85-8.36-1.29-0.19-.05,0,0-0.12-.07-0.05,0-0.1-.09,0,0-0.08-.12,0,0-3.67-7.61-3.81,7.55a0.87,0.87,0,0,1-.67.48l-8.38,1.14,6,6a0.9,0.9,0,0,1,.25.78l-1.5,8.32ZM336,535.36l-4.25-9.9a0.91,0.91,0,0,1,0-.73,0.89,0.89,0,0,1,.56-0.47l11.21-3.1-9.53-10a0.88,0.88,0,0,1,.29-1.42l7.85-3.38c-24.27-8.7-49.34-1.26-57.83,1.81l6.88,1.06a0.89,0.89,0,0,1,.48,1.51l-6.06,5.81c8.74-1.21,18,.72,24.46,2.63A85.37,85.37,0,0,1,322.87,524a0.88,0.88,0,0,1,.39,1.18,0.87,0.87,0,0,1-.47.43,0.88,0.88,0,0,1-.72,0,85.36,85.36,0,0,0-12.54-4.78c-6.52-1.93-16-3.88-24.76-2.39l0.17,1C306.58,518.11,328.74,530.76,336,535.36Z" transform="translate(-260.85 -459.73)"/><path class="cls-3" d="M280.56,520.32a0.66,0.66,0,0,0,.78.52l0.12,0a0.66,0.66,0,0,0,.41-0.74l-0.73-3.76,2.71-2.4a0.66,0.66,0,0,0-.88-1l-3,2.65a0.65,0.65,0,0,0-.21.62Z" transform="translate(-260.85 -459.73)"/></g><path d="M292.92,487.06A9.33,9.33,0,0,1,288,484.9a5.67,5.67,0,0,1-1.93-4.1c-0.15-4.26,3.92-8.61,4.09-8.79a0.45,0.45,0,0,1,.65.62s-4,4.27-3.85,8.14a4.8,4.8,0,0,0,1.64,3.47c3.37,3.09,9.86,1.85,9.92,1.83a0.45,0.45,0,0,1,.18.88A18.35,18.35,0,0,1,292.92,487.06Z" transform="translate(-260.85 -459.73)"/><path class="cls-7" d="M298.13,460.25l15.79,8.37L339,470.7l-0.45-10.56s-34.48-1-40.69.07" transform="translate(-260.85 -459.73)"/><path class="cls-8" d="M293.92,507.44l5.33,3.66a1.43,1.43,0,0,0,1.34-.22l28.73,4.92s0.67,0.43,1.05-1.34,8.49-40.82,9.29-42.5c0.11-.69-9.53-0.67-9.53-0.67" transform="translate(-260.85 -459.73)"/><polyline class="cls-9" points="36.34 48.4 39.25 50.4 68.01 55.22 62.4 50.05"/><path class="cls-10" d="M310.2,463.81l0.11,6.17,20.91,1.41,1.74-4.33S326.75,458,310.2,463.81Z" transform="translate(-260.85 -459.73)"/><path class="cls-11" d="M307.22,459.76l8.31,2.61-0.37,6.78L339,470.7l-0.45-10.56S310.19,459.71,307.22,459.76Z" transform="translate(-260.85 -459.73)"/><polyline class="cls-12" points="69.91 10.77 72.97 10.19 73.06 10.88 73.72 10.68 73.63 11.25 74.43 11.47 75.15 11.06 75.06 11.67 76.14 11.98 77.17 13.08 68 55.18 62.37 52.84"/><path class="cls-13" d="M293.92,507.44a18.44,18.44,0,0,0,2.8.58,1.08,1.08,0,0,1,.47.11,13.36,13.36,0,0,0,1.86.64c0.75,0,25.42,4.68,25.72,4.5s8.2-44.74,8.2-44.74l-27.82,1-3.58-1.84" transform="translate(-260.85 -459.73)"/><g class="cls-14"><path class="cls-15" d="M310.8,469.3s-2.92,12.63-4.92,15.69l-2,3.07,0.12-6.18-3.69,3.37,3.87-12.89,4-3" transform="translate(-260.85 -459.73)"/><path class="cls-15" d="M303.79,488.37l0.12-6.29-3.77,3.45,4-13.23,4-3,0.11,0.15-4,2.94L300.5,485l3.6-3.29L304,487.75l1.83-2.8c2-3,4.87-15.54,4.9-15.67l0.18,0c0,0.13-2.94,12.68-4.93,15.72Z" transform="translate(-260.85 -459.73)"/></g><rect class="cls-16" x="283.32" y="489.57" width="36.83" height="0.72" transform="translate(-497.08 234.33) rotate(-79.15)"/><path class="cls-17" d="M309.67,469.17l-0.25-.62-4-.15-2.42-.56a24.23,24.23,0,0,1-1.19,10.46c-1.93,5.37-2.56,6.63-2.56,6.63l4.08-4.69-0.06,6.51A36.63,36.63,0,0,0,309.67,469.17Z" transform="translate(-260.85 -459.73)"/><path class="cls-18" d="M281.86,463.67l1.77-.3-0.52-.71,4.48-.88s5,10.73,5.91,11.59,5.07,5.74,5.07,5.74-0.34,1.79-3.22,2.35l-0.64-1.16-1.4.52-2.94-7.75S284.17,465.61,281.86,463.67Z" transform="translate(-260.85 -459.73)"/><path d="M338.24,490.52a19.56,19.56,0,0,1-5.85-2,0.45,0.45,0,0,1,.44-0.79c0.06,0,6.27,3.42,10.72,1.37a5.16,5.16,0,0,0,2.81-3c1.41-3.92-1.23-9.51-1.26-9.56a0.45,0.45,0,0,1,.81-0.39c0.12,0.24,2.83,6,1.29,10.26a6,6,0,0,1-3.29,3.53A9.94,9.94,0,0,1,338.24,490.52Z" transform="translate(-260.85 -459.73)"/><polyline class="cls-19" points="63.93 53.53 37.66 48.92 43.68 43 71.26 13.66 68 55.18"/><path class="cls-20" d="M314.36,481.25a3.35,3.35,0,0,0,3.87-.15l0.14-.12c1.52-1.33,3.44-1.75,4.71-.89s3.41,2.37,1.67,5.4-6.72,4.09-9.42,3.73-9.66-2.33-8-7.2C308.67,478.09,312.12,479.82,314.36,481.25Z" transform="translate(-260.85 -459.73)"/><path class="cls-20" d="M318.18,478.6a18.52,18.52,0,0,1,4.08-2.28S318.61,475.52,318.18,478.6Z" transform="translate(-260.85 -459.73)"/><path class="cls-20" d="M318.13,479l-0.13,0a0.36,0.36,0,0,1-.17-0.36,2.89,2.89,0,0,1,1.19-2.08,4.72,4.72,0,0,1,3.32-.51,0.36,0.36,0,0,1,0,.7,17.33,17.33,0,0,0-3.94,2.22A0.36,0.36,0,0,1,318.13,479Zm2.5-2.33a2.77,2.77,0,0,0-1.2.44,2,2,0,0,0-.59.65C319.34,477.38,320,477,320.63,476.62Z" transform="translate(-260.85 -459.73)"/><path class="cls-20" d="M313.71,478.48a18.52,18.52,0,0,0-3.95-2.5S313.44,475.38,313.71,478.48Z" transform="translate(-260.85 -459.73)"/><path class="cls-20" d="M313.65,478.83a0.36,0.36,0,0,1-.17-0.07,17.33,17.33,0,0,0-3.82-2.43,0.36,0.36,0,0,1,0-.7,4.72,4.72,0,0,1,3.29.68,2.89,2.89,0,0,1,1.08,2.14A0.36,0.36,0,0,1,313.65,478.83Zm-2.28-2.46c0.62,0.38,1.25.83,1.73,1.18a2,2,0,0,0-.55-0.68A2.78,2.78,0,0,0,311.37,476.37Z" transform="translate(-260.85 -459.73)"/><path class="cls-21" d="M322.64,478.33a0.27,0.27,0,0,1-.07-0.51l1.75-.84a0.27,0.27,0,1,1,.23.49l-1.75.84A0.27,0.27,0,0,1,322.64,478.33Z" transform="translate(-260.85 -459.73)"/><path class="cls-21" d="M324.39,479a0.27,0.27,0,0,1-.13-0.48l1.46-1.21a0.27,0.27,0,1,1,.34.42L324.6,479A0.27,0.27,0,0,1,324.39,479Z" transform="translate(-260.85 -459.73)"/><circle cx="290.92" cy="471.54" r="1.9" transform="translate(-480.76 226.35) rotate(-81.11)"/><circle cx="345.32" cy="476.09" r="1.9" transform="translate(-439.27 283.95) rotate(-81.11)"/><g class="cls-22"><rect class="cls-13" x="304.76" y="483.43" width="9.88" height="0.72" transform="translate(-476.99 255.27) rotate(-81.11)"/><rect class="cls-13" x="310" y="484.73" width="10.7" height="0.72" transform="translate(-473.49 261.95) rotate(-81.11)"/><rect class="cls-13" x="315.82" y="484.26" width="10.94" height="0.72" transform="translate(-468.01 267.41) rotate(-81.11)"/></g><polygon class="cls-23" points="48.57 8.82 43.29 19.73 43.06 8.31 44.57 8.66 48.57 8.82"/><circle class="cls-24" cx="291.32" cy="470.82" r="0.76" transform="translate(-479.72 226.14) rotate(-81.11)"/><circle class="cls-24" cx="345.44" cy="475.34" r="0.76" transform="translate(-438.43 283.43) rotate(-81.11)"/><path class="cls-25" d="M283.62,463.37s3.65-.32,4-1.59l-4.48.88" transform="translate(-260.85 -459.73)"/><polygon class="cls-25" points="29.77 13.68 33.86 20.57 32.46 21.09 29.77 13.68"/><path class="cls-26" d="M314.93,463.1l-0.43,5.42-3.62.25-0.07-4.57A7.35,7.35,0,0,1,314.93,463.1Z" transform="translate(-260.85 -459.73)"/><path class="cls-25" d="M290.38,473.07a1.7,1.7,0,0,0,1.82.79c1.06-.38.17-2.46,0.17-2.46" transform="translate(-260.85 -459.73)"/></g></g></svg>