<svg id="Layer_1" data-name="Layer 1" xmlns="http://www.w3.org/2000/svg" xmlns:xlink="http://www.w3.org/1999/xlink" viewBox="0 0 54.35 50"><defs><style>.cls-1{fill:url(#radial-gradient);}.cls-2{fill:url(#radial-gradient-2);}.cls-3{fill:#d82e2e;}.cls-4{fill:#b2222d;}</style><radialGradient id="radial-gradient" cx="360.91" cy="339.62" r="23.34" gradientTransform="matrix(0.98, 0.2, -0.2, 0.98, 87.1, -107.18)" gradientUnits="userSpaceOnUse"><stop offset="0" stop-color="#fd0"/><stop offset="1" stop-color="#f8971f"/></radialGradient><radialGradient id="radial-gradient-2" cx="360.91" cy="339.62" r="16.02" gradientTransform="translate(714.37 -64.54) rotate(90)" xlink:href="#radial-gradient"/></defs><title>sect3-ptrch</title><path class="cls-1" d="M397.93,293.64c0.13,1.08-4.69,2.36-4.73,3.46s4.66,2.74,4.44,3.83-5.2.83-5.57,1.84,3.57,4.07,3,5-5.19-.83-5.86,0,2.14,5,1.34,5.71-4.68-2.4-5.59-1.79,0.51,5.39-.48,5.84-3.71-3.72-4.76-3.42-1.17,5.28-2.27,5.41-2.36-4.69-3.46-4.73-2.74,4.66-3.83,4.44-0.83-5.2-1.84-5.57-4.07,3.57-5,3,0.83-5.19,0-5.86-5,2.14-5.71,1.34,2.4-4.68,1.79-5.58-5.39.51-5.85-.49,3.72-3.7,3.42-4.76-5.28-1.17-5.41-2.27,4.69-2.36,4.73-3.46-4.66-2.74-4.44-3.83,5.2-.83,5.57-1.84-3.57-4.07-3-5,5.19,0.83,5.86,0-2.14-5-1.34-5.71,4.68,2.4,5.59,1.79-0.51-5.39.48-5.85,3.71,3.72,4.76,3.42,1.17-5.28,2.27-5.41,2.36,4.69,3.46,4.73,2.74-4.66,3.83-4.44,0.83,5.2,1.84,5.57,4.07-3.57,5-3-0.83,5.19,0,5.86,5-2.14,5.71-1.34-2.4,4.68-1.79,5.59,5.39-.51,5.85.49-3.72,3.7-3.42,4.76S397.8,292.54,397.93,293.64Zm-7.47,5.87a16,16,0,1,0-18.85,12.59A16,16,0,0,0,390.46,299.5Z" transform="translate(-348.31 -269.94)"/><circle class="cls-2" cx="374.74" cy="296.38" r="16.03" transform="translate(-337.42 336.09) rotate(-78.74)"/><path class="cls-3" d="M364.7,286.35a9.22,9.22,0,0,1,2.38-2.52,13.23,13.23,0,0,1,11-1.92,20.55,20.55,0,0,0-7.58.78A14,14,0,0,0,364.7,286.35Z" transform="translate(-348.31 -269.94)"/><path class="cls-3" d="M368,285.75a5.55,5.55,0,0,1,3-2.24,7.84,7.84,0,0,1,1.12-.33,8.27,8.27,0,0,1,3.34,0,19.94,19.94,0,0,0-5.27,1.3A8.5,8.5,0,0,0,368,285.75Z" transform="translate(-348.31 -269.94)"/><path class="cls-3" d="M366,307.3a13.44,13.44,0,0,0,3.21,2.21,12.56,12.56,0,0,0,8.7.92,21.53,21.53,0,0,0,3.71-1.27A12.16,12.16,0,0,1,371,310.82,10.76,10.76,0,0,1,366,307.3Z" transform="translate(-348.31 -269.94)"/><path class="cls-3" d="M370,308.43a9.16,9.16,0,0,0,3,1l0.5,0.07a14.79,14.79,0,0,0,3.67-.21,6.05,6.05,0,0,1-6.24-.09A3.64,3.64,0,0,1,370,308.43Z" transform="translate(-348.31 -269.94)"/><path class="cls-3" d="M395.75,291.6c1.11,0,3.77.37,4.58,1.66a1.5,1.5,0,0,1,.23.61c0.08,1-.89,1.51-1.8,1.83a8.39,8.39,0,0,1-2.34.42c1.7-.57,3.58-1.25,3.57-2.14C399.87,292.75,397,291.95,395.75,291.6Z" transform="translate(-348.31 -269.94)"/><path class="cls-3" d="M401.14,292.35a2.09,2.09,0,0,1,1.4,1,1.13,1.13,0,0,1-.22,1.32,2,2,0,0,1-1.24.56,2.4,2.4,0,0,0,1-1.39A3.59,3.59,0,0,0,401.14,292.35Z" transform="translate(-348.31 -269.94)"/><path class="cls-3" d="M387.23,315a15.22,15.22,0,0,0,3.86,1.18c1.39,0.13,1.95-.45,2-1.83a14.07,14.07,0,0,0-.23-2.31c0,0.05.14,0.31,0.18,0.4,1.42,3.52-.23,5.31-3.74,3.78A9.63,9.63,0,0,1,387.23,315Z" transform="translate(-348.31 -269.94)"/><path class="cls-3" d="M391.89,317.8c0.79,0.13,1.68.39,2.11,0a3.21,3.21,0,0,0,.48-1.45,2.17,2.17,0,0,1,.22,1c-0.05,1.42-1.62,1.57-2.68.6A1.34,1.34,0,0,1,391.89,317.8Z" transform="translate(-348.31 -269.94)"/><path class="cls-3" d="M353.2,303.72c-0.93,1-2.21,2.27-2.2,3.11s2,1.22,3.17,1.47a5.74,5.74,0,0,1-2.65-.16,1.43,1.43,0,0,1-1.11-1.31C350.41,305.52,352.31,304.11,353.2,303.72Z" transform="translate(-348.31 -269.94)"/><path class="cls-3" d="M349.18,306.05a2.42,2.42,0,0,0-.23,1.67,3.61,3.61,0,0,0,1.35,1.07,1.77,1.77,0,0,1-1.88-.83,1.3,1.3,0,0,1,0-1.05,1.87,1.87,0,0,1,.59-0.76Z" transform="translate(-348.31 -269.94)"/><path class="cls-3" d="M362.9,277c-0.22-1.06-.11-3.56,1.19-4.28s3,0.84,3.85,2.07c-0.93-.66-2.55-2.13-3.57-1.56a2.17,2.17,0,0,0-.82,1.11A13.65,13.65,0,0,0,362.9,277Z" transform="translate(-348.31 -269.94)"/><path class="cls-3" d="M361.8,272.79a2.84,2.84,0,0,1,1.24-2.71c1-.44,2.06.3,2.67,1.26a6.44,6.44,0,0,0-1.7-.8,1.37,1.37,0,0,0-.22,0c-0.87,0-1.34.77-1.89,2Z" transform="translate(-348.31 -269.94)"/><path class="cls-3" d="M371.56,312.38a16.33,16.33,0,1,1,12.25-2.43A16.26,16.26,0,0,1,371.56,312.38Zm6.26-31.43a15.73,15.73,0,1,0,12.36,18.5A15.75,15.75,0,0,0,377.82,280.94Z" transform="translate(-348.31 -269.94)"/><path class="cls-4" d="M370.11,319.64c-0.82-.16-1-1.54-1.27-3.14-0.09-.61-0.19-1.25-0.31-1.72a1.18,1.18,0,0,0-.32-0.72h0a1.32,1.32,0,0,0-.77.37c-0.41.29-.89,0.7-1.35,1.11-1.09.95-2,1.76-2.72,1.63h0a0.76,0.76,0,0,1-.22-0.08c-0.72-.41-0.49-1.77-0.23-3.36,0.1-.62.21-1.26,0.24-1.76a1.14,1.14,0,0,0-.09-0.78l0,0a7,7,0,0,0-2.41.76,6.2,6.2,0,0,1-2.84.8h0a0.82,0.82,0,0,1-.45-0.24c-0.56-.61.05-1.77,0.82-3.25,0.29-.56.59-1.14,0.78-1.61a1.12,1.12,0,0,0,.16-0.77,0.47,0.47,0,0,0-.27-0.1,10.12,10.12,0,0,0-2.29.05,10.23,10.23,0,0,1-2.51,0,1,1,0,0,1-.81-0.53c-0.5-1.09,1.84-2.68,3-4.13a1.15,1.15,0,0,0,.39-0.69,1.16,1.16,0,0,0-.69-0.38c-0.47-.17-1.1-0.31-1.71-0.45-1.57-.36-2.92-0.67-3-1.5-0.14-1.19,2.57-2,4.14-3a1.14,1.14,0,0,0,.59-0.54,1.19,1.19,0,0,0-.54-0.57c-0.4-.3-0.94-0.63-1.47-0.95-1.38-.83-2.58-1.55-2.42-2.37,0.24-1.18,3.09-1.11,4.87-1.58a1.19,1.19,0,0,0,.72-0.32,1.14,1.14,0,0,0-.33-0.73,17.75,17.75,0,0,0-1.14-1.4c-1.09-1.25-1.94-2.23-1.54-2.94,0.59-1,3.29-.09,5.12,0a1.16,1.16,0,0,0,.78-0.09,1.15,1.15,0,0,0-.09-0.79,17.55,17.55,0,0,0-.65-1.67c-0.65-1.53-1.16-2.74-.56-3.29a1,1,0,0,1,1-.18c1.21,0.24,3.33,1.71,4.39,1.92a0.49,0.49,0,0,0,.29,0,1.13,1.13,0,0,0,.15-0.77c0-.5,0-1.16-0.1-1.78-0.15-1.66-.26-3,0.49-3.32a0.82,0.82,0,0,1,.51-0.05,6.2,6.2,0,0,1,2.32,1.83,7,7,0,0,0,1.94,1.62h0.05a1.16,1.16,0,0,0,.38-0.69c0.16-.47.31-1.1,0.45-1.71,0.32-1.37.68-3.22,1.73-3s1.81,2.65,2.71,4.08a1.32,1.32,0,0,0,.57.63h0a1.18,1.18,0,0,0,.57-0.54c0.3-.39.63-0.94,0.95-1.47,0.83-1.38,1.55-2.58,2.37-2.42,1.18,0.24,1.11,3.09,1.58,4.87a1.18,1.18,0,0,0,.32.72h0a1.77,1.77,0,0,0,.77-0.37c1.52-1.07,3.27-3.22,4.29-2.65,0.72,0.41.49,1.77,0.23,3.36-0.1.62-.21,1.26-0.24,1.76a1.16,1.16,0,0,0,.09.78l0.05,0a7,7,0,0,0,2.41-.76,6.21,6.21,0,0,1,2.84-.8,0.82,0.82,0,0,1,.45.24c0.82,0.88-.92,3.12-1.6,4.86a1.14,1.14,0,0,0-.16.77,0.48,0.48,0,0,0,.27.1A10.12,10.12,0,0,0,393,286c1.62-.14,3-0.26,3.32.49,0.5,1.09-1.84,2.68-3,4.13a1.14,1.14,0,0,0-.39.69,1.16,1.16,0,0,0,.69.38,17.66,17.66,0,0,0,1.71.45c1.57,0.36,2.92.67,3,1.5,0.14,1.18-2.57,2-4.14,3a1.14,1.14,0,0,0-.59.54,1.19,1.19,0,0,0,.54.57c0.39,0.3.94,0.63,1.47,0.95,1.38,0.83,2.58,1.55,2.42,2.37s-1.54,1-3.14,1.27c-0.61.09-1.25,0.19-1.72,0.31a1.18,1.18,0,0,0-.72.32,1.14,1.14,0,0,0,.33.73,17.89,17.89,0,0,0,1.14,1.4c1.09,1.25,1.94,2.23,1.55,2.94s-1.77.49-3.36,0.23c-0.62-.1-1.26-0.21-1.76-0.24a1.16,1.16,0,0,0-.78.09,1.14,1.14,0,0,0,.09.79,17.91,17.91,0,0,0,.65,1.68c0.65,1.53,1.16,2.74.56,3.29a1,1,0,0,1-1,.18,10.23,10.23,0,0,1-2.3-1,10.13,10.13,0,0,0-2.09-.93,0.48,0.48,0,0,0-.29,0,1.14,1.14,0,0,0-.15.77,17.58,17.58,0,0,0,.1,1.78c0.15,1.66.26,3-.49,3.32a0.82,0.82,0,0,1-.51.05,6.21,6.21,0,0,1-2.32-1.83,6.94,6.94,0,0,0-1.93-1.62h-0.05a1.16,1.16,0,0,0-.38.69c-0.17.47-.31,1.1-0.45,1.71-0.36,1.57-.67,2.92-1.5,3a0.77,0.77,0,0,1-.24,0c-0.7-.14-1.25-1.25-1.89-2.54-0.27-.55-0.56-1.12-0.82-1.54a1.32,1.32,0,0,0-.57-0.63h0a1.19,1.19,0,0,0-.57.54c-0.3.39-.63,0.94-0.95,1.47C371.65,318.61,370.93,319.8,370.11,319.64Zm-1.75-6.33,0.12,0c0.67,0.25.86,1.32,1.12,3a17.47,17.47,0,0,0,.33,1.81,0.48,0.48,0,1,0,.91.18,17.26,17.26,0,0,0,1-1.54c0.91-1.52,1.54-2.52,2.32-2.37s1.27,1.27,1.92,2.58c0.27,0.54.55,1.1,0.81,1.52a1.29,1.29,0,0,0,.55.62h0a1.15,1.15,0,0,0,.38-0.68,17.47,17.47,0,0,0,.46-1.75c0.39-1.69.71-3.18,1.77-3a6.35,6.35,0,0,1,2.33,1.83,6.94,6.94,0,0,0,1.92,1.61h0.05a1.16,1.16,0,0,0,.15-0.77c0-.51,0-1.16-0.1-1.79-0.15-1.76-.22-2.85.38-3.25a1.1,1.1,0,0,1,.86-0.11,10.21,10.21,0,0,1,2.3,1,10.12,10.12,0,0,0,2.1.93,0.48,0.48,0,0,0,.29,0h0a1.17,1.17,0,0,0-.1-0.78,17.66,17.66,0,0,0-.64-1.66c-0.69-1.63-1.09-2.65-.64-3.23s1.53-.42,3.26-0.12a17.35,17.35,0,0,0,1.79.24,1.2,1.2,0,0,0,.78-0.09,1.23,1.23,0,0,0-.34-0.71c-0.29-.41-0.71-0.9-1.12-1.37-1-1.16-1.88-2.16-1.61-2.88s1.32-.86,3-1.12a17,17,0,0,0,1.81-.33,0.48,0.48,0,1,0,.18-0.91c-1.4-1.09-4-2.08-3.93-3.2s2.67-1.93,4.15-2.88a1.23,1.23,0,0,0,.58-0.53,1.2,1.2,0,0,0-.68-0.38c-1.67-.59-4.41-0.75-4.71-1.82s1.93-2.64,3.05-4a1.16,1.16,0,0,0,.39-0.69,0.53,0.53,0,0,0-.27-0.1c-1.06-.21-3.59.34-4.79,0.1a1.1,1.1,0,0,1-.75-0.43c-0.63-.94,1-3.1,1.67-4.77a1.14,1.14,0,0,0,.16-0.77h0a7,7,0,0,0-2.4.75c-1.49.63-2.63,1.1-3.22,0.64-0.88-.7,0-3.28.12-5.05a1.2,1.2,0,0,0-.09-0.78c-0.38-.06-1.78,1.2-2.08,1.45-1.1,1-2.05,1.79-2.77,1.65s-1-1.32-1.24-3.07a17.32,17.32,0,0,0-.33-1.81,0.48,0.48,0,1,0-.91-0.18c-1.13,1.46-2.14,4.15-3.32,3.91s-1.83-2.67-2.73-4.1a1.3,1.3,0,0,0-.55-0.62h0a1.15,1.15,0,0,0-.38.68,17.8,17.8,0,0,0-.46,1.75c-0.39,1.71-.72,3.18-1.77,3a6.35,6.35,0,0,1-2.33-1.84,6.94,6.94,0,0,0-1.92-1.61h0a1.15,1.15,0,0,0-.15.77c0,1.78.65,4.42-.28,5-0.62.42-1.72-.14-3.15-0.89a10.14,10.14,0,0,0-2.1-.93,0.49,0.49,0,0,0-.29,0h0a1.2,1.2,0,0,0,.1.78,17.51,17.51,0,0,0,.64,1.66c0.69,1.63,1.09,2.65.64,3.23s-1.53.41-3.26,0.12a17.32,17.32,0,0,0-1.79-.24,1.2,1.2,0,0,0-.78.09,1.24,1.24,0,0,0,.34.71c1,1.44,3.12,3.19,2.73,4.25-0.25.67-1.32,0.86-3,1.12a17,17,0,0,0-1.81.33,0.48,0.48,0,1,0-.18.91,17,17,0,0,0,1.54,1c1.49,0.9,2.41,1.49,2.38,2.2s-1.22,1.36-2.6,2c-0.56.28-1.14,0.56-1.56,0.83a1.24,1.24,0,0,0-.58.53,1.21,1.21,0,0,0,.69.38,17.31,17.31,0,0,0,1.75.46c1.71,0.39,2.77.67,3,1.36s-0.56,1.5-1.82,2.73a17.75,17.75,0,0,0-1.23,1.29,1.16,1.16,0,0,0-.39.69h0a0.52,0.52,0,0,0,.27.1c1.06,0.21,3.59-.34,4.8-0.1a1.11,1.11,0,0,1,.75.43c0.4,0.6-.08,1.59-0.89,3.15a17.45,17.45,0,0,0-.78,1.62,1.14,1.14,0,0,0-.16.77h0a6.93,6.93,0,0,0,2.4-.75c1.49-.63,2.64-1.1,3.23-0.64s0.41,1.53.12,3.26a17.79,17.79,0,0,0-.24,1.79,1.2,1.2,0,0,0,.09.78,1.32,1.32,0,0,0,.74-0.36c0.4-.28.87-0.69,1.33-1.09C366.69,314,367.65,313.17,368.36,313.31Z" transform="translate(-348.31 -269.94)"/></svg>