<svg xmlns="http://www.w3.org/2000/svg" viewBox="0 0 300 48.39"><defs><style>.cls-1{fill:#750910;}.cls-2{fill:#9e281c;}</style></defs><title>Asset 3</title><g id="Layer_2" data-name="Layer 2"><g id="Layer_5" data-name="Layer 5"><path class="cls-1" d="M248.76,30.47c-14.34-10.43-23-10.26-39.51.74-14.72,9.83-20.38,9.65-36-1.1-14.09-9.7-22.59-9.62-37.29.37-14.88,10.11-23.28,10.11-37.21,0-14.34-10.43-23-10.26-39.51.74-14.72,9.83-20.38,9.65-36-1.1-9-6.2-15.74-8.38-23.26-6.56v10c7.52-1.82,14.25.36,23.26,6.56,15.61,10.75,21.27,10.93,36,1.1,16.48-11,25.17-11.17,39.51-.74,13.93,10.12,22.33,10.12,37.21,0,14.7-10,23.2-10.07,37.29-.37,15.61,10.75,21.27,10.93,36,1.1,16.48-11,25.17-11.17,39.51-.74,13.93,10.12,22.33,10.12,37.21,0,5.3-3.6,9.79-5.89,14-6.93v-10c-4.24,1-8.73,3.33-14,6.93C271.09,40.59,262.69,40.59,248.76,30.47Z"/><path class="cls-2" d="M267,15c-8.55.06-11.42-1-19.79-7.42C240.58,2.44,235.47-.07,230.08,0S219,2.75,211.23,8C195.61,18.64,188.94,18.64,173,8c-15.33-10.21-21.28-10.31-35.3-.58-8.78,6.09-12.49,7.43-20.7,7.5-8.55.06-11.43-1-19.79-7.43C84-2.64,76.79-2.54,61.23,8S38.94,18.64,23,8C12.94,1.33,6.91-1,0,.94V6.55c7.52-1.82,14.25.36,23.26,6.56,15.61,10.75,21.27,10.93,36,1.1C75.73,3.21,84.42,3,98.76,13.47c13.93,10.12,22.33,10.12,37.21,0,14.7-10,23.2-10.07,37.29-.37,15.61,10.75,21.27,10.93,36,1.1,16.48-11,25.17-11.17,39.51-.74,13.93,10.12,22.33,10.12,37.21,0,5.3-3.6,9.79-5.89,14-6.93V.94c-3.62,1-7.48,3.16-12.3,6.5C278.92,13.53,275.21,14.88,267,15Z"/></g></g></svg>