<svg xmlns="http://www.w3.org/2000/svg" viewBox="0 0 456.2 617.08"><title>mask_map_inner</title><g id="Layer_2" data-name="Layer 2"><g id="Layer_2-2" data-name="Layer 2"><path d="M452.13,601.73c-.42-1.32-1.94-.52-2.95,0,4.12-3.72-2.28-3.39-2.93-5.35l5.94-5.44c-1.86-2.09-3.67-.37-4.89-.49-1.46-10,4.21-19.85.43-27.84,2.11-2.64,4.9.48,5.57-2.94-6.15,4.78-3.19-9.82-7.53-6.76,6.57-3.47,1.12-12.27,10.4-11,.45-4.09-4-3.26-4.81-2.07a29.09,29.09,0,0,0-.2-6.48,5.39,5.39,0,0,0-.88-2.4,5.28,5.28,0,0,0-1.74-1.5c1-.94.31-4.12-.58-7.15s-2.22-5.87-.83-10.34c-2,5.8-1.76,2.2-4,3.53,0,0-.39,1.28-.83,2.5s-1,2.42-1,2.42-.34-.48-.72-.93l-.78-.89c-.57.19-.58-.07-.41-.49-.25-.46,1.25-2.64.67-4.53a3.11,3.11,0,0,0-3.44-.59c-1.05.45-2,1.37-3.65,1.74,0,0,.36,1.2.34,1.18s-.73-.41-1.52-.9-1.54-1-1.54-1c-1-1,1.38-.43,3.23-.94a2.31,2.31,0,0,0,1.84-1.6c.25-.82-.09-2-1.34-3.86a5.52,5.52,0,0,1-3.85,1.72c-1.77.1-3.54-.76-3.35-3.2,2.89,3.76,4.18.07,3.83-2.18a7.13,7.13,0,0,1-.58-.72l-1.21-1.67a26.27,26.27,0,0,1-1.67-2.53s-.63,1.58-1.22,3.22-1.12,3.31-1.12,3.31A50.67,50.67,0,0,1,418,492a75.19,75.19,0,0,1-3.19-14.47c-1.21-9.56-1.11-18.53-1.19-27.44,2.2.17,2.3-2.87,2.75-5.56s1.19-5.14,4.38-3.95l-.66.51c.41,3.9,5.15-.43,4.68-3.48-2.32,2.9-6-6.94-7.59.85l-2.53-6.73c-12.08-6,2.75-15.84-.89-24.11a2.88,2.88,0,0,0,1.5.94c-1.79-3.74-.89-7.18.11-10.17s2-5.66,1-6.26l3.34-1.15c-1.36-1.28-2.55-2.16-3.45-2.94a7.33,7.33,0,0,1-1.86-2.2,5.55,5.55,0,0,1-.51-2.71,40.77,40.77,0,0,1,.12-4.31c.54-.14,1.67.25,2.1-1.1-2.82-.64-5.41-1-6.17-5.56l1.05-.39-1.3-3.24-1.54-3.17c2.34-1.59,2.87-2.89,2.49-4.09s-1.66-2.26-3-3.3-2.68-2.16-3.14-3.64-.16-3.35,2-6c-3.21,1-6.44-3.06-8.84-3.92a1.78,1.78,0,0,1-2,.5,1.49,1.49,0,0,1,2-.5,3.85,3.85,0,0,0,.84-1.65c-5.77,2.24-2.78-8.58-5-10.85-2.14-.6-3,1.76-3.91,4.09,1.19-7.44-9.82-5.07-9.27-8-1.35-2.92,2.36-4.61,3.62-7.43-3.28-2.89-6.54,9.35-6.91.41.73.17,1.75.93,1.92-.06-.67-2.76,5.82-17.36,2.7-17.11l-.5,3c-4.44-1.13.5-16.41-5.11-10.51l-2.19,3.36c-1-10.35-2.78-1.46-4.2-11.47l.46-.41c-2.33-2.32-.22-7.44-5.12-4.24l.09,1.66c-2.59-3.33-2.49-4-4.6-8-.67,0-2.43-1.33-1.88-2.84-1.78,1.74-3.59-.32-5-3.36a39.94,39.94,0,0,1-2-5.39c-.52-1.73-.83-3.18-1-3.87,2.39,4.3,3.17.82,4.35-1.3-4.21-.4-5.36-2.65-3.79-7.25-2.72.62-5.58,1.22-8,.38s-4.55-3.22-5.1-8.34c.94,1.53,1.67,3.83,2.69,2.69s-.43-3.17-.87-3.95c1.06-1,2.15,2,4,.79-2.81-2.86-3-5.88-2.42-8.9.28-1.53.67-3.11,1-4.87A25.05,25.05,0,0,0,343,225c1.07,3.42,2.53,1.31,4.6,1.25-2.9-1.52-.84-3.89.93-5.42s3.32-2.54-.88-3.56c2.55-3.11,5.16-6.37,7.74-9.66,2.87-3.59,4.85-5.83,6.91-8.14,4.06-4.43,7.31-7.46,10.16-6,2.12,1.68,1.53-4.14,2.45-5.39l1.63,3c-.14-4.27,0-5.33.26-6.51s.55-2.45,0-6.55c1.33,4.5,2.79,5.52,5.83,6.18,0,0-.58-2-1.24-3.93s-1.48-3.74-1.48-3.74l1.82,1.53,1.84,1.5c-.67-2.47.43-3.22,1.64-4.14-3.4-4.48-1.47-8.55-3.7-10.8,2.87.85,2.8-.38,2.64-1.49s-.37-2.14,2.31-1.64a11.27,11.27,0,0,1-1.52-2.68c-2.58-.2-5.31-1.06-3.87-1.86,0-.14,0-.22,0-.35l-3-.59c-3-.94,1.12-1.17,3.92-2.15.58-.47,1.27-.86,1.88-1.28A1.6,1.6,0,0,1,384,152a.56.56,0,0,1,.11.36c.91-.67,1.4-1.59.45-3.2,2.86-2.12,1.42-5.76.17-9.25s-2.34-7.08,1.3-10.13c-.76.95-1.14,2.35,0,2.87,0-5.62,4.93-11.19,2.56-15.2l-3.1,0c-1.23-4.51-2.08-8-1.73-11.49l-3.49-.53c1.49-5-3.68-16.54,3.65-19-2.73-1.52,1.12-7,.31-10l2.71-.48a12.06,12.06,0,0,0,0-6.72l-1.22.42,1.05-1c-.11-.4-.23-.79-.34-1.18a11.09,11.09,0,0,1-.75,1c-2-2.14-1.12-4.08.23-5.72a11.51,11.51,0,0,1,2-4.77c1.26.44,1.17,1.1.56,1.93.27-.27.54-.55.79-.82-.08-4.51-1.89-9-1.48-13.13l.78,0-1.64-7c2.35,2-1.61-1.5-.86-3.49-1.21-2.3-.37-5.76,1.47-8.16l.32-4.34c.91,2.84,2,2.47,3.39,1.63-.3.1-.6.22-.87.32,4.08-2.56-2.31-1.91-3-3.06l1-.65c-1.49-1.06-3.57-4.19-1.39-3.24-1.17.49,3.15.51,2.38,1.51a7.22,7.22,0,0,1,.21,1l3.65-2.35c-1.88-1.16-3.67,0-4.88,0a11.48,11.48,0,0,1,0-4.95,5.62,5.62,0,0,1-.55.92,6.77,6.77,0,0,0-.41,2.36c0-1-.05-1.64-.08-2.07-.32-.27-.13-1.5,0,0,.1.08.27,0,.49-.29a6,6,0,0,1,.58-1.09c.07-.39.15-.77.23-1.16a4.79,4.79,0,0,0-.93-.66c-.1.37-.19.77-.34,1.27-.47-1.37-.15-1.5.34-1.27.83-3.39-.49-2.25-1.89-2.26,3.13-2.17,3-4,4-5.6a6.06,6.06,0,0,0-1.2-2.64A3.38,3.38,0,0,1,389.83,0l-2,.06a2.71,2.71,0,0,0-.67,2.13l-.47-2.1L0,11.63,16.05,617.08l435.55-13C451.76,603.3,451.91,602.51,452.13,601.73Z"/></g></g></svg>