<svg xmlns="http://www.w3.org/2000/svg" viewBox="0 0 62.64 63.33"><defs><style>.cls-1{isolation:isolate;}.cls-2{opacity:0.71;mix-blend-mode:multiply;}.cls-3{fill:#23471b;fill-rule:evenodd;}</style></defs><title>toggle0</title><g class="cls-1"><g id="Layer_2" data-name="Layer 2"><g id="Layer_2-2" data-name="Layer 2"><g class="cls-2"><path class="cls-3" d="M29.92.11a3.8,3.8,0,0,0-1.61.1.94.94,0,0,1-.41,0,1.17,1.17,0,0,0-1.07.13.65.65,0,0,1-.34.1,7.31,7.31,0,0,1-.8,0c-.52.06-1,.15-1.54.25a3.49,3.49,0,0,0-1.07.33,4.92,4.92,0,0,1-1,.4,3,3,0,0,0-1,.35c-.23.16-.53.17-.77.33a1.71,1.71,0,0,1-.61.25,3.22,3.22,0,0,0-.69.28,9.24,9.24,0,0,1-1.67.82.34.34,0,0,0-.15.09,8,8,0,0,1-1.3.83c-.49.22-.94.54-1.41.79a1.41,1.41,0,0,0-.76.66.67.67,0,0,1-.26.24c-.39.26-.82.44-1.21.71a.83.83,0,0,0-.26.23,1.7,1.7,0,0,1-.62.57,2.54,2.54,0,0,0-.69.53,5.13,5.13,0,0,1-.93,1,3.09,3.09,0,0,0-.66.64,5,5,0,0,1-.73.85c-.07.07-.12.15-.18.22-.38.46-.67,1-1.1,1.43a3.48,3.48,0,0,0-.67.76c-.13.23-.22.47-.33.7s-.22.52-.53.62a.26.26,0,0,0-.17.17c-.11.37-.4.63-.54,1-.29.76-.82,1.39-1.15,2.14a10.24,10.24,0,0,0-.86,1.91,1,1,0,0,1-.21.41.72.72,0,0,0-.17.49.55.55,0,0,1-.14.39,4.27,4.27,0,0,0-.87,2.45,2.83,2.83,0,0,1-.17.71,2,2,0,0,0-.23.77,6,6,0,0,1-.27,1.74,11.24,11.24,0,0,0-.18,1.14,1.41,1.41,0,0,1-.14.58,4.41,4.41,0,0,0-.3,1.29c0,.21,0,.45,0,.67a1,1,0,0,0,0,.52.83.83,0,0,1,0,.62,1.34,1.34,0,0,0-.08.76,1.83,1.83,0,0,1,0,.84,2,2,0,0,0,0,.59l.12,1.13a7,7,0,0,0,.22,1.57,6.43,6.43,0,0,1,.22.89A1.83,1.83,0,0,0,.83,38a.42.42,0,0,1,.05.2,5.25,5.25,0,0,0,.34,1.51,4.51,4.51,0,0,1,.37,1.54,1.18,1.18,0,0,0,.1.4c.12.31.23.62.36.93.21.52.3,1.09.51,1.61.13.33.28.65.4,1A10.41,10.41,0,0,0,3.83,47a5.16,5.16,0,0,1,.39.78,4.08,4.08,0,0,0,.58,1,6.44,6.44,0,0,1,.68.9,7.19,7.19,0,0,0,1,1.51c.25.28.47.59.7.88s.5.62.78.91a8,8,0,0,1,.87,1,2,2,0,0,0,.5.5c.37.25.69.56,1,.84a5.58,5.58,0,0,0,.67.61c.14.09.29.16.42.26A12.64,12.64,0,0,0,13,57.34c.72.46,1.42,1,2.13,1.44a28.11,28.11,0,0,0,3.09,1.7,20.91,20.91,0,0,0,2,.88,27.05,27.05,0,0,0,3.17,1c.81.22,1.64.38,2.48.52a17.76,17.76,0,0,0,2.06.22,5.61,5.61,0,0,1,1.09.06,2,2,0,0,0,1,.05.67.67,0,0,1,.28,0,4,4,0,0,0,1.68.06.53.53,0,0,1,.28,0,.92.92,0,0,0,.52,0h.49a3.09,3.09,0,0,0,1-.15,1,1,0,0,1,.64-.15,3.09,3.09,0,0,0,.91,0,3.11,3.11,0,0,0,1-.12,8,8,0,0,1,1.65-.35c.39-.07.78-.14,1.16-.23a2.54,2.54,0,0,0,.62-.14,2.17,2.17,0,0,1,.86-.27.63.63,0,0,0,.3-.1c.23-.18.6,0,.78-.34h.1c.38,0,.65-.27,1-.33l0,0c0-.18.1-.17.25-.12a.53.53,0,0,0,.37-.07,3.65,3.65,0,0,1,.68-.35c.11,0,.1-.15.08-.25s-.11-.1-.19-.1a2.49,2.49,0,0,1-.67,0,.32.32,0,0,0-.25.1c-.23.22-.23.21-.62.32,0,0-.12,0-.14.1-.08.22-.24.16-.4.13s-.44-.1-.57.07-.42.24-.63.36a.45.45,0,0,1-.51,0,.62.62,0,0,0-.48,0,2.73,2.73,0,0,1-1,.25,1.34,1.34,0,0,0-.54.16,2.28,2.28,0,0,0-.3.17c-.12.1-.22-.08-.36,0s-.28,0-.38.15a.16.16,0,0,1-.21.06c-.16-.07-.25,0-.28.16s-.1.2-.25.15a1.47,1.47,0,0,0-1.17.11.17.17,0,0,1-.17,0,.78.78,0,0,0-.67-.18.67.67,0,0,0-.24,0,1.88,1.88,0,0,1-.93.14,9.7,9.7,0,0,0-1.32,0,9.85,9.85,0,0,0-1.33,0c-.22,0-.38.19-.57.21s-.34-.29-.55-.25a4.8,4.8,0,0,0-1.16-.13c-.51,0-1-.18-1.49-.14a.23.23,0,0,1-.11,0,7.25,7.25,0,0,0-1.53-.36,12.14,12.14,0,0,0-1.19-.29c-.54-.08-1-.36-1.54-.49a4.53,4.53,0,0,1-.94-.26c-.33-.16-.66-.32-1-.46a23.43,23.43,0,0,1-3.08-1.46l-.13-.06c-.22-.11-.44-.22-.65-.35s-.42-.39-.66-.38-.39-.23-.56-.38l0,0a14.92,14.92,0,0,1-1.36-.87c-.47-.38-1-.71-1.43-1.12s-1-.82-1.42-1.26c-.21-.2-.39-.44-.62-.62a14.44,14.44,0,0,1-1.5-1.53c-.18-.2-.28-.47-.59-.54a.14.14,0,0,1-.07-.08,1.21,1.21,0,0,0-.31-.46c-.34-.45-.67-.91-1-1.32a.87.87,0,0,1-.15-.24,4.43,4.43,0,0,0-.68-1,1.9,1.9,0,0,1-.39-.55c-.21-.4-.42-.81-.62-1.23S5.21,46,5,45.62a2.92,2.92,0,0,1-.46-1.24A.68.68,0,0,0,4.38,44a1.48,1.48,0,0,1-.32-.71,4.14,4.14,0,0,0-.15-.68c-.05-.19-.15-.36-.21-.56-.23-.81-.43-1.63-.62-2.45a.41.41,0,0,0-.1-.22.31.31,0,0,1,0-.47,1,1,0,0,0,.19-.77,3.64,3.64,0,0,0-.34-1.78.52.52,0,0,1,0-.47.54.54,0,0,0,0-.25,7.62,7.62,0,0,0-.27-1.7,3.93,3.93,0,0,1-.19-.75c-.06-.78,0-1.57-.12-2.35a.51.51,0,0,1,0-.21,1.08,1.08,0,0,0,0-.59c-.09-.43,0-.85,0-1.27a.59.59,0,0,1,0-.14,2.83,2.83,0,0,0,.15-1.35.8.8,0,0,1,0-.31,5.2,5.2,0,0,0,.21-.82c0-.38.13-.75.17-1.12a.53.53,0,0,1,.08-.27,2.75,2.75,0,0,0,.43-1.1,9.62,9.62,0,0,1,.37-1.4A2.57,2.57,0,0,0,4,21.65a1.71,1.71,0,0,1,.49-1,1.63,1.63,0,0,0,.54-1,.56.56,0,0,1,.08-.2c.33-.67.71-1.32,1.08-2a1.69,1.69,0,0,0,.21-.45,1,1,0,0,1,.51-.68.71.71,0,0,0,.29-.25c.19-.27.36-.55.55-.82s.35-.61.75-.65a.29.29,0,0,0,.15-.09A5.08,5.08,0,0,0,9.19,14a5.37,5.37,0,0,1,.88-1,5.9,5.9,0,0,0,.51-.49c.22-.29.54-.49.76-.77s.43-.62.65-.93a6.39,6.39,0,0,1,1.15-1.45,6.4,6.4,0,0,1,.91-.63,1.08,1.08,0,0,0,.42-.37,6.55,6.55,0,0,1,1-1,.64.64,0,0,1,.22-.1,5.91,5.91,0,0,0,.86-.47A5.43,5.43,0,0,1,17.9,6a.75.75,0,0,0,.32-.21.83.83,0,0,1,.3-.18,4.37,4.37,0,0,1,.7-.22,4.28,4.28,0,0,1,2.19,0l.25,0a4.64,4.64,0,0,0,1.82,0,.48.48,0,0,1,.17,0,5,5,0,0,0,1.73-.48c.36-.16.68-.43,1-.63.55-.3,1-.72,1.56-1a11.49,11.49,0,0,1,1.83-1,4.54,4.54,0,0,1,1.09-.15.76.76,0,0,1,.42,0A2.44,2.44,0,0,0,33,2.27a3.08,3.08,0,0,1,1.51.12,9.58,9.58,0,0,0,1.19.35c.74.08,1.5.09,2.25.12a3.29,3.29,0,0,1,1.24.2,1,1,0,0,0,.34.07,3.6,3.6,0,0,1,.86.21,8.18,8.18,0,0,0,1.28.38A3.58,3.58,0,0,1,43,4.18a.84.84,0,0,0,.3.11c.2.07.43,0,.59.2a6.56,6.56,0,0,0,1.39.83,1.06,1.06,0,0,0,.3.1,5.58,5.58,0,0,1,.91.26.47.47,0,0,1,.33.23.38.38,0,0,0,.45.2c.08,0,.18,0,.24,0s.3.16.41.32a.72.72,0,0,0,.41.25,1.67,1.67,0,0,1,.86.52,1.51,1.51,0,0,1,.36.47c.29,0,.32.33.49.49a.83.83,0,0,0,.28.21,1.82,1.82,0,0,1,.41.27,1.67,1.67,0,0,0,.39.23,3.13,3.13,0,0,1,1.32,1,9.07,9.07,0,0,0,.93.93.85.85,0,0,1,.23.27.48.48,0,0,0,.12.17,6.85,6.85,0,0,1,1,1.2,3,3,0,0,0,.74.88,3.64,3.64,0,0,1,.5.54c.3.37.41.88.85,1.15.05,0,.05.13.09.19.17.24.21.55.36.8s.29.74.64,1c0,0,0,.06,0,.09a9.17,9.17,0,0,0,.48.87c.32.47.39,1.08.78,1.52,0,0,0,0,0,0,.16.43.3.86.49,1.28a7.9,7.9,0,0,1,.44,1c0,.14,0,.31.14.43a1.38,1.38,0,0,1,.26.64c0,.2.08.4.14.58.2.64.39,1.28.54,1.93s.16,1,.3,1.52a10.09,10.09,0,0,1,.18,1.1A4,4,0,0,0,62,29.52a.74.74,0,0,1,0,.65.89.89,0,0,0,.1,1,.37.37,0,0,1,.07.27,1.32,1.32,0,0,0,0,.28c0,.05,0,.12.11.1s.07-.06.08-.11a3.06,3.06,0,0,1,.24-1,.13.13,0,0,0,0-.1.31.31,0,0,1,0-.42c.05-.06,0-.13,0-.2a2.9,2.9,0,0,1-.06-.89,1.52,1.52,0,0,0,0-.79,8.38,8.38,0,0,1-.13-.83,4.6,4.6,0,0,1-.1-.84,1.81,1.81,0,0,0,0-.8.84.84,0,0,1-.08-.54.3.3,0,0,0,0-.21,3.25,3.25,0,0,1-.17-.93,2.6,2.6,0,0,0-.16-.71,1,1,0,0,1-.19-.83.21.21,0,0,0,0-.13,16.3,16.3,0,0,0-.75-1.9.48.48,0,0,1,0-.2,3.54,3.54,0,0,0-.4-1.41c-.21-.48-.38-1-.63-1.45a11.72,11.72,0,0,1-.68-1.43,2.77,2.77,0,0,0-.41-.78,13.83,13.83,0,0,1-.88-1.28,1.11,1.11,0,0,1-.15-.31A3.33,3.33,0,0,0,57,12.56a2.17,2.17,0,0,1-.31-.42,3.33,3.33,0,0,0-.56-.84c-.25-.25-.47-.53-.7-.79s-.18-.39-.31-.5c-.39-.36-.61-.88-1.11-1.11,0,0-.12-.06-.14-.11-.13-.32-.44-.48-.67-.7l-1-1c-.1-.1-.2-.25-.32-.28a1.48,1.48,0,0,1-.65-.44c-.05,0-.09-.1-.14-.11a.71.71,0,0,1-.48-.38A2.56,2.56,0,0,0,50,5.31c-.28-.23-.62-.36-.9-.59A4.52,4.52,0,0,0,47.67,4a3.47,3.47,0,0,1-1-.57A2,2,0,0,0,45.74,3a1.48,1.48,0,0,1-.46-.16,11.34,11.34,0,0,0-2-1l-.09,0a2.09,2.09,0,0,0-1.07-.32.39.39,0,0,1-.27-.1,1.83,1.83,0,0,0-.28-.14A9.74,9.74,0,0,0,39.75.85Q39,.72,38.31.52a2.3,2.3,0,0,0-1-.11.56.56,0,0,1-.31,0A4.52,4.52,0,0,0,34.9,0"/><path class="cls-3" d="M61.26,40a1.83,1.83,0,0,1-.14.32,3.36,3.36,0,0,0-.3.68,8.8,8.8,0,0,1-.35,1,1.66,1.66,0,0,0,0,1.33.22.22,0,0,1,0,.23c-.11.15-.35.28-.16.53,0,0,0,.06,0,.09-.15.2-.15.49-.35.67a.11.11,0,0,0,0,.16.1.1,0,0,0,.11.06.13.13,0,0,0,.1-.14.63.63,0,0,1,.21-.45,1.4,1.4,0,0,0,.4-.88,2.34,2.34,0,0,1,.38-1,6.93,6.93,0,0,0,.33-1,4.23,4.23,0,0,0,.13-.71c0-.16.15-.31-.1-.41-.06,0,0-.1,0-.15a.6.6,0,0,0,.11-.26.18.18,0,0,0-.11-.19C61.32,39.87,61.27,39.9,61.26,40Z"/><path class="cls-3" d="M62.14,32.24a4,4,0,0,1-.09,1.34.85.85,0,0,1-.08.69,2,2,0,0,0,0,.69c0,.31-.07.61,0,.91,0,.11,0,.27.18.27s.19-.11.26-.21,0-.09,0-.13a1.27,1.27,0,0,0,.08-.57s0,0,0,0A.94.94,0,0,0,62.32,34s0-.1,0-.14a.54.54,0,0,0,.12-.64,1.35,1.35,0,0,1,0-.77c0-.09.11-.18,0-.23s-.1-.15-.16-.21a.11.11,0,0,0-.09,0C62.12,32.11,62.13,32.18,62.14,32.24Z"/><path class="cls-3" d="M45.47,59.52a.84.84,0,0,0-.58.43c0,.15.07.35.16.32a2.49,2.49,0,0,0,.78-.35.13.13,0,0,0,.05-.15.51.51,0,0,0-.15-.28C45.64,59.41,45.56,59.51,45.47,59.52Z"/><path class="cls-3" d="M56.13,50.92c.1.23,0,.36-.2.44,0,.1.19,0,.18.15s-.12.09-.19.12-.15-.08-.23,0,.05.15.08.22.17.19.27,0,.37-.52.54-.79c0-.07.13-.16,0-.25a.48.48,0,0,0-.44-.06A.1.1,0,0,0,56.13,50.92Z"/><path class="cls-3" d="M59.12,46.6a.75.75,0,0,0-.07.12A4.44,4.44,0,0,0,58.53,48h.07L59.26,47a1.17,1.17,0,0,0,.1-.26.12.12,0,0,0-.06-.15A.13.13,0,0,0,59.12,46.6Z"/><path class="cls-3" d="M54.08,53.57c0,.12,0,.17-.14.22-.27.13-.31.41-.48.7a2.65,2.65,0,0,0,.78-.61.55.55,0,0,0,.18-.29c0-.16-.05-.22-.2-.18S54.06,53.48,54.08,53.57Z"/><path class="cls-3" d="M59.71,45.2c-.06.14-.08.28-.23.36s0,.11,0,.16,0,.24,0,.35-.2.29,0,.36.19-.18.23-.31a1.76,1.76,0,0,0,.17-.79s0,0,0-.06.09-.13,0-.17S59.73,45.14,59.71,45.2Z"/><path class="cls-3" d="M57.86,49a1.6,1.6,0,0,1-.46.56c.24.11.24.11.36,0a3.65,3.65,0,0,0,.52-.87.41.41,0,0,0,0-.35c-.06.07-.1.09-.12.14A3.39,3.39,0,0,0,57.86,49Z"/><path class="cls-3" d="M46.3,59.49c0,.07,0,.11.08.13a.46.46,0,0,0,.49-.23.09.09,0,0,0,0-.12A.45.45,0,0,0,46.3,59.49Z"/><path class="cls-3" d="M56.82,50.67a.09.09,0,0,0,.13,0c.14-.23.39-.39.45-.73a4.07,4.07,0,0,0-.59.58A.09.09,0,0,0,56.82,50.67Z"/><path class="cls-3" d="M54.66,53.39c.11-.12.26-.18.33-.38C54.53,52.93,54.52,52.94,54.66,53.39Z"/><path class="cls-3" d="M55.34,52.39c0,.06,0,.14,0,.17s.12,0,.14-.1,0-.14-.07-.16S55.35,52.33,55.34,52.39Z"/><path class="cls-3" d="M53.39,53.76a.15.15,0,0,0-.15.1s0,.08,0,.08.14,0,.16-.1A.06.06,0,0,0,53.39,53.76Z"/><path class="cls-3" d="M61.53,38.9s0,0,0,0,.05-.11.07-.22C61.57,38.78,61.5,38.81,61.53,38.9Z"/><path class="cls-3" d="M54.26,52.86s0,.07,0,.09.08,0,.09-.08,0-.06,0-.07S54.27,52.82,54.26,52.86Z"/><path class="cls-3" d="M55.93,50.84s-.09,0-.09.09l0,0a.08.08,0,0,0,.09-.08Z"/><path class="cls-3" d="M56.85,49.79a.08.08,0,0,0,.07-.09s0,0-.05,0a.1.1,0,0,0-.07.1S56.83,49.79,56.85,49.79Z"/><path class="cls-3" d="M58.34,47.18a.05.05,0,0,0-.08,0s0,.05,0,.05.06,0,.08,0S58.35,47.18,58.34,47.18Z"/></g></g></g></g></svg>