<?xml version="1.0" encoding="UTF-8"?>
<svg id="Layer_2" data-name="Layer 2" xmlns="http://www.w3.org/2000/svg" viewBox="0 0 269.65 296.63">
  <defs>
    <style>
      .cls-1 {
        stroke-width: .48px;
      }

      .cls-1, .cls-2 {
        fill: none;
        stroke: #babcbc;
        stroke-miterlimit: 10;
      }

      .cls-2 {
        stroke-width: .49px;
      }
    </style>
  </defs>
  <g id="Layer_1-2" data-name="Layer 1">
    <g>
      <g>
        <line class="cls-2" x1="269.65" y1="206.1" x2="0" y2="206.1"/>
        <line class="cls-2" x1="269.65" y1="176.29" x2="0" y2="176.29"/>
        <line class="cls-2" x1="269.65" y1="146.49" x2="0" y2="146.49"/>
        <line class="cls-2" x1="269.65" y1="265.71" x2="0" y2="265.71"/>
        <line class="cls-2" x1="269.65" y1="235.9" x2="0" y2="235.9"/>
        <line class="cls-2" x1="269.65" y1="116.68" x2="0" y2="116.68"/>
        <line class="cls-2" x1="269.65" y1="86.88" x2="0" y2="86.88"/>
        <line class="cls-2" x1="269.65" y1="57.07" x2="0" y2="57.07"/>
        <line class="cls-2" x1="269.65" y1="27.27" x2="0" y2="27.27"/>
      </g>
      <g>
        <line class="cls-1" x1="21.04" y1="296.63" x2="21.04" y2="0"/>
        <line class="cls-1" x1="50.84" y1="296.63" x2="50.84" y2="0"/>
        <line class="cls-1" x1="80.65" y1="296.63" x2="80.65" y2="0"/>
        <line class="cls-1" x1="110.45" y1="296.63" x2="110.45" y2="0"/>
        <line class="cls-1" x1="140.26" y1="296.63" x2="140.26" y2="0"/>
        <line class="cls-1" x1="170.06" y1="296.63" x2="170.06" y2="0"/>
        <line class="cls-1" x1="199.87" y1="296.63" x2="199.87" y2="0"/>
        <line class="cls-1" x1="229.67" y1="296.63" x2="229.67" y2="0"/>
      </g>
    </g>
  </g>
</svg>