<svg xmlns="http://www.w3.org/2000/svg" viewBox="0 0 176.47 164.41"><defs><style>.cls-1{fill:#231e1a;fill-rule:evenodd;}</style></defs><title>blob--1</title><g id="Layer_2" data-name="Layer 2"><g id="explore-details-dataset-graph-view"><path class="cls-1" d="M55.59,37c3.06,12.19-7,20-13.27,26.63,1.59,3.54,1.84,8,5.35,10.19,1.88.9,1.18-1.85,2.92-1.14a7.59,7.59,0,0,1,1.58,3.54c9.46,1.68,8.59,10.69,10.63,17.63-3,4.57-3.23,13-9.33,13.13-.2,1.53-.88,3.42-.19,4.33,3.62-.28,4.31,0,7.94,1.35,1.44-3.45,4.6-4.46,6.66-7,.66-2-2.8-1.12-1.58-3.54,0-2,2.63-.23,3-1.67-.37-6-3.82-12-.82-17.59-3.83-4.73-7.13-9.85-6.2-18-.63-1.42-4.77-.35-3.26-3.28.91-1.56,3.07-.56,3.71.63,6.28-13.93,29.8-6.66,28.6,8.15,9-3.56-.69-11.9,0-19.09,1-11.08,12.32-15.09,19.67-13s7.77,10.95,4.7,20.43c1.16,3.1,7,15.88,9.78,6.57.74-2.49-.86-5.62-.23-8.21,2.34-9.82,14.46-16.33,25.93-11.39,10.45,6.59,7.16,29.94-5.51,32.32-3.12,6.48,0,11.92,1.53,16.62,2.1-1.4.09-5.69,1.7-6.8,1.85.71,2,2.63,1.31,5.13,2.57.81,1.4,4.28,3.42,5.49,3.55.24,3.83.28,5.65,2,2.82,1.14,2.31-2.42,4.69-1.92-.63.86-1.71,1.09-1.6,3,1.87,1.59,2.08-.31,4.33.19,0,6.18,2,11,6.93,13.72-1.28,3.43,2.47,5.71,2.79,9.2.72,8.09-5.35,15.72-9.54,20.73-.9,1.89,1.06,1.74.52,3.36-7.42-2-10.35,4.6-10.55,10.75-.86-.64-.31-2.27-2.38-2-2.33-.65-1.68,2.89-3.28,3.26-1.41-2.53-4.92-1.06-7-.64a10,10,0,0,1-.2,4.33c-2.37-.69.75-2.37-.42-3.89-3.57-2.2-7.3-.09-10,1-1.52-5.26-7.33-3.58-11.83-4.2-4.28-.59-8.12-3-11.91-3.67-2.61,1.14-3.14,5.21-6.39,5.46-.67-2.14,1.91-4.55,2.77-6.62-1.87-5.54-7.49-1.08-11.22-1.37-2.59-3.65,2-5.55,3.91-7,0-3.8,1.34-5.12,1.27-7.42-4.15-8.83-8.11-1-15,1.8-2.12.86-4.85.65-6.81,1.56s-3.37,3-6.37,2.19c-5.54-1.49-2.17-8.12-3.75-13.19-10.5,5.13-21,10.33-27.12,21.55.27,2,1.83,3.06.59,6.1a10.52,10.52,0,0,1-3,1.67c-3.31-.14-3-2.87-5.38-3.64-3.35-.79-3.1,3.51-5.58,3.95-3.06-.16-2.33-3-4.22-4-8.88-.91-13.76,3.82-21.93,3.89.84-4.73,6.47-2.69,9-5,.72-8-8-9.26-10.55-14.89C-.51,127.9,3,122,7,114.31c1.85-3.59,2.88-7.07,6.3-8.19,4.78-1.57,10.16,2.2,15.12-2.33-.86-3.17-4.4-2.44-6.43-3.83-4.36-2.95-5.66-8.29-8.26-12.31A6.64,6.64,0,0,1,5,84c.46-4.39,2.82-6.09,3.84-9.7-3.88-9-11-16.36-7.76-28s15.07-16,22.35-22.36l5.3.9c4.73-.77,3.94-8.32,6.15-13.67C38.5,2.44,51.85-5,61.72,4.24c.21,3.73,3.09,5.57,5.18,8C70.35,23.62,62.9,33.13,55.59,37Z"/></g></g></svg>