<svg xmlns="http://www.w3.org/2000/svg" viewBox="0 0 1467.56 253.44"><defs><style>.cls-1{fill:#fff;fill-rule:evenodd;}</style></defs><title>header--bg</title><g id="Layer_2" data-name="Layer 2"><g id="explore-details-datasets"><path class="cls-1" d="M748.51,206.05c-.6.11-.74.57-1.49.57a7.34,7.34,0,0,0,5.21,5.76c2.36,1.45-4.31,2.38.75,2.88a24.38,24.38,0,0,1-6.7,1.72c-2.75-1.7-4-4.6-8.94-4.6-5.71,3.67-9.77,2.59-15.63,1.72-1.3-1.32-1.65-3.93-3-5.18-.74-.68-2,0-3-.57-2.07-1.17-1.43-3-5.21-3.45-5-.58-9.58,3-15.63,2.3-.06,2.15,2.92,2,5.21,2.3l-.37.87,1.11.28c-.26.76-1.31.91-1.48,1.73.62,3.59,5.8,1.7,9.67,1.72-.6,1.36,1.73,3.71-.74,5.76-6.27-1.62-16.33-.68-20.1-2.88-1.88-1.49,1.63-3.7,2.23-5.18-.94-1.57-3-2.29-4.46-3.45-8.56,3.3-17,2.64-24.56,4.6.07,1.48,2.77.93,3.72,1.73-.46,1.76-1.58,3-2.24,4.61-4.95-.6-10.95-3.32-14.88,0l-1.12-.29-.37.86c-.67-.25-1.33-.5-1.49-1.15-3.13,2.95-11,2.2-14.89,4.6-8.72-2.51-16.16,2-21.58.58-1.3-3-3-5.73-8.19-5.76.36-3-2.39-2.35-6-4-1.21-.57-2.16-2-3-2.3-1.53-.53-4.12-.06-6-.57-2.46-.69-4.67-2.44-8.18-1.73-2,.4-1.65,1.9-4.47,3.45-3.28,1.81-8.23,1.85-10.42,5.76-4.9.33-5.32-2.79-10.42-2.31-4.58,1.94-11.25,1.58-17.12,1.16.63,3.35,7.59,1.8,11.16,2.87.83,1.82.35,1.53-.74,2.88,1.44,1.39,4.18,1.76,4.46,4a4.92,4.92,0,0,0-2.23,4c-9.42,1.37-6.48,8.95-6.7,13.82,1.72,2.32,3.85,4.31,4.47,7.48-3.47.79-10.14-.48-14.14-1.15-13.09,3.26-23.33,1.89-35.73-.58-4.06-3.19-10.95-4.19-18.61-4.6a12.38,12.38,0,0,1-3-2.88c-8.5-.48-17.64.92-23.07-2.88.3-2.84,6.2-1.34,9.67-1.72-3.58-2.6-5.8-6.26-9.67-8.64-3.64.07-5.78,1.29-8.19,2.3-.21,1.31.18,2.17,1.49,2.31-.31,1.29-4.08-.09-3.72,1.72-.52,2.32,3.13,1.42,3,3.46-5.92,1.41-14.42-.66-17.13-1.73-3.74-.05-6.88,1.55-8.18-1.15a25.08,25.08,0,0,1,8.18-4.61c-.22-4,4-4.57,2.24-7.48-2.78-4.69-12.41-.76-17.12,1.73-.39,5.39-3.52,5.28-4.47,9.78-1.05,0-2.11-.09-2.23.58a6.16,6.16,0,0,1-4.47-3.46,34.23,34.23,0,0,0-6.69,3.46c-6.7-.37-10.44.13-15.64-1.73-3.11.71-11.17-.2-14.88-1.73-.64-.25-1.12-1.58-1.49-1.72-.71-.27-2,.38-3,0s-1.38-1.48-2.23-1.73c-3.94-1.13-10-1.51-14.89-2.88-4.12-1.14-9.87-3.24-16.37-3.45-4.2-4.43-16.5-2.59-21.59-6.33-3.54,1.42-6.75-.41-11.16,0-.41-1.28,1.42-.82,1.48-1.73-3.94-3.21-13.81,1.68-14.14-4,1.7.17,2.8-.13,3-1.15-4.29-1.6-10.81-1.85-17.12-1.73-.9-.17-2.57,1.67-.74,1.73-3.42,1.36-8.41-3-6.7-5.75-4.68.22-5.79,3.19-8.94,4.6a40.46,40.46,0,0,0-8.93.57c-.39,1.83-3,1.5-4.46,2.31-3,1.68-4.29,4.25-7.45,5.18-2.4.71-5.68-.42-6.7,2.3-4.71-1.15-13.24.47-20.09-1.15-2.72-.64-6.07-3.52-10.42-4-7-.82-12.67,1.48-19.36,3.45-1.52-1.89-2.26-4.38-4.46-5.75-10.15-.21-13.7-5.53-23.82-5.76-6.05-3.19-13.59-5.22-17.86-9.78-1.34-.07-1.58.7-3,.57-9.45-6.92-10.78-17.63-17.12-27.63-2.68-.15-3.59,1.06-6,1.15,3.17,6.18-3.28,9.69-6,13.24,1,3.43,5.09,4.29,3,8.64-9.29,4.78-16.36-3.22-23.81-5.18.6-2-1.11-2.21-.75-4-1.27.2-4-1.48-6.69.57-.57.43.31,2.29,0,2.88-1.35,2.53-10.57,8.09-3,10.94,4.5-.55,9.43-.77,10.42-4,4.77-.33,4,3.66,4.46,5.18l-1.12.29.38.86C73,203.65,64.56,202,57.77,203.74c0-.55-.91-.44-1.49-.57-.62-1.25-1.93-2-1.49-4-2.41-1-3.57-3-4.46-5.18-3.63-2-8.61-5.32-7.45-9.21-4-3.18-9.7-2.72-14.89-4-1.24,1.53-4.5,1.51-3.71,4.6,4.14,2,10.47,2.27,14.88,4-.43,1.87.51,2.68.75,4l-1,.7.27,1c-3.4-.82-5.27-2.83-7.44-4.61a7.23,7.23,0,0,0-4.47,2.31c1.28,3,7.7,2.11,7.45,6.33-1.64,1.53-3.2.92-6,.57-5.6-5.25-13.39-8.83-20.84-12.66,2.5-3.93-1.39-7.07.74-11.51C5.11,173.4-1.84,171.1.46,166.33c2-1.11,4.43,2.29,7.44.57C6.51,161.34,10,158.3,4.18,156c.39-5.78-3.69-7.41-1.49-13.24,3.69-1.46,4.44-2.95,11.17-2.88-.4-1.46-3.92-.61-2.24-2.3,0-1.8,6.47.19,7.45-2.3,0-3.05-2.54-4.19-5.21-5.19-1.51.95-3,1.93-3,4-2.28-.41-2.71.59-4.47.58-1.56-1.09-1.67-3.31-3.72-4-.35-1.81,2-1.52,2.23-2.88-2.63-4.46,4.9-7.59.75-11.51,2.66-5.58,14.67,1,17.86-5.18-2.3-5.24-2.89-10.34-3-16.11-2.76.21-5.07.08-5.21-1.73,1.8-2.63,5.63-3.71,7.45-6.33-.25-2.88-.12-5.5-4.47-6.34-2.33.4-1,1.54-.74,2.88-1.7-.79-4.64-.63-4.47-2.88C18,78.43,18.42,72.77,22,69.63c.1-2.35-3.27-1.12-3.72-1.73-1.7-1.57,1.89-2.25,1.49-1.15.6-1.64-3-2,0-5.18.12-1.44-1.14-1.8-2.23-2.3.63-1.34,5,.64,3-1.15,3.12-.67,5.37,4.28,10.42,4L30.6,63l1.12.28a4.47,4.47,0,0,1,0,6.34c.9,2.18,4,2.69,3,6.32h3c0-3.32,4.42-5.18,2.23-10.35,3.59.48,5-.73,5.21-2.88-5.09,0-9.62,3.16-12.65,0l-.38-.58-.37-.57h.75c.66-5.31-5.62-5.25-6.71-9.21,4.33,1,.38-4.32,4.47-3.46V42c.94-.81,3.93,0,3-2.31L34.32,39,34,38c2.47-1,5.62-1.42,8.19-2.3,1.87-3.38-2.64-5.57.74-8.06l.75.29.74.29c5.45-2.31,18.54-2.73,23.08,1.72,7.48-1.63,17.73-3,22.33,1.73,5.83-2.29,15.59-.7,20.09-2.31a27.91,27.91,0,0,0,15.64,4.61c2-.69,2.61-1.64,5.21-.58.4,3-3.17,2.93-6.7,2.88-.17,9.65,12.3,13,20.09,11.51.07-3.24-1-6.29-.74-10.93A18.93,18.93,0,0,0,133,34.52c-.19-1.69,1.4-2,2.23-2.88,7.22,2.19,15.45-.78,24.57-1.73,6.66-.69,11.36.48,17.11-1.72l-.37.86,1.12.28c2.3.34,2.33,2.43,5.21,2.31,2.57.22,4.31-3.15,3-4,4.43-2.08,9.67-1.28,16.37-2.31,1.56.91,1.82,2.82,3.72,3.46,1.68-.81,4.8-.51,4.47-2.88,1.86-.76,2.33,2.28,3,.58l.37.28.37.29c2.12,1,2.06,3.78,5.21,4-.11,1.07-2.52.35-3,1.15,1.25,1.72,3.41,2.74,5.21,4,6.88.65,10.64-2.64,14.15-2.88,1.51-.55,1.6-2.2,1.49-4,3.24.89,3.12,1,7.44.58.85,2.22,3.24,3.25,4.46,5.18,2-1,.71,1.7,3-1.15,1.1.25-.29.73,0,1.73,4.06-.63,5-.29,6.7-2.88-2.26-4.11-7-2.33-11.16-2.88,2.58-1.65,2.15-5.62,6.69-5.75,1.93,1.95,6.2,2.1,6.71,5.17,1.81-1.41,3.22.43,5.95,0-.84,1.82-.07,1.31,0,3.46,3.14.73,3.57.5,5.21-1.73-1.32-3.55-5.41-4.07-5.95-6.9-2.76,1.7-4.28-1.39-8.19-.58.66-2.44-3.44-2.93-1.49-4.61,2.14-1.67,1.75,1.56,3.72,1.73,2.54-1.29,4.92-2.72,6-5.18,4.22,2.88,1.91-1.82,5.95-2.31,0,.57.91.46,1.48.58a28.14,28.14,0,0,1-.74,4c.63-.1.71.23.74.58L274,19l.37.58c-1,.2-1.17,1-2.23,1.15-1.25,4.12,6.78,2.53,4.46,5.76,4.48-.58,6.35.84,9.68,1.15,3.7-1.65,5.05-7.88,4.47-10.94l.37-.86-1.12.28c3-4.13,14.21,1.47,12.66,4.61-.32,1.59,2.77.54,3,1.73-.65,2-3,2.65-4.46,4,2.06,1.66,5,2.64,6.69,4.6-3.68,1.08,3.33,2.65-.74,4a11.83,11.83,0,0,0,9.68,3.46c1.77-.16.34-.95,3-1.73.81-.24,2.22.32,3,0,3.56-1.53,5.16-3,6-5.76-.43-1.59-.79-3.23-3.72-2.87.09-3.41,3.36-2.51,5.95-2.89,1.6-1.83,4.06-3,4.47-5.75l1.11-.29.38-.86c1.2,1.17,5.49,0,6.7,1.15,1.3,3.1-3.78,2.77-.75,6.33-1.07.9-1.88,2-3.72,2.31.52,3.66,3.91,3.17,7.44,3.45l1.22.45,1,.7c-.25,1.15.16,1.8,1.49,1.73-6.06.42-3.44,5.27-6.69,6.9.32,2.17,3.09,2.44,1.48,4.61-7.56.5-12.3,4.19-20.84,2.3-.21,1.11,2.22,2.92,2.23,2.3,0,.35-1.87.75-1.48,1.15,3.2,3.38,9.09.4,14.14,1.73.56-2-3-.73-2.23-2.88-.37-2.39,4.29-.9,4.46-2.88,2.15.45,1.86,2.79,3,4l-1.12.29.38.87h-.75c-1.81,1.89,4.58,3.82,6.7,2.87,1.8-1.31.9-2,.74-4-1-1.51-2.73-2.49-6-2.3.52-4,5.85-4.3,10.42-5.18-.1-1,.91-1.21.74-2.3l1.37.28.87-.86c2,3.39,7.29,2.11,9.67,2.88l.87.86,1.37-.28c3.18,2.84-.49,8.28-3,10.36,7.47.55,8.88-2,12.65-5.18,1.41.63,3.52.73,5.21,1.15v2.3c3,1.93,8.41,1.94,11.91,3.45,8.21-3.89,19.44-1.89,26.05-6.9-4.62-5.58-12.63-5.09-23.07-5.76-1.9.06-1.48,1.93-1.49,3.45-2.33,2.31-9.74,4.55-10.42-.57,3.54.63,2.75-2.1,6-1.73-2.16-2.56-7.4-2.72-8.94-5.76a33.1,33.1,0,0,0,6-7.48c-1.59-.88-2.77-2.08-4.47-2.88-4.13,0-5,1.82-8.19,0V26.46c4.37-.08,6.3-2.05,6.7-5.18,6,1.12,5.27,7.44,11.91,8l-.37.87,1.11.29c-.83,1.08-2.88,1.22-3.71,2.3,5.34,1.92,9.78,8.63,15.63,5.18l.37.29L409.1,38c3.34,1.44,9.54.68,10.42,4,10.84,1.29,18.7-2.3,26.05-2.88a2.6,2.6,0,0,0,1.49-2.88c-1.76-2.71-3.88,1-6-.57-.08-3.14,2.15-4.48,2.24-7.48,1-.62,6.43-.73,3.72-2.31,2.67-1.47,5.82,1.62,8.93,1.73-.68,2.56,3.47,3.48,3,7.48a40.48,40.48,0,0,0,7.44,3.46c1.57,6.46-6,7.07-11.17,5.18-.63,2.41,3.34,1.26,4.47,2.3-.15,2.41,1.22,3.66,3.72,4,0,2.51-2.37,3.15-3,5.18.19,1.19,3.27.15,3.72,1.15-1.09,4.3-9,.23-11.9,3.45,1.7,2.41,8.08,2.18,8.93-.57,2.43-.16,2.15,1.78,3.72,2.3,2.56-1.27,7.62-.38,10.42,0,1.62.1,2.37-.47,2.24-1.73,2.78.8,3.84,1.64,5.95,1.73l-.37.86,1.11-.29c9.45,1.51,19.89-2.48,23.08-9.2,2.76.2,4.55-2.07,5.95-1.16l-.37.87,1.11-.29c9.72,2.17,14.81,10.78,26.8,6.33.27-2.66.92-3.31,0-5.75-1.21-.38-5.84-1.11-8.18-2.31l.37-.57-.37-.58c4.23.36,4.62-4.06,10.42-4,1.1,2.57-2.19,1.77-1.49,4a29.53,29.53,0,0,0,14.14,0,6.36,6.36,0,0,0-3-4.6c1-2.1,2.56-3.78,3-6.33,3-1.14,7.32-1.25,8.93-3.46,4.13.46,4.92,3.49,8.93,4,2.42-.24,2.37-2.4,4.47-2.88,3.3-.25,4.71,1,5.21,2.88-2.72.64-8.25,0-5.95,2.88a23.56,23.56,0,0,0-7.45.58c.66,2-.14,1.88,1.49,3.45,3.81-.52,10.41-1.91,13.4-1.15,1.88,1.52-3.24.88-1.49,4-3.4-.51-4.22,1-6.7,1.16-1.22-2.13-6.6-1-9.68-1.73h-.74v.57c-2.1-.48-3-1.85-6-1.72-.41,2.63,3.2,2.13,6,2.3l-.37.87,1.11.28c-.15.73-2.16,2.82-.74,2.88-.31,1.29-3.95,0-4.47,1.15.19,4.36,8.08,4.2,11.17,4.61,3.89-2.1,7.34-4.11,10.42-4,2-.52-2.26-1.29,0-2.3,4.11.23,8.24-2.78,14.89-2.31.19,2,1.51,3,3.72,3.46.06,2.14.83,1.64,0,3.45,1.92.82,3.55,1.86,6.7,1.73,2.27-.7-1.09-2.2.74-2.88,9.43.16,8.65-6.32,8.19-9.79,2.79.8,4.16-.65,6.69.58.53,2,0,4,3.73,4.6-.23,1.36-2.59,1.07-2.24,2.88.67,2,4.18,4.12,6,3.46,2.2-.51-2.25-.46-.74-2.31,3.15-1.34,5.7.33,9.67,0,1.29-.92,1.61-2.59,1.5-4.6-.5-2.31-4.79-1.67-8.2-1.73.31-3.69-3.37-4.3-7.44-4.6-2.14-2.44,1.74-1.7,3-2.88s.29-3.18,5.21-3.45c3.27.92,5.32,2.78,9.68,2.87.1,1.81-1.92,2-3.73,2.31.7,4.44,7.94,3.83,10.42,6.9.74,2.3-2.23,1.74-1.49,4,1.88,2.09,3.59,1.65,6.71,1.15,1.66-.08-1-1.45,0-2.87h5.21l-.38.86,1.12.29c0,.55.91.44,1.49.57l-.37.58.37.57c1.7,1,2.77,1.51,1.49,3.46,3.94,0,5.25-2.08,8.18-2.88.54-3.85.28-4.32-1.49-6.91,5.89-1.78,10.81-4.31,11.17-10.36,6.21-3.06,13.25-5.48,17.12-10.36,2.58-.08,4.32.49,3.72,2.88,4.87-2.07,7.87-2,13.4-3.45,1.28,3.59-2.39,7-4.47,11.5-3.14.56-3.76.71-5.95-.57a4.47,4.47,0,0,0,0-4.6c-3.52-.43-4.89.82-6.7,1.72,3.67,2,2.36,4.82,3.72,8.64s1.93,5.82-4.46,7.48c-.83,11,15.53,10.11,22.32,5.18.41-3.75.69-9,6.71-7.48,2.29-.14,1.25-2.87,4.46-2.31.1,1.42.11,2.78-.74,3.46.78,1.5,3,1.88,6,1.73,1.11-.94-.49-2.78,1.49-4,.13-1.44-1.67-1.39-2.24-2.3,1.41-3.9,3.26-7.46,11.17-6.33a2.72,2.72,0,0,1-.75-2.3l.38-.86-.38-.87c1.61-.49,2.64-1.42,2.24-3.45,4.5.22,4.15-3.32,6.7-4.6,7.36-.54,10.89,6.13,18.61,5.17v.58h.74c-2.12,1.24-4.54,2.24-4.47,5.18-7.08-.29-12.88.4-16.37,2.88,1.62,3.74-4.64,5.35-5.21,9.21,1.17,2.12,8.85,2.68,8.93-.58,5.61.9,10.62-5.52,11.91-8.05.87.09,1.32-.13,1.49-.58,8.92-2,15.43-.29,14.88,5.75,2.85.47,2.89-1.22,3.73-2.3,4.19-.82,6.78.67,10.42-.57.68-2.83-3.12-2.2-3-4.61,4-2.58,17.63-8.4,18.61,0a12.31,12.31,0,0,0,8.93-1.15c.31-1.39-1.36-1.25-.74-2.88,6.87-5.14,18.73-3.31,27.54-6.33a75.91,75.91,0,0,0,17.12-.58c6.63-1.08,12.24-4.47,17.12-4.6,10.38-.27,24.83.73,32-6.33a26.51,26.51,0,0,1,14.89,1.15c3.85-.48,3.6-4.12,6.7-5.18,8.47.72,15-.51,20.1,2.87,5.5-1.3,12.68-1.31,14.13-5.75,5,.35,11.16-2.59,14.15,2.3,6.74-.47,13.1,3,15.63-4,4.75-1.26,8.88.35,9.68,2.31,7.58.67,12-1.05,14.14-4.61,3.21-.47,5.24.28,8.94-.57,5.26,4.84,17.67,5.27,20.09-1.73,3.59.48,7.42.79,11.16,1.15,1.13,3.35,4.84,4.7,6,8.06,3.49.59,4.23-.95,6-1.73-2.32-15.12,21.2-6.92,25.31-1.72-2.14,4,.79,7.92,3.72,9.78,3.45.37,1.89-3.14,2.24-5.18,5.1-4.88,7.58-11.79,14.88-15,5,1.32,7.56,4.52,14.14,4.61-.59,2,.83,2.43,1.49,3.46,7.2,1.9,11.34-2.93,10.42-7.49,6.62-2.78,17.33-.4,15.64,6.91,5.77.63,7.88-1.58,9.67-4,3.74,1.65,10.24-3,11.17,2.3h2.23l.87.86,1.36-.28c-.39,2.66.22,3.1-3,4,3.63,2.24-1.93,2.7-.75,6.32,3.36,1.72,3.44,2.4,5.21,5.19,5.49.27,10.33,4.84,15.63,1.73-.79-1.31-2.26-2.1-4.47-2.31,2.25-1.33,3.32,0,1.49-2.3,4.43.16,5.91-1.95,8.19-3.46a3.12,3.12,0,0,0-.74-2.88l1.11-.28-.37-.86c4.41,1.46,4.84-2,9.68-1.73,2.62,2.38,7.31,3.17,10.42,5.18l-1.12.67.37,1c-4.49-.8-8.4,5.14-3,5.19-2.12,1.32-.5,2.54-3,4l-1.12-.29-.37.86c-2.48.58-2.44-.8-2.23-2.3-6.7-1.38-10.9,1.32-12.65,4,.25,1.34.48,2.7,3,2.3,1,1.43-2.18,2.39,0,2.88l-.37.86,1.12.29c.13.49-.29.55-.75.58a13.72,13.72,0,0,0,8.19,6.91l-.37.86,1.11-.29c2.9,2.36,5.82,4.7,10.42,5.75.32,3.33.5,5.46,4.47,6.91,1.91-.06,1.2-2.14,2.24-2.87,3,0,3.16.61,6.69,1.15-.12,2.39-.26,4.8,1.49,5.75,3-1.21,6.26,1.3,6-2.3,3-.18,2,2.66,4.46,2.88,1.66-.45,4-.34,4.47-1.73.35-1.8-1.87-1.62-3-2.3,5.21-1.6,2.88-4.29,1.49-6.33,1.7-1.56,5.41-1.58,8.19-2.31.09-1-.91-1.21-.75-2.3,3.85-.48,5.93.4,6.7,2.3,3.76-1,6.93-.08,7.44,2.88-2.89.55-4.06.25-3,2.88-2.2.1-4.61,1.55-6,.58v.57l-.74-.29-.75-.28h-1.48v1.15h1.48l1.12.29.37-.87c2.93,1.38,9.87-.34,11.91,1.73.43,1.86-.23,2.89-1.49,3.45,1.43,1.23,3.89,1.26,6,.58-.32-.91-2.34-.5-1.49-2.3,2.78.61,2.12-1.43,4.47-1.16,0,1.15,2,.74,1.48,2.31,4.63-.65,6.35-3.54,10.43-4.61,3-.18,2,2.67,4.46,2.88a3.29,3.29,0,0,0,3.72-1.73V54.09l1.12.28.37-.86c3.89,2.16,6.42.43,10.42,1.15a5.7,5.7,0,0,0-3,2.3c.26.76,1.3.91,1.48,1.73,2.34.08,2.56-1.48,3-2.88,4.81,2.27,16.81-5.37,16.38,4.61-3.73,2.72-11.59.2-13.4,5.18,1.24,1,3.58,1.07,4.46,2.3a27.61,27.61,0,0,1,25.31-8.63c2.44-.81,2.36-3.55,6.7-2.88.32,1.2-.51,1.52-.74,2.3,5.92.51,6.2-1.4,7.44-3.45a6,6,0,0,1,3.72.57c2.65-1,5.8-1.65,6.7-4h3.72c1.44-2.65,10.36-2.18,7.44-6.33l-.37-.57-.37-.58c5.71-.95,11.48-1.87,12.65-6.33,5.28.81,4.36-3.16,8.19-3.45-1.73-2.76,1.89-3.07,3-4,.36-.33.07-2.27.74-2.88.38-.35,2-.14,2.24-.58s-.92-2.29-.75-2.87c.33-1.14,3.07-3.07,3.72-5.19,5,1.31,10.49.32,15.63,2.31,1.52-3.62,6.78,0,11.17-.58v6.91c1.69,1.76,4.7,2.5,6.7,4-.82,3-.45,4.35.74,6.91-3.79-1.61-6.28-.7-8.93-2.88-2.41.44-3.89,1.59-4.46,3.45.43,1.88,4.74,2.82,3,4.61,5.94-1.83,11.95,2.3,10.42,6.33.6,1.83,3.83,1.64,5.21,2.88-.27,4,2.54,4.76,2.24,7.48-1.38,2.78-9.85,4.22-13.4,1.72-.78,2.11.93,7.48-3,8.64.74,2.8,4.62,8.28.75,10.93.61,2.41,3.46,3.08,6.69,3.46,1,6.27.66,9.45-1.48,14.39,6.3,8.12,1.4,18.86,3,26.48-1.36.86-1.75,2.48-3,3.45.44,7.06-3.9,10.42-4.47,16.69,12.64,4.8,4.8,18.29-6.7,20.15-2.59,4.24-2,7.29,1.49,11.51-.87.09-.63,1-.74,1.73-4-.27-3.61,3-5.22,4s-4.74.53-6.69,2.87a2.75,2.75,0,0,1,.74,2.31c-6.07-3.88-12,1.49-16.38,4-3.89.52-2.8-2.82-6.7-2.31-3.93,1.38-5.08,4.9-7.44,7.49-8.93-1.28-11.63,6-18.61,8.06.81,2.92-1.37,3.54-3,4.6-2.07-.13-2.11-1.82-3.72-2.3-5.1,3.55-20.68,3.54-27.54.57-3-.39-1.83,2.43-4.47,2.31-4-4.59-9,2.83-14.14,2.87-3.08-2.53-6-1.93-11.91-1.72-2.48-2.69-6.8-4-8.93-6.91.86-1.87,1.39-6.26,0-8.06l-.38-.86-.37-.87a9.27,9.27,0,0,0,3.72-5.18c-2.4-3.7-9.43-3.83-8.18-10.36-.63-1.81-3.84-1.64-4.47-3.45-1.55,2-5.19,2.55-7.44,4.61-1.1,1-.44,3-1.49,4-2.78,2.65-13,5.1-19.36,2.88l.38-.86-1.12-.29c1.39-1.61,3.21-2.89,4.47-4.6-2.7-1.86-4.25,2.06-6.7,2.3-3,0-3.6-1.83-6.7-1.73-4.19,0-4.13,3.33-5.21,5.76a14.34,14.34,0,0,0-9.68,8.06c-2.27-.42-2.71.59-4.46.57a10.84,10.84,0,0,1-1.49-3.45c-6.87.3-12.64-2.61-17.12-2.3-1.28,1.7-1.58,4.15-1.49,6.9-4.84-2.77-12.09-5.18-19.36-2.88-2.29,1.68-3.48,4.22-8.93,3.46l.38-.86-1.12-.29c-.31-3.55-8.72-1-1.49-.58l-.37.87.37.86a12.41,12.41,0,0,0-5.21,1.72,3.31,3.31,0,0,0,3.72,1.74c.66,1.84-2.45.78-2.23,2.3-.4,2.07,3.65,3.66-.74,4,.46,1.56,3.1,1.43,3,3.46l-1.11-.29.37.86c-3.71-.17-4.83,1.64-4.47,4.61-5.32,1-10,1.93-14.89,2.87-3.2-.67-9.55-3.25-13.39-4-.43-.08-1.8.74-3,.58-.74-.09-2.81-1.66-3.72-1.72-2.16-.15-7.23-.79-10.42-2.88-2.93-1.91-1.74-.85-6-1.15-.93-.07-2.51-.61-6-1.16s-8.39-1-11.91-2.87c-.64-.33-1.06-2.11-2.24-2.88-2.57-1.7-5-1.88-6.69-5.18-3.45-.22-4.22-2.49-7.45-2.88a.88.88,0,0,0-.74-1.15v-3.45c-.89-2.37-7.8-2.21-8.19-1.73-2.12-3.27-3.42-6.34-6-10.36-5.6,1.32-8.29-3.34-13.4.57-.66,1.19,2.45,2.19,2.23,1.16-.36.82-.73,6.57,3.72,6.9-2.54,2.2-5.16.83-7.44,2.88-3-.55-5.08-1.83-8.93-1.73.34,6.52-16.42,4.48-21.59,8.64a4.58,4.58,0,0,1,.74,5.75c-6.4,0-7.81-1.37-14.14-.57-1.93-1-1.5-3.83-1.48-6.33,7.54-3.38,15.66-6.31,19.35-12.67-3-1.77-3.23-1.85-6.7-.57-1.92.14,1,1,0,2.3-3.12,2.76-14,1.31-17.12,2.3.15,2.74-2.43,4.43-5.21,6.33,1.93,2.47-.86,5.52-.75,6.91-2.1.1-5.1-.49-5.21,1.16.15.46.75.57.75,1.14l-1.12.29.37.87c-6.07.28-11.27-.12-13.4-2.88-2.72,1.58-3.15,3.76-3.71,5.75-5.83-.74-6.37-1.68-11.92-.57,2.87-2.2,2.49-6.91,6-8.64.23-1.32-2.15-.64-2.23-1.72l.37-.87-1.12-.29c4.95-1.54,6.35-5.83,6.7-10.93-4.74-3.25-10.59,1-13.4,2.88-1.15,2,2.53.34,2.24,1.72-2,2.32-6.31,4.89-3,8.06-2,0-1.9,1.61-3,2.3-.79,2.15,2.8.92,2.23,2.89-4.16-.54-3.43,2.71-6.7,2.87.92,1.6,4.58,1.07,7.45,1.15l-.37.87,1.11.28c-.28,1.9-2.17,2.54-3,4-6.08-.64-11.31,3.85-14.14.58l1.11-.29-.37-.86c-1.55-3.61-12.22-3.64-16.38-1.73-3.35-1.61-7.27-.85-11.16,0,1.29,4.08-3.48,3.45-5.21,5.18-.39,2.42,2.51,2.28,4.47,2.88l-.38.86.38.87c-2,.92-4.92,1.18-8.19,1.14-.64,1.85,1.17,1.79,1.48,2.88l-1.11.68.37,1c-8.53-.88-11.67-5.94-19.35-7.48l.37-.86-.37-.87c4.16-1.37,11.87,2.32,14.88-1.73-.7-1.95-3.62-2.18-3.72-4.6-4.53-.17-9.24-.8-14.89,0v5.18c.87-.09,1.33.13,1.49.58l-1.11.67.37,1c-2.13.09-1.36,2.41-1.49,4-7.17.76-8-3.37-13.4-4l-.87-.86-1.36.28v-.57c-1.92.24-3.51,1.15-6,2.3-10,.39-8.21-8.13-20.84-6.9-.13-6-7.68-3.82-11.16-2.31-4.51-1.89-15.34-6.56-14.89,1.73a46,46,0,0,0-6.7,2.88c-1.85.47-2.63-1.49-4.46-1.73s-5.66,1.57-9.68,1.73-7.07-1.63-9.67.57c-1.55.15-.21,2.53-1.49,2.88-3.66.14-4.71-1.72-6.7-2.88-7.68,3.42-12-2.06-20.84-1.15l.37-1-1.12-.67c3.76-1,6.78-3.44,11.17-2.31,1.75-.18,1.66-1.78,3-2.3-1.58-3.22-8.15-3.17-13.4-1.72,0-1.15-2-.74-1.49-2.3h-.74l.37-1.06-1.12-.68c1.32-1.46,3.2-2.51,3.72-4.6,5.12,1.77,13.19,8.05,17.86,1.73.35-1.23-1.06-1.1-2.23-1.15,2-.78,4.78-.91,6-2.31-1.06-2.93-4.38-3.85-6.7-4-6.19-.45-11.72,5.61-17.86,4,.38-.85,1.09-1.45,1.48-2.3-2.31-1.09-5.14-1.77-5.21-4.6-8.2-2.33-13,.32-15.63,5.18-3.73,0-5.07,1.83-6.7,3.45.72,4.28,2.28,5.15,2.24,9.21l-1.12-.29Z"/></g></g></svg>