<svg xmlns="http://www.w3.org/2000/svg" viewBox="0 0 112.59 109.05"><defs><style>.cls-1{fill:#f1dfd1;}</style></defs><title>decor--4</title><g id="Layer_2" data-name="Layer 2"><g id="explore-heroine"><path class="cls-1" d="M47.56,11.32c-.26,1.8-1.73,3.63-1.71,5.42a.52.52,0,0,0,1,.26c2.21-2.89,1.46-9.28.29-12.56A6.31,6.31,0,0,0,41.82.08c-7.1-.94-14.66,6.59-18.94,11.26C17.75,16.93,12,25,12.69,33c.76,8.63,12,11.09,18.74,8.13,10.44-4.62,11.21-22.31,0-26.42S6.8,23.2,3,32.76c-1.86,4.66-.79,9.55,3.48,12.38,4.85,3.22,11.69.06,16-2.65,4.93-3.15,10-8.28,11-14.25.81-4.61-2.1-10.76-6.62-12.42C16.57,12.06,1.84,22.5.73,33-1,49.26,18.25,58.94,30.07,47.39c4.09-4,5.29-9.61,1-13.86S19.21,28.6,13.53,30C6.71,31.58.24,38.32,0,45.47S7.11,57,13,58.77c6.45,1.89,12.74-1.26,18-4.87,4-2.73,9-7,9.33-12.24.59-8.85-18-8.09-22.71-4.39-5.6,4.38-1.28,13.11,1.85,17.53,3.61,5.11,10.12,11.35,17,10.35C45,63.91,46.06,48.54,43.3,42.77c-2.15-4.48-7.75-3.05-11.19-1.26-4.9,2.53-10,7.68-11,13.24-1.27,6.61,3.1,13,8.53,16.28,6.25,3.78,13.34,1.81,17.79-3.6,3-3.68,9-12,3.34-16.15-5-3.66-13.1-2.11-18.64-.82C26,51.89,18.27,54.41,14.2,59.55s1.55,8.81,5.88,10.59c3.65,1.5,17.65,6.81,19.93.51,1.89-5.22-6.27-12.15-9.5-14.91-5-4.26-12.62-9.65-19.61-8.65C2.31,48.31,3.15,59.53,4.18,65.8c1.88,11.26,19,12.82,27.6,11.39,5.25-.88,10.48-3.38,13.32-8S47.24,57,43.39,53,33,50,28.61,52.4c-6.36,3.38-11.08,10.79-10.9,18C17.88,77.1,23.22,82,29.2,84a20.83,20.83,0,0,0,19.08-3.53c4.2-3.23,7.72-8.38,7.6-13.84-.12-5.28-5.73-9-10.62-9.24-11.85-.54-23,18-16.86,28.19C35.66,97.55,54.72,88,49.19,75,47,69.66,42,66.76,36.37,68.55c-5.92,1.87-7.56,8-6.94,13.47,1.38,12.35,19.73,17.47,28.78,10.67A13.75,13.75,0,0,0,61.91,75c-3.91-6.59-12.55-6.68-18.2-2.56-5.45,4-7.25,10.38-3.93,16.3s10.88,9.09,17.49,8.7A20.46,20.46,0,0,0,74.09,86.11c3-6.45-.28-12.74-5.49-16.74-4-3.07-9.32-3.37-11.49,1.74-2,4.68-.62,10.94,2.25,15C67.15,97,84.09,89.47,90.55,81.14c7.88-10.16-.65-24.21-13.35-21a11.27,11.27,0,0,0,.36,22.12c10.6,2.27,25.37-5.87,20.44-18.09-4.56-11.33-21.7-9.57-30-4.31-3.83,2.41-12.57,12.66-8.13,17.61,3.57,4,12.31.25,16-1.4,5.83-2.58,13-7,15.12-13.4C93.58,54.83,83.33,51,77.7,49.38c-5.13-1.46-12.86-2.68-15.65,3.25C59.46,58.11,65.6,63,69.89,64.85c11.71,5,30.3-2.76,28.9-17.13-1-10.4-18.61-20-25.78-9.65-2.8,4-3.55,10.29-.28,14.3,3.43,4.2,9,5.62,14.15,5.94,10.09.62,25.85-5.47,22.63-18.3-1.4-5.56-7.62-8.4-12.72-9.33-6.24-1.14-13,.56-17.3,5.28-9.74,10.62-1.74,27.45,12.15,28,7.23.27,20.16-5.34,20.92-13.79.61-6.83-6.89-12.22-12-15.19-9.1-5.31-35.77-13.12-34.9,5.57.23,4.81,2.16,11.23,6.26,14.09,5,3.49,11.14,2.19,15.33-2C98.56,41.41,83.88,27.19,73.47,23c-5.38-2.17-12-2.68-16.68,1.23-5.54,4.61-8.29,10.67-4,17.22C60.7,53.66,80.39,50,85,36.94c2-5.83,0-12.17-4-16.59a16.42,16.42,0,0,0-16.52-5.14c-9.83,2.33-26.35,14.52-15.91,25.33,4.1,4.25,11.12,2.9,16,1A29.66,29.66,0,0,0,79.33,29.24C82.4,23.87,82,11.11,76.45,7,72,3.6,66,7.2,62.38,10.07A60.72,60.72,0,0,0,47.66,27.41c-2,3.39-5.95,10.2-3.21,14.14C47.81,46.37,57.92,40,61.11,38.2,68,34.31,79.41,27.69,79.25,18.4,79.14,12,72.14,8.3,66.9,6.52,57.6,3.35,32.65,2.81,38.1,19.18c1.63,4.89,5.24,9.82,10,11.87,5.89,2.52,13,.09,17.27-4.27s4.24-11.25,1-16.24-9.25-6.87-14.74-7C39.92,3.21,33,13.61,31.64,24.28c-.8,6.23,3.19,9.94,9.11,10.51,7.66.73,15.79-2.35,22.58-5.56,6.3-3,13.53-7.11,17.25-13.24,3.14-5.17-.36-9.06-5.31-10.87C70.79,3.48,59.81,1.16,59,8.55c-.76,6.84,5.17,14,9.56,18.57,3.65,3.78,11,10.38,16.89,7.59,3-1.41,4-4.69,4.57-7.72.61-3.62,1.62-12.24-1.84-14.74-4.11-3-9.34,1.71-11.63,4.89-4,5.48-1.38,11.87,3.25,16,5,4.41,12.53,5.14,17.94,1.21,4.57-3.32,3.08-7.34-.34-10.91C95,20.93,88.74,16.68,85.44,20c-4.34,4.43-2,11.49,2.21,14.9s13.11,5.45,18.12,2.51c4.13-2.42-1.54-8.1-3.55-9.61-5-3.77-10.37-5-16.18-2.29-5.52,2.61-10.17,8.25-12.45,13.83-2,4.83-2.7,10.58,1.42,14.51s12,4.75,16.26,1c5-4.4,1.44-11.85-2.4-15.51-4.27-4.06-12-2.75-17-1.29-10.34,3-26.57,15.18-16,26.79,3.73,4.08,9.92,3.33,13.71-.11,4.34-3.93,5-11.52,2.39-16.5-5.52-10.47-22.47-8.95-29.68-1.61-4.6,4.68-9.15,22.55,1.55,23.2,13.59.83,17.75-16.46,10.72-25.64-9.51-12.43-22.89.86-27.82,10.15-2.59,4.9-4.31,10.92-.83,15.74s9.31,3.89,13.53.66c4.89-3.73,8.17-10.36,7.65-16.53-.35-4.14-3.32-9-6.23-11.87C29.05,30.59,20.23,61,19,67.78c-.9,5.07-2.33,13.75,1.91,17.83,4.53,4.36,12.9-3.53,14.48-7.39,3.7-9,.86-26.35-12.33-20.93C11.21,62.18,21.87,79,30,81.56c5,1.57,17.42,3.8,18.69-4,1-6.12-4.88-12.53-9.14-16.06-4.42-3.64-11.31-7-16.48-2.88C20.09,61,19,65.44,18.5,69.06c-.82,6.39-.94,13.82,1.79,19.78,4.1,9,14.94,6.47,19.49-.56,6-9.24-2.37-24.2-13-25.29C16.85,62,7.68,74.21,12,83.53c3.86,8.3,17.55,11.11,22.36,2.29,4.18-7.67.84-19.1-5.78-24.3S8.37,58.78,6.3,67.82c-2.17,9.52,8.85,18.54,16.21,22.11,10,4.83,21.89,2.48,26.42-8.49,3.73-9-4.31-18.72-13.86-14.34s-9.21,21.81-.23,26.55C42.91,97.91,53,92,53.6,83.11c.24-3.57-1.16-10-5-11.49-3.55-1.34-6.84,1.54-8.94,4.1a22.79,22.79,0,0,0-4.16,20.67c2.47,7.7,11.76,13.25,19.73,12,16.62-2.6,20.32-28.81,8.4-38.66a.53.53,0,0,0-.73,0c-4.74,4.65-12.38,14.21-4.18,19.47,4.88,3.12,13.45,2.66,17.43-1.76,2-2.18,1.92-5.3.74-7.85-1.75-3.82-6-9.68-10.7-9.45s-5.91,7.84-6,11.36C60,87,62.6,90.72,67.57,92.89c7.63,3.33,24.31,3.07,27.8-6.54C97.24,81.22,94,76.45,91,72.53c-2.06-2.67-5-5.71-8.59-6.12C76.05,65.66,72.69,73,71.13,77.9c-1.76,5.58-3.08,13.55-.11,19,3.48,6.38,10.62-1.72,13-4.73,3.36-4.27,7.45-9.56,3.37-14.69-3.62-4.56-11.46-4.79-16.47-3.1-9.39,3.15-15.13,15.85-14,25.17,1.49,12.36,15.41,6.25,21.55,1.44,20-15.67,4.64-45.52-14.47-54.13-9.82-4.42-20.51-1.89-27,6.76C34.4,57,25.89,68.25,31.72,72.47c4.62,3.35,12.45-.32,16.76-2.52,6.26-3.2,12.92-8.27,15.4-15.1C66.74,47,59.8,41.41,53.4,38.51c-5.92-2.69-10.89-3.22-17.08-1.12a40.2,40.2,0,0,0-17.8,12.53c-3.42,4.2-6,10.36-3.6,15.66S21.71,74.09,27.68,73c6.6-1.22,12.33-6.89,16.5-11.77A38.56,38.56,0,0,0,52.9,43.52c1.25-5.79,4.28-18.08-1.69-22.55-4.46-3.35-10.83.75-14.5,3.44a63.06,63.06,0,0,0-16,17.66c-2.79,4.5-6.68,11.61-4.36,17.06,2.74,6.45,13.29,5.21,18.25,2.86,11.18-5.28,11.17-22.6,3.07-30.35-10-9.54-26.92-1.42-31,10.13-2.8,7.79,4.27,19.58,12.72,20.67,6.91.89,12.5-4.87,16.19-10a51.64,51.64,0,0,0,9.12-23.1c.68-5.18.43-13.07-5.38-15.34-7.67-3-19.79,4-24.19,9.84C8,33.35,8.86,51,23.27,52.72c12,1.46,20.25-10.39,21.78-21,1.65-11.42-7.28-21-19-17.2S13.24,35.28,21.12,43.09c9.48,9.41,27.21,2.23,35.82-4.82,4.48-3.66,7.55-8.68,6.52-14.56a9.88,9.88,0,0,0-9.59-8.44C43.2,14.59,29.51,24.78,28,35.46,26.2,48.82,40.62,53.89,51.26,50.2c10.92-3.8,17.93-18.26,12.56-29-2.63-5.23-9.24-6-14.33-4.58-4.7,1.32-7.64,5.46-8.65,10-2.37,10.72,5.76,22.39,16.7,23.54,8.79.93,28.07-3.8,25.82-15.88-1.07-5.8-7.12-10-12.82-9.41s-10.41,5.75-13,10.6c-2.75,5.18-3.29,11.66.16,16.62,3.61,5.19,10.47,6.43,16.35,5.93,12.5-1.07,24.49-12.41,16.46-25C83.8,22.63,67.67,24.9,66.34,38.08,65.12,50,82.56,55.88,91.55,52c4.55-1.95,7.28-7.64,5.24-12.3-2.26-5.2-7.79-7.95-13.27-8.1-11.42-.32-19.17,16-9.19,23.16,9.52,6.79,25.25.87,27.09-10.75C103.49,31,85.88,21.75,75.12,26.29c-12.61,5.32-10.43,23,1.61,27.31,6.18,2.2,12.78-1.14,16-6.45s2.21-12-.39-17.28c-5.16-10.37-18.93-13-28-6-5.36,4.13-3,11,.5,15.44A35.27,35.27,0,0,0,84.49,51.89c6.88,1.45,12.54-1.68,13.82-8.77a26.43,26.43,0,0,0,.12-7c-.15-1.71-.23-6.88-1.58-7.87-4.79-3.5-8.44,6.21-9.22,9.77C85.86,46,90.43,63.76,102,58.65c13.32-5.92-.08-22.61-9.42-24.39-4.24-.82-10.24.82-14.11,2.58-2.41,1.1-4.57,3-5,5.76C72.61,48.4,79,53.7,83,56.74c4.27,3.2,10.88,7.46,16.54,6.6,6.53-1,.19-10.9-1.37-13.29C90.66,38.47,78,33.59,64.32,35.23,51.25,36.79,40.43,47,43.36,60.78,44.46,66,48.2,71,54,70.16c5.34-.77,10.06-6.82,12.14-11.46,3-6.8-1-12.62-7.22-15.48-13.46-6.23-36.68-1-33.21,17.57.54,2.91,4.93,17.2,10.44,13.64,4.47-2.89,4.18-12.33,4-16.8C40,52.26,39,43.47,33.2,41c-7.59-3.22-16,8.92-18.9,14-3.56,6.23-3.07,13.43,4.38,16,6,2,14.29.49,18.41-4.5,6.24-7.57-3-17-8.5-21.61-6.19-5.18-15-7.39-20.51-.07-4.27,5.71-5.92,14.81-2.9,21.45,3.88,8.51,12.9,5.86,19.2,1.67,9.74-6.48,10.91-22.54-2-26.11S1.11,51.56.45,62.55C-.31,75,10.67,83.67,22.34,78c10.73-5.25,15.35-22.47,6.88-31.47a.52.52,0,0,0-.63-.08c-4.49,3-7.27,8.53-9.35,13.32-2.42,5.57-4,11.91-3.06,18a10.67,10.67,0,0,0,10.11,9.18c5.35.18,9.49-4.06,11.82-8.43,3.44-6.42,4.27-22.66-7.38-19.7C21,61.23,21.14,77.52,22.64,84.88c1.11,5.44,3.88,10.85,8.87,13.61s11.85,1.4,16.28-2.07C57.4,88.91,63.24,70,50.34,62.57a.52.52,0,0,0-.52.9C64.87,72.07,53.5,97.7,38.58,98.9c-15.17,1.23-17.45-20.17-14.39-30.61,1.5-5.11,6.35-11.43,12.27-7.76,5.65,3.5,2.81,13.56.41,18.06-3.58,6.7-12.82,10.53-18,3.18-4.13-5.82-1.32-14.91,1-20.86a45.36,45.36,0,0,1,4.92-9.12,23.7,23.7,0,0,1,2.84-3.32c1.82-1.77,2.63.84,3.45,2.48,3.68,7.32.53,17-4.69,22.64-5.84,6.35-16.65,7.32-22.1,0C0,67.77,1.08,59.1,3.85,52.91c3.33-7.43,10.83-12.06,19-9.81,9.06,2.5,10.05,13.93,5,20.43C24.61,67.78,17.35,72,11.77,70.92c-4-.77-5.93-4.77-6.66-8.39C3.59,55,6.65,43.37,15.11,41.25c5.86-1.46,11.52,3.16,15.45,6.82,3.75,3.48,8.18,8.61,7.39,14.14-1.13,7.88-12.4,9.7-18.61,8C6.72,66.64,16.46,52.58,21.73,47c2.6-2.72,6.66-6.4,10.78-5.17,3.17,1,4.64,4.91,5.44,7.74,1.88,6.59,2.19,15.61-.82,21.93-1.28,2.7-3.22,2.88-5.16.67-3.41-3.88-5.44-10-5.62-15.07-.36-10,9.4-14.71,18.06-15.32,7.24-.51,18.46,1.4,21.34,9.25,1.65,4.48-1.17,9.14-3.94,12.47s-7.36,7.15-12.05,5.13c-4.18-1.8-5.59-7.59-5.9-11.62C42.4,38,66,33.63,80,37.43c7.7,2.1,13,6.64,17.32,13.14,1.73,2.59,4.93,7,3.92,10.36-1.72,5.78-31-8.87-26.36-19.6,1.62-3.72,6.94-4.81,10.46-5.46s6.86-1.07,10.22.47a21.89,21.89,0,0,1,9.09,8.52c2.43,3.93,2.67,8.64-1.25,11.65-3.19,2.45-6.85,2.64-10,0-5.52-4.74-6.19-14.2-4.19-20.67a16.33,16.33,0,0,1,3.12-5.52c.51-.61,3.22-3.57,3.92-.62.21.86.38,1.73.55,2.6a34,34,0,0,1,.59,9.6c-.38,4.07-2.39,7.8-6.5,9-7.67,2.2-16.83-3.82-22.13-8.75-5.11-4.75-10.43-13.51-2.46-18.33C72.1,20.31,80,20,85.63,23.65c7,4.57,10.07,14.68,6.61,22.24-4.41,9.65-17.06,9-22.5,1s-.33-18.54,8.88-20.57c8.43-1.85,18.18,4.2,21.16,12,3.31,8.67-4.26,16.14-12.16,17.79-6.42,1.34-15.12-.92-16.82-8-2.27-9.54,8-17,16.49-14.87,8.29,2,13,12.54,4.38,17.63-6.51,3.84-16,.49-21-4.41-6.65-6.61-2-18.5,7.24-19.12,8.38-.57,14.54,8,14.2,15.65-.41,9-11.31,13.56-18.94,14.21-8.57.74-17-4-16.85-13.39.14-7.6,6.19-15.84,13.63-17.65,4.6-1.12,8.78,1.8,11.15,5.52,2.6,4.1,1.3,8.26-2.08,11.31-5.15,4.66-13.82,6.8-20.63,6.38-7.65-.48-13.63-6.11-16-13.16-2-5.94-1-13.36,4.44-17.12,3-2.11,7.24-2.38,10.72-1.53,4.53,1.11,6.42,5.6,6.82,9.8,1.47,15.51-16,29.66-30.2,20.54C27,43.18,28,33.37,32.75,27.4a31.13,31.13,0,0,1,17.8-10.85c8-1.56,14,5.08,11.61,13.05C59.8,37.3,50.43,42.08,43.42,44.47,36,47,27.18,47.64,21.26,41.77,15.64,36.19,15.83,26.65,20,20.38c4.6-6.87,15.2-7.48,20.84-1.64,4.64,4.79,3.77,12.71,1.78,18.44-2.23,6.39-7.13,12.36-13.81,14.23C20.07,53.87,12.36,47,11.59,38.53S16,22.89,23.09,18.75C27.14,16.39,32,14,36.8,14.45c8.09.7,7.53,11.47,6.5,17.15A49.44,49.44,0,0,1,32,55.27c-5.36,6-12.88,8.68-19.17,2.41C7.12,52,5.24,44.45,10,37.55S25.7,25.84,33.64,30.11c7.39,4,10,12.47,8.24,20.34S34,62.44,26.17,62.7,15.5,57.93,17.69,50.85c2.4-7.71,7.94-14.67,13.55-20.32,4-4,11.1-10.87,17.48-9.6C57.19,22.62,52.59,40.2,51.51,45c-1.76,7.78-6.27,14.13-12,19.64-5.24,5.09-14.34,11.17-20.9,4.81-7.23-7-2.12-16.48,3.74-22.22C28,41.72,36.31,37,44.35,36.92c5.46,0,12.5,3.7,16.28,7.57a9.63,9.63,0,0,1,2.25,10.08C60.43,62,52.15,67.28,45.39,70.28c-4,1.77-15.14,5.27-14.38-2.73.49-5.18,4.59-10.77,7.8-14.58A20,20,0,0,1,55,45.64C67.4,46.08,78,57,83.21,67.37c6.14,12.2,4.55,26.35-7.39,34.19-4.51,3-13.25,7.77-16.91,1.13-2.71-4.92-.53-12,1.69-16.66,3-6.24,8.27-11.18,15.4-11.59a13.76,13.76,0,0,1,10.66,3.74c3.9,4.09-.47,9.35-3,12.75-1.9,2.55-5.67,7.79-9.48,7.22-2.73-.4-3.34-4.49-3.56-6.64-.75-7,1-15.75,5.52-21.23,7.07-8.51,17.08,4.57,18.64,11.3C96.45,88.83,88,92.3,82.38,93.3c-6.29,1.13-14.32.31-19-4.43-4.06-4.09-2.33-21.16,5.58-17,3.93,2.08,9,8.55,7.36,13.29-2.35,6.77-15,6-18.93,1.57-3.55-4,.51-9.85,3.15-13,.8-1,2.23-3.39,3.43-2.29a15.77,15.77,0,0,1,3,3.91A22.26,22.26,0,0,1,69.48,86c.15,6.94-2.55,14.53-8.18,18.84-6.62,5.07-16.06,2.28-21.48-3.19-5-5.08-5.06-12.81-2.8-19.14,1.41-3.94,5.66-11.41,10.89-10,2.82.75,3.79,4.78,4.35,7.19a11.82,11.82,0,0,1-1.76,9.46c-3.25,4.7-10.15,5.94-15.14,3.62-7.13-3.31-7.28-13.26-4.59-19.51a9.67,9.67,0,0,1,15.49-3.56c6,5.36,1.27,14.26-3.62,18.47s-12,3.82-17.8,1.66C16.77,86.8.55,73.36,9.61,63.86c4.27-4.47,12.23-5.29,17.41-2.18,4.79,2.87,7.24,8.78,7.88,14.11.58,4.8-.49,10.55-4.89,13.27-5.81,3.61-15-.65-17.29-6.56-2.47-6.31,1.69-13.82,7.11-17.06,7.86-4.71,16,2.4,19.47,9.17A13.42,13.42,0,0,1,36,91.08c-4.48,3.85-10.83,3.46-14.13-1.58-3.87-5.88-3.27-15.64-2-22.29.77-3.95,2.68-8.25,6.93-9.3,7.15-1.77,14.82,5.9,18.31,11.22,1.66,2.53,3.28,5.91,2.44,9-1,3.86-6.3,3.93-9.44,3.75-7.75-.43-13.92-3.31-17.52-10.47-1.65-3.27-2.25-7.34-.27-10.59,2.33-3.82,8.79-4.79,12.1-2,5.15,4.42,4.33,14.77,1.48,20.14-1.62,3.07-6.45,6.8-10.12,6.73C17.2,85.61,19.44,71.62,20,68.06,21.4,60,24.13,51,29.52,44.66c1.88-2.22,4.57-4.24,7.61-3.42,4,1.08,6.35,6.18,7.89,9.59,3.55,7.88-2.27,18.47-10.08,21.33-4.21,1.55-8.42-1.43-9.7-5.45C24,62.9,26,58.26,27.66,54.92c3-6.06,9.72-15,17.36-14.63,9.14.48,13.35,10.39,11.67,18.36-1.35,6.44-12.5,15.46-17.2,7.09-3-5.4-.24-14,3.55-18.33,4.93-5.57,13.55-6.57,20.31-4.49,8.95,2.76,12,13.19,6.09,20.53-7,8.74-18.26-1.29-15.27-10.32,2.59-7.82,12.42-12.6,19.75-14.52a20.72,20.72,0,0,1,11.29,0c5,1.56,8.32,7.61,7.11,12.63-1.44,5.94-8.22,5.19-12.66,4S73,50.58,73,46.23c0-7.56,6.1-15.16,12.18-19,7-4.45,16.34-1.22,20.38,5.86,3.21,5.64-8,4.55-10.56,4-4.81-1-9.47-4-10.64-9s2-9.35,7-7.59a14.41,14.41,0,0,1,8.16,7.83c1.83,4.92-6.42,7.48-9.88,7.52-5.28.05-10.11-3.47-12.7-7.86s-1.22-8.68,1.95-12.18c2.72-3,8.66-5.79,10-.09,1.12,4.68,1.14,12.53-2,16.53-2.26,2.86-6.12,2-9,.64C70.61,29.5,64.15,21.87,61.1,14.5,60,11.86,59,8.1,61.42,5.88c3-2.82,9.25-1.07,12.63-.07,2.81.83,6.52,2.47,6.77,5.83.22,2.88-2.18,5.56-4,7.45C70.85,25,62.52,29,54.63,31.6,49,33.46,39,36.21,34.21,31c-2.54-2.8-1.64-7.3-.68-10.53,2-6.84,5.56-13,12.74-15.19s16.23.36,20,7.12C71.71,21.94,62.2,31,52.85,31,44.25,31,32.48,15.7,41.68,8.78c6-4.48,15.47-3.69,22.24-2C70,8.21,79.27,12.3,78.11,20.06c-.69,4.6-4.72,8.26-8.12,11a64.53,64.53,0,0,1-16.47,9.69c-2.14.85-6,2.34-8,.43-1.64-1.56-.64-4.78-.07-6.57,2.26-7.1,7.28-13.64,12.34-19C61.48,11.75,68.28,5,74.36,7c3.22,1,4.37,5,5,8,1.37,6.87.68,13-4.21,18.26C70,38.74,61.12,43.57,53.37,42c-4.08-.84-6.85-4.69-7.12-8.71-.29-4.24,3-8,6-10.56C58.15,17.45,67.39,13.53,75,17.2c8,3.91,12,13.39,8.12,21.6-4.41,9.3-16.67,11.28-24.92,6.36-4-2.37-6.76-6.56-6.56-11.23.22-5.13,5.62-9.91,10.29-11.2,15.29-4.21,40.59,20.67,21.4,31.65-12.14,7-22.87-15.41-13-22.52,6.48-4.68,17-1.6,23.64,1s16.54,7.91,17.56,15.88c.52,4.09-2.62,7.22-5.75,9.29-6.63,4.38-15.19,6.75-22.36,2.34-8.88-5.46-9-17.34-2.41-24.51,5.6-6.1,16.44-5.5,22.94-1.43,7.91,5,5.1,14.92-1.73,19.29-5.83,3.74-13.81,4.35-20.42,2.79-7.54-1.77-11.72-7.61-9.3-15.24,3-9.44,15.21-6.74,20.8-1.77,8.13,7.23,4.33,18-4.06,22.88-7.66,4.42-20.56,4.4-25.67-3.91-2.62-4.26.46-8.18,4.74-9.14,4.09-.92,8.88.8,12.73,2.17s8.44,3.63,9.26,7.93c1.35,7-9,12.87-14.05,15.3-3,1.46-16.1,6.79-16.44-.15-.2-4.19,3.83-9.5,6.59-12.21,5.14-5,13.9-6.41,20.71-5.13,7.71,1.45,14,9.44,9.47,17-3.78,6.34-13.47,8.37-20.14,6.6-9.23-2.45-9.3-14.24-1.68-18.65a12,12,0,0,1,18,10.67c-.22,8.21-9.09,14.21-16,16.45-7.79,2.5-16-.08-18.66-8.25a14.77,14.77,0,0,1,.19-10c2.35-5.54,8.52-2,11.6.65,9.47,8.23,1.71,20.12-7.77,23.6-8.83,3.24-20.63-1.18-22.91-10.92-1.41-6,4.09-11.41,9.23-13.3,6.16-2.27,12.42,2,14.1,7.9,1.46,5.13-1.94,11-6.15,13.74-3.65,2.39-8.44,2.38-12.54,1.49C35.44,92.4,28.43,85,30.64,76a9.69,9.69,0,0,1,8.63-7c5.14-.46,8.3,3.88,9.58,8.27,1.37,4.7-1.17,9.24-5.24,11.53-4.77,2.68-10.28.74-13.72-3-6.32-7,1.13-19.22,6.68-24.08A11.66,11.66,0,0,1,48.8,59.3a8.46,8.46,0,0,1,5.86,9.8C53.42,76.32,46,82.22,39.15,83.55c-9.82,1.91-20.82-4.21-20.39-15,.36-9.11,10.52-18.84,19.84-17,9.1,1.78,8.64,14.86,3.17,20.06-8.44,8-31.69,7.41-36.27-4.91-1.62-4.36-1.65-11.57.81-15.66,2-3.25,5.94-3.35,9.23-2.58,7.88,1.85,15.36,8,20.32,14.19,1.5,1.88,4.21,5.41,3,8-1.48,3.25-8.37,1.3-10.72.79-4.82-1-19.32-4.81-12.44-12.09,4.94-5.23,13.53-7.51,20.37-8.64C40.71,50,52,48.83,52,56.09c0,4.74-4.46,10.15-7.68,13.08C35.59,77.17,23,67.52,22,57.74c-.74-7.46,7.27-14.66,13.82-16.65,9.47-2.86,8.05,10.93,6.55,16.28-2.94,10.46-12.72,6.56-18.46,1C19.52,54.11,12,43.54,18.38,38c4.12-3.59,12.46-2.43,17.05-.89,9.91,3.33-1.57,13.59-5.64,16.38A31.36,31.36,0,0,1,20.05,58c-5.12,1.34-11-1.18-14.94-4.44-10.08-8.39.7-21.17,10.5-23,7.43-1.4,21.14,3.19,16.13,13-5.51,10.74-20.81,10.15-27.16,1-2.64-3.8-3.9-9.94-2.29-14.36C3.65,26.4,6.82,23.31,9.93,21c5.27-4,14.27-7.58,19.66-1.93C41.9,31.92,12.12,55.1,3.93,41c-3.79-6.53,3.94-15.09,8.34-19,5.49-4.88,13.82-9.29,20.86-5.17,6.75,4,6.55,13.32,2.74,19.17S24.22,42.62,18.29,39.6c-8.16-4.16-3.68-14.65-.14-20.38C22.53,12.16,29.37,4.83,37.3,1.84c2.76-1,6.09-1.28,8,1.35,2.06,2.82,2.74,10.49.61,13.29l1,.26c0-1.66,1.44-3.45,1.68-5.14.09-.66-.91-.94-1-.28Z"/><path class="cls-1" d="M82.35,86.9c-.8-1.63-.62-4-1.64-5.44a.53.53,0,0,0-.95.33c-.18,3.63,4,8.49,6.85,10.54a6.32,6.32,0,0,0,6.82.62c6.39-3.23,8.38-13.72,9.29-20,1.08-7.51,1.27-17.43-3.83-23.65-5.49-6.7-16.2-2.36-20,3.86-6,9.7,3.33,24.74,14.92,21.8s15.55-20.88,13.3-30.92c-1.1-4.89-4.74-8.33-9.86-8.26-5.82.08-9.69,6.55-11.67,11.19-2.3,5.38-3.56,12.46-1.07,18,1.93,4.27,7.81,7.71,12.47,6.53,10.59-2.68,16.86-19.61,11.89-28.86-7.77-14.45-29.13-11.58-32.38,4.63-1.12,5.6,1,10.92,7,12s12.59-2.63,16.51-7c4.72-5.2,6.26-14.41,2.42-20.45S90,26.34,84.08,28.25c-6.39,2.08-9.8,8.23-12.11,14.17-1.75,4.51-3.44,10.88-.79,15.37,4.51,7.64,19.4-3.46,21.23-9.19C94.56,41.83,86.06,37.06,81,35.17c-5.87-2.18-14.77-3.65-19.87,1-6.33,5.82,1.46,19.12,7,22.32,4.31,2.5,8.12-1.85,10-5.27,2.61-4.85,3.89-11.95,1.63-17.14-2.68-6.18-9.9-9-16.23-8.64-7.3.4-12,6-12.66,13-.43,4.76-.67,15,6.35,15.23,6.21.18,12-5.66,15.86-9.85,4.25-4.64,9.2-11.07,9.65-17.61.44-6.37-6.24-6.4-10.82-5.42-3.87.82-18.42,4.33-16.75,10.82,1.39,5.38,12,6.49,16.26,7,6.52.7,15.86.85,21.07-3.92,6.41-5.85-.61-14.65-5-19.23-7.9-8.25-22.87.09-29.21,6.16-3.84,3.68-6.74,8.69-6.47,14.14.29,5.6,5.1,11.25,10.54,12.4s10.21-3.42,12.53-7.87c3.35-6.37,3.07-15.15-1.15-21-3.92-5.44-11.09-6.45-17.13-4.7A20.82,20.82,0,0,0,42.77,30.26c-1.64,5-1.65,11.27,1.54,15.71s9.81,4.21,14,1.64c10.09-6.24,8.85-27.84-2-32.78C43.53,9,33.17,27.6,45.11,35.29c4.83,3.1,10.54,2.71,14.19-1.95,3.83-4.88,1.76-10.84-1.86-15C49.33,8.89,31.29,15,27.66,25.72a13.74,13.74,0,0,0,6.92,16.7c6.94,3.24,14.13-1.57,16.47-8.15,2.26-6.36.13-12.67-5.95-15.68S31,17.22,25.75,21.27a20.45,20.45,0,0,0-7.49,18.85c1.15,7,7.41,10.36,14,10.72,5,.28,9.6-2.47,8.51-7.91-1-5-5.67-9.39-10.3-11.08C17.87,27.25,8.1,43,7.47,53.51c-.78,12.83,14.19,19.62,22.87,9.83A11.27,11.27,0,0,0,17.57,45.27c-10,4.1-17.64,19.16-6.67,26.47,10.16,6.78,23.31-4.34,27.23-13.38,1.8-4.16,3.24-17.55-3.22-19.13C29.72,38,24.61,46,22.45,49.44,19.1,54.85,15.64,62.54,17.52,69c2.29,7.91,12.92,5.3,18.47,3.45,5.06-1.69,12.13-5,11.1-11.51-1-6-8.8-6.56-13.38-5.67C21.2,57.75,10.25,74.67,19.51,85.75c6.7,8,26.65,6,26.74-6.57,0-4.91-2.88-10.5-7.84-12-5.2-1.54-10.57.41-15,3.08C14.69,75.47,5.12,89.39,15,98.16c4.28,3.8,11,2.64,15.76.54,5.79-2.58,10.39-7.79,11.31-14.13,2-14.26-14.05-23.65-25.82-16.25C10.15,72.18,2.63,84.1,6.78,91.51c3.34,6,12.57,6.21,18.46,5.79C35.75,96.55,62.17,88,50.91,73,48,69.17,42.79,65,37.79,64.91c-6.12,0-10.44,4.47-11.54,10.27-3,15.65,17.15,19.11,28.11,16.69C60,90.62,65.77,87.32,67.44,81.45c2-6.94.83-13.49-6.39-16.5-13.44-5.59-27.63,8.53-24,21.9,1.6,6,6.9,10,12.7,11.43A16.4,16.4,0,0,0,66.23,93.2C73,85.73,79.8,66.35,65.08,63.31c-5.79-1.19-10.81,3.89-13.76,8.16A29.65,29.65,0,0,0,46,90c.49,6.17,8,16.47,15,16.78,5.57.25,8.45-6.07,9.86-10.51a60.94,60.94,0,0,0,2.37-22.63c-.28-3.91-.84-11.78-5.32-13.48C62.37,58.1,57.62,69.07,56,72.35c-3.48,7.09-9.18,19-3.81,26.59,3.71,5.24,11.57,4.33,16.9,2.85,9.46-2.64,30.37-16.27,16.64-26.71-4.11-3.12-9.87-5.16-15-4.15C64.46,72.18,60,78.18,58.9,84.21s2.85,11.68,8.32,14,11.52.44,16.13-2.53c9.88-6.37,9.72-18.85,4.83-28.44-2.85-5.59-8.24-6.41-13.45-3.53C68,67.41,63,74.54,59.22,81c-3.53,6-7.16,13.51-6.77,20.67.32,6,5.41,7.28,10.52,6,4.62-1.18,15-5.46,11.51-12C71.25,89.55,62.31,87,56.11,85.7,51,84.63,41.14,83.36,37.89,89c-1.65,2.84-.7,6.17.58,9C40,101.24,44,108.93,48.3,109c5.07.14,6.74-6.68,6.85-10.6.19-6.76-5.56-10.57-11.7-11.35-6.6-.83-13.25,2.82-15.49,9.12-1.9,5.32,1.6,7.8,6.43,8.81,3.37.71,10.93.69,11.76-4,1.09-6.1-4.79-10.64-10.23-11S22,92.91,19.55,98.17c-2.05,4.33,5.83,5.82,8.35,5.93,6.29.26,11.4-1.69,14.65-7.24C45.63,91.6,46.29,84.31,45,78.42c-1.1-5.1-3.74-10.26-9.35-11.18s-12.6,2.86-14,8.33C20,82,27.16,86.17,32.4,87c5.82.94,11.47-4.51,14.78-8.53C54,70.17,60.55,51,45.25,47.37,39.87,46.1,35.18,50.22,34,55.19c-1.36,5.69,2.36,12.35,7.34,15,10.46,5.53,23.6-5.28,25.42-15.41C67.89,48.29,61.57,31,52.37,36.47,40.68,43.45,47,60.07,58,63.69,72.85,68.58,76.4,50.06,75.22,39.61,74.6,34.1,72.62,28.16,67,26.15s-9.87,2-11.54,7.08c-1.94,5.84-.9,13.16,3,18,2.62,3.22,7.8,5.54,11.83,6.29,16.43,3.07,6.54-27,3.72-33.28-2.12-4.69-5.84-12.67-11.64-13.65-6.19-1-8.66,10.19-7.79,14.28,2.05,9.55,14.16,22.24,22,10.32C83.67,24.41,65.39,16.54,57.19,19c-5,1.52-16.53,6.69-13.17,13.85,2.63,5.61,11.1,7.6,16.61,8.1,5.7.52,13.28-.61,15.23-6.91,1.15-3.69-.43-8-2.09-11.23-2.93-5.74-7-11.94-12.63-15.33C52.69,2.42,45.15,10.6,45.36,19c.27,11,15.61,18.64,25,13.55,8.79-4.78,9.45-20,.63-25.3C63.1,2.55,50.21,8,51.21,18c.88,8.68,10.09,16.25,18.48,16.81S87.94,25.61,84.54,17C81,7.9,66.77,6.66,58.69,7.86c-10.94,1.63-19.48,10.31-17,21.93,2,9.56,14.12,13,19.53,4s-4.69-23.2-14.78-22c-9.07,1-14.07,11.62-9.55,19.28,1.82,3.09,6.62,7.63,10.65,6.65,3.68-.9,4.78-5.13,5.06-8.43A22.75,22.75,0,0,0,44.35,9.84c-6.39-5-17.18-4.3-23.06,1.22C9,22.58,20.77,46.31,36.16,47.72a.54.54,0,0,0,.61-.42c1.29-6.51,2.2-18.71-7.54-18.42-5.79.17-12.6,5.39-13.39,11.28-.39,2.9,1.4,5.46,3.81,6.9,3.6,2.16,10.44,4.6,14.17,1.76s.46-9.81-1.44-12.77c-3-4.66-7.24-6.22-12.57-5.21C11.63,32.4-2,42,.54,51.92,1.9,57.21,7.26,59.32,12,60.85c3.21,1,7.38,1.87,10.55.21,5.64-3,4.3-10.87,2.8-15.83-1.69-5.6-5.11-12.93-10.61-15.73-6.48-3.3-7.8,7.41-8.06,11.24-.38,5.42-.77,12.1,5.5,14C17.72,56.5,24.32,52.26,27.51,48c6-7.9,3.55-21.62-2.64-28.68C16.66,10,8.61,22.89,6.26,30.33c-7.67,24.22,21.85,40.2,42.48,36.53,10.61-1.89,18-10,18.51-20.84.2-4.25.88-18.35-6.32-18.54-5.7-.16-10.1,7.29-12.41,11.53-3.36,6.18-6,14.12-4.2,21.16C46.4,68.28,55.26,69,62.19,67.75,68.59,66.63,73,64.27,76.92,59a40.16,40.16,0,0,0,7.63-20.39c.45-5.39-.87-11.95-5.86-15S68.28,20.49,64,24.76c-4.77,4.74-6.29,12.65-7,19a38.62,38.62,0,0,0,2.8,19.54C62,68.82,66.44,80.68,73.89,81c5.57.24,8.52-6.73,10-11a63.14,63.14,0,0,0,3.21-23.59c-.24-5.29-1-13.36-6-16.55C75.21,26.06,67.2,33,64.43,37.78,58.18,48.45,68,62.74,79,64.57c13.62,2.25,23-14,19.93-25.88-2.1-8-14.58-13.75-22.17-9.89C70.57,32,69.2,39.87,69,46.17a51.82,51.82,0,0,0,5.5,24.23c2.36,4.65,7,11,13.1,9.62,8-1.85,14.1-14.45,14.42-21.77.52-11.85-10.12-25.9-23-19.23C68.34,44.57,68.2,59,72.92,68.65,78,79,90.77,81.89,98.34,72.1S97.18,47.76,86.26,45.76C73.12,43.34,62.54,59.27,59.4,69.94c-1.63,5.55-1.34,11.43,2.83,15.71A9.88,9.88,0,0,0,74.91,87.2C84.1,81.74,89.66,65.61,84.85,56c-6-12.06-20.79-8.12-27.49.93-6.88,9.3-4.51,25.2,6,31,5.12,2.85,11-.25,14.42-4.3,3.13-3.74,3.23-8.82,1.48-13.17-4.1-10.18-17.39-15.24-27.07-10-7.79,4.19-21,19-12.37,27.68,4.16,4.18,11.54,4.25,15.9.53S61,78,60.43,72.55c-.66-5.83-3.86-11.49-9.51-13.64-5.91-2.24-12.27.6-16.84,4.34-9.73,7.93-13.22,24.06.48,29.88C46.05,98,58.08,87,51.75,75.4,46,64.85,28.32,69.86,23.07,78.12c-2.65,4.18-1.7,10.42,2.61,13.12,4.81,3,10.92,2.16,15.53-.8,9.61-6.18,6.78-24.06-5.47-24.31C24,65.89,14.39,79.65,19.43,90.29c5.65,11.94,25.39,9.62,31.72-.2,7.41-11.51-4.38-24.89-16.74-21.64-6.35,1.67-9.91,8.15-9.59,14.36s5,11.2,10.07,14c10.12,5.65,22.94,0,26.5-10.86,2.1-6.44-3.66-10.76-9.12-12.47a35.27,35.27,0,0,0-23.3.71c-6.5,2.69-9.41,8.46-6.46,15a26.41,26.41,0,0,0,3.87,5.89c1.09,1.33,4.07,5.55,5.75,5.6,5.93.19,3.47-9.88,2.1-13.27-3.09-7.65-16.86-19.71-23.49-9C3.08,90.91,23.56,97.13,32.27,93.34c4-1.73,8-6.46,10.2-10.1,1.38-2.27,2.07-5.08.86-7.55-2.58-5.27-10.84-6-15.9-6.27-5.33-.23-13.18,0-17.38,3.88-4.84,4.5,6,9.1,8.63,10.2,12.77,5.3,26,2.17,36.35-6.88C64.93,68,68.14,53.47,57.92,43.7,54.05,40,48.15,38,43.82,42c-4,3.65-4.45,11.31-3.55,16.32,1.31,7.33,8,9.84,14.68,8.71,14.64-2.46,30.88-19.84,17.52-33.24-2.09-2.1-13.77-11.43-16.32-5.38-2.06,4.91,3.51,12.54,6.17,16.13,3.2,4.32,9,11,15.13,9.78C85.53,52.66,85.6,37.9,85.13,32c-.57-7.16-5-12.82-12.63-10.73C66.41,23,60.43,29,59.84,35.4c-.88,9.76,12.1,12.34,19.2,13,8,.79,16.58-2.37,17-11.5.31-7.13-3.47-15.57-9.71-19.35-8-4.84-14,2.44-16.79,9.44-4.39,10.85,3.71,24.78,16.4,20.42S98,27.48,92.35,18C86,7.35,72,6.36,65.59,17.66c-5.9,10.39,0,27.21,12.07,29.87a.54.54,0,0,0,.57-.29c2-5,1.18-11.14.2-16.27-1.15-6-3.38-12.12-7.62-16.59a10.69,10.69,0,0,0-13.53-1.87c-4.52,2.87-5.54,8.7-5,13.63.79,7.24,9.26,21.11,17.21,12.1,6.64-7.53-2.66-20.9-8.05-26.13-4-3.87-9.33-6.77-15-6.23-5.83.55-10.57,5.52-12.28,10.88-3.69,11.63,2.18,30.58,17,29.4a.52.52,0,0,0-.07-1C33.79,46.51,28.72,18.94,40.35,9.52,52.19,0,66.15,16.34,69.51,26.68c1.64,5.07,1.21,13-5.76,13.34-6.63.29-10-9.62-10.52-14.69-.82-7.54,4.64-15.93,13.1-12.79C73,15,75.83,24.1,77.24,30.33a44.71,44.71,0,0,1,1.08,10.31A22.8,22.8,0,0,1,77.85,45c-.5,2.48-2.64.79-4.24-.1-7.17-4-10-13.71-8.9-21.35C66,15,74.33,8.11,83,11.08c6.86,2.36,10.81,10.16,12,16.83,1.44,8-2.14,16.07-10.18,18.83-8.89,3-16.16-5.83-15.67-14,.32-5.35,3.94-12.94,9.15-15.19,3.74-1.62,7.58.59,10.23,3.17C94,26.08,98,37.36,92.25,43.89,88.25,48.4,81,47.77,75.65,47,70.6,46.21,64,44.48,61.58,39.46c-3.51-7.14,4.77-15,10.87-17.07,12.41-4.2,12.3,12.91,11.07,20.45-.6,3.71-1.89,9-6,10.35-3.15,1-6.59-1.43-8.86-3.32C63.41,45.49,58.08,38.21,57,31.3c-.46-2.95,1.05-4.2,3.89-3.47C65.88,29.12,71,33,74,37.1c6,8.1.54,17.45-6.27,22.85-5.68,4.5-16,9.25-22.83,4.4-3.89-2.78-4.2-8.21-3.79-12.53s2.05-10,7.06-11c4.47-.86,8.9,3.12,11.42,6.27C71.56,62,54.52,78.9,40.83,83.64c-7.53,2.62-14.45,1.84-21.71-1.08-2.89-1.16-8-3-9.08-6.33C8.2,70.48,40.68,66,42.87,77.54c.75,4-3,7.88-5.56,10.41s-5.06,4.75-8.71,5.38a22,22,0,0,1-12.31-1.91c-4.22-1.88-7.08-5.63-5.54-10.32,1.25-3.83,4.16-6,8.22-5.61,7.23.8,13.12,8.24,15.12,14.7a16.26,16.26,0,0,1,.54,6.32c-.08.79-.64,4.77-2.89,2.72-.66-.59-1.29-1.21-1.92-1.84a33.94,33.94,0,0,1-5.9-7.59c-2-3.58-2.43-7.78.3-11.08,5.09-6.14,16.05-6.34,23.21-5.26,6.9,1.05,16.23,5.27,12.37,13.75C57,93.32,50.68,98.08,44,98.2c-8.32.16-16.59-6.44-18-14.64C24.16,73.1,35,66.5,44,70.09s10.73,15.13,4.27,22c-5.92,6.29-17.38,6.79-24.25,2-7.62-5.29-5.59-15.73,0-21.56,4.54-4.72,13-7.76,18.43-2.83,7.26,6.59,3,18.5-5.23,21.57-8,3-17.8-3-13.56-12.08,3.21-6.85,13-9.46,19.82-8.2,9.22,1.7,12.12,14.12,4.81,19.88-6.6,5.19-16.51,1.6-20.55-4.92C23,78.27,29.42,68.38,35.35,63.54,42,58.1,51.69,57.28,56.82,65.09c4.17,6.36,3.83,16.57-1.29,22.26-3.17,3.52-8.27,3.47-12.32,1.74-4.47-1.92-5.73-6.09-4.67-10.52,1.63-6.75,7.58-13.41,13.44-16.9,6.59-3.92,14.7-2.64,20.6,1.87,5,3.79,8.34,10.48,6,16.63-1.32,3.46-4.64,6-8,7.31-4.37,1.64-8.46-1-11.16-4.24-10-12-3.53-33.5,13.35-34C81.36,49,86,57.69,85.5,65.27a31.06,31.06,0,0,1-8.57,19C71.18,90.1,62.46,88,60,80.05c-2.4-7.7,2.65-16.93,7.09-22.85C71.74,51,78.69,45.42,86.88,46.93c7.8,1.43,13,9.41,13.09,17,.09,8.27-8.32,14.75-16.28,13.11-6.52-1.34-10.28-8.37-11.86-14.22-1.77-6.53-1.09-14.23,3.37-19.54,5.85-7,16.07-5.68,21.5.91S101.87,59.56,98.36,67c-2,4.24-4.68,8.91-8.9,11.29-7.06,4-12.68-5.22-15-10.49a49.38,49.38,0,0,1-4-25.93c1-8,5.74-14.42,14.47-12.8,7.91,1.46,13.73,6.65,13.69,15S92.21,62.58,83.24,63.54C74.91,64.44,68,58.86,65,51.39S64.75,37,71,32.42s11.5-2.09,13.68,5c2.37,7.73,1.72,16.6.28,24.43-1,5.6-3,15.24-9,17.78C68,83,61.9,65.89,60.09,61.33c-2.94-7.42-2.79-15.21-1.21-23,1.46-7.15,5.55-17.31,14.55-15.76,9.92,1.7,11,12.41,9.45,20.46C81.35,50.78,77.16,59.37,70.56,64c-4.49,3.11-12.41,4-17.72,2.93a9.63,9.63,0,0,1-7.54-7.06C43.14,52.32,47,43.29,50.88,37c2.31-3.73,9.53-12.89,13.42-5.86,2.51,4.55,2.28,11.49,1.78,16.44a20,20,0,0,1-9.22,15.18c-10.5,6.64-25.37,3.61-35.56-2-12-6.6-18.63-19.19-13.19-32.39,2.06-5,6.56-13.89,13.32-10.47,5,2.53,7.21,9.61,8,14.7,1.07,6.83-.53,13.9-6.18,18.26-3,2.34-7.12,3.73-10.91,2.92-5.53-1.17-4.89-8-4.71-12.22.14-3.18.3-9.64,3.76-11.32,2.49-1.2,5.29,1.83,6.69,3.48,4.54,5.32,8.09,13.55,7.42,20.64-1,11-16.68,5.87-21.77,1.19-5.48-5-.46-12.67,3.61-16.66,4.56-4.48,11.65-8.34,18.21-7.08C31.21,32.87,39.42,48,30.53,49c-4.42.5-12.26-2-13.57-6.82-1.88-6.92,9-13.43,14.74-12,5.19,1.3,5.14,8.42,4.75,12.54-.12,1.24.07,4-1.54,3.82A16,16,0,0,1,30.25,45a22.48,22.48,0,0,1-8.12-7.35C18.09,32,16,24.19,18.26,17.46c2.61-7.93,12-11,19.54-9.49,7,1.35,11.4,7.73,13.1,14.23,1.06,4,1.77,12.61-3.34,14.4-2.75,1-5.83-1.81-7.65-3.48A11.82,11.82,0,0,1,36,24.31c0-5.71,5-10.63,10.45-11.52C54.24,11.5,60,19.63,61.28,26.3A9.67,9.67,0,0,1,50.51,38c-8-1-9.1-11.06-7.43-17.29s7.76-9.93,13.75-11.41c8.37-2.07,29.34-.12,27.22,12.83-1,6.1-7.12,11.27-13.15,11.63-5.57.32-10.94-3.17-14.47-7.2-3.18-3.64-5.54-9-3.45-13.73C55.75,6.56,65.73,4.9,71,8.47c5.6,3.83,6.4,12.38,3.76,18.11-3.83,8.32-14.54,7-21.26,3.41a13.45,13.45,0,0,1-6.54-15.48c1.53-5.71,7-9,12.57-6.67C66,10.52,71,18.92,73.69,25.13c1.6,3.7,2.44,8.33-.47,11.59-4.91,5.49-15.57,3.49-21.45,1.07-2.8-1.16-6-3-7.1-6.06-1.32-3.77,3-6.8,5.68-8.43,6.65-4,13.36-5.11,20.38-1.23,3.21,1.77,6,4.79,6.2,8.59.23,4.47-4.56,8.91-8.9,8.44-6.74-.74-11.9-9.75-12.58-15.8C55.06,19.85,56.93,14.05,60,12c5.5-3.6,11.54,9.22,13.06,12.49C76.5,32,79.3,40.92,78.44,49.2c-.3,2.9-1.38,6.07-4.36,7.12-3.93,1.37-8.73-1.52-11.92-3.47-7.38-4.5-8.54-16.53-3.72-23.3,2.61-3.65,7.76-3.57,11.09-1,3.16,2.46,4.14,7.4,4.66,11.1.93,6.69.46,17.9-6.09,21.88-7.82,4.75-16.88-1.06-20-8.58-2.51-6.08,1.61-19.82,10.2-15.56,5.55,2.75,8.12,11.45,7.41,17.14-.93,7.37-7.48,13.06-14.24,15.16-8.94,2.77-17.33-4.13-16.61-13.52C35.74,45,50.68,47,53.3,56.11c2.28,7.92-3.14,17.41-8.12,23.13a20.6,20.6,0,0,1-9.29,6.4c-5,1.55-11.17-1.58-13-6.41-2.17-5.72,3.86-8.93,8.19-10.45s8.11.06,10.56,3.65c4.28,6.24,3.52,16,.67,22.58-3.29,7.64-12.8,10.23-20.13,6.66-5.83-2.85,4-8.25,6.44-9.29,4.52-1.92,10.06-2.07,13.84,1.39S46.11,102.61,41,104a14.31,14.31,0,0,1-11.14-1.87c-4.29-3,1.08-9.79,3.91-11.77,4.33-3,10.3-2.84,14.91-.68s5.92,6.48,5.27,11.15c-.55,4-3.88,9.67-8.21,5.73-3.57-3.24-8-9.7-7.66-14.79.26-3.64,4-5.09,7.05-5.59,8-1.27,17.6,1.4,24.27,5.76,2.39,1.56,5.32,4.11,4.6,7.29-.91,4-7,6.11-10.39,7.19-2.78.9-6.77,1.63-8.87-1-1.81-2.26-1.34-5.83-.86-8.44C55.38,88.71,60,80.73,65.07,74.15c3.64-4.74,10.32-12.64,17.21-11,3.68.88,5.48,5.1,6.51,8.32,2.18,6.78,2.76,13.91-2,19.73S73.23,100,66.27,96.61c-9.85-4.85-7.09-17.67.63-22.94,7.09-4.85,25.43,1.11,21.74,12-2.39,7.06-10.7,11.78-17.21,14.24-5.88,2.23-15.82,4.07-19.24-3-2-4.19-.76-9.48.49-13.69A64.14,64.14,0,0,1,60.81,66c1.29-1.92,3.63-5.33,6.37-4.88,2.23.36,3.22,3.58,3.76,5.39,2.14,7.14,1.69,15.36.52,22.62-.85,5.32-2.67,14.72-8.78,16.53-3.25,1-6.45-1.68-8.59-3.78-5-4.9-7.88-10.32-6.82-17.45,1.11-7.48,5.69-16.45,13-19.51,3.85-1.62,8.3,0,10.8,3.17,2.63,3.33,2,8.27,1,12.07-1.94,7.71-7.36,16.16-15.69,17.4-8.86,1.32-17.48-4.28-18.89-13.25-1.61-10.17,7.4-18.72,17-19.31a12.73,12.73,0,0,1,11.74,5.58c2.71,4.35,1,11.34-2.18,15C53.82,97.68,18.9,91.4,28.54,71.51,34.65,58.92,56.12,71.34,52,82.77,49.28,90.28,38.86,93.68,31.9,95.26s-18.13,2.8-23.46-3.2C5.7,89,6.53,84.62,8,81.14,11,73.79,16.69,67,25.09,66.6c10.42-.51,17.21,9.24,15.82,18.88-1.19,8.18-10.48,13.81-18.14,14.11-9.33.37-12.62-9.44-9.45-16.89,2.7-6.39,9-11.39,15.28-13.83,7.23-2.79,14-.33,16.28,7.33,2.86,9.49-8.76,14.15-16.17,13.2C17.91,88,14.94,76.94,19.15,68.22,23,60.25,33.64,53,42.55,57c4.56,2,4.24,7,1.24,10.22-2.85,3.06-7.78,4.35-11.73,5.39s-9,1.76-12.12-1.32c-5.09-5.07.16-15.7,3-20.57,1.67-2.9,9.46-14.68,13.66-9.14,2.52,3.34,2.2,10,1.44,13.79-1.4,7.06-7.85,13.13-14.2,15.92-7.18,3.15-16.87.09-17.42-8.72-.46-7.37,6.4-14.51,12.9-16.81,9-3.19,15.71,6.52,11.91,14.45a12,12,0,0,1-20.93,1.37c-4.44-6.9-.51-16.86,4-22.63,5-6.46,13.25-9,20.06-3.72a14.8,14.8,0,0,1,5.51,8.41c1.18,5.9-5.89,6.47-9.94,6C17.41,48.16,17.11,34,23,25.75c5.46-7.66,17.7-10.67,25.07-3.91C52.62,26,51.11,33.56,47.94,38c-3.81,5.35-11.38,5.37-16.1,1.43C27.74,36,27.25,29.3,29.17,24.64c1.66-4,5.62-6.72,9.51-8.3,7.94-3.21,17.92-1,21.14,7.59A9.7,9.7,0,0,1,56.65,34.6c-4,3.27-9,1.48-12.58-1.43-3.78-3.1-4.24-8.29-2.17-12.47C44.33,15.79,50,14.28,55,15.47,64.1,17.66,64.85,32,63,39.13A11.67,11.67,0,0,1,54.26,48,8.43,8.43,0,0,1,43.9,43.2c-3.06-6.66-.28-15.71,4.64-20.68,7-7.11,19.57-8.27,25.3.88,4.84,7.72,1.94,21.48-6.79,25.23-8.53,3.66-15.52-7.4-13.94-14.78,2.44-11.39,22-24,32.72-16.4,3.8,2.68,7.89,8.61,8.17,13.39.21,3.78-3,6.11-6.17,7.33-7.55,2.91-17.19,2.06-24.79-.26-2.29-.7-6.52-2.09-7-4.89-.62-3.52,6.18-5.79,8.4-6.69,4.57-1.86,18.67-6.93,17.09,3-1.13,7.1-6.94,13.83-11.94,18.62-3.37,3.23-12.09,10.55-16.17,4.54-2.66-3.91-2-10.89-1-15.13C55.09,25.79,71,26.62,77.28,34.14c4.82,5.75,2.28,16.21-2,21.55-6.2,7.7-12.81-4.48-14.59-9.75-3.47-10.29,6.8-12.59,14.7-11.22,6,1,18.14,5.54,16,13.69-1.38,5.28-8.92,9-13.58,10.35-10.06,2.84-6.37-12.11-4.58-16.71a31.2,31.2,0,0,1,5.48-9.22c3.48-4,9.78-5.25,14.85-4.77,13.06,1.25,11.37,17.88,4.31,24.93-5.35,5.35-19.25,9.29-20.62-1.6-1.51-12,11.45-20.12,21.85-16.14,4.33,1.65,8.83,6,10,10.56,1,3.88.13,8.21-1.11,11.92C105.9,64,100.48,72,92.85,70.41c-17.45-3.71-5.94-39.64,8.81-32.59,6.8,3.26,5.26,14.68,3.83,20.41-1.77,7.13-6.16,15.47-14.31,16C83.38,74.81,78.27,67,78.11,60S84,47.89,90.56,47c9.08-1.17,11.31,10,11.61,16.75.37,8.3-1.15,18.21-6,25.16-1.69,2.41-4.31,4.49-7.37,3.4-3.29-1.16-8.18-7.12-8-10.63l-1,.33c1,1.36.76,3.66,1.52,5.19.29.59,1.27.26,1-.34Z"/></g></g></svg>