<svg xmlns="http://www.w3.org/2000/svg" viewBox="0 0 146 70.11"><defs><style>.cls-1{fill:#cca269;}</style></defs><title>slider--l</title><g id="Layer_2" data-name="Layer 2"><g id="explore-details-datasets"><path class="cls-1" d="M-3746.56-1262.45c9.07,4,18.74,6.74,28.11,10q15.36,5.26,30.71,10.59,14.88,5.17,29.71,10.47c10.14,3.62,20.29,7.75,30.68,10.59,1.14.32,2-1.44.83-2-18.75-8.62-39.09-14.56-58.56-21.33q-14.88-5.17-29.8-10.23c-10.19-3.43-20.43-7.45-30.92-9.88-1-.24-1.84,1.34-.76,1.81Z" transform="translate(3748 1266)"/><path class="cls-1" d="M-3660.86-1235.71c-1.72,3.82-.41,7.54,1.13,11.24,2.65,6.35,4.34,12,3.47,19-.1.83,1,1.08,1.51.63a21,21,0,0,0,7.24-16.43l-1.83.49a112.49,112.49,0,0,0,14.42,24.43,1,1,0,0,0,1.83-.24c2-7.31,3.62-15.35-1.5-21.72l-1.45,1.45c3,3.11,5.73,6.44,9.84,8,7.92,3.06,15.41,5.89,22.67,10.4,1,.59,1.84-.54,1.42-1.42-5.72-12.05-12.22-24.76-24.8-30.8-.08.64-.17,1.28-.25,1.92a65,65,0,0,1,21.18-.82c1.14.14,1.29-1.43.54-2a49.66,49.66,0,0,0-35.34-8.63l.53,2,15.23-8.61a1,1,0,0,0-.52-1.94c-12.89-1.09-28.09,1-35.53,12.92-.64,1,.91,1.86,1.6.93,8-10.82,21.34-12.84,33.93-11.77l-.53-1.94-15.23,8.6c-.84.48-.54,2.09.52,2a47.93,47.93,0,0,1,34.27,8.35c.18-.65.36-1.3.53-2a66.69,66.69,0,0,0-21.74.89,1.07,1.07,0,0,0-.25,1.93c12.25,5.87,18.49,18.31,24.06,30l1.43-1.42a98.9,98.9,0,0,0-20.31-9.64c-5.19-1.77-8-4.5-11.8-8.45-.94-1-2.26.44-1.45,1.45,4.59,5.7,2.77,13.31,1,19.74l1.68-.44a113.68,113.68,0,0,1-14.3-24.21c-.4-.92-1.84-.42-1.83.5a19.34,19.34,0,0,1-6.52,15.18l1.51.62a30.75,30.75,0,0,0-1.56-14.82c-1.7-4.53-5.56-9.94-3.56-14.88.29-.72-.93-1.24-1.25-.53Z" transform="translate(3748 1266)"/><path class="cls-1" d="M-3728.9-1248.64c-5.13-5.77-11.42-10.44-17.29-15.41l-.75,1.8c8.28-.31,16.52-1.37,24.81-1.56l-.95-1.65c-2.52,5.59-4.54,11.39-7.36,16.84-.67,1.27,1.27,2.41,1.93,1.13,2.81-5.46,4.82-11.26,7.32-16.86a1.11,1.11,0,0,0-.94-1.65c-8.3.21-16.52,1.55-24.81,1.64a1.07,1.07,0,0,0-.75,1.8c5.7,5.22,11.74,10.09,17.63,15.08a.82.82,0,0,0,1.16-1.16Z" transform="translate(3748 1266)"/></g></g></svg>