<?xml version="1.0" encoding="iso-8859-1"?>
<!-- Generator: Adobe Illustrator 19.0.0, SVG Export Plug-In . SVG Version: 6.00 Build 0)  -->
<svg version="1.1" id="Layer_1" xmlns="http://www.w3.org/2000/svg" xmlns:xlink="http://www.w3.org/1999/xlink" x="0px" y="0px"
	 viewBox="0 0 512 512" style="enable-background:new 0 0 512 512;" xml:space="preserve">
<circle style="fill:#324A5E;" cx="256" cy="256" r="256"/>
<g>
	<path style="fill:#2B3B4E;" d="M474.929,388.758l-151.78-151.78l-1.069,1.052l-53.436-53.436L131.01,259.441l-5.179,67.965
		L305.605,507.18C377.285,493.104,438.243,449.127,474.929,388.758z"/>
	<path style="fill:#2B3B4E;" d="M418.664,237.652l-23.762,27.757l-15.605,11.566l101.535,101.535
		c9.604-17.587,17.191-36.428,22.481-56.21L418.664,237.652z"/>
</g>
<path style="fill:#FFD15D;" d="M268.645,327.406c-39.436,39.436-103.376,39.436-142.814,0s-39.436-103.376,0-142.814
	s103.376-39.436,142.814,0L197.237,256L268.645,327.406z"/>
<path style="fill:#F9B54C;" d="M268.645,184.594c-23.05-23.05-54.467-32.603-84.473-28.71v200.232
	c30.006,3.894,61.424-5.66,84.473-28.71L197.237,256L268.645,184.594z"/>
<circle style="fill:#324A5E;" cx="184.889" cy="213.333" r="10.343"/>
<path style="fill:#2B3B4E;" d="M184.889,202.99c-0.243,0-0.481,0.021-0.719,0.036v20.614c0.238,0.017,0.476,0.036,0.719,0.036
	c5.713,0,10.343-4.63,10.343-10.343S190.602,202.99,184.889,202.99z"/>
<g>
	<circle style="fill:#B5F1F4;" cx="302.752" cy="256" r="27.891"/>
	<circle style="fill:#B5F1F4;" cx="397.671" cy="256" r="27.891"/>
</g>
<g>
	<path style="fill:#84DBFF;" d="M302.761,228.109c15.403,0,27.891,12.486,27.891,27.891s-12.486,27.891-27.891,27.891V228.109z"/>
	<path style="fill:#84DBFF;" d="M397.669,228.109c15.403,0,27.891,12.486,27.891,27.891s-12.486,27.891-27.891,27.891V228.109z"/>
</g>
<g>
</g>
<g>
</g>
<g>
</g>
<g>
</g>
<g>
</g>
<g>
</g>
<g>
</g>
<g>
</g>
<g>
</g>
<g>
</g>
<g>
</g>
<g>
</g>
<g>
</g>
<g>
</g>
<g>
</g>
</svg>
