<svg xmlns="http://www.w3.org/2000/svg" viewBox="0 0 335.52 583.44"><defs><style>.cls-1{fill:none;stroke:#d8798c;stroke-miterlimit:10;}</style></defs><title>silhouette</title><g id="Layer_2" data-name="Layer 2"><g id="Layer_1-2" data-name="Layer 1"><path class="cls-1" d="M269.4,582.94H36.9a4.22,4.22,0,0,1-3.11-3.52c-1.32-6.62-2.74-13.22-4-19.85-.56-2.93-.53-6-1.29-8.88q-8.84-33.33-17.93-66.6A89.59,89.59,0,0,1,7.2,459.68c.07-14.08-.15-28.15,0-42.23,0-6.9-.25-14,1.07-20.66a55.14,55.14,0,0,0-.18-22.53c-1.35-6.33-3.64-12.51-4.57-18.89C-.14,330.59-.95,305.78,3.81,281c2.48-12.93,5.56-25.76,13.42-36.54A179,179,0,0,1,37.5,220.8c5.74-5.52,12.93-9.59,19.74-13.89,3.67-2.31,4-2.93,1.09-6.25-7.43-8.54-14.95-17-22-25.85C31.61,169,27.5,162.53,26.05,155a189.47,189.47,0,0,1-2.83-20.28A276.16,276.16,0,0,1,22.56,94C23.35,81.9,25.1,70,29.5,58.62s10-21.88,18.66-30.7C61.06,14.8,75.22,4.37,94.27,2.21,112.92.09,131.4-1.16,149.6,5.3a73.46,73.46,0,0,1,18.56,9.6,34.28,34.28,0,0,1,8,7.43c5.89,8.22,10.9,17,12.75,27.13.39,2.16,1.6,2.78,3.71,2.66a64.25,64.25,0,0,1,8,.14,12.28,12.28,0,0,1,11.56,12.18c0,2.66.33,5.32.52,8,.53,7.25.37,14.22-4.63,20.34-5.69,7-6.41,15.54-6.63,24.07-.06,2.53-.36,4.72-1.84,6.79a12.24,12.24,0,0,0-2.46,9.41,12.27,12.27,0,0,1,0,2.5c-.28,8.08-3,14.65-11.1,17.87-2.24.89-4.36,2.11-6.63,2.9-7.59,2.63-14.36,6.19-17.75,14.11-1.82,4.27-4.18,8.35-5.6,12.75-1.77,5.46.28,9.89,5,12.1q13.14,6.11,26.39,12c7.84,3.46,16,6.28,23.6,10.2,12,6.2,22.41,14.64,28.94,26.76a301.4,301.4,0,0,0,23,35.62c7.36,10,15.52,19.37,23.32,29,7.37,9.12,15.67,17.49,21.45,27.87,4.45,8,9.6,15.62,13.87,23.71a254.09,254.09,0,0,1,11.63,24.86c3.32,8.38,1.78,16.1-5,22.61a122.63,122.63,0,0,1-23.51,17.22c-9.38,5.42-18.75,10.84-28.2,16.15-5,2.8-8.28,6.54-8.24,12.6a26.52,26.52,0,0,1-.6,4.21,37.85,37.85,0,0,0,2.35,22A109.87,109.87,0,0,1,274.48,492c2.84,9.31,5.65,18.64,8.12,28a107.6,107.6,0,0,1,3,16.38c.6,6-1.33,8.29-7,10.5s-11.39,4.27-16.84,6.92c-4.36,2.12-5.33,5.57-3.33,10.08a93,93,0,0,0,4.89,9C265.32,576.29,267.38,579.6,269.4,582.94Z"/></g></g></svg>