<?xml version="1.0" encoding="iso-8859-1"?>
<!-- Generator: Adobe Illustrator 19.0.0, SVG Export Plug-In . SVG Version: 6.00 Build 0)  -->
<svg version="1.1" id="Capa_1" xmlns="http://www.w3.org/2000/svg" xmlns:xlink="http://www.w3.org/1999/xlink" x="0px" y="0px"
	 viewBox="0 0 512 512" style="enable-background:new 0 0 512 512;" xml:space="preserve">
<linearGradient id="SVGID_1_" gradientUnits="userSpaceOnUse" x1="-0.0025" y1="258.0203" x2="511.9713" y2="258.0203" gradientTransform="matrix(1.0001 0 0 -1.0001 0.0025 514.0333)">
	<stop  offset="0" style="stop-color:#00F2FE"/>
	<stop  offset="0.021" style="stop-color:#03EFFE"/>
	<stop  offset="0.293" style="stop-color:#24D2FE"/>
	<stop  offset="0.554" style="stop-color:#3CBDFE"/>
	<stop  offset="0.796" style="stop-color:#4AB0FE"/>
	<stop  offset="1" style="stop-color:#4FACFE"/>
</linearGradient>
<path style="fill:url(#SVGID_1_);" d="M305.016,480.011c-5.11,0-10.222-1.946-14.126-5.84c-7.82-7.801-7.835-20.465-0.035-28.285
	l175.293-175.725c7.815-7.815,7.815-20.504,0.018-28.302L290.855,66.114c-7.801-7.82-7.785-20.484,0.035-28.285
	c7.821-7.8,20.484-7.786,28.286,0.035l175.293,175.725c23.377,23.377,23.377,61.444-0.018,84.839L319.176,474.135
	C315.269,478.052,310.142,480.011,305.016,480.011z M403.02,256c0-11.047-8.954-20.001-20.001-20.001H20.001
	C8.954,235.999,0,244.954,0,256c0,11.047,8.954,20.001,20.001,20.001h363.018C394.066,276.001,403.02,267.047,403.02,256z"/>
<g>
</g>
<g>
</g>
<g>
</g>
<g>
</g>
<g>
</g>
<g>
</g>
<g>
</g>
<g>
</g>
<g>
</g>
<g>
</g>
<g>
</g>
<g>
</g>
<g>
</g>
<g>
</g>
<g>
</g>
</svg>
