<?xml version="1.0" encoding="utf-8"?>
<!-- Generator: Adobe Illustrator 19.2.1, SVG Export Plug-In . SVG Version: 6.00 Build 0)  -->
<svg version="1.1" id="Layer_1" xmlns="http://www.w3.org/2000/svg" xmlns:xlink="http://www.w3.org/1999/xlink" x="0px" y="0px"
	 viewBox="0 0 134.3 105.7" style="enable-background:new 0 0 134.3 105.7;" xml:space="preserve">
<style type="text/css">
	.st0{fill:#FFFFFF;}
	.st1{fill:#4185B5;}
</style>
<title>hey</title>
<rect x="23.5" y="24" class="st0" width="65.5" height="65.5"/>
<path class="st1" d="M23.3,11.8C-1.2,30.2-7.4,63.5,9.6,86.2s50.6,26.1,75.2,7.8c8.6-6.4,15.3-15,19.4-25L131.9,58
	c1.9-0.8,2.9-2.9,2.1-4.9c-0.4-0.9-1.1-1.6-2-2l-24.8-11.2c-1.3-7.4-4.3-14.3-8.8-20.3C81.5-3.1,47.9-6.5,23.3,11.8L23.3,11.8
	L23.3,11.8z M62.3,55.1c1.7,2.2,1.2,5.3-1,7s-5.3,1.2-7-1L37.9,39.3c-1.7-2.2-1.2-5.3,1-7s5.3-1.2,7,1L62.3,55.1z M69.5,73.2
	c-2.4,1.8-5.9,1.3-7.7-1.1c-1.8-2.4-1.3-5.9,1.1-7.7c2.4-1.8,5.9-1.3,7.7,1.1C72.5,67.9,72,71.4,69.5,73.2L69.5,73.2z"/>
</svg>
