<svg xmlns="http://www.w3.org/2000/svg" viewBox="0 0 173.74 212.07"><defs><style>.cls-1{isolation:isolate;}.cls-2{fill:#f7931e;}.cls-3,.cls-6{fill:#87440e;}.cls-4{fill:#d8975a;}.cls-5{fill:#513015;}.cls-6{opacity:0.2;mix-blend-mode:multiply;}.cls-7{fill:#c4c5ca;}.cls-8{fill:aqua;}</style></defs><title>book--edu</title><g class="cls-1"><g id="Layer_2" data-name="Layer 2"><g id="OBJECTS"><path class="cls-2" d="M28.33,149.66c4.26.19,8.42.31,12.57.57,3.08.2,4.26,1.27,4.7,4.32a38.21,38.21,0,0,1,.42,6.32c-.05,2.2-1.24,3.26-3.4,3.32A3.32,3.32,0,0,0,40,165.48a3.56,3.56,0,0,1-4.22,1.2,1.27,1.27,0,0,0-1.69.57,3.26,3.26,0,0,1-3.39,1.23,10.71,10.71,0,0,0-1.67.16,21.43,21.43,0,0,1-4.87,0c-1.52-.3-1.95-1.9-2.28-3.27-.2-.8-.41-1.33-1.37-1.53a2,2,0,0,1-1.61-2.28c.05-1,.08-2,.2-2.92a4.45,4.45,0,0,0-.81-3.62c-1.56-2.1.1-4.83,2.91-5C23.6,149.84,26,149.77,28.33,149.66Z"/><path class="cls-3" d="M33.32,209c-5.88-.45-12.52-1-19.15-1.47-2.41-.17-4.84-.21-7.25-.39a33.91,33.91,0,0,1-3.75-.56A3.58,3.58,0,0,1,.06,203a22.08,22.08,0,0,1,.1-4.3c.8-6.23,1.55-12.46,2.57-18.66.64-3.92,1.75-7.77,2.57-11.67.26-1.24.21-2.54.41-3.8A4.06,4.06,0,0,1,9.34,161a56.86,56.86,0,0,1,9.39-.35c7.21.7,14.4-.18,21.6.14,4.57.2,9.17-.1,13.69.89a4.4,4.4,0,0,0,1.77.05c2-.35,3.54.67,5.21,1.32.39.15.69.92.76,1.45.81,6.1,1.61,12.2,2.31,18.31.73,6.37,1.34,12.75,2,19.12.3,2.79-.67,4.38-3.44,4.82s-5.57.63-8.36.82C47.58,208.08,40.85,208.5,33.32,209Z"/><path class="cls-4" d="M45.87,155.5c-7,.37-14,.8-21.08,1.1a40.94,40.94,0,0,1-5.17-.42c-1.59-.13-3.19-.24-4.78-.4a1.45,1.45,0,0,1-1.37-1.56c-.1-3.08-.13-6.17-.22-9.25a22.93,22.93,0,0,0-.3-3.89c-.33-1.6.2-2.72,1.82-3a19.91,19.91,0,0,1,2.79-.12c5.26-.14,10.52-.32,15.77-.39s10.68-.06,16,0c2.83,0,3.84,1,3.44,3.74-.51,3.61.29,7.1.47,10.64.11,2.28-.66,3.38-2.93,3.6-1.47.14-3,0-4.45,0Z"/><path class="cls-5" d="M35,196.42c-6,.7-11.59-3.85-12.82-10.13a10.22,10.22,0,0,1,.48-5c1.82-5.38,5.84-8.48,11.18-10a5.94,5.94,0,0,1,2.65-.11c5.57,1.15,9.83,4.47,11.21,9.72a14.7,14.7,0,0,1-.41,7.25c-1.24,4.6-6.25,8.09-11,8.21C35.86,196.43,35.44,196.42,35,196.42Z"/><path class="cls-5" d="M10.81,171.37c0-.2.06-.66.14-1.12.41-2.62,1.58-3.79,3.76-3.8a4.66,4.66,0,0,1,4.84,3.66,4.59,4.59,0,0,1-3.22,5.12C13.05,176.28,10.82,174.83,10.81,171.37Z"/><path class="cls-5" d="M48.23,171.37a6.27,6.27,0,0,1,3.57-5c2.39-.9,5,1.29,4.86,4.11a4.85,4.85,0,0,1-6.44,4A3.17,3.17,0,0,1,48.23,171.37Z"/><path class="cls-6" d="M32.28,137.61v71.25c-6-.42-11.8-.9-17.86-1.35-2.41-.18-5-.21-7.37-.39a32.55,32.55,0,0,1-3.82-.56A3.62,3.62,0,0,1,.08,203a22.88,22.88,0,0,1,.09-4.3c.81-6.23,1.55-12.47,2.57-18.66.63-3.93,1.75-7.77,2.56-11.67.27-1.24.21-2.54.4-3.79A4.11,4.11,0,0,1,9.34,161a55.71,55.71,0,0,1,9.38-.35h.22c0-.69.06-1.38.15-2.06a5.07,5.07,0,0,0-.2-2.52c-1.35-.1-2.69-.21-4-.34a1.45,1.45,0,0,1-1.38-1.56c-.1-3.09-.13-6.17-.22-9.25a22.74,22.74,0,0,0-.3-3.88c-.33-1.61.2-2.73,1.82-3a23.7,23.7,0,0,1,3-.12C22.55,137.85,27.28,137.69,32.28,137.61Z"/><path class="cls-4" d="M101.74,54.69c-.92-2.27-1.61-4.26-2.51-6.16a19.49,19.49,0,0,1-1.84-7.66,4.15,4.15,0,0,1,.6-2.35c3.32-4.88,6.45-9.93,10.16-14.5A67.35,67.35,0,0,1,135.73,4c2.41-1,4.76-2.1,7.16-3.12a12.8,12.8,0,0,1,7.69-.45,14.89,14.89,0,0,1,10,7.9c1.37,2.59,2.89,5.11,4.39,7.63,3,5,4.68,10.47,6.32,16,2.71,9.12,2.76,18.42,2,27.78a4.74,4.74,0,0,0-.07.74c.52,5.35-3.25,7.72-7,10.06-1.82,1.13-3.64,2.24-5.64,3.47l4.85,1.59c1.85.61,3.71,1.17,5.53,1.85,2.16.81,2.45,2.22,1.29,4.2A20.58,20.58,0,0,0,170.55,86c-.66,2.17-1.17,4.39-1.79,6.58A90.12,90.12,0,0,1,160,113.27c-2.24,3.9-4.68,7.69-7,11.52a6.45,6.45,0,0,1-.75,1,73.5,73.5,0,0,1-11.94,10.76c-4.79,3.27-10.24,4.35-15.86,4.71a48.09,48.09,0,0,1-25.68-5.8c-6.57-3.42-12.22-8-16-14.56a29,29,0,0,1-3.42-9.53c-.24-1.34-.49-2.68-.78-4-1.49-6.92-.61-13.8.24-20.7a109.76,109.76,0,0,1,8-28.95,14.52,14.52,0,0,0,1-4.06c.21-2,1.37-3.08,3.34-2.48,3.08.94,6.12,2,9.17,3.05Z"/><path class="cls-7" d="M88,183.43c2.34.77,4.68,1.56,7,2.3s2.75,1.62,2.61,4.09a30.85,30.85,0,0,0,.58,6.26c.32,2.16.2,2.5-1.62,3.64a36.93,36.93,0,0,0-12.1,11.33c-.47.73-1.2,1.26-2,.78a2.27,2.27,0,0,1-1-1.74c.36-3.91-.52-7.67-1.32-11.41a29.78,29.78,0,0,0-2-5.34,2.43,2.43,0,0,1,.59-3c1.18-1.16,2.36-2.31,3.5-3.51a6.47,6.47,0,0,0,1.23-1.69C84.55,183,85.12,182.74,88,183.43Z"/><path class="cls-7" d="M92.3,157.43c1.66-3.18,3.25-6.39,5-9.53.93-1.69,2-1.86,3.19-.39a5.44,5.44,0,0,0,6,1.94c1.78-.42,2.56.33,2.29,2.15-.56,3.7-1.19,7.4-2,11.06-.49,2.22-2.24,2.78-4.15,1.63a4.72,4.72,0,0,0-1.15-.28c-.78-.19-1.55-.39-2.32-.6-.38-.1-.75-.24-1.13-.33s-.53,0-.73-.1a19.84,19.84,0,0,0-4-1.66C92,161,91.8,159.33,92.3,157.43Z"/><path class="cls-7" d="M99.85,184.25l1.11-1.51-15.8-5.2c0,.57-.06,1.16-.1,1.75-1.19-.12-1.59-.8-1.14-2,.59-1.63,1.24-3.24,1.85-4.86a16,16,0,0,0,.52-1.52c.4-1.51,1.27-2,2.77-1.54q6.82,2.24,13.65,4.5a1.86,1.86,0,0,1,1.44,2.45c-.67,2.25-1.33,4.51-2,6.76C101.79,184.37,101.18,184.73,99.85,184.25Z"/><path class="cls-8" d="M93.48,168.45c3.11-2,4.86-1.4,6.1,2C98.08,171.56,94.14,170.3,93.48,168.45Z"/><path class="cls-8" d="M90.65,181.84a3.17,3.17,0,0,0-2.73,0c-1,.37-1.84-.39-2.08-1.4.74-.35,1.42-.72,2.14-1a1.06,1.06,0,0,1,.93.15C89.6,180.39,90.2,181.26,90.65,181.84Z"/><path class="cls-8" d="M98.65,184.66a1.77,1.77,0,0,1-2.55-.09c-.39-.4-.61-1-1-1.31a2.77,2.77,0,0,0-1.17-.3,27.41,27.41,0,0,1,2.71-.78c.28-.05.73.29.94.57A19.78,19.78,0,0,1,98.65,184.66Z"/><path class="cls-8" d="M91.62,167.46c-.7.53-1.3,1-1.94,1.45-.19.13-.51.05-.77.07a2.11,2.11,0,0,1,.1-.68A1.81,1.81,0,0,1,91.62,167.46Z"/><path class="cls-8" d="M102.77,173.71l-1.13-2.85c1.42.1,1.84.87,1.53,2.65Z"/><path class="cls-3" d="M113.79,108.44c1.2-3.63,2.41-7.26,3.56-10.91a2.23,2.23,0,0,0-.26-1.27c-1.86-4.64-3.78-9.25-5.6-13.9-1.37-3.51-2.61-7.06-3.94-10.58a7.47,7.47,0,0,0-.83-1.37c-1.15-1.82-.85-3.66.75-4.51s3.3-.06,4.15,1.92c.18.42.33.85.47,1.28,1.59,5,3.19,10,4.76,15,.66,2.09,1.23,4.2,1.85,6.31a3.24,3.24,0,0,0,.74,1.4l.48-1.48c1.31-4,2.65-7.92,3.89-11.91a3.32,3.32,0,0,0-.19-1.93c-.41-1.25-1-2.45-1.45-3.69-2.28-6.16-4.54-12.33-6.84-18.49-.56-1.48-.27-2.67.89-3.18a2.1,2.1,0,0,1,2.9,1.35q3,8.16,5.86,16.35a27.17,27.17,0,0,1,.69,3.15c.22-.48.35-.7.43-.95q1.83-5.79,3.62-11.6a1.68,1.68,0,0,0,0-1c-1-2.32-2-4.59-3-6.92-1.27-3.09-2.43-6.23-3.69-9.33-.75-1.85-.28-3.54,1.29-4.22a2.89,2.89,0,0,1,3.91,1.81c1.43,3.52,2.73,7.09,4.09,10.65.07.18.15.35.33.77.64-1.94,1.22-3.64,1.75-5.35s.94-3.35,1.48-5a2.13,2.13,0,0,0-.3-1.9c-1.52-2.88-2.94-5.81-4.23-8.8a2.06,2.06,0,0,1,1.35-2.7,2.15,2.15,0,0,1,2.77,1.24c.74,1.75,1.31,3.57,1.93,5.36a3,3,0,0,0,.58,1.2c.66-1.84,1.34-3.67,2-5.52.53-1.52,1.58-3.14,1.37-4.56s-1.74-2.56-2.62-3.87a12.54,12.54,0,0,1-1.43-2.58,1.9,1.9,0,1,1,3.5-1.48,30.54,30.54,0,0,0,2.29,3.9c.31-.95.58-1.92.95-2.85a28.87,28.87,0,0,1,1.53-3.51,2.33,2.33,0,0,1,2.76-1.38,2.22,2.22,0,0,1,1.44,2.71c-.32,1.9-.89,3.77-1.36,5.65-.08.32-.18.63-.33,1.19l3.3-1.55a7.59,7.59,0,0,1,1.12-.53,1.82,1.82,0,0,1,2.28.75,1.78,1.78,0,0,1-.38,2.37A5.42,5.42,0,0,1,152.59,25a19.69,19.69,0,0,1-3.92,1.14,2.4,2.4,0,0,0-2.26,2.12c-.6,2.27-1.41,4.49-2.12,6.74-.21.69-.34,1.4-.52,2.18,1.79-1.23,3.43-2.38,5.1-3.5a4.32,4.32,0,0,1,1.34-.63,2.09,2.09,0,0,1,2.51,1.11,2,2,0,0,1-.56,2.69,16,16,0,0,1-2.72,1.71c-2.13,1.06-4.31,2-6.46,3.08a1.34,1.34,0,0,0-.68.62c-1.21,3.38-2.39,6.78-3.57,10.18a2.47,2.47,0,0,0,0,.51l1.17-.77c3-1.91,6-3.85,9-5.72a2.93,2.93,0,0,1,3.68.26,2.69,2.69,0,0,1,.56,3.29,4.4,4.4,0,0,1-1.36,1.39q-5.56,3.62-11.19,7.14c-1.22.76-2.56,1.32-3.81,2a1.79,1.79,0,0,0-.82.81c-1.39,4-2.74,8-4.09,12a2.21,2.21,0,0,0,0,.49,31.38,31.38,0,0,1,2.7-2.29q7-4.74,14-9.37a2.1,2.1,0,0,1,3.14.58c.62,1.06.19,2.24-1,3q-8.66,5.68-17.29,11.39c-1,.63-2,1.12-3,1.73a1.91,1.91,0,0,0-.82.82c-1.51,4.51-3,9-4.45,13.55a3.84,3.84,0,0,0,0,.61l1.17-.85q6.38-4.61,12.75-9.24c1.73-1.26,3.4-2.62,5.12-3.91a12.5,12.5,0,0,1,2-1.26A2.8,2.8,0,0,1,150.06,80a2.87,2.87,0,0,1-1.45,3.75c-2.43,1.39-4.88,2.76-7.24,4.27-4,2.59-8,5.31-12,7.91a41.24,41.24,0,0,1-4.58,2.48,2.93,2.93,0,0,0-1.77,2c-.87,3.15-1.87,6.26-2.82,9.38-.07.22-.11.45-.21.88,2.61-1.68,5.16-3.06,7.42-4.82,6.87-5.34,14.38-9.71,21.63-14.47a6.77,6.77,0,0,1,1.78-.85A2.74,2.74,0,0,1,154,91.81a2.81,2.81,0,0,1-.46,3.33,4.44,4.44,0,0,1-.66.56l-10.65,6.82q-3.08,2-6.12,4Q129,111.26,121.86,116c-1.41.94-2.83,1.86-4.2,2.85A2.35,2.35,0,0,0,117,120c-.84,2.38-1.62,4.78-2.46,7.16-.95,2.65-3,3.35-5.41,1.87a2.9,2.9,0,0,1-1.15-3.5c.74-2.54,1.59-5,2.3-7.59a3.46,3.46,0,0,0-.07-2c-2.51-7.18-5-14.35-7.64-21.49-1.89-5.16-3.91-10.27-5.87-15.41-.3-.77-.66-1.52-.89-2.31a2.81,2.81,0,0,1,1.56-3.61A2.86,2.86,0,0,1,101,74.55a7.77,7.77,0,0,1,.46,1c3,8.06,6.42,16,8.76,24.25.81,2.92,2.1,5.7,3.17,8.54Z"/><path class="cls-2" d="M105,153.51c-1.79-.59-3.59-1.17-5.38-1.77a8,8,0,0,1-5.45-7.39c-.14-5.13,3.54-9.58,8.16-9.86,2.23-.14,9.42,2.22,11.14,3.66,3.17,2.65,3.8,7.1,1.6,11.31A8.1,8.1,0,0,1,105,153.51Z"/><path class="cls-2" d="M100.39,159.2c2.23.73,4.45,1.47,6.68,2.19a1.25,1.25,0,0,1,.9,1.54c-.2,1.88-.38,3.76-.61,5.64s-.54,4-.79,6a1.2,1.2,0,0,1-1.75,1.1c-4.09-1.39-8.16-2.84-12.25-4.22-1.68-.56-3.39-1-5.1-1.49s-1.73-1.15-.91-2.5c1.26-2.07,2.29-4.27,3.46-6.39.63-1.15,1.36-2.26,2-3.38a1.27,1.27,0,0,1,1.65-.68l6.68,2.2Z"/><path class="cls-2" d="M91.69,186l-10.28-4c-3.17-1.24-2.89-4-1.88-6.55.44-1.1,1.59-1.21,2.69-.93,3.83,1,7.69,1.87,11.48,3,2,.59,3.88,1.6,5.84,2.38s4,1.53,6,2.28,2.53,2.13,1.46,4c-1.7,2.93-2.74,3.29-6,2.34S94.71,186.82,91.69,186Z"/><path class="cls-3" d="M103.62,150.21c-2.93-1-4.61-3.73-3.78-6.2,1-2.95,4.5-4.87,7.21-3.95s4.27,4.54,3.32,7.44C109.57,150,106.54,151.17,103.62,150.21Z"/><path class="cls-6" d="M152.94,1.11l-69.38,211c-1-.2-.61,0-.86-.19a2.4,2.4,0,0,1-1.06-1.77c.37-3.91-.55-7.68-1.36-11.42a29.07,29.07,0,0,0-2-5.34,2.45,2.45,0,0,1,.59-3c1.17-1.16,2.35-2.31,3.5-3.51a6.43,6.43,0,0,0,1.22-1.69,3.59,3.59,0,0,1,1.25-1.76c-1.16-.45-2.31-.89-3.46-1.35-3.18-1.25-2.89-4-1.88-6.54.44-1.11,1.59-1.22,2.69-.94.82.2,1.66.41,2.48.63.36-.93.73-1.86,1.07-2.78.19-.5.38-1,.52-1.52a2.68,2.68,0,0,1,.55-1.15c-1-.45-1-1.13-.28-2.27,1.26-2.07,2.29-4.27,3.45-6.39.64-1.15,1.36-2.26,2-3.39a3,3,0,0,1,.34-.42c1.31-2.54,2.62-5.08,4-7.6a8,8,0,0,1-2.19-5.29,9.84,9.84,0,0,1,4.74-8.81l-.18-.09c-6.56-3.42-12.21-8-16-14.57a28.66,28.66,0,0,1-3.42-9.52c-.24-1.34-.49-2.69-.78-4-1.49-6.92-.61-13.8.24-20.71a110.18,110.18,0,0,1,8-28.94,14.5,14.5,0,0,0,1-4.07c.2-2,1.43-3.23,3.39-2.63,3.08.94,6.17,1.89,9.22,2.9l1.48.48a64.39,64.39,0,0,0-2.57-6,19,19,0,0,1-1.86-7.59A4,4,0,0,1,98,38.48c3.31-4.88,6.43-9.92,10.14-14.47A67.32,67.32,0,0,1,135.73,3.94c2.42-1,4.77-2.09,7.16-3.11A13.09,13.09,0,0,1,150.7.42,16.11,16.11,0,0,1,152.94,1.11Z"/></g></g></g></svg>