<svg xmlns="http://www.w3.org/2000/svg" viewBox="0 0 196.53 178.82"><defs><style>.cls-1{isolation:isolate;}.cls-2{fill:#c7b299;}.cls-10,.cls-3{fill:#87440e;}.cls-4{fill:#f7931e;}.cls-5{fill:#c4c5ca;}.cls-6{fill:#513015;}.cls-7{fill:#8d251d;}.cls-8{fill:#3c3c3e;}.cls-9{fill:#a07954;}.cls-10{opacity:0.2;mix-blend-mode:multiply;}</style></defs><title>book--edi</title><g class="cls-1"><g id="Layer_2" data-name="Layer 2"><g id="OBJECTS"><path class="cls-2" d="M29.72,80.91c2.47-.59,4.05,1.11,5.37,2.88a3.42,3.42,0,0,1-2.4,5.32,57.4,57.4,0,0,1-7.2.45,29.45,29.45,0,0,1-3.23-.25A3.44,3.44,0,0,1,19,86.93a3.17,3.17,0,0,1,1.48-3.69c2.26-1.61,5-1.55,7.57-2.22A8.86,8.86,0,0,1,29.72,80.91Z"/><path class="cls-2" d="M165.79,89.7c-1.6-.15-3.32-.25-5-.47a3.5,3.5,0,0,1-3.18-2.69c-.42-1.6.31-2.74,1.4-3.94,2.15-2.35,4.71-1.78,7.28-1.4a35.32,35.32,0,0,1,4.16,1,6.16,6.16,0,0,1,1.74.77c1.71,1.1,2.36,2.45,2,3.92s-1.74,2.36-3.79,2.47C168.86,89.41,167.39,89.57,165.79,89.7Z"/><path class="cls-3" d="M27.51,88.68c.19-6.17.37-12.34.58-18.51.07-2.39,1.33-3.62,3.72-3.66,4.43-.09,8.86-.22,13.25.71a8.92,8.92,0,0,0,2.5-.16,175,175,0,0,1,30.2,0c5.68.49,11.23,1.76,16.18,4.84a1.48,1.48,0,0,0,1.28,0c5.09-3.17,10.78-4.44,16.62-4.91a175,175,0,0,1,31.38.18,17.77,17.77,0,0,0,2.48-.28c3.88-.16,7.77-.34,11.65-.42,2.41,0,3.76,1.15,3.79,3.57.12,9.77.16,19.55.18,29.33a2.56,2.56,0,0,1-2.68,2.76c-7.75.32-15.5.76-23.25.81-11.71.09-23.41-.12-35.12-.19-8.83-.06-17.65-.16-26.48-.13-6.57,0-13.14.33-19.71.33-4.84,0-9.68-.27-14.51-.44-2.77-.1-5.53-.27-8.29-.33-2.28-.06-3.37-1-3.4-3.17-.06-3.46,0-6.92,0-10.37Z"/><path class="cls-4" d="M165.5,87.89c.11-1.91.19-3.83.35-5.74s.89-2.73,2.69-2.66a55.59,55.59,0,0,1,7.26.9c.46.08.82.8,1.22,1.23a7.52,7.52,0,0,1-1.37,1.17c-.64.35-1.94.45-2,.75a9.34,9.34,0,0,0,.3,4c.4,1,1.05,1.9.35,3s-1.76,1.08-2.9.94a16.85,16.85,0,0,0-2.36,0C166.36,91.53,165.38,90.58,165.5,87.89Z"/><path class="cls-4" d="M19.67,91.36a8.78,8.78,0,0,1-2.49.14,3.65,3.65,0,0,1-2.28-1.18c-.35-.56.1-1.6.2-2.43.18-1.47.38-2.94.48-4.41,0-.17-.55-.44-.88-.54s-1,0-1.43-.26-1-.72-1-1.12a1.49,1.49,0,0,1,.94-1.09c2.67-.59,5.31-1.56,8.12-1a2.53,2.53,0,0,1,2.05,2.69c.11,1.67.23,3.33.35,5C24,90.65,23.17,91.51,19.67,91.36Z"/><path class="cls-5" d="M134.46,89.9c-1.74-.13-4.4-.34-7.06-.5a2.85,2.85,0,0,0-1.58.19,6.4,6.4,0,0,1-6.13.26c-3.52-1.47-7.22-1.68-10.91-1.74q-12.14-.21-24.28,0c-3.79.05-7.59.29-11.2,1.76a6.36,6.36,0,0,1-6-.24,2.88,2.88,0,0,0-1.56-.21c-3.06.13-6.12.34-9.18.47-3.55.15-6.78-1.09-10-2.41a3.13,3.13,0,0,1-1.9-3.1,19.69,19.69,0,0,1,.17-2.66c1.09-9.13,0-18.26.16-27.39,0-1.43,0-2.86,0-4.3,0-8.49.24-17-.2-25.47-.34-6.59-1.53-13.14-2.39-19.7C42.07,2.11,43.15,1,46,1q12.19.41,24.41.71a38.33,38.33,0,0,0,4-.32c4.32-.35,8.65-.73,13-1a154.2,154.2,0,0,1,27.52.54,133.24,133.24,0,0,0,21.87.68c3.39-.2,6.79-.35,10.18-.54,3.12-.17,4.18,1,3.68,4.06a217.54,217.54,0,0,0-2.69,42.36c.27,8.53-.26,17.09-.29,25.63,0,2.86.42,5.71.63,8.56a24.52,24.52,0,0,1,.13,3,3.17,3.17,0,0,1-2,2.91C142.57,89.29,139.73,89.9,134.46,89.9Z"/><path class="cls-6" d="M160.76,107.26c2.53.41,5.15.87,7.77,1.25,2.27.32,2.76,1,2.88,3.3.13,2.6.44,5.21.78,7.8a1.72,1.72,0,0,0,1,1.17c1.56.45,3.18.69,4.75,1.1a37.61,37.61,0,0,1,4.77,1.48,2.39,2.39,0,0,1,1.49,2.92c-1.06,4.13-.29,8.26-.11,12.39.09,2.12.23,4.24.18,6.36-.06,2.65-1.21,3.68-3.87,3.85-13.72.87-27.45.68-41.19.51-7.66-.1-15.32.26-23,.27-14.77,0-29.55,0-44.32-.08q-14.76,0-29.51-.14c-7.25-.05-14.51-.08-21.77-.18-2.76,0-5.53-.24-8.29-.41-2.26-.14-3.33-1.13-3.49-3.42a47.71,47.71,0,0,1,0-5.48c.16-3.4.45-6.8.58-10.21A12.35,12.35,0,0,0,9,126.83c-.37-1.79,0-2.92,1.7-3.64a29.75,29.75,0,0,1,4.52-1.32,39.63,39.63,0,0,1,4-.83,2,2,0,0,0,1.87-2.2c.17-2.46.44-4.91.59-7.37.11-1.88.68-2.65,2.47-2.91,2.49-.36,5-.71,7.47-1,.77-.09.89-.4,1-1.13a43,43,0,0,1,.88-6.11,2.77,2.77,0,0,1,1.78-1.48,13.76,13.76,0,0,1,3.52-.36c7.21-.15,14.43-.18,21.64-.4,7.65-.24,15.3-.9,23-.91,14.68,0,29.35.17,44,.42,9.18.16,18.36.58,27.54.88.3,0,.59,0,.89,0,3.51.33,3.57.37,4.16,3.86C160.26,104,160.51,105.64,160.76,107.26ZM45.27,109l0-.23-2.86.16c.09.48.16.85.24,1.3Zm102.62.06,2.45,1.1C150.72,108.81,150.72,108.81,147.89,109.1Z"/><path class="cls-4" d="M175.59,177.83c-4.77.4-8.55.78-12.34,1a29,29,0,0,1-3.62-.53,27.17,27.17,0,0,0-3.25.13c-1.74.11-3-.64-3.21-2.36a35.46,35.46,0,0,1-.21-5.16c0-1.28.14-2.56.21-3.84.08-1.59.7-2.4,2.3-2.57,2.25-.23,4.52-.37,6.79-.43q10-.27,20-.42c1.69,0,2.72.81,2.81,2.41.16,2.61.27,5.23.2,7.84a3.93,3.93,0,0,1-4.25,4Z"/><path class="cls-4" d="M40.26,172.74a24.42,24.42,0,0,1-.33,3.35c-.36,1.73-1.49,2.34-3.25,2.34s-3.8.31-5.7.32c-1.52,0-3-.25-4.55-.32-4.73-.22-9.47-.45-14.2-.59-2.57-.07-4.33-1.47-4.39-4s.09-5.33.26-8a2.37,2.37,0,0,1,2.66-2.22q10.58.21,21.14.5c1.83.05,3.66.13,5.47.31s2.45.93,2.53,2.8C40,168.87,40.11,170.49,40.26,172.74Z"/><path class="cls-3" d="M98.36,171c-9.48-.4-19-.89-28.45-1.17-7.75-.22-15.51-.23-23.27-.25-9.94,0-19.88,0-29.81.06-4.2,0-8.39,0-12.58,0-1.92,0-3.1-.73-3.33-2.64-.34-2.84-.46-5.7-.58-8.56C.19,154.63.15,150.79,0,147a2.4,2.4,0,0,1,1.8-2.69,16.49,16.49,0,0,1,7.61-.53,23.54,23.54,0,0,0,3.25.2q13.71.16,27.43.29c12.5.13,25,.37,37.5.34,6.52,0,13-.53,19.56-.76a50.47,50.47,0,0,1,5.77.12c13.23,1.1,26.48.52,39.73.43,9.78-.06,19.57-.1,29.35-.24,5.53-.08,11.05-.44,16.58-.5a33.55,33.55,0,0,1,6.13.68c1.41.24,1.88,1.3,1.81,2.78-.18,3.65-.23,7.29-.36,10.93-.1,2.76-.12,5.53-.38,8.28s-1.41,3.38-4,3.36c-8,0-15.91,0-23.86,0-12.75,0-25.51-.08-38.26.1-8.74.13-17.48.66-26.22,1-1.68.07-3.36,0-5,0Z"/><path class="cls-7" d="M96.58,91.4H62.34q-11.42,0-22.83,0c-3,0-3.59-.52-3.64-3.52a34.28,34.28,0,0,1,.39-6.16c.32-2,.93-2.36,2.92-2.46,9.23-.44,18.46-.93,27.69-1.24,9.43-.32,18.87-.65,28.31-.61,11.46,0,22.93.38,34.39.73,8,.25,16,.71,24,1.1,2.47.12,3.09.52,3.41,3a42.16,42.16,0,0,1,.2,6.93c-.06,1.54-1,2.21-2.77,2.23q-8.29.12-16.6.15-17.06.09-34.1.14c-2.37,0-4.75,0-7.12,0Z"/><path class="cls-7" d="M3.1,85.37C2.88,81.6,2.64,77.31,2.37,73A2.18,2.18,0,0,1,4,70.55a11.51,11.51,0,0,1,2.61-.45c2.32-.15,4.63-.24,7-.35,1.89-.09,2.71.68,2.8,2.58q.51,11,1,21.89c.22,4.45,0,4.74-4.43,5.3-2.25.28-4.51.47-6.78.66-1.92.16-3-.83-3.11-2.88-.08-2.27,0-4.55,0-6.82Z"/><path class="cls-7" d="M172.2,95.85q.39-11.17.79-22.34c.06-1.66.79-2.56,2.28-2.51,3,.1,6,.23,9,.54,2.35.24,2.75,1.17,2.63,3.51-.29,6-.43,11.94-.59,17.92,0,1.77,0,3.55,0,5.33,0,2.35-1.2,3.32-3.49,3.08s-4.43-.39-6.63-.64C172.09,100.25,171.85,100,172.2,95.85Z"/><path class="cls-8" d="M96.67,14.68h10.51c2.91,0,5.83-.17,8.73,0,5.42.23,10.82.63,16.23,1a1.3,1.3,0,0,1,.72.15c.47.36.89.79,1.33,1.19-.46.44-.85,1.12-1.4,1.28a13.75,13.75,0,0,1-3.21.47c-1.82.11-3.65.16-5.48.18-11.35.15-22.7.41-34.06.39-8.73,0-17.46-.34-26.2-.57a16,16,0,0,1-3.65-.5c-.51-.13-.89-.79-1.33-1.21.44-.41.81-1,1.33-1.19a12,12,0,0,1,3.33-.67c4.83-.2,9.66-.33,14.49-.44,2.62,0,5.24,0,7.85,0Z"/><path class="cls-8" d="M61.32,50.16a25.2,25.2,0,0,1,8.94-1.31c5.24,0,10.47.37,15.7.38q12.6,0,25.19-.24c5.93-.14,11.85-.52,17.75.41,1,.16,1.91.44,2.86.66l.13.5a14.63,14.63,0,0,1-3.24,1.25c-3.57.48-7.16.76-10.74,1.13-10.09,1-20.2,1.71-30.34,1-7.68-.56-15.35-1.33-23-2.1a14.72,14.72,0,0,1-3.35-1.22Z"/><path class="cls-8" d="M96.6,31.68c-9.63.21-19.25.46-28.88.61A33.25,33.25,0,0,1,62,31.77c-.6-.1-1.09-.81-1.63-1.24.6-.41,1.17-1.14,1.8-1.2,5.46-.5,10.92-1.17,16.39-1.24,12.64-.16,25.29-.11,37.93.06,4.68.06,9.35.71,14,1.09a2.28,2.28,0,0,1,1,.17c.45.31,1,.71,1.1,1.17.07.27-.58,1-1,1.05a23.31,23.31,0,0,1-4.82.67c-4.24,0-8.49-.3-12.73-.35-5.83-.07-11.66,0-17.49,0Z"/><path class="cls-8" d="M61.76,41.23a307,307,0,0,1,69.55,0l.09.85a34.1,34.1,0,0,1-5,.86c-7.56.22-15.12.38-22.68.42q-14.15.09-28.31-.07c-3.7,0-7.4-.36-11.09-.64a14.15,14.15,0,0,1-2.64-.71Z"/><path class="cls-9" d="M96.78,111.1c-3.15-.21-6.09-.35-9-.61-2.27-.2-2.8-.89-2.79-3.12,0-.84-.09-1.67-.14-2.51-.1-1.44.58-2,2-2a17.09,17.09,0,0,0,3.78-.18,32.9,32.9,0,0,1,11.75,0,20.64,20.64,0,0,0,3.93.2c1.41,0,2.12.63,2,2-.08,1-.17,2-.2,2.94-.05,1.63-.6,2.39-2.25,2.55C102.79,110.72,99.7,110.89,96.78,111.1Z"/><path class="cls-9" d="M106.32,131.41c0-.72.05-1.17.07-1.61.14-2.75.82-3.44,3.65-3.4,2.46,0,4.93.21,7.4.31,2,.07,3.94,0,5.89.2s2.21.73,2,2.66c-.06.79-.06,1.58-.09,2.37-.08,2.28-1.13,3.27-3.42,3.31q-4.87.1-9.75.28c-.93,0-1.86.2-2.79.32-1.92.27-2.94-.56-3-2.49C106.3,132.62,106.32,131.88,106.32,131.41Z"/><path class="cls-9" d="M86.75,131.32c0,.74,0,1.48,0,2.22-.07,1.68-1,2.45-2.72,2.36q-6.41-.37-12.82-.64c-2.2-.09-3.24-1-3.4-3.21,0-.64,0-1.28-.06-1.92-.14-2.83-.08-3,2.79-3.32,2.15-.23,4.33-.13,6.5-.19,1.87-.06,3.74-.18,5.62-.21a11,11,0,0,1,2,.21,2.07,2.07,0,0,1,2,2.33c0,.79,0,1.58,0,2.37Z"/><path class="cls-9" d="M141.29,134.47h-8.7a2,2,0,0,1-2.16-2.09c0-1.43.19-2.85.31-4.28a2,2,0,0,1,2.11-2c4.33.09,8.66.24,13,.42,1.12,0,2.24.3,3.36.43,1.38.16,2,.84,1.77,2.17s-.49,2.41-.72,3.62a2.07,2.07,0,0,1-2.45,1.79c-2.17-.07-4.34,0-6.52,0Z"/><path class="cls-9" d="M51.64,134.47c-2.12,0-4.24-.06-6.36,0a2.08,2.08,0,0,1-2.45-1.8c-.26-1.25-.52-2.51-.7-3.78a1.53,1.53,0,0,1,1.49-2c5.21-.35,10.41-.73,15.62-.94,2.5-.1,3,.47,3.21,3a32.13,32.13,0,0,1,.21,3.39,1.94,1.94,0,0,1-2.17,2.07Z"/><path class="cls-9" d="M61,123.61c-3,.17-5.81.34-8.67.48-2.35.12-2.94-.51-3-2.89-.05-1.08-.3-2.14-.42-3.22-.22-1.81.26-2.57,2-2.69q6.7-.44,13.41-.65c1.88,0,2.6.65,2.72,2.56a41.28,41.28,0,0,1-.13,4.58,1.73,1.73,0,0,1-1.9,1.82C63.69,123.64,62.31,123.61,61,123.61Z"/><path class="cls-9" d="M130.57,114.41c4,.3,8,.59,11.93.92,1.36.12,1.85,1,1.73,2.29-.15,1.61-.32,3.22-.58,4.82s-1.44,1.72-2.7,1.66c-3-.13-6.1-.31-9.15-.44-1.23,0-2.47,0-3.7,0a1.79,1.79,0,0,1-2-1.9,36.54,36.54,0,0,1-.13-4.43c.18-2.12.82-2.59,2.94-2.67.55,0,1.09,0,1.63,0Z"/><path class="cls-9" d="M116.29,102.61c3.67.39,7.34.74,11,1.2,1.82.24,2.2.77,2.33,2.62a9.45,9.45,0,0,1,0,1.19c-.15,3-.61,3.36-3.62,3.62-3.39.3-6.77.65-10.16,0a9.18,9.18,0,0,0-2.2.16,1.9,1.9,0,0,1-2.19-2c0-1.62-.07-3.25-.14-4.87a1.41,1.41,0,0,1,1.56-1.69c1.13,0,2.27,0,3.4,0Z"/><path class="cls-9" d="M77,102.81c1.08,0,2.17,0,3.25,0s1.58.61,1.52,1.72c-.07,1.57-.09,3.15-.13,4.73s-.87,2.18-2.37,2.14c-1.32,0-2.64.11-4,.07-3.29-.11-6.58-.23-9.87-.43a1.92,1.92,0,0,1-1.82-1.84.77.77,0,0,0,0-.15c-.7-4.12,0-5.11,4.11-5.61,3.08-.37,6.18-.5,9.28-.74Z"/><path class="cls-9" d="M157.33,130.68c0-3.77.79-4.36,4.62-4,4.15.43,8.33.73,12.5,1,1.21.09,1.9.65,1.82,1.82a36.76,36.76,0,0,1-.61,4.68c-.18,1-1,1.26-1.94,1.14a33.22,33.22,0,0,0-9.4-.32,16.29,16.29,0,0,1-5.56-.54c-.56-.12-1.14-1-1.37-1.65A6.71,6.71,0,0,1,157.33,130.68Z"/><path class="cls-9" d="M35.78,130.73c0,.35,0,.69,0,1,0,2.38-.34,2.66-2.66,3a26.83,26.83,0,0,1-7,.05c-2.05-.25-4.21.28-6.31.52-1.7.2-2.28-.2-2.48-1.85-.14-1.22-.39-2.43-.46-3.65-.08-1.48.55-2,2-2.06,1.23,0,2.45-.19,3.68-.29,2.84-.24,5.7-.41,8.53-.73C35,126.28,35.73,126.85,35.78,130.73Z"/><path class="cls-9" d="M142.34,103.74c2.47.18,5.67.44,8.87.62a2,2,0,0,1,2.16,2.08c.12,2.11.21,4.21-2,5.4a3.42,3.42,0,0,1-1.77.46c-4.32-.32-8.64-.74-13-1.09-1.31-.11-1.84-.65-1.79-2s0-2.56.08-3.84a1.57,1.57,0,0,1,1.82-1.66C138.34,103.75,140,103.74,142.34,103.74Z"/><path class="cls-9" d="M51.67,103.74c1.53,0,3.06,0,4.59,0s2,.62,2,2,0,2.56,0,3.85c0,1.11-.62,1.57-1.66,1.65l-13.26,1.16A4.1,4.1,0,0,1,40,110.08c-.06-.19-.12-.38-.16-.57-.8-4-.18-4.87,3.82-5.35,1.32-.16,2.65-.25,4-.3s2.67,0,4,0Z"/><path class="cls-9" d="M161.59,123.85c-2.46,0-4.92.08-7.38,0-2-.09-2.48-.88-2.05-2.83a43.33,43.33,0,0,1,1.27-5.14,2.17,2.17,0,0,1,1.64-1.24,94.8,94.8,0,0,1,9.68,1c2.34.4,2.67,1.12,2.63,3.49a11.59,11.59,0,0,0,.19,2.35c.29,1.54-.1,2.26-1.71,2.42-1.41.14-2.85,0-4.27,0Z"/><path class="cls-9" d="M32.66,124c-1.72,0-3.45.1-5.17,0s-2.24-.83-1.92-2.64a11.75,11.75,0,0,0,.1-2.78A2.27,2.27,0,0,1,27.25,116a7.36,7.36,0,0,1,1.69-.53c2.88-.33,5.77-.62,8.66-.9,1.1-.1,1.94.2,2.2,1.44.41,1.92.93,3.82,1.28,5.75.22,1.28-.58,2-1.79,2-2.21.08-4.42,0-6.63,0Z"/><path class="cls-8" d="M96.66,71.17c.25,0,.49,0,.74,0,3.41.3,3.75.46,3.85,3.61.07,2.26.53,4.51.81,6.76.24,1.88-.17,2.56-2,2.67a64.13,64.13,0,0,1-7.07,0c-1.72-.09-2.12-.74-1.94-2.43.3-2.84.62-5.69.93-8.53.11-1,.49-1.69,1.6-1.79s2.05-.25,3.07-.38Z"/><path class="cls-9" d="M106.52,115.53c3,0,6,.06,9,0s4.31,1.26,4.07,4.25-.93,3.47-3.86,3.59c-2.61.1-5.21.36-7.81.53a12.67,12.67,0,0,1-1.63,0c-3.14-.13-3.91-1.23-3-4.27a9.71,9.71,0,0,0,.28-1.3C103.87,115.87,104,115.77,106.52,115.53Z"/><path class="cls-9" d="M80,115.8c2.61,0,5.22-.08,7.81.06a2.39,2.39,0,0,1,1.62,1.32,18.7,18.7,0,0,1,.81,3.59c.31,1.72-.55,3-2.33,3-3,0-5.9-.19-8.86-.31-.59,0-1.17-.13-1.76-.13-3,0-4.52-2.3-3.48-5.17a5.65,5.65,0,0,0,.37-1.12A1.65,1.65,0,0,1,76,115.52c1.33,0,2.66,0,4,0Z"/><path class="cls-9" d="M96.63,126.68c1.68,0,3.35,0,5,0,1,0,1.6.5,1.56,1.4-.07,2-.26,3.93-.52,5.87-.09.75-.57,1.09-1.5.89a22.94,22.94,0,0,0-9.3,0c-1.07.21-1.46-.28-1.56-1-.23-1.9-.36-3.82-.43-5.74,0-.93.58-1.4,1.54-1.39C93.18,126.69,94.9,126.68,96.63,126.68Z"/><path class="cls-10" d="M92.93.07V170.78c-8-.35-15.43-.73-23.3-1s-15.37-.23-23.13-.26l-6.53,0c.07.94.18,1.95.25,3.16a25.29,25.29,0,0,1-.3,3.35c-.37,1.73-1.49,2.34-3.25,2.35s-3.79.3-5.7.31c-1.51,0-3-.25-4.54-.32-4.74-.23-9.47-.45-14.2-.58-2.56-.08-4.33-1.49-4.39-4,0-1.4,0-2.79,0-4.19H4.24c-1.91,0-3.09-.73-3.32-2.64-.34-2.83-.46-5.7-.57-8.55C.19,154.62.15,150.79,0,147a2.41,2.41,0,0,1,1.81-2.69,16.32,16.32,0,0,1,7-.59c0-1.25,0-2.48.06-3.72.16-3.41.44-6.81.58-10.21a11.72,11.72,0,0,0-.48-2.9c-.37-1.81,0-2.93,1.7-3.65a31.55,31.55,0,0,1,4.51-1.32c1.34-.33,2.7-.63,4.06-.83a2,2,0,0,0,1.86-2.2c.16-2.46.45-4.92.58-7.38.12-1.86.7-2.64,2.48-2.9,2.48-.36,5-.71,7.47-1,.77-.1.89-.41,1-1.14.11-1.38.25-2.76.48-4.13-.6,0-1.2-.05-1.81-.06-2.27-.06-3.36-1-3.4-3.18-.05-3.18,0-6.37,0-9.56l-2.37.07a15.86,15.86,0,0,1-1.82-.1c-.33,1.57-1.46,2-4,1.91a10.12,10.12,0,0,1-2.38.14c0,.91.09,1.81.13,2.71.22,4.45,0,4.75-4.43,5.3-2.25.29-4.52.47-6.78.66-1.92.16-3-.83-3.12-2.88-.07-2.28,0-4.55,0-6.82,0-1.52,0-3.06,0-5.11C2.88,81.6,2.64,77.31,2.36,73A2.22,2.22,0,0,1,4,70.54a12.07,12.07,0,0,1,2.61-.44c2.32-.15,4.63-.24,6.94-.35,1.91-.09,2.72.68,2.81,2.58.11,2.44.23,4.87.35,7.32a11.17,11.17,0,0,1,4.61-.14,2.48,2.48,0,0,1,2,2.46c1.43-.38,2.92-.53,4.37-.87.11-3.65.21-7.28.33-10.93.08-2.39,1.34-3.62,3.72-3.66,4.44-.09,8.87-.22,13.25.71l.21,0c-.12-4.31-.32-8.61-.24-12.92,0-1.43,0-2.86,0-4.3,0-8.49.23-17-.2-25.47C44.49,18,43.3,11.41,42.43,4.85,42.08,2.11,43.15.94,46,1q12.21.39,24.41.71c1.33,0,2.65-.21,4-.32,4.33-.35,8.37-.73,12.71-1C89.13.23,90.93.12,92.93.07Z"/></g></g></g></svg>