<svg xmlns="http://www.w3.org/2000/svg" viewBox="0 0 304.24 294.66"><defs><style>.cls-1{fill:#f1dfd1;}</style></defs><title>book--fr2</title><g id="Layer_2" data-name="Layer 2"><g id="explore-details-dataset-graph-view"><path class="cls-1" d="M128.51,30.59c-.7,4.88-4.67,9.79-4.63,14.64a1.41,1.41,0,0,0,2.61.71c6-7.81,3.93-25.08.79-33.95A17.08,17.08,0,0,0,113,.22C93.81-2.32,73.39,18,61.83,30.64,48,45.74,32.41,67.57,34.3,89.23c2,23.31,32.56,30,50.63,22,28.21-12.48,30.29-60.27-.05-71.38S18.36,62.69,8.08,88.52c-5,12.59-2.14,25.81,9.4,33.46,13.12,8.69,31.6.16,43.1-7.17,13.32-8.5,26.93-22.38,29.78-38.49,2.2-12.46-5.69-29.09-17.89-33.57C44.78,32.59,5,60.81,2,89c-4.69,44.08,47.35,70.22,79.29,39,11-10.79,14.31-26,2.77-37.46-11.83-11.8-32.1-13.32-47.45-9.66C18.13,85.33.64,103.54,0,122.87s19.2,31.25,35.22,35.95c17.43,5.1,34.43-3.42,48.63-13.16,10.78-7.4,24.26-19,25.19-33.09,1.59-23.91-48.56-21.86-61.36-11.85-15.13,11.82-3.45,35.42,5,47.35,9.77,13.81,27.37,30.67,45.89,28,23-3.35,25.9-44.87,18.43-60.46-5.8-12.13-20.93-8.25-30.24-3.42C73.54,119,59.86,132.91,57,147.93c-3.43,17.87,8.4,35.15,23.05,44,16.9,10.22,36.06,4.88,48.09-9.73,8.2-10,24.37-32.49,9-43.65-13.56-9.87-35.41-5.7-50.38-2.2C70.2,140.22,49.36,147,38.37,160.92c-10.69,13.54,4.18,23.8,15.88,28.6,9.88,4.06,47.71,18.41,53.87,1.39,5.09-14.11-17-32.84-25.69-40.3-13.48-11.5-34.09-26.07-53-23.38C6.23,130.54,8.5,160.86,11.31,177.79c5,30.44,51.18,34.66,74.57,30.77,14.18-2.35,28.3-9.11,36-21.69,7.89-12.92,5.78-32.86-4.62-43.72-10.54-11-28-7.93-39.94-1.56-17.17,9.13-29.93,29.15-29.44,48.65.44,18.1,14.88,31.3,31.05,36.6,17.77,5.82,37,1.64,51.55-9.54,11.35-8.72,20.86-22.63,20.53-37.4-.32-14.25-15.48-24.35-28.69-25-32-1.46-62.19,48.62-45.56,76.16,19.61,32.48,71.11,6.77,56.17-28.57-6-14.3-19.36-22.13-34.62-17.3-16,5.06-20.44,21.5-18.77,36.39,3.74,33.37,53.3,47.2,77.76,28.84,14.69-11,19.29-32.13,10-47.8-10.56-17.81-33.92-18-49.18-6.92-14.73,10.76-19.59,28.06-10.62,44.06,9.08,16.19,29.4,24.55,47.25,23.51,18.95-1.11,37.46-13.55,45.45-30.64,8.15-17.43-.76-34.41-14.82-45.22-10.8-8.3-25.19-9.11-31.05,4.69-5.38,12.67-1.67,29.58,6.08,40.41,21,29.42,66.82,9.21,84.28-13.31,21.29-27.44-1.75-65.42-36.06-56.79-33,8.3-31.66,52.77,1,59.77,28.63,6.13,68.54-15.85,55.23-48.88-12.33-30.62-58.63-25.86-81.16-11.66-10.35,6.53-34,34.22-22,47.59,9.66,10.75,33.26.69,43.36-3.78,15.75-7,35.17-18.85,40.87-36.2,6.95-21.14-20.74-31.53-35.94-35.86-13.87-3.94-34.75-7.25-42.3,8.77-7,14.82,9.61,28.06,21.2,33,31.65,13.61,81.87-7.45,78.09-46.29-2.74-28.1-50.3-54-69.68-26.09-7.55,10.9-9.58,27.8-.74,38.65,9.25,11.35,24.19,15.19,38.23,16.06,27.27,1.67,69.86-14.8,61.14-49.47-3.78-15-20.58-22.69-34.35-25.21-16.86-3.08-35.05,1.53-46.76,14.28-26.33,28.68-4.71,74.17,32.83,75.6,19.54.74,54.47-14.42,56.52-37.26,1.66-18.45-18.6-33-32.37-41.06C247.19,80.11,175.12,59,177.48,109.51c.62,13,5.83,30.36,16.91,38.07,13.59,9.45,30.11,5.93,41.43-5.32,30.51-30.35-9.16-68.78-37.28-80.09-14.56-5.85-32.4-7.25-45.08,3.32-15,12.47-22.4,28.85-10.89,46.55,21.45,33,74.65,23.08,87-12.21,5.52-15.76-.12-32.9-10.9-44.85-11.8-13.08-27.89-17.84-44.64-13.88-26.57,6.3-71.21,39.24-43,68.45,11.09,11.49,30,7.82,43.13,2.77,16.17-6.25,31.5-18.15,40.15-33.3,8.3-14.53,7.16-49-7.79-60.23-12-9-28.11.65-38,8.41C152.42,39.82,139,56.42,128.77,74.07c-5.32,9.16-16.07,27.57-8.67,38.19,9.08,13,36.41-4.18,45-9,18.58-10.5,49.45-28.39,49-53.51-.29-17.34-19.2-27.29-33.36-32.1-25.15-8.55-92.56-10-77.84,34.21,4.41,13.23,14.16,26.55,27.11,32.09,15.93,6.81,35.07.23,46.66-11.56s11.46-30.4,2.75-43.88c-8.46-13.09-25-18.54-39.84-18.94C107.88,8.68,89.2,36.77,85.5,65.61,83.34,82.44,94.12,92.48,110.12,94c20.69,2,42.66-6.36,61-15,17-8,36.56-19.22,46.61-35.79,8.48-14-1-24.49-14.35-29.37-12.11-4.43-41.8-10.69-44,9.27-2.06,18.49,14,37.86,25.84,50.18,9.85,10.22,29.85,28,45.62,20.51,8-3.82,11-12.68,12.35-20.85,1.66-9.78,4.38-33.09-5-39.85-11.09-8-25.23,4.64-31.43,13.22-10.73,14.81-3.72,32.07,8.79,43.16,13.45,11.91,33.86,13.9,48.47,3.27,12.35-9,8.31-19.84-.93-29.48-6.43-6.71-23.32-18.18-32.24-9.1-11.75,12-5.53,31,6,40.26,11.66,9.36,35.41,14.71,49,6.76,11.15-6.53-4.16-21.88-9.61-25.95-13.64-10.18-28-13.61-43.71-6.19-14.91,7-27.48,22.3-33.64,37.36-5.33,13.06-7.3,28.61,3.82,39.21,10.85,10.34,32.47,12.83,44,2.76,13.58-11.89,3.88-32-6.51-41.9-11.54-11-32.47-7.43-46-3.5-28,8.13-71.8,41-43.14,72.39,10.08,11,26.82,9,37.07-.29,11.72-10.61,13.55-31.14,6.46-44.59-14.93-28.28-60.72-24.18-80.21-4.35-12.43,12.64-24.73,60.93,4.19,62.7,36.71,2.24,48-44.49,29-69.3C121.78,86,85.63,121.86,72.32,147c-7,13.24-11.66,29.51-2.25,42.53s25.14,10.51,36.56,1.79c13.22-10.09,22.06-28,20.66-44.67-.94-11.18-9-24.24-16.82-32.07-32-31.89-55.81,50.4-59,68.6-2.42,13.7-6.29,37.16,5.17,48.19,12.23,11.77,34.85-9.54,39.13-20,10-24.43,2.33-71.2-33.32-56.54C30.3,168,59.09,213.42,81.18,220.38c13.5,4.24,47.07,10.27,50.49-10.83,2.69-16.53-13.17-33.87-24.7-43.39-11.94-9.85-30.55-18.88-44.53-7.79-8.17,6.47-11.19,18.47-12.44,28.25-2.21,17.26-2.55,37.32,4.82,53.44,11.07,24.24,40.38,17.48,52.68-1.52,16.15-24.95-6.41-65.39-35.08-68.32-26.9-2.75-51.66,30.31-40,55.48,10.43,22.45,47.42,30,60.4,6.21,11.3-20.73,2.28-51.63-15.6-65.69-18.05-14.19-54.64-7.4-60.23,17C11.16,209,40.94,233.37,60.81,243c26.89,13,59.17,6.71,71.42-22.95,10.07-24.4-11.65-50.58-37.46-38.73-26.06,12-24.9,58.93-.63,71.74,21.8,11.5,49.1-4.5,50.69-28.48.64-9.66-3.12-27.11-13.61-31.05-9.59-3.62-18.49,4.16-24.15,11.08-12.34,15.1-17.23,37.22-11.25,55.84,6.67,20.82,31.78,35.8,53.31,32.44,44.92-7,54.91-77.86,22.7-104.46a1.41,1.41,0,0,0-2,0C157.05,201,136.4,226.81,158.57,241c13.18,8.44,36.34,7.19,47.09-4.75,5.29-5.88,5.19-14.33,2-21.21-4.75-10.31-16.28-26.16-28.92-25.53-13,.65-16,21.19-16.28,30.69-.46,14.92,6.69,24.92,20.11,30.78,20.62,9,65.69,8.28,75.12-17.67,5.05-13.87-3.7-26.74-11.91-37.34-5.58-7.22-13.62-15.42-23.22-16.55-17.07-2-26.16,17.69-30.37,31.05-4.76,15.08-8.31,36.63-.31,51.27C201.32,279,220.6,257.1,227,249c9.1-11.51,20.15-25.81,9.12-39.69-9.79-12.32-31-12.93-44.52-8.37-25.37,8.52-40.88,42.83-37.83,68,4.05,33.42,41.66,16.92,58.25,3.91,54-42.35,12.53-123-39.12-146.26-26.52-12-55.4-5.11-73,18.27C93,154,70,184.43,85.7,195.82,98.2,204.87,119.36,195,131,189c16.91-8.65,34.91-22.35,41.62-40.8,7.73-21.27-11-36.3-28.31-44.15-16-7.26-29.42-8.7-46.16-3-18.57,6.31-35.78,18.7-48.1,33.86-9.22,11.33-16.28,28-9.73,42.31s18.36,23,34.48,20c17.85-3.28,33.31-18.61,44.59-31.78C131.73,151,138.93,136,142.93,117.6c3.4-15.64,11.59-48.86-4.54-60.94-12.07-9-29.28,2-39.2,9.29C81.92,78.58,67.31,95.56,56.07,113.68,48.53,125.84,38,145.06,44.28,159.77c7.42,17.44,35.92,14.07,49.32,7.74,30.21-14.28,30.18-61.08,8.29-82-27-25.79-72.72-3.84-83.9,27.36-7.55,21.07,11.54,52.9,34.37,55.86,18.67,2.42,33.8-13.16,43.74-26.95a139.81,139.81,0,0,0,24.67-62.44c1.84-14,1.16-35.3-14.55-41.45C85.5,29.78,52.73,48.64,40.86,64.47c-19.24,25.66-16.92,73.22,22,78,32.33,4,54.69-28.07,58.83-56.74,4.46-30.87-19.65-56.78-51.45-46.47s-34.5,56.08-13.2,77.2c25.63,25.41,73.51,6,96.79-13C166,93.52,174.26,80,171.48,64.06,169.1,50.47,159,42.13,145.55,41.27,116.72,39.44,79.73,67,75.76,95.83c-5,36.08,34,49.8,62.74,39.81C168,125.38,187,86.3,172.45,57.37c-7.1-14.15-25-16.22-38.73-12.37C121,48.55,113.08,59.75,110.35,72.13c-6.39,29,15.57,60.5,45.13,63.6,23.76,2.5,75.86-10.26,69.78-42.91C222.35,77.16,206,65.75,190.6,67.38,174.89,69.05,162.49,82.92,155.53,96c-7.42,14-8.9,31.52.44,44.92,9.76,14,28.28,17.36,44.19,16,33.77-2.89,66.16-33.54,44.45-67.42-18.18-28.39-61.75-22.27-65.36,13.35-3.28,32.28,43.83,48.1,68.14,37.65,12.28-5.28,19.65-20.65,14.16-33.25-6.13-14.05-21.07-21.46-35.87-21.87-30.86-.87-51.78,43.34-24.84,62.57,25.73,18.36,68.24,2.37,73.22-29.05,5.59-35.25-42-60.16-71.08-47.89-34.07,14.37-28.18,62.2,4.36,73.79,16.7,5.94,34.53-3.08,43.28-17.44,8.65-14.19,6-32.54-1.05-46.68-13.95-28-51.14-35-75.68-16.15-14.49,11.15-8.23,29.58,1.36,41.71,12.94,16.39,32.48,29.61,53.05,33.93,18.61,3.91,33.88-4.53,37.35-23.71a71.4,71.4,0,0,0,.33-19c-.41-4.63-.62-18.59-4.28-21.26-12.94-9.46-22.81,16.77-24.92,26.4-4.78,21.79,7.57,69.69,38.7,55.88,36-16-.22-61.1-25.44-65.92-11.47-2.19-27.67,2.23-38.14,7-6.52,3-12.35,8.18-13.42,15.55-2.28,15.69,15,30,25.9,38.21,11.55,8.65,29.39,20.16,44.69,17.84,17.66-2.67.53-29.44-3.69-35.91C245,104,210.66,90.77,173.79,95.19c-35.3,4.23-64.54,31.66-56.63,69,3,14.16,13.09,27.63,28.81,25.36,14.42-2.09,27.17-18.44,32.8-31,8.23-18.36-2.77-34.08-19.49-41.81C122.89,100,60.14,114,69.53,164.26c1.47,7.86,13.31,46.47,28.2,36.86,12.09-7.81,11.29-33.32,10.83-45.4-.55-14.5-3.29-38.26-18.85-44.86-20.51-8.7-43.14,24.11-51.06,38C29,165.65,30.35,185.08,50.48,192c16.14,5.54,38.6,1.32,49.73-12.17,16.86-20.44-8.17-46-23-58.38-16.71-14-40.59-20-55.41-.21-11.56,15.43-16,40-7.83,58,10.48,23,34.85,15.83,51.86,4.53,26.34-17.51,29.48-60.93-5.46-70.56C25.73,103.62,3,139.33,1.21,169c-2,33.53,27.61,57.06,59.15,41.61,29-14.2,41.48-60.71,18.59-85a1.41,1.41,0,0,0-1.71-.22c-12.12,8.09-19.62,23.06-25.25,36-6.54,15-10.94,32.19-8.28,48.63C45.92,223.72,57,234.33,71,234.8c14.47.49,25.64-11,31.95-22.78,9.27-17.37,11.52-61.23-19.95-53.23-26.29,6.67-25.92,50.69-21.87,70.58,3,14.68,10.5,29.31,24,36.76,13.84,7.66,32,3.78,44-5.58,26-20.3,41.75-71.55,6.9-91.47a1.4,1.4,0,0,0-1.42,2.42c40.67,23.24,9.95,92.49-30.36,95.75-41,3.32-47.16-54.52-38.89-82.72,4.06-13.82,17.16-30.9,33.17-21,15.25,9.45,7.58,36.66,1.1,48.8C90,230.45,65,240.82,50.9,220.94c-11.15-15.72-3.56-40.29,2.77-56.34A120.91,120.91,0,0,1,67,140a62.62,62.62,0,0,1,7.67-9c4.9-4.78,7.1,2.27,9.33,6.69,9.93,19.79,1.43,45.85-12.68,61.19-15.79,17.17-45,19.77-59.73,0C-.14,183.12,2.92,159.69,10.42,143c9-20.08,29.26-32.58,51.41-26.49C86.3,123.22,89,154.11,75.38,171.68c-8.87,11.46-28.51,22.86-43.57,19.95-10.81-2.09-16-12.89-18-22.67-4.11-20.49,4.15-51.76,27-57.49,15.81-4,31.11,8.53,41.75,18.42,10.11,9.4,22.1,23.26,20,38.21C99.49,189.39,69,194.3,52.26,189.61c-34.1-9.54-7.77-47.54,6.46-62.49,7-7.36,18-17.29,29.13-14,8.57,2.56,12.52,13.25,14.71,20.91,5.08,17.8,5.89,42.17-2.22,59.27-3.46,7.29-8.72,7.77-14,1.8-9.21-10.49-14.68-27-15.18-40.71-1-27.17,25.39-39.75,48.81-41.41,19.55-1.38,49.87,3.79,57.65,25,4.46,12.12-3.15,24.7-10.64,33.71C159.3,181,147.13,191,134.45,185.55c-11.29-4.87-15.09-20.5-15.93-31.39-3.94-51.51,59.88-63.28,97.66-53,20.79,5.66,35,17.93,46.78,35.5,4.68,7,13.33,18.88,10.61,28-4.66,15.64-83.91-23.95-71.24-53,4.39-10.06,18.77-13,28.27-14.75s18.54-2.89,27.62,1.27c10.23,4.69,18.76,13.57,24.57,23,6.54,10.63,7.21,23.34-3.39,31.47-8.62,6.63-18.5,7.15-26.88,0-14.93-12.79-16.72-38.37-11.32-55.83a43.55,43.55,0,0,1,8.43-14.94c1.37-1.64,8.69-9.65,10.6-1.65.54,2.32,1,4.67,1.46,7a91.86,91.86,0,0,1,1.6,25.94c-1,11-6.44,21.08-17.55,24.27-20.74,5.95-45.49-10.31-59.81-23.64-13.8-12.85-28.18-36.51-6.66-49.53,15.55-9.4,36.91-10.36,52.12-.38,18.82,12.34,27.21,39.67,17.85,60.1-11.92,26.07-46.11,24.33-60.8,2.55-14.87-22.06-.88-50.1,24-55.57,22.78-5,49.12,11.34,57.18,32.47,8.93,23.42-11.52,43.63-32.87,48.09-17.33,3.62-40.85-2.49-45.45-21.78C185.17,104,212.85,84,235.86,89.61c22.4,5.5,35.13,33.88,11.84,47.63-17.59,10.39-43.36,1.33-56.71-11.92-18-17.85-5.52-50,19.57-51.67,22.64-1.52,39.28,21.59,38.36,42.29-1.1,24.43-30.55,36.66-51.18,38.42-23.14,2-46-10.93-45.52-36.19.37-20.53,16.7-42.81,36.81-47.69,12.44-3,23.73,4.85,30.13,14.91,7.05,11.07,3.52,22.31-5.61,30.56-13.92,12.59-37.35,18.37-55.74,17.22-20.68-1.29-36.83-16.49-43.13-35.55-5.29-16-2.62-36.09,12-46.26,8.2-5.7,19.56-6.42,29-4.12,12.23,3,17.35,15.11,18.42,26.47,4,41.91-43.17,80.14-81.6,55.51-19.55-12.54-16.69-39.06-4-55.17a83.9,83.9,0,0,1,48.1-29.32c21.71-4.24,38,13.73,31.36,35.26-6.37,20.81-31.69,33.72-50.64,40.17-19.93,6.79-43.87,8.57-59.86-7.29C42.25,97.8,42.77,72,54.11,55.06c12.42-18.57,41.05-20.21,56.31-4.43,12.51,12.94,10.17,34.36,4.79,49.83-6,17.27-19.26,33.4-37.3,38.46-23.69,6.64-44.52-11.85-46.6-34.82-2.1-23.26,12-42.25,31.08-53.42,10.94-6.39,24-12.74,37.06-11.62,21.84,1.87,20.34,31,17.56,46.33-4.19,23.08-14.86,46.43-30.54,64C72,165.54,51.68,172.79,34.66,155.87,19.25,140.55,14.16,120.1,27,101.46c13.08-18.94,42.4-31.63,63.87-20.11,20,10.71,26.87,33.7,22.26,55-4.66,21.47-21.44,32.38-42.45,33.09s-28.85-12.89-22.92-32c6.48-20.85,21.46-39.66,36.61-54.92,10.84-10.93,30-29.38,47.24-25.94,22.88,4.56,10.45,52.07,7.53,65-4.75,21-17,38.19-32.3,53.09-14.16,13.74-38.77,30.16-56.49,13-19.53-18.93-5.72-44.54,10.11-60.06,15.17-14.89,37.62-27.68,59.34-27.84,14.76-.12,33.78,10,44,20.44,7.32,7.5,9.31,17.43,6.07,27.25-6.62,20.06-29,34.35-47.25,42.43-10.85,4.81-40.92,14.25-38.87-7.35,1.32-14,12.4-29.13,21.08-39.42,11-13.06,26.61-20.41,43.71-19.8,33.53,1.19,62.11,30.63,76.25,58.72,16.61,33,12.31,71.2-20,92.38-12.19,8-35.8,21-45.68,3.06-7.33-13.3-1.43-32.43,4.55-45,8-16.87,22.36-30.21,41.62-31.34,10.29-.6,21.57,2.56,28.8,10.12,10.55,11.05-1.27,25.27-8.14,34.46-5.15,6.89-15.35,21.06-25.64,19.52-7.37-1.11-9-12.15-9.62-18-2-18.79,2.61-42.58,14.92-57.38,19.11-23,46.16,12.36,50.38,30.53,4.55,19.61-18.3,29-33.46,31.69-17,3-38.7.83-51.4-12-11-11-6.29-57.19,15.08-45.9,10.63,5.62,24.34,23.1,19.89,35.9-6.35,18.3-40.46,16.3-51.15,4.24-9.59-10.82,1.37-26.62,8.53-35.22,2.14-2.58,6-9.14,9.26-6.18a42.94,42.94,0,0,1,8,10.57c5,8.66,6.71,18.94,6.91,28.78.4,18.76-6.89,39.25-22.1,50.9-17.91,13.7-43.4,6.16-58.06-8.62C94,260.9,93.93,240,100,222.89c3.8-10.64,15.3-30.83,29.41-27,7.62,2,10.26,12.93,11.77,19.42a32,32,0,0,1-4.77,25.58c-8.77,12.7-27.43,16-40.89,9.79-19.29-9-19.67-35.84-12.42-52.74s28-21.86,41.85-9.62c16.34,14.48,3.43,38.55-9.78,49.91-13.5,11.6-32.46,10.33-48.1,4.49C45.3,234.54,1.48,198.23,26,172.57,37.5,160.48,59,158.26,73,166.66c13,7.77,19.58,23.74,21.3,38.12,1.56,13-1.33,28.53-13.2,35.88-15.72,9.75-40.51-1.76-46.73-17.72C27.7,205.87,39,185.58,53.58,176.81c21.23-12.71,43.15,6.5,52.62,24.8,7.94,15.33,3.9,33.44-9,44.51-12.12,10.4-29.26,9.34-38.2-4.27-10.44-15.9-8.81-42.28-5.33-60.23,2.08-10.69,7.24-22.31,18.73-25.14,19.31-4.78,40,16,49.46,30.31,4.49,6.86,8.87,16,6.61,24.33-2.8,10.42-17,10.62-25.52,10.14-20.94-1.17-37.6-9-47.35-28.3-4.45-8.84-6.07-19.84-.73-28.61,6.3-10.33,23.75-12.95,32.7-5.27,13.93,11.93,11.69,39.9,4,54.41-4.4,8.3-17.42,18.38-27.35,18.19-17.76-.35-11.7-38.17-10.08-47.78,3.66-21.83,11.06-46.08,25.61-63.23,5.09-6,12.34-11.44,20.58-9.23,10.86,2.92,17.15,16.68,21.31,25.9,9.6,21.29-6.14,49.91-27.23,57.65C83,199.17,71.67,191.12,68.2,180.25c-3.29-10.3,2-22.82,6.54-31.86C82.86,132,101,107.77,121.66,108.86c24.69,1.31,36.06,28.09,31.53,49.61-3.66,17.41-33.79,41.77-46.47,19.17-8.19-14.59-.66-37.93,9.59-49.52,13.3-15.05,36.61-17.76,54.87-12.13,24.18,7.44,32.39,35.62,16.45,55.47-19,23.62-49.34-3.5-41.25-27.9,7-21.12,33.56-34,53.37-39.22,9.94-2.6,20.62-3.17,30.5-.11,13.55,4.2,22.49,20.56,19.2,34.12-3.89,16.06-22.21,14-34.2,10.83-11.72-3.11-18-12.52-18-24.25,0-20.44,16.5-41,32.94-51.4,19-12,44.15-3.31,55.05,15.82,8.69,15.24-21.49,12.31-28.52,10.9-13-2.61-25.59-10.71-28.76-24.2s5.34-25.26,18.9-20.48c9.29,3.27,18.57,11.9,22,21.14,5,13.3-17.35,20.22-26.68,20.31-14.28.15-27.32-9.36-34.31-21.21-6.83-11.59-3.32-23.48,5.24-32.91,7.35-8.09,23.4-15.66,27.07-.27,3,12.66,3.08,33.87-5.48,44.68C228.6,95,218.17,92.65,210.5,89c-19.71-9.31-37.15-29.95-45.39-49.86-3-7.11-5.61-17.27.85-23.27,8.19-7.63,25-2.91,34.14-.21,7.58,2.24,17.6,6.69,18.29,15.76.59,7.79-5.9,15-11,20.12-16,16.1-38.5,26.84-59.8,33.82-15.35,5-42.31,12.47-55.18-1.68C85.57,76.14,88,64,90.6,55.25c5.48-18.47,15-35.26,34.44-41s43.85,1,54.15,19.24c14.58,25.84-11.13,50.22-36.39,50.23-23.22,0-55-41.26-30.18-59.94,16.08-12.11,41.8-10,60.1-5.54,16.51,4,41.49,15,38.34,36-1.87,12.43-12.74,22.32-21.95,29.8a174.27,174.27,0,0,1-44.48,26.19c-5.8,2.3-16.23,6.33-21.65,1.17-4.43-4.22-1.73-12.92-.19-17.77,6.11-19.18,19.66-36.85,33.33-51.26,10-10.57,28.39-28.77,44.8-23.5,8.72,2.81,11.82,13.61,13.39,21.52,3.69,18.56,1.84,35.06-11.38,49.34-13.88,15-37.77,28-58.71,23.76-11-2.25-18.51-12.66-19.25-23.54-.78-11.44,8.15-21.51,16.07-28.53,16.09-14.24,41.07-24.83,61.53-14.9,21.77,10.56,32.48,36.19,22,58.36C212.61,130,179.48,135.33,157.17,122c-10.7-6.39-18.24-17.71-17.71-30.34.58-13.86,15.18-26.78,27.8-30.25C208.58,50,276.94,117.27,225.1,147c-32.81,18.79-61.8-41.65-35.16-60.87,17.49-12.62,45.93-4.31,63.87,2.78s44.7,21.37,47.45,42.89c1.41,11.06-7.08,19.52-15.54,25.1-17.91,11.83-41.05,18.24-60.41,6.34C201.3,148.43,201,116.34,218.8,97c15.12-16.47,44.42-14.85,62-3.86,21.38,13.4,13.79,40.31-4.65,52.12-15.78,10.11-37.32,11.76-55.2,7.55-20.36-4.8-31.66-20.58-25.13-41.18,8.08-25.52,41.1-18.21,56.2-4.78,22,19.53,11.72,48.77-11,61.82-20.71,11.93-55.56,11.88-69.37-10.58-7.07-11.5,1.24-22.09,12.81-24.69,11-2.48,24,2.16,34.38,5.86,10.07,3.59,22.81,9.81,25,21.42,3.64,19.06-24.3,34.78-38,41.36-8.16,3.93-43.51,18.33-44.42-.42-.54-11.3,10.33-25.67,17.8-33,13.89-13.61,37.55-17.33,56-13.87,20.82,3.92,37.77,25.51,25.57,46-10.2,17.14-36.4,22.63-54.4,17.85-25-6.62-25.12-38.48-4.56-50.41,22-12.75,49.45,3.58,48.78,28.85-.59,22.17-24.54,38.4-43.37,44.44-21,6.75-43.2-.21-50.41-22.28-2.8-8.58-3-18.79.51-27.17,6.35-15,23-5.46,31.33,1.77,25.6,22.24,4.64,54.36-21,63.76-23.88,8.75-55.75-3.18-61.91-29.51-3.82-16.3,11-30.82,24.94-35.94,16.64-6.14,33.56,5.37,38.1,21.35,3.94,13.88-5.24,29.68-16.63,37.13-9.87,6.46-22.79,6.44-33.87,4-22.61-4.92-41.57-25-35.6-49.17,2.65-10.75,12.67-18,23.34-18.94C120,185.22,128.54,197,132,208.81c3.7,12.71-3.17,25-14.16,31.16-12.9,7.23-27.8,2-37.09-8.24-17.07-18.83,3.07-51.92,18.06-65.07,9.74-8.55,20.92-10.64,33-6.42,11.76,4.1,17.91,14.33,15.84,26.47-3.33,19.53-23.34,35.47-41.9,39.07-26.53,5.13-56.25-11.38-55.09-40.52,1-24.62,28.42-50.9,53.61-45.95,24.59,4.83,23.34,40.16,8.56,54.22-22.8,21.69-85.63,20-98-13.27-4.38-11.79-4.47-31.26,2.19-42.33,5.28-8.78,16-9.05,24.94-7,21.29,5,41.5,21.61,54.9,38.35,4,5.06,11.37,14.61,8.2,21.6-4,8.79-22.61,3.5-28.95,2.13-13-2.82-52.21-13-33.61-32.67,13.34-14.11,36.56-20.27,55-23.34,12.45-2.07,43-5.09,43,14.52,0,12.79-12.06,27.41-20.74,35.34C96.18,208.51,62,182.44,59.4,156c-2-20.16,19.63-39.63,37.35-45,25.57-7.74,21.75,29.53,17.69,44-7.94,28.26-34.36,17.72-49.9,2.64-11.8-11.46-32-40-14.87-55,11.12-9.69,33.67-6.55,46.07-2.39,26.77,9-4.25,36.72-15.25,44.26a84.7,84.7,0,0,1-26.3,12.21c-13.83,3.62-29.81-3.2-40.37-12C-13.42,122.1,15.69,87.58,42.18,82.6c20.08-3.78,57.12,8.61,43.58,35-14.89,29-56.23,27.42-73.38,2.71C5.25,110,1.84,93.45,6.18,81.49,9.86,71.33,18.42,63,26.82,56.6,41.07,45.74,65.39,36.12,80,51.39c33.27,34.86-47.19,97.5-69.34,59.28C.39,93,21.26,69.9,33.16,59.29,48,46.09,70.5,34.17,89.53,45.32c18.24,10.69,17.69,36,7.4,51.79-10.4,16-31.49,18.06-47.51,9.89-22-11.23-10-39.58-.37-55.06C60.88,32.86,79.37,13.06,100.8,5c7.44-2.81,16.44-3.45,21.63,3.65,5.57,7.62,7.4,28.35,1.64,35.92l2.61.7c0-4.49,3.88-9.33,4.53-13.89.25-1.77-2.45-2.53-2.7-.75Z"/><path class="cls-1" d="M222.52,234.82c-2.17-4.41-1.67-10.71-4.44-14.7a1.42,1.42,0,0,0-2.56.89c-.5,9.82,10.91,22.93,18.5,28.48a17.1,17.1,0,0,0,18.44,1.67c17.28-8.73,22.65-37.06,25.09-54,2.93-20.29,3.45-47.09-10.33-63.9-14.83-18.11-43.77-6.37-54.18,10.42-16.25,26.22,9,66.87,40.31,58.92s42-56.42,35.93-83.56c-3-13.22-12.8-22.51-26.64-22.32C246.91,97,236.45,114.42,231.1,127c-6.2,14.53-9.61,33.67-2.88,48.57,5.22,11.53,21.11,20.82,33.71,17.64,28.59-7.23,45.55-53,32.11-78-21-39-78.71-31.27-87.48,12.52-3,15.14,2.83,29.5,18.84,32.49,16.43,3.06,34-7.11,44.63-18.79,12.75-14,16.92-38.94,6.53-55.25s-33.48-15-49.36-9.82c-17.27,5.62-26.49,22.24-32.73,38.3-4.72,12.19-9.3,29.39-2.13,41.53,12.18,20.64,52.43-9.34,57.35-24.83,5.83-18.3-17.13-31.19-30.83-36.28-15.86-5.9-39.9-9.89-53.67,2.79-17.1,15.74,3.92,51.66,18.89,60.32,11.63,6.74,21.93-5,26.9-14.24,7.05-13.1,10.5-32.31,4.41-46.33-7.25-16.69-26.77-24.29-43.87-23.34-19.71,1.1-32.52,16.32-34.21,35.16-1.15,12.85-1.8,40.58,17.17,41.14,16.77.5,32.45-15.27,42.85-26.61,11.49-12.53,24.86-29.9,26.09-47.58,1.19-17.2-16.87-17.29-29.25-14.65C183.73,63.93,144.4,73.42,148.92,91c3.75,14.53,32.51,17.55,43.94,18.78,17.62,1.9,42.86,2.3,56.94-10.59,17.3-15.82-1.68-39.58-13.55-52-21.34-22.28-61.81.26-78.93,16.65-10.38,9.95-18.23,23.5-17.48,38.21.78,15.12,13.77,30.4,28.49,33.5,14.91,3.14,27.56-9.23,33.85-21.25,9-17.22,8.28-40.95-3.12-56.77-10.59-14.7-30-17.45-46.29-12.7-18,5.21-31.48,19.52-37.19,37-4.45,13.61-4.46,30.46,4.15,42.46,8.3,11.59,26.52,11.38,37.77,4.42,27.26-16.85,23.93-75.22-5.35-88.58C117.64,24.3,89.62,74.59,121.88,95.34c13.06,8.4,28.48,7.35,38.36-5.25,10.35-13.2,4.74-29.28-5-40.63C133.29,24,84.56,40.55,74.73,69.51c-5.91,17.4,2.2,37.41,18.7,45.11,18.77,8.76,38.19-4.23,44.51-22,6.1-17.2.36-34.22-16.08-42.37C105.22,42,83.73,46.54,69.58,57.47c-15,11.6-23.28,32.32-20.24,50.94,3.1,19,20,28,37.74,29,13.6.76,25.94-6.69,23-21.4-2.7-13.49-15.31-25.35-27.81-29.93-34-12.42-60.37,30.09-62.09,58.53-2.09,34.67,38.36,53,61.82,26.55,22.57-25.48-3.63-61.43-34.51-48.81-27.1,11.09-47.66,51.76-18,71.53,27.46,18.31,63-11.73,73.59-36.17,4.86-11.23,8.75-47.42-8.7-51.69-14-3.43-27.84,18.19-33.67,27.59-9.07,14.63-18.4,35.4-13.33,52.94,6.19,21.37,34.92,14.33,49.91,9.32,13.68-4.56,32.78-13.61,30-31.1-2.59-16.18-23.76-17.74-36.15-15.32-33.8,6.62-63.39,52.35-38.36,82.28,18.11,21.65,72,16.24,72.25-17.77.09-13.25-7.77-28.36-21.19-32.33-14-4.15-28.54,1.11-40.62,8.31-23.46,14-49.33,51.62-22.58,75.33,11.58,10.26,29.79,7.13,42.59,1.44,15.65-7,28.07-21,30.55-38.16,5.56-38.54-38-63.91-69.75-43.91C27.42,195,7.12,227.25,18.31,247.28c9,16.16,34,16.76,49.9,15.63,28.38-2,99.79-25.25,69.35-65.62-7.83-10.38-21.93-21.78-35.44-21.89-16.55-.15-28.2,12.08-31.2,27.76-8.07,42.27,46.36,51.62,76,45.09,15.32-3.38,30.84-12.29,35.36-28.17,5.32-18.74,2.22-36.45-17.27-44.57-36.31-15.12-74.67,23.05-65,59.18,4.32,16.12,18.64,27.09,34.3,30.88,17.11,4.15,33.09-1,44.68-13.72,18.39-20.19,36.66-72.57-3.12-80.77-15.63-3.23-29.21,10.49-37.17,22-9.82,14.28-15.77,32.76-14.37,50.15,1.34,16.67,21.74,44.5,40.41,45.34,15.05.68,22.84-16.4,26.65-28.39,6.2-19.53,7.89-40.78,6.4-61.15-.77-10.56-2.27-31.83-14.38-36.43-14.85-5.64-27.7,24-32.07,32.87-9.41,19.15-24.82,51.34-10.29,71.84,10,14.15,31.24,11.7,45.65,7.69,25.58-7.14,82.09-44,45-72.16-11.1-8.45-26.66-13.95-40.49-11.21-17,3.36-29.08,19.59-32,35.87-3,16.47,7.69,31.56,22.49,37.78,14.36,6,31.11,1.2,43.57-6.84,26.69-17.2,26.27-50.94,13.06-76.83-7.71-15.12-22.28-17.32-36.34-9.56-18.2,10-31.65,29.32-41.92,46.82-9.53,16.22-19.35,36.49-18.3,55.84.88,16.33,14.62,19.68,28.42,16.16,12.49-3.18,40.54-14.75,31.12-32.49C192.53,242,168.37,235,151.62,231.57c-13.9-2.89-40.46-6.33-49.24,8.79C97.92,248,100.48,257,104,264.55c4.15,9,15,29.79,26.56,30.1,13.7.37,18.22-18.06,18.51-28.64.5-18.29-15-28.58-31.61-30.68C99.59,233.08,81.61,243,75.54,260c-5.13,14.37,4.33,21.07,17.4,23.82,9.1,1.91,29.51,1.85,31.76-10.68,3-16.5-13-28.75-27.63-29.88-14.92-1.14-37.55,7.84-44.25,22C47.3,277,68.59,281,75.38,281.28c17,.71,30.81-4.55,39.59-19.55,8.33-14.23,10.11-33.9,6.7-49.82-3-13.79-10.11-27.74-25.27-30.22-14.8-2.42-34.05,7.72-37.86,22.52-4.5,17.49,14.86,28.64,29,30.93,15.72,2.54,31-12.18,39.94-23,18.49-22.49,36.14-74.39-5.22-84.11-14.54-3.42-27.22,7.7-30.45,21.14-3.68,15.38,6.38,33.36,19.84,40.46,28.27,14.93,63.77-14.27,68.67-41.65,3.13-17.45-14-64.26-38.83-49.4-31.57,18.85-14.5,63.78,15.18,73.55,40.16,13.22,49.75-36.81,46.59-65.06-1.68-14.88-7-30.93-22.14-36.38s-26.69,5.51-31.2,19.14c-5.22,15.79-2.42,35.57,8.14,48.54,7.08,8.7,21.08,15,32,17,44.39,8.3,17.65-73.09,10-89.94-5.73-12.67-15.77-34.22-31.45-36.87-16.74-2.82-23.4,27.54-21,38.58C153.13,92.9,185.85,127.19,207,95c19.07-29-30.32-50.27-52.49-43.56C141,55.53,109.87,69.5,119,88.85c7.11,15.16,30,20.53,44.88,21.89,15.41,1.4,35.87-1.65,41.17-18.69,3.08-10-1.19-21.56-5.67-30.34-7.91-15.5-19-32.26-34.13-41.41-22.82-13.77-43.2,8.34-42.64,31,.74,29.71,42.18,50.36,67.5,36.62,23.77-12.91,25.55-54.18,1.71-68.36-21.28-12.65-56.11,2-53.39,29C140.75,72,165.63,92.4,188.32,93.93c22.91,1.53,49.3-24.72,40.12-48-9.65-24.56-48-27.89-69.85-24.64-29.55,4.4-52.64,27.84-46,59.23,5.45,25.84,38.15,35.2,52.78,10.85,14.77-24.57-12.69-62.7-39.95-59.58-24.49,2.8-38,31.41-25.79,52.11,4.92,8.33,17.87,20.62,28.76,18C138.32,99.39,141.28,88,142.05,79c1.67-19.42-6.77-40.45-22.21-52.45C102.58,13.16,73.4,15,57.53,29.88,24.4,61,56.11,125.15,97.71,128.94a1.43,1.43,0,0,0,1.64-1.12c3.48-17.59,6-50.56-20.36-49.79-15.64.47-34.06,14.56-36.2,30.49-1,7.85,3.8,14.76,10.31,18.65,9.73,5.83,28.2,12.41,38.28,4.76,10.39-7.89,1.24-26.52-3.87-34.52-8-12.58-19.58-16.81-34-14.07-22.11,4.2-58.91,30.21-52.07,57,3.66,14.3,18.15,20,30.91,24.12,8.67,2.81,19.95,5.05,28.51.57,15.23-8,11.61-29.37,7.55-42.78-4.57-15.13-13.8-34.93-28.66-42.5C22.26,70.79,18.7,99.74,18,110.09c-1,14.65-2.07,32.68,14.86,37.92,15,4.65,32.86-6.79,41.48-18.2,16.14-21.35,9.6-58.43-7.12-77.5C45,27,23.27,61.85,16.9,82-3.82,147.41,76,190.57,131.71,180.65c28.65-5.1,48.63-27,50-56.29.54-11.5,2.38-49.58-17.06-50.11-15.42-.42-27.3,19.69-33.55,31.17-9.08,16.68-16.22,38.15-11.35,57.17,5.62,21.92,29.57,23.76,48.29,20.48,17.3-3,29.2-9.41,39.82-23.55,11.77-15.68,19-35.62,20.62-55.09,1.21-14.56-2.35-32.28-15.85-40.42s-28.13-8.64-39.76,2.9c-12.89,12.79-17,34.17-18.9,51.4-2.06,18.88.48,35.36,7.56,52.81,6,14.83,18,46.88,38.12,47.76,15.07.65,23-18.21,27.13-29.79,7.14-20.17,9.62-42.43,8.68-63.73-.63-14.29-2.79-36.1-16.27-44.72-16-10.21-37.6,8.65-45.09,21.44-16.88,28.83,9.54,67.45,39.42,72.39,36.82,6.09,62.22-37.85,53.85-69.92C261.71,82.9,228,67.38,207.47,77.82c-16.77,8.53-20.48,29.93-20.91,46.93a139.76,139.76,0,0,0,14.86,65.47c6.37,12.59,19,29.8,35.39,26,21.68-5,38.1-39,39-58.82,1.41-32-27.33-70-62.18-52-28.93,15-29.32,54-16.57,80,13.73,28,48.26,35.79,68.7,9.34s-3.15-65.77-32.65-71.19c-35.5-6.52-64.1,36.51-72.57,65.36-4.41,15-3.62,30.87,7.65,42.43,9.62,9.88,22.66,11.08,34.26,4.19,24.84-14.75,39.86-58.33,26.85-84.42C213,118.62,173.09,129.27,155,153.72c-18.6,25.13-12.19,68.09,16.12,83.78,13.84,7.68,29.77-.69,39-11.63,8.47-10.09,8.72-23.83,4-35.58-11.06-27.52-47-41.18-73.15-27.06-21,11.33-56.83,51.26-33.41,74.79,11.25,11.29,31.18,11.49,43,1.46,12-10.24,14.45-28.7,12.8-43.44-1.77-15.75-10.43-31-25.7-36.85-16-6.06-33.15,1.62-45.51,11.71-26.27,21.44-35.71,65,1.32,80.75,31,13.19,63.55-16.45,46.44-47.9-15.51-28.51-63.32-15-77.5,7.35-7.16,11.29-4.58,28.15,7.06,35.45,13,8.14,29.51,5.83,42-2.18,26-16.69,18.3-65-14.79-65.68C65,178,38.89,215.23,52.5,244c15.26,32.26,68.61,26,85.7-.55,20-31.09-11.81-67.26-45.23-58.46-17.14,4.51-26.76,22-25.89,38.81.86,16.58,13.42,30.24,27.21,38,27.33,15.27,62,.08,71.59-29.36,5.68-17.38-9.89-29.06-24.65-33.68-19.93-6.23-43.52-6.12-62.94,1.92-17.57,7.26-25.43,22.85-17.47,40.64,2.6,5.81,6.44,11,10.47,15.91,2.95,3.59,11,15,15.52,15.14,16,.51,9.38-26.71,5.69-35.86-8.34-20.69-45.56-53.26-63.47-24.3-20.72,33.51,34.64,50.32,58.18,40.07,10.71-4.66,21.6-17.44,27.55-27.28,3.72-6.13,5.59-13.72,2.31-20.42-7-14.24-29.28-16.34-42.94-16.93-14.42-.63-35.64-.06-47,10.48-13.08,12.16,16.17,24.61,23.31,27.57C85,240,120.73,231.48,148.69,207c26.76-23.4,35.43-62.55,7.82-88.95-10.46-10-26.4-15.43-38.1-4.69-10.73,9.86-12,30.55-9.6,44.09,3.55,19.8,21.51,26.58,39.68,23.53,39.54-6.63,83.44-53.6,47.32-89.83-5.64-5.66-37.2-30.86-44.08-14.52-5.57,13.26,9.48,33.88,16.67,43.59,8.64,11.67,24.3,29.73,40.88,26.41,21.83-4.38,22-44.24,20.74-60.14-1.53-19.34-13.6-34.63-34.12-29-16.46,4.53-32.62,20.68-34.2,38.11C159.31,122,194.39,129,213.59,130.89c21.7,2.14,44.8-6.39,45.87-31.08.84-19.26-9.37-42.08-26.23-52.28C211.6,34.45,195.52,54.12,187.85,73c-11.86,29.32,10,67,44.32,55.18,34-11.68,32.63-54,17.37-79.51-17.23-28.84-55-31.53-72.31-1-15.94,28.09,0,73.53,32.63,80.7a1.4,1.4,0,0,0,1.52-.77c5.44-13.52,3.2-30.11.55-44-3.1-16.11-9.13-32.75-20.59-44.82-9.58-10.09-24.7-12.6-36.57-5.07-12.21,7.76-15,23.53-13.52,36.83,2.14,19.58,25,57.07,46.5,32.7C205.68,83,180.55,46.84,166,32.71c-10.75-10.43-25.2-18.27-40.53-16.83-15.74,1.49-28.56,14.94-33.16,29.41-10,31.42,5.88,82.64,45.89,79.43a1.4,1.4,0,0,0-.19-2.8C91.3,125.67,77.6,51.17,109,25.73c32-25.87,69.7,18.41,78.78,46.36,4.44,13.71,3.26,35.2-15.55,36-17.93.8-26.94-26-28.44-39.67-2.22-20.4,12.54-43.06,35.4-34.59,18.07,6.7,25.66,31.26,29.49,48.09a120.82,120.82,0,0,1,2.92,27.86,62.59,62.59,0,0,1-1.27,11.74c-1.35,6.71-7.14,2.13-11.47-.27-19.37-10.73-27.05-37.05-24.05-57.67,3.35-23.09,26-41.71,49.32-33.69,18.53,6.37,29.22,27.46,32.47,45.49,3.9,21.66-5.78,43.42-27.51,50.88-24,8.23-43.65-15.76-42.34-37.94.86-14.47,10.65-35,24.72-41,10.11-4.38,20.51,1.6,27.65,8.56,15,14.61,25.76,45.08,10.12,62.72-10.82,12.19-30.49,10.5-44.86,8.34-13.66-2.05-31.37-6.73-38-20.3-9.48-19.29,12.89-40.53,29.38-46.12,33.54-11.36,33.24,34.87,29.92,55.24-1.64,10-5.11,24.44-16.17,28-8.51,2.72-17.81-3.88-23.93-9-14.24-11.83-28.66-31.5-31.61-50.19-1.26-8,2.82-11.33,10.51-9.36,13.52,3.47,27.33,14,35.5,25.05,16.14,21.88,1.46,47.15-16.94,61.73-15.37,12.17-43.33,25-61.7,11.89C110.83,166.38,110,151.7,111.12,140c1.14-12,5.52-27.18,19.08-29.81,12.07-2.35,24,8.41,30.85,16.93,32.32,40.31-13.74,86-50.72,98.86-20.36,7.06-39,5-58.66-2.93C43.87,220,30,215,27.13,206c-5-15.54,82.78-27.56,88.7,3.55,2,10.77-8.18,21.3-15,28.12S87.13,250.5,77.28,252.18C66.2,254.08,54.14,251.56,44,247c-11.4-5.09-19.12-15.21-15-27.9,3.38-10.34,11.24-16.34,22.21-15.14,19.55,2.14,35.45,22.25,40.85,39.71a43.86,43.86,0,0,1,1.47,17.09c-.21,2.13-1.74,12.87-7.83,7.35-1.76-1.61-3.46-3.29-5.16-5a91.74,91.74,0,0,1-16-20.51c-5.36-9.67-6.57-21,.81-29.94,13.76-16.61,43.37-17.15,62.71-14.22,18.66,2.82,43.87,14.25,33.44,37.14C154.06,252.17,137,265,118.77,265.35c-22.49.42-44.84-17.41-48.64-39.55-4.86-28.26,24.34-46.1,48.77-36.4,24.72,9.82,29,40.86,11.52,59.42-16,17-46.95,18.34-65.53,5.44-20.59-14.3-15.1-42.51,0-58.24,12.27-12.77,35.12-21,49.8-7.66,19.61,17.81,8.07,50-14.13,58.3C79,254.75,52.46,238.5,63.94,214c8.67-18.5,35.06-25.56,53.55-22.14,24.91,4.59,32.76,38.15,13,53.7-17.84,14-44.61,4.33-55.53-13.29-12.88-20.78,4.55-47.49,20.58-60.58,18-14.69,44.13-16.91,58,4.2,11.27,17.16,10.35,44.77-3.49,60.14-8.57,9.52-22.34,9.38-33.3,4.69-12.06-5.17-15.49-16.44-12.6-28.4,4.39-18.25,20.47-36.25,36.3-45.67,17.81-10.6,39.72-7.15,55.67,5,13.42,10.25,22.53,28.32,16.2,45-3.55,9.33-12.53,16.33-21.61,19.74-11.79,4.43-22.85-2.69-30.14-11.46-26.92-32.36-9.56-90.52,36.07-91.86,23.21-.67,35.82,22.83,34.4,43.32a84,84,0,0,1-23.17,51.34c-15.54,15.74-39.1,10.07-45.8-11.43-6.47-20.78,7.15-45.72,19.16-61.73,12.63-16.85,31.39-31.83,53.54-27.76,21.06,3.87,35.18,25.45,35.37,45.85.22,22.34-22.49,39.84-44,35.42-17.63-3.62-27.78-22.63-32.06-38.44-4.78-17.65-2.94-38.44,9.1-52.79C219,98,246.63,101.5,261.31,119.3c14.85,18,14,41.63,4.47,61.64-5.42,11.44-12.65,24.07-24,30.5-19.1,10.77-34.27-14.1-40.63-28.35-9.57-21.42-13.93-46.73-10.88-70,2.83-21.53,15.51-39,39.11-34.6,21.37,4,37.1,18,37,40.63-.12,23-17.18,50-41.4,52.63-22.53,2.42-41.2-12.66-49.39-32.84C167.27,118.51,175,100,191.92,87.6s31.09-5.63,37,13.49c6.42,20.87,4.66,44.85.76,66-2.78,15.13-8.2,41.18-24.37,48.07-21.46,9.13-38-37.1-42.91-49.45-7.94-20-7.55-41.1-3.28-62.06,3.95-19.32,15-46.77,39.32-42.59,26.81,4.61,29.85,33.55,25.54,55.29-4.13,20.85-15.46,44.08-33.3,56.47-12.12,8.42-33.53,10.82-47.86,7.94-10.28-2.07-17.52-9.14-20.38-19.08C116.56,141.39,127,117,137.48,100c6.25-10.09,25.75-34.85,36.26-15.85,6.79,12.3,6.18,31,4.81,44.44-1.73,17-10.45,31.86-24.91,41-28.36,17.94-68.56,9.75-96.09-5.47C25.24,146.26,7.22,112.26,21.92,76.58c5.55-13.48,17.72-37.54,36-28.3,13.55,6.84,19.48,26,21.64,39.73,2.88,18.45-1.43,37.56-16.69,49.35-8.16,6.3-19.26,10.06-29.49,7.89-14.94-3.16-13.21-21.57-12.71-33,.36-8.59.79-26,10.15-30.58,6.71-3.24,14.29,5,18.07,9.39,12.26,14.38,21.86,36.63,20.05,55.8-2.81,29.77-45.08,15.84-58.82,3.21-14.82-13.63-1.23-34.25,9.75-45,12.32-12.1,31.48-22.52,49.2-19.11,15.28,3,37.46,43.68,13.44,46.41-12,1.36-33.13-5.34-36.68-18.42C40.75,95.18,70,77.58,85.66,81.51c14,3.53,13.89,22.76,12.83,33.89-.31,3.35.19,10.95-4.15,10.33a42.52,42.52,0,0,1-12.6-4.2c-9-4.34-16.22-11.85-21.95-19.86C48.88,86.4,43.34,65.37,49.33,47.18,56.38,25.76,81.7,17.6,102.14,21.54c19,3.65,30.81,20.88,35.4,38.44,2.87,10.93,4.77,34.09-9,38.93-7.43,2.61-15.76-4.9-20.66-9.4A31.93,31.93,0,0,1,97.36,65.7C97.43,50.27,111,37,125.59,34.55c21-3.48,36.47,18.49,40,36.53S154.77,105,136.47,102.63c-21.66-2.73-24.58-29.88-20.07-46.72,4.59-17.2,21-26.84,37.17-30.84,22.61-5.58,79.27-.33,73.53,34.67-2.7,16.5-19.23,30.47-35.51,31.42-15.07.89-29.56-8.56-39.1-19.46-8.6-9.83-15-24.3-9.33-37.07,7.48-16.92,34.44-21.39,48.58-11.73C206.88,33.23,209,56.33,201.9,71.82c-10.36,22.48-39.28,19-57.43,9.21-15.2-8.18-22.08-25.41-17.68-41.83,4.14-15.42,18.89-24.22,34-18,17.59,7.23,31.13,29.93,38.37,46.72,4.32,10,6.61,22.5-1.27,31.33-13.26,14.83-42.07,9.41-57.94,2.87-7.58-3.12-16.34-8.18-19.19-16.36-3.56-10.18,8.07-18.37,15.36-22.77,18-10.84,36.09-13.81,55.05-3.34,8.67,4.79,16.2,13,16.75,23.21.63,12.09-12.31,24.09-24,22.8-18.23-2-32.16-26.34-34-42.67-1.05-9.32,4-25,12.33-30.44C177,22.8,193.35,57.44,197.43,66.29,206.72,86.38,214.29,110.58,212,133c-.82,7.82-3.73,16.41-11.78,19.23-10.62,3.72-23.58-4.1-32.21-9.36-19.94-12.17-23.08-44.68-10-63,7-9.87,21-9.64,30-2.62,8.52,6.65,11.18,20,12.57,30,2.53,18.08,1.24,48.35-16.44,59.11-21.12,12.84-45.62-2.86-54-23.18-6.8-16.43,4.34-53.56,27.56-42,15,7.43,21.94,31,20,46.31-2.49,19.93-20.2,35.31-38.46,41-24.17,7.49-46.84-11.15-44.87-36.53,2.33-30.2,42.71-24.94,49.79-.23,6.14,21.39-8.49,47-21.93,62.49-6.75,7.76-15.25,14.25-25.13,17.3-13.55,4.17-30.17-4.29-35.1-17.34C56,198.62,72.31,190,84,185.84c11.42-4,21.91.18,28.54,9.87,11.55,16.87,9.49,43.14,1.8,61-8.88,20.66-34.59,27.64-54.38,18-15.77-7.68,10.8-22.29,17.4-25.09,12.22-5.19,27.17-5.59,37.39,3.76s9.84,23.87-4,27.57c-9.52,2.54-22.06.65-30.12-5-11.6-8.18,2.92-26.48,10.57-31.82,11.7-8.18,27.84-7.68,40.3-1.84,12.17,5.71,16,17.52,14.23,30.14-1.5,10.82-10.48,26.12-22.19,15.48-9.63-8.76-21.65-26.22-20.68-40,.69-9.83,10.65-13.74,19-15.08,21.52-3.44,47.56,3.77,65.6,15.55,6.45,4.22,14.37,11.11,12.43,19.71-2.47,10.91-19,16.5-28.08,19.42-7.52,2.42-18.3,4.4-24-2.69-4.88-6.1-3.61-15.74-2.3-22.8,4.12-22.31,16.65-43.87,30.3-61.65,9.84-12.81,27.9-34.17,46.51-29.75,9.95,2.37,14.8,13.78,17.58,22.46,5.89,18.33,7.48,37.6-5.28,53.32s-36.76,23.93-55.57,14.66c-26.61-13.12-19.15-47.75,1.71-62,19.17-13.1,68.71,3,58.74,32.47C233.06,250.59,210.62,263.34,193,270c-15.89,6-42.73,11-52-8.1-5.48-11.32-2.07-25.62,1.31-37a174.08,174.08,0,0,1,22-46.72c3.48-5.17,9.82-14.38,17.21-13.17,6,1,8.72,9.68,10.18,14.56,5.78,19.29,4.55,41.52,1.4,61.13-2.31,14.38-7.21,39.77-23.74,44.67-8.78,2.61-17.43-4.56-23.2-10.21-13.5-13.24-21.29-27.91-18.43-47.16,3-20.21,15.37-44.45,35.08-52.74,10.38-4.37,22.42,0,29.17,8.57,7.1,9,5.41,22.37,2.82,32.63-5.25,20.84-19.9,43.67-42.4,47-23.93,3.56-47.23-11.56-51.05-35.8-4.33-27.49,20-50.59,45.93-52.18,12.44-.77,25.05,4.32,31.74,15.06,7.33,11.76,2.56,30.67-5.89,40.65-27.69,32.72-122.07,15.77-96-38,16.5-34,74.53-.47,63.37,30.43C133.17,244,105,253.13,86.19,257.4s-49,7.56-63.38-8.65c-7.4-8.33-5.16-20.11-1.33-29.49C29.6,199.39,45.09,181,67.78,180c28.16-1.36,46.51,25,42.75,51-3.19,22.12-28.3,37.32-49,38.14-25.21,1-34.12-25.5-25.56-45.66,7.32-17.24,24.18-30.76,41.31-37.36,19.53-7.53,37.76-.88,44,19.82,7.72,25.63-23.67,38.22-43.71,35.65-29.18-3.73-37.19-33.66-25.83-57.23C62.11,162.8,90.91,143.19,115,153.94c12.32,5.5,11.43,18.94,3.35,27.61-7.72,8.28-21,11.76-31.7,14.56-10.33,2.72-24.37,4.77-32.75-3.57-13.77-13.68.44-42.42,8-55.56,4.53-7.84,25.59-39.68,36.92-24.71,6.82,9,6,27,3.91,37.26-3.8,19.07-21.24,35.49-38.39,43-19.4,8.52-45.57.25-47.06-23.55C16,149.09,34.56,129.78,52.11,123.57c24.35-8.61,42.46,17.6,32.2,39.05-11,22.93-42.85,24.95-56.55,3.7-12-18.64-1.39-45.55,10.75-61.16C52.07,87.71,74.3,81,92.7,95.12c7.15,5.5,13.12,13.79,14.9,22.71,3.2,16-15.91,17.5-26.86,16.22-33.69-3.92-34.5-42.26-18.65-64.47C76.86,48.88,109.91,40.76,129.85,59c12.34,11.31,8.27,31.68-.32,43.75-10.28,14.46-30.73,14.51-43.5,3.87-11.08-9.24-12.41-27.47-7.22-40C83.32,55.69,94,48.42,104.51,44.16c21.45-8.69,48.43-2.8,57.14,20.51,3.87,10.38-.33,22-8.59,28.81-10.74,8.86-24.42,4-34-3.84-10.22-8.4-11.47-22.41-5.88-33.71,6.56-13.25,21.82-17.34,35.27-14.12,24.72,5.92,26.76,44.6,21.8,63.92-3.22,12.55-11.28,20.58-23.66,23.93-12,3.25-22.87-1.73-28-12.93-8.26-18-.74-42.44,12.56-55.88,19-19.2,52.86-22.34,68.35,2.37,13.08,20.88,5.24,58.06-18.35,68.18-23,9.89-41.93-20-37.65-39.94,6.58-30.77,59.4-64.83,88.4-44.32C242.19,54.4,253.24,70.42,254,83.32c.58,10.24-8.13,16.52-16.67,19.81-20.4,7.89-46.45,5.57-67-.69-6.2-1.89-17.63-5.65-18.95-13.21-1.67-9.51,16.69-15.64,22.7-18.09,12.35-5,50.44-18.72,46.18,8-3.06,19.18-18.76,37.37-32.27,50.32-9.11,8.73-32.67,28.49-43.7,12.26-7.18-10.57-5.5-29.43-2.8-40.88,7.34-31.17,50.24-28.92,67.31-8.59,13,15.52,6.15,43.8-5.45,58.22-16.76,20.82-34.63-12.11-39.43-26.35-9.39-27.8,18.38-34,39.71-30.32,16.21,2.81,49,15,43.29,37-3.72,14.27-24.11,24.4-36.7,28-27.16,7.68-17.2-32.71-12.37-45.15A84.78,84.78,0,0,1,212.7,88.71c9.38-10.8,26.42-14.18,40.1-12.88,35.29,3.37,30.72,48.29,11.66,67.36-14.45,14.44-52,25.1-55.73-4.32-4.07-32.36,31-54.37,59.06-43.63,11.69,4.46,23.86,16.22,27,28.55,2.68,10.47.32,22.18-3,32.2-5.64,17-20.3,38.66-40.93,34.27-47.13-10-16-107.13,23.81-88.06,18.39,8.79,14.21,39.67,10.36,55.14-4.78,19.26-16.65,41.8-38.66,43.33-21.09,1.47-34.9-19.72-35.32-38.58-.44-19.08,15.82-32.68,33.65-35,24.53-3.16,30.54,27.07,31.35,45.25,1,22.43-3.09,49.21-16.21,68-4.56,6.52-11.63,12.12-19.92,9.19-8.89-3.16-22.1-19.24-21.62-28.74l-2.55.9c2.56,3.69,2.06,9.89,4.1,14,.78,1.61,3.44.71,2.65-.91Z"/></g></g></svg>