<svg xmlns="http://www.w3.org/2000/svg" viewBox="0 0 196.22 195.9"><defs><style>.cls-1{fill:#cca269;}</style></defs><title>book-fr</title><g id="Layer_2" data-name="Layer 2"><g id="explore-details-dataset-title-view"><path class="cls-1" d="M-3554.65-1246.45a.5.5,0,0,0-.66.27.51.51,0,0,0,.27.65c1.16.48,2.44-.25,3.06-1.73a2.68,2.68,0,0,0-1.65-3.45c-1.84-.77-3.17.47-4.17,2v-7h3.92a.51.51,0,0,0,.5-.5.5.5,0,0,0-.5-.5h-3.92v-3h3.82c.27,0,.18.06.18-.21v-4c0-.28.09-.79-.18-.79h-4a1.17,1.17,0,0,0-.82.79v3.21h-3v-3.11a.5.5,0,0,0-.5-.5.5.5,0,0,0-.5.5v3.11h-5.6c1.36-1,1.7-1.63,1.78-2.22a2.78,2.78,0,0,0-1.1-2.57,2.53,2.53,0,0,0-2.55-.28,3.25,3.25,0,0,0-1.59,1.32,2,2,0,0,0-.14,1.77.49.49,0,0,0,.65.27.5.5,0,0,0,.27-.65.94.94,0,0,1,.08-.87,2.25,2.25,0,0,1,1.11-.88,1.52,1.52,0,0,1,1.56.19,1.9,1.9,0,0,1,.72,1.72c-.1.75-.68,1.24-1.64,1.64a10.66,10.66,0,0,1-3.93.56h-2.19a1.6,1.6,0,0,1-1.33-.73,1.47,1.47,0,0,1-.32-1.13,1,1,0,0,1,.45-.7,1.1,1.1,0,0,1,.87-.14c.73.15.73.66.71.81a.51.51,0,0,0,.42.57.5.5,0,0,0,.57-.42,1.73,1.73,0,0,0-1.49-1.93,2.16,2.16,0,0,0-1.64.32,2.07,2.07,0,0,0-.88,1.39,2.31,2.31,0,0,0,.5,1.81.3.3,0,0,0,.24.15h-4.53v-3.21c0-.28-.31-.79-.58-.79h-135c-.28,0-.42.51-.42.79v3.21h-4.7a.33.33,0,0,0,.25-.15,2.5,2.5,0,0,0,.49-1.88,2,2,0,0,0-.88-1.36,2.12,2.12,0,0,0-1.63-.29,1.73,1.73,0,0,0-1.5,1.93.5.5,0,0,0,.57.43.5.5,0,0,0,.42-.56c0-.07-.07-.64.72-.81a1.13,1.13,0,0,1,.86.17,1.09,1.09,0,0,1,.46.74,1.35,1.35,0,0,1-.33,1,1.58,1.58,0,0,1-1.33.73h-2.18a10.75,10.75,0,0,1-3.94-.56c-1-.4-1.54-1-1.63-1.72a1.79,1.79,0,0,1,.71-1.67,1.52,1.52,0,0,1,1.56-.18,2.27,2.27,0,0,1,1.11.89,1,1,0,0,1,.09.88.49.49,0,0,0,.26.65.5.5,0,0,0,.66-.26,2,2,0,0,0-.14-1.77,3.26,3.26,0,0,0-1.59-1.29,2.5,2.5,0,0,0-2.55.32,2.68,2.68,0,0,0-1.11,2.49c.08.59.42,1.22,1.79,2.22h-5.44v-3.11a.5.5,0,0,0-.5-.5.5.5,0,0,0-.5.5v3.11h-3v-3.21c0-.28-.71-.79-1-.79h-4c-.28,0,0,.51,0,.79v4c0,.27-.26.21,0,.21h4v3h-4.08a.5.5,0,0,0-.5.5.5.5,0,0,0,.5.5h4.08v7c-1-1.49-2.41-2.73-4.25-2a2.66,2.66,0,0,0-1.62,3.45c.62,1.48,1.85,2.21,3,1.73a.48.48,0,0,0,.24-.65.51.51,0,0,0-.67-.27c-.63.26-1.35-.23-1.76-1.2a1.62,1.62,0,0,1,1-2.14c.83-.34,2-.16,2.73,1.5a17.64,17.64,0,0,1,.77,5.82v0a2.38,2.38,0,0,1-.93,1.62,1.68,1.68,0,0,1-1.2.32,1.12,1.12,0,0,1-.74-.45,1.2,1.2,0,0,1-.16-.87c.16-.73.66-.73.81-.71a.51.51,0,0,0,.56-.43.5.5,0,0,0-.42-.56,1.73,1.73,0,0,0-1.93,1.49,2.13,2.13,0,0,0,.31,1.63,2.07,2.07,0,0,0,1.4.89,2.34,2.34,0,0,0,.38,0,2.79,2.79,0,0,0,1.57-.53,2.67,2.67,0,0,0,.36-.31c0,.62,0,.81,0,1.43,0,.9,0,2.19,0,2.19h-3.33c-.28,0,0,1.11,0,1.39v134.6c0,.27-.26,0,0,0h3.33c0,1,0,2,0,2.87,0,.63,0,1.38,0,2a3.27,3.27,0,0,0-.36-.25,2.64,2.64,0,0,0-1.95-.46,2.07,2.07,0,0,0-1.4.89,2.18,2.18,0,0,0-.31,1.65,1.75,1.75,0,0,0,1.72,1.51l.21,0a.49.49,0,0,0,.42-.55.51.51,0,0,0-.56-.43c-.15,0-.65,0-.81-.72a1.17,1.17,0,0,1,.16-.86,1.13,1.13,0,0,1,.74-.46,1.69,1.69,0,0,1,1.2.33,2.33,2.33,0,0,1,.93,1.61v0a17.6,17.6,0,0,1-.77,5.82c-.69,1.66-1.91,1.85-2.73,1.5a1.6,1.6,0,0,1-1-2.14c.4-1,1.12-1.46,1.75-1.2a.49.49,0,0,0,.65-.27.49.49,0,0,0-.27-.65c-1.15-.48-2.44.25-3.06,1.73a2.62,2.62,0,0,0,1.5,3.46,4.18,4.18,0,0,0,1.36.23c1.32,0,2.13-1,3.13-2.2v6.59h-4.08a.5.5,0,0,0-.5.5.5.5,0,0,0,.5.5h4.08v3h-4c-.28,0,0,.31,0,.59v4c0,.27-.26.41,0,.41h4c.27,0,1-.14,1-.41v-3.59h3v3.49a.51.51,0,0,0,.5.5.5.5,0,0,0,.5-.5v-3.49h5.44c-1.37,0-1.71,1.81-1.79,2.4a3,3,0,0,0,1.11,2.66,2.48,2.48,0,0,0,1.53.54,2.68,2.68,0,0,0,1-.2,3.22,3.22,0,0,0,1.59-1.3,2,2,0,0,0,.14-1.76.5.5,0,0,0-.66-.26.49.49,0,0,0-.26.65,1,1,0,0,1-.09.88,2.24,2.24,0,0,1-1.11.87,1.52,1.52,0,0,1-1.56-.19,1.87,1.87,0,0,1-.71-1.71,2.39,2.39,0,0,1,1.63-1.83,10.42,10.42,0,0,1,3.94-.75h2.18a1.72,1.72,0,0,1,1.33.92,1.73,1.73,0,0,1,.33,1.22,1.16,1.16,0,0,1-.46.75,1.13,1.13,0,0,1-.86.16c-.73-.15-.73-.65-.72-.8a.49.49,0,0,0-.42-.56.5.5,0,0,0-.57.42,1.73,1.73,0,0,0,1.5,1.93,2.2,2.2,0,0,0,.44.05,2.19,2.19,0,0,0,1.19-.36,2.08,2.08,0,0,0,.88-1.4,2.77,2.77,0,0,0-.49-2c-.08-.11-.16-.34-.25-.34h4.7v3.59a.37.37,0,0,0,.42.41h135c.27,0,.58-.14.58-.41v-3.59h4.53c-.09,0-.17.23-.24.34a2.68,2.68,0,0,0-.5,2,2.09,2.09,0,0,0,.88,1.4,2.12,2.12,0,0,0,1.19.37,1.73,1.73,0,0,0,.45,0,1.72,1.72,0,0,0,1.49-1.92.5.5,0,0,0-.57-.42.5.5,0,0,0-.42.56c0,.07.07.64-.71.81a1.2,1.2,0,0,1-.87-.16,1.09,1.09,0,0,1-.45-.74,1.73,1.73,0,0,1,.32-1.24,1.74,1.74,0,0,1,1.33-.92h2.19a10.32,10.32,0,0,1,3.93.75,2.4,2.4,0,0,1,1.64,1.8,1.92,1.92,0,0,1-.72,1.73,1.54,1.54,0,0,1-1.56.2,2.3,2.3,0,0,1-1.11-.88.94.94,0,0,1-.08-.87.49.49,0,0,0-.27-.65.49.49,0,0,0-.65.26,2,2,0,0,0,.14,1.77,3.21,3.21,0,0,0,1.59,1.29,2.49,2.49,0,0,0,1,.21,2.5,2.5,0,0,0,1.53-.52,3,3,0,0,0,1.1-2.69c-.08-.59-.42-2.4-1.78-2.4h5.6v3.49a.51.51,0,0,0,.5.5.5.5,0,0,0,.5-.5v-3.49h3v3.59c0,.27.54.41.82.41h4c.27,0,.18-.14.18-.41v-4c0-.28.09-.59-.18-.59h-3.82v-3h3.92a.51.51,0,0,0,.5-.5.5.5,0,0,0-.5-.5h-3.92v-6.59c1,1.18,1.73,2.2,3.05,2.2a3.22,3.22,0,0,0,1.19-.23,2.63,2.63,0,0,0,1.54-3.46c-.62-1.48-1.88-2.21-3-1.73a.5.5,0,0,0-.26.65.5.5,0,0,0,.66.27c.63-.26,1.35.23,1.76,1.2a1.62,1.62,0,0,1-1,2.14c-.83.35-2,.16-2.73-1.5a17.09,17.09,0,0,1-.77-5.82v0a2.34,2.34,0,0,1,.94-1.61,1.67,1.67,0,0,1,1.19-.33,1.11,1.11,0,0,1,.74.46,1.13,1.13,0,0,1,.17.86c-.16.73-.66.73-.81.72a.5.5,0,0,0-.57.42.51.51,0,0,0,.43.57h.2a1.72,1.72,0,0,0,1.72-1.51,2.09,2.09,0,0,0-.31-1.63,2.06,2.06,0,0,0-1.39-.88,2.67,2.67,0,0,0-1.95.49,3.68,3.68,0,0,0-.37.32c0-.63,0-1.5,0-2.13,0-.89,0-1.87,0-2.87h3.33c.27,0,.18.26.18,0v-134.6c0-.28.09-1.39-.18-1.39h-3.33s0-1.29,0-2.19c0-.62,0-1,0-1.66a4,4,0,0,0,.37.43,2.84,2.84,0,0,0,1.57.58,2.41,2.41,0,0,0,.38,0,2.08,2.08,0,0,0,1.39-.87,2.08,2.08,0,0,0,.31-1.63,1.72,1.72,0,0,0-1.92-1.49.5.5,0,0,0-.42.56.5.5,0,0,0,.55.44c.15,0,.66,0,.82.71a1.16,1.16,0,0,1-.17.87,1.1,1.1,0,0,1-.74.45,1.7,1.7,0,0,1-1.19-.32,2.39,2.39,0,0,1-.94-1.62v0a17.13,17.13,0,0,1,.77-5.82c.69-1.66,1.9-1.84,2.73-1.5a1.62,1.62,0,0,1,1,2.14C-3553.3-1246.68-3554-1246.19-3554.65-1246.45Zm-8.15,145.73v20h-19.58c-.28,0-.42.31-.42.59v3.47a17.48,17.48,0,0,1-5.32-.65,3.85,3.85,0,0,1-2.27-2,2.5,2.5,0,0,1,0-2,2.62,2.62,0,0,1,1.12-1.34,2.23,2.23,0,0,1,2,0,1.81,1.81,0,0,1,1,.83,1.29,1.29,0,0,1,0,1.07.5.5,0,0,0,.27.66.51.51,0,0,0,.65-.27,2.3,2.3,0,0,0,0-1.89,2.76,2.76,0,0,0-1.49-1.32,3.21,3.21,0,0,0-2.9.06,3.76,3.76,0,0,0-1.56,1.84,3.45,3.45,0,0,0,0,2.71c.29.68.91,1.21,2.24,2.21h-121.57c1.34-1,2-1.53,2.24-2.21a3.48,3.48,0,0,0,0-2.74,3.7,3.7,0,0,0-1.56-1.82,3.19,3.19,0,0,0-2.89,0,2.74,2.74,0,0,0-1.5,1.32,2.27,2.27,0,0,0,0,1.89.5.5,0,0,0,.65.27.51.51,0,0,0,.27-.66,1.31,1.31,0,0,1,0-1.08,1.84,1.84,0,0,1,1-.82,2.23,2.23,0,0,1,2,0,2.7,2.7,0,0,1,1.13,1.34,2.59,2.59,0,0,1,0,2,3.75,3.75,0,0,1-2.21,2,16.92,16.92,0,0,1-5.24.65v-3.47a.66.66,0,0,0-.58-.59h-19.42v-20a1.74,1.74,0,0,0-1-1h-3v-2.71a6.35,6.35,0,0,1,.25-2.26,3.66,3.66,0,0,1,1.84-2.25,2.4,2.4,0,0,1,1.93,0,2.64,2.64,0,0,1,1.31,1.13,2.21,2.21,0,0,1,0,2,1.81,1.81,0,0,1-.83,1,1.31,1.31,0,0,1-1.08,0,.51.51,0,0,0-.66.27.51.51,0,0,0,.27.65,2.23,2.23,0,0,0,1.89,0,2.72,2.72,0,0,0,1.32-1.49,3.19,3.19,0,0,0-.06-2.89,3.71,3.71,0,0,0-1.84-1.56,2.94,2.94,0,0,0-2.51,0c-.62.26-1.83.79-1.83,1.9v-120.14c0,1.1,1.21,1.64,1.83,1.9a3,3,0,0,0,1.27.28,3.29,3.29,0,0,0,1.3-.27,3.68,3.68,0,0,0,1.81-1.56,3.22,3.22,0,0,0,0-2.9,2.76,2.76,0,0,0-1.32-1.49,2.3,2.3,0,0,0-1.89,0,.5.5,0,0,0-.28.65.5.5,0,0,0,.66.27,1.31,1.31,0,0,1,1.08,0,1.77,1.77,0,0,1,.81,1,2.2,2.2,0,0,1,0,2,2.76,2.76,0,0,1-1.34,1.12,2.5,2.5,0,0,1-2,0,3.52,3.52,0,0,1-1.72-2.25,6.32,6.32,0,0,1-.25-2.26v-4.08h3c.27,0,1,.66,1,.39v-20.39h19.42c.27,0,.58.06.58-.21v-3.48a17.23,17.23,0,0,1,5.24.65,3.75,3.75,0,0,1,2.23,2,2.52,2.52,0,0,1,0,2,2.76,2.76,0,0,1-1.13,1.35,2.25,2.25,0,0,1-2,0,1.8,1.8,0,0,1-1-.82,1.31,1.31,0,0,1,0-1.08.49.49,0,0,0-.27-.65.49.49,0,0,0-.65.27,2.24,2.24,0,0,0,0,1.88,2.74,2.74,0,0,0,1.5,1.32,3.65,3.65,0,0,0,1.45.31,2.87,2.87,0,0,0,1.44-.37,3.72,3.72,0,0,0,1.56-1.83,3.9,3.9,0,0,0,0-2.91,6.32,6.32,0,0,0-2.24-2.39h121.57a6.5,6.5,0,0,0-2.24,2.39,3.75,3.75,0,0,0,0,2.83,3.79,3.79,0,0,0,1.56,1.87,2.9,2.9,0,0,0,1.45.4,3.68,3.68,0,0,0,1.45-.31,2.71,2.71,0,0,0,1.49-1.31,2.3,2.3,0,0,0,0-1.89.5.5,0,0,0-.65-.26.49.49,0,0,0-.27.65,1.31,1.31,0,0,1,0,1.08,1.79,1.79,0,0,1-1,.82,2.23,2.23,0,0,1-2,0,2.73,2.73,0,0,1-1.12-1.35,2.52,2.52,0,0,1,0-2,3.92,3.92,0,0,1,2.3-2,17.8,17.8,0,0,1,5.32-.65v3.48c0,.27.14.21.42.21h19.58v20.39c0,.27.54-.39.82-.39h3.18v4.08a6.16,6.16,0,0,1-.33,2.26,3.71,3.71,0,0,1-1.88,2.25,2.41,2.41,0,0,1-1.95,0,2.7,2.7,0,0,1-1.33-1.12,2.24,2.24,0,0,1,0-2,1.8,1.8,0,0,1,.83-1,1.31,1.31,0,0,1,1.08,0,.49.49,0,0,0,.65-.27.49.49,0,0,0-.27-.65,2.28,2.28,0,0,0-1.88,0,2.72,2.72,0,0,0-1.32,1.49,3.21,3.21,0,0,0,.06,2.9,3.78,3.78,0,0,0,1.83,1.56,3.63,3.63,0,0,0,1.37.27,2.83,2.83,0,0,0,1.23-.28c.62-.26,1.91-.8,1.91-1.9v120.14c0-1.11-1.29-1.64-1.91-1.9a3.31,3.31,0,0,0-2.67,0,3.61,3.61,0,0,0-1.8,1.56,3.2,3.2,0,0,0,0,2.89,2.7,2.7,0,0,0,1.33,1.49,2.23,2.23,0,0,0,1.89,0,.5.5,0,0,0,.27-.65.49.49,0,0,0-.65-.27,1.31,1.31,0,0,1-1.08,0,1.8,1.8,0,0,1-.82-1,2.23,2.23,0,0,1,0-2,2.71,2.71,0,0,1,1.35-1.13,2.52,2.52,0,0,1,2,0,3.59,3.59,0,0,1,1.81,2.25,6.2,6.2,0,0,1,.33,2.26v2.71H-3562C-3562.26-1101.71-3562.8-1101-3562.8-1100.72Zm4-136h-3v-19h3Zm1-27h3v3h-3Zm-1,4v3h-3v-3Zm-4,0v3h-19v-2.7c1,0,1.81-.13,2.75-.11,2,0,4-.19,5.88-.19Zm-154-4h134v3h-134Zm-9.79,4c1.83,0,3.94.22,6,.19.94,0,1.83.11,2.83.11v2.7h-19v-3Zm-18.21-1v-3h3v3Zm4,1h3v3h-3Zm3,4v19h-3v-19Zm-7,154v-134h2.35c0,2-.35,3.16.65,4.15v127.08c-1,1-.64,1.77-.65,2.77Zm4,1h3v20h-3Zm-1,28h-3v-3h3Zm1-4v-3h3v3Zm4,0v-3h19v3.07c-1,0-1.89-.06-2.83-.07-2,0-4.12,0-6,0Zm154,4h-134v-3h134Zm9.62-4c-1.83,0-3.85,0-5.87,0-.94,0-1.75.07-2.75.07v-3.07h19v3Zm18.38,1v3h-3v-3Zm-4-1h-3v-3h3Zm-3-4v-20h3v20Zm7-155v134h-2.52c0-1-.48-1.79-.48-2.77v-127.08c0-1,.47-2.15.48-4.15Z" transform="translate(3748 1266)"/></g></g></svg>