<svg xmlns="http://www.w3.org/2000/svg" viewBox="0 0 24.09 1.42"><defs><style>.cls-1{fill:#cca269;fill-rule:evenodd;}</style></defs><title>decor--1_2</title><g id="Layer_2" data-name="Layer 2"><g id="explore-heroine"><path class="cls-1" d="M-3735.58-1265l-.18,0s0,0,.06,0-.07,0,0,0,.09,0,.25,0C-3735.52-1265-3735.6-1265-3735.58-1265Z" transform="translate(3748 1266)"/><path class="cls-1" d="M-3724.45-1264.63h0s0,0,0,0S-3724.46-1264.64-3724.45-1264.63Z" transform="translate(3748 1266)"/><path class="cls-1" d="M-3723.94-1264.61l-.06,0c.05,0,.05,0,.09,0S-3723.93-1264.62-3723.94-1264.61Z" transform="translate(3748 1266)"/><path class="cls-1" d="M-3734.13-1265l0,0a.38.38,0,0,0,.15,0s.09,0,.06,0,0,0,.07,0,0,0,0,0h.09l0,0s.1,0,.1,0l.08,0a.41.41,0,0,1,.19,0s0,0,0,0h.07v0h0s0,0,0,0,.08,0,.1,0a1.11,1.11,0,0,0,.25,0s0,0,0,0,.07,0,.07,0-.18,0-.21,0-.07,0-.17,0c.07,0,0,0,0,0s-.11,0-.14,0,0,0,0,0-.07,0-.07,0-.07,0-.1,0,0,0,0,0h-.06a1.51,1.51,0,0,1-.38,0s0,0,0,0h-.07s-.07,0-.07,0,0,0,.05,0Z" transform="translate(3748 1266)"/><path class="cls-1" d="M-3735.53-1265s.08,0,.08,0h0s.06,0,.09,0a1.33,1.33,0,0,1,.41,0s.12,0,.14,0,.1,0,.12,0,.13,0,.15,0l0,0s.05,0,.09,0,.13,0,.21,0,0,0,.08,0,0,0-.07,0,0,0,0,0a5.53,5.53,0,0,0-.61,0,.11.11,0,0,1,0,0,.11.11,0,0,1-.15,0,2.42,2.42,0,0,1-.27,0v0c-.05,0-.14,0-.2,0A.2.2,0,0,0-3735.53-1265Zm.25,0s0,0,0,0,0,0-.06,0S-3735.32-1265-3735.28-1265Z" transform="translate(3748 1266)"/><path class="cls-1" d="M-3728.36-1264.7s0,0,0,0-.11,0-.14,0h-.08c-.1,0-.18,0-.24,0s0,0-.08,0,0,0,0,0,0,0,0,0h-.1s0,0,0,0-.29,0-.4,0l-.07,0-.08,0c-.11,0-.2,0-.18-.08s.07,0,.05,0,0,0,.09,0,0,0,0,0,.09,0,.1,0,.05,0,.05,0,.06,0,.11,0h0l0,0c.05,0,.16,0,.18,0l0,0c.05,0,.06,0,.09,0s0,0,0,0h.05a1.56,1.56,0,0,0,.37,0s0,0,.06,0,0,0,.05,0,.12-.07.16,0,0,0,.06,0,0,0,0,0,.17,0,.23,0l.08,0s.09,0,.1,0a.33.33,0,0,0,.17,0s0,0,.05,0-.11,0-.12,0h-.13a1.38,1.38,0,0,1-.45,0Z" transform="translate(3748 1266)"/><path class="cls-1" d="M-3727.15-1264.69c.05,0,0,0,0,0s0,0,0,0h.05s0,0-.05,0,0,0,0,0h0c.1,0,.17,0,.29,0h0s.09,0,.11,0,.19,0,.27,0,0,0,.06,0a.28.28,0,0,1,.16,0s0,0,0,0h.07l-.06,0s.24,0,.36,0h0s0,0,0,0h.13s.07,0,.09,0,0,0,0,0-.07,0,0,0a.13.13,0,0,1,.1,0s0,0,0,0a1.5,1.5,0,0,0,.3,0s0,0,.07,0h0c.06,0,.06,0,.16,0s0,0,0,0,0,0,.08,0,.16,0,.28,0c0,0,0,0,0,0h-.05s.06,0,.07,0l0,0-.44-.05c-.2,0-.55,0-.78,0,0,0,0,0,0,0s-.09,0-.17,0v0a2.82,2.82,0,0,1-.65,0s-.13,0-.16,0l0,0s-.08,0-.11,0a.37.37,0,0,1-.16,0s-.07,0-.08,0-.08,0-.09,0a1.91,1.91,0,0,0-.4,0c-.05,0,0-.07.08-.06h0a1.19,1.19,0,0,1,.38,0S-3727.17-1264.7-3727.15-1264.69Z" transform="translate(3748 1266)"/><path class="cls-1" d="M-3724.49-1264.6s-.13-.05-.07-.06S-3724.48-1264.63-3724.49-1264.6Z" transform="translate(3748 1266)"/><path class="cls-1" d="M-3724.14-1264.62h.06s0,0-.06,0a.21.21,0,0,1,.12,0S-3724.12-1264.58-3724.14-1264.62Z" transform="translate(3748 1266)"/><path class="cls-1" d="M-3746.3-1264.93h-.31a.86.86,0,0,1-.55-.06s-.13-.08-.1-.12-.19-.05-.28-.09a.15.15,0,0,0-.08-.1c0-.11,0-.27,0-.38s-.26.06-.34,0,.21,0,.27,0h.2a.12.12,0,0,1,.05.12,1.78,1.78,0,0,1,.39-.13c0-.1-.12-.18,0-.26s0,0,.07,0,.08.15.12.22a1.47,1.47,0,0,1,.52.12c0,.08.21.12.44.14,0,0,0,0,.06,0s.07,0,0,.09a1.39,1.39,0,0,0,.46,0,1.25,1.25,0,0,0,.19,0c.12,0,.17.08.27.1a4.14,4.14,0,0,0,.61,0h.69c.26,0,.53,0,.71,0s.43,0,.64,0l.15,0h.17l.17,0h1.41a3.42,3.42,0,0,1,.45,0,2.75,2.75,0,0,0,.4,0,1.8,1.8,0,0,0,.52,0l.07,0a1.63,1.63,0,0,1,.44,0s0,0,0,0a2.59,2.59,0,0,1,.51,0s.22,0,.24,0,0,0,0,0a.1.1,0,0,1,.07.05.65.65,0,0,0-.21,0,1.35,1.35,0,0,0-.4,0s-.07,0-.13,0c-.31.08-.71,0-1.11,0-.57,0-1,0-1.51,0l-.17,0-.09,0c-.32,0-.66,0-1,0a4.93,4.93,0,0,1-.67,0,.36.36,0,0,0-.18,0,2.08,2.08,0,0,0-.43,0,.89.89,0,0,0-.4,0c-.18,0-.39,0-.54,0a.64.64,0,0,1-.34,0,1.46,1.46,0,0,1-.22,0c0,.09-.09.15-.21.19s0,0,0,0a1.51,1.51,0,0,1-.72.06,1.53,1.53,0,0,0-.36-.07Zm1,0s.12-.1,0-.14-.58,0-.51.15A.77.77,0,0,0-3745.33-1265Zm-1.9-.24a.25.25,0,0,0,0-.12,2.1,2.1,0,0,1-.24-.06C-3747.54-1265.32-3747.45-1265.16-3747.23-1265.2Zm-.21-.31c0,.07.21.16.39.16a5.44,5.44,0,0,0,.61-.15.54.54,0,0,0-.3-.1c-.07.09-.37,0-.54,0S-3747.43-1265.56-3747.44-1265.51Zm.89-.14s-.33-.09-.34,0A1.32,1.32,0,0,0-3746.55-1265.65Z" transform="translate(3748 1266)"/><path class="cls-1" d="M-3737.41-1265.13s0,0,.06,0l0,0a.37.37,0,0,1,.14,0c.05,0,0,0,0,0s.1,0,.1,0,.09,0,.13,0,.12,0,.14,0,.05,0,.05,0,0,0,.07,0,0,0,0,0,.09,0,.14,0,0,0,.07,0,0,0-.08,0l0,0a.6.6,0,0,1-.3,0s0,0,0,0h-.09s0,0,0,0,0,0,0,0-.09,0-.11,0,0,0-.1,0,0,0,0,0-.19,0-.14,0-.05,0-.06,0a.46.46,0,0,0-.24,0s0,0,0,0,.06,0,.16,0S-3737.46-1265.1-3737.41-1265.13Z" transform="translate(3748 1266)"/><path class="cls-1" d="M-3736-1265s0,0,0,0a2,2,0,0,0-.27,0h.07s-.05,0-.07,0l0,0s0,0,0,0a.39.39,0,0,1,.17,0h0c.05,0,0,0,.08,0s0,0,0,0a.07.07,0,0,1,.05,0s0,0,.06,0,.06,0,.11,0,.09,0,.18,0,0,0,0,0l-.14,0s0,0,0,0h0s0,0,0,0S-3736-1265-3736-1265Z" transform="translate(3748 1266)"/><path class="cls-1" d="M-3730-1264.72a.62.62,0,0,0-.22,0l-.56,0h0s0,0-.07,0h0a1.41,1.41,0,0,0-.2,0l0,0-.06,0c-.07,0,0,0-.08-.08s.05,0,.08,0,0,0,0,0,.09,0,.17,0,0,0,0,0,0,0,.09,0,0,0,0,0,.26,0,.37.06a.13.13,0,0,0,.1,0c.06,0,0,0,0,0s.07,0,.07,0,0,0,.11,0v0l0,0a1.53,1.53,0,0,0,.3,0l.07.06Z" transform="translate(3748 1266)"/><path class="cls-1" d="M-3731.78-1264.87s0,0,0,0-.07,0-.07,0a1.84,1.84,0,0,1-.36,0l0,0s-.15,0-.25,0h-.12l-.06,0s0,0-.11,0-.18-.06-.07-.07,0,0,0,0,0,0,0,0,.09,0,.08,0,0,0,0,0,0,0,0,0,0,0,0,0,.1,0,.1,0,.32,0,.34,0,.07,0,.08,0,0,0,.06,0,0,0,.07,0,0,0,0,0h.07s0,0,0,0a.39.39,0,0,1,.13,0s0,0,0,0,.1,0,.1,0l0,0s.05,0,0,0a.2.2,0,0,1,.13,0s.09,0,.1,0,0,0,0,.05-.09,0-.08,0C-3731.52-1264.85-3731.71-1264.8-3731.78-1264.87Z" transform="translate(3748 1266)"/><path class="cls-1" d="M-3724.42-1264.59s0-.06.06-.07.1,0,.17.05,0,0-.09,0v0S-3724.42-1264.62-3724.42-1264.59Z" transform="translate(3748 1266)"/></g></g></svg>