<svg xmlns="http://www.w3.org/2000/svg" viewBox="0 0 471.56 546.74"><defs><style>.cls-1{fill:#d8b39a;}.cls-2{fill:#731800;}</style></defs><title>decor--4_1</title><g id="Layer_2" data-name="Layer 2"><g id="explore-heroine"><path class="cls-1" d="M430,259.56a27.73,27.73,0,0,1,5.57.27,19,19,0,0,1,10.09,4.38,15.67,15.67,0,0,1,3.49,4.74,23.7,23.7,0,0,1,1.58,5,26.63,26.63,0,0,1,.53,5.55,28.85,28.85,0,0,1-5.56-.88,22.32,22.32,0,0,1-9.86-5,16.28,16.28,0,0,1-3.26-4.51,20.49,20.49,0,0,1-1.81-4.55A20.93,20.93,0,0,1,430,259.56Z"/><path class="cls-1" d="M470.35,255.46a26.48,26.48,0,0,0-5.44,1.52,21.56,21.56,0,0,0-9.26,6.51,18.43,18.43,0,0,0-2.77,5.27,24.44,24.44,0,0,0-1.32,5.19,26.38,26.38,0,0,0-.26,5.57,25.12,25.12,0,0,0,5.51-.92,18.56,18.56,0,0,0,9.59-5.88,17.81,17.81,0,0,0,3-5.53,27.61,27.61,0,0,0,1-5.63A31.73,31.73,0,0,0,470.35,255.46Z"/><path class="cls-1" d="M427.46,242.55a27.9,27.9,0,0,1,5.58-.22,19.19,19.19,0,0,1,10.51,3.46,14,14,0,0,1,3.81,4.42,23.52,23.52,0,0,1,2.08,4.86,18.1,18.1,0,0,1,.83,3.89c.11,1,.11,1.59.11,1.59a27.74,27.74,0,0,1-5.58-.39,27,27,0,0,1-5.1-1.34,19.24,19.24,0,0,1-5.13-2.81,16.25,16.25,0,0,1-3.7-4.19,19.37,19.37,0,0,1-1.18-2.24,22.89,22.89,0,0,1-2.23-7Z"/><path class="cls-1" d="M467.29,234.92a25.86,25.86,0,0,0-5.27,2,19,19,0,0,0-11,12.8,24.5,24.5,0,0,0-.79,5.27c-.06,1.6,0,3,0,4s.13,1.59.13,1.59a25.54,25.54,0,0,0,5.45-1.4,22.49,22.49,0,0,0,4.81-2.44,15.79,15.79,0,0,0,4.26-4.25,18.12,18.12,0,0,0,2.43-5.77,24.53,24.53,0,0,0,.52-3A26.11,26.11,0,0,0,468,241,30.65,30.65,0,0,0,467.29,234.92Z"/><path class="cls-1" d="M422.72,223.18a27.12,27.12,0,0,1,5.52-.79A19.17,19.17,0,0,1,439,224.75a15.22,15.22,0,0,1,2.41,1.82,18,18,0,0,1,1.85,2.18,23.1,23.1,0,0,1,2.56,4.63,19.28,19.28,0,0,1,1.23,3.78c.21,1,.28,1.58.28,1.58a28.2,28.2,0,0,1-5.59.18,27.17,27.17,0,0,1-5.22-.82,18.54,18.54,0,0,1-5.39-2.27c-3.4-2.14-5.29-5.32-6.69-7.91A21.42,21.42,0,0,1,422.72,223.18Z"/><path class="cls-1" d="M461.55,211.49a26.49,26.49,0,0,0-5,2.52,21.3,21.3,0,0,0-7.8,8.14,16.48,16.48,0,0,0-1.1,2.84,20.39,20.39,0,0,0-.69,2.88,24.68,24.68,0,0,0-.26,5.33c.08,1.6.33,3,.45,4s.28,1.57.28,1.57a25.21,25.21,0,0,0,5.28-1.95,22.94,22.94,0,0,0,4.54-2.92,16,16,0,0,0,3.79-4.67,20.1,20.1,0,0,0,1.83-11.74A31,31,0,0,0,461.55,211.49Z"/><path class="cls-1" d="M417,207a27.52,27.52,0,0,1,5.44-1.28,19.46,19.46,0,0,1,11,1.37,19.07,19.07,0,0,1,7.56,8,23.44,23.44,0,0,1,1.49,3.69c.3.95.43,1.53.43,1.53a28,28,0,0,1-5.56.69,27.31,27.31,0,0,1-5.29-.35,19.8,19.8,0,0,1-5.5-1.8,18.66,18.66,0,0,1-7.36-7.3A21.38,21.38,0,0,1,417,207Z"/><path class="cls-1" d="M454.66,191.88a26.08,26.08,0,0,0-4.78,3,19.64,19.64,0,0,0-8.06,20,37,37,0,0,0,.72,3.92c.24,1,.44,1.53.44,1.53a25.63,25.63,0,0,0,5.08-2.4,22.71,22.71,0,0,0,4.24-3.3,15.61,15.61,0,0,0,3.44-5,21.35,21.35,0,0,0,.78-11.85A31.25,31.25,0,0,0,454.66,191.88Z"/><path class="cls-1" d="M408.67,188.86A27.61,27.61,0,0,1,414,187a19.34,19.34,0,0,1,11.07.26c3.83,1.43,6.51,4.52,8.33,7.17a19,19,0,0,1,1.9,3.5c.39.91.58,1.48.58,1.48a28.54,28.54,0,0,1-5.46,1.25,22.67,22.67,0,0,1-11-1,16.39,16.39,0,0,1-4.77-2.92,28.92,28.92,0,0,1-3.3-3.58A21.35,21.35,0,0,1,408.67,188.86Z"/><path class="cls-1" d="M444.57,170a26,26,0,0,0-4.47,3.43,21.29,21.29,0,0,0-6.09,9.46,21.79,21.79,0,0,0,.11,11.24c.43,1.54.8,2.89,1.15,3.82a15.91,15.91,0,0,0,.59,1.48,25.37,25.37,0,0,0,4.8-2.91,22.88,22.88,0,0,0,3.89-3.73,15.23,15.23,0,0,0,2.87-5.33,17.82,17.82,0,0,0,.64-6.22,21.47,21.47,0,0,0-1.08-5.65A31.35,31.35,0,0,0,444.57,170Z"/><path class="cls-1" d="M400,174a27.91,27.91,0,0,1,5.1-2.29,19.18,19.18,0,0,1,11.06-.73,18.91,18.91,0,0,1,8.95,6.4,26.2,26.2,0,0,1,2.88,4.76,29.12,29.12,0,0,1-5.33,1.73,22,22,0,0,1-11-.07,18.09,18.09,0,0,1-8.61-5.77A21.35,21.35,0,0,1,400,174Z"/><path class="cls-1" d="M434.09,152.05a26,26,0,0,0-4.14,3.81A19.59,19.59,0,0,0,425.84,177a26.62,26.62,0,0,0,2.18,5.14,25.69,25.69,0,0,0,4.52-3.32,19,19,0,0,0,6-9.64c.83-4.17-.22-8.52-1.49-11.79A31.3,31.3,0,0,0,434.09,152.05Z"/><path class="cls-1" d="M388.35,157.8a27.93,27.93,0,0,1,4.84-2.8,19.37,19.37,0,0,1,10.93-1.85c4,.71,7.26,3.2,9.55,5.46a21,21,0,0,1,2.5,3.09c.57.82.86,1.34.86,1.34a28.51,28.51,0,0,1-5.13,2.27,27.45,27.45,0,0,1-5.15,1.19,19.87,19.87,0,0,1-5.8-.12,16,16,0,0,1-5.25-2,26.92,26.92,0,0,1-3.92-2.89A21.58,21.58,0,0,1,388.35,157.8Z"/><path class="cls-1" d="M420,132.48a26.5,26.5,0,0,0-3.74,4.21,19.63,19.63,0,0,0-1.95,21.45c.7,1.44,1.32,2.7,1.84,3.54s.87,1.34.87,1.34a25.63,25.63,0,0,0,4.16-3.77,22.57,22.57,0,0,0,3.1-4.39,15.25,15.25,0,0,0,1.83-5.79,17.66,17.66,0,0,0-.56-6.21,22.61,22.61,0,0,0-2.11-5.35A31.83,31.83,0,0,0,420,132.48Z"/><path class="cls-1" d="M377,144.84a27.79,27.79,0,0,1,4.58-3.21c2.78-1.57,6.66-3.15,10.72-2.79a18.54,18.54,0,0,1,10,4.59,25.59,25.59,0,0,1,3.74,4.12,28.48,28.48,0,0,1-4.91,2.71,21.73,21.73,0,0,1-10.79,2,18.18,18.18,0,0,1-9.57-4A23.07,23.07,0,0,1,377,144.84Z"/><path class="cls-1" d="M406.38,116.85a25.72,25.72,0,0,0-3.35,4.52A19.58,19.58,0,0,0,403,142.9a26.34,26.34,0,0,0,3.13,4.63,25.17,25.17,0,0,0,3.81-4.12A19,19,0,0,0,414,132.82c0-4.26-1.83-8.31-3.69-11.28A29.23,29.23,0,0,0,406.38,116.85Z"/><path class="cls-1" d="M362.54,131.11a27.93,27.93,0,0,1,4.22-3.66,19.35,19.35,0,0,1,10.39-3.88c4.05,0,7.74,1.78,10.41,3.56a24.46,24.46,0,0,1,3,2.57c.71.7,1.1,1.16,1.1,1.16a27.85,27.85,0,0,1-4.61,3.19,22.14,22.14,0,0,1-10.55,3.11,18.68,18.68,0,0,1-9.92-3A21,21,0,0,1,362.54,131.11Z"/><path class="cls-1" d="M388.89,100.29a25.87,25.87,0,0,0-2.87,4.83,19.62,19.62,0,0,0,2.12,21.42,34.41,34.41,0,0,0,2.47,3.15c.66.74,1.11,1.15,1.11,1.15a25.67,25.67,0,0,0,3.37-4.49A18.69,18.69,0,0,0,398,115.42a21.17,21.17,0,0,0-4.8-10.86A30.77,30.77,0,0,0,388.89,100.29Z"/><path class="cls-1" d="M349,120.52a27.62,27.62,0,0,1,3.9-4,23.28,23.28,0,0,1,4.39-3,15.18,15.18,0,0,1,5.6-1.76,18.43,18.43,0,0,1,10.68,2.63,26.35,26.35,0,0,1,4.46,3.34,28.3,28.3,0,0,1-4.32,3.58,21.67,21.67,0,0,1-10.23,4,18.36,18.36,0,0,1-10.15-2.16,31.11,31.11,0,0,1-3.16-1.78C349.4,120.86,349,120.52,349,120.52Z"/><path class="cls-1" d="M372.53,87.5a25.71,25.71,0,0,0-2.43,5.07,24.86,24.86,0,0,0-1.3,5.2,19.84,19.84,0,0,0,.12,6,21.78,21.78,0,0,0,5.16,10,26.32,26.32,0,0,0,3.95,3.94,25.24,25.24,0,0,0,3-4.76,19,19,0,0,0,2-11.16c-.74-4.2-3.36-7.81-5.75-10.38A25.94,25.94,0,0,0,374,88.51C373.09,87.85,372.53,87.5,372.53,87.5Z"/><path class="cls-1" d="M332.16,109.77a28.21,28.21,0,0,1,3.47-4.39,19.39,19.39,0,0,1,9.47-5.78A19.13,19.13,0,0,1,356,101.14a25.87,25.87,0,0,1,4.75,2.89,28.4,28.4,0,0,1-3.92,4,22.09,22.09,0,0,1-9.78,5,18.34,18.34,0,0,1-10.3-1.12A21.38,21.38,0,0,1,332.16,109.77Z"/><path class="cls-1" d="M352.22,74.53a26,26,0,0,0-1.9,5.29,19.6,19.6,0,0,0,6.13,20.63,27.13,27.13,0,0,0,4.32,3.55,25.89,25.89,0,0,0,2.46-5,18.77,18.77,0,0,0,.83-11.3,21.44,21.44,0,0,0-6.77-9.76A31.28,31.28,0,0,0,352.22,74.53Z"/><path class="cls-1" d="M316.86,101.94a27.94,27.94,0,0,1,3.07-4.69,23.33,23.33,0,0,1,3.74-3.78,18.61,18.61,0,0,1,2.42-1.63,14.77,14.77,0,0,1,2.74-1.14,16.13,16.13,0,0,1,5.82-.55,18.62,18.62,0,0,1,5.17,1.11,26.5,26.5,0,0,1,5,2.43A28.64,28.64,0,0,1,341.27,98a21.81,21.81,0,0,1-9.3,5.88,18.66,18.66,0,0,1-10.37-.2c-1.38-.44-2.6-.8-3.42-1.16A14.38,14.38,0,0,1,316.86,101.94Z"/><path class="cls-1" d="M333.73,65.06a25.93,25.93,0,0,0-1.43,5.43,24.8,24.8,0,0,0-.28,5.35,19.75,19.75,0,0,0,.39,2.9,17,17,0,0,0,.85,3,18.09,18.09,0,0,0,3.12,5.12,34.57,34.57,0,0,0,3.84,3.7,26.58,26.58,0,0,0,4.63,3.11,25.53,25.53,0,0,0,2-5.23,18.89,18.89,0,0,0-.18-11.32c-1.5-4-4.78-7-7.61-9.11a23.8,23.8,0,0,0-3.74-2.22C334.35,65.3,333.73,65.06,333.73,65.06Z"/><path class="cls-1" d="M298.33,94.59a27.71,27.71,0,0,1,2.56-5c1.73-2.68,4.43-5.87,8.19-7.45a18.76,18.76,0,0,1,11-.57,26.34,26.34,0,0,1,5.22,1.93,28.24,28.24,0,0,1-3.1,4.67A21.78,21.78,0,0,1,313.56,95a18.1,18.1,0,0,1-10.33.87A22.46,22.46,0,0,1,298.33,94.59Z"/><path class="cls-1" d="M311.32,56.17a25.93,25.93,0,0,0-.87,5.56,21.42,21.42,0,0,0,2.12,11,21.32,21.32,0,0,0,7.83,8.06,25.76,25.76,0,0,0,4.91,2.65,25.28,25.28,0,0,0,1.46-5.41,19,19,0,0,0-1.32-11.27c-1.95-3.77-5.49-6.51-8.51-8.29A29.81,29.81,0,0,0,311.32,56.17Z"/><path class="cls-1" d="M281.83,89.81a28.14,28.14,0,0,1,2.11-5.2,24.25,24.25,0,0,1,3-4.43,15.54,15.54,0,0,1,4.52-3.67A16.35,16.35,0,0,1,297,74.84a20,20,0,0,1,2.76-.13c.88.05,1.73.14,2.52.26a25.81,25.81,0,0,1,5.38,1.41A29.06,29.06,0,0,1,305,81.32a22,22,0,0,1-8,7.56,19.08,19.08,0,0,1-5.35,1.66,20.63,20.63,0,0,1-4.86.12c-.73-.06-1.4-.16-2-.26s-1.14-.17-1.58-.26C282.35,90,281.83,89.81,281.83,89.81Z"/><path class="cls-1" d="M291.36,50.39A25.82,25.82,0,0,0,291,56a24.88,24.88,0,0,0,.74,5.29,18.91,18.91,0,0,0,2.34,5.57,17.73,17.73,0,0,0,4,4.42,27.43,27.43,0,0,0,2.27,1.59,25,25,0,0,0,2.19,1.32,26.1,26.1,0,0,0,5.15,2.16,25.14,25.14,0,0,0,1-5.51,18.73,18.73,0,0,0-2.33-11.06,15.58,15.58,0,0,0-4.25-4.58,27.51,27.51,0,0,0-5-2.92c-.8-.37-1.55-.68-2.24-.94s-1.33-.41-1.85-.55C292,50.5,291.36,50.39,291.36,50.39Z"/><path class="cls-1" d="M262.22,86.13a28.12,28.12,0,0,1,1.57-5.38c1.2-3,3.24-6.65,6.62-8.84a16,16,0,0,1,5.41-2.22,18.11,18.11,0,0,1,5.27-.44,26.41,26.41,0,0,1,5.5.87,28.94,28.94,0,0,1-2.16,5.18,21.89,21.89,0,0,1-7.18,8.33,18.55,18.55,0,0,1-5.15,2.21,20.7,20.7,0,0,1-4.83.62c-1.45,0-2.72-.07-3.62-.14A13.8,13.8,0,0,1,262.22,86.13Z"/><path class="cls-1" d="M267.66,45.94a26.05,26.05,0,0,0,.21,5.61A21.94,21.94,0,0,0,272,62a18.36,18.36,0,0,0,4.47,4,35,35,0,0,0,4.75,2.42,26.35,26.35,0,0,0,5.33,1.64,24.77,24.77,0,0,0,.41-5.59,19,19,0,0,0-3.45-10.78c-2.61-3.44-6.63-5.34-9.93-6.51a22.42,22.42,0,0,0-4.23-1C268.32,46,267.66,45.94,267.66,45.94Z"/><path class="cls-1" d="M245.09,84.53A28.43,28.43,0,0,1,246.18,79,18.89,18.89,0,0,1,252,69.71,16.31,16.31,0,0,1,257.2,67a21.42,21.42,0,0,1,5.2-.83,26.61,26.61,0,0,1,5.56.31,28.53,28.53,0,0,1-1.68,5.36,22.16,22.16,0,0,1-6.44,9,18.12,18.12,0,0,1-4.93,2.59,21.56,21.56,0,0,1-4.76,1.1,23.79,23.79,0,0,1-3.62.12Z"/><path class="cls-1" d="M247,44a26.13,26.13,0,0,0,.69,5.56,21.72,21.72,0,0,0,5.08,10.14,17.53,17.53,0,0,0,4.81,3.52,27.43,27.43,0,0,0,4.93,2.07A26.36,26.36,0,0,0,268,66.4a25.21,25.21,0,0,0-.09-5.59,18.74,18.74,0,0,0-4.4-10.37,16.46,16.46,0,0,0-5-3.74A27.3,27.3,0,0,0,253,44.83a32.53,32.53,0,0,0-4.29-.73,12,12,0,0,0-1.28-.08Z"/><path class="cls-1" d="M225.1,84.6a27.75,27.75,0,0,1,.53-5.58,19,19,0,0,1,4.85-9.86,16.39,16.39,0,0,1,4.9-3.26,21.41,21.41,0,0,1,5.09-1.35A25.92,25.92,0,0,1,246,64.3a28.75,28.75,0,0,1-1.13,5.5,22.21,22.21,0,0,1-5.5,9.6,17.51,17.51,0,0,1-4.65,3.07,20.49,20.49,0,0,1-4.63,1.58,23.25,23.25,0,0,1-3.59.49Z"/><path class="cls-1" d="M222.91,44.1a26.46,26.46,0,0,0,1.26,5.47,21.69,21.69,0,0,0,6.07,9.58,17.52,17.52,0,0,0,5.13,3,26.84,26.84,0,0,0,5.12,1.56,26.33,26.33,0,0,0,5.55.54,25.44,25.44,0,0,0-.66-5.55A18.77,18.77,0,0,0,240,48.83a16.59,16.59,0,0,0-5.39-3.21A26.79,26.79,0,0,0,229,44.3a33.47,33.47,0,0,0-4.34-.29A12.17,12.17,0,0,0,222.91,44.1Z"/><path class="cls-1" d="M208,86.3a28.21,28.21,0,0,1,.05-5.58,19.22,19.22,0,0,1,4-10.32,15.27,15.27,0,0,1,2.16-2.1,17.28,17.28,0,0,1,2.44-1.51A23.29,23.29,0,0,1,221.53,65a19.15,19.15,0,0,1,5.52-.7,28.3,28.3,0,0,1-.65,5.55,27,27,0,0,1-1.59,5,18.35,18.35,0,0,1-3.05,5c-2.62,3-6.06,4.43-8.83,5.42A21.48,21.48,0,0,1,208,86.3Z"/><path class="cls-1" d="M202.25,46.15A26.63,26.63,0,0,0,204,51.51a21.36,21.36,0,0,0,6.88,8.94A16.22,16.22,0,0,0,213.5,62a19.37,19.37,0,0,0,2.75,1.12,25.28,25.28,0,0,0,5.23,1.06,42.57,42.57,0,0,0,5.57.09,25.25,25.25,0,0,0-1.14-5.51,22.35,22.35,0,0,0-2.21-4.91,16,16,0,0,0-4-4.45,20.06,20.06,0,0,0-11.32-3.57A31.48,31.48,0,0,0,202.25,46.15Z"/><path class="cls-1" d="M188.4,90.12a27.18,27.18,0,0,1-.53-5.56,19.2,19.2,0,0,1,2.88-10.66,15,15,0,0,1,1.94-2.31A15.47,15.47,0,0,1,195,69.83a23.48,23.48,0,0,1,4.74-2.32,22.43,22.43,0,0,1,3.84-1.07c1-.16,1.59-.19,1.59-.19a28.56,28.56,0,0,1-.09,5.59,22.71,22.71,0,0,1-3.59,10.46,20,20,0,0,1-8.23,6.3A21.62,21.62,0,0,1,188.4,90.12Z"/><path class="cls-1" d="M178.59,50.77a26,26,0,0,0,2.27,5.15,21.31,21.31,0,0,0,7.76,8.2,16.6,16.6,0,0,0,2.78,1.23,23.28,23.28,0,0,0,2.84.81,24.36,24.36,0,0,0,5.31.53,39.75,39.75,0,0,0,4-.27c1-.1,1.58-.21,1.58-.21a25.55,25.55,0,0,0-1.69-5.36,18.29,18.29,0,0,0-7.18-8.68,20.06,20.06,0,0,0-11.64-2.39A30.63,30.63,0,0,0,178.59,50.77Z"/><path class="cls-1" d="M171.93,95a27.71,27.71,0,0,1-1-5.5,19.4,19.4,0,0,1,1.91-10.92c2-3.51,5.45-5.76,8.34-7.16a20.65,20.65,0,0,1,3.75-1.32c1-.26,1.56-.36,1.56-.36a29.12,29.12,0,0,1,.41,5.59,27.38,27.38,0,0,1-.6,5.26A20,20,0,0,1,184.22,86a18.78,18.78,0,0,1-7.64,7A21.12,21.12,0,0,1,171.93,95Z"/><path class="cls-1" d="M158.67,56.71a26,26,0,0,0,2.72,4.92,21.07,21.07,0,0,0,8.44,7.43A21.35,21.35,0,0,0,181,70.65c1.59-.18,3-.33,4-.55s1.55-.36,1.55-.36a25.64,25.64,0,0,0-2.16-5.19,22.93,22.93,0,0,0-3.1-4.4,15.25,15.25,0,0,0-4.84-3.66,21.1,21.1,0,0,0-11.8-1.35A30.9,30.9,0,0,0,158.67,56.71Z"/><path class="cls-1" d="M153.44,102.51a27.78,27.78,0,0,1-1.57-5.36,19.26,19.26,0,0,1,.78-11A14.31,14.31,0,0,1,156,81.34a23.79,23.79,0,0,1,4.2-3.22,19.16,19.16,0,0,1,3.58-1.73c.94-.34,1.52-.5,1.52-.5a28.09,28.09,0,0,1,1,5.51,22.63,22.63,0,0,1-1.54,10.92,16.24,16.24,0,0,1-3.15,4.62,20.92,20.92,0,0,1-1.88,1.7c-.63.51-1.25,1-1.85,1.43A21.3,21.3,0,0,1,153.44,102.51Z"/><path class="cls-1" d="M136.31,65.75a26.22,26.22,0,0,0,3.21,4.62,21.28,21.28,0,0,0,9.17,6.54,21,21,0,0,0,5.93,1,25.36,25.36,0,0,0,5.3-.53c1.56-.35,2.91-.69,3.87-1s1.5-.51,1.5-.51a25,25,0,0,0-2.68-4.94c-1.82-2.65-4.7-5.81-8.71-7.19a17.88,17.88,0,0,0-6.19-.93,24.17,24.17,0,0,0-3,.22,20.66,20.66,0,0,0-2.7.59A30.74,30.74,0,0,0,136.31,65.75Z"/><path class="cls-1" d="M138.2,110.46a27.81,27.81,0,0,1-2-5.21A19.26,19.26,0,0,1,136,94.17a18.93,18.93,0,0,1,6.82-8.63,26,26,0,0,1,4.89-2.65,28.07,28.07,0,0,1,1.48,5.41,22.07,22.07,0,0,1-.59,11,18.26,18.26,0,0,1-6.17,8.33A21.66,21.66,0,0,1,138.2,110.46Z"/><path class="cls-1" d="M117.9,75.36a25.91,25.91,0,0,0,3.6,4.31,19.6,19.6,0,0,0,20.91,5.12,26.68,26.68,0,0,0,5.24-1.93,25.12,25.12,0,0,0-3.1-4.68,18.89,18.89,0,0,0-9.34-6.42c-4.12-1-8.53-.2-11.85.92A30.41,30.41,0,0,0,117.9,75.36Z"/><path class="cls-1" d="M121.46,121.32a27.42,27.42,0,0,1-2.57-5,19.28,19.28,0,0,1-1.32-11c.89-4,3.54-7.1,5.9-9.28a22.18,22.18,0,0,1,3.2-2.36c.85-.52,1.39-.78,1.39-.78a29,29,0,0,1,2,5.22,27.33,27.33,0,0,1,.94,5.21,19.73,19.73,0,0,1-.39,5.79,16.57,16.57,0,0,1-2.21,5.15,27.81,27.81,0,0,1-3.08,3.77A21.28,21.28,0,0,1,121.46,121.32Z"/><path class="cls-1" d="M97.68,88.47a26,26,0,0,0,4,3.93,21.13,21.13,0,0,0,10.23,4.67A21.44,21.44,0,0,0,123,95.37c1.47-.64,2.75-1.19,3.62-1.67s1.38-.81,1.38-.81a25.38,25.38,0,0,0-3.57-4.33,22.45,22.45,0,0,0-4.24-3.31,15.19,15.19,0,0,0-5.69-2.1,17.85,17.85,0,0,0-6.24.27,22.28,22.28,0,0,0-5.44,1.85A31,31,0,0,0,97.68,88.47Z"/><path class="cls-1" d="M108,132a27.89,27.89,0,0,1-3-4.73c-1.44-2.86-2.82-6.8-2.28-10.84a18.7,18.7,0,0,1,5.06-9.77,26.48,26.48,0,0,1,4.29-3.54,29,29,0,0,1,2.48,5A21.77,21.77,0,0,1,116,119.05a18.19,18.19,0,0,1-4.48,9.36A23,23,0,0,1,108,132Z"/><path class="cls-1" d="M81.42,101.38a25.68,25.68,0,0,0,4.35,3.55,21.36,21.36,0,0,0,10.6,3.76A21.49,21.49,0,0,0,107.28,106a26.65,26.65,0,0,0,4.76-2.91,25.79,25.79,0,0,0-3.93-4,19,19,0,0,0-10.39-4.54c-4.24-.24-8.39,1.43-11.44,3.15A29.16,29.16,0,0,0,81.42,101.38Z"/><path class="cls-1" d="M93.58,145.84a27.61,27.61,0,0,1-3.45-4.39,19.44,19.44,0,0,1-3.39-10.56c.16-4,2.15-7.64,4.06-10.23a23.82,23.82,0,0,1,2.7-2.91c.73-.68,1.21-1,1.21-1a28.51,28.51,0,0,1,3,4.75,27.64,27.64,0,0,1,1.92,4.94,19.38,19.38,0,0,1,.69,5.75,18.69,18.69,0,0,1-3.51,9.76A21.41,21.41,0,0,1,93.58,145.84Z"/><path class="cls-1" d="M64,118.06a26,26,0,0,0,4.69,3.1,21.11,21.11,0,0,0,10.92,2.65,21.14,21.14,0,0,0,10.59-3.76,36.48,36.48,0,0,0,3.25-2.32c.77-.63,1.2-1,1.2-1a25.39,25.39,0,0,0-4.32-3.58,23.07,23.07,0,0,0-4.79-2.45,15.56,15.56,0,0,0-6-1,21.17,21.17,0,0,0-11.07,4.29A30.77,30.77,0,0,0,64,118.06Z"/><path class="cls-1" d="M82.36,158.88a27,27,0,0,1-3.83-4.08,23.45,23.45,0,0,1-2.79-4.53,15.26,15.26,0,0,1-1.49-5.68,18.51,18.51,0,0,1,3.13-10.54,26.08,26.08,0,0,1,3.55-4.29,28.68,28.68,0,0,1,3.38,4.48,21.86,21.86,0,0,1,3.52,10.41,18.35,18.35,0,0,1-2.65,10,29.26,29.26,0,0,1-1.92,3.07A13.52,13.52,0,0,1,82.36,158.88Z"/><path class="cls-1" d="M50.5,133.79a25.65,25.65,0,0,0,4.94,2.68A25.17,25.17,0,0,0,60.57,138a19.93,19.93,0,0,0,6,.16,21.65,21.65,0,0,0,10.2-4.68,26.24,26.24,0,0,0,4.13-3.76,25.24,25.24,0,0,0-4.61-3.18A18.94,18.94,0,0,0,65.23,124c-4.23.55-8,3-10.64,5.25a27,27,0,0,0-3,3.13C50.87,133.25,50.5,133.79,50.5,133.79Z"/><path class="cls-1" d="M70.83,175.17a27.72,27.72,0,0,1-4.23-3.66,19.44,19.44,0,0,1-5.32-9.74,19.14,19.14,0,0,1,2-10.81,25.32,25.32,0,0,1,3.11-4.61,28.27,28.27,0,0,1,3.81,4.11,22.11,22.11,0,0,1,4.57,10,18.48,18.48,0,0,1-1.61,10.25A22.41,22.41,0,0,1,70.83,175.17Z"/><path class="cls-1" d="M36.57,153.46a26.58,26.58,0,0,0,5.2,2.16,21.1,21.1,0,0,0,11.21.54,20.93,20.93,0,0,0,9.69-5.69,27.22,27.22,0,0,0,3.74-4.14,25.45,25.45,0,0,0-4.91-2.71,18.87,18.87,0,0,0-11.24-1.36,21.41,21.41,0,0,0-10.07,6.3A30.8,30.8,0,0,0,36.57,153.46Z"/><path class="cls-1" d="M62.27,190.09a27.64,27.64,0,0,1-4.54-3.29,23.31,23.31,0,0,1-3.59-3.92,18.16,18.16,0,0,1-1.52-2.49,13.93,13.93,0,0,1-1-2.8,16,16,0,0,1-.26-5.83,18.55,18.55,0,0,1,1.35-5.11,26.4,26.4,0,0,1,2.66-4.89,28.93,28.93,0,0,1,4.16,3.76A21.91,21.91,0,0,1,65,175.09a18.53,18.53,0,0,1-.69,10.34c-.51,1.36-.92,2.57-1.33,3.37S62.27,190.09,62.27,190.09Z"/><path class="cls-1" d="M26.24,171.47a25.61,25.61,0,0,0,5.35,1.69,24.54,24.54,0,0,0,5.33.54,18.18,18.18,0,0,0,2.92-.25,17.09,17.09,0,0,0,8.28-3.58A33.52,33.52,0,0,0,52,166.21a26.55,26.55,0,0,0,3.34-4.47,25.17,25.17,0,0,0-5.13-2.26,19,19,0,0,0-11.32-.37c-4.08,1.32-7.26,4.45-9.47,7.17A23.41,23.41,0,0,0,27,169.92C26.5,170.87,26.24,171.47,26.24,171.47Z"/><path class="cls-1" d="M54,208.25a27.64,27.64,0,0,1-4.85-2.8,19.13,19.13,0,0,1-7-8.54,18.89,18.89,0,0,1,0-11,26.36,26.36,0,0,1,2.18-5.12,28.78,28.78,0,0,1,4.52,3.32,21.88,21.88,0,0,1,6.37,8.95,18.11,18.11,0,0,1,.36,10.35A21.42,21.42,0,0,1,54,208.25Z"/><path class="cls-1" d="M16.29,193.44a26.46,26.46,0,0,0,5.5,1.13A21.51,21.51,0,0,0,32.93,193a21.27,21.27,0,0,0,8.42-7.43,26.84,26.84,0,0,0,2.89-4.78,25.22,25.22,0,0,0-5.34-1.72,18.92,18.92,0,0,0-11.31.78c-3.87,1.76-6.78,5.16-8.7,8.1A30.77,30.77,0,0,0,16.29,193.44Z"/><path class="cls-1" d="M48.47,224.51a27.87,27.87,0,0,1-5.08-2.36c-2.77-1.63-6.07-4.2-7.74-7.87a16.16,16.16,0,0,1-1.39-5.68,21.37,21.37,0,0,1,0-2.77,22.65,22.65,0,0,1,.38-2.5A26.77,26.77,0,0,1,36.3,198a29,29,0,0,1,4.81,2.91,22,22,0,0,1,7.16,8.36,19.09,19.09,0,0,1,1.4,5.43,20.37,20.37,0,0,1-.11,4.86c-.1.72-.24,1.38-.36,2s-.22,1.13-.33,1.57A13.11,13.11,0,0,1,48.47,224.51Z"/><path class="cls-1" d="M9.56,213.1a25.72,25.72,0,0,0,5.57.63,22.06,22.06,0,0,0,11-2.55,17.89,17.89,0,0,0,4.6-3.82,22.27,22.27,0,0,0,1.69-2.2c.54-.72,1-1.44,1.44-2.13a26.67,26.67,0,0,0,2.41-5,25.3,25.3,0,0,0-5.46-1.24,18.8,18.8,0,0,0-11.17,1.8,15.61,15.61,0,0,0-4.77,4,26.46,26.46,0,0,0-3.16,4.81c-.41.77-.76,1.51-1,2.19s-.48,1.31-.64,1.83C9.7,212.46,9.56,213.1,9.56,213.1Z"/><path class="cls-1" d="M43.86,243.91a27.44,27.44,0,0,1-5.29-1.83A23.92,23.92,0,0,1,34,239.37a17.94,17.94,0,0,1-2.17-1.94A15.16,15.16,0,0,1,30,235.05a16.11,16.11,0,0,1-1.95-5.51,18.7,18.7,0,0,1-.19-5.28A26.23,26.23,0,0,1,29,218.81a28.6,28.6,0,0,1,5.08,2.39,22,22,0,0,1,8,7.58,18.54,18.54,0,0,1,2.35,10.1c-.09,1.45-.15,2.72-.3,3.61A12.88,12.88,0,0,1,43.86,243.91Z"/><path class="cls-1" d="M4,236.56a25.66,25.66,0,0,0,5.61.06,25.25,25.25,0,0,0,5.26-1,20,20,0,0,0,2.72-1.09,17.29,17.29,0,0,0,2.68-1.56,17.92,17.92,0,0,0,4.21-4.27A33.75,33.75,0,0,0,27.1,224,26.6,26.6,0,0,0,29,218.8a25.14,25.14,0,0,0-5.57-.68,19,19,0,0,0-10.94,2.93c-3.52,2.45-5.65,6.37-7,9.61a24,24,0,0,0-1.23,4.18C4.06,235.9,4,236.56,4,236.56Z"/><path class="cls-1" d="M41.47,260.94A28.5,28.5,0,0,1,36,259.58,18.73,18.73,0,0,1,27,253.33,16.43,16.43,0,0,1,24.48,248a19.69,19.69,0,0,1-.59-5.24,26.56,26.56,0,0,1,.59-5.54,29.06,29.06,0,0,1,5.27,1.94A22.12,22.12,0,0,1,38.42,246a19.92,19.92,0,0,1,3.22,9.85,22.65,22.65,0,0,1-.06,3.61C41.54,260.4,41.47,260.94,41.47,260.94Z"/><path class="cls-1" d="M1.09,257.13a26.05,26.05,0,0,0,5.59-.44A21.94,21.94,0,0,0,17,252.1a17.77,17.77,0,0,0,3.76-4.64,30.17,30.17,0,0,0,2.28-4.83,26.14,26.14,0,0,0,1.37-5.4,24.88,24.88,0,0,0-5.59-.18A18.68,18.68,0,0,0,8.27,241c-3.42,2.73-5.11,6.82-6.11,10.18a36.15,36.15,0,0,0-.94,4.26C1.1,256.47,1.09,257.13,1.09,257.13Z"/><path class="cls-1" d="M40.6,280.9a28.2,28.2,0,0,1-5.56-.8,18.75,18.75,0,0,1-9.63-5.3,16.39,16.39,0,0,1-3-5.05,13.31,13.31,0,0,1-.76-2.64c-.17-.87-.29-1.71-.37-2.51a25.91,25.91,0,0,1,0-5.57,29.26,29.26,0,0,1,5.44,1.39,22.07,22.07,0,0,1,9.31,5.94,19.9,19.9,0,0,1,4.21,9.49,22.31,22.31,0,0,1,.31,3.6C40.62,280.36,40.6,280.9,40.6,280.9Z"/><path class="cls-1" d="M.05,281.18a26.07,26.07,0,0,0,5.51-1,22,22,0,0,0,9.84-5.62,17.85,17.85,0,0,0,3.27-5c.37-.87.72-1.74,1-2.59s.55-1.67.74-2.45a26.28,26.28,0,0,0,.82-5.52,25.29,25.29,0,0,0-5.58.39,18.8,18.8,0,0,0-10.14,5c-3.12,3.06-4.37,7.3-5,10.74A33.61,33.61,0,0,0,0,279.44C0,280.53.05,281.18.05,281.18Z"/><path class="cls-1" d="M41.47,298.1a27.71,27.71,0,0,1-5.58-.32,19.2,19.2,0,0,1-10.1-4.44c-3.1-2.78-4.34-6.66-5-9.8a28.21,28.21,0,0,1-.5-4c0-1,0-1.6,0-1.6a28,28,0,0,1,5.52.91A22.63,22.63,0,0,1,35.69,284a15.69,15.69,0,0,1,3.25,4.52c.37.79.71,1.58,1,2.35a20.49,20.49,0,0,1,.73,2.22A21.41,21.41,0,0,1,41.47,298.1Z"/><path class="cls-1" d="M1.09,301.91a26.16,26.16,0,0,0,5.44-1.48A21.4,21.4,0,0,0,15.8,294,23.08,23.08,0,0,0,20,283.56a28.59,28.59,0,0,0,.31-4c0-1,0-1.6,0-1.6a25.4,25.4,0,0,0-5.56.88,18.35,18.35,0,0,0-9.63,5.81,18.08,18.08,0,0,0-3,5.51,15.74,15.74,0,0,0-.74,2.89C1.21,294,1.1,295,1,295.82A31.65,31.65,0,0,0,1.09,301.91Z"/><path class="cls-1" d="M44.35,317.84a27.67,27.67,0,0,1-5.58.26,19,19,0,0,1-10.49-3.39c-3.36-2.45-5-6.17-6-9.23a29.86,29.86,0,0,1-.9-3.89c-.11-1-.11-1.59-.11-1.59a28.38,28.38,0,0,1,5.58.35,22.62,22.62,0,0,1,10.29,4.08,15.79,15.79,0,0,1,3.69,4.17A25.88,25.88,0,0,1,43.07,313,21.45,21.45,0,0,1,44.35,317.84Z"/><path class="cls-1" d="M4.57,325.76a26,26,0,0,0,5.26-2,21.47,21.47,0,0,0,8.57-7.36,23.2,23.2,0,0,0,3.09-10.81,28.18,28.18,0,0,0-.1-4c-.05-1-.13-1.59-.13-1.59a25.84,25.84,0,0,0-5.44,1.44,18.32,18.32,0,0,0-9,6.76A18,18,0,0,0,4.41,314a22.64,22.64,0,0,0-.52,5.71A30.69,30.69,0,0,0,4.57,325.76Z"/><path class="cls-1" d="M48.47,334.53a27.36,27.36,0,0,1-5.54.75,19.45,19.45,0,0,1-10.81-2.43c-3.44-2.17-5.49-5.72-6.75-8.68a19.63,19.63,0,0,1-1.16-3.8c-.2-1-.27-1.57-.27-1.57a28,28,0,0,1,5.6-.15,26.63,26.63,0,0,1,5.22.86,20,20,0,0,1,2.69.94,17,17,0,0,1,2.64,1.37,16.19,16.19,0,0,1,4.1,3.81,27.48,27.48,0,0,1,2.52,4.16A21.18,21.18,0,0,1,48.47,334.53Z"/><path class="cls-1" d="M9.56,345.93a26.29,26.29,0,0,0,5-2.47,21.15,21.15,0,0,0,7.82-8.08,21.55,21.55,0,0,0,2.13-11c-.12-1.59-.21-3-.37-4s-.29-1.57-.29-1.57a25.82,25.82,0,0,0-5.28,1.91,22.77,22.77,0,0,0-4.55,2.89,17.44,17.44,0,0,0-2.14,2.08,15.61,15.61,0,0,0-1.73,2.57,17.92,17.92,0,0,0-1.85,6A21.91,21.91,0,0,0,8.28,340,31,31,0,0,0,9.56,345.93Z"/><path class="cls-1" d="M55.05,353.35a28.25,28.25,0,0,1-5.43,1.32,19.23,19.23,0,0,1-11-1.32A14.25,14.25,0,0,1,34,349.77a23.59,23.59,0,0,1-3-4.35c-.38-.71-.72-1.38-1-2s-.44-1.19-.59-1.66c-.3-.95-.43-1.54-.43-1.54a28.81,28.81,0,0,1,5.55-.71,22.64,22.64,0,0,1,10.84,2.06,15.92,15.92,0,0,1,4.46,3.37,18.84,18.84,0,0,1,1.6,2,22.6,22.6,0,0,1,1.35,1.91A21.38,21.38,0,0,1,55.05,353.35Z"/><path class="cls-1" d="M17.51,368.7a26,26,0,0,0,4.78-3,21.25,21.25,0,0,0,7-8.84A20.69,20.69,0,0,0,30.5,351a24.64,24.64,0,0,0-.26-5.33c-.12-.79-.28-1.52-.42-2.17s-.26-1.25-.38-1.73c-.24-1-.44-1.53-.44-1.53a24.89,24.89,0,0,0-5.06,2.44A18.25,18.25,0,0,0,16.35,351a18,18,0,0,0-1.24,6.13,26.86,26.86,0,0,0,.08,3c.11,1,.28,1.87.46,2.73A31.88,31.88,0,0,0,17.51,368.7Z"/><path class="cls-1" d="M62.27,369a27.55,27.55,0,0,1-5.3,1.79,19.33,19.33,0,0,1-11.08-.32,19.08,19.08,0,0,1-8.3-7.22,26.13,26.13,0,0,1-2.41-5A28.69,28.69,0,0,1,40.66,357a22,22,0,0,1,10.93,1.11,18.29,18.29,0,0,1,8,6.56A21.36,21.36,0,0,1,62.27,369Z"/><path class="cls-1" d="M26.24,387.56a25.89,25.89,0,0,0,4.48-3.39,21.28,21.28,0,0,0,6.14-9.42,20.88,20.88,0,0,0,0-11.23,26.46,26.46,0,0,0-1.67-5.33,25.52,25.52,0,0,0-4.82,2.88,18.83,18.83,0,0,0-6.86,9A21.5,21.5,0,0,0,23.83,382,30.5,30.5,0,0,0,26.24,387.56Z"/><path class="cls-1" d="M72.32,386.19a28.36,28.36,0,0,1-5.09,2.32,19.33,19.33,0,0,1-11.05.81c-3.93-1.08-6.92-3.88-9-6.34A20.72,20.72,0,0,1,45,379.67c-.48-.88-.72-1.43-.72-1.43a28.29,28.29,0,0,1,5.32-1.76,26.67,26.67,0,0,1,5.24-.7,21,21,0,0,1,2.85.12,18.53,18.53,0,0,1,2.92.55,16.22,16.22,0,0,1,5,2.46,27.86,27.86,0,0,1,3.62,3.24A22.14,22.14,0,0,1,72.32,386.19Z"/><path class="cls-1" d="M38.37,408.38a26.13,26.13,0,0,0,4.12-3.83,21.09,21.09,0,0,0,5.15-10,21.46,21.46,0,0,0-1.17-11.17c-.57-1.5-1-2.81-1.5-3.7s-.73-1.42-.73-1.42a25.37,25.37,0,0,0-4.5,3.36,22.49,22.49,0,0,0-3.51,4.08,17.83,17.83,0,0,0-1.45,2.62,14.79,14.79,0,0,0-.92,3,18,18,0,0,0,0,6.25,21.91,21.91,0,0,0,1.6,5.52A30.81,30.81,0,0,0,38.37,408.38Z"/><path class="cls-1" d="M82.36,400.15a28,28,0,0,1-4.87,2.77c-2.91,1.3-6.91,2.49-10.93,1.77A18.83,18.83,0,0,1,57,399.17a27.22,27.22,0,0,1-3.33-4.46,28.82,28.82,0,0,1,5.15-2.23,21.79,21.79,0,0,1,10.94-1,18.2,18.2,0,0,1,9.13,4.92A22.36,22.36,0,0,1,82.36,400.15Z"/><path class="cls-1" d="M50.5,425.24a25.94,25.94,0,0,0,3.76-4.18,21.49,21.49,0,0,0,4.25-10.41,21.27,21.27,0,0,0-2.16-11,26.22,26.22,0,0,0-2.67-4.9,25.29,25.29,0,0,0-4.18,3.73,19,19,0,0,0-5,10.17c-.44,4.22,1,8.45,2.6,11.58A30.13,30.13,0,0,0,50.5,425.24Z"/><path class="cls-1" d="M95.49,415.19a27.38,27.38,0,0,1-4.56,3.24,19.27,19.27,0,0,1-10.7,2.88c-4-.34-7.53-2.5-10-4.53a23.27,23.27,0,0,1-2.79-2.84c-.64-.76-1-1.26-1-1.26a29.12,29.12,0,0,1,4.89-2.74,27.35,27.35,0,0,1,5-1.68,19.78,19.78,0,0,1,5.79-.42,18.85,18.85,0,0,1,9.58,4A21.64,21.64,0,0,1,95.49,415.19Z"/><path class="cls-1" d="M66.34,443.39a26.07,26.07,0,0,0,3.32-4.55,19.63,19.63,0,0,0-.09-21.53A38.35,38.35,0,0,0,67.41,414a15.41,15.41,0,0,0-1-1.24,25,25,0,0,0-3.78,4.14A22.51,22.51,0,0,0,60,421.52a15.44,15.44,0,0,0-1.28,5.94,21,21,0,0,0,3.76,11.25A30.69,30.69,0,0,0,66.34,443.39Z"/><path class="cls-1" d="M108,427a28,28,0,0,1-4.26,3.63,24.09,24.09,0,0,1-4.66,2.57,15.32,15.32,0,0,1-5.74,1.22,18.5,18.5,0,0,1-10.39-3.63,26.37,26.37,0,0,1-4.12-3.74,28.86,28.86,0,0,1,4.64-3.16,21.68,21.68,0,0,1,10.56-3,18.26,18.26,0,0,1,9.9,3.11,28.52,28.52,0,0,1,3,2.07C107.6,426.63,108,427,108,427Z"/><path class="cls-1" d="M81.42,457.66a26.42,26.42,0,0,0,2.9-4.81,25.4,25.4,0,0,0,1.78-5.06,19.53,19.53,0,0,0,.45-6,21.68,21.68,0,0,0-4.2-10.41,26.36,26.36,0,0,0-3.55-4.31,25.44,25.44,0,0,0-3.4,4.46,19,19,0,0,0-3,10.93c.35,4.24,2.61,8.09,4.74,10.88a29,29,0,0,0,3,3.16C80.89,457.25,81.42,457.66,81.42,457.66Z"/><path class="cls-1" d="M123.71,439.31a27.54,27.54,0,0,1-3.86,4.05,19.43,19.43,0,0,1-10,4.85,19.06,19.06,0,0,1-10.69-2.56,24.83,24.83,0,0,1-4.47-3.33A28,28,0,0,1,99,438.71a22.19,22.19,0,0,1,10.21-4.09,18.55,18.55,0,0,1,10.16,2.1A21.48,21.48,0,0,1,123.71,439.31Z"/><path class="cls-1" d="M100.39,472.5a25.94,25.94,0,0,0,2.41-5.09,19.67,19.67,0,0,0-4.15-21.12,27.84,27.84,0,0,0-4-3.94,25.56,25.56,0,0,0-2.93,4.78,18.74,18.74,0,0,0-1.9,11.17,21.29,21.29,0,0,0,5.82,10.35A30.87,30.87,0,0,0,100.39,472.5Z"/><path class="cls-1" d="M138.2,448.57a27.4,27.4,0,0,1-3.49,4.38,24.12,24.12,0,0,1-4.09,3.4,15,15,0,0,1-5.4,2.27,15.92,15.92,0,0,1-5.84,0,19,19,0,0,1-5-1.59,26.2,26.2,0,0,1-4.75-2.9,28.83,28.83,0,0,1,4-4,21.78,21.78,0,0,1,9.81-5,18.48,18.48,0,0,1,10.3,1.19,34.89,34.89,0,0,1,3.31,1.48C137.75,448.27,138.2,448.57,138.2,448.57Z"/><path class="cls-1" d="M117.9,483.67a25.73,25.73,0,0,0,1.94-5.27,25.25,25.25,0,0,0,.79-5.29,19.83,19.83,0,0,0-.68-6,18.3,18.3,0,0,0-2.61-5.4,33.4,33.4,0,0,0-3.48-4,26.55,26.55,0,0,0-4.3-3.55,25.65,25.65,0,0,0-2.5,5,18.89,18.89,0,0,0-.91,11.29c1.13,4.13,4.09,7.46,6.71,9.8a25.25,25.25,0,0,0,3.52,2.55C117.31,483.38,117.9,483.67,117.9,483.67Z"/><path class="cls-1" d="M156,457.66a27.61,27.61,0,0,1-3,4.71,19.19,19.19,0,0,1-8.87,6.64,19,19,0,0,1-11-.48,26.15,26.15,0,0,1-5-2.42,28.5,28.5,0,0,1,3.53-4.36,22,22,0,0,1,9.24-5.94,18.26,18.26,0,0,1,10.37.14A21.53,21.53,0,0,1,156,457.66Z"/><path class="cls-1" d="M139.35,494.66a25.86,25.86,0,0,0,1.4-5.45A21.36,21.36,0,0,0,139.69,478a21,21,0,0,0-7-8.76,26.33,26.33,0,0,0-4.63-3.12,25.45,25.45,0,0,0-2,5.25,18.9,18.9,0,0,0,.25,11.33c1.57,3.95,4.82,7,7.67,9.07A30.63,30.63,0,0,0,139.35,494.66Z"/><path class="cls-1" d="M171.93,464a27.62,27.62,0,0,1-2.6,5c-1.75,2.68-4.49,5.88-8.23,7.36a15.77,15.77,0,0,1-5.74,1.11,20.94,20.94,0,0,1-2.77-.12,18.12,18.12,0,0,1-2.48-.5,25.68,25.68,0,0,1-5.22-1.92,28.69,28.69,0,0,1,3.13-4.66,21.91,21.91,0,0,1,8.69-6.75,19,19,0,0,1,5.49-1.15,20,20,0,0,1,4.85.36c1.42.29,2.65.58,3.52.84S171.93,464,171.93,464Z"/><path class="cls-1" d="M158.67,502.32a26,26,0,0,0,.9-5.54,21.94,21.94,0,0,0-2-11.09A17.89,17.89,0,0,0,154,480.9a21.47,21.47,0,0,0-2.11-1.8c-.71-.55-1.39-1.08-2.06-1.52a26.21,26.21,0,0,0-4.91-2.66,25.19,25.19,0,0,0-1.5,5.4,18.9,18.9,0,0,0,1.26,11.25,15.84,15.84,0,0,0,3.8,4.95,27.11,27.11,0,0,0,4.65,3.39,22,22,0,0,0,3.93,1.86C158,502.15,158.67,502.32,158.67,502.32Z"/><path class="cls-1" d="M191.09,469.53a28.2,28.2,0,0,1-2.08,5.21,24.17,24.17,0,0,1-2.92,4.44,15.16,15.16,0,0,1-4.52,3.75,18.48,18.48,0,0,1-10.88,1.62,26,26,0,0,1-5.38-1.41,28.48,28.48,0,0,1,2.63-4.95,21.86,21.86,0,0,1,7.95-7.58,18.3,18.3,0,0,1,10.2-1.86,36.14,36.14,0,0,1,3.59.45C190.57,469.38,191.09,469.53,191.09,469.53Z"/><path class="cls-1" d="M181.84,509a26.07,26.07,0,0,0,.33-5.61,25.08,25.08,0,0,0-.78-5.29A20.09,20.09,0,0,0,179,492.6a21.78,21.78,0,0,0-8.56-7.26,26.1,26.1,0,0,0-5.15-2.16,25.66,25.66,0,0,0-.94,5.53,19.05,19.05,0,0,0,2.4,11.08c2.29,3.6,6.09,5.95,9.27,7.43a25.17,25.17,0,0,0,4.11,1.41C181.19,508.91,181.84,509,181.84,509Z"/><path class="cls-1" d="M208,472.73a27.61,27.61,0,0,1-1.61,5.38,18.55,18.55,0,0,1-6.67,8.75A17.5,17.5,0,0,1,189,489.44a26.44,26.44,0,0,1-5.51-.87,28.56,28.56,0,0,1,2.19-5.17,22.11,22.11,0,0,1,7.26-8.32,15.23,15.23,0,0,1,2.56-1.27,20.28,20.28,0,0,1,2.6-.86,20.72,20.72,0,0,1,4.84-.62,32.48,32.48,0,0,1,3.6.21C207.44,472.63,208,472.73,208,472.73Z"/><path class="cls-1" d="M202.25,512.88a25.74,25.74,0,0,0-.17-5.6A22.13,22.13,0,0,0,198,496.73c-2.59-3.31-6.22-5.16-9.17-6.48a26.35,26.35,0,0,0-5.33-1.64,25.26,25.26,0,0,0-.45,5.58A18.76,18.76,0,0,0,186.43,505a16.14,16.14,0,0,0,2.16,2.36,17.23,17.23,0,0,0,2.5,1.81,27.72,27.72,0,0,0,5.22,2.41,26.34,26.34,0,0,0,4.21,1.12C201.6,512.83,202.25,512.88,202.25,512.88Z"/><path class="cls-1" d="M227.86,474.53A27.73,27.73,0,0,1,226.8,480a23.11,23.11,0,0,1-2,4.92,15.89,15.89,0,0,1-3.72,4.48,17.61,17.61,0,0,1-10.37,3.65,26.25,26.25,0,0,1-5.56-.3,28.12,28.12,0,0,1,1.64-5.37,22.05,22.05,0,0,1,6.37-9,15.62,15.62,0,0,1,2.41-1.52,16.93,16.93,0,0,1,2.51-1.14,20.81,20.81,0,0,1,4.75-1.1A34.65,34.65,0,0,1,227.86,474.53Z"/><path class="cls-1" d="M226.24,515.06a26.68,26.68,0,0,0-2.5-10.62,18.51,18.51,0,0,0-3.38-5c-2.91-3.05-6.71-4.48-9.78-5.51a26,26,0,0,0-5.47-1.1,25.5,25.5,0,0,0,.13,5.6,18.87,18.87,0,0,0,4.47,10.38,16,16,0,0,0,2.39,2.13,19.76,19.76,0,0,0,2.67,1.53,27.6,27.6,0,0,0,5.43,1.87A22.74,22.74,0,0,0,226.24,515.06Z"/><path class="cls-1" d="M245.09,474.5a27.35,27.35,0,0,1-.58,5.55,19,19,0,0,1-4.92,9.86,14.83,14.83,0,0,1-4.91,3.21,23.51,23.51,0,0,1-5.11,1.32,28.48,28.48,0,0,1-4,.31,8.64,8.64,0,0,1-1.59-.09,27.84,27.84,0,0,1,1.17-5.47,22.37,22.37,0,0,1,5.56-9.6,15.74,15.74,0,0,1,4.67-3,22.22,22.22,0,0,1,4.64-1.56A21.66,21.66,0,0,1,245.09,474.5Z"/><path class="cls-1" d="M247,515a26.46,26.46,0,0,0-1.22-5.5,21.48,21.48,0,0,0-6-9.59,20.19,20.19,0,0,0-5.11-3.07,25.73,25.73,0,0,0-5.11-1.58,28.39,28.39,0,0,0-4-.5l-1.6-.07a25.59,25.59,0,0,0,.62,5.59,18.58,18.58,0,0,0,5.36,9.87,18.05,18.05,0,0,0,5.36,3.27,25.1,25.1,0,0,0,5.57,1.34A31.27,31.27,0,0,0,247,515Z"/><path class="cls-1" d="M265,472.56a27.07,27.07,0,0,1,0,5.58,19,19,0,0,1-3.89,10.3,14.85,14.85,0,0,1-4.56,3.69,23.1,23.1,0,0,1-4.95,1.83,28.18,28.18,0,0,1-3.92.71,9.6,9.6,0,0,1-1.17.07H246a28.13,28.13,0,0,1,.61-5.56,22.55,22.55,0,0,1,4.56-10.11,15.91,15.91,0,0,1,4.35-3.47,23,23,0,0,1,4.45-2A21.72,21.72,0,0,1,265,472.56Z"/><path class="cls-1" d="M271,512.67a26.41,26.41,0,0,0-1.77-5.36,21.51,21.51,0,0,0-6.95-8.92,20,20,0,0,0-5.4-2.54,24.73,24.73,0,0,0-5.24-1.06,28.24,28.24,0,0,0-4-.1l-1.59.08a25.42,25.42,0,0,0,1.18,5.51,18.47,18.47,0,0,0,6.32,9.28,18.27,18.27,0,0,0,5.67,2.71,24.53,24.53,0,0,0,5.68.77A31.48,31.48,0,0,0,271,512.67Z"/><path class="cls-1" d="M281.82,469.22a27.54,27.54,0,0,1,.49,5.57,19.21,19.21,0,0,1-2.95,10.67c-2.32,3.38-6,5.21-9,6.33a18.29,18.29,0,0,1-3.85,1c-1,.15-1.58.19-1.58.19a28.4,28.4,0,0,1,.12-5.6,22.74,22.74,0,0,1,3.67-10.4,16,16,0,0,1,4-3.9,29.5,29.5,0,0,1,4.27-2.33A21.52,21.52,0,0,1,281.82,469.22Z"/><path class="cls-1" d="M291.35,508.64a25.56,25.56,0,0,0-2.23-5.16,19.06,19.06,0,0,0-13.31-10.34,25.57,25.57,0,0,0-5.3-.53c-1.6,0-3,.11-4,.2s-1.58.2-1.58.2a26,26,0,0,0,1.66,5.38c1.27,3,3.46,6.61,7.12,8.76a18,18,0,0,0,5.88,2.14,21.13,21.13,0,0,0,5.74.33A30.42,30.42,0,0,0,291.35,508.64Z"/><path class="cls-1" d="M300.94,463.56A27.32,27.32,0,0,1,302,469a19.24,19.24,0,0,1-1.84,10.9,14.11,14.11,0,0,1-3.8,4.44,23.81,23.81,0,0,1-4.49,2.79c-.72.34-1.41.64-2,.88s-1.21.38-1.69.52c-1,.25-1.55.35-1.55.35a28.19,28.19,0,0,1-.46-5.58,27.84,27.84,0,0,1,.57-5.25,19.36,19.36,0,0,1,2-5.49,16.34,16.34,0,0,1,3.58-4.28,25,25,0,0,1,2-1.52c.67-.47,1.33-.89,2-1.25A21.55,21.55,0,0,1,300.94,463.56Z"/><path class="cls-1" d="M314.48,501.79a26.1,26.1,0,0,0-2.76-4.91,21.34,21.34,0,0,0-8.5-7.4,21.63,21.63,0,0,0-5.8-1.52,25,25,0,0,0-5.34,0c-.79.08-1.53.19-2.19.32s-1.26.19-1.74.3c-1,.19-1.56.36-1.56.36a25.78,25.78,0,0,0,2.2,5.18,23.11,23.11,0,0,0,3.13,4.39,15.86,15.86,0,0,0,4.85,3.58,18,18,0,0,0,6.08,1.53,21.65,21.65,0,0,0,3,.07c1-.07,1.88-.19,2.74-.34A31.18,31.18,0,0,0,314.48,501.79Z"/><path class="cls-1" d="M316.86,457.09a27.79,27.79,0,0,1,1.55,5.38,19.39,19.39,0,0,1-.86,11.06,19.06,19.06,0,0,1-7.61,7.94,25.18,25.18,0,0,1-5.13,2.16,28.29,28.29,0,0,1-.94-5.52,22,22,0,0,1,1.63-10.87,18.42,18.42,0,0,1,6.93-7.7A22,22,0,0,1,316.86,457.09Z"/><path class="cls-1" d="M333.73,494a26.33,26.33,0,0,0-3.17-4.64,21.15,21.15,0,0,0-9.11-6.57,20.93,20.93,0,0,0-11.22-.51,27.76,27.76,0,0,0-5.4,1.42,25.55,25.55,0,0,0,2.64,4.95,18.78,18.78,0,0,0,8.68,7.28,21.4,21.4,0,0,0,11.88.21A30.44,30.44,0,0,0,333.73,494Z"/><path class="cls-1" d="M334.56,447.88a27.86,27.86,0,0,1,2.08,5.19,19.35,19.35,0,0,1,.28,11.07c-1.26,3.89-4.21,6.73-6.77,8.67a19.68,19.68,0,0,1-3.4,2.06c-.9.43-1.46.65-1.46.65a28.15,28.15,0,0,1-1.51-5.4,27.1,27.1,0,0,1-.45-5.27,19.73,19.73,0,0,1,.26-2.84,17.34,17.34,0,0,1,.69-2.89,16.32,16.32,0,0,1,2.69-4.91,28.17,28.17,0,0,1,3.42-3.47A21.44,21.44,0,0,1,334.56,447.88Z"/><path class="cls-1" d="M355.12,482.84a26.25,26.25,0,0,0-3.64-4.29,21.13,21.13,0,0,0-9.74-5.63,21.6,21.6,0,0,0-11.22.64c-1.52.51-2.85.93-3.76,1.33s-1.45.66-1.45.66a25.79,25.79,0,0,0,3.14,4.66,22.8,22.8,0,0,0,3.9,3.7,19.12,19.12,0,0,0,2.55,1.57,14.58,14.58,0,0,0,2.91,1,18,18,0,0,0,6.24.34,21.79,21.79,0,0,0,5.6-1.34A31.15,31.15,0,0,0,355.12,482.84Z"/><path class="cls-1" d="M349,438.51a27.59,27.59,0,0,1,2.53,5c1.17,3,2.17,7,1.25,11a18.81,18.81,0,0,1-6,9.25,26.59,26.59,0,0,1-4.62,3.11,28.42,28.42,0,0,1-2-5.25,21.83,21.83,0,0,1-.45-11,18,18,0,0,1,5.35-8.88A22,22,0,0,1,349,438.51Z"/><path class="cls-1" d="M372.53,471.53a26,26,0,0,0-4-3.95,19.58,19.58,0,0,0-21.31-3.11,26,26,0,0,0-5,2.43,25.45,25.45,0,0,0,3.54,4.35,18.93,18.93,0,0,0,9.91,5.51c4.2.64,8.49-.63,11.7-2A30.62,30.62,0,0,0,372.53,471.53Z"/><path class="cls-1" d="M364.62,426.11a27.52,27.52,0,0,1,3,4.71A19.36,19.36,0,0,1,370,441.65c-.53,4-2.86,7.4-5,9.79a22.41,22.41,0,0,1-3,2.65c-.8.6-1.31.92-1.31.92a28.71,28.71,0,0,1-2.5-5,26.81,26.81,0,0,1-1.44-5.09,19.66,19.66,0,0,1-.15-5.8,16.34,16.34,0,0,1,1.71-5.34,27.27,27.27,0,0,1,2.71-4A21.69,21.69,0,0,1,364.62,426.11Z"/><path class="cls-1" d="M391.41,456.56A26.24,26.24,0,0,0,387,453a19.67,19.67,0,0,0-21.51-.93,38.44,38.44,0,0,0-3.46,2c-.83.55-1.29.93-1.29.93a25.48,25.48,0,0,0,4,4,22.55,22.55,0,0,0,4.54,2.89,15.32,15.32,0,0,0,5.86,1.56,21,21,0,0,0,11.43-3.22A31.31,31.31,0,0,0,391.41,456.56Z"/><path class="cls-1" d="M377,414.19a28.06,28.06,0,0,1,3.43,4.43c1.7,2.7,3.46,6.5,3.29,10.56a18.57,18.57,0,0,1-4.11,10.21,26.26,26.26,0,0,1-3.94,3.93,29,29,0,0,1-2.94-4.78,21.91,21.91,0,0,1-2.52-10.69,18.26,18.26,0,0,1,3.58-9.74,26.77,26.77,0,0,1,2.21-2.88C376.63,414.56,377,414.19,377,414.19Z"/><path class="cls-1" d="M406.38,442.18a26.14,26.14,0,0,0-4.67-3.13,19.63,19.63,0,0,0-21.52.95,26.65,26.65,0,0,0-4.47,3.35A25.52,25.52,0,0,0,380,447a19.07,19.07,0,0,0,10.77,3.54c4.25-.16,8.21-2.23,11.09-4.22a28.41,28.41,0,0,0,3.3-2.83C406,442.68,406.38,442.18,406.38,442.18Z"/><path class="cls-1" d="M390.06,399.06a28,28,0,0,1,3.86,4.05,19.5,19.5,0,0,1,4.37,10.2c.22,4-1.42,7.81-3.07,10.56a24.29,24.29,0,0,1-3.53,4.3,27.91,27.91,0,0,1-3.4-4.45,22.19,22.19,0,0,1-3.61-10.39,18.57,18.57,0,0,1,2.58-10.05A21.4,21.4,0,0,1,390.06,399.06Z"/><path class="cls-1" d="M422.1,423.93a25.79,25.79,0,0,0-5-2.64,19.63,19.63,0,0,0-21.3,3.14,28.17,28.17,0,0,0-4.11,3.77,25.6,25.6,0,0,0,4.64,3.15,18.58,18.58,0,0,0,11.05,2.42A21.24,21.24,0,0,0,418,428.46,31.61,31.61,0,0,0,422.1,423.93Z"/><path class="cls-1" d="M400,385a28.1,28.1,0,0,1,4.21,3.7,24,24,0,0,1,3.2,4.25,15.08,15.08,0,0,1,2,5.51,16.2,16.2,0,0,1-.29,5.83,19.3,19.3,0,0,1-1.83,5,26.1,26.1,0,0,1-3.12,4.61,28.92,28.92,0,0,1-3.79-4.14,21.87,21.87,0,0,1-4.49-10,18.41,18.41,0,0,1,1.68-10.24,33.83,33.83,0,0,1,1.63-3.23C399.67,385.46,400,385,400,385Z"/><path class="cls-1" d="M434.09,407a26,26,0,0,0-5.17-2.19,24.89,24.89,0,0,0-5.25-1.05,19.86,19.86,0,0,0-6,.4,18.18,18.18,0,0,0-5.52,2.35,33.34,33.34,0,0,0-4.2,3.28,26.7,26.7,0,0,0-3.75,4.13,24.93,24.93,0,0,0,4.89,2.74,18.92,18.92,0,0,0,11.24,1.44c4.17-.93,7.65-3.73,10.1-6.23a25.65,25.65,0,0,0,2.72-3.4C433.77,407.55,434.09,407,434.09,407Z"/><path class="cls-1" d="M409.93,367.72a27.49,27.49,0,0,1,4.55,3.25,19.27,19.27,0,0,1,6.22,9.18,19.08,19.08,0,0,1-1,11A26.4,26.4,0,0,1,417,396a28.61,28.61,0,0,1-4.19-3.73,22.19,22.19,0,0,1-5.49-9.52,18.42,18.42,0,0,1,.63-10.35A21.41,21.41,0,0,1,409.93,367.72Z"/><path class="cls-1" d="M446.09,386.07a26.16,26.16,0,0,0-5.38-1.65,21.2,21.2,0,0,0-11.22.52,20.91,20.91,0,0,0-9.09,6.6,25.89,25.89,0,0,0-3.34,4.47,25.1,25.1,0,0,0,5.15,2.22,18.77,18.77,0,0,0,11.33.3A21.69,21.69,0,0,0,443,391.3,31.29,31.29,0,0,0,446.09,386.07Z"/><path class="cls-1" d="M417,352.06a28,28,0,0,1,4.83,2.84c2.58,1.88,5.67,4.77,7,8.58a15.91,15.91,0,0,1,.82,5.78,18.45,18.45,0,0,1-.86,5.22,26.36,26.36,0,0,1-2.18,5.12,28.12,28.12,0,0,1-4.5-3.35,21.87,21.87,0,0,1-6.32-9,18.71,18.71,0,0,1-.3-10.36c.37-1.4.69-2.63,1-3.47S417,352.06,417,352.06Z"/><path class="cls-1" d="M454.66,367.15a26.11,26.11,0,0,0-5.49-1.17,21.94,21.94,0,0,0-11.17,1.5,18,18,0,0,0-5,3.36,35.51,35.51,0,0,0-3.51,4,26.84,26.84,0,0,0-2.89,4.78,25.63,25.63,0,0,0,5.32,1.76,18.92,18.92,0,0,0,11.3-.72c4-1.69,6.8-5.12,8.74-8a23.1,23.1,0,0,0,2-3.84C454.46,367.77,454.66,367.15,454.66,367.15Z"/><path class="cls-1" d="M423.47,333.2a27.37,27.37,0,0,1,5.09,2.32,24,24,0,0,1,4.3,3.13,15.25,15.25,0,0,1,3.53,4.69,18.58,18.58,0,0,1,1.1,11,25.76,25.76,0,0,1-1.67,5.31,28.86,28.86,0,0,1-4.82-2.87,21.79,21.79,0,0,1-7.18-8.3,18.2,18.2,0,0,1-1.37-10.28,29.24,29.24,0,0,1,.62-3.56A13.11,13.11,0,0,1,423.47,333.2Z"/><path class="cls-1" d="M462.46,344.33a26.28,26.28,0,0,0-5.58-.6,24.94,24.94,0,0,0-5.33.52,19.52,19.52,0,0,0-5.61,2.13,21.49,21.49,0,0,0-7.67,8.2,26.67,26.67,0,0,0-2.41,5,25,25,0,0,0,5.47,1.21,19.12,19.12,0,0,0,11.2-1.86c3.68-2.12,6.24-5.79,7.86-8.9A26.81,26.81,0,0,0,462,346C462.32,345,462.46,344.33,462.46,344.33Z"/><path class="cls-1" d="M427.46,316.49a27.29,27.29,0,0,1,5.29,1.86,24.23,24.23,0,0,1,4.57,2.74,15.76,15.76,0,0,1,3.87,4.34,17.62,17.62,0,0,1,2.06,10.81,26.23,26.23,0,0,1-1.13,5.45,28.77,28.77,0,0,1-5.07-2.43,22,22,0,0,1-7.94-7.64A15.42,15.42,0,0,1,428,329a16.88,16.88,0,0,1-.74-2.64,20.5,20.5,0,0,1-.37-4.86c.05-1.46.26-2.69.36-3.59S427.46,316.49,427.46,316.49Z"/><path class="cls-1" d="M467.29,324.12a25.46,25.46,0,0,0-5.61-.1,25.07,25.07,0,0,0-5.25,1,18.83,18.83,0,0,0-5.46,2.6c-3.46,2.42-5.44,6-6.92,8.85a26.6,26.6,0,0,0-1.9,5.24,25.19,25.19,0,0,0,5.55.71,18.79,18.79,0,0,0,10.93-2.86,15.77,15.77,0,0,0,2.47-2,19.9,19.9,0,0,0,1.91-2.42,27.83,27.83,0,0,0,2.67-5.1,23.69,23.69,0,0,0,1.31-4.15C467.21,324.77,467.29,324.12,467.29,324.12Z"/><path class="cls-1" d="M430.2,296.72a27.8,27.8,0,0,1,5.46,1.31,24.52,24.52,0,0,1,4.83,2.27,15.59,15.59,0,0,1,4.29,3.92,16.13,16.13,0,0,1,2.49,5.3,21.43,21.43,0,0,1,.56,2.71,22.17,22.17,0,0,1,.11,2.53,26.2,26.2,0,0,1-.58,5.54,28.8,28.8,0,0,1-5.29-1.9,21.91,21.91,0,0,1-8.67-6.79,18.72,18.72,0,0,1-2.44-5,20.23,20.23,0,0,1-.86-4.79c-.08-1.45,0-2.71,0-3.62A14.08,14.08,0,0,1,430.2,296.72Z"/><path class="cls-1" d="M470.6,300.24a26.33,26.33,0,0,0-5.59.48,24.78,24.78,0,0,0-5.11,1.52,18.89,18.89,0,0,0-5.17,3.15A18,18,0,0,0,451,310a24.81,24.81,0,0,0-1.22,2.49c-.39.81-.71,1.61-1,2.37a27,27,0,0,0-1.37,5.4,25.19,25.19,0,0,0,5.6.14,18.91,18.91,0,0,0,10.6-4,15.86,15.86,0,0,0,3.88-4.89,28.2,28.2,0,0,0,2.14-5.34,22.06,22.06,0,0,0,.87-4.27C470.59,300.9,470.6,300.24,470.6,300.24Z"/><path class="cls-1" d="M431,279.52a27.43,27.43,0,0,1,5.52.83,19,19,0,0,1,9.6,5.38,15.8,15.8,0,0,1,3,5.06,22.84,22.84,0,0,1,1.07,5.16,25.87,25.87,0,0,1,0,5.57,28.68,28.68,0,0,1-5.44-1.43,22.35,22.35,0,0,1-9.31-6,16.53,16.53,0,0,1-2.79-4.81,20.14,20.14,0,0,1-1.34-4.71A21.43,21.43,0,0,1,431,279.52Z"/><path class="cls-1" d="M471.56,279.52a26.36,26.36,0,0,0-5.56,1,21.53,21.53,0,0,0-9.87,5.55,18.14,18.14,0,0,0-3.29,5,24.92,24.92,0,0,0-1.83,5,26.15,26.15,0,0,0-.82,5.51,25.06,25.06,0,0,0,5.58-.35,18.63,18.63,0,0,0,10.13-4.89,17.58,17.58,0,0,0,3.52-5.2,27.4,27.4,0,0,0,1.6-5.5A31.33,31.33,0,0,0,471.56,279.52Z"/><path class="cls-2" d="M336.05,546.74s20.23-29.5,29.73-74.65c5.92-28.07,3.08-64.44-18.27-81.52-28.09-22.47-50.85-23.8-68.88-36.14-14.78-10.11-17.94-45-13.67-73.45,0,0,36.06,8.69,43.89,8.21S326.36,288,327.59,279c.71-5.22-2.85-9.72-1.9-14,0,0,6.88.23,7.59-5.7s-2.61-6.4-2.61-6.4,4.43,1.26,7.91-6c1.45-3-3.87-4-8.85-17.48,0,0,13-2.84,15.18-6.4s-1.6-6.52-5.93-15.19c-7.67-15.34-9.57-27.36-9.57-27.36s11.23-1.34,16.21-6.8c0,0-11.39,2.14-14.23-1.42,0,0,.71-2.85-1.19-8.78,0,0,12.57-2.61,16.61-4.5,0,0,2.84-21.83-5.22-50.06s-32-53.61-63.11-65.24-61.91-5.93-75-.47c0,0-.47-28.94-35.58-40.33S100.57,16.15,91.55,40.34c-4.48,12-5.81,28.1,1,43.34,6.85,15.44,21.94,30,41.28,30.2,0,0-12.81,24.67-3.8,57.89s22.3,42.22,43.18,65.47,35.12,67.35,19.92,88.25c-11.38,15.66-34,6.17-56.22,13.84-27.73,9.59-34.73,38.82-18.42,62.55,13.43,19.54,56.25,29.7,79.7,37.32C248.75,455.65,301.58,485.06,336.05,546.74Z"/></g></g></svg>