<svg xmlns="http://www.w3.org/2000/svg" viewBox="0 0 569.43 477.79"><defs><style>.cls-1{fill:#f1dfd1;}</style></defs><title>decor--1_2</title><g id="Layer_2" data-name="Layer 2"><g id="explore-details-dataset-graph-view"><path class="cls-1" d="M561.54,265.87c-25.38-2.59-50.88-4.29-76.44-5.59l.15-3.74c16.78,1.59,33.56,2.89,50.32,3.52,9.61.36,14.46-15,4-17.56-17.47-4.28-35.25-7.72-53.16-10.79.39-7,.83-14.09,1.29-21.16,13.12-.76,26.2-1.67,39.22-2.91,9.85-.94,8.89-16.59-.79-17.25-4.17-.29-8.35-.48-12.52-.73a10.11,10.11,0,0,0-8.16-7.64c-5.21-1.08-10.49-2-15.74-3,.91-14.37,1.71-28.8,2.27-43.21q29-.6,57.91-1.9c11.09-.5,11.55-17.75,2.56-21.33,2.69-4.9,1.83-11.47-5.07-13.45-18.31-5.27-36.68-10.25-55.1-15.06,0-.45,0-.91,0-1.36,18.5,1.21,36.94,1.94,55.26,1.77,11.27-.1,17.9-18.19,4.84-21.27l-20-4.7a10.39,10.39,0,0,0-5.16.13c-12.13-2-24.33-3.81-36.64-5.28-.57-6.39-1.25-12.76-2.12-19.1-1.37-10-18-9.55-18,.81,0,5.38-.16,10.76-.24,16.14q-11.28-1.14-22.6-2.11c-.91-6.95-1.92-13.89-3.09-20.81-2.29-13.43-22.74-9.67-20.8,3.78.73,5.09,1.35,10.18,1.9,15.27Q415,46.63,404.28,46c.4-13.09-19.5-15.05-20.49-1.78l0,.46L359.9,43.12c.23-10.94.56-21.88.71-32.83.16-12.37-18.22-14.36-19.39-1.73-1,11-1.86,22.1-2.69,33.15-11.35-.78-22.66-1.62-33.87-2.59l-5.55-.47c0-6.83.15-13.67.09-20.49-.1-10-14.48-11.67-15.7-1.41-.8,6.79-1.41,13.6-2.1,20.4l-20.64-1.74c-4.88-.79-9.74-1.7-14.62-2.47-1-5.38-8.75-6.32-11-1.63Q148.13,18,60.33,10c-7.21-.65-9.88,7-7.2,11.9-3.63,4.28-2.36,12.43,5,13.29,34.89,4.1,69.82,8,104.75,11.75q-2.59,18.48-4.84,37c-6.77-.13-13.53-.19-20.3-.24,1-10.65,2-21.31,2.88-32,.63-7.43-10.32-8.27-11.44-1-1.7,11-3.26,22-4.84,33-16.48,0-32.95.26-49.38.87C62.7,85,60.2,103.4,73.18,104.12c3.47.19,6.94.3,10.41.48-.86,4.41,1.28,9.48,7.1,10.17,9.58,1.12,19.17,2.09,28.76,3.14-.92,6.71-1.87,13.41-2.77,20.12-26.8-2.6-53.61-4.85-80.43-6.35-6.64-.37-7.3,9-.91,10.16,26.26,4.71,52.68,8.69,79.17,12.34-.79,6-1.63,11.92-2.4,17.89-3.52-.3-7-.5-10.56-.82-11.54-1.05-13.1,16.6-1.6,17.91l9.75,1.11c-.3,2.29-.62,4.57-.91,6.86-19.15-3-43-6.29-51.81,8.51-2.22,3.71-2.1,9.13,2,11.69l1.89,1.18c5.54,3.47,11,.1,12.45-4.55,6-1.74,20.14-.55,33.23,1q-1.41,11.18-2.83,22.34-48.58-4.59-97.17-9.56c-8-.82-8.94,11.17-1.1,12.37,26.27,4,52.63,7.69,79,11.13-7.71.77-14.54,3.09-19.38,8.12-1.95,2-3.47,5.43-1.81,8.19l1.58,2.62c4.41,7.29,16.35,2.12,12.25-5.76,2,3.75,11.18,5.89,22,7.18q-1.82,12.84-3.63,25.74c-30.66-2.24-61.33-4.34-92-6-3.7-.21-4.17,5.21-.51,5.72,15.55,2.18,31.14,4.18,46.71,6.21a3.11,3.11,0,0,0,2,1.45c13.77,3.39,27.66,6.4,41.6,9.27-1.81,13.89-3.49,27.81-4.64,41.72-26.78-1.77-53.44-3.44-79.87-5.2-6.66-.44-7.57,9.59-.92,10.34,20.33,2.31,40.68,4.89,61,7.61-.75,0-1.51,0-2.26.06-6.69.33-4.95,9.68.49,10.83,6.6,1.4,13.28,2.56,19.94,3.76-.38,12.25-.39,24.48.42,36.64.6,8.91,14.29,7.62,15.24-.69q1.86-16.33,3.69-32.71,16.8,2.59,33.77,4.58c1,25.5,3.58,50.55,9.13,74.17,1.84,7.84,13.38,7.65,14.31-.66,2.6-23.18,3.09-46.85,2.76-70.67,4.13.4,8.26.82,12.39,1.19.3,8.42.46,16.87.93,25.24.56,10,16.68,8.9,17.43-.79.59-7.57,1-15.17,1.52-22.75,7.79.63,15.58,1.26,23.36,1.84,1.16,18.47,2.7,36.87,4.78,55.16,1.07,9.45,16.77,8.89,16.88-.76q.28-26.41.13-52.77l19.2,1.45c0,17.72.36,35.4,1.42,53,.69,11.47,18.45,9.83,19.64-.89,1.84-16.6,3.11-33.31,4.05-50.06,4.1.34,8.21.66,12.29,1q13.08,1.19,26.2,2.51c.68,11.69,1.56,23.34,2.94,34.89,1.46,12.24,19.76,10.67,21.1-1,1.2-10.35,2.05-20.76,2.75-31.2L366,411.2c.33,15.8.86,31.56,1.68,47.28.6,11.43,18.51,9.86,19.64-.89,1.52-14.55,2.78-29.16,4-43.78q13,1.32,25.95,2.58c.16,1.53.23,3.06.4,4.58,1.28,11.54,20.29,13.66,23.32,2.09.39-1.49.77-3,1.16-4.45,1.28.11,2.57.24,3.85.34,0,16.57.47,33.11,1.5,49.63.87,13.94,20.75,10.81,22.94-1,2.81-15.22,4.84-30.72,6.52-46.33,19.13,1.21,38.25,2,57.32,2.19,15.8.14,18-22.17,2.19-24.56-18.82-2.84-37.8-5.06-56.85-6.91.71-9.51,1.19-19.08,1.67-28.64,21.35.91,42.61,1,63.66-.08,4.92-.25,7.18-3.58,7.5-7.38,9.26-1.52,9.85-14.21-.08-16.33-22.85-4.87-46.11-8.53-69.6-11.46.2-5.55.37-11.06.55-16.6,15,.81,30,1.33,45,1.14,11.32-.13,12.52-15.05,1.56-17.35-15.08-3.16-30.36-5.66-45.72-7.9,0-.81.07-1.59.1-2.39,26.17.45,52.28.17,78.21-1.45C572.59,282.85,571.22,266.86,561.54,265.87Z"/></g></g></svg>