<svg xmlns="http://www.w3.org/2000/svg" viewBox="0 0 156.44 32.07"><defs><style>.cls-1{fill:#cca269;}</style></defs><title>slider--r</title><g id="Layer_2" data-name="Layer 2"><g id="explore-details-datasets"><path class="cls-1" d="M10,29.18C15.62,16.44,27.61,7.3,41.06,4.26,58,.42,72.65,6.93,87.91,13.37c22.06,9.3,49.78,8.33,67.44-9.67.77-.8-.27-2.29-1.23-1.6-11.48,8.24-24.3,13.83-38.62,14-15.8.21-28.57-7.71-43-12.76C48-5.21,18,2.41,8.51,28.54c-.31.87,1.13,1.49,1.5.64Z"/><path class="cls-1" d="M.94,22.77l5.92-.23c1.81-.07,3.64.09,5.36-.57a1,1,0,0,0,0-1.82C8.87,18.77,4.05,20,.69,20.87a1,1,0,0,0,.25,1.9Z"/><path class="cls-1" d="M3.71,12.34a34,34,0,0,0,7.6,1.84c2.3.4,4.67,1.16,7,.75a.72.72,0,0,0,.17-1.3c-2.1-1.19-4.76-1.24-7.13-1.63A31.33,31.33,0,0,0,4,11.26c-.51,0-.87.83-.29,1.08Z"/><path class="cls-1" d="M11,5a34.6,34.6,0,0,0,5.77,2.45,48,48,0,0,0,6.56,2.28c1,.22,1.75-1.22.74-1.76a43.39,43.39,0,0,0-5.86-2.29,36.84,36.84,0,0,0-6.62-2.08A.77.77,0,0,0,11,5Z"/><path class="cls-1" d="M16.85,31.51a20.83,20.83,0,0,0-1.92-9.82c-.48-1-2.28-.3-1.87.79a63.83,63.83,0,0,1,2.67,9.18c.14.65,1.1.47,1.12-.15Z"/><path class="cls-1" d="M23.76,24.75c-.16-3.82-1.53-8.35-4.62-10.85-.65-.53-1.78.14-1.25,1a42.82,42.82,0,0,1,2.93,4.5,21.75,21.75,0,0,1,1.79,5.54c.11.66,1.17.5,1.15-.15Z"/><path class="cls-1" d="M28.64,19.84a27.46,27.46,0,0,0-1-6.24c-.52-1.77-1.05-3.88-2.37-5.22-.37-.38-1.18-.12-1.12.46.2,1.83,1.2,3.49,1.76,5.24A60.75,60.75,0,0,1,27.48,20a.59.59,0,0,0,1.16-.16Z"/><path class="cls-1" d="M117.13,2.73a147.46,147.46,0,0,0,19.22,1.86c6.13.16,13.38,1,19.33-.65,1-.26,1.07-1.86,0-2-5.91-1-12.46,0-18.47-.13-6.58-.09-13.28-.22-19.83-.87-1-.1-1.3,1.67-.25,1.84Z"/><path class="cls-1" d="M134.85,30.92c4.3-3,7.6-7.26,10.74-11.38,3.85-5,7.91-10.39,10.71-16.09.49-1-.84-2.25-1.64-1.27-3.63,4.42-6.44,9.52-9.79,14.17S137.32,25.26,133.93,30c-.39.54.38,1.29.92.92Z"/></g></g></svg>