<svg xmlns="http://www.w3.org/2000/svg" viewBox="0 0 1412.29 136.5"><defs><style>.cls-1{fill:#fff;fill-rule:evenodd;}</style></defs><title>toolbar--bg_1</title><g id="Layer_2" data-name="Layer 2"><g id="explore-details-datasets"><path class="cls-1" d="M-3056-1240.48c.58-.06.72-.31,1.43-.31-.6-1.49-2.14-2.58-5-3.1-2.27-.78,4.15-1.28-.72-1.55a39.52,39.52,0,0,1,6.45-.93c2.65.92,3.83,2.48,8.6,2.48,5.5-2,9.4-1.39,15-.93,1.25.71,1.59,2.12,2.86,2.79.71.37,1.93,0,2.87.31,2,.63,1.38,1.63,5,1.86,4.77.31,9.22-1.59,15-1.24.06-1.16-2.8-1.05-5-1.24l.36-.46-1.08-.16c.26-.4,1.26-.49,1.44-.93-.61-1.93-5.59-.92-9.32-.93.58-.73-1.66-2,.72-3.1,6,.88,15.72.37,19.34,1.55,1.81.81-1.57,2-2.15,2.79.91.85,2.88,1.24,4.3,1.86,8.23-1.77,16.32-1.42,23.64-2.48-.07-.79-2.67-.49-3.58-.93.43-.95,1.52-1.61,2.15-2.48,4.76.32,10.53,1.79,14.32,0l1.07.16.37-.47c.63.14,1.27.28,1.43.62,3-1.58,10.62-1.18,14.32-2.48,8.4,1.36,15.56-1.06,20.78-.31,1.25,1.63,2.89,3.09,7.88,3.1-.35,1.64,2.29,1.27,5.73,2.17,1.17.31,2.08,1.09,2.86,1.24,1.47.29,4,0,5.73.31,2.37.37,4.49,1.31,7.88.93,1.93-.21,1.58-1,4.3-1.86,3.15-1,7.92-1,10-3.1,4.71-.18,5.12,1.51,10,1.25,4.4-1,10.82-.85,16.47-.63-.61-1.8-7.3-1-10.75-1.54-.79-1-.33-.83.72-1.56-1.39-.74-4-.94-4.3-2.17,1.17-.53,2.17-1.12,2.15-2.17,9.07-.73,6.24-4.82,6.45-7.44-1.65-1.25-3.71-2.32-4.3-4,3.34-.42,9.75.26,13.61.62,12.6-1.75,22.45-1,34.38.31,3.9,1.72,10.54,2.26,17.91,2.48a12.27,12.27,0,0,1,2.87,1.55c8.18.26,17-.49,22.2,1.55-.29,1.53-6,.73-9.31.93,3.45,1.4,5.59,3.37,9.31,4.65a30.24,30.24,0,0,0,7.88-1.24c.2-.7-.17-1.16-1.43-1.24.3-.7,3.93,0,3.58-.93.5-1.24-3-.76-2.87-1.86,5.69-.76,13.88.36,16.48.93,3.61,0,6.63-.83,7.88.62a32.4,32.4,0,0,1-7.88,2.48c.21,2.13-3.81,2.47-2.15,4,2.67,2.53,11.94.41,16.48-.93.37-2.9,3.39-2.84,4.29-5.27,1,0,2,.06,2.15-.31q3.22.46,4.3,1.86a45.22,45.22,0,0,0,6.45-1.86c6.44.2,10-.07,15,.93a59.44,59.44,0,0,1,14.33.93c.61.14,1.07.86,1.43.93.68.15,1.89-.2,2.86,0s1.33.8,2.15.93c3.79.61,9.61.82,14.33,1.55a107.29,107.29,0,0,0,15.76,1.86c4,2.39,15.88,1.4,20.77,3.41,3.41-.76,6.49.22,10.74,0,.4.69-1.36.44-1.43.93,3.79,1.73,13.3-.9,13.61,2.17-1.63-.08-2.69.08-2.86.62,4.13.87,10.4,1,16.47.93.87.1,2.47-.89.72-.93,3.28-.73,8.08,1.63,6.44,3.1,4.51-.12,5.57-1.72,8.6-2.48a66.94,66.94,0,0,0,8.6-.31c.37-1,2.91-.8,4.29-1.24,2.88-.9,4.13-2.29,7.17-2.79,2.31-.38,5.46.23,6.45-1.24,4.53.62,12.74-.25,19.33.62,2.62.35,5.84,1.9,10,2.17,6.74.44,12.19-.79,18.63-1.86,1.46,1,2.17,2.37,4.29,3.1,9.77.12,13.18,3,22.93,3.1,5.81,1.72,13.07,2.82,17.18,5.27,1.29,0,1.52-.38,2.87-.31,9.1,3.73,10.38,9.5,16.48,14.88,2.57.09,3.45-.57,5.73-.62-3.05-3.32,3.15-5.21,5.73-7.12-.93-1.85-4.9-2.32-2.86-4.66,8.94-2.57,15.74,1.74,22.91,2.79-.57,1.08,1.07,1.19.72,2.17,1.22-.11,3.85.8,6.44-.3.55-.24-.3-1.24,0-1.56,1.3-1.36,10.18-4.35,2.87-5.89-4.33.3-9.07.42-10,2.17-4.59.18-3.86-2-4.29-2.79l1.07-.15-.36-.47c3.3-1.81,11.37-.92,17.91-1.86,0,.3.88.24,1.43.31.6.67,1.86,1.06,1.44,2.17a6.71,6.71,0,0,1,4.29,2.79c3.49,1.09,8.29,2.87,7.17,5,3.84,1.72,9.33,1.47,14.32,2.17,1.2-.82,4.34-.81,3.58-2.48-4-1.06-10.08-1.21-14.32-2.17.41-1-.5-1.44-.72-2.17l1-.37-.26-.56a22.17,22.17,0,0,1,7.16,2.48,9.49,9.49,0,0,0,4.3-1.24c-1.23-1.63-7.41-1.13-7.17-3.41,1.58-.82,3.08-.49,5.74-.3,5.39,2.83,12.88,4.75,20.05,6.81-2.4,2.12,1.34,3.81-.71,6.2,3.4,1.16,10.09,2.4,7.87,5-1.91.6-4.27-1.23-7.16-.31,1.34,3-2,4.64,3.58,5.89-.38,3.12,3.55,4,1.44,7.13-3.56.79-4.28,1.59-10.75,1.55.39.79,3.77.33,2.15,1.25,0,1-6.22-.11-7.16,1.23,0,1.64,2.43,2.26,5,2.8,1.45-.51,2.86-1,2.87-2.17,2.19.22,2.6-.32,4.3-.32,1.5.59,1.6,1.79,3.58,2.17.34,1-1.93.82-2.15,1.55,2.53,2.41-4.72,4.09-.72,6.21-2.56,3-14.12-.57-17.19,2.78a13.66,13.66,0,0,1,2.87,8.68c2.65-.11,4.88,0,5,.94-1.73,1.41-5.41,2-7.17,3.4.24,1.55.12,3,4.3,3.42,2.25-.22.94-.83.72-1.55,1.64.42,4.47.34,4.3,1.55-4.75,1.14-5.11,4.19-8.6,5.88-.09,1.27,3.15.61,3.58.94,1.64.84-1.82,1.21-1.43.62-.58.88,2.85,1.07,0,2.78-.12.78,1.1,1,2.15,1.25-.61.72-4.84-.35-2.86.61-3,.36-5.17-2.3-10-2.16l.36-.47-1.08-.15c-1.7-1.07-1.7-2.35,0-3.42-.86-1.17-3.81-1.44-2.87-3.4H-2372c0,1.79-4.25,2.79-2.14,5.57-3.46-.25-4.82.4-5,1.56,4.89,0,9.25-1.7,12.17,0l.36.31.36.3h-.72c-.63,2.87,5.4,2.83,6.45,5-4.16-.57-.36,2.32-4.3,1.86v3.72c-.9.43-3.77,0-2.86,1.24l-1.08.36.36.57c-2.37.52-5.4.76-7.88,1.24-1.8,1.81,2.55,3-.71,4.34l-.72-.16-.71-.16c-5.25,1.25-17.85,1.48-22.21-.92-7.21.87-17.07,1.61-21.49-.93-5.61,1.23-15,.37-19.34,1.24a43.07,43.07,0,0,0-15-2.48c-2,.37-2.51.88-5,.31-.39-1.62,3.05-1.58,6.44-1.55.17-5.2-11.83-7-19.33-6.2-.06,1.75,1,3.39.72,5.88a30.25,30.25,0,0,0,10,1.24c.18.91-1.35,1.08-2.14,1.56-7-1.19-14.88.42-23.65.93-6.41.37-10.94-.26-16.47.92l.36-.46-1.07-.15c-2.22-.18-2.25-1.31-5-1.24-2.48-.13-4.14,1.69-2.87,2.17-4.26,1.12-9.3.68-15.75,1.24-1.51-.49-1.75-1.52-3.58-1.86-1.62.43-4.62.27-4.3,1.55-1.8.41-2.24-1.23-2.87-.31l-.35-.16-.36-.15c-2-.57-2-2-5-2.17.11-.58,2.43-.19,2.87-.63-1.2-.92-3.28-1.47-5-2.16-6.62-.35-10.25,1.42-13.62,1.55-1.46.3-1.54,1.19-1.43,2.17a23.23,23.23,0,0,0-7.16-.31c-.82-1.2-3.12-1.75-4.3-2.79-1.92.53-.68-.92-2.86.62-1.07-.14.28-.4,0-.93-3.91.33-4.78.15-6.45,1.55,2.17,2.21,6.69,1.25,10.74,1.55-2.48.88-2.08,3-6.44,3.09-1.86-1-6-1.13-6.45-2.78-1.75.76-3.11-.23-5.73,0,.8-1,.06-.71,0-1.86-3-.4-3.44-.27-5,.93,1.27,1.91,5.21,2.19,5.73,3.71,2.65-.91,4.12.75,7.88.32-.63,1.31,3.31,1.57,1.44,2.48-2.07.9-1.69-.84-3.58-.93-2.45.69-4.74,1.46-5.74,2.79-4.06-1.56-1.84,1-5.73,1.24,0-.31-.87-.24-1.43-.31a9.69,9.69,0,0,1,.72-2.17c-.61,0-.68-.12-.72-.31l-.36-.31-.35-.31c.94-.11,1.12-.55,2.14-.62,1.21-2.22-6.52-1.36-4.29-3.1-4.31.31-6.12-.46-9.32-.62-3.55.88-4.85,4.24-4.29,5.88l-.36.47,1.07-.15c-2.88,2.22-13.67-.79-12.17-2.48.3-.86-2.67-.29-2.87-.93.63-1.07,2.91-1.43,4.3-2.17-2-.9-4.83-1.43-6.45-2.48,3.55-.59-3.2-1.43.72-2.17a17.24,17.24,0,0,0-9.32-1.86c-1.7.08-.32.5-2.86.92-.78.14-2.14-.17-2.86,0-3.43.83-5,1.64-5.73,3.11.4.85.76,1.73,3.58,1.54-.1,1.84-3.24,1.35-5.73,1.56-1.54,1-3.92,1.61-4.3,3.1l-1.08.15-.36.47c-1.15-.64-5.28,0-6.44-.62-1.26-1.68,3.63-1.5.72-3.41a8.71,8.71,0,0,1,3.58-1.25c-.51-2-3.76-1.7-7.16-1.85l-1.18-.25-1-.37c.24-.63-.15-1-1.44-.94,5.84-.22,3.31-2.83,6.45-3.71-.31-1.17-3-1.32-1.43-2.48,7.28-.28,11.84-2.26,20.05-1.24.21-.6-2.14-1.58-2.15-1.24,0-.19,1.81-.41,1.44-.62-3.09-1.82-8.76-.22-13.61-.93-.54,1,2.91.39,2.14,1.55.35,1.28-4.12.48-4.29,1.55-2.07-.24-1.79-1.5-2.87-2.17l1.08-.16-.36-.46h.72c1.74-1-4.41-2.06-6.45-1.55-1.74.7-.86,1.09-.72,2.17,1,.81,2.63,1.34,5.73,1.24-.5,2.16-5.63,2.31-10,2.79.1.55-.87.65-.71,1.24l-1.31-.16-.84.47c-1.89-1.83-7-1.14-9.31-1.55l-.84-.47-1.31.16c-3.06-1.54.47-4.46,2.86-5.58-7.18-.3-8.54,1.06-12.17,2.79-1.36-.35-3.39-.4-5-.62v-1.24c-2.84-1-8.09-1-11.46-1.86-7.9,2.09-18.7,1-25.07,3.72,4.45,3,12.15,2.74,22.21,3.1,1.83,0,1.42-1,1.43-1.86,2.24-1.24,9.37-2.45,10,.3-3.41-.33-2.65,1.14-5.73.94,2.07,1.37,7.12,1.46,8.59,3.1a25.29,25.29,0,0,0-5.73,4c1.53.48,2.67,1.13,4.3,1.56,4,0,4.82-1,7.88,0v1.55c-4.2,0-6.06,1.1-6.45,2.79-5.76-.61-5.06-4-11.46-4.34l.36-.47-1.07-.15c.8-.59,2.77-.66,3.58-1.24-5.15-1-9.42-4.65-15.05-2.79l-.36-.16.36.16c-3.22-.78-9.18-.37-10-2.17-10.44-.7-18,1.23-25.08,1.55-1.06.26-1.53.78-1.43,1.55,1.69,1.46,3.73-.56,5.73.31.08,1.68-2.06,2.41-2.15,4-1,.34-6.18.39-3.58,1.25-2.57.79-5.6-.87-8.59-.93.65-1.38-3.35-1.88-2.87-4a54.23,54.23,0,0,0-7.16-1.86c-1.52-3.49,5.81-3.82,10.74-2.79.62-1.3-3.2-.68-4.3-1.24.15-1.31-1.17-2-3.57-2.17,0-1.36,2.28-1.7,2.86-2.79-.18-.65-3.15-.09-3.58-.62,1.05-2.32,8.62-.13,11.46-1.86-1.64-1.3-7.78-1.18-8.6.31-2.33.08-2.07-1-3.58-1.25-2.46.69-7.33.21-10,0-1.56,0-2.28.26-2.15.94-2.67-.43-3.7-.89-5.72-.94l.35-.46-1.07.16c-9.09-.81-19.14,1.34-22.21,5-2.65-.11-4.38,1.11-5.73.62l.36-.47-1.07.16c-9.35-1.17-14.25-5.81-25.79-3.41-.26,1.43-.88,1.78,0,3.1a76.26,76.26,0,0,1,7.88,1.24l-.36.31.36.31c-4.08-.2-4.45,2.18-10,2.17-1.06-1.39,2.1-1,1.43-2.17a50,50,0,0,0-13.61,0,4.09,4.09,0,0,0,2.87,2.48c-1,1.12-2.47,2-2.87,3.41-2.88.61-7,.67-8.59,1.86-4-.25-4.74-1.88-8.6-2.17-2.32.13-2.27,1.29-4.3,1.55-3.17.13-4.53-.52-5-1.55,2.61-.35,7.94,0,5.73-1.55a39.63,39.63,0,0,0,7.16-.32c-.63-1.08.14-1-1.43-1.85-3.67.28-10,1-12.89.62-1.81-.82,3.11-.48,1.43-2.17,3.27.27,4.06-.52,6.45-.62,1.17,1.14,6.35.55,9.31.93h.71v-.31c2,.26,2.94,1,5.74.92.4-1.41-3.08-1.14-5.74-1.23l.36-.47-1.07-.15c.14-.4,2.08-1.52.71-1.55.3-.7,3.81,0,4.3-.62-.18-2.35-7.77-2.26-10.74-2.48-3.75,1.12-7.07,2.21-10,2.17-2,.28,2.18.69,0,1.24-4-.13-7.93,1.49-14.33,1.24-.18-1.06-1.46-1.65-3.58-1.87-.06-1.15-.8-.88,0-1.85a20.46,20.46,0,0,0-6.44-.93c-2.19.37,1,1.18-.72,1.55-9.08-.09-8.33,3.4-7.88,5.27-2.69-.43-4,.35-6.44-.32-.51-1.06,0-2.16-3.59-2.47.22-.73,2.49-.58,2.15-1.55-.64-1.1-4-2.22-5.73-1.87-2.12.28,2.16.25.72,1.25-3,.72-5.49-.18-9.31,0a2.12,2.12,0,0,0-1.44,2.48c.48,1.24,4.61.89,7.88.93-.29,2,3.25,2.31,7.16,2.48,2.06,1.31-1.67.91-2.86,1.55s-.28,1.71-5,1.86c-3.15-.51-5.13-1.51-9.32-1.55-.1-1,1.84-1.07,3.59-1.24-.68-2.4-7.64-2.07-10-3.72-.71-1.24,2.14-.94,1.43-2.17-1.81-1.13-3.45-.89-6.45-.62-1.6,0,.93.78,0,1.55h-5l.36-.47-1.08-.16c0-.3-.87-.23-1.43-.3l.36-.31-.36-.31c-1.64-.52-2.67-.81-1.43-1.86-3.8,0-5.06,1.11-7.88,1.55-.52,2.07-.27,2.32,1.43,3.72-5.66,1-10.4,2.32-10.75,5.58-6,1.64-12.75,3-16.47,5.58-2.48,0-4.16-.27-3.58-1.55-4.69,1.11-7.57,1.08-12.89,1.85-1.24-1.93,2.3-3.78,4.29-6.19,3-.3,3.63-.39,5.73.31a1.55,1.55,0,0,0,0,2.47,14.83,14.83,0,0,0,6.45-.92c-3.53-1.09-2.27-2.6-3.58-4.65s-1.86-3.14,4.3-4c.79-5.92-14.95-5.45-21.49-2.79-.39,2-.66,4.84-6.45,4-2.21.07-1.21,1.54-4.3,1.24-.09-.77-.11-1.5.72-1.86-.76-.81-2.91-1-5.73-.93-1.07.5.47,1.49-1.43,2.17-.13.77,1.6.75,2.15,1.24-1.35,2.1-3.13,4-10.75,3.41a1.16,1.16,0,0,1,.72,1.24l-.36.46.36.47c-1.54.26-2.54.76-2.15,1.86-4.34-.12-4,1.78-6.45,2.47-7.08.29-10.48-3.3-17.91-2.78v-.31h-.71c2-.67,4.36-1.21,4.3-2.79,6.81.15,12.39-.22,15.75-1.55-1.55-2,4.47-2.89,5-5-1.13-1.15-8.52-1.45-8.6.31-5.39-.49-10.22,3-11.46,4.33-.83,0-1.27.07-1.43.32-8.59,1.09-14.85.15-14.33-3.1-2.73-.26-2.77.65-3.58,1.24-4,.44-6.53-.37-10,.31-.65,1.52,3,1.18,2.87,2.48-3.84,1.39-17,4.52-17.91,0a20,20,0,0,0-8.59.62c-.3.74,1.3.67.71,1.55-6.61,2.77-18,1.78-26.5,3.41a129.44,129.44,0,0,0-16.48.31c-6.38.58-11.78,2.41-16.47,2.48-10,.14-23.9-.4-30.8,3.41a44.81,44.81,0,0,1-14.33-.62c-3.7.25-3.46,2.22-6.45,2.79-8.15-.39-14.4.27-19.34-1.55-5.29.7-12.2.71-13.6,3.1-4.81-.19-10.74,1.39-13.61-1.24-6.49.25-12.61-1.63-15.05,2.17-4.57.68-8.55-.19-9.31-1.24-7.29-.37-11.6.56-13.61,2.48-3.08.25-5-.15-8.6.31-5.06-2.61-17-2.85-19.34.93-3.45-.26-7.13-.43-10.74-.62-1.08-1.81-4.65-2.54-5.73-4.34-3.36-.32-4.07.51-5.73.92,2.23,8.15-20.4,3.74-24.36.94,2.07-2.15-.75-4.27-3.58-5.27-3.32-.2-1.81,1.69-2.15,2.79-4.9,2.63-7.29,6.34-14.32,8.06-4.81-.71-7.27-2.43-13.61-2.48.57-1.08-.8-1.31-1.43-1.87-6.93-1-10.92,1.58-10,4-6.37,1.5-16.67.21-15.05-3.72-5.55-.34-7.58.85-9.31,2.17-3.6-.89-9.85,1.61-10.74-1.24h-2.15l-.84-.47-1.31.16c.38-1.44-.21-1.67,2.86-2.17-3.49-1.21,1.86-1.46.72-3.41-3.23-.93-3.31-1.29-5-2.79-5.29-.15-10-2.61-15-.94.76.71,2.17,1.13,4.3,1.25-2.17.71-3.2,0-1.44,1.24-4.26-.09-5.69,1-7.88,1.86a1.25,1.25,0,0,0,.72,1.55l-1.08.15.36.47c-4.24-.79-4.65,1.07-9.31.93-2.53-1.29-7-1.71-10-2.79l1.07-.37-.35-.56c4.32.43,8.09-2.77,2.86-2.79,2-.72.48-1.37,2.87-2.17l1.07.15.36-.46c2.39-.31,2.35.43,2.15,1.24,6.45.74,10.49-.72,12.18-2.17-.25-.72-.47-1.46-2.87-1.24-.93-.77,2.1-1.29,0-1.55l.36-.47-1.08-.15c-.13-.27.29-.3.72-.31a13.8,13.8,0,0,0-7.88-3.73l.36-.46-1.07.16a31.27,31.27,0,0,0-10-3.1c-.31-1.8-.48-2.94-4.3-3.72-1.84,0-1.15,1.15-2.15,1.55-2.94,0-3-.33-6.45-.63.12-1.29.25-2.58-1.43-3.09-2.92.65-6-.7-5.73,1.24-2.85.09-1.94-1.44-4.3-1.55-1.59.24-3.88.18-4.29.93-.34,1,1.8.87,2.86,1.24-5,.86-2.77,2.3-1.43,3.41-1.64.83-5.21.84-7.88,1.24-.09.55.88.65.71,1.24-3.7.26-5.7-.22-6.44-1.24-3.62.56-6.67,0-7.16-1.55,2.79-.3,3.9-.14,2.86-1.55,2.11-.06,4.44-.84,5.73-.32v-.3l.72.15.72.15h1.43v-.61h-1.43l-1.08-.16-.36.47c-2.82-.75-9.5.18-11.46-.93-.41-1,.22-1.56,1.43-1.86a10.38,10.38,0,0,0-5.73-.31c.31.48,2.26.26,1.44,1.23-2.68-.33-2.05.77-4.3.63,0-.62-2-.4-1.43-1.24-4.46.34-6.11,1.9-10,2.48-2.86.09-1.94-1.44-4.3-1.55s-2.93.38-3.58.93v.92l-1.08-.15-.35.47c-3.75-1.17-6.18-.23-10-.62a6.2,6.2,0,0,0,2.86-1.24c-.25-.41-1.26-.49-1.43-.93-2.25-.05-2.46.79-2.87,1.55-4.62-1.22-16.17,2.89-15.75-2.48,3.58-1.47,11.15-.11,12.89-2.8-1.2-.51-3.45-.57-4.3-1.23-4.5,2.91-13.22,5.64-24.35,4.65-2.35.43-2.27,1.91-6.45,1.55-.3-.65.49-.82.72-1.24-5.71-.28-6,.75-7.17,1.86a10,10,0,0,1-3.58-.31c-2.54.55-5.58.89-6.45,2.17h-3.57c-1.39,1.43-10,1.17-7.17,3.41l.36.31.36.31c-5.5.51-11.05,1-12.18,3.41-5.07-.44-4.19,1.7-7.88,1.85,1.67,1.49-1.81,1.66-2.86,2.18-.35.17-.07,1.21-.72,1.55-.37.18-1.89.07-2.15.31s.88,1.23.72,1.54c-.32.62-3,1.66-3.59,2.8-4.76-.71-10.08-.17-15-1.24-1.45,1.94-6.52,0-10.74.31v-3.72c-1.63-1-4.52-1.35-6.45-2.17.78-1.63.44-2.35-.72-3.72,3.66.86,6.05.37,8.6,1.55q3.48-.36,4.3-1.86c-.42-1-4.57-1.52-2.87-2.48-5.72,1-11.49-1.25-10-3.41-.57-1-3.68-.89-5-1.55.27-2.17-2.44-2.57-2.15-4,1.33-1.5,9.48-2.28,12.89-.93.75-1.14-.89-4,2.87-4.65-.71-1.51-4.45-4.47-.72-5.89-.58-1.3-3.33-1.66-6.44-1.86-1-3.38-.63-5.1,1.43-7.76-6.07-4.37-1.35-10.15-2.87-14.26,1.31-.46,1.69-1.33,2.87-1.86-.43-3.8,3.75-5.61,4.3-9-12.17-2.58-4.62-9.85,6.44-10.85,2.5-2.28,1.94-3.92-1.43-6.19.84-.06.61-.57.72-.94,3.8.15,3.47-1.59,5-2.17s4.56-.28,6.45-1.55a1.16,1.16,0,0,1-.72-1.24c5.85,2.09,11.58-.8,15.76-2.17,3.75-.28,2.7,1.52,6.45,1.24,3.78-.74,4.89-2.63,7.16-4,8.6.69,11.2-3.25,17.91-4.34-.77-1.57,1.32-1.91,2.86-2.48,2,.07,2,1,3.58,1.24,4.91-1.91,19.9-1.9,26.51-.31,2.88.22,1.76-1.3,4.3-1.24,3.81,2.47,8.67-1.52,13.61-1.55,3,1.37,5.75,1,11.46.93,2.38,1.45,6.53,2.13,8.59,3.72-.83,1-1.34,3.38,0,4.34l.36.47.36.47a6.37,6.37,0,0,0-3.58,2.78c2.31,2,9.07,2.07,7.88,5.58.6,1,3.69.89,4.3,1.86,1.48-1.1,5-1.37,7.16-2.48,1.05-.54.42-1.63,1.43-2.17,2.67-1.42,12.48-2.74,18.63-1.54l-.36.46,1.07.15c-1.34.87-3.09,1.56-4.3,2.48,2.6,1,4.09-1.11,6.45-1.24,2.91,0,3.46,1,6.45.94,4,0,4-1.8,5-3.11,4.75-.73,7.58-2.29,9.31-4.34,2.19.23,2.61-.31,4.3-.31a5.23,5.23,0,0,1,1.43,1.86c6.61-.16,12.16,1.41,16.48,1.24a4,4,0,0,0,1.43-3.72,40.11,40.11,0,0,0,18.63,1.56c2.2-.91,3.35-2.27,8.59-1.87l-.36.47,1.08.15c.3,1.92,8.38.56,1.43.31l.36-.46-.36-.47a19.1,19.1,0,0,0,5-.92c-.65-.55-1.33-1.08-3.58-.94-.63-1,2.36-.42,2.15-1.24.38-1.11-3.51-2,.71-2.17-.44-.84-3-.77-2.86-1.86l1.08.16-.36-.47c3.56.1,4.65-.88,4.3-2.48,5.12-.54,9.59-1,14.32-1.54,3.09.36,9.2,1.75,12.9,2.17a22,22,0,0,1,2.86-.32c.71.06,2.71.9,3.58.93,2.08.08,7,.43,10,1.55,2.81,1,1.67.46,5.73.62.9,0,2.42.33,5.73.62s8.08.57,11.46,1.55c.62.18,1,1.14,2.15,1.55,2.48.92,4.86,1,6.45,2.79,3.31.12,4.06,1.35,7.16,1.55-.12.36.16.56.72.62v1.86c.85,1.28,7.5,1.19,7.88.93,2,1.76,3.29,3.42,5.73,5.58,5.38-.71,8,1.8,12.89-.31.63-.64-2.36-1.17-2.15-.62.35-.44.7-3.53-3.58-3.71,2.45-1.19,5-.45,7.16-1.56,2.9.3,4.89,1,8.6.93-.33-3.51,15.8-2.41,20.77-4.65-1.44-.73-1.89-2.07-.71-3.1,6.16,0,7.52.75,13.6.31,1.87.54,1.46,2.06,1.44,3.41-7.26,1.82-15.08,3.4-18.63,6.83,2.87,1,3.11,1,6.45.3,1.85-.07-1-.53,0-1.24,3-1.48,13.47-.7,16.47-1.23-.14-1.48,2.35-2.39,5-3.42-1.86-1.32.83-3,.72-3.72,2,0,4.91.27,5-.62-.14-.25-.72-.31-.72-.62l1.08-.15-.36-.47c5.84-.15,10.85.06,12.89,1.55a4.93,4.93,0,0,0,3.58-3.09c5.61.39,6.13.9,11.47.3-2.76,1.19-2.4,3.72-5.73,4.65-.22.72,2.06.35,2.14.93l-.36.47,1.08.16c-4.76.83-6.11,3.13-6.45,5.88,4.57,1.76,10.2-.52,12.9-1.55,1.11-1.1-2.44-.18-2.15-.93,1.95-1.24,6.07-2.63,2.86-4.34,1.91,0,1.83-.86,2.87-1.23.76-1.16-2.69-.5-2.15-1.56,4,.29,3.3-1.46,6.45-1.55-.88-.86-4.4-.57-7.17-.62l.36-.46-1.07-.15c.27-1,2.09-1.37,2.86-2.18,5.85.35,10.88-2.07,13.61-.31l-1.07.16.35.46c1.49,2,11.77,2,15.76.93,3.23.87,7,.46,10.75,0-1.25-2.19,3.35-1.85,5-2.79.38-1.3-2.41-1.23-4.3-1.55l.36-.46-.36-.47a34,34,0,0,1,7.89-.61c.61-1-1.13-1-1.44-1.56l1.07-.36-.35-.57c8.2.48,11.23,3.2,18.62,4l-.35.47.35.46c-4,.74-11.42-1.24-14.32.93.67,1,3.49,1.18,3.58,2.48a128.84,128.84,0,0,0,14.33,0v-2.79c-.84.05-1.28-.07-1.44-.31l1.07-.36-.35-.57c2,0,1.31-1.29,1.43-2.17,6.91-.4,7.74,1.82,12.89,2.17l.84.47,1.31-.15v.3a29.82,29.82,0,0,0,5.73-1.24c9.59-.21,7.91,4.38,20.06,3.72.12,3.25,7.4,2.06,10.74,1.24,4.34,1,14.77,3.54,14.33-.93a65.76,65.76,0,0,0,6.45-1.55c1.79-.25,2.53.81,4.29.93s5.45-.84,9.31-.93,6.81.88,9.32-.31c1.49-.08.19-1.36,1.43-1.55,3.52-.07,4.53.93,6.44,1.55,7.39-1.84,11.55,1.11,20.06.62l-.35.57,1.07.36c-3.62.54-6.53,1.85-10.75,1.24-1.68.1-1.6,1-2.86,1.24,1.51,1.74,7.84,1.71,12.89.93,0,.62,2,.4,1.43,1.24h.72l-.36.57,1.08.37c-1.28.78-3.08,1.35-3.58,2.47-4.93-1-12.69-4.33-17.19-.93-.34.67,1,.59,2.15.62-1.9.42-4.6.49-5.74,1.24,1,1.58,4.22,2.08,6.45,2.17,6,.25,11.28-3,17.19-2.17-.37.46-1.06.78-1.43,1.25,2.23.58,4.95,1,5,2.47,7.89,1.26,12.52-.17,15-2.79a10.53,10.53,0,0,0,6.44-1.86c-.69-2.3-2.18-2.77-2.15-5l1.08.16Zm63,3.72c2,1.17,5.94.32,8.6,0-.43,1.15-1.18,1.8.72,2.48,7.41-.51,7.65-2.76,5-5.58C-2985.38-1240.67-2991.74-1239.8-2993-1236.76Zm-250.7.31c-2.65.29-6.09-.57-7.16.62-2,2.75,2.87,4.86,7.87,5.58,3-2.09,8.85-3,10.75-5.58-.56-.06-.83-.25-.71-.62C-3237.25-1238.25-3240.38-1236.8-3243.7-1236.45Zm45.13,4.34c3.54.85,9.21,1.11,10-.92-2-.3-3.06-1-5-1.25-2.35.44-1.19,1-2.15,1.55-3.21.84-11.42-.78-15.76.62,3.58,1.86,2.51,2.22,2.51,2.22l.36.57c-7.38-2-14.83-3.43-18.62-2.17,1.31,1.08.13,1.32-.72,2.17,1.1.77,5.05.3,4.3,1.86a11.34,11.34,0,0,1,5.73,1.24c1.24-1.12,7.07.21,10.74,0,.73-1.27.32-1.24.72-2.79-2.15-.31-1.08-.67-1.08-.67l-.36-.57S-3201.4-1230.93-3198.57-1232.11Zm-382.51,11.78c1.94.68,1.78.35,4.3.62.31-.59,1.54-.77,1.43-1.54C-3577.47-1222.16-3580.15-1221.92-3581.08-1220.33Zm1152.54,2.8c-1.32,1.3-.18,3.83-.72,4.64,1.84.86,4.35,1.43,5.73,2.48-.53,2.39,4.62,4,6.44,5.89s1.12,4.31,6.45,5a6.2,6.2,0,0,0,5-2.49c-4-2.85-12-6.43-8.59-10.53-2.3-1.49-8.27-1.39-10.75-2.79a5.93,5.93,0,0,0,.72-2.8c-2.84-.52-4.08-1.74-6.45-2.48C-2432.11-1219.21-2430.42-1218.81-2428.54-1217.53Zm65.18-.63c2,4.22,0,9.6,15,9.3,2.6-2.72-4.19-5.5-2.87-9.61C-2354.74-1219.44-2359-1218.52-2363.36-1218.16Zm-116.76,42.79c4,.43,4.15,2.54,8.59,2.78,1-.77-2.83-1-.71-1.23,3.79-1.46,9-2.29,10.74-4.66C-2467.74-1180.78-2480.38-1179.2-2480.12-1175.37Zm-1109.55,8.68c-.6.87,1,.8.71,1.55,4.32,0,6.31.52,7.88-.93A21.06,21.06,0,0,0-3589.67-1166.69Zm-21.49,2.17c.64,1.16,3.72,1.28,7.16,1.24-.13-1.17-1.29-1.42-1.43-1.86C-3606-1164.38-3610.42-1165.24-3611.16-1164.52Zm676.19,3.41c-.72,0-.86-.26-1.43-.31C-2938.36-1160.93-2935.36-1160.38-2935-1161.11Zm160.45,1.55c1.27,2.7,6.87,1.63,10,3.41,1.15-.54,3.23-.67,5.74-.62-1.83.88,5.51,1.23,7.16.62.57-1.08-.79-1.31-1.43-1.86-5.46.1-12.67,1.1-13.61-1.86C-2770-1160.1-2771.57-1159.53-2774.52-1159.56Zm161.88,9c1.37-1.33,4.14-.12,5-1.55-1.82-.45-4.57-.51-4.3-1.86a24.74,24.74,0,0,0,6.45-.62c-.1-.77-.11-1.5.71-1.86-2.1.08-2.2-.7-4.3-.62.72,1-1,1-2.86.93-1-2.29-5.3-2-8.6-2.17,0,.42.34.68.72.93-1.73-1.06-5.86-.55-7.88,0,.39.45-.84,1.6.72,1.55C-2624.82-1155.27-2618.12-1151.72-2612.64-1150.57Zm-390.38-5c.21-.2,1.78-1.2,0-1.24.11.41-2.91.93-.72,1.24l-.36.57,1.08.36c-.48,1-2.23,1.51-2.87,2.48.88.13,1.47.39,1.43.93,3.09.2,4-.54,5.74-.93-4.3-2.48-4-3-4-3Zm627.48,3.72c.15-1.28,4.46-.76,5-1.86C-2372.89-1156-2380.08-1153.26-2375.54-1151.81Zm-1054.4,1.24h4.3c1.14-.74,1.76-1.48,0-2.17C-3427.11-1152.79-3430.69-1152.38-3429.94-1150.57Zm823,4c-1-.61-.69-1.77-1.44-2.48-5.47.62-10.15.23-13.61,1.24-.51,1.15,1.22,1.33.72,2.48a90.82,90.82,0,0,1,14.33-.62l.71.15.72.16c2.12.21,3.53.37,4.29,0-1.49-.18-2-.77-4.29-.62l-.36-.47Zm-809.43,3.1c-3.16-1.51-7.76-5.66-12.18-2.17,2.15.51,5.37.57,6.45,1.55-2.21,2.2,2.29,3.6,5,4.65.16-.25.6-.36,1.44-.31C-3415.62-1141.59-3417.71-1141.56-3416.33-1143.44Z" transform="translate(3748 1266)"/></g></g></svg>