<?xml version="1.0" encoding="utf-8"?>
<!-- Generator: Adobe Illustrator 19.2.1, SVG Export Plug-In . SVG Version: 6.00 Build 0)  -->
<svg version="1.1" id="Layer_1" xmlns="http://www.w3.org/2000/svg" xmlns:xlink="http://www.w3.org/1999/xlink" x="0px" y="0px"
	 viewBox="0 0 106 106" style="enable-background:new 0 0 106 106;" xml:space="preserve">
<style type="text/css">
	.st0{fill:#FFFFFF;}
	.st1{fill:#4185B5;}
</style>
<title>hey2</title>
<g>
	<rect x="2" y="2" class="st0" width="102" height="102"/>
	<path class="st1" d="M102,4v98H4V4H102 M106,0H0v106h106V0L106,0z"/>
</g>
<g>
	
		<ellipse transform="matrix(0.9998 -1.762691e-002 1.762691e-002 0.9998 -1.453 0.9497)" class="st1" cx="53.1" cy="82.9" rx="7.6" ry="7.6"/>
	<path class="st1" d="M52,15.5c-3.8,0.1-6.8,3.2-6.7,7l0.6,37.7c0.1,3.8,3.2,6.8,7,6.8c3.8-0.1,6.8-3.2,6.8-4L59,25.3
		C59,18.5,55.8,15.4,52,15.5z"/>
</g>
</svg>
