<svg width="1920" height="455" viewBox="0 0 1920 455" fill="none" xmlns="http://www.w3.org/2000/svg">
<path d="M1366.19 212.045C1420.19 227.729 1483.27 222.078 1542.89 216.521C1592.48 211.89 1640.89 202.506 1685.34 188.12C1760 163.998 1821.59 126.355 1865 81.8814C1885.89 60.473 1920 26.0389 1920 0V455H0.5C0.5 384.036 1.22 313.054 0 242.096C12.06 259.9 34.46 268.184 58.85 278.249C77.26 282.527 53.53 252.432 72.48 248.13C96.29 242.726 88.57 271.912 90.48 278.589C95.48 296.442 119.33 295.806 121.55 278.187C123.64 261.619 144.72 255.047 169.16 254.794C193.76 254.54 210.34 268.586 233.9 271.22C252 273.247 291.17 272.159 291.5 256.247C292 232.446 324.5 238.937 331 261.81C343 292.412 361.5 257.174 360 238.937C369 221.009 379.5 249.446 385 268.92C390.5 288.393 399 257.792 400.5 249.446C402 241.101 424.94 240.791 426.5 249.415C427.27 253.7 428.08 265.643 436.87 267.628C458.87 272.573 443.22 250.207 450.51 249.44C449.68 239.858 454.34 229.719 471.02 227.185C502.02 222.486 552.19 276.159 568.72 289.624C593.05 309.406 618.07 331.093 641.52 352.112C665.88 373.947 682.39 394.725 723 405.822C789.88 424.102 851.46 404.647 887.09 367.604C908.76 345.083 923.35 320.089 936.21 295.225C954.68 259.523 962.41 229.886 1002.28 200.33C1035.5 175.707 1078.39 154.799 1130.93 149.829C1206.34 142.694 1276.65 169.098 1331.62 198.228C1342.08 203.781 1353.71 208.43 1366.19 212.045Z" fill="white"/>
</svg>
