<svg xmlns="http://www.w3.org/2000/svg" viewBox="0 0 28 28"><defs><style>.cls-1{fill:#fff;}</style></defs><title>about</title><g id="Layer_2" data-name="Layer 2"><g id="dashboard"><path id="stats" class="cls-1" d="M14,0A14,14,0,1,0,28,14,14,14,0,0,0,14,0Zm0,2.75A11.16,11.16,0,0,1,25.11,12.6H19.85a.69.69,0,0,0-.51.21l-1.87,2a.7.7,0,0,1-1.11-.13l-2.66-4.6h0l-.54-.93A1.4,1.4,0,0,0,11,8.82l-.69.69v0l-2.91,2.9a.78.78,0,0,1-.5.21h-4A11.16,11.16,0,0,1,14,2.75Zm0,22.42A11.19,11.19,0,0,1,2.91,15.44H8.06a.71.71,0,0,0,.49-.21l2.57-2.57a.7.7,0,0,1,1.1.14l3.23,5.52a1.4,1.4,0,0,0,2.2.28l3-3a.71.71,0,0,1,.5-.19h3.93A11.13,11.13,0,0,1,14,25.17Z"/></g></g></svg>