<svg xmlns="http://www.w3.org/2000/svg" viewBox="0 0 16 16"><defs><style>.cls-1{fill:#fff;}</style></defs><title>dashboard</title><g id="Layer_2" data-name="Layer 2"><g id="dashboard"><path id="gallery_grid_view" class="cls-1" d="M5.6,0h-4A1.6,1.6,0,0,0,0,1.6V8A1.6,1.6,0,0,0,1.6,9.6h4A1.6,1.6,0,0,0,7.2,8V1.6A1.6,1.6,0,0,0,5.6,0Zm0,7.2a.8.8,0,0,1-.8.8H2.4a.8.8,0,0,1-.8-.8V2.4a.8.8,0,0,1,.8-.8H4.8a.8.8,0,0,1,.8.8Zm8.8-.8h-4A1.6,1.6,0,0,0,8.8,8v6.4A1.6,1.6,0,0,0,10.4,16h4A1.6,1.6,0,0,0,16,14.4V8A1.6,1.6,0,0,0,14.4,6.4Zm0,7.2a.8.8,0,0,1-.8.8H11.2a.8.8,0,0,1-.8-.8V8.8a.8.8,0,0,1,.8-.8h2.4a.8.8,0,0,1,.8.8ZM14.4,0h-4A1.6,1.6,0,0,0,8.8,1.6V3.2a1.6,1.6,0,0,0,1.6,1.6h4A1.6,1.6,0,0,0,16,3.2V1.6A1.6,1.6,0,0,0,14.4,0Zm-.8,3.2H11.2a.8.8,0,0,1,0-1.6h2.4a.8.8,0,0,1,0,1.6Zm-8,8h-4A1.6,1.6,0,0,0,0,12.8v1.6A1.6,1.6,0,0,0,1.6,16h4a1.6,1.6,0,0,0,1.6-1.6V12.8A1.6,1.6,0,0,0,5.6,11.2Zm-.8,3.2H2.4a.8.8,0,0,1,0-1.6H4.8a.8.8,0,1,1,0,1.6Z"/></g></g></svg>