<svg xmlns="http://www.w3.org/2000/svg" viewBox="0 0 28 27.99"><defs><style>.cls-1{fill:#fff;}</style></defs><title>graph</title><g id="Layer_2" data-name="Layer 2"><g id="dashboard"><path id="chart" class="cls-1" d="M12.44,12.44V3.11A12.45,12.45,0,0,0,10,27.76c8.33,1.62,14.94-5.46,14.94-12.2H15.56A3.12,3.12,0,0,1,12.44,12.44ZM10.54,24.7A9.21,9.21,0,0,1,3.3,17.46a10,10,0,0,1,6-11v5.95a6.23,6.23,0,0,0,6.23,6.23h5.68C19.92,21.89,15.93,25.75,10.54,24.7Zm8.13-12.26H28A12.44,12.44,0,0,0,15.56,0V9.33A3.11,3.11,0,0,0,18.67,12.44Zm0-9.06a9.85,9.85,0,0,1,5.69,6H18.67Z"/></g></g></svg>