<svg xmlns="http://www.w3.org/2000/svg" viewBox="0 0 298.5 298.5"><defs><style>.cls-1{fill:#01cafa;}</style></defs><title>image</title><g id="Layer_2" data-name="Layer 2"><g id="Layer_6" data-name="Layer 6"><path id="images" class="cls-1" d="M298.5,0V238.8H268.65V29.85H59.7V0ZM0,59.7H238.8V298.5H0Zm187.84,209-43.29-43.3-43.3,43.3Zm-158-116.91,23.56-23.55.23.23.24-.23L123,197.27l21.35-21.35.24.23.24-.23L209,240.08V89.55H29.85Zm0,116.91H59l42.82-46.55L53.64,170.16,29.85,194ZM165.42,159.2a29.85,29.85,0,1,0-29.85-29.85A29.84,29.84,0,0,0,165.42,159.2Z"/></g></g></svg>