<svg xmlns="http://www.w3.org/2000/svg" xmlns:xlink="http://www.w3.org/1999/xlink" viewBox="0 0 300 305.83"><defs><style>.cls-1{fill:url(#linear-gradient);}.cls-2{fill:url(#linear-gradient-2);}.cls-3{fill:#fff;}.cls-4{fill:url(#linear-gradient-3);}</style><linearGradient id="linear-gradient" x1="255.85" y1="21.81" x2="300" y2="21.81" gradientUnits="userSpaceOnUse"><stop offset="0" stop-color="#fff"/><stop offset="1" stop-color="#ccc"/></linearGradient><linearGradient id="linear-gradient-2" x1="86.04" y1="112.73" x2="0" y2="112.73" xlink:href="#linear-gradient"/><linearGradient id="linear-gradient-3" x1="224.23" y1="125.04" x2="139.07" y2="125.04" xlink:href="#linear-gradient"/></defs><title>logo</title><g id="Layer_2" data-name="Layer 2"><g id="Layer_2-2" data-name="Layer 2"><path class="cls-1" d="M298.61,15.64Q292.52,0,277.75,0a18.2,18.2,0,0,0-6.26,1.22q-15.63,6.44-15.64,21a27.53,27.53,0,0,1,.87,4.52Q263,43.63,277.23,43.63h4.17Q300,37.72,300,21.9A18.08,18.08,0,0,0,298.61,15.64Z"/><path class="cls-2" d="M85.69,152.43,43.28,16.51Q37,0,21.9,0a26.85,26.85,0,0,0-6.6,1.22Q0,8.17,0,21.9l.35,1.91Q4.52,40,61.88,222.13c.22,1.15.47,2.25.73,3.32l23.43-73Z"/><path class="cls-3" d="M171.38,17.38Q165.29,0,150.35,0q-11.21,0-18.77,10.48l-28.87,90q-15.78,51.06-16.67,52h0l-23.43,73q5.85,23.79,23.43,23.8,10.24,0,18.6-10.26,3.15-7.37,34.43-108.74L172.61,21.34C172.2,20,171.8,18.72,171.38,17.38Z"/><path class="cls-4" d="M214.31,152.78h-.52q-.69-1.54-41.18-131.44L139.07,130.25q4.88-15.77,10.41-33.78h.87q37.89,121.67,38.76,123.58a78.7,78.7,0,0,0,2.26,8.69l32.86-108.82Q220.47,131.68,214.31,152.78Z"/><path class="cls-3" d="M247.16,95.94q-9.9,0-18.07,10.43a131.54,131.54,0,0,0-4.86,13.55L191.37,228.74q6.65,20.47,22.07,20.51,12.34,0,20.16-12,35.81-115,35.81-119.06a44.75,44.75,0,0,0-1.56-8.17Q260.2,96,247.16,95.94Z"/><path class="cls-3" d="M50.82,276.7a2.57,2.57,0,0,1,1.83,2.47,1.84,1.84,0,0,0-.1.53,2.55,2.55,0,0,1-2.43,2h-.47a2.62,2.62,0,0,1-2.18-2.55,2.71,2.71,0,0,1,2.61-2.57A2.39,2.39,0,0,1,50.82,276.7Zm30.08,0a2.62,2.62,0,0,1,1.8,2.43l-.06.23q-.49,1.89-7.21,23.28-.63,3.19-2.86,3.19a2.78,2.78,0,0,1-2.18-1.21q-.44-1-5.27-16.73H65q-4.44,14.28-4.53,14.51c-.47,2.29-1.43,3.43-2.86,3.43a2.7,2.7,0,0,1-2.36-1.41Q51,290.91,51,290.44a4.65,4.65,0,0,1,.21-1,2.65,2.65,0,0,1,2.4-1.65,2.76,2.76,0,0,1,2.15,1.22q.35.75,1.73,5.45h0q.1-.18,5-15.9a2.54,2.54,0,0,1,2.45-2A2.69,2.69,0,0,1,67.35,278L69,283.23q3.39,11.08,3.53,11.23h.07l5-16a2.57,2.57,0,0,1,2.51-1.94A3.41,3.41,0,0,1,80.9,276.7Z"/><path class="cls-3" d="M113.29,300.68a2.59,2.59,0,0,1,2,2.45c0,.05,0,.25,0,.59a2.69,2.69,0,0,1-2.59,2.1,3.2,3.2,0,0,1-1.08-.29,2.66,2.66,0,0,1-1.52-2.34,6.43,6.43,0,0,1,.21-.84,2.55,2.55,0,0,1,2.39-1.75A3.29,3.29,0,0,1,113.29,300.68Zm13.06-23q.5.93,10.37,21.47a15.8,15.8,0,0,1,1.71,4.1l-.14.69a2.61,2.61,0,0,1-2.45,1.9,2.75,2.75,0,0,1-2-.94q-.65-1-9.49-19.59h-.1q-.23.34-3.47,7.33c-.65,1.82-1.6,2.73-2.84,2.73a4.39,4.39,0,0,1-.55,0c-1.4-.48-2.1-1.29-2.1-2.45v-.2a1.09,1.09,0,0,1,.1-.53q0-.37,5.78-12.37c.7-2.12,1.73-3.19,3.08-3.19A2.87,2.87,0,0,1,126.35,277.66Z"/><path class="cls-3" d="M173.54,276.74a2.54,2.54,0,0,1,1.85,2.41v.14a2.17,2.17,0,0,1-.14.74,2.6,2.6,0,0,1-2.41,1.79,2.12,2.12,0,0,1-.73-.14,2.51,2.51,0,0,1-1.76-3.26,2.62,2.62,0,0,1,2.45-1.82A2.47,2.47,0,0,1,173.54,276.74Zm21.37.1a2.67,2.67,0,0,1,1.71,2.45,3.66,3.66,0,0,1-.14.63q0,.27-10.23,23.15-.85,2.73-2.88,2.73a3,3,0,0,1-2.06-1.08Q180.92,304,176,293a23.06,23.06,0,0,1-2-4.94v-.15a2,2,0,0,1,.14-.73,2.61,2.61,0,0,1,2.45-1.82,2.83,2.83,0,0,1,2,1q.33.39,4.69,10.33h.11q.14-.23,7.69-17.18c.6-1.89,1.56-2.84,2.88-2.84A5.8,5.8,0,0,1,194.91,276.84Z"/><path class="cls-3" d="M250.53,276.68a2.6,2.6,0,0,1,2,2.45,4.69,4.69,0,0,1-.08.78,2.74,2.74,0,0,1-2.76,1.9H235.51a4.45,4.45,0,0,1-1.23-.19,2.75,2.75,0,0,1-1.65-2.45l.21-.87a2.68,2.68,0,0,1,2.67-1.72h14.14A5,5,0,0,1,250.53,276.68Zm-14.47,12.09a2.58,2.58,0,0,1,1.8,2.38,4.24,4.24,0,0,1-.09.7,2.6,2.6,0,0,1-2.44,2h-.07a3.68,3.68,0,0,1-.73-.11,2.68,2.68,0,0,1-1.9-2.51l.1-.57a2.6,2.6,0,0,1,2.53-2h.07A2,2,0,0,1,236.06,288.77Zm14.47,11.92a2.55,2.55,0,0,1,2,2.44,6.13,6.13,0,0,1,0,.64,2.76,2.76,0,0,1-2.84,2.06H235.51a3.28,3.28,0,0,1-1.17-.21,2.65,2.65,0,0,1-1.71-2.42,3.93,3.93,0,0,0,.1-.49,2.61,2.61,0,0,1,2.78-2.11h14.18A3.73,3.73,0,0,1,250.53,300.69Zm0-12a2.58,2.58,0,0,1,2,2.49v.11a2.39,2.39,0,0,1-.14.73,2.52,2.52,0,0,1-2.45,1.82h-7.33a3.35,3.35,0,0,1-.55-.06,2.56,2.56,0,0,1-2-2.45v-.19a2.24,2.24,0,0,1,.14-.73,2.56,2.56,0,0,1,2.45-1.78h7.33A3.46,3.46,0,0,1,250.49,288.66Z"/></g></g></svg>