<svg xmlns="http://www.w3.org/2000/svg" xmlns:xlink="http://www.w3.org/1999/xlink" viewBox="0 0 600 600"><defs><style>.cls-1{fill:#fff;}.cls-2{fill:url(#linear-gradient);}.cls-3{fill:url(#linear-gradient-2);}.cls-4{fill:#74efff;}.cls-5{fill:url(#linear-gradient-3);}.cls-6{fill:#01a8f4;}</style><linearGradient id="linear-gradient" x1="403.85" y1="168.9" x2="448" y2="168.9" gradientUnits="userSpaceOnUse"><stop offset="0" stop-color="#74efff"/><stop offset="1" stop-color="#55c4ff"/></linearGradient><linearGradient id="linear-gradient-2" x1="234.04" y1="259.81" x2="148" y2="259.81" xlink:href="#linear-gradient"/><linearGradient id="linear-gradient-3" x1="372.23" y1="272.13" x2="287.07" y2="272.13" xlink:href="#linear-gradient"/></defs><title>logo2</title><g id="Layer_2" data-name="Layer 2"><g id="Layer_2-2" data-name="Layer 2"><rect class="cls-1" width="600" height="600"/><path class="cls-2" d="M446.61,162.73q-6.09-15.64-20.86-15.64a18.18,18.18,0,0,0-6.26,1.21q-15.63,6.44-15.64,21a27.78,27.78,0,0,1,.87,4.52q6.25,16.86,20.51,16.86h4.17Q448,184.82,448,169A18,18,0,0,0,446.61,162.73Z"/><path class="cls-3" d="M233.69,299.52,191.28,163.6Q185,147.09,169.9,147.09a26.73,26.73,0,0,0-6.6,1.21Q148,155.26,148,169l.35,1.91q4.17,16.15,61.53,198.32c.22,1.14.47,2.25.73,3.32l23.43-73Z"/><path class="cls-4" d="M319.38,164.47q-6.09-17.39-21-17.38-11.21,0-18.77,10.47l-28.87,90q-15.78,51.07-16.67,52h0l-23.43,73q5.85,23.79,23.43,23.79,10.25,0,18.6-10.25,3.15-7.36,34.43-108.74l33.54-108.91C320.2,167.11,319.8,165.81,319.38,164.47Z"/><path class="cls-5" d="M362.31,299.87h-.52q-.69-1.55-41.18-131.44L287.07,277.34q4.88-15.76,10.41-33.79h.87q37.89,121.68,38.76,123.58a78.12,78.12,0,0,0,2.26,8.69L372.23,267Q368.47,278.77,362.31,299.87Z"/><path class="cls-4" d="M395.16,243q-9.9,0-18.07,10.43A130.6,130.6,0,0,0,372.23,267L339.37,375.82q6.64,20.49,22.07,20.51,12.35,0,20.16-12,35.81-115.06,35.81-119.06a44.75,44.75,0,0,0-1.56-8.17Q408.2,243,395.16,243Z"/><path class="cls-6" d="M198.82,423.79a2.56,2.56,0,0,1,1.83,2.47,1.76,1.76,0,0,0-.1.53,2.55,2.55,0,0,1-2.43,2h-.47a2.62,2.62,0,0,1-2.18-2.55,2.56,2.56,0,0,1,.14-.74,2.52,2.52,0,0,1,2.47-1.83A2.13,2.13,0,0,1,198.82,423.79Zm30.08,0a2.6,2.6,0,0,1,1.8,2.43l-.06.22q-.49,1.9-7.21,23.29-.63,3.18-2.86,3.18a2.8,2.8,0,0,1-2.18-1.2q-.44-1-5.27-16.74H213q-4.44,14.29-4.53,14.52c-.47,2.28-1.43,3.42-2.86,3.42a2.71,2.71,0,0,1-2.36-1.4Q199,438,199,437.53a4.65,4.65,0,0,1,.21-1,2.65,2.65,0,0,1,2.4-1.66,2.78,2.78,0,0,1,2.15,1.23q.34.75,1.73,5.45h0q.1-.19,5-15.9a2.54,2.54,0,0,1,2.45-2,2.69,2.69,0,0,1,2.33,1.41l1.69,5.26q3.39,11.08,3.53,11.23h.07l5-16a2.56,2.56,0,0,1,2.51-1.94A2.92,2.92,0,0,1,228.9,423.79Z"/><path class="cls-6" d="M261.29,447.76a2.6,2.6,0,0,1,2,2.45c0,.06,0,.25,0,.59a2.69,2.69,0,0,1-2.59,2.11,3.47,3.47,0,0,1-1.08-.29,2.68,2.68,0,0,1-1.52-2.35,6.74,6.74,0,0,1,.21-.83,2.56,2.56,0,0,1,2.39-1.76A4.4,4.4,0,0,1,261.29,447.76Zm13.06-23q.5.94,10.37,21.47a16,16,0,0,1,1.71,4.1l-.14.7a2.62,2.62,0,0,1-2.45,1.9,2.78,2.78,0,0,1-2-.94q-.64-1-9.49-19.6h-.1q-.22.36-3.47,7.33c-.65,1.82-1.6,2.74-2.84,2.74l-.55,0c-1.4-.48-2.1-1.3-2.1-2.45v-.21a1.11,1.11,0,0,1,.1-.53q0-.36,5.78-12.37,1.05-3.18,3.08-3.18A2.89,2.89,0,0,1,274.35,424.74Z"/><path class="cls-6" d="M321.54,423.83a2.53,2.53,0,0,1,1.85,2.41v.14a2.08,2.08,0,0,1-.14.73,2.6,2.6,0,0,1-2.41,1.8,2.39,2.39,0,0,1-.73-.14,2.49,2.49,0,0,1-1.9-2.39,2.58,2.58,0,0,1,.14-.88,2.63,2.63,0,0,1,2.45-1.82A2.41,2.41,0,0,1,321.54,423.83Zm21.37.1a2.67,2.67,0,0,1,1.71,2.45,3.66,3.66,0,0,1-.14.63q0,.27-10.23,23.15-.86,2.73-2.88,2.73a3,3,0,0,1-2.06-1.08q-.39-.68-5.28-11.74a22.84,22.84,0,0,1-2-4.94V435a2,2,0,0,1,.14-.73,2.61,2.61,0,0,1,2.45-1.82,2.83,2.83,0,0,1,2,1q.33.39,4.69,10.33h.11q.13-.22,7.69-17.19c.6-1.89,1.56-2.84,2.88-2.84A5.83,5.83,0,0,1,342.91,423.93Z"/><path class="cls-6" d="M398.53,423.77a2.59,2.59,0,0,1,2,2.45,4.48,4.48,0,0,1-.08.77,2.73,2.73,0,0,1-2.76,1.9H383.51a4.81,4.81,0,0,1-1.23-.18,2.75,2.75,0,0,1-1.65-2.45l.21-.88a2.69,2.69,0,0,1,2.67-1.71h14.14A4.23,4.23,0,0,1,398.53,423.77Zm-14.47,12.08a2.59,2.59,0,0,1,1.8,2.39,4,4,0,0,1-.09.69,2.59,2.59,0,0,1-2.44,2h-.07a3.52,3.52,0,0,1-.73-.1,2.69,2.69,0,0,1-1.9-2.51l.1-.57a2.59,2.59,0,0,1,2.53-2h.07A2,2,0,0,1,384.06,435.85Zm14.47,11.92a2.57,2.57,0,0,1,2,2.45,5.83,5.83,0,0,1,0,.63,2.75,2.75,0,0,1-2.84,2.06H383.51a3.27,3.27,0,0,1-1.17-.2,2.65,2.65,0,0,1-1.71-2.43,3.23,3.23,0,0,0,.1-.49,2.61,2.61,0,0,1,2.78-2.1h14.18A4.44,4.44,0,0,1,398.53,447.77Zm0-12a2.58,2.58,0,0,1,2,2.49v.1a2.39,2.39,0,0,1-.14.74,2.51,2.51,0,0,1-2.45,1.81h-7.33a3.35,3.35,0,0,1-.55-.06,2.55,2.55,0,0,1-2-2.45v-.18a2.29,2.29,0,0,1,.14-.74,2.55,2.55,0,0,1,2.45-1.77h7.33A3.46,3.46,0,0,1,398.49,435.75Z"/></g></g></svg>