<svg xmlns="http://www.w3.org/2000/svg" viewBox="0 0 28 28"><defs><style>.cls-1{fill:#fff;}</style></defs><title>overview</title><g id="Layer_2" data-name="Layer 2"><g id="dashboard"><path id="stats" class="cls-1" d="M15.4,14H12.6a2.8,2.8,0,0,0-2.8,2.8v8.4A2.8,2.8,0,0,0,12.6,28h2.8a2.8,2.8,0,0,0,2.8-2.8V16.8A2.8,2.8,0,0,0,15.4,14Zm0,9.8a1.4,1.4,0,1,1-2.8,0V18.2a1.4,1.4,0,0,1,2.8,0ZM5.6,5.6H2.8A2.8,2.8,0,0,0,0,8.4V25.2A2.8,2.8,0,0,0,2.8,28H5.6a2.8,2.8,0,0,0,2.8-2.8V8.4A2.8,2.8,0,0,0,5.6,5.6Zm0,18.2a1.4,1.4,0,0,1-2.8,0V9.8a1.4,1.4,0,0,1,2.8,0ZM25.2,0H22.4a2.8,2.8,0,0,0-2.8,2.8V25.2A2.8,2.8,0,0,0,22.4,28h2.8A2.8,2.8,0,0,0,28,25.2V2.8A2.8,2.8,0,0,0,25.2,0Zm0,23.8a1.4,1.4,0,1,1-2.8,0V4.2a1.4,1.4,0,1,1,2.8,0Z"/></g></g></svg>