<svg xmlns="http://www.w3.org/2000/svg" xmlns:xlink="http://www.w3.org/1999/xlink" viewBox="0 0 533.74 300"><defs><style>.cls-1{fill:#68d7a5;}.cls-2,.cls-3{fill:#3fc689;}.cls-2{opacity:0.7;}.cls-4{fill:#1eba73;}.cls-5{fill:#00a75b;}.cls-6{opacity:0.1;fill:url(#linear-gradient);}</style><linearGradient id="linear-gradient" x1="266.87" y1="300" x2="266.87" gradientUnits="userSpaceOnUse"><stop offset="0"/><stop offset="1" stop-color="#65d6a3" stop-opacity="0"/></linearGradient></defs><title>Fichier 2</title><g id="Calque_2" data-name="Calque 2"><g id="home_screen" data-name="home screen"><g id="header"><rect class="cls-1" width="533.74" height="300"/><path class="cls-2" d="M.12,150.34s499.23,34.43,533.23,149.43H.35Z"/><rect class="cls-3" x="27.35" y="122.77" width="2" height="35"/><path class="cls-3" d="M36.35,133.31a8.25,8.25,0,0,1-8.5,8,8.25,8.25,0,0,1-8.5-8c0-4.41,3.81-35.08,8.5-35.08S36.35,128.91,36.35,133.31Z"/><rect class="cls-3" x="144.35" y="138.77" width="2" height="35"/><path class="cls-3" d="M153.35,149.31a8.52,8.52,0,0,1-17,0c0-4.41,3.81-35.08,8.5-35.08S153.35,144.91,153.35,149.31Z"/><rect class="cls-3" x="276.35" y="158.77" width="2" height="35"/><path class="cls-3" d="M285.35,169.31a8.52,8.52,0,0,1-17,0c0-4.41,3.81-35.08,8.5-35.08S285.35,164.91,285.35,169.31Z"/><path class="cls-3" d="M533.35,150.77v149H.11l.1-77.6c0-6.68,79.51-8,86.46-8.09C164.43,213,241.14,196.89,316,176.92c70.57-18.82,144.09-52.44,217.57-55"/><polygon class="cls-4" points="390.69 186.81 377.45 186.81 364.2 186.81 352.08 215.76 367.8 215.76 373.07 193.99 377.45 193.99 381.83 193.99 387.1 215.76 402.81 215.76 390.69 186.81"/><path class="cls-5" d="M402.81,217.56H387.1a1.8,1.8,0,0,1-1.75-1.38l-4.94-20.39h-5.93l-4.94,20.39a1.8,1.8,0,0,1-1.75,1.38H352.08a1.8,1.8,0,0,1-1.66-2.5l12.12-29A1.8,1.8,0,0,1,364.2,185h26.49a1.8,1.8,0,0,1,1.66,1.11l12.12,29a1.8,1.8,0,0,1-1.66,2.5ZM388.52,214H400.1l-10.61-25.35H365.4L354.79,214h11.58l4.94-20.39a1.8,1.8,0,0,1,1.75-1.38h8.76a1.8,1.8,0,0,1,1.75,1.38Z"/><path class="cls-1" d="M373.15,72.32h8.6a2.44,2.44,0,0,1,2.44,2.44v7.7a2.43,2.43,0,0,1-2.43,2.43h-8.6a2.43,2.43,0,0,1-2.43-2.43v-7.7a2.43,2.43,0,0,1,2.43-2.43Z"/><path class="cls-5" d="M381.75,86.69h-8.6a4.24,4.24,0,0,1-4.24-4.24v-7.7a4.24,4.24,0,0,1,4.24-4.24h8.6A4.24,4.24,0,0,1,386,74.76v7.7A4.24,4.24,0,0,1,381.75,86.69Zm-8.6-12.57a.63.63,0,0,0-.63.63v7.7a.63.63,0,0,0,.63.63h8.6a.63.63,0,0,0,.63-.63v-7.7a.63.63,0,0,0-.63-.63Z"/><path class="cls-4" d="M381.75,84.89h-8.6c0,79.24-8.95,93.61-8.95,93.61h26.49S381.75,164.13,381.75,84.89Z"/><path class="cls-5" d="M390.69,180.3H364.2a1.8,1.8,0,0,1-1.53-2.76c.07-.13,8.67-15.63,8.67-92.65a1.8,1.8,0,0,1,1.8-1.8h8.6a1.8,1.8,0,0,1,1.8,1.8c0,77.83,8.59,92.51,8.67,92.65a1.8,1.8,0,0,1-1.53,2.76Zm-23.76-3.61h21c-2.48-6.94-7.91-29.08-8-90h-5C374.85,147.61,369.41,169.76,366.93,176.69Z"/><rect class="cls-1" x="361.06" y="178.5" width="32.77" height="8.31"/><path class="cls-5" d="M393.83,188.61H361.06a1.8,1.8,0,0,1-1.8-1.8V178.5a1.8,1.8,0,0,1,1.8-1.8h32.77a1.8,1.8,0,0,1,1.8,1.8v8.31A1.8,1.8,0,0,1,393.83,188.61Zm-31-3.61H392v-4.7H362.87Z"/><rect class="cls-1" x="347.99" y="215.76" width="58.92" height="8.31"/><path class="cls-5" d="M406.91,225.87H348a1.8,1.8,0,0,1-1.8-1.8v-8.31A1.8,1.8,0,0,1,348,214h58.92a1.8,1.8,0,0,1,1.8,1.8v8.31A1.8,1.8,0,0,1,406.91,225.87Zm-57.12-3.61h55.32v-4.7H349.79Z"/><path class="cls-4" d="M423.91,257.74l-17-33.67H348l-17,33.67h20.2s-.45-25.14,26.26-25.14,26.26,25.14,26.26,25.14Z"/><path class="cls-5" d="M423.91,259.54h-20.2a1.8,1.8,0,0,1-1.8-1.84c0-.1.07-10.1-6.62-16.89-4.2-4.26-10.2-6.41-17.84-6.41s-13.66,2.17-17.86,6.44c-6.7,6.82-6.6,16.77-6.6,16.87a1.8,1.8,0,0,1-1.8,1.84H331a1.8,1.8,0,0,1-1.61-2.62l17-33.67a1.8,1.8,0,0,1,1.61-1h58.92a1.8,1.8,0,0,1,1.61,1l17,33.67a1.8,1.8,0,0,1-1.61,2.62Zm-18.47-3.61H421L405.8,225.87H349.1l-15.18,30.06h15.54c.28-3.56,1.59-11.55,7.56-17.62,4.9-5,11.77-7.52,20.43-7.52s15.53,2.53,20.43,7.52C403.85,244.39,405.16,252.38,405.44,255.94Z"/><path class="cls-5" d="M377.45,74.12a1.8,1.8,0,0,1-1.8-1.8V42.26a1.8,1.8,0,1,1,3.61,0V72.32A1.8,1.8,0,0,1,377.45,74.12Z"/><rect class="cls-5" x="481.35" y="143.77" width="4" height="60"/><path class="cls-4" d="M497.72,161.51c0,7.61-6.58,13.79-14.69,13.79s-14.69-6.17-14.69-13.79,6.58-60.63,14.69-60.63S497.72,153.89,497.72,161.51Z"/><rect class="cls-5" x="84.35" y="179.77" width="4" height="60"/><path class="cls-4" d="M100.72,197.51c0,7.61-6.58,13.79-14.69,13.79s-14.69-6.17-14.69-13.79S77.92,136.88,86,136.88,100.72,189.89,100.72,197.51Z"/><rect class="cls-5" x="190.35" y="200.77" width="4" height="60"/><path class="cls-4" d="M206.72,218.51c0,7.61-6.58,13.79-14.69,13.79s-14.69-6.17-14.69-13.79,6.58-60.63,14.69-60.63S206.72,210.89,206.72,218.51Z"/><rect class="cls-6" width="533.74" height="300"/></g></g></g></svg>