<svg xmlns="http://www.w3.org/2000/svg" xmlns:xlink="http://www.w3.org/1999/xlink" viewBox="0 0 150 146.33"><defs><style>.cls-1{fill:url(#Degradado_sin_nombre);}</style><linearGradient id="Degradado_sin_nombre" y1="73.16" x2="150" y2="73.16" gradientUnits="userSpaceOnUse"><stop offset="0" stop-color="#00f2fe"/><stop offset="0.02" stop-color="#03effe"/><stop offset="0.29" stop-color="#24d2fe"/><stop offset="0.55" stop-color="#3cbdfe"/><stop offset="0.8" stop-color="#4ab0fe"/><stop offset="1" stop-color="#4facfe"/></linearGradient></defs><title>contact-github</title><g id="Layer_2" data-name="Layer 2"><g id="Layer_1-2" data-name="Layer 1"><path class="cls-1" d="M139.94,37.35a74.74,74.74,0,0,0-27.3-27.29A73.29,73.29,0,0,0,75,0,73.35,73.35,0,0,0,37.35,10.06,74.71,74.71,0,0,0,10.06,37.35,73.33,73.33,0,0,0,0,75a72.93,72.93,0,0,0,14.3,44.09,73.45,73.45,0,0,0,37,27.09c1.75.33,3.06.1,3.9-.67a3.85,3.85,0,0,0,1.27-2.94c0-.19,0-1.95,0-5.27s-.06-6.22-.06-8.69L54.1,129a28.16,28.16,0,0,1-5.42.34,41.76,41.76,0,0,1-6.79-.68,15.18,15.18,0,0,1-6.54-2.93,12.38,12.38,0,0,1-4.3-6l-1-2.24a24.25,24.25,0,0,0-3.08-5,11.89,11.89,0,0,0-4.24-3.71l-.69-.49a7,7,0,0,1-1.27-1.18,5.32,5.32,0,0,1-.88-1.36c-.19-.46,0-.83.49-1.12a6.24,6.24,0,0,1,2.83-.44l2,.29A14.3,14.3,0,0,1,30,106.83a15.79,15.79,0,0,1,4.73,5.08A17.31,17.31,0,0,0,40.18,118a11.58,11.58,0,0,0,6.4,2.09,28.18,28.18,0,0,0,5.57-.48,19.7,19.7,0,0,0,4.39-1.47q.89-6.54,4.78-10.06a67.15,67.15,0,0,1-10-1.76,39.59,39.59,0,0,1-9.17-3.81A26.33,26.33,0,0,1,34.27,96a31.37,31.37,0,0,1-5.12-10.25,49,49,0,0,1-2-14.65A28.51,28.51,0,0,1,34.86,51q-3.61-8.88.69-19.92c1.88-.59,4.69-.14,8.4,1.32a58.39,58.39,0,0,1,8.15,3.76q2.59,1.56,4.15,2.64a70.48,70.48,0,0,1,37.5,0l3.71-2.35a53.14,53.14,0,0,1,9-4.3c3.44-1.3,6.08-1.65,7.91-1.07q4.38,11,.78,19.92a28.51,28.51,0,0,1,7.71,20.12,49.45,49.45,0,0,1-2,14.7A30.24,30.24,0,0,1,115.68,96a27.44,27.44,0,0,1-7.92,6.5,40,40,0,0,1-9.17,3.8,67.15,67.15,0,0,1-10,1.76q5.07,4.4,5.07,13.87v20.6a3.91,3.91,0,0,0,1.22,2.93c.82.78,2.1,1,3.86.68a73.34,73.34,0,0,0,37-27.1A72.88,72.88,0,0,0,150,75a73.51,73.51,0,0,0-10.06-37.64Z"/></g></g></svg>