<svg xmlns="http://www.w3.org/2000/svg" xmlns:xlink="http://www.w3.org/1999/xlink" viewBox="0 0 150 150"><defs><style>.cls-1{fill:url(#Degradado_sin_nombre);}.cls-2{fill:url(#Degradado_sin_nombre-2);}.cls-3{fill:url(#Degradado_sin_nombre-3);}.cls-4{fill:url(#Degradado_sin_nombre-4);}.cls-5{fill:url(#Degradado_sin_nombre-5);}.cls-6{fill:url(#Degradado_sin_nombre-6);}.cls-7{fill:url(#Degradado_sin_nombre-7);}.cls-8{fill:url(#Degradado_sin_nombre-8);}</style><linearGradient id="Degradado_sin_nombre" x1="64.03" y1="74.79" x2="84.27" y2="74.79" gradientUnits="userSpaceOnUse"><stop offset="0" stop-color="#00f2fe"/><stop offset="0.02" stop-color="#03effe"/><stop offset="0.29" stop-color="#24d2fe"/><stop offset="0.55" stop-color="#3cbdfe"/><stop offset="0.8" stop-color="#4ab0fe"/><stop offset="1" stop-color="#4facfe"/></linearGradient><linearGradient id="Degradado_sin_nombre-2" x1="79.39" y1="53.87" x2="108.39" y2="53.87" xlink:href="#Degradado_sin_nombre"/><linearGradient id="Degradado_sin_nombre-3" x1="40.63" y1="95.5" x2="69.51" y2="95.5" xlink:href="#Degradado_sin_nombre"/><linearGradient id="Degradado_sin_nombre-4" x1="40.63" y1="53.6" x2="69.27" y2="53.6" xlink:href="#Degradado_sin_nombre"/><linearGradient id="Degradado_sin_nombre-5" x1="36.7" y1="74.81" x2="45.96" y2="74.81" xlink:href="#Degradado_sin_nombre"/><linearGradient id="Degradado_sin_nombre-6" x1="0" y1="75" x2="150" y2="75" xlink:href="#Degradado_sin_nombre"/><linearGradient id="Degradado_sin_nombre-7" x1="102.71" y1="74.97" x2="112.52" y2="74.97" xlink:href="#Degradado_sin_nombre"/><linearGradient id="Degradado_sin_nombre-8" x1="79.71" y1="95.72" x2="108.39" y2="95.72" xlink:href="#Degradado_sin_nombre"/></defs><title>contact-codepen</title><g id="Layer_2" data-name="Layer 2"><g id="Layer_1-2" data-name="Layer 1"><polygon class="cls-1" points="73.38 67.97 64.03 74.51 74.61 81.61 84.27 75.13 73.38 67.97"/><polygon class="cls-2" points="93.47 68.96 108.39 58.94 79.39 38.77 79.48 58.79 93.47 68.96"/><polygon class="cls-3" points="40.63 90.86 69.51 110.23 69.51 90.47 55.06 80.78 40.63 90.86"/><polygon class="cls-4" points="69.27 58.38 69.27 38.79 40.63 58.81 54.93 68.41 69.27 58.38"/><polygon class="cls-5" points="36.7 68.47 36.7 81.15 45.96 74.67 36.7 68.47"/><path class="cls-6" d="M75,0h0A75,75,0,0,0,0,75H0a75,75,0,0,0,75,75h0a75,75,0,0,0,75-75h0A75,75,0,0,0,75,0Zm47.72,89.59a7.76,7.76,0,0,1-3.48,6.46L78.87,122.72a7.73,7.73,0,0,1-8.53,0L30.76,96.55a7.74,7.74,0,0,1-3.48-6.46V60.87a7.72,7.72,0,0,1,3.32-6.35L69.54,27.39a7.77,7.77,0,0,1,8.7-.11l41,27.14a7.75,7.75,0,0,1,3.47,6.45Z"/><polygon class="cls-7" points="112.52 81.48 112.52 68.46 102.71 75.04 112.52 81.48"/><polygon class="cls-8" points="79.71 90.47 79.71 110.23 108.39 90.98 93.52 81.21 79.71 90.47"/></g></g></svg>