<svg xmlns="http://www.w3.org/2000/svg" viewBox="0 0 477.87 466.88"><defs><style>.cls-1{isolation:isolate;}.cls-2{fill:#031b3c;}.cls-3,.cls-8{fill:#f1921a;}.cls-13,.cls-15,.cls-22,.cls-23,.cls-3,.cls-5,.cls-7{stroke:#010a3d;stroke-miterlimit:10;}.cls-23,.cls-3,.cls-5,.cls-7{stroke-width:2px;}.cls-4,.cls-6{fill:#a42b25;}.cls-4{opacity:0.5;}.cls-5{fill:#ae322c;}.cls-7,.cls-9{fill:#f3c144;}.cls-10,.cls-23{fill:#fff;}.cls-11{fill:#fdbf5e;}.cls-12{fill:#193651;}.cls-13{fill:#60ceed;stroke-width:0.75px;}.cls-14{fill:#1dabed;}.cls-15{fill:#c7e9ff;}.cls-16{fill:#b8daff;}.cls-17{fill:#911f19;opacity:0.24;mix-blend-mode:multiply;}.cls-18{fill:#010a3d;}.cls-19{fill:#ef4631;}.cls-20{fill:#c8311a;}.cls-21{fill:#f05440;}.cls-22,.cls-24{fill:#474747;}</style></defs><title>langue</title><g class="cls-1"><g id="Layer_1" data-name="Layer 1"><path class="cls-2" d="M151,170V636H628V170H151Zm87.22,292.79-1.64-166.74,353.76-3.48L592,459.32Z" transform="translate(-150.13 -169.12)"/><path class="cls-3" d="M603.57,284.44a5.31,5.31,0,0,0-5.36-5.26l-369.77,3.63a5.31,5.31,0,0,0-5.26,5.36L225,470.93a5.31,5.31,0,0,0,5.36,5.26l369.77-3.63a5.31,5.31,0,0,0,5.26-5.36ZM238.22,462.79l-1.64-166.74,353.76-3.48L592,459.32Z" transform="translate(-150.13 -169.12)"/><path class="cls-4" d="M587.78,292.61l2.56,0,1.82,185.29-9.95.1c-14.4-19-25.45-41-28.65-67.27C547.35,365.34,559.51,321.33,587.78,292.61Z" transform="translate(-150.13 -169.12)"/><path class="cls-4" d="M239.14,296l-2.56,0,1.82,185.29,9.95-.1c14-19.28,24.64-41.46,27.32-67.82C281,368,268,324.19,239.14,296Z" transform="translate(-150.13 -169.12)"/><rect class="cls-5" x="68.25" y="291.92" width="393.16" height="163.75"/><rect class="cls-6" x="219.32" y="468.58" width="391.19" height="22.07" transform="translate(-154.83 -165.02) rotate(-0.56)"/><rect class="cls-6" x="219.66" y="512.73" width="390.85" height="22.07" transform="translate(-155.26 -165.02) rotate(-0.56)"/><rect class="cls-6" x="219.17" y="556.87" width="391.58" height="22.07" transform="translate(-155.69 -165.02) rotate(-0.56)"/><path class="cls-6" d="M591.41,621.36L242,624.79a22.07,22.07,0,0,1-22.29-21.85h0l393.58-3.87h0A22.07,22.07,0,0,1,591.41,621.36Z" transform="translate(-150.13 -169.12)"/><path class="cls-7" d="M213.64,444.59H616.46a3.59,3.59,0,0,1,3.59,3.59V465a3.58,3.58,0,0,1-3.58,3.58H213.63a3.58,3.58,0,0,1-3.58-3.58V448.18a3.59,3.59,0,0,1,3.59-3.59Z" transform="translate(-154.6 -165.02) rotate(-0.56)"/><path class="cls-8" d="M441.53,501.9l-0.32-32.57-52.09.51,0.3,30.72A66.58,66.58,0,0,1,441.53,501.9Z" transform="translate(-150.13 -169.12)"/><path class="cls-9" d="M389.43,499.56l1.22,124c0,2.66,1.81,4.81,4,4.78l44.2-.43c2.18,0,3.93-2.2,3.9-4.86l-1.2-122.14A66.58,66.58,0,0,0,389.43,499.56Z" transform="translate(-150.13 -169.12)"/><path class="cls-9" d="M592.35,581.65l0.13,12.78a5,5,0,0,1-4.9,5l-12.78.13a5,5,0,0,0-4.9,5l0.17,17.11a5,5,0,0,0,5,4.9l17.73-.17,22.06-.22a5,5,0,0,0,4.9-5l-0.22-22.06-0.17-17.73a5,5,0,0,0-5-4.9l-17.11.17A5,5,0,0,0,592.35,581.65Z" transform="translate(-150.13 -169.12)"/><path class="cls-8" d="M601.57,612.7a5,5,0,0,0,4.9-5L606.19,579l0-2.43-8.91.09a5,5,0,0,0-4.9,5l0.13,12.78a5,5,0,0,1-4.9,5l-12.78.13a5,5,0,0,0-4.9,5L570,613l2.91,0Z" transform="translate(-150.13 -169.12)"/><path class="cls-9" d="M240.25,585.11l0.13,12.78a5,5,0,0,0,5,4.9l12.78-.13a5,5,0,0,1,5,4.9l0.17,17.11a5,5,0,0,1-4.9,5l-17.73.17-22.06.22a5,5,0,0,1-5-4.9l-0.22-22.06-0.17-17.73a5,5,0,0,1,4.9-5l17.1-.17A5,5,0,0,1,240.25,585.11Z" transform="translate(-150.13 -169.12)"/><path class="cls-8" d="M231.64,616.33a5,5,0,0,1-5-4.9l-0.28-28.71,0-2.43,8.91-.09a5,5,0,0,1,5,4.9l0.13,12.78a5,5,0,0,0,5,4.9l12.78-.13a5,5,0,0,1,5,4.9l0.08,8.45-2.91,0Z" transform="translate(-150.13 -169.12)"/><path class="cls-10" d="M415.11,545.48h0a20.42,20.42,0,0,1-20.39-20.39V490.28a5,5,0,0,1,5-5H430.5a5,5,0,0,1,5,5V525A20.43,20.43,0,0,1,415.11,545.48Z" transform="translate(-150.13 -169.12)"/><path class="cls-11" d="M435.5,507.48v-17.2a5,5,0,0,0-5-5H399.72a5,5,0,0,0-5,5v17.33H435.5v-0.13Z" transform="translate(-150.13 -169.12)"/><path class="cls-10" d="M415.11,490.13h0a3.73,3.73,0,0,0-3.74,3.74v4.71a3.73,3.73,0,0,0,3.74,3.74h0a3.73,3.73,0,0,0,3.74-3.74v-4.71A3.83,3.83,0,0,0,415.11,490.13Z" transform="translate(-150.13 -169.12)"/><rect class="cls-12" x="256.93" y="344.86" width="2.77" height="2.64"/><rect class="cls-12" x="263.58" y="344.86" width="2.77" height="2.64"/><rect class="cls-12" x="270.24" y="344.86" width="2.77" height="2.64"/><path class="cls-12" d="M430.78,483H399.1a7.11,7.11,0,0,0-5.1,7.12v34.81a21.5,21.5,0,1,0,43,0V490.28C437,486.77,434.12,484,430.78,483ZM417,487h13.51a3.32,3.32,0,0,1,3.61,3.27V506H417v-2.41a5.58,5.58,0,0,0,4-5v-4.71c0-2.36-2-4.29-4-5V487Zm1,6.89v4.71a2.5,2.5,0,0,1-5,0v-4.71A2.5,2.5,0,0,1,418,493.89Zm-21-3.61c0-1.94.78-3.28,2.72-3.28H414v2.16a5.58,5.58,0,0,0-4,5v4.73c0,2.36,2,4.29,4,5V506H397V490.28Zm37,34.43h0V525c0,10.54-8.1,19-18.5,19s-18.5-8.6-18.5-19V509h37v15.71Z" transform="translate(-150.13 -169.12)"/><rect class="cls-12" x="263.87" y="298.88" width="3" height="15"/><g id="keyboard"><path class="cls-13" d="M232,424.4h17a2,2,0,0,1,2,2v6.47a0,0,0,0,1,0,0H230a0,0,0,0,1,0,0v-6.47A2,2,0,0,1,232,424.4Z" transform="translate(-154.33 -166.74) rotate(-0.56)"/><path class="cls-13" d="M258.15,424.14h17a2,2,0,0,1,2,2v6.47a0,0,0,0,1,0,0H256.16a0,0,0,0,1,0,0v-6.47A2,2,0,0,1,258.15,424.14Z" transform="translate(-154.33 -166.48) rotate(-0.56)"/><path class="cls-13" d="M284.31,423.88h17a2,2,0,0,1,2,2v6.47a0,0,0,0,1,0,0H282.33a0,0,0,0,1,0,0v-6.47A2,2,0,0,1,284.31,423.88Z" transform="translate(-154.33 -166.23) rotate(-0.56)"/><path class="cls-13" d="M310.48,423.63h17a2,2,0,0,1,2,2v6.47a0,0,0,0,1,0,0H308.49a0,0,0,0,1,0,0v-6.47a2,2,0,0,1,2-2Z" transform="translate(-154.32 -165.97) rotate(-0.56)"/><path class="cls-13" d="M467.47,422.08h17a2,2,0,0,1,2,2v6.47a0,0,0,0,1,0,0H465.48a0,0,0,0,1,0,0v-6.47A2,2,0,0,1,467.47,422.08Z" transform="translate(-154.3 -164.43) rotate(-0.56)"/><path class="cls-13" d="M493.63,421.83h17a2,2,0,0,1,2,2v6.47a0,0,0,0,1,0,0H491.64a0,0,0,0,1,0,0v-6.47A2,2,0,0,1,493.63,421.83Z" transform="translate(-154.3 -164.17) rotate(-0.56)"/><path class="cls-13" d="M519.81,424.57h19.78a2,2,0,0,1,2,2V430a0,0,0,0,1,0,0H517.82a0,0,0,0,1,0,0v-3.46A2,2,0,0,1,519.81,424.57Z" transform="translate(-154.31 -163.9) rotate(-0.56)"/><path class="cls-13" d="M548.79,424.28h19.78a2,2,0,0,1,2,2v3.46a0,0,0,0,1,0,0H546.8a0,0,0,0,1,0,0v-3.46A2,2,0,0,1,548.79,424.28Z" transform="translate(-154.3 -163.61) rotate(-0.56)"/><path class="cls-13" d="M577.77,424h19.78a2,2,0,0,1,2,2v3.46a0,0,0,0,1,0,0H575.79a0,0,0,0,1,0,0V426A2,2,0,0,1,577.77,424Z" transform="translate(-154.3 -163.33) rotate(-0.56)"/><path class="cls-13" d="M336.64,422.86H458.26a2,2,0,0,1,2,2v6.47a0,0,0,0,1,0,0H334.65a0,0,0,0,1,0,0v-6.47A2,2,0,0,1,336.64,422.86Z" transform="translate(-154.31 -165.2) rotate(-0.56)"/><path class="cls-14" d="M232,429.87h17a2,2,0,0,1,2,2v2.69a0,0,0,0,1,0,0H230a0,0,0,0,1,0,0v-2.69A2,2,0,0,1,232,429.87Z" transform="translate(-154.37 -166.74) rotate(-0.56)"/><path class="cls-14" d="M258.18,429.61h17a2,2,0,0,1,2,2v2.69a0,0,0,0,1,0,0H256.2a0,0,0,0,1,0,0V431.6a2,2,0,0,1,2-2Z" transform="translate(-154.37 -166.48) rotate(-0.56)"/><path class="cls-14" d="M284.35,429.35h17a2,2,0,0,1,2,2V434a0,0,0,0,1,0,0H282.36a0,0,0,0,1,0,0v-2.69a2,2,0,0,1,2-2Z" transform="translate(-154.36 -166.23) rotate(-0.56)"/><path class="cls-14" d="M310.51,429.09h17a2,2,0,0,1,2,2v2.69a0,0,0,0,1,0,0H308.53a0,0,0,0,1,0,0v-2.69A2,2,0,0,1,310.51,429.09Z" transform="matrix(1, -0.01, 0.01, 1, -154.36, -165.97)"/><path class="cls-14" d="M467.5,427.55h17a2,2,0,0,1,2,2v2.69a0,0,0,0,1,0,0H465.51a0,0,0,0,1,0,0v-2.69A2,2,0,0,1,467.5,427.55Z" transform="translate(-154.34 -164.43) rotate(-0.56)"/><path class="cls-14" d="M493.67,427.3h17a2,2,0,0,1,2,2V432a0,0,0,0,1,0,0H491.68a0,0,0,0,1,0,0v-2.69A2,2,0,0,1,493.67,427.3Z" transform="matrix(1, -0.01, 0.01, 1, -154.33, -164.17)"/><path class="cls-14" d="M519.84,428.69h19.78a2,2,0,0,1,2,2v1a0,0,0,0,1,0,0H517.85a0,0,0,0,1,0,0v-1A2,2,0,0,1,519.84,428.69Z" transform="translate(-154.34 -163.9) rotate(-0.56)"/><path class="cls-14" d="M548.82,428.41H568.6a2,2,0,0,1,2,2v1a0,0,0,0,1,0,0H546.83a0,0,0,0,1,0,0v-1a2,2,0,0,1,2-2Z" transform="translate(-154.33 -163.61) rotate(-0.56)"/><path class="cls-14" d="M577.8,428.12h19.78a2,2,0,0,1,2,2v1a0,0,0,0,1,0,0H575.81a0,0,0,0,1,0,0v-1A2,2,0,0,1,577.8,428.12Z" transform="translate(-154.33 -163.33) rotate(-0.56)"/><path class="cls-14" d="M336.68,428.32H458.3a2,2,0,0,1,2,2V433a0,0,0,0,1,0,0H334.69a0,0,0,0,1,0,0v-2.69A2,2,0,0,1,336.68,428.32Z" transform="translate(-154.35 -165.2) rotate(-0.56)"/><rect class="cls-15" x="218.12" y="431.74" width="393.51" height="12.86" rx="2.95" ry="2.95" transform="translate(-154.42 -165.03) rotate(-0.56)"/><path class="cls-16" d="M611.54,438.11a3.75,3.75,0,0,0-3.32-3l-386.72,3.8a3.75,3.75,0,0,0-3.26,3,5.34,5.34,0,0,0,4.93,4.39l383.52-3.77A5.34,5.34,0,0,0,611.54,438.11Z" transform="translate(-150.13 -169.12)"/></g><path class="cls-10" d="M454.78,395.06c-2.09-6.28-1.25-5.46-7.57-7.42-1.4-.44-1.41-1.53,0-2,6.28-2.09,5.46-1.25,7.42-7.57,0.44-1.4,1.53-1.41,2,0,2.09,6.28,1.25,5.46,7.57,7.42,1.4,0.44,1.41,1.53,0,2-6.28,2.09-5.46,1.25-7.42,7.57C456.33,396.44,455.24,396.45,454.78,395.06Z" transform="translate(-150.13 -169.12)"/><path class="cls-10" d="M560.23,474c-2.09-6.28-1.25-5.46-7.57-7.42-1.4-.44-1.41-1.53,0-2,6.28-2.09,5.46-1.25,7.42-7.57,0.44-1.4,1.53-1.41,2,0,2.09,6.28,1.25,5.46,7.57,7.42,1.4,0.44,1.41,1.53,0,2-6.28,2.09-5.46,1.25-7.42,7.57C561.78,475.37,560.69,475.38,560.23,474Z" transform="translate(-150.13 -169.12)"/><path class="cls-10" d="M521.72,477.95c-3-8.93-1.77-7.76-10.76-10.55-2-.62-2-2.17,0-2.83,8.93-3,7.76-1.77,10.55-10.76,0.62-2,2.17-2,2.83,0,3,8.93,1.77,7.76,10.76,10.55,2,0.62,2,2.17,0,2.83-8.93,3-7.76,1.77-10.55,10.76C523.92,479.91,522.37,479.93,521.72,477.95Z" transform="translate(-150.13 -169.12)"/><path class="cls-10" d="M337.68,390.51c-3-8.93-1.77-7.76-10.76-10.55-2-.62-2-2.17,0-2.83,8.93-3,7.76-1.77,10.55-10.76,0.62-2,2.17-2,2.83,0,3,8.93,1.77,7.76,10.76,10.55,2,0.62,2,2.17,0,2.83-8.93,3-7.76,1.77-10.55,10.76C339.89,392.47,338.34,392.49,337.68,390.51Z" transform="translate(-150.13 -169.12)"/><path class="cls-10" d="M247.55,459c-3-8.93-1.77-7.76-10.76-10.55-2-.62-2-2.17,0-2.83,8.93-3,7.76-1.77,10.55-10.76,0.62-2,2.17-2,2.83,0,3,8.93,1.77,7.76,10.76,10.55,2,0.62,2,2.17,0,2.83-8.93,3-7.76,1.77-10.55,10.76C249.76,461,248.21,461,247.55,459Z" transform="translate(-150.13 -169.12)"/><path class="cls-10" d="M331.16,455.85c-2.09-6.28-1.25-5.46-7.57-7.42-1.4-.44-1.41-1.53,0-2,6.28-2.09,5.46-1.25,7.42-7.57,0.44-1.4,1.53-1.41,2,0,2.09,6.28,1.25,5.46,7.57,7.42,1.4,0.44,1.41,1.53,0,2-6.28,2.09-5.46,1.25-7.42,7.57C332.72,457.23,331.63,457.24,331.16,455.85Z" transform="translate(-150.13 -169.12)"/><path class="cls-10" d="M569.74,440.71c-1.72-5.17-1-4.49-6.23-6.11-1.15-.36-1.16-1.26,0-1.64,5.17-1.72,4.49-1,6.11-6.23,0.36-1.15,1.26-1.16,1.64,0,1.72,5.17,1,4.49,6.23,6.11,1.15,0.36,1.16,1.26,0,1.64-5.17,1.72-4.49,1-6.11,6.23C571,441.84,570.12,441.85,569.74,440.71Z" transform="translate(-150.13 -169.12)"/><path class="cls-10" d="M392,426.86c-1.72-5.17-1-4.49-6.23-6.11-1.15-.36-1.16-1.26,0-1.64,5.17-1.72,4.49-1,6.11-6.23,0.36-1.15,1.26-1.16,1.64,0,1.72,5.17,1,4.49,6.23,6.11,1.15,0.36,1.16,1.26,0,1.64-5.17,1.72-4.49,1-6.11,6.23C393.26,428,392.36,428,392,426.86Z" transform="translate(-150.13 -169.12)"/><path class="cls-10" d="M247.77,420.55c-1.72-5.17-1-4.49-6.23-6.11-1.15-.36-1.16-1.26,0-1.64,5.17-1.72,4.49-1,6.11-6.23,0.36-1.15,1.26-1.16,1.64,0,1.72,5.17,1,4.49,6.23,6.11,1.15,0.36,1.16,1.26,0,1.64-5.17,1.72-4.49,1-6.11,6.23C249,421.68,248.15,421.69,247.77,420.55Z" transform="translate(-150.13 -169.12)"/><path class="cls-10" d="M490.31,409.06c-1.58-4.76-.94-4.13-5.73-5.62-1.06-.33-1.07-1.16,0-1.51,4.76-1.58,4.13-.94,5.62-5.73,0.33-1.06,1.16-1.07,1.51,0,1.58,4.76.94,4.13,5.73,5.62,1.06,0.33,1.07,1.16,0,1.51-4.76,1.58-4.13.94-5.62,5.73C491.49,410.11,490.66,410.11,490.31,409.06Z" transform="translate(-150.13 -169.12)"/><path class="cls-10" d="M322.6,406.56c-1.58-4.76-.94-4.13-5.73-5.62-1.06-.33-1.07-1.16,0-1.51,4.76-1.58,4.13-.94,5.62-5.73,0.33-1.06,1.16-1.07,1.51,0,1.58,4.76.94,4.13,5.73,5.62,1.06,0.33,1.07,1.16,0,1.51-4.76,1.58-4.13.94-5.62,5.73C323.78,407.61,323,407.61,322.6,406.56Z" transform="translate(-150.13 -169.12)"/><path class="cls-10" d="M276.58,443.81c-1.58-4.76-.94-4.13-5.73-5.62-1.06-.33-1.07-1.16,0-1.51,4.76-1.58,4.13-.94,5.62-5.73,0.33-1.06,1.16-1.07,1.51,0,1.58,4.76.94,4.13,5.73,5.62,1.06,0.33,1.07,1.16,0,1.51-4.76,1.58-4.13.94-5.62,5.73C277.76,444.86,276.93,444.87,276.58,443.81Z" transform="translate(-150.13 -169.12)"/><path class="cls-10" d="M479.88,434.4c-1.58-4.76-.94-4.13-5.73-5.62-1.06-.33-1.07-1.16,0-1.51,4.76-1.58,4.13-.94,5.62-5.73,0.33-1.06,1.16-1.07,1.51,0,1.58,4.76.94,4.13,5.73,5.62,1.06,0.33,1.07,1.16,0,1.51-4.76,1.58-4.13.94-5.62,5.73C481.05,435.44,480.23,435.45,479.88,434.4Z" transform="translate(-150.13 -169.12)"/><path class="cls-17" d="M320.81,295.23l8.08-.08s-8.77,69.91-91.45,90.92l-0.32-33Z" transform="translate(-150.13 -169.12)"/><path class="cls-18" d="M328.39,289.81c2.71-2.76,5.3-5.65,8-8.46v0.25L335.6,281c-0.24-.22-0.52-0.4-0.78-0.61s-0.53-.4-0.8-0.58-0.54-.38-0.82-0.55a37.42,37.42,0,0,0-3.47-1.93c-1.19-.59-2.4-1.12-3.62-1.63q-0.92-.38-1.85-0.73l-0.93-.34-0.47-.17-0.24-.08-0.12,0a0.9,0.9,0,0,1-.23-0.13l0.44,0-0.06.13-0.1.21-0.24-.09c-2.57-1-5.18-1.89-7.83-2.67s-5.32-1.46-8-2-5.4-1.1-8.13-1.51-5.46-.75-8.2-1-5.49-.41-8.24-0.46l-4.14-.12q-2.06,0-4.11,0a67.86,67.86,0,0,0-16.15,2.11l-1.11-.29a1,1,0,0,0,.17.15,1.1,1.1,0,0,0,.3.16,1.14,1.14,0,0,0,.39.06,1.15,1.15,0,0,0,1-.71,1.14,1.14,0,0,0,.09-0.38,1.09,1.09,0,0,0,0-.32,0.91,0.91,0,0,0-.06-0.17l-0.83,1.6a64.34,64.34,0,0,0-17.9,6.45l-0.37.21-0.45-.06a1.75,1.75,0,0,1-.86-0.38l-0.12-.13a1.16,1.16,0,0,0,.88.54,1.12,1.12,0,0,0,.49-0.07l0.09,0h0l-0.15.08-0.3.16-0.62.35c-0.41.24-.82,0.49-1.23,0.75-0.82.52-1.61,1.07-2.39,1.64a38.58,38.58,0,0,0-4.37,3.78,26.24,26.24,0,0,0-3.62,4.41,25.33,25.33,0,0,0-1.41,2.44l-0.54,1.29-0.29.69-0.27.7c-0.7,1.86-1.53,3.72-2,5.57L221.1,300c-0.26.94-.47,1.9-0.71,2.86s-0.5,1.9-.66,2.87l-0.52,2.9L219,310.08l-0.18,1.47-0.38,2.93c-0.19,2-.35,3.93-0.47,5.9s-0.2,4-.15,5.93l0,3c0,1,.08,2,0.11,3,0.05,2,.23,4,0.37,5.94A173.69,173.69,0,0,0,222,361.71l0.1,0.45-0.37.26a19.35,19.35,0,0,0-3,2.61l-0.42.44-0.45-.38a51.47,51.47,0,0,0-8.84-6,45,45,0,0,0-4.84-2.22c-0.83-.33-1.67-0.77-2.51-1s-1.7.13-2.57-.87h0l0,0.15a17.8,17.8,0,0,0-2.42-.42c-0.82-.14-1.66-0.15-2.5-0.21s-1.68-.06-2.52,0a22,22,0,0,0-2.51.19l-1.25.15-1.24.24a19.6,19.6,0,0,0-2.46.57,24.19,24.19,0,0,0-2.4.77l-2.35.92-2.26,1.13a20.06,20.06,0,0,0-2.18,1.27c-0.7.46-1.46,0.85-2.12,1.37l-2,1.53a19,19,0,0,0-1.93,1.64L167,366c-0.61.58-1.15,1.23-1.73,1.85l-1.71,1.94-0.41-.81h0l1.1-.09-0.67.84c-2.15,2.81-4.29,5.59-6.22,8.53a95.22,95.22,0,0,0-5.34,9.07l-0.75-1L182.82,379l31.54-7.29,1.51-.35,0,1.58a9.71,9.71,0,0,0,.91,3.91,15.7,15.7,0,0,0,2.29,3.53l0.61,0.73-0.5.82L193,424.41l-1.51-2.32a41.63,41.63,0,0,0,8.84-2.65q1.09-.44,2.17-0.91l2.18-1q1.07-.49,2.11-1l1-.54,1-.57-0.74.7h0l0.21-.37,0.56-.32c0.92-.57,1.88-1.09,2.78-1.69s1.81-1.19,2.63-1.88l1.27-1,1.19-1.07a13.81,13.81,0,0,0,1.15-1.11c0.37-.39.75-0.76,1.1-1.15,0.68-.82,1.39-1.61,2-2.49a30,30,0,0,0,1.73-2.66l0.74-1.4c0.24-.47.44-1,0.66-1.44s0.4-1,.58-1.47a15.11,15.11,0,0,0,.51-1.5,29.3,29.3,0,0,0,.78-3.08c0.21-1,.35-2.1.46-3.16l0.11-1.6,0-1.6q0-1.61-.13-3.21c-0.1-1.07-.22-2.14-0.4-3.2s-0.38-2.12-.65-3.17-0.54-2.09-.88-3.11-0.71-2-1.12-3l-0.56-1.26,1.19-.69,5.91-3.41,2.94-1.72,1.48-.87,0.74-.43,0.37-.22,0.18-.11,0,0h0l-0.07,0h0l0,0,0.08-.07h0l0.05,0q8.61-5.16,17-10.69c2.8-1.84,5.56-3.73,8.33-5.61s5.51-3.81,8.23-5.76l1.22-.81,0.47,1.28h0l-1.6-.47,6.18-4.54,6.13-4.65c2-1.56,4-3.16,6.06-4.76s4-3.23,6-4.84l0.41-.33,0.3,0.36,0,0a0.53,0.53,0,0,1,.06.1,0.53,0.53,0,0,1,0,.16,0.53,0.53,0,0,1-.45.59,0.52,0.52,0,0,1-.17,0l-0.12,0-0.06,0-0.7-.35,0.62-.51c5.39-4.44,10.7-9,15.85-13.72s10.21-9.55,15.13-14.52l0.21,0h0a0.17,0.17,0,0,0-.19.24l0,0h0v-0.24Zm0.22,0.21L325,293.79v-0.24h0l0,0a0.17,0.17,0,0,1-.2.24h0l0.21,0q-3.67,3.75-7.43,7.41c-2.51,2.44-5,4.88-7.56,7.28s-5.13,4.76-7.71,7.13-5.2,4.69-7.84,7l-0.08-.86-0.05,0-0.11,0a0.52,0.52,0,0,0-.17,0,0.53,0.53,0,0,0-.44.59,0.52,0.52,0,0,0,0,.17,0.5,0.5,0,0,0,.07.1l0,0.05,0.71,0c-2,1.67-3.9,3.37-5.88,5s-3.94,3.32-6,4.94l-6,4.85-6.11,4.75-1.05.82L269,341.71h0l1.52,0.47c-5.35,4.08-10.78,8.06-16.34,11.86s-11.19,7.5-16.9,11.06l0.07,0-0.08.07,0,0h0l-0.08.06,0,0-0.18.11-0.37.22-0.73.45-1.46.89-2.94,1.79-5.93,3.47,0.63-1.95c0.49,1.1.89,2.17,1.26,3.28s0.69,2.21,1,3.33,0.51,2.25.71,3.39,0.34,2.29.45,3.44,0.15,2.32.16,3.48l0,1.75-0.11,1.75c-0.12,1.16-.27,2.32-0.49,3.47a32.5,32.5,0,0,1-.85,3.41c-0.16.57-.35,1.12-0.56,1.67s-0.4,1.11-.65,1.64-0.47,1.08-.74,1.6L225.39,404a33.21,33.21,0,0,1-1.92,3c-0.66,1-1.44,1.85-2.2,2.74-0.39.43-.81,0.84-1.21,1.27a15.89,15.89,0,0,1-1.26,1.22l-1.3,1.17-1.37,1.08c-0.89.75-1.88,1.35-2.83,2s-2,1.2-3,1.8l0.65-.69h0l-0.15.42-0.52.28-1.07.58-1.1.57q-1.11.55-2.23,1.05l-2.23,1q-1.12.48-2.27,0.93a44.45,44.45,0,0,1-9.57,2.77l-3.28.49,1.77-2.81L217,380.56l0.11,1.54a18.28,18.28,0,0,1-2.62-4.17,12.27,12.27,0,0,1-1.07-5l1.53,1.23L183.25,381l-31.67,6.72-1.44.31,0.69-1.29a96.63,96.63,0,0,1,5.58-9.11c2-2.92,4.17-5.72,6.35-8.51l0.43,0.9h0l-1.24,0,0.83-.91,1.76-1.9c0.59-.62,1.15-1.28,1.78-1.88l1.92-1.73a19.7,19.7,0,0,1,2-1.66l2.07-1.55c0.68-.53,1.46-0.92,2.18-1.39a20.8,20.8,0,0,1,2.25-1.28l2.32-1.14,2.42-.93a25,25,0,0,1,2.47-.77,21.27,21.27,0,0,1,2.52-.61l1.27-.25,1.29-.16a22.89,22.89,0,0,1,2.59-.21c0.86-.07,1.73,0,2.6,0s1.73,0.1,2.59.24a18.57,18.57,0,0,1,2.59.51h0c0.89,0.21,1.77.44,2.64,0.71s1.74,0.56,2.59.88a46.13,46.13,0,0,1,5,2.23,57.18,57.18,0,0,1,9.11,6l-0.87.06a20.64,20.64,0,0,1,3.16-2.86l-0.27.71a174.88,174.88,0,0,1-4.27-23.67c-0.19-2-.41-4-0.51-6-0.06-1-.14-2-0.18-3l-0.08-3c-0.09-2,0-4,0-6s0.2-4,.35-6l0.32-3,0.17-1.51,0.25-1.5,0.5-3c0.15-1,.43-2,0.64-3s0.44-2,.7-3l0.89-2.95c0.54-2,1.36-3.8,2.06-5.68l0.27-.7,0.29-.7,0.62-1.47a28,28,0,0,1,1.58-2.74,28.92,28.92,0,0,1,4-4.84,40.13,40.13,0,0,1,4.71-4c0.84-.6,1.68-1.18,2.56-1.73q0.65-.41,1.33-0.8l0.68-.38,0.36-.19,0.18-.09h0l0.13-.06a1.48,1.48,0,0,1,1.63.36l-0.12-.13a1,1,0,0,0-.59-0.34l-0.82.15A63.92,63.92,0,0,1,257,266.55l-0.83,1.6a1.36,1.36,0,0,1-.08-0.22,1.17,1.17,0,0,1,1.76-1.28l0.15,0.11-1.11-.29a67.84,67.84,0,0,1,16.74-1.74q2.09,0,4.18.11l4.15,0.24c2.78,0.14,5.56.38,8.32,0.71s5.51,0.73,8.25,1.23,5.45,1.07,8.15,1.75,5.37,1.42,8,2.28q2,0.64,3.94,1.35c1.31,0.46,2.6,1,3.89,1.49l-0.34.12,0.06-.13,0.44,0a0,0,0,0,0,0,0l0.12,0,0.23,0.09,0.47,0.18,0.93,0.36q0.93,0.37,1.85.76c1.22,0.53,2.44,1.09,3.62,1.7s2.35,1.26,3.48,2c0.29,0.17.56,0.37,0.83,0.56s0.55,0.38.81,0.59,0.54,0.4.79,0.62l0.76,0.66,0.13,0.12-0.13.13C333.93,284.4,331.33,287.26,328.61,290Z" transform="translate(-150.13 -169.12)"/><path class="cls-19" d="M224.64,370.7s-39.85-47.14-73.21,16.22Z" transform="translate(-150.13 -169.12)"/><path class="cls-19" d="M224.64,370.7s19.16,40.2-33,52.89Z" transform="translate(-150.13 -169.12)"/><path class="cls-20" d="M221.86,361.51s-13.36,8.21-3.79,19.72l6.56-10.53Z" transform="translate(-150.13 -169.12)"/><path class="cls-20" d="M217.91,370l-16.18-1.65c-0.69-.07-0.56-1.15.14-1.22l17-1.72a0.53,0.53,0,0,1,.55.7l-0.82,3.37A0.67,0.67,0,0,1,217.91,370Z" transform="translate(-150.13 -169.12)"/><path class="cls-20" d="M219.82,375.66l-0.19,17c0,1,1.34.93,1.49,0l3.51-21.89L220.11,375A0.92,0.92,0,0,0,219.82,375.66Z" transform="translate(-150.13 -169.12)"/><path class="cls-19" d="M223.79,371.38c0.71,0.89-15.89-46.16-.66-81.13,16-34.05,85.44-28.23,113.34-8.78A464.62,464.62,0,0,1,223.79,371.38Z" transform="translate(-150.13 -169.12)"/><path class="cls-21" d="M233.26,344.49s-12.52,3.41-11.55-4.58c0.65-6.06,17.42-16.41,23.78-13.36s-11.18,13.39-11.19,13.36Q233.79,342.22,233.26,344.49Z" transform="translate(-150.13 -169.12)"/><path class="cls-20" d="M223.79,371.38a256.19,256.19,0,0,0,9.6-35.23c0.19-.91,1.63-1.24,1.55-0.35-0.81,8.35-1.81,16.44-3.1,24.15-0.1.57,0.7,0.67,1.28,0.17,7.83-6.85,15.39-14.11,22.74-21.64,0.75-.77,1.74-0.21,1.11.63a315.12,315.12,0,0,1-20.31,24.63,1.32,1.32,0,0,1-.28.23Q230.14,367.77,223.79,371.38Z" transform="translate(-150.13 -169.12)"/><path class="cls-21" d="M269.9,341.38s-4.09-10.93,3.13-19.12,21.09-.06,21.08-0.07Q282.32,332.19,269.9,341.38Z" transform="translate(-150.13 -169.12)"/><path class="cls-21" d="M287,301s-15-7.17-8.58-18.15c4.6-7.45,23.55-6.27,28.8,4.76C311.14,295.75,300,304,287,301Z" transform="translate(-150.13 -169.12)"/><path class="cls-21" d="M324.86,293.67A16.28,16.28,0,0,1,322.48,274s9.34,3.1,14,7.46Q330.77,287.68,324.86,293.67Z" transform="translate(-150.13 -169.12)"/><path class="cls-21" d="M247.57,313.6c-11.13,3.22-18.41-3.09-15.52-10.62s22.43-11.41,28.13-7.25C267.18,300.83,259.52,310.15,247.57,313.6Z" transform="translate(-150.13 -169.12)"/><path class="cls-21" d="M257.2,267.59s1.74,4.55,8.4,4.87S282.83,266,282.84,266,268.51,264.54,257.2,267.59Z" transform="translate(-150.13 -169.12)"/><path class="cls-21" d="M223.13,290.25s11.81-.59,18.55-7.83-2.87-8.31-2.87-8.32S226.84,280,223.13,290.25Z" transform="translate(-150.13 -169.12)"/><path class="cls-21" d="M163.17,369.16s12.09,3.72,23.08-2.12,12.94-12.34,12.94-12.34S180.53,347.22,163.17,369.16Z" transform="translate(-150.13 -169.12)"/><path class="cls-21" d="M208.15,397.15s7.53,9.69,1.43,19.7c0,0-10.46,5.67-17.92,6.74Z" transform="translate(-150.13 -169.12)"/><rect class="cls-22" x="298.24" y="39.17" width="8.02" height="49.28"/><rect class="cls-23" x="233.19" y="78.17" width="107.35" height="36.37" rx="4.43" ry="4.43"/><rect class="cls-24" x="243.37" y="83.63" width="4.1" height="25.46"/><rect class="cls-24" x="252.19" y="83.63" width="4.1" height="25.46"/><rect class="cls-24" x="261.01" y="83.63" width="4.1" height="25.46"/><rect class="cls-24" x="269.83" y="83.63" width="4.1" height="25.46"/><rect class="cls-24" x="279.79" y="83.63" width="50.57" height="4.82"/><rect class="cls-24" x="279.79" y="92.47" width="50.57" height="4.82"/><circle class="cls-24" cx="291.89" cy="105.08" r="4.01"/><circle class="cls-24" cx="305.07" cy="105.08" r="4.01"/><circle class="cls-24" cx="318.25" cy="105.08" r="4.01"/><circle class="cls-10" cx="302.08" cy="30.84" r="9.17"/><path class="cls-24" d="M441.38,221a21.8,21.8,0,0,1-10.88-18.78h2.86a18.93,18.93,0,0,0,9.45,16.31Zm21.71,0-1.43-2.48a18.93,18.93,0,0,0,9.42-16.33l2.86-.08v0.08A21.8,21.8,0,0,1,463.09,221Zm-20.35-35.11-1.44-2.48a22.1,22.1,0,0,1,21.71-.07l-1.43,2.48A19.19,19.19,0,0,0,442.74,185.86Z" transform="translate(-150.13 -169.12)"/><path class="cls-24" d="M435.73,230.81a33.17,33.17,0,0,1-16.56-28.57H422a30.3,30.3,0,0,0,15.13,26.1Zm33,0-1.43-2.48a30.3,30.3,0,0,0,15.07-26.13l2.05-.09,0.81,0A33.18,33.18,0,0,1,468.76,230.78Zm-31.71-54.71-1.44-2.48a33.08,33.08,0,0,1,33-.1L467.21,176A30.22,30.22,0,0,0,437.05,176.07Z" transform="translate(-150.13 -169.12)"/></g></g></svg>