<svg id="Layer_6" data-name="Layer 6" xmlns="http://www.w3.org/2000/svg" viewBox="0 0 460.36 460.36"><defs><style>.cls-1{fill:#ffe07f;}</style></defs><title>sun2</title><path class="cls-1" d="M776.32,377.55c1.15,24.42,9.31,47.41,26.19,65.38s40.5,30.73,65,34.3A100.7,100.7,0,0,0,936,462.85C959.26,448,975.22,422.31,979.2,395c4.05-27.76-5.92-56.63-25.59-76.52a86,86,0,0,0-68.9-24.73,80.72,80.72,0,0,0-60.62,38,74.93,74.93,0,0,0-3.45,72.48c12,24.09,38.08,40.12,65.11,38.46s51.85-21.15,57.55-47.94c5.41-25.44-7.53-52.12-31.67-62.26-23.74-10-52.36,2.44-60.67,26.85-6.28,18.46,4.17,40.15,23.19,45.36,9,2.47,18.79,1.13,24.55-6.78s7.41-18.47,1-26.32c-1.41-1.74-4.13-.23-4.16,1.72-0.1,6.11-2.72,12.51-9,14.52s-12.1-2.93-15.14-7.75a18,18,0,0,1-.88-17.86c3-6.29,9.29-10.48,15.83-12.37,13.52-3.91,27.25,4.17,33.82,15.83,7,12.37,4.4,27.38-3.26,38.75-7.06,10.48-19.53,16.71-31.92,17.68-13,1-25.36-4-34.83-12.79a52.85,52.85,0,0,1-16.44-35.87c-0.72-13.85,4.37-27.49,13.21-38.06,17.24-20.61,47-26.88,71.39-16.29,25.61,11.1,41.31,38.77,40.73,66.25-0.52,24.91-15.24,47.88-36.29,60.66-22.76,13.81-52.6,14.16-76.38,2.7-25.17-12.14-42.6-37-47-64.44-4.29-27,5.36-54.73,23.85-74.54,18.15-19.44,44.35-30,70.81-30.07a95.89,95.89,0,0,1,38.58,8.14c12.07,5.32,22.48,13.69,31.2,23.5,15.27,17.19,25.16,39.1,30.28,61.38,0.7,3.06,5.4,1.76,4.7-1.3-5.84-25.43-17.85-50.12-36.4-68.7s-44.37-28.31-70.7-27.88a102.39,102.39,0,0,0-70.23,29.74,95.34,95.34,0,0,0-27.73,72.51C795.5,404.49,810,430,832.1,445.93c21.76,15.68,51,20,76.51,12,23.35-7.35,42.28-25.79,50.84-48.63,9.58-25.57,3.43-54.44-13.62-75.34-16.2-19.88-43.23-28.79-68.08-22.86-26.44,6.31-47,29.5-48.79,56.75-1.75,26.25,16.28,52.54,42.33,58.29,25.37,5.6,52-10.45,57.18-36.28A39.28,39.28,0,0,0,917,353.7c-9.44-8.91-23.52-12.12-35.63-7.12-11.82,4.89-20.54,17.34-16.68,30.31,3.31,11.13,15.8,20.66,27.11,14,6-3.52,8.56-10.89,8.67-17.51l-4.16,1.72c4.3,5.31,2.87,12.56-.25,18.07-3.36,5.93-8.68,8.14-15.32,7.79-13.25-.71-23.14-11.11-26-23.58-2.88-12.77,3-25.59,12.64-33.9S891,332.31,903.29,335s22.89,11.15,29.37,21.87c6.81,11.28,8.52,25.39,5.61,38.14-6.31,27.71-34.78,45-62.24,42.73-27.3-2.3-49.87-24.15-56.4-50.14C813.21,362.11,823,335,842.16,317.5c18.43-16.85,44.87-22.7,69-17.19,26,5.94,46.75,24.7,57.24,48.94,12.46,28.84,6.89,61.72-11.15,86.91-14.36,20.05-36.9,32.74-61.11,36.35-24.87,3.7-49.53-3.16-70.38-16.7-20.67-13.42-35.8-32.91-41.65-57a112.15,112.15,0,0,1-2.88-21.25c-0.15-3.13-5-3.14-4.88,0h0Z" transform="translate(-657.44 -145.55)"/><path class="cls-1" d="M913.73,202c-4.76-12.73-12.09-24.19-17.55-36.59a86.15,86.15,0,0,1-5.7-18.18,3.31,3.31,0,0,0-5.6,0c-2.72,13.84-9.4,25.87-15.81,38.26A127.69,127.69,0,0,0,861,203.73c-1.27,3.83-2.23,8.08-1.15,12,2.91,10.58,15.14,12.89,24.14,6.87V275c0,3,5,3,5,0V222.12c0,0.86,2.43,1.6,3.72,2.2,5.55,2.6,12.73,2.09,17.58-1.78C916.59,217.5,916.3,208.86,913.73,202Zm-36.66,19c-5,1.14-10.59-1.07-12.35-6.16-1.24-3.62-.19-7.57,1-11a137.72,137.72,0,0,1,7.85-18.14c3.91-7.49,5.39-15.95,10.39-23.73v52.88A8.92,8.92,0,0,1,877.07,221Zm33.3-6.16c-1.57,5.07-7.44,7.1-12.27,6.23a9.64,9.64,0,0,1-8-7c0.24-1.68-.39-37.27-0.39-52.68,3,8.12,7,15.83,11.08,23.57a158.57,158.57,0,0,1,8.46,18.26C910.64,207,911.58,211,910.37,214.86Z" transform="translate(-657.44 -145.55)"/><path class="cls-1" d="M910.38,528.92c-4.84-3.87-12.11-4.38-17.67-1.79-1.28.6-3.72,1.35-3.72,2.2V481c0-3-5-3-5,0v47.86c-9-6-21.23-3.71-24.14,6.87-1.08,3.93-.38,8.17.9,12A128,128,0,0,0,868.94,566c6.4,12.39,13.15,24.41,15.87,38.26a3.36,3.36,0,0,0,5.65,0,86.23,86.23,0,0,1,5.7-18.18c5.47-12.4,12.8-23.86,17.56-36.59C916.3,542.6,916.68,534,910.38,528.92ZM884,536.63v52.88c-5-7.78-6.42-16.25-10.33-23.73a138.78,138.78,0,0,1-8-18.14c-1.23-3.48-2-7.43-.78-11,1.75-5.09,7.14-7.3,12.15-6.16A9,9,0,0,1,884,536.63Zm25.25,11.6a158.68,158.68,0,0,1-8.46,18.26c-4.07,7.74-8.08,15.45-11.08,23.57,0-15.41.63-51,.39-52.68a9.64,9.64,0,0,1,8-7c4.83-.87,10.7,1.16,12.27,6.23C911.58,540.5,910.64,544.5,909.25,548.23Z" transform="translate(-657.44 -145.55)"/><path class="cls-1" d="M1061.36,401.84c12.73-4.76,24.19-12.09,36.59-17.56a86.24,86.24,0,0,1,18.18-5.7,3.32,3.32,0,0,0,0-5.6c-13.84-2.72-25.87-9.4-38.26-15.81a127.73,127.73,0,0,0-18.25-8.06c-3.83-1.27-8.08-.28-12,0.8-10.58,2.91-12.88,18.08-6.87,26.08H990c-4,0-4,4,0,4h51.23c-0.86,0-1.6,1-2.2,2.27a15.93,15.93,0,0,0,1.79,16.85C1045.85,405.42,1054.49,404.41,1061.36,401.84Zm-19-34.71c-1.14-5,1.07-11.57,6.16-13.32,3.61-1.24,7.57-.68,11,0.55,6.28,2.22,12.25,6.48,18.13,9.55,7.49,3.91,15.95,7.09,23.73,12.09h-52.88A14.37,14.37,0,0,1,1042.33,367.12Zm6.16,31.35c-5.07-1.57-7.1-7.44-6.23-12.27a9.64,9.64,0,0,1,7-8c1.68,0.24,37.27-.38,52.68-0.38-8.12,3-15.83,7-23.57,11.08a158.18,158.18,0,0,1-18.26,8.46C1056.39,398.74,1052.39,399.68,1048.49,398.48Z" transform="translate(-657.44 -145.55)"/><path class="cls-1" d="M734.43,398.49a14.86,14.86,0,0,0,1.78-16.22c-0.6-1.28-1.35-2.27-2.2-2.27h50a2,2,0,1,0,0-4H734.49c6-8,3.71-23.17-6.87-26.08a20.88,20.88,0,0,0-12-.08,125.89,125.89,0,0,0-18.25,7.7C685,363.94,673,370.44,659.12,373.16a2,2,0,0,0-1.54,2.71,2,2,0,0,0,1.54,2.76,86.21,86.21,0,0,1,18.18,5.67c12.4,5.47,23.86,12.78,36.59,17.54C720.75,404.42,729.39,404.78,734.43,398.49ZM726.72,376H673.84c7.79-5,16.25-8.36,23.73-12.27,5.89-3.08,11.86-6.8,18.14-9,3.48-1.23,7.43-2.51,11-1.27,5.09,1.75,7.3,8.85,6.16,13.86A14,14,0,0,1,726.72,376Zm-11.6,21.35a158.28,158.28,0,0,1-18.26-8.46c-7.74-4.07-15.45-8.08-23.57-11.08,15.41,0,51,.63,52.68.38a9.64,9.64,0,0,1,7,8c0.87,4.83-1.16,10.71-6.23,12.27C722.85,399.68,718.85,398.74,715.12,397.35Z" transform="translate(-657.44 -145.55)"/><path class="cls-1" d="M1029,271.32c5.63-12.37,8.56-25.65,13.46-38.28a86.24,86.24,0,0,1,8.83-16.88,3.31,3.31,0,0,0-4-4c-11.71,7.86-24.94,11.64-38.23,15.87a127.44,127.44,0,0,0-18.6,7.21,21,21,0,0,0-9,7.95c-5.42,9.54,2.48,20.7,12.48,22.19l-35.79,35.79a2.18,2.18,0,1,0,3.07,3.06l36.14-36.14c-0.22,1,.55,2.82,1,4.15,2.09,5.77,7.51,10.46,13.67,11.15C1020,284.33,1025.93,278,1029,271.32Zm-39.11-12.19c-4.35-2.73-6.87-8.39-4.51-13.22,1.68-3.44,5.15-5.56,8.48-7.15a140.14,140.14,0,0,1,18.61-7c8.06-2.53,16.56-6,24.37-9.2l-37.4,37.39A9.6,9.6,0,0,1,989.86,259.13ZM1017.49,278c-4.69,2.48-10.28-.24-13.08-4.28a9.64,9.64,0,0,1-.7-10.62c1.36-1,26.08-26.63,37-37.52-3.62,7.86-6.24,16.15-8.83,24.5a158.14,158.14,0,0,1-6.93,18.89C1023.28,272.65,1021.11,276.14,1017.49,278Z" transform="translate(-657.44 -145.55)"/><path class="cls-1" d="M793.26,501.21c-0.69-6.16-5.43-11.63-11.19-13.72-1.33-.48-3.16-1.26-4.15-1l35.91-35.91a2.18,2.18,0,1,0-3.06-3.06L775.2,483.05c-1.49-10-12.66-17.9-22.19-12.48a20.92,20.92,0,0,0-8,9,127.82,127.82,0,0,0-7.19,18.62c-4.23,13.29-8,26.53-15.86,38.24a3.32,3.32,0,0,0,4,4,86.3,86.3,0,0,1,16.89-8.83c12.63-4.9,25.92-7.82,38.29-13.46C787.78,515.07,794.15,509.22,793.26,501.21ZM769.7,488.55l-37.39,37.39c3.21-7.81,6.68-16.3,9.21-24.36a140.34,140.34,0,0,1,7-18.65c1.59-3.33,3.76-6.75,7.19-8.43,4.83-2.36,10.45.13,13.19,4.48A9.63,9.63,0,0,1,769.7,488.55Zm9.11,25.51A158.91,158.91,0,0,1,759.91,521c-8.35,2.59-16.64,5.21-24.5,8.83,10.89-10.9,36.51-35.62,37.52-37a9.64,9.64,0,0,1,10.62.7c4,2.8,6.75,8.39,4.27,13.08C785.92,510.24,782.43,512.41,778.81,514.06Z" transform="translate(-657.44 -145.55)"/><path class="cls-1" d="M988.72,515.4c12.37,5.63,25.65,8.56,38.28,13.46a86.29,86.29,0,0,1,16.88,8.83,3.31,3.31,0,0,0,4-4C1040,522,1036.21,508.78,1032,495.49a127.83,127.83,0,0,0-7.21-18.6,21,21,0,0,0-7.95-9c-9.54-5.42-20.7,2.48-22.19,12.48l-35.79-35.79a2.18,2.18,0,1,0-3.06,3.06l36.14,36.14c-1-.22-2.82.55-4.15,1-5.76,2.09-10.46,7.51-11.15,13.67C975.72,506.47,982,512.36,988.72,515.4Zm12.19-39.11c2.74-4.35,8.39-6.87,13.22-4.51,3.43,1.68,5.55,5.15,7.15,8.48a140.16,140.16,0,0,1,7,18.61c2.53,8.06,6,16.56,9.2,24.37l-37.39-37.39A9.61,9.61,0,0,1,1000.92,476.29ZM982,503.92c-2.48-4.69.24-10.28,4.27-13.08a9.64,9.64,0,0,1,10.62-.7c1,1.36,26.63,26.08,37.52,37-7.86-3.62-16.15-6.24-24.5-8.83a158.67,158.67,0,0,1-18.9-6.93C987.4,509.7,983.9,507.53,982,503.92Z" transform="translate(-657.44 -145.55)"/><path class="cls-1" d="M767,288.9c6.16-.69,11.63-5.43,13.72-11.19,0.48-1.33,1.26-3.16,1-4.15l35.91,35.91a2.18,2.18,0,1,0,3.07-3.07l-35.57-35.57c10-1.49,17.9-12.66,12.48-22.19a20.91,20.91,0,0,0-9-8A127.87,127.87,0,0,0,770,233.46c-13.29-4.23-26.53-8-38.24-15.86a3.32,3.32,0,0,0-4,4,86.22,86.22,0,0,1,8.83,16.89c4.9,12.63,7.83,25.92,13.46,38.28C753.1,283.41,758.95,289.79,767,288.9Zm12.67-23.56-37.4-37.4c7.8,3.21,16.3,6.68,24.36,9.21a140.13,140.13,0,0,1,18.65,7c3.33,1.59,6.75,3.76,8.43,7.19,2.36,4.83-.13,10.45-4.48,13.19A9.63,9.63,0,0,1,779.62,265.34Zm-25.51,9.11a158.45,158.45,0,0,1-6.93-18.9c-2.59-8.35-5.21-16.64-8.83-24.5,10.9,10.9,35.62,36.51,37,37.52a9.64,9.64,0,0,1-.71,10.62c-2.8,4-8.39,6.75-13.08,4.27C757.93,281.56,755.76,278.06,754.11,274.44Z" transform="translate(-657.44 -145.55)"/><path class="cls-1" d="M883.27,278.88a6.07,6.07,0,0,1,3.21-1.07,2.23,2.23,0,0,0-2-1.11,45.34,45.34,0,0,1-31.56-12.62c-9-8.36-16-18.69-24.15-27.84-1.51-1.69-4.05-.25-4.16,1.72-0.3,5.48.49,11,1.16,16.44,0.85,6.89,1.78,13.77,2.26,20.7,0.63,9.08,1.41,22.89-6.24,29.48a6.63,6.63,0,0,1,.92,4.45,5.9,5.9,0,0,1,5-3.58c5.46-7.29,5.74-18.52,5.39-27.17-0.3-7.39-1.29-14.75-2.22-22.09-0.48-3.81-1-7.68-1.3-11.55,6.75,8.13,13.09,16.69,20.91,23.82a49.23,49.23,0,0,0,24,12.13,6.15,6.15,0,0,1,3.74-1.17,6.61,6.61,0,0,1,1.76.23,6.3,6.3,0,0,1,3.11-.78h0.17Z" transform="translate(-657.44 -145.55)"/><path class="cls-1" d="M814.37,316a6.06,6.06,0,0,1,1.26-3.14,2.23,2.23,0,0,0-2.14.81,45.36,45.36,0,0,1-30,15.93c-12.19,1.47-24.61.13-36.85,0.44-2.26.06-2.81,2.93-1.37,4.29,4,3.77,8.73,6.74,13.3,9.74,5.81,3.8,11.66,7.54,17.26,11.65,7.34,5.39,18.38,13.72,18.47,23.81a6.64,6.64,0,0,1,4,2.17,5.9,5.9,0,0,1,.48-6.12c-2-8.87-10.42-16.35-17.25-21.67-5.84-4.55-12.09-8.54-18.29-12.58-3.22-2.1-6.54-4.17-9.66-6.47,10.57,0.1,21.2.8,31.69-.57A49.22,49.22,0,0,0,810,323.84a6.14,6.14,0,0,1,1.53-3.61,6.53,6.53,0,0,1,1.32-1.19,6.3,6.3,0,0,1,1.42-2.88Z" transform="translate(-657.44 -145.55)"/><path class="cls-1" d="M955.85,300.74a6.07,6.07,0,0,1,3,1.56,2.23,2.23,0,0,0-.59-2.21,45.35,45.35,0,0,1-12.86-31.46c-0.25-12.28,2.32-24.5,3.24-36.71,0.17-2.26-2.63-3.09-4.13-1.79-4.15,3.59-7.58,8-11,12.26-4.36,5.4-8.67,10.85-13.31,16-6.09,6.77-15.48,16.93-25.53,16a6.62,6.62,0,0,1-2.56,3.75,5.9,5.9,0,0,1,6,1.09c9-1.14,17.31-8.74,23.28-15,5.11-5.36,9.71-11.18,14.34-16.94,2.41-3,4.8-6.09,7.4-9-1.15,10.51-2.91,21-2.59,31.59a49.23,49.23,0,0,0,8,25.69,6.16,6.16,0,0,1,3.44,1.88,6.54,6.54,0,0,1,1.05,1.43,6.31,6.31,0,0,1,2.72,1.7Z" transform="translate(-657.44 -145.55)"/><path class="cls-1" d="M955.85,300.74a6.07,6.07,0,0,1,3,1.56,2.23,2.23,0,0,0-.59-2.21,45.35,45.35,0,0,1-12.86-31.46c-0.25-12.28,2.32-24.5,3.24-36.71,0.17-2.26-2.63-3.09-4.13-1.79-4.15,3.59-7.58,8-11,12.26-4.36,5.4-8.67,10.85-13.31,16-6.09,6.77-15.48,16.93-25.53,16a6.62,6.62,0,0,1-2.56,3.75,5.9,5.9,0,0,1,6,1.09c9-1.14,17.31-8.74,23.28-15,5.11-5.36,9.71-11.18,14.34-16.94,2.41-3,4.8-6.09,7.4-9-1.15,10.51-2.91,21-2.59,31.59a49.23,49.23,0,0,0,8,25.69,6.16,6.16,0,0,1,3.44,1.88,6.54,6.54,0,0,1,1.05,1.43,6.31,6.31,0,0,1,2.72,1.7Z" transform="translate(-657.44 -145.55)"/><path class="cls-1" d="M992.84,366a6.09,6.09,0,0,1,1.13,3.19,2.23,2.23,0,0,0,1.07-2,45.36,45.36,0,0,1,12-31.8c8.18-9.17,18.37-16.37,27.35-24.7,1.66-1.54.17-4.06-1.81-4.13-5.48-.19-11,0.71-16.41,1.49-6.87,1-13.74,2.06-20.66,2.68-9.07.81-22.86,1.87-29.6-5.65a6.63,6.63,0,0,1-4.43,1,5.9,5.9,0,0,1,3.69,4.91c7.39,5.31,18.63,5.37,27.27,4.84,7.39-.45,14.72-1.59,22-2.66,3.8-.56,7.66-1.2,11.52-1.53-8,6.92-16.43,13.42-23.39,21.39A49.24,49.24,0,0,0,991,357.21a6.15,6.15,0,0,1,1.24,3.72,6.47,6.47,0,0,1-.2,1.77,6.25,6.25,0,0,1,.84,3.1C992.84,365.85,992.84,365.9,992.84,366Z" transform="translate(-657.44 -145.55)"/><path class="cls-1" d="M958.32,441.19a6.09,6.09,0,0,1-1.36,3.1,2.23,2.23,0,0,0,2.16-.75,45.35,45.35,0,0,1,30.5-15c12.23-1.09,24.6.62,36.85,0.7,2.26,0,2.9-2.84,1.51-4.25-3.87-3.89-8.51-7-13-10.14-5.69-4-11.42-7.9-16.9-12.18-7.17-5.61-18-14.28-17.72-24.37a6.62,6.62,0,0,1-3.92-2.29,5.9,5.9,0,0,1-.67,6.1c1.76,8.93,9.92,16.66,16.57,22.19,5.7,4.73,11.83,8.91,17.89,13.14,3.15,2.2,6.4,4.37,9.46,6.77-10.56-.42-21.16-1.45-31.69-0.41a49.24,49.24,0,0,0-25.08,9.72,6.14,6.14,0,0,1-1.64,3.56,6.62,6.62,0,0,1-1.35,1.15,6.3,6.3,0,0,1-1.51,2.83Z" transform="translate(-657.44 -145.55)"/><path class="cls-1" d="M801.45,440a6.07,6.07,0,0,0,1.51,3,2.23,2.23,0,0,1-2.2-.63A45.35,45.35,0,0,0,769.53,429c-12.28-.46-24.54,1.89-36.76,2.6-2.26.13-3-2.69-1.72-4.16,3.66-4.09,8.14-7.44,12.45-10.8,5.48-4.27,11-8.48,16.24-13,6.87-6,17.19-15.18,16.44-25.25a6.63,6.63,0,0,0,3.8-2.49,5.9,5.9,0,0,0,1,6.06c-1.29,9-9,17.16-15.41,23-5.45,5-11.35,9.51-17.19,14-3,2.35-6.17,4.7-9.09,7.25,10.53-1,21.06-2.54,31.63-2a49.22,49.22,0,0,1,25.55,8.41,6.16,6.16,0,0,0,1.82,3.47,6.6,6.6,0,0,0,1.41,1.08,6.3,6.3,0,0,0,1.65,2.75Z" transform="translate(-657.44 -145.55)"/><path class="cls-1" d="M887.08,474.53a6.06,6.06,0,0,1-3.28.85,2.23,2.23,0,0,0,1.92,1.24,45.35,45.35,0,0,1,30.61,14.76c8.41,9,14.68,19.75,22.18,29.44,1.39,1.79,4,.53,4.27-1.43,0.68-5.45.27-11,0-16.48-0.37-6.93-.83-13.86-0.83-20.81,0-9.11.17-22.94,8.25-29a6.64,6.64,0,0,1-.61-4.5,5.89,5.89,0,0,1-5.21,3.23c-5.95,6.89-7,18.08-7.25,26.73-0.21,7.4.28,14.81,0.69,22.19,0.22,3.84.51,7.74,0.5,11.62-6.18-8.58-11.91-17.55-19.23-25.2A49.22,49.22,0,0,0,896,473.43a6.14,6.14,0,0,1-3.81.91,6.52,6.52,0,0,1-1.74-.35,6.29,6.29,0,0,1-3.16.56Z" transform="translate(-657.44 -145.55)"/><path class="cls-1" d="M880.79,476a6,6,0,0,0,3.3.72,2.23,2.23,0,0,1-1.87,1.31,45.35,45.35,0,0,0-30.05,15.87c-8.07,9.26-13.95,20.28-21.08,30.23-1.32,1.84-4,.68-4.32-1.28-0.88-5.42-.67-11-0.58-16.47,0.12-6.94.32-13.88,0.07-20.83-0.33-9.1-1-22.92-9.31-28.66a6.63,6.63,0,0,0,.45-4.52,5.9,5.9,0,0,0,5.33,3c6.2,6.67,7.66,17.82,8.22,26.45,0.48,7.39.27,14.8,0.12,22.2-0.08,3.84-.23,7.75-0.08,11.63,5.86-8.8,11.26-18,18.29-25.88a49.22,49.22,0,0,1,22.59-14.59,6.14,6.14,0,0,0,3.84.77,6.47,6.47,0,0,0,1.73-.42,6.26,6.26,0,0,0,3.18.44Z" transform="translate(-657.44 -145.55)"/></svg>