<svg id="Layer_5" data-name="Layer 5" xmlns="http://www.w3.org/2000/svg" viewBox="0 0 615.77 615.77"><defs><style>.cls-1{fill:#ecba66;}</style></defs><title>wheel</title><path class="cls-1" d="M3.75,893.38A6.84,6.84,0,0,0,5,894.58c11.11,6.5,16,16.94,13.47,29.72-1.36,6.81-3.41,13.48-5.11,20.23C11,953.6,11.35,962.25,18,970l-8.88,7.69c2.49,0.76,4.52,1.35,6.52,2,2.75,0.89,3.7,2.72,3.2,5.61-0.61,3.56-1.06,7.15-1.64,11.11C40,996.16,61,1002,81.42,1010.11s39.5,18.59,54.22,35.14c2.93-2.74,6.12-5.68,9.25-8.68s3.16-3.07,7-.7a11.11,11.11,0,0,0,1.13.54l0.86-.31L151.83,1026a45,45,0,0,1,5.65-2.67A32.29,32.29,0,0,0,177.66,1005a71.56,71.56,0,0,1,4.92-8.89c5.87-9.3,20.87-17.1,36-10.89a2.64,2.64,0,0,1,1.23,1.49c3.86,11.28.71,22.62-8.67,30.07a110.66,110.66,0,0,1-11.22,7.27c-2.82,1.72-5.8,3.16-8.62,4.87-8.09,4.92-13.6,9.84-15.27,21.53l-11.49-.89,4.35,8.38c-1.86,1.77-3.71,3.56-5.58,5.32s-3.66,3.4-5.66,5.27c28.17,34.67,44.51,74.17,48.76,118.83h13.14c4,0,4,0,4.54,4,0.09,0.61.16,1.23,0.28,2.24,3.49-2.15,4.79-5.49,6.29-9.1a59.93,59.93,0,0,1,6.74,2.44c8.56,4.27,17.22,4.6,26.22,1.47a69.11,69.11,0,0,1,12.93-3.28c12.1-1.7,24.67,5.37,29.92,16.39a11.86,11.86,0,0,0,1.37,1.86v0.54c-2.42,4.4-5.11,8.57-9.33,11.54-7.51,5.29-15.78,5.7-24.35,3.74-5.3-1.21-10.52-2.77-15.77-4.2-9.62-2.62-18.91-2.94-27.28,4.28l-7.66-8.91-2.8,9.1c-3.87-.17-7.7-0.3-11.52-0.54-1.8-.11-2.62.22-2.81,2.37-3.78,42.7-20.54,79.85-48.29,112.25l-2.57,3c3.26,3.45,6.34,6.77,9.48,10,2.81,2.91,2.85,2.88.61,6.13l-1.23,1.78c3.76,0.88,6.91-.18,10.51-2,1.2,2.62,2.59,5.17,3.58,7.86a30.17,30.17,0,0,0,16.11,17.74c3,1.4,5.88,3,8.74,4.66,7,4.05,11.38,10.18,13.62,17.87,1.61,5.53,1.26,11,.08,16.64-0.69,3.28-2.29,4-4.92,4.59-11.37,2.68-20.69-.71-27.92-9.62-2.9-3.58-5.07-7.76-7.48-11.71-1.39-2.28-2.59-4.69-3.93-7-4.93-8.58-11.3-15.22-22.06-16l0.84-11.66-7.86,4.08c-2.4-1.67-4.78-2.83-6.48-4.64s-2.84-4.34-4.38-6.8c-35.1,28.48-74.38,45.15-119,48.16,0,5-.22,9.83.08,14.6,0.19,3-1.13,4-3.73,4.11-0.77,0-1.54.21-2.67,0.37,2.25,3.39,5.5,4.71,9.11,6.21a43.73,43.73,0,0,1-2.05,5.91c-4.76,9.33-5,18.74-1.29,28.5,2.78,7.36,4.3,14.94,1.83,22.79-2.64,8.4-7.43,15-15.64,18.71a7.71,7.71,0,0,0-1.55,1.28H-2.68c-8.13-4-13.94-9.89-15.89-19-1.45-6.76,0-13.31,1.74-19.81,1.11-4,2.35-8.06,3.35-12.13,2.28-9.24,2.17-18.11-4.72-25.81l8.89-7.57-8.46-2.74c0-4.87-.09-9.5,0-14.13,0.05-1.73-.41-2.24-2.15-2.46-46.58-6-86.89-25.24-121.13-57.29-4.1-3.84-8-7.92-12.61-11.74,0.17,0.76.09,1.74,0.54,2.25,3.28,3.75,6.41,7.7,10.15,11,1.77,1.54,2.25,3.5,3,4.36l-1.65,4,0.76,0.42,5-4,0.67,0.57a11.74,11.74,0,0,1-1.28,2c-3.53,3.67-7.06,7.33-10.72,10.86a2.91,2.91,0,0,1-2.53.1,24.69,24.69,0,0,1-3.56-2.23l-0.84.3,2.19,10.35a52.78,52.78,0,0,1-6,2.79A32,32,0,0,0-177.54,1397c-2.45,5.35-5,10.75-9.73,14.6-9.33,7.69-19.72,10-31.26,5.65a2.66,2.66,0,0,1-1.4-1.32,25.94,25.94,0,0,1,7.11-28.86c4.39-3.71,9.55-6.52,14.44-9.62,2.63-1.67,5.49-3,8.12-4.67,8.92-5.65,12.14-10.45,14.1-20.81l11.43,0.88c-1.19-2.33-2.22-4.33-3.25-6.35-0.7-1.38.15-4.4,1.27-5.27,3.39-2.62,6.72-5.33,10.07-8,0.84,2.8-1.25,6.38,1.33,10l1.06-8.57A194,194,0,0,1-192.61,1268c-8.31-25.15-11.25-51-9.82-77.58-1.84,3.17-2.46,14.16-1,16l-0.39.6-4.17-2.73-0.54.34,3.72,5.38-0.34.41-3.12-2.75-0.5.35,2.7,3.89-0.39.36-5.4-4.56c-0.61,2.3-.61,2.29,2.61,3.91a22.31,22.31,0,0,1,4.84,3.13c-1.87.12-3.75,0.32-5.62,0.34-3.57,0-7.15-.16-10.72,0-2.21.12-3.07-.76-3.27-2.78-0.11-1.12-.34-2.24-0.52-3.36l-0.84-.34-5.89,9.05c-1.76-.62-4.13-1.27-6.34-2.27a35.81,35.81,0,0,0-16.08-3.47c-1,0-1.94.15-3.14,0.24l0.44,3c-2.36-2.92-4.6-2-6.93-1.23-3.57,1.11-7.17,2.21-10.82,3a29.28,29.28,0,0,1-32.49-16.11,11.45,11.45,0,0,0-1.21-1.68v-1.61a4.78,4.78,0,0,0,1.07-1.06c5.36-10.62,16.75-16.62,30.86-13.55,5.31,1.15,10.55,2.64,15.79,4.09,10.17,2.81,20.09,3.89,28.86-3.9l7.64,8.89,2.68-8.48h16.43l0,0.94h-6.07l-0.15.87,8.44,3.32a219.82,219.82,0,0,1,14.87-65.22A201.42,201.42,0,0,1-153.69,1067c-4.5-4.44-8.88-8.69-13.15-13.06a2.7,2.7,0,0,1,0-2.35,28.37,28.37,0,0,1,2.25-3.56l-0.29-.86-10.33,2.16a48.91,48.91,0,0,1-2.71-5.69c-3.08-9-8.57-15.73-17.4-19.61-2.52-1.11-4.89-2.58-7.33-3.88-12.58-6.69-19.3-23.47-13.35-37.36a3.21,3.21,0,0,1,1.81-1.52c11.7-3.77,22.89-.41,30.3,9.38a133.92,133.92,0,0,1,7.39,11.78c1.85,3.05,3.48,6.24,5.37,9.26,4.69,7.51,11.08,12.53,20.39,13.27l-0.92,11.63c2.53-1.31,4.78-2.55,7.11-3.63a2.29,2.29,0,0,1,2,.08c3.3,3.39,6.49,6.89,9.69,10.38a1.58,1.58,0,0,1,0,1.55,13.93,13.93,0,0,1-1.62-1.33c-2.59-2.84-5.2-5.66-7.68-8.59a2,2,0,0,0-2.94-.51c-2.05,1.24-4.15,2.42-6.54,3.81l1.6,1.47,5.06-2.91,1.39,4.52,0.91-.12v-3.8l0.58-.36,5.47,7.14-1.35,1.25,2.34,1.6-0.45,1.54a11.32,11.32,0,0,0,1.21-.78A201,201,0,0,1-54,1004.81a197,197,0,0,1,37.88-6.69c2-.14,2.57-1,2.52-2.82-0.13-5-.07-10-0.33-15-0.11-2.14.78-2.86,2.63-3.08,1.13-.13,2.26-0.34,3.39-0.52l0.41-.85-9-5.9a55.22,55.22,0,0,1,2.31-6.4,32,32,0,0,0,1.5-25.7,71.85,71.85,0,0,1-3.38-13.46c-1.71-12,5.51-24.66,16.56-29.83a11.89,11.89,0,0,0,1.71-1.19H3.75Zm-115.88,403.37c-0.31,2.12-.64,4.24,1.13,5.81l1-.31-2.12-5.54-0.34-6.16C-114.54,1292.38-114.17,1294.94-112.13,1296.75ZM7,905.22c-0.81,1.45-1.18,2.85,1.22,4.51a32.22,32.22,0,0,0,.34-3.93,5.45,5.45,0,0,0-1.65-.48c0-1.26,0-2.52-.05-4.39l-3.13,2.69,2.08-3.18-3-4.41,0.42-.32,3.3,3.81,0.75-.19c-0.08-.67.05-1.76-0.27-1.92-1.59-.78-2.73-3.64-4.9-1.89-2,1.63-3.52,3.89-5.16,5.77l-0.26-1.55a29.94,29.94,0,0,0-9.51,13.54c-2.22,6.58-1.13,13,.72,19.46q1.66,5.78,3.16,11.61a22.06,22.06,0,0,1-2.65,17.74c-1.3,2.11-2.26,4.42-3.63,7.13,5.75-2,8.94-6.08,9.32-11.45-1,1.92-1.83,3.71-2.89,5.32a52.77,52.77,0,0,1-3.37,4.2c2.44-6,4.83-11.87,7.27-17.76a5,5,0,0,1,1.11-1.41c4.61-4.8,6.16-11,7.86-17.25l-2.21,2-0.24-.21,5-6.78-1-.87-4.66,5.3-0.58-.56c2.17-2.55,4.7-4.89,6.41-7.72,1.83-3,.42-6.46.42-10.47l-8.83,10.1a64.63,64.63,0,0,1,7-9.45c1.2-1.39,1.68-2.61,0-4.11l-8,10.78a59.49,59.49,0,0,1,6.57-9.93,2.94,2.94,0,0,0,.39-3.8C5.12,906.06,6,906.23,7,905.22Zm2.58,8.32,0.61-4.35c-2.74,1.72-2.73,3.07-.6,4.37L8.71,919.4c3.35-1.85,2.13-4.07,1.94-6.07ZM214.19,1193c2.62,0.2,2.81-.11,2.3-3.78-2.91-.18-3.2.32-2.21,3.82a22,22,0,0,0-.37,3.5,8.22,8.22,0,0,0,2.16.53l0.26-2.93ZM147.51,1036.6c-3.37,2.52-3.52,3-1.91,5.89,3-1.25,2.66-3.52,1.87-5.94l2.14,2.35,2.17-1.36-3.11-2.82ZM-105,1289.18l0.75,5.63c2.86-2.21,3-5.47.73-7.18,1.24-1.68.19-2.68-1-3.76C-107.29,1285.52-106.2,1287.35-105,1289.18ZM46.64,1146l-2.42-3.17-7.6,9.51,0.22,0.77a7,7,0,0,0,2.49-.71c2.34-1.88,4.55-3.92,6.81-5.9l-6.62,7.67,3.1,1.87c3.66-2.73,3.66-2.73,5.57-.4l5-4Zm-196.49,215.91c0-2.25,1-4.69-1.09-6.66-1.67,2.68-.39,4.68,1.11,6.62a1.09,1.09,0,0,1,0,.26,1,1,0,0,1-.08.25c-1-1.08-3.19-.54-3.32-2.78,0-.58-0.93-1.12-1.41-1.65l-0.62.87-3.79-7-1.78,2.71c-0.56-2.25.57-5-2.25-6.88,0,1.59-.3,3,0.09,4.19,0.33,1,1.47,1.74,2.24,2.6a2.46,2.46,0,0,0,.12,1.23c3.76,4.07,7.57,8.1,11.51,12.29l4.3-4.94-3.31-4ZM74,1121.29L70.49,1118c-5.93,6.42-11.66,12.33-15.37,19.86,2.34-1.9,4.49-4,6.76-6,3.56-3.08,7.19-6.07,10.8-9.11l-18.39,17.59,0.41,0.52,23.41-17.71-0.21-.93ZM214,992l-4.88,15.38c3.19-4.17,6.06-8.47,6.27-14,0-1.17-.17-1.75-1.45-1.3l3.37-5.75c-7.47-1.18-14.52-1.43-21.38,1.48-1.68.71-2.46,1.62-2.4,3.56,0.13,4,0,8,0,12.06,0,3.23,0,6.46,0,9.68a3.77,3.77,0,0,0,1.58-2.74c0-3.57-.29-7.14-0.23-10.7,0.05-3.33.4-6.66,0.62-10l0.93,0v21.06c2.47-.62,3.08-1.83,3.1-3.81,0.05-6.22.3-12.44,0.47-18.66h0.6v19.32l0.82,0.16a17.14,17.14,0,0,0,.73-2.92c0.33-4.55.57-9.11,0.84-13.66l0.9,0V1005c2.39-2.24,4.08-4.12,3.68-7.2-0.36-2.77-.54-5.58-0.63-8.37a10.11,10.11,0,0,1,.7-2.76l0.75,0.1,1.16,9.31,0.63,0.06,2-7.84,0.68,0.18-0.4,4.78Zm-323.81,212.66H-124.1c4.68,0.59,9.37.94,14,1.56,5.39,0.71,10.74,2.16,16.14,2.35s11-.77,16.55-1.2c0.86-.07,1.73,0,2.6,0l0.17,0.92-12.73,5.11a148.9,148.9,0,0,0,16.45-4.23,2,2,0,0,0,.67-1.53,82.14,82.14,0,0,0-.29-8.56,3.73,3.73,0,0,0-1.83-2.53,75.23,75.23,0,0,0-39.71-6.34c-3.72.38-7.34,1.77-11,2.7l0.19,0.86c7.53-1.7,15.08-2.83,22.73-.91l-13.91,1.17,0.06,0.6,2.31,0.64-3.76,1.3,0,0.67h41.91q0,0.62,0,1.23h-44.37l0,1,7.11,0.4,0,0.81h-6.9l0,0.72c4.85,1.86,10.17.86,15.12,2.14l-7.13,1.13h0Zm58.2-58.92h-0.05l-0.21.55a0.9,0.9,0,0,0,.47-0.05c1.91-2.58,4.91-2.93,7.77-3.8a60.07,60.07,0,0,0-13.08-24c-7.9-9-18.37-13.67-29.23-17.69a2.83,2.83,0,0,0-2.26.64c-2.67,2.23-5.25,4.58-7.83,6.92a2.28,2.28,0,0,0-.9,1.44c1.65,4,3.42,8,5.15,12l0.54-.23-1.44-7.25c2.34,4.26,4.67,9.18,7.63,13.68,3.38,5.14,9.41,10.09,12.1,10.73-1.5-1.58-3-3-4.28-4.58a46,46,0,0,1-2.88-4.74l0.61-.41,4.14,4.6,0.8-.49c-0.75-1.36-1.51-2.7-2.23-4.07s-1.46-2.93-2.19-4.4c6.41,9.13,13.81,16.95,23.69,22.16-6.16-4.61-11.28-10-14.14-17.3,2.46,3,4.56,6.42,7.27,9.2C-59.15,1141.73-56.33,1145.29-51.56,1145.79Zm184.48-22.46,5.43,10.23c0.4,1.07.74,2.18,1.22,3.22a152.82,152.82,0,0,1,14.16,60.31,150.39,150.39,0,0,1-6.74,49.4c-0.24.76-.37,1.54-0.55,2.32l0.72,0.11c6.95-19.71,9-40.18,9.18-61l0.86,10.44c1.69-7.62-.8-14.79-1.7-22.14l-0.84,0V1184l-0.49,0-3.26-25.32,1.18,0.79c-1.17-4.77-2-8.95-3.26-13-1.17-3.86-1.54-7.87-5.42-10.85-2.48-1.9-3.35-6-4.77-9.14-0.59-1.32-.38-3-1.1-4.25a135.24,135.24,0,0,0-20.16-26.67c-10.11-10.19-19.74-21-33.76-26.36-6.16-2.33-12.09-5.3-18.11-8-2.19-1-4.35-2-6.52-3l0.25-.54,9.57,3.71c-5.35-4.23-20-10.34-23-10l2.32,1.72-0.25.51-11.73-3.94,2.83-.38c-3.82-1.32-7.21-2.83-10.76-3.65A143.13,143.13,0,0,0-17,1042.89,153.59,153.59,0,0,0-89,1068.33c-0.78.52-1.14,1.64-1.85,2.31-1.32,1.26-2.75,2.4-4.13,3.6l-0.28-.33c0.16-.38.33-0.75,0.49-1.13-18.23,11.79-49.07,44-59.18,89.39-2.79,12.56-5.26,47.77-2.16,52.4a142.68,142.68,0,0,1,2.91-44.29c3.17-14.33,6.51-28.63,13.46-41.75a8.38,8.38,0,0,1-.59,3.32c-9.33,25.59-14.19,51.89-13.35,79.23,0.36,11.67,3.12,22.68,7,33.56-11.89-45-5.87-87.43,17.52-127.59l-6.11,8.28c4.23-9.06,16.47-25.68,20-27.55l-0.38,2c2.41-2.57,4.52-4.88,6.68-7.13,2.32-2.42,4.69-4.8,7-7.19l-0.09.09c5.3-3.64,10.61-7.26,15.89-10.94,4.92-3.44,9.69-7.12,14.73-10.37a103.14,103.14,0,0,1,24.47-11.3c11.25-3.63,27.93-6.05,36-5.24-8.69.48-26.15,3-30.72,5.64,0.81-.13,1.24-0.16,1.64-0.27a149.18,149.18,0,0,1,51.59-4.43,192.31,192.31,0,0,1,24.82,3.94,148.84,148.84,0,0,1,75,42.72l-0.1-.1c3.63,4.28,7.44,8.43,10.83,12.88C126,1113,129.35,1118.23,132.91,1123.33ZM-61.52,1241.72l-1.55,1,12-13.7a89.46,89.46,0,0,1-3.43-9.14c-0.68-2.5-1.68-3.1-4.22-2.87-4,.35-8,0.09-12.05.09l-0.05-.34,3.36-1.42-2.67-.17-0.26-2.63a54.8,54.8,0,0,1-32.44,9.81,45.15,45.15,0,0,1-31-12.52c-1.39,6.06-1.39,6.06-7.29,6.07h-8.45c3,29.08,13.18,54.73,30.75,77.61l14.28-12,3,3.38c9.13-19.41,21.42-34.57,43.62-38.67l-3.61-4.51a13.78,13.78,0,0,1,2.66,1.63c2.24,2.18,4.33,4.5,6.52,6.72,1.61,1.63,3.3,3.19,4.95,4.79l0.32-.34-10.67-11.84,0.52-.47,1.81,1c1.61-2.55-.65-3.49-1.66-4.93Zm31.55-92a10.7,10.7,0,0,0-1.5-2.09c-2.55-2.19-5.17-4.29-7.77-6.42l-1.85,1.34c1.18,1.67,2.07,3.09,3.12,4.38,1.5,1.86,3.15,3.43,5.92,2.45,0.55-.19,1.33.25,2,0.4l0.13,1.61c4.77-2,9.46-3.93,14.1-6a2.84,2.84,0,0,0,1.64-1.68c0.32-5.23.46-10.48,0.66-15.84l4.77-1.07c-8.82-19.57-11.06-38.93.76-58.27-1-.07-1.8-0.18-2.58-0.17-4.16.07-4.23,0-4.45-4.19-0.21-4-.47-8-0.71-12-16.06-1.4-65,18.46-79.28,32.1l3.36,3.09L-91,1087l-1.68-3.38,0.49-.4,11.08,8.7-4.16,7.84c10.91,1.36,19.74,6.82,27.31,14.51a66.82,66.82,0,0,1,16,26.84c3.74-3.36,3.88-3.36,7,.1,1.92,2.12,3.85,4.22,5.74,6.37,0.6,0.68,1,1.5,2,2.89Zm61.06,1.15c2.09,1.82,3.67,1.77,5.28-.13,2.07-2.45,4.18-4.86,6.23-7.33a8.06,8.06,0,0,0,.84-1.69l-0.57-.4a14.49,14.49,0,0,0-1.45.95q-5.21,4.33-10.39,8.69c0.6-4,3.85-6.07,6.53-8.48,3.5-3.15,4.68-3.17,8.49-.83,0.27-.56.55-1.11,0.82-1.67,7.53-16,19.6-27.43,35.58-34.87,2-.91,3.77-2.13,5.68-3.23l-4.54-6.05L95,1083.49c-22.87-18.29-48.54-29.36-77.74-32.19-0.27,4.93-.42,9.48-0.83,14-0.14,1.56-.95,3.05-1.69,5.31,7.39,18.55,5.38,37.55-3.57,56.28l4.14,0.59a4,4,0,0,1,.27.88c0.12,4.63.16,9.26,0.38,13.89a3.37,3.37,0,0,0,1.17,2.53C21.74,1146.93,26.43,1148.86,31.09,1150.86Zm14.19,25.23a13.45,13.45,0,0,0,.62,2.88,50.59,50.59,0,0,1,4.58,27.57,40.47,40.47,0,0,0,0,4.87c2.13-6.17,2-12.5.73-18.62-1.09-5.41-3.37-10.59-5.12-15.87a14.77,14.77,0,0,1,2.62,2.12,17.69,17.69,0,0,1,1.75,3.29c0.46,0.93.86,1.88,1.29,2.82l0.73-.32-6-14.2,0.3-.16,5.14,8.35a1.89,1.89,0,0,0,0,.53c5.77,15,5.92,29.84-.93,44.57a4.35,4.35,0,0,0,.66.79c1.26-2.7,3-5.06,3.44-7.64a103.62,103.62,0,0,0,2.09-18.22,41.67,41.67,0,0,0-5.09-20.21,22.35,22.35,0,0,0-.92-2.48c-14.93-29.33-49.75-39.45-78.22-22.92-5.9,3.42-10.6,8.13-15.4,12.74a23.45,23.45,0,0,0-6.65,9.92c3.58,0.6,3.44-3.5,5.86-4.12-3,5.29-7.45,9.88-7.73,17.19l1.79-4.73c-3.44,17.41-1.63,33.77,9,49,0-2.09.31-3.64-.08-5-0.44-1.5-1.6-2.77-2.31-4.2-6.54-13.13-7.63-26.65-2.45-40.43,1.51-4,3.9-7.72,5.89-11.57l0.68,0.35c-6.7,13-7.73,22.64-7.4,31.06,1.21,31,30.07,48.46,55,44.24,29.29-5,46.64-34.07,37.43-62.36C40.25,1165.63,22.32,1152.5,2,1153c-12,.32-22.57,4.85-32.35,11.51-0.8.55-1.67,1-2.51,1.48l-0.58-.8c2.18-1.9,4.22-4,6.55-5.67,16.46-12,40.69-11.25,58.42,1.61l0.26,0.13c5.31,3,8.6,8,12.37,12.47A10.75,10.75,0,0,1,45.28,1176.09Zm56.8-151.78a13.54,13.54,0,0,0-1.59-1.32,153.73,153.73,0,0,0-55.84-20.23c-6-1-12-1.89-18-2.47-7-.68-14-2.77-21.21-0.82a7.48,7.48,0,0,1-2.67-.07c-13.32-1.45-26.48.11-39.27,3.44A221.09,221.09,0,0,0-90,1025.07c-0.79.45-1.62,0.85-2.43,1.27l-0.62-1.11c7.51-5,15.56-9,23.53-13.19-33.54,12-62.16,31.28-84.92,58.82-21.08,25.51-34.42,54.77-41.26,87.05a7.31,7.31,0,0,0,1.18-2.29c6-15.85,11.85-31.77,19.76-46.8,10.07-19.13,22.52-36.45,39-50.71,0.71-.62,1.47-1.18,2.21-1.77l0.28,0.37-3,3.54a4.08,4.08,0,0,0,2.06-1.15c9-7.46,17.52-15.48,27-22.18,7.23-5.1,15.48-8.88,23.57-12.63,37.11-17.17,76-22.11,116.33-16.17a198,198,0,0,1,80.72,30.59c1,0.67,2,1.39,3,2.09l-0.43.56c-0.81-.51-1.6-1-2.42-1.52-6.08-3.57-12-7.49-18.27-10.65-39.48-19.88-81.14-25.87-124.7-19a189.87,189.87,0,0,0-79.05,31.16c-36.08,24.83-59.61,59-73.36,100.19-2.16,6.48-3.78,13.14-5.74,20,1.16,0,1.76,0,2.37,0,9.09-.58,18.17-1.25,27.26-1.72,2.24-.12,2.95-1.11,3.47-3.1,7.66-29.24,22.18-54.54,44.46-75,33.52-30.77,73.23-45.09,118.61-41.05a170.69,170.69,0,0,1,82.26,29.4,161.67,161.67,0,0,1,60.95,77.24c2.41,6.3,4.25,12.83,6.35,19.26l26.69-4.62,0.23,1.32-26.45,5,3.57,28,33.94-3q-8.4-92.31-80.67-150.09c42.74,30.89,68.14,72.85,79.31,124-0.84-6.12-1.88-12.2-3.17-18.23-0.38-1.79-1.58-3.39-2.21-5.14-2.76-7.62-5.27-15.33-8.23-22.87-2.28-5.81-5.34-11.31-7.64-17.11A86.37,86.37,0,0,0,158.6,1079c-0.52-.6-1-1.26-1.45-1.89l-0.47.52L168.89,1095l-1,.74c-0.61-.75-1.25-1.48-1.84-2.24-4.08-5.31-8.1-10.67-12.27-15.92-1.32-1.66-2.08-3.1-.45-4.9a0.54,0.54,0,0,1,.26,0,10.81,10.81,0,0,1,1,.8,72.62,72.62,0,0,1,17.74,24.29c1.68,3.84,3.6,7.56,5.4,11.35,5.74,12.08,11.56,24.13,17.15,36.28,1.6,3.49,2.5,7.31,3.72,11a199.63,199.63,0,0,0-40.19-83.14l1.11,3.19c-4.16-5.77-7.49-11.3-11.72-16A168.9,168.9,0,0,0,111,1029.54c-1.8-1.12-3.68-2.13-5.52-3.19Zm-13.51,89.23L89,1114l-5.41,8.64,0.59,0.75a5.75,5.75,0,0,0,1.79-1.15c1.47-2.13,2.82-4.34,4.18-6.54,0.68-1.11,1.28-2.28,1.92-3.42l1.08,0.65-6.66,11.28a1.36,1.36,0,0,0,.79.1,23.18,23.18,0,0,0,8.93-11.89l0.52,2,2.39-.79c-6,21.74-21,33.28-41.1,39.68,0.69,0.87,1.27,1.64,1.89,2.38,2.64,3.18,2.66,3.62-.35,6.54s-6,5.62-8.55,8c2.16,5.14,4.13,9.53,5.83,14,0.62,1.62,1.32,2.11,3.06,2,4.19-.18,8.4-0.08,12.6-0.1,2.17,0,3.31.9,3.15,3.24-0.12,1.69,0,3.4,0,5.58a48.12,48.12,0,0,1,29.56-8.23,51.23,51.23,0,0,1,28.36,10.31c0.2-1.09.36-1.79,0.44-2.49,0.65-5.66.64-5.67,6.28-5.68H151a153,153,0,0,0-35.42-85.37l-1.79,2.47c2.88,0.72,3,1,1.17,2.94-2,2.08-3.95,4.13-5.9,6.22-3.69,4-4.71,4-8.25.14l-11.57-12.5-19.59,12.33c3.17,1.81,5.84,3.2,8.35,4.82,1.58,1,2.67.82,4-.45C84.09,1117.5,86.36,1115.55,88.57,1113.54ZM-112.26,1101c-20.3,24.48-32.7,51.66-36.83,82.94h13.55l1.69,10.45a14.16,14.16,0,0,1,2.7-2,72.55,72.55,0,0,1,8.32-2.92c16.71-4.35,32.92-2.24,48.76,4l3.54,1.39v-6.5l1.12,0,1.76,19.53,0.54,0v-17.37h0.88v19l1.07,0.16a16.57,16.57,0,0,0,.82-3.15c0.34-5.3.57-10.61,0.84-15.91l0.61,0,0.82,13.77h0.39v-11.57l0.49,0,1.33,15.47,1.11-.06V1192.7l0.67,0,0.34,3.83,0.4,0,1.38-8.64H-69.37a4.57,4.57,0,0,1,2.54-1c3.2-.24,6.42-0.35,9.61-0.65a2.72,2.72,0,0,0,2-1.09c2.31-5.19,4.48-10.44,6.78-15.89l-9.86-11.12,3.4-2.87c-2.1-1.21-3.57-2.15-5.13-2.93-3.58-1.8-7.4-3.2-10.77-5.33-12.73-8-22.12-18.77-26-33.7-0.28-1.07-.5-2.15-0.82-3.54-1.73,1.36-3.06,2.56-4.54,3.51a2.41,2.41,0,0,1-2.17.16c-2.79-2.36-5.46-4.87-8.13-7.38a16.4,16.4,0,0,1-1.62-2.41l3.43,1.75,0.61-.5Zm95.81,171.82a21.69,21.69,0,0,1-.58-3.15c-0.14-3.75-.13-7.5-0.31-11.24a2.64,2.64,0,0,0-1.15-2c-4.1-1.94-8.27-3.72-12.39-5.55-1.46,1.57-3,3.3-4.61,5s-3.31,3.25-5,4.84-3.12,1.39-4.47-.24a20.31,20.31,0,0,1-1.64-2.71c-6.88,20.66-20.31,33.88-38.86,42.44a3.93,3.93,0,0,0,.38.83c3.45,4.07,3.46,4.07-.17,8.23-0.65.74-1.32,1.46-2,2.2l-6.47,7.32a155.42,155.42,0,0,0,79.46,32.63v-16.82h0.49l0.85,3.23,2.17-2.81-1.52-.71,3.91-1.08a72.74,72.74,0,0,1-8.13-29.72c-0.63-10.42,1.09-20.4,6.51-29.73ZM116,1297.92c16.58-17,36.84-64.48,33.89-79.54-4.6,0-9.23,0-13.86,0-1.83,0-3.68-.15-3.43-3a55.31,55.31,0,0,1-29.62,4.44,56.65,56.65,0,0,1-27.7-11.32l-0.64,9.23c-5.38-.42-10.34-0.84-15.3-1.16a2.4,2.4,0,0,0-1.93.73c-2.27,4.91-4.41,9.88-6.5,14.66,3.08,3.39,6.1,6.78,9.2,10.12,1.36,1.47,1.3,2.79,0,4.2-0.83.88-1.58,1.82-2.63,3,0.86,0.07,1.27.14,1.68,0.13,6.83-.11,12.73,2.38,18,6.5,7,5.49,12.17,12.55,16.19,20.41,2.5,4.89,4.59,10,7,15.2l3.62-2.94ZM15.49,1351.58a151.8,151.8,0,0,0,76.84-30.71l-9.85-11.33,4.83-5.67a78.26,78.26,0,0,1-25.94-16.72c-7.56-7.37-13.12-15.93-15.78-26.7l-5.79,5.49-11.46-12.28-14.26,5.42c0,3.3,0,6.77,0,10.25,0,4.72,0,4.71-4.81,4.9a12.17,12.17,0,0,0-1.47.27c10,18.69,10.1,37.75,3.2,57.42h4.5v19.67ZM-180,1273.2c3.48-2.45,6.29-4.33,9-6.38a3.79,3.79,0,0,0,1-2.22c0.63-3.46,2.75-5.34,6-5.11l0.51,2.11,12.25-6.7-8.61-38.58-32,5.1,4.18,26.67c5.39-2.53,10.17-4.89,15-7s9.65-4,14.49-6l0.34,0.71c-0.51.3-1,.64-1.54,0.89l-25.46,11.85c-1,.46-2.45.53-1.94,2.26C-184.48,1258.05-182.29,1265.38-180,1273.2Zm340.1,10-9.72,15.75,3.3,3,5.24-7.31,0.65,0.45c-1.19,2-2.28,4.17-3.61,6.12-0.94,1.39-1,2.35.2,3.67a49,49,0,0,1,3.67,4.92l-0.64.48-5-5.93-8.16,11.47,6.51,7.68c10.15-8.89,31.43-45.75,32.55-56.06l-29.6-21.77c-2.85,7.22-5.48,14.23-8.41,21.11-0.81,1.9-.4,2.8,1,4,6.29,5.43,12.5,10.95,18.72,16.44,1.68,1.48,3.33,3,5,4.5l-0.76.81ZM161,1220c-1.74,7.87-3.48,15.49-5.05,23.15a3,3,0,0,0,1.22,2.22c3.94,2.92,8,5.68,12,8.57,5.53,4,11,8.14,16.73,12.36a163.56,163.56,0,0,0,8.79-36.82Zm-444.46-19,1.15-1.15c1.28,1.08,2.55,2.16,3.84,3.23s2.54,2.76,4.48.75l-1-2.85a5.49,5.49,0,0,0,6.66,1.14l-0.11-1.2H-258l-1.74-3,0.46-.25,4.65,3.9,0.47-1.79,6,2.82,0.29-.61-1.4-3.21,1-.85,3.61,5.12,0.69-.62-1.79-4.57,0.45-.19,3,6.18,0.49-.2-0.35-4.19,0.38,0,4,10,0.64-.23-2.56-9.54,0.72-.21c1.86,4.42,4,8.82,4,13.73,0,2.19.87,2.5,2.8,2.65-4.49-10.32-3.87-20.29.91-30.16a1.93,1.93,0,0,0-.73,0c-7,5.66-15.08,6.12-23.37,4.31-6.52-1.42-12.88-3.61-19.37-5.16-13.1-3.14-23.78.83-30.66,11.3-0.51.78-.81,2.46-0.36,3,3.41,3.86,6.94,7.63,10.65,11.2,1.18,1.14,3,1.6,4.53,2.37-10.59-8.91-12.58-11.06-12.66-14.74a24.84,24.84,0,0,0,2.43,2.77,6.3,6.3,0,0,0,2.22,1,13.26,13.26,0,0,1,2.69.62c1.82,1,3.52,2.32,5.26,3.49l1.13-1.34-4.17-2.58,0.67-.75,7.12,5.64,0.44-.57-3.4-4.07,0.93-.84c1.1,1,2.16,2.15,3.31,3.13s2.21,1.67,3.32,2.5l0.57-.76-5.3-6,0.39-.34,6.77,6.29,1.15-1.23Zm235.26,56.16-8.8-9.9c-3.64,1.6-7,3.2-10.5,4.6-13.93,5.65-23.58,15.73-30.2,29-2.69,5.38-2.69,5.37,2.27,9.76L-83,1280.36l0.16,0.21-5,5.68,1.27,1.16,9.11-10.51,0.73,0.71-7.79,9.17c2.68,1.52,4.41,0,6.11-1.75s3.38-3.19,4.91-4.92c3.16-3.59,6.21-7.29,9.31-10.94l0.61,0.43-9.31,13,1.41,0.65-7.89,6.11c10.22-5.41,17.5-13.72,23.72-23.28l-5.26,9.88C-53.41,1271.6-52.84,1263.1-48.18,1257.16Zm-104.53-230.59c-10.06-1.3-16.22-7.63-21.2-15.53-1.91-3-3.55-6.22-5.61-9.13-3.39-4.8-6.62-9.81-10.65-14-6.57-6.88-14.93-8-24.46-5.64l4.23,11.23,0.84-.22v-4.47c1.75,4.27.75,9.47,5.09,12.89l-1-6.63,1.06-.22,3.47,11.58,0.66-.21L-202.21,994l0.57-.08,3.59,8.55,0.79-.23v-3c1,1.83,1.26,3.79,2,5.52a36.22,36.22,0,0,0,3.09,4.89l0.58-.35-0.43-5.61c2.34,3.27.74,8.21,5.23,10.45l0.57-2.63c2.71,2.48,1.15,8,6.22,7.83l1.84,4,2.3-2.11c0.17,1.53.24,2.53,0.4,3.51,0.13,0.77.11,1.88,0.6,2.23,3.07,2.26,2.38,6,3.72,8.94l-1.79-1.9-0.62.34,2.05,6.57C-166.56,1034-160.57,1029.15-152.72,1026.57Zm-3.24,134.9-32.05,1.44-4,29.05a5.45,5.45,0,0,0,1.37.5c9.91-1.1,19.82-2.2,29.72-3.41a2.53,2.53,0,0,0,1.28-1.85c0.55-4,.84-8,1.41-12C-157.58,1170.69-156.74,1166.15-156,1161.47ZM12.8,1088.88c-0.68-6.56,1.66-13.3-1.64-20.13-5,0-10.16-.06-15.32.06a2.79,2.79,0,0,0-2.1,1.39c-3.74,9.8-6.56,19.83-6.44,30.45,0,2.43.48,4.85,0.74,7.28,0.24-3.53.06-7,.29-10.43s0.88-6.87,1.35-10.3l0.71,0.08c-0.06,10.3-.76,20.69,3.74,30.05v-22.06h0.24l3.31,29.45,1.09-.08v-26.31h0.68c0.18,2.47.37,4.93,0.52,7.4s0.12,5.18.42,7.74c0.27,2.34.87,4.64,1.32,7l0.22-.08,1.2-19.71,0.62,0L6,1117.17l1,0v-16h1.1l1.15,11.89c3.33-9.3,1.11-18.46,1.49-27.43l0.67,0ZM195,1227.56c1-11,1.9-21.78.83-32.52l-33.7,2.47c-0.43,6.87-.9,13.53-1.21,20.21a2.35,2.35,0,0,0,1.43,1.72C173.07,1222.16,183.81,1224.79,195,1227.56Zm-355.88,144.68a36.4,36.4,0,0,1-13.87-18.49c-1.19,10.07-7.53,16.22-15.39,21.24-2.33,1.49-4.82,2.75-7.08,4.33-5.32,3.73-10.9,7.2-15.72,11.51-6.93,6.21-8.41,14.42-6.47,23.32a2.8,2.8,0,0,0,1.55,1.72c2.13,0.78,3-.2,3.28-2.4,0.66-5.08,1.56-10.12,2.37-15.18l1,0.17-2.5,16.41c2.09-.27,3.35-1,3.44-3.15a42.78,42.78,0,0,1,.65-5.31c0.54-3.24,1.16-6.47,1.75-9.71l0.88,0.16-2.56,15.92c2-.74,3.21-1.64,3.16-3.86a48.6,48.6,0,0,1,.48-6.94c0.29-2.33.78-4.63,1.18-7l0.93,0.16-1.6,14.3c2.74-1.56,2.87-1.85,3.14-5.61,0.33-4.42.2-8.93,2-13.1l0.71,0.08-1.61,14.54c2.19-2.37,3.79-4.22,3.65-7.28a67.7,67.7,0,0,1,.63-8.63l0.88,0.07v8.51c3.67-2.68,2.84-6.48,3.18-10l0.59,4.48c4.28-4.24,2.52-10.05,5.33-15l0.75,6.19,0.78,0.27,3.28-6.33,0.53,1.37,0.7,0,2.92-9.86,0.58,0.11,0.74,6c5-.72,1.38-4.63,2.87-7.16l1.06,5.64,2.82-.86-0.54-3.59,0.64-.17,2.52,5.42ZM306,1204.82l0.51-.48c-1.67-2.15-3.24-4.39-5-6.44-6.54-7.51-14.6-11.9-24.78-10.5a98.52,98.52,0,0,0-15.55,3.88c-8.58,2.66-16.68,2.43-24.29-2.85a30,30,0,0,0-4.45-2.13c2.78,6.36,2.76,12.87,2.37,20.1l6.83-9,0.52,0.35-4.45,7.61c5.68-.58,7.08-5.88,11.27-7.46l-4.84,5.69,0.8,0.74,5.62-5.92,0.52,0.43-2.51,4.31a3.73,3.73,0,0,0,4.72-1.56,55.46,55.46,0,0,1,4-4.46l0.77,0.7-3.94,5.34a3,3,0,0,0,4-2.64c0.34-2.28,1.65-2.09,3.68-2.6l-3.33,5.29c2.43,1.13,3.83.28,5.16-1.58,1.6-2.24,3.54-4.23,5.33-6.33l0.85,0.69-5.57,7.81c2.46,0.71,2.23.54,3.42-1.1a42,42,0,0,1,4.56-4.66l0.85,0.76-2.86,4.5,0.4,0.25,7.14-5.23,0.58,0.73-3.26,4.64,0.4,0.38,7-5.74,0.72,0.79-4.73,6.41c2.52,1.27,3.44-.13,4.48-1.77a30.77,30.77,0,0,1,3.29-3.73l1,0.76-3.45,5.19c2.91,1.21,3.66-1.18,5-2.62,0.93-1,1.92-2,2.89-3l0.87,0.67-2.85,4.83,0.33,0.21,5.57-4.81,0.63,0.44-2.35,4.32c4,0.58,3.5-4.87,7.28-5.31l-2.18,4.13C301.42,1203,303.72,1203.55,306,1204.82Zm-474,92.95c9.28-6.62,18-12.8,26.62-19.1a2.62,2.62,0,0,0,.26-2.38c-1.69-3.83-3.59-7.57-5.31-11.39-1.3-2.89-2.43-5.85-3.72-9-2.93,2-5.67,3.85-8.3,5.81a2.39,2.39,0,0,0-.69,1.95c0.39,2.35-.16,4.31-2.14,5.65-2.16,1.46-4.36,1.12-6.54-.19a2.63,2.63,0,0,0-2-.41c-3.16,1.62-6.23,3.41-9.74,5.37Zm173.34-1.6,1.19,0v29.36l0.84,0c0.08-.92.14-1.85,0.24-2.77,0.6-5.59.83-11.26,2-16.74a25.64,25.64,0,0,0,.4-9.84c-0.4-2.3-.7-4.62-1-6.93l0.71-.16,2.69,9.36c-0.32-8.19-2.65-15.83-5.8-23.25a2.13,2.13,0,0,0-1.61-1c-4.62-.08-9.25,0-13.82,0-5.67,14.93-4.07,36.61-1.13,43.34v-33c1.53,12.66,1.61,25.49,4,38,0.7-5.21,1.36-10.37,1.74-15.56,0.39-5.35.51-10.71,0.75-16.07,0.91,12.07-.36,24.22,1.15,36.25h1v-14.73h0.59l1,5.87,0.85-24.54,2.73,33.41H4.21Zm80.7-4.39,1-.87-6.66-8.61,0.45-.39,4.65,4.11,0.32-.36L82.62,1281l0.56-.45L94.33,1293c-0.39-1.37-.59-2.19-0.86-3a55.37,55.37,0,0,0-9.43-16.4c-0.53-.67-0.46-1.82-0.66-2.75l0.79-.34c-2.62-3-5.54-5.89-7.79-9.18-3.1-4.53-7.59-6.55-12.31-8.84-5.82-2.84-9.69-1.66-13.69,3-3.78,4.43-4.12,4.18-1.43,9.45,1.5,2.94,3,5.88,4.72,8.71s3.48,5.25,5.23,7.87l0.29-.21L52.08,1264c2.87,3.74,5.13,7.91,8.1,11.47s6.65,6.51,10,9.73l0.33-.43-9.15-15.53,0.75-.44c1.62,2.45,3.18,4.95,4.89,7.34s2.94,5.08,5.51,6.63c-0.21-2-4.11-3.35-.5-5.66l-1.52-2.63,0.58-.42Zm21.32-82.41,0,0.27a28.69,28.69,0,0,0,3.27.19c5.42-.27,10.85-0.52,16.26-0.94,6.16-.48,6.22-0.56,6.46-6.84a4.1,4.1,0,0,0-1.2-3.1c-17.67-12.32-36.14-12.68-55.14-3.38a3.16,3.16,0,0,0-1.39,2.21,56.18,56.18,0,0,0-.07,5.72c17.09,3.29,33.81,3,50.55,2.45l0.07,0.91Zm-299.12,10.21,32-5v-24.52c-10.7,3.4-21.23,4.08-32,3.51v26ZM81.49,1357.81l-9.75,4.68,4.39,10.11-0.77.36c-1.41-2.82-2.87-5.61-4.22-8.46-0.73-1.54-1.47-1.46-2.49-.41,1.74,3.32,1.56,6.37-.82,7.74a6.56,6.56,0,0,1-4.49.58c-1.37-.35-2.48-1.72-3.76-2.67L63,1382.94l-0.72.24-2.63-7-13,4.4,1.3,7.6c0.69-.07,1.2-0.1,1.71-0.18,10-1.58,19.25-6,29.26-7.71,4.43-.77,8.45-3.86,12.74-5.93Zm120,31.41,0.78-1c2.12,1.78,4.19,3.62,6.37,5.32a10.76,10.76,0,0,0,2.5,1.09l0.35-.73a26.35,26.35,0,0,0-9.41-9.28c-4.3-2.55-8.7-4.9-13.06-7.35-6.33-3.55-10.49-8.71-12-15.92a60.17,60.17,0,0,0-2.08-6.35,37.58,37.58,0,0,1-12.45,15.78l22.4,16.94c-0.17-.84-0.07-1.89-0.55-2.4-3.81-4.13-7.73-8.17-11.62-12.23l-1.67-1.77,0.86-.84,26.79,26.68c-2.25-4.51-6.43-7.51-9.32-11.51a48,48,0,0,1,8.74,5.69c3.43,3.1,6.41,6.7,9.58,10.09l3.85,4.14a5.45,5.45,0,0,0-.73-2.91c-0.28-.62-0.92-1.61-0.72-1.83,1.53-1.68.11-2.93-.7-3.93a71.76,71.76,0,0,0-5.52-5.79A27.21,27.21,0,0,0,201.5,1389.22Zm-52.85-91.76,10.78-15-13.67-12.53a171.05,171.05,0,0,1-27.66,40.9l4.9,4.59,8.65-10.15-2.26-2.89,0.45-.38,2.75,2.08,7.65-10.23-2.17-1.68,0.21-.42,2.9,0.73,8.47-12.75,0.64,0.41-7.49,13.44Zm-285.76.62-9.16-13.45-20.94,14.2L-155,1317Zm248.53,50.56,6.68,8.74c12.59-9.54,22.86-21.12,33.29-32.2l-6.79-7.48L135.52,1328l4.88,5.45-0.44.41-5.42-4.82-10.31,9.78,2.93,3.62-0.57.51a30.78,30.78,0,0,1-2.28-2.08c-0.91-1-1.67-1-2.73-.15C118.33,1343.36,115,1345.89,111.42,1348.64ZM-136.13,1350c-23.35-25.26-41.65-53.39-52.23-86.38a199.05,199.05,0,0,1-5.86-100.85,160,160,0,0,0-6.09,39.58c-0.79,22.91,5.51,44.64,10.93,66.45,4.82,19.4,15.28,36.33,27,52.27,6.51,8.89,14.52,16.68,21.91,24.91A59.16,59.16,0,0,0-136.13,1350Zm246-.29L97,1357.5l5.85,9.1-0.56.4c-1.87-2.44-3.69-4.93-5.66-7.29a2.7,2.7,0,0,0-2.21-1c-2.62,1.06-5.13,2.39-7.91,3.73L92.84,1374,117,1358.55Zm-216.79-9.27-12.06-9.65c-2.08,2.19-4,4.26-6,6.3s-3.95,4-6.07,6.16c3.48,3,6.75,5.86,10.15,8.59a2.51,2.51,0,0,0,2.41,0C-114.63,1348.18-110.9,1344.37-106.94,1340.43Zm36.74,29.08c-4.69-2.2-5.21-3.79-3-8.77l-9.7-4.93-8.18,16.42,16.31,8.26,1.47-3.55-12.25-7.14,0.22-.4,12.67,5.81ZM-157,1085.77l-0.41-.34a3.63,3.63,0,0,0-.6.51c-0.71.92-1.41,1.85-2.08,2.79a231.25,231.25,0,0,0-23.95,42.93c-4.18,9.67-8.39,19.41-9.49,30-1,9.49-1.64,19-2.37,28.53a5.9,5.9,0,0,0,.81,2.18,8.1,8.1,0,0,0,1-2.11c1.31-9.27,2-18.67,3.94-27.8a205.85,205.85,0,0,1,30.28-72.37C-158.93,1088.69-158,1087.23-157,1085.77ZM-118.49,1354l13.83,10,9.84-15.27-10.12-6.86Zm321.7-172.07c0.15,2.56.48,5.13,0.41,7.69-0.2,7.49-.55,15-0.87,22.45a178,178,0,0,1-5.19,36.74c-4.53,17.71-13.11,33.88-19.16,51-0.36,1-.88,2-1.32,3C198.92,1268.25,208.66,1225.25,203.21,1181.93ZM-145,1329l11.23-12.5-8.5-9.64-12,11Zm12.9-10.89-12.18,12.18,11.63,11.11,12-12.11-1.07-1.48c-3.81,3.44-6.09,3.77-8.5,1.53s-2.31-4.9.64-8.44Zm39.08,31.7-10.66,14.77,11.3,6.83,7.95-16.53Zm105.33,11.25v23.24l8.25-.69v-23.26ZM-71,1375.93c4.43,1.78,8.37,3.41,12.37,4.89a2.05,2.05,0,0,0,1.88-.66c1.66-3.41,3.16-6.9,4.79-10.53l-12.55-4.88ZM189.51,1015.2l1.33,0.21a10.68,10.68,0,0,0,.8-2.5c0.46-7,.84-14.08,1.23-21.12,0-.58-0.06-1.17-0.11-2.08-5,2.71-7.76,7-10.72,11.26-1.78,2.55-.46,4.71-0.28,7.07,0.31,4,.53,8.05.79,12.08l0.79,0.15a14.07,14.07,0,0,0,.62-2.86c0.06-5.71,0-11.42,0-17.13h1.11v18c2.4-.67,3.5-1.47,3.2-3.54A40.64,40.64,0,0,1,188,1010c-0.06-2.5-.13-5-0.05-7.5s0.35-5,.53-7.43l1,0v20.14ZM56.82,1367.39l-1.36-4.34-11.6,3.81,2.57,12.23,13-3.68-2.27-7-3.34.92-0.13-.34ZM-44,1385.88l4.82-12.18L-50,1370.36l-5.37,11.74Zm128.34-77.53-0.2,1,10,10.77,21.37-20.56-2.66-1.72-0.76,2.67c0.75-4.71-3.27-5.65-5.64-8.16-1.44,4.68,4.41,5.3,4.35,9.3l-2.34-1.41-1.28,6.09-1.41-2.87-1.14,4.57-3-4-1,.42,0.88,5c-2.24-1.68-1.33,1.66-2.71,1.95-0.2-2,.88-4.46-2.93-5.67l1.92,7.33-2-1.46-0.53,1.67c-0.84,2.64-1.27,2.78-3.32.86-1.75-1.63-3.33-3.45-5.12-5A6.44,6.44,0,0,0,84.33,1308.35ZM-97.85,1327.8c-2.92-2.45-5.76-4.51-8.2-7-4.92-4.93-11.93-7.58-15.17-14.65l-3.54,4.07,24.18,21.87Zm132.16,53.93-1.68-12.2-10.52,1.79,0.58,12.18Zm-19.8,51.82c-5.9,3.21-12.21,2.71-19.08,2.62l3.63,3.3,0.79-1.66,4,2.15-0.15.46H1.37L6,1447.1,5,1448l-3.53-5.46-1.34,1.2,7.53,10.31C6.87,1446.13,12.1,1440.41,14.51,1433.55ZM3.58,1379.89l6.33,0.59,1-19.11H3.48V1371l2.83,0.87,0,0.52-2.68.57v6.92Zm-11.44-.13v12.88c2.88,0.16,5.79.41,8.7,0.42a2.21,2.21,0,0,0,1.61-1.44c0.15-3.42.08-6.86,0.08-11.06C-1.54,1383.71-4.24,1380.38-7.86,1379.76Zm153.13-164.93-3.77.75-6.05-1.81,5.56-.48V1210l-6-.66-0.47,7.5c5,0,9.67.06,14.29-.07a2.46,2.46,0,0,0,1.83-1.49c0.27-7.65.41-15.31,0.49-23a2.18,2.18,0,0,0-1.11-1.71c-2.52-.16-5-0.08-7.72-0.08,1,2.25,3.49,2.4,6,.56,2.25,6.92,1.52,13.82,1.1,20.85l-2.21-1.89ZM-29.52,1376.19l-8.13-2-4.94,12.12,9.64,2.49Zm19.38,16.28c0-4.22,0-7.95,0-11.67a1.7,1.7,0,0,0-1-1.28c-2.17-.4-4.36-0.62-6.71-0.93l-2.42,12.61Zm-121.76-74.79c2.24,1.11,4.06,2.16,6,2.93s3.53,1.45,4.18,3.67a25.89,25.89,0,0,0,2.12,4.27l5.23-4.72-11.49-12.49Zm-4-20.56,4.69-4.18-8.33-13.5-6.31,4.79Zm351.24-79.45c4.16,1.25,4.19,1.2,5.38-2.48,2.55-8,2.75-16.13,2.36-24.36a2.59,2.59,0,0,0-.94-2c-2.46-1.12-4.57.34-4.43,3a5.56,5.56,0,0,0,.9,1.87l2.06-1.53-2,21.49-0.72,0-0.22-3.21C215.4,1212.47,216,1215.14,215.35,1217.68Zm-356.91,89.15,8.57,9,5.59-5.95-7.86-9.41ZM36,1381.37l8.94-1.91-2.56-12.24-8.21,2.05Zm-63-4.64-3.9,12.47,9.06,1.73,2.07-12.72Zm224.34-148,1.18-.17a28.3,28.3,0,0,0,.53-2.82c0.35-3.91.83-7.82,0.91-11.73,0.23-12,1.17-24.15-2.81-35.89a61,61,0,0,1-1.48-6.6,6.08,6.08,0,0,0-.09,2.65c0.79,7.62,2.07,15.24,2.23,22.87,0.2,9.61-.53,19.24-0.82,28.86A18.19,18.19,0,0,0,197.26,1228.7ZM-0.63,1424.19H12c0-5.68,0-11.09-.07-16.5,0-.37-1-0.73-2-1.42l0.68,2.19-2.42-.67-0.32.58,3.23,2.53-0.79,5.19-3.46-2.47-0.55.45,0.91,2.32-1.44,5.12c-1.82-1.71.56-4.91-2.71-6.42v5.21L-0.24,1418Zm167.76-389.41c2.28-2.55,2.61-9.76.45-13.2L154,1026.17ZM-105.71,1339l4.16-5.4-11.3-9.37-5,5.36ZM-1.05,1130.94l1.1-.15c0.17,2.18.21,4.37,0.57,6.52,0.14,0.81.91,2.06,1.53,2.15a37.92,37.92,0,0,0,5.71.1l-1-8.59,0.93-.12,1,8.13c3.57-3,1.14-6.34,1.22-9.63l-5.28.37v8.74a9.28,9.28,0,0,1-.95-4C3.51,1129,3.53,1129-2,1129.55a10.3,10.3,0,0,0-1.41.35c0.18,2.66.27,5.23,0.57,7.79a5.71,5.71,0,0,0,1.15,1.92c0.38-.72,1.07-1.45,1.07-2.16C-0.59,1135.28-.87,1133.11-1.05,1130.94Zm32.56,227.95c-3.12.42-5.94,0.72-8.73,1.24a2.06,2.06,0,0,0-1.2,1.59c0.07,2.92.34,5.84,0.56,9.07l10.35-2.55ZM-54,1206.38c-1.72,17.71,18.39,44.71,34.15,46.63C-43.75,1235.37-50.43,1226.36-54,1206.38Zm76.75,186.13,13-1.75-1.34-7.64-11.7,1.46v7.94Zm-30.71-31.18v8.28l10.34,1.45v-9.73H-7.93Zm-56.1-5-15.27-7.92-2.85,5.76,15.88,6.82Zm107.5,8.74,11.48-4-2.11-7.56-11.22,3.24Zm41.92-36.41c17.42-6,54.82-50.17,55.43-65.49C128.36,1290.49,109.7,1312,85.38,1328.69Zm32-17.22-10.08,10.61,4.7,4.41,10-10.09Zm21.2-1.26,9.36-11.83-5.89-3.83-7.57,10.69Zm-128,39.63-0.41-.24,2.23-8.37c-3.52,1.74-3.07,4.42-3.56,6.8l-0.43-2.75-5.78,6.11,1.47-6.67c-3.59,1.2-3.44,3.75-4,6l-0.68-2.17-1.2.39,1.33-3.84c-3.16,1.5-4.53,3.69-3.61,6.76,5.48,0,10.82,0,16.16-.06a2.34,2.34,0,0,0,1.77-1.36,32.58,32.58,0,0,0,.09-5Zm-106.05-32.39L-84,1304.67l-1.67-1.53-7.47,9.36-0.59-.48c1.23-4.74,1.23-4.74.44-6-2.76,1-.9,3.38-1.35,5.55l-1.08-2.93h-0.54l-0.4,2.38-1.79-.65-0.52-6.82-5.45,6Zm34.89,31.63-15.63-7.35-2,4.84,15.25,7.6Zm214.39,7.58-0.63-.26-2.22,4.31c-0.94-.38-2,0.41-3.16,1.93a45.21,45.21,0,0,1-4.55,4.41l-0.51-.56,1.93-2.74c-0.72-1.06-1.77-2-2-3a22.61,22.61,0,0,1,.15-4.94l-1.46.61,1-3-0.94-.44c-0.62,1-1.76,2.09-1.76,3.13a76.72,76.72,0,0,0,.81,8.78,3.27,3.27,0,0,0,5,2.7A62.64,62.64,0,0,0,162.7,1354a12.46,12.46,0,0,0,.95-1.34l-0.41-.34-8.58,7.4ZM-71.56,1210.57c-13,4.51-26.24,6.8-40.11,5.17l0.09,1.08H-94.9l0.08,0.67c-1.16.23-2.31,0.51-3.47,0.68s-2.44.27-3.66,0.39C-90.58,1220.61-80.76,1216.77-71.56,1210.57Zm177.76,112-9.62,7.93,4.55,5.09,9.62-8.08ZM-12.23,993.42l1.1,0.42a7.5,7.5,0,0,0,1-2.55c0-2.74-.32-5.48-0.51-8.22l0.53,0,0.94,9.45,0.87,0.35c0.41-.7,1.16-1.39,1.16-2.09,0-2.94-.19-5.87-0.28-8.81,0-.85.1-1.71,0.15-2.56l0.6,0.05,0.61,5c3-1.41,3-3.67,2.51-6.17h-8.66v15.18Zm-33.5,360.82-13.34-4.63-2.26,5.25,13.36,5.07ZM67.18,1356L64,1349.31l-9.88,3.78,2.6,7.33ZM-100,1334.73l-4,5.45,10.36,6.91,3.71-5.27Zm35.39,27.71,13.41,5.3,2.1-5.23-13.21-5.37Zm169.74-19-11.79,7.76,2.85,4.89,12.27-8.29Zm-26.2,6.57c1.61-.91,2.86-1.6,4.09-2.32,5.78-3.37,5.78-3.37,2.77-9.38a1.56,1.56,0,0,0-.3-0.27L75.27,1344Zm20.77-13.4L95.8,1331l-9,6.23,2.83,6.51Zm-96.19,56.7,6.1-.33v-11.87H3.51v12.2Zm8.35-.24,9.77-.6-0.43-7.58H11.86v8.18Zm112.71-76.22,4.07,4.2,8.81-9.69-4.14-4.67Zm-77.41,71.74-2-7.8-9.06,2,0.84,7.76ZM123.61,1318L114,1328.07l3.43,3.58,10.14-9.53Zm-13.72,28.9,10.91-8.72-3.48-3.93-10.78,8.31Zm-76,21c2.6-.74,4.83-1.31,7-2a1.67,1.67,0,0,0,.9-1.33c-0.39-2.42-.94-4.81-1.47-7.41l-7.89,1.62ZM74,1344.61l-8.87,4.21,3.25,6.65,9.19-4.66ZM-79,1208.92c-6.75.6-13.56,1.59-20.39,1.71s-13.8-.6-20.68-1C-117.38,1214.13-86.69,1213.55-79,1208.92Zm-43.59,95.92-7.5-10.56-4.31,4.63,8.27,9.39ZM153.12,1303l-3.53-3.09-9.19,11.84,3.43,3.21Zm-197.53,51.55-1.87,5.93,10.27,3,1.56-6.38Zm156.31-25.35-9.62,7.93,3.15,3.92,10.68-8.28ZM-9.76,1341.33c-4.76,2.76-2.69,6.69-3.25,10.3l7.27,0.42v-11.72c-4.61,1.79-3,6-4,9.23v-8.23Zm149.26-28.6-8.91,9.42,3.12,4,9-9.89ZM5,958.32l0.75,0a3.29,3.29,0,0,0,.22-1.16c-1.65-8.6.81-16.47,4.45-24,3.48-7.22,3.7-14.63,1.78-22.19-1-4-2.46-7.81-3.71-11.71l-1.13.27a4.82,4.82,0,0,0,.19,1.95c6.34,10.44,5.78,21.16,1.57,32.14a135,135,0,0,0-4.52,14C3.62,951.09,3.35,954.82,5,958.32Zm95.95,379.85-10.5,7.35,2.19,4.22,11.37-7.64Zm-135.63,25.75,8.51,2.11,2.25-6.82-9.25-1.79Zm-171.12,48.36,0.49,0.51c1-.53,2-1,3-1.6,5.33-3.14,9.17-7.81,13.07-12.49,1.95-2.34,2.14-4.61,1.37-7.65C-193.64,1398.62-198,1406.95-205.84,1412.27Zm169-45.76-10.46-3.4-1.85,5.34,10.53,3.36Zm-62.11-33.59,10.21,7.16,2.9-4-10.65-7.29ZM8.64,1464c4.62,11.09,3.91,22.07-.39,33C15.46,1488.57,15.85,1469.55,8.64,1464Zm180.29-440.51-0.42-.73c-1.79.84-3.61,1.64-5.38,2.53-5,2.56-9.64,5.57-12.58,10.65-1.21,2.09-1.13,3.71.61,4.94,0.45-1,.67-2.22,1.42-2.92,4.65-4.35,9.42-8.59,14.17-12.85C187.42,1024.55,188.2,1024.06,188.93,1023.52Zm-90,84.93c-0.76,1.62,2.83,6.34,6.35,8.6l6.53-7.48-0.54-.72-4.57,3-1.72-4.24-1.24,2.85-0.52-.52-1-4.52-0.87-.09-1.17,4.83ZM-88.35,1342.81l-3.52,5.36,8.38,4.86,2.68-5.57Zm171.48,14.12,3,5.07,8.6-5.09L91.94,1352ZM80.51,1124a1.89,1.89,0,0,0-.69.23,114.17,114.17,0,0,1-25.93,18.22,4.2,4.2,0,0,0-1,1.67l0.66,0.48C63.78,1139.44,73.47,1133.5,80.51,1124ZM207,1217.65h8.11c0-1.9.07-3.77,0-5.62a4.4,4.4,0,0,0-.93-1.59,4.52,4.52,0,0,0-1.46,1.44,49.6,49.6,0,0,0-.88,4.89l-0.6,0v-6.3l-4-.47c-0.15,2.35-.29,4.47-0.41,6.6A5.11,5.11,0,0,0,207,1217.65Zm-29.69-194.07c3.64-1.61,3.67-1.61,3.65-4.44q0-5.63-.18-11.26c0-.87-0.21-1.73-0.39-3.12C175.54,1010.85,178.62,1017.27,177.28,1023.58ZM-146.35,1191l-1-.64c-0.9,1.1-2.56,2.19-2.59,3.32-0.16,6.58.06,13.17,0.2,19.76a2.9,2.9,0,0,0,.77,1.13,3.31,3.31,0,0,0,.85-1.3c0-2.49,0-5-.15-7.48a5.31,5.31,0,0,0-1-1.79l3.18-4.92-3.16,1.29,2.86-5.15-0.62-.39-2.65,1.84Zm88.06,192.47-13.34-5.81L-73.4,1381l13.66,5.39Zm21.16-11.24,8.22,2.11,1.69-5.45-8.23-2.07Zm119.52-16.67,8.84-5.13L89,1346.32,80,1351.78Zm-92,5.24-5.46-.4-1.17,7.71,6.12,1Zm-14.78,5.59,6.5,1.35,1.47-7.56-6.17-.82ZM36.43,1394l-0.09-.8a1.51,1.51,0,0,0-.64-0.37c-7.72.67-15.45,1.34-23.16,2.12-0.55.06-1,1-1.5,1.57A106.38,106.38,0,0,0,36.43,1394Zm44.39-37.59-2.29-3.89-9.28,4.75,1.92,4.06Zm-276.15-135.87h0.91a9.7,9.7,0,0,0,.32-1.8c-0.05-7.94-.11-15.87-0.25-23.81a4.66,4.66,0,0,0-1-1.75,4.54,4.54,0,0,0-.83,1.66c-0.05,5.89-.1,11.78,0,17.67C-196,1215.22-195.6,1217.89-195.33,1220.56Zm46.94,32.59,0.72-.16c-0.23-.89-0.45-1.79-0.69-2.68-1.22-4.56-2.45-9.11-3.65-13.67a12.37,12.37,0,0,1-.21-1.57c2.29-.23.9-1.91,0.61-2.38-2.71-4.29-3.18-9.18-3.95-14-0.16-1-.36-2-0.55-3l-0.74.15A161.25,161.25,0,0,0-148.38,1253.15ZM173,1026.92l1.05,0.7c0.92-1.15,2.54-2.24,2.64-3.45,0.34-4.06.13-8.17,0.13-12.81C172.13,1016.25,173.85,1021.85,173,1026.92ZM68,1357.86l-10.72,4.54,1.72,4.76c0.9-1.31,1.28-2.31,2-2.8a9.93,9.93,0,0,1,3.58-1.54,46.14,46.14,0,0,1,5.55-.4Zm-85.61,19,7.37,1.29v-6.4l-6.34-.81Zm80.11-189c0.73,2.47,2.48,1,3.69,1.19,1.45,0.18,2.92.19,5.05,0.32-2.88,2.1-2.63,4,.32,5.4-2.14-.22-2.73.75-2.17,2.2a7.23,7.23,0,0,0,1.79,1.91l0.88-.52v-8.54l0.46,0,0.59,2.62,0.59,0,0.65-4.63H62.47Zm22.66-61.53c-2.91-1.74-2.88-1.71-4.83.6-3.21,3.79-6.26,7.75-10.51,10.5a12.78,12.78,0,0,0-1.49,1.32l0.42,0.53A58,58,0,0,0,85.13,1126.35ZM-87.19,1341.06l7.35,4.45,2.45-4.54-7.08-4.1Zm78.88,56.15c5.41,0,10.74,0,16.07,0a5.11,5.11,0,0,0,1.93-1.08,5.14,5.14,0,0,0-1.9-1.13c-4.8-.23-9.6-0.26-14.4-0.5C-8.48,1394.36-8.78,1395.16-8.31,1397.21Zm-16.83-27.78-1.42,5.6,7.08,1.38,1-5.57a9,9,0,0,0-1.4-.54C-21.53,1370-23.18,1369.75-25.14,1369.43Zm67.41-126.55c2.77-.27,6.27-3.43,6.29-5.57l4.31,3.61,2.19-1.87-4.91-6.24Zm-76,109.79,0.47-1.3L-61,1341.49A117.23,117.23,0,0,0-33.68,1352.66ZM123.8,1299.4l0.19,0.26c1.81-2,4-3.66,5.35-5.9,3.48-5.89,6.58-12,9.79-18,0.76-1.43,1.34-3,2.29-5.09ZM24.23,1403.63a263.53,263.53,0,0,1-49.23-1.1A165.13,165.13,0,0,0,24.23,1403.63ZM-58,1387l11.79,3.64,1.2-2.72-11.33-3.74Zm13-240,6.57,6.11,2.39-1.95-5.59-7.47c-0.42.35-.9,0.71-1.32,1.13C-43.61,1145.45-44.19,1146.11-45,1147ZM0,1256.57c10.65,1.82,20.1-1.79,29.26-6.71C19.85,1253.54,10.2,1256.27,0,1256.57Zm52.74-119.34,16.34-20.06a7.63,7.63,0,0,0-2.19.71c-6.64,4.92-9.7,12.54-14.23,19.06A0.38,0.38,0,0,0,52.76,1137.23Zm137.35-116.47a41.33,41.33,0,0,0,11.63-8.82,4.62,4.62,0,0,0,.47-2l-0.54-.24-10.06,8C190.22,1017.08,189.75,1017.57,190.11,1020.76Zm-17-3.4-0.72-.39c-1.12,1.44-3.07,2.82-3.19,4.34-0.24,3.15.5,6.38,0.86,9.76C174,1027.1,171.77,1021.84,173.1,1017.37ZM-101.7,1110l-8.5-5.93c1,4.65,5.18,5.59,6.76,7.8l5.47-4.17-4.72-2.6Zm294.25,141.63c3.54-6.32,4.48-13.2,5.35-20.09a3.81,3.81,0,0,0-.56-1.52,4.64,4.64,0,0,0-1,1.45c-0.37,1.74-.54,3.53-0.87,5.28C194.49,1241.76,193.51,1246.72,192.55,1251.68Zm-226,139.13c-2.85-.71-5.49-1.2-8-2-2.07-.69-3-0.12-3.31,2.24l10.86,2.54Zm188.24-62.87-0.81-.63-23.62,26.9,0.64,0.56ZM-51.36,1153.4l7,6,2.2-2-6.11-6.89Zm41.6,243.49c0.13-2.44.13-2.47-1.61-2.71-2.46-.33-4.94-0.56-7.39-0.93-1.89-.29-2.61.4-2.25,2.53Zm-81-296.42,1.09,0.35c2.06-2.38,4.14-4.74,6.13-7.17a3,3,0,0,0,0-1.51,5,5,0,0,0-1.25.42,11.68,11.68,0,0,0-1.34,1.19l-2.33-1.24v4.61l-2.72-1.4Zm93-39.75-5.81,4.81-1.35-2.69c-1.35,2.78-1,3.67,1.25,3.81s4.42,0,6.81,0Zm-138.19,214.2,0.81,0c0.24-.57.83-1.31,0.66-1.68-2.22-4.71-4.55-9.38-6.73-13.82,0.1,1.76-.24,3.83.41,5.53C-139.45,1268.37-137.58,1271.61-135.93,1274.93ZM-190.41,1249l0.68-.13-4.49-27.51-1.3.24Zm140.76-15.85c0.52,3.25-2.23,6.36,2.28,7.8l-1.27-4.31,1.64,0.55,0.7-.59-3.33-5.2a6,6,0,0,0-3.43,5.8c0,0.34.9,0.71,1.52,1.16ZM107.86,1213c9.91,1,22.37-.43,24.92-3ZM-32.45,1393.84l9.94,1.73,0.37-2.68c-2.62-.47-5.1-0.76-7.49-1.39C-31.55,1391-32.33,1391.58-32.45,1393.84ZM166.38,1350l-6.4-5.67a28.88,28.88,0,0,1,.42,4.58,28.23,28.23,0,0,1-1,4.28l0.77,0.2,3.61-3.08,0.59,1.84ZM-6.89,1129.55c0.21,3,.34,5.85.65,8.65A4.23,4.23,0,0,0-5,1139.75a4.42,4.42,0,0,0,1.08-1.69c0.11-2.72.05-5.45,0.05-8.38Zm-103.6,165.82c0.76-1.71,1.06-3.53,1.71-3.67,4.11-.85,2.06-3.3,1.82-5.46C-112.4,1289.15-112.78,1290-110.48,1295.37ZM-207.86,1003l-7.26-16.42C-216.1,989.31-212.49,999.07-207.86,1003ZM-0.7,1261l-0.06-1a46.8,46.8,0,0,0-5.6-.61,3.08,3.08,0,0,0-2.43,1.23,19.07,19.07,0,0,0-.83,4.36l0.76,0.34C-6.44,1263.37-4.77,1260-.7,1261Zm-38.9-106.69-6.49-6.17-1.68,1.83,6.28,6.1ZM-1,1335.39c-3.34,2.64-4,5.23-2.66,9.61C0.42,1342.83-1.28,1339.07-1,1335.39Zm38.1,57.47,0.33,1.3,22.87-6.08-0.18-.66Zm18.4-48.49-23.16,6.92C40.33,1350.12,48.37,1348.95,55.46,1344.38Zm-138.3-12.44,0.6-.66-10.88-9.91C-93.36,1323.88-85.32,1331.49-82.84,1331.93ZM9.26,929.29L8.51,929C4.23,933.57,4.6,940,1.74,945.19l1.09,0.44Zm143.33,446.52c4.87-.51,9.78-2.17,14.63.65a34.84,34.84,0,0,0-5.07-4.07,2.31,2.31,0,0,0-1.88-.14C157.68,1373.36,155.15,1374.61,152.59,1375.81ZM92.87,1102.5l-1.54-4.78-2.49,2.07,6.07,6.48,0.95-.28-0.5-5.71-0.93-.17Zm149,105.72c3.48,0,6.55-.13,9.6,0,2,0.12,2.69-.65,2.79-3.23l-4.82,2.25V1205l-5.17,2.42-0.59-1.53ZM56.21,1155.37c-1.61,2.87-4.82,4.47-4.06,8.45l6.82-6Zm153.46,34.05c0,1.91,0,3.54,0,5.16,0,1.91.75,2.59,2.69,1.94l0.91-7.1h-3.59ZM-94,1379.11l-20-12.76-0.46.75A122.75,122.75,0,0,0-94,1379.11Zm247.13-136.44,0.79,0.17a109.66,109.66,0,0,0,4.79-24ZM-98,1104.91l-1.21-5.15c-1.74,3.24-1.41,5.8,2,7.39l3.19-3.05-3.22-2.24Zm-123.22,106.81-0.67,0-0.95-10-0.2,0v11.65h5.54l-2.79-4.62-0.61.36Zm272-51.72,5-5.27-2.12-2.12-5.32,5.92ZM-95.24,1322.12l0.87-.91-16.38-15.1-0.53.55Zm41.77-166.45c5.66,5.83,5.69,5.84,8.11,4.28l-6.45-6.09ZM13,1344.09l1,0v-10.18c-4.13-.57-4.71-0.3-4.23,2l2.49-1.22ZM-3,963.19c2.34-2.05,2.34-2.05.58-5.3l-5,7.95,1,0.88c0.78-.63,1.84-1.11,2.26-1.92a12.45,12.45,0,0,0,.73-3.42L-3,961.45v1.74Zm106.09,413.05,0.41,0.5c5.2-3.5,11-6.13,15-11.39ZM9.46,1260L9,1266.38l1.13,0.09,0.55-6.86c-5.72,0-6.22.5-5.06,4.79Zm-14.6,157.3-0.32,6.51,3.36,0.36C-2,1421.44-1.54,1418.92-5.14,1417.32Zm174.58-110.92-0.71-.48-10.31,14.89,0.93,0.63Zm-352.8,79c-3.08,2.87-3.68,5.09-2.36,8.11A7.38,7.38,0,0,0-183.36,1385.39Zm167.55,47.22,3.6,5.3-0.54-3.13,0.54-.25,4.56,7.93C-8.44,1436.32-10.19,1433.6-15.81,1432.61Zm203.07-31c3.84,5.87,7.31,11.06,13.35,13.68Zm-368.54-14.07c1.79-2.39,4.64-3.93,3-7.43C-181.09,1381.75-182.47,1383.87-181.28,1387.59ZM-7.61,1139.79c0.64-6.66.08-9.9-1.68-10.18C-9.56,1136.5-9.18,1139-7.61,1139.79Zm52,106.88-2.16,2.47,4.46,3.09,2.11-2.24ZM-128,1288.56l0.77-.42c-1-1.67-2-3.31-2.9-5a37.82,37.82,0,0,1-1.83-4.07c-0.39-1-.5-2.11-0.94-3.07a2.92,2.92,0,0,0-1.4-.61,3.2,3.2,0,0,0-.22,1.58C-132.42,1280.85-130.21,1284.7-128,1288.56Zm102.27-43.62-0.88.86-11.68-12.36,0.63-.61C-34.89,1238.06-30.51,1241.7-25.75,1244.95Zm17.27,259,0.56-.45-8.5-12.13A25.07,25.07,0,0,0-8.48,1504ZM0,1482.35l1,13.11C2.58,1492.7,2,1484.7,0,1482.35Zm57.24-238.11-0.48,2.41,3.08-2.41-4.25-4.65-2.68,2.13Zm-193.94-37.1c-1.92,1.43-3.16,4.72-2.08,6.28,0.38,0.55,1.54.55,2.08,0.72v-7ZM-90,1299.24l-4.46-5.06-0.57.44,2.22,3.52v4.07l0.68,0.07ZM4,1452.6l-0.57.32c0.11,0.81-.08,1.94.38,2.39,1.79,1.75,3.8,3.28,5.44,4.65C9.43,1456.56,5.7,1455.25,4,1452.6Zm-55.24-208.4c-1,2.92.41,5,5.53,8.89C-46.28,1249-49.88,1247.69-51.28,1244.2Zm-92.49,117.95,2-2.86-3-1.41-2.78-3.9C-148.41,1357.8-144.91,1358.91-143.77,1362.15Zm-34-79.11-0.72.36,8.2,16,0.84-.43Zm279.51,10.16c-0.68,2.79-.73,5.11,2.17,6.44C105.46,1296.86,104.28,1295,101.77,1293.2Zm-263,66.7c-0.23-4.56-1.76-6.05-6.26-5.45Zm313.44-116.37L149,1256C151.41,1252.79,153.55,1245.46,152.18,1243.53ZM-8.13,1435.43l6.85,8.18C-0.78,1440.33-5,1435.73-8.13,1435.43Zm-141.1-250.53-0.52,6.11,1,0.28,3.1-6.06Zm148.63-238c-3.76,2.08-4.43,3.6-3.33,7.59Zm-160.78,391.91-3.78,3.92,0.69,0.64,1-.89,1.35,4.05,0.75-.21v-7.52Zm169.5-5.46c-1.35,2.74-4.5,3.82-3.14,7.35C6.91,1338.82,9.61,1337.57,8.12,1333.37ZM138.77,1356l-1-1c-0.31.78-1,1.67-.87,2.34,0.54,2.2.06,4.88,2.75,7Zm-248-55.55c3-2.13,1.13-4.47.74-6.77C-111.1,1295.17-111.17,1295.78-109.27,1300.49Zm-30.82-88.6-2.7.18-0.53-2.73-0.9-.07-0.85,4.84h5v-2.22Zm371.57-24.24c-4,3.69-.15,6.47-0.88,9.4h0.88v-9.38ZM9.21,1340.36l-0.9-.48c-3.58,2.63-4,3.48-2.47,6.74ZM-22,1354.54l-10.36-2.86C-31.2,1354-24.54,1355.84-22,1354.54Zm-93-61.83-2.81,2,4.38,5.19,0.49-.27Zm328.5-94.29c0,1.75-.09,3.08,0,4.39a4.51,4.51,0,0,0,.94,1.55,4.74,4.74,0,0,0,1.2-1.58,32.89,32.89,0,0,0,.28-4.11ZM-9.16,1067l-1.35-7.64c-1.41,2.68-1.83,5-.87,7.4C-11.27,1067.1-10,1067-9.16,1067ZM3.89,1261.93c-2.7,1.55-2.05,3.69-1.7,5.57,0.08,0.44,1.44.64,2.54,1.08Zm206-63.73a7.53,7.53,0,0,0-.13,1.79c0.22,1.33.57,2.64,0.86,4,0.47-1.34,1-2.66,1.38-4C212.47,1198.11,211.52,1197.75,209.88,1198.2ZM-9.09,1471l0.89-.07v-9.17C-9.19,1464.82-10.47,1467.85-9.09,1471Zm3.35-479.84c2.45-2,3-4.07,2.14-6.73C-6.89,985.91-5.9,988.43-5.73,991.17ZM-7.64,1378.6l0.77-.17,1.6-6.11-2.71-.24Zm142.92-169.94c1.67-.09,3.25-0.13,4.82-0.3a3.44,3.44,0,0,0,1.2-.75,2.9,2.9,0,0,0-1-.94c-1.61-.28-3.24-0.42-5-0.63v2.63Zm-11.51,126.61-3-4.07-1.87,1.69C121.43,1336.73,121.94,1337,123.77,1335.28ZM-90.75,1101.52l-3.34-2.93c-1.27,3.35-1.26,3.46.8,4.92l1.42-1.13Zm246.22,256.28c3.66-2.79,3.67-2.83,2.18-5.35C154.9,1354.46,154.89,1354.47,155.48,1357.79Zm-3-12.29c-2.61,1.34-2.92,3.19-1.86,5.59C153.6,1350,153,1347.84,152.47,1345.51ZM279,1208.25c-2.89-1.48-4,.86-5.62,2.41C276.12,1211.5,278.08,1211.14,279,1208.25Zm-278.87,59v-6.21C-2.34,1263.29-2.31,1266.26.14,1267.27Zm9-204.62-0.71-.26L4,1066.47H10.4l-2.14-.71Zm1-95.06L3.76,962A12.56,12.56,0,0,0,4,964.71C5,967.38,7.46,966.92,10.07,967.59Zm-223,221.52,0.61-4.56-3-.27C-216.84,1187.19-214.39,1187.69-212.93,1189.11Zm280.46,16.67,0.57-.56a20.86,20.86,0,0,0-.09-4c-0.09-.46-1.18-0.72-1.81-1.07a23.31,23.31,0,0,0-.31,4.17C65.94,1204.88,67,1205.31,67.53,1205.78Zm111.23,179.55c2.23,2.38,2.62,6.63,6.51,7.27l0.64-.65Zm-284.7-94.06c-2.46,1.16-2.55,2.22-.52,6C-104.84,1295.67-104.84,1295.67-105.94,1291.27ZM219.24,1198c-1,.75-1.89,1-2,1.47a18.69,18.69,0,0,0-.33,4,3.2,3.2,0,0,0,.71,1.25,3.48,3.48,0,0,0,1-1.22C219,1202,219,1200.5,219.24,1198Zm-343.06,158,0.55-.61-10.43-9.8-0.7.78Zm115.58,70.07-5.76,4.2,1.1,1.1C-7.93,1429.76-7.93,1429.76-8.24,1426.07Zm160.48-381.7c2.67-1.72.52-3.83,1.11-5.92C150.22,1040,150.22,1040,152.24,1044.37ZM-11.15,1420.18c-0.27-2.46.72-4.93-2.51-6.27C-13,1416.19-14.75,1418.86-11.15,1420.18Zm18.86,8.35c0.62,4.69,1.59,5.32,5.21,3.45Zm-114.79-128.45c-2.93,1.53-1.9,3.5-1.23,5.6C-105.59,1304.23-106,1302.31-107.08,1300.08Zm366.68-93.86c-3.36-.67-3.36-0.67-5.08,2C256.87,1209.39,258.58,1209,259.61,1206.23ZM-152,1345.91c1.23-3.25,1-4-1.88-5.46C-153.85,1342.51-154.78,1344.82-152,1345.91ZM94.87,1091.39c2.59-1.49,1.44-3.39,1.35-5.43C93.72,1087.53,93.12,1089.15,94.87,1091.39ZM5.67,1463.53c-0.14-2.36.84-5-2.32-6.06C2.41,1460,3.42,1461.9,5.67,1463.53ZM-101.56,1294c-2.5,2.23-2.53,2.51-.93,5.76C-99.82,1298.3-101,1296.2-101.56,1294ZM94,1314.25c-0.54-2.29,1.44-4.49-1.19-6.26C92.58,1310.18,90.22,1312.36,94,1314.25Zm170.63-107.47c-2.7-1.46-3.51.64-4.65,2.3C263.44,1210.05,262.87,1210.13,264.68,1206.78ZM-147.65,1347.2l-0.86.36,2.31,5.24C-144.69,1349.89-144.84,1349.52-147.65,1347.2Zm4-294.29,0.77-.18c0.89-3.43.45-4.88-2.43-6.33ZM84.9,1096.13l3,2.68c1.85-1.86.6-3.31,0-5ZM70.2,1205.59l1.43-5.72C69.18,1200.2,68.78,1201.53,70.2,1205.59Zm136.93-9.13,0.94-.07c0.13-2.07.31-4.14,0.34-6.21a1.63,1.63,0,0,0-1-1,1.21,1.21,0,0,0-.85.68C206.72,1192.09,206.94,1194.28,207.14,1196.46ZM-7.4,1423.75l0.84-.35c0.45-2.26.2-4.19-3.08-4.75Zm-92-324.75,1.07-.13c-0.22-2,1.28-4.22-1.07-6.28V1099ZM-214.5,1207.64l1-.49-3.21-5.16C-217.91,1205.39-216.07,1206.44-214.5,1207.64Zm352.83-2.71c2.5,0.79,3.35.13,3.17-1.46-0.07-.59-0.88-1.11-1.35-1.65Zm-139.9,202.3,6.15,3.48C3.28,1408.62,2.36,1405.92-1.58,1407.24ZM-107.12,1306.8l2.35,2.06,2.11-5.07-0.73-.29Zm-58.34,36.2c-2.25,1.78-1.83,3.5,1.25,6.39ZM81.19,1066.7c-2.31-1.92-4.61-3.85-7.58-4.22l-0.4.95Zm17,238.94,0.9-.2c1-2.09.92-3.78-2.48-5Zm-260.33,68.57,8.06,2.13,0.17-.79C-156.59,1375.34-158.68,1371.93-162.09,1374.21Zm334.79-18.48-0.86-.68c-2,2.63-3.06,5.8-5.12,8.35l0.64,0.43ZM9,1340.73l1.39,0.53,1.7-4.55-1.33-.51Zm88.54-254.67,1.64,7.21C100.76,1090,100.13,1087.65,97.55,1086.06ZM-198,1004.39l-0.63.24c0.48,4.31.86,5.11,3.56,6.32Zm202.77,350,0,0.5,13.17-.59,0-.73Zm42.46-107.23,2.7,2.31,1.74-2.07-2.31-2.19Zm-260.61-54.29c1.16-3-1.27-3.37-2.53-4.66C-217.21,1191-215,1191.55-213.37,1192.86ZM-9.22,1337.19l-1-.51c-1.13,1.49-3.82,2.12-2.44,5.53ZM-168,1045.61l0.63,1a37.24,37.24,0,0,0,3.49-2.38c0.24-.2-0.07-1.08-0.17-2.06Zm73.45,253.92c-2.48,2.14-.9,3.76-0.81,5.6C-92.54,1303.52-94.31,1301.8-94.52,1299.53Zm144.94-55.27c1.57,2.28,2.92,2.07,4.44.11l-2.55-2.09ZM-99,1290.92c-2.69,2.21-1,3.92-.53,5.88C-97.18,1294.94-99,1293.18-99,1290.92Zm189.61,20.34c0.29-2.36,1.65-4.26-.16-6.17C90.92,1307,88,1308.88,90.58,1311.26Zm-84,117.38c-0.83-3.62-3.05-2.62-5.21-1.92Zm85.27-334.4,0.93,0.08,0.3-5.05C90.42,1091,90.42,1091,91.88,1094.24ZM-6.64,1411c0.36-4.18.07-4.48-3.8-4.13Zm286.45-200.78c3.4,1.05,3.46,1,4-2.53ZM-9.56,1340.9l0.75,0.54c3.17-2.47,3.62-3.24,3-5.82Zm65.41,51-0.22-.86-11,2.94,0.14,0.54Zm-68.14-129.26,0.59,0.21,2.54-3.89-3.4-.56Zm17.88,6c3-.45,3.21-1.38,1.12-4.41Zm-98.08,111.11-0.26.65,9.89,4.87,0.24-.51ZM-177,1381l1.07,0.47c1.1-1.28,3.44-2,1.18-4.83ZM148,1042.43c-0.59.42-.85,0.65-1.15,0.83-1.52.91-.81,2.14-0.4,3.25a2.19,2.19,0,0,0,1,.53,23.89,23.89,0,0,0,.89-2.76A6,6,0,0,0,148,1042.43ZM-8.12,1474.69l-0.8-.07-0.58,6.32,1.1,0.08ZM-214.4,1197c1.59-2.91-.5-3.49-1.95-4.5l-0.78.53Zm280.29-2.76c0.92-.3,1.94-0.33,2.13-0.75a3.17,3.17,0,0,0,.08-2.5c-0.25-.45-1.42-0.41-2.4-0.63Zm203.44,13c-2.81-1.11-3.22,1.29-4.58,2.34C267.53,1211.21,268,1208.81,269.33,1207.26ZM127.86,1324.9l3.45,3.15,0.72-.22c-0.22-.66-0.24-1.64-0.7-1.93C130.35,1325.28,129.75,1322.56,127.86,1324.9Zm-352.32-129.77,0.8-.65-3.23-3.75C-227.47,1193.29-226.54,1194.66-224.46,1195.13Zm409.37-172.91,0.72,0.58c3.17-1,3.17-1,2.29-3.77ZM11.76,1129.47l0.27,3c2.75,0.38,2.29-1.46,2.43-3.18Zm82.8,172.47-1.28.21c0.54,1.59-1.13,3.63,1.93,5.32ZM-99.85,1087.27l1,4.91C-97.17,1088.77-97.25,1088.44-99.85,1087.27Zm-117,119.26c-1.18,3.63,1,4.33,2.68,5.35l0.76-.53Zm123-113.53c0,1.91-1.45,4.09,1.64,5.17C-92.22,1096.22-91.05,1094.11-93.83,1093Zm-124.46,115.38-1.75-5-0.87.32C-221,1205.48-221.91,1207.57-218.29,1208.39Zm354.95-3,1.39-.86-1.39-2.84c-0.44.53-1.27,1.1-1.22,1.56A6.4,6.4,0,0,0,136.65,1205.36ZM93,1100.77c2.27-2.14,1.12-3.81.66-5.83C91.25,1096.81,93.09,1098.51,93,1100.77Zm-195.15-4.13,0.7,0.06,0.62-7.12C-103.33,1091.73-101.49,1094.3-102.11,1096.63Zm-52.78,254.77,1.15,5.55,0.72-.15C-152.35,1353.26-152.35,1353.26-154.89,1351.4Zm18.5-165.44c-3-.77-4,0.36-3.35,3Zm-19.88,162.36c-1.56,3.45-1.55,3.48.88,4.81ZM-5.14,958.88l0.63,0.32c2.75-2.93,2.75-2.93,1.67-5.91Zm73.76,236.7-1.4-1a6.33,6.33,0,0,0-1.32,2c-0.09.51,0.63,1.16,1,1.75ZM-105.6,1302.67c2.64-1.91,1.3-3.47,1-5l-1,0v5Zm320.73-93.53c-0.12-1.58,1.11-3.45-1.79-3.41C213.27,1207.16,211.85,1209,215.12,1209.14ZM-14.26,1406.21l-0.33.66,3.32,3v-3.43Zm160.52-53.92c-3.4,1.58-2,3.59-1.82,5.37l0.89,0.16Zm-1.17-138.83-1.23-3.51a4.51,4.51,0,0,0-1.12,1.44C142.45,1212.7,142.44,1214,145.1,1213.46Zm-36.16-105.89,1.16,0.11V1103l-0.92,0ZM64.58,1209.94l4-2.48-0.29-.63-3.31-.21ZM3.6,1337l-0.47-.5L0,1337.3l0.42,3.63Zm-108.19-235.72h0.47v-5.18h-0.47v5.18Zm-49.79,272.53,0.66-.79a29,29,0,0,0-2.8-2.13,4,4,0,0,0-1.68-.11,6.14,6.14,0,0,0,1.1,1.48A26.3,26.3,0,0,0-154.38,1373.86Zm13.68-36-0.72.65,5.83,6.3,0.66-.64ZM-15.57,1411l-1.34.22L-16,1416l1.07-.21Zm-191.79-222.26,2.37,3.94C-204,1190-204,1188.66-207.36,1188.73Zm67.27,3.3,0.68,0.5c3.28-2.33,3.28-2.33,2.21-4.26ZM1.1,957.55l1.19,0.14V953l-0.92,0Zm71.53,385.53-0.35-.68-7.34,3.09,0.44,0.94Zm84.92,5.47-0.84-.38c-1.46,1-2.84,2-1.18,4.74ZM-8.72,1455.1c0.73-2.5,2.06-5,0-8.3v8.3Zm118.08-358.23-0.77,0V1102C110.92,1100.17,109.15,1098.42,109.36,1096.87Zm110.36,97.74-0.62-.6c-0.57.49-1.57,1-1.61,1.48,0,0.72.65,1.48,1,2.22l0.83-.34Zm-71.22,7.2c-2.85-.5-2.59.89-2.21,2.14a5.38,5.38,0,0,0,1.23,1.52Zm-49.76,94.37-1.27.5,1.69,3.84,1.23-.52ZM0,962.78l-0.82,0-2.06,2.94,0.57,0.66A7.6,7.6,0,0,0,.28,965C0.61,964.65.15,963.55,0,962.78ZM-168.67,1375.2l-0.76-.77c-1.33.68-3.51,0.65-2.84,3.82ZM0.11,1344.36l0.79,0.4c2.74-2.11,2.74-2.11,1.68-5.07Z" transform="translate(307.88 -893.38)"/><path class="cls-1" d="M105.49,1026.35l-2,1a0.73,0.73,0,0,1-.35-0.25q-6.77-3.43-13.53-6.86c-0.79-.4-1.53-0.91-2.3-1.36l0.44-.86,14.37,6.26Z" transform="translate(307.88 -893.38)"/><path class="cls-1" d="M111.45,1095.27c-1.28-1.67-2.53-3.36-3.84-5a6.5,6.5,0,0,1-1.61-2.6,34.37,34.37,0,0,1,8.91,7.75l-0.45.69-3.12-.93Z" transform="translate(307.88 -893.38)"/><path class="cls-1" d="M132.91,1123.33l-0.48-1.3a16.56,16.56,0,0,1,6.43,11,1.43,1.43,0,0,1-.53.49Z" transform="translate(307.88 -893.38)"/><path class="cls-1" d="M31.51,1161.18a10.65,10.65,0,0,0-1.89-2.45c-4-2.89-8.19-5.66-12.24-8.7,2.65,1.43,5.42,2.67,7.9,4.35a56,56,0,0,1,6.29,5.39,3,3,0,0,1,.19,1.54Z" transform="translate(307.88 -893.38)"/><path class="cls-1" d="M-118,1073a5.49,5.49,0,0,1-5.85,5.53c-3.38-.14-5.8-3.22-5.39-6.88a6.09,6.09,0,0,1,6.52-5C-121.23,1066.92-118,1071.26-118,1073Z" transform="translate(307.88 -893.38)"/><path class="cls-1" d="M-63.09,1041.23a5.9,5.9,0,0,1-5.38-5.94,5.64,5.64,0,0,1,5.93-5,5.63,5.63,0,0,1,5.09,5.59A5.76,5.76,0,0,1-63.09,1041.23Z" transform="translate(307.88 -893.38)"/><path class="cls-1" d="M-157.57,1130.83c0,3-2,5.09-4.69,5.1a5.48,5.48,0,0,1-5.45-5.46,5.44,5.44,0,0,1,5.13-5.19C-160.26,1125.29-157.55,1128.29-157.57,1130.83Z" transform="translate(307.88 -893.38)"/><path class="cls-1" d="M161.87,1131a5.56,5.56,0,0,1,5.56-5.34c2.42,0.08,5.28,3.19,5.26,5.71a5.53,5.53,0,0,1-5.42,5.45A5.73,5.73,0,0,1,161.87,1131Zm7.87-1.89c-2.28-1-5.79-.7-6,0.58s0.25,2.8.43,4.21l0.78-.12c0.46-3.79.84-4.31,3.44-4.53l-0.5,2.15,0.52,0.21Z" transform="translate(307.88 -893.38)"/><path class="cls-1" d="M3.29,1026c-1.2-1.36-2.87-2.42-3-3.69s-0.53-3.75,2.08-4.17a4.7,4.7,0,0,1,5,3.14A5.16,5.16,0,0,1,4,1027.47a5.54,5.54,0,0,1-6.84-3.54,5,5,0,0,1,3-6.52c-0.79,2.58-3.22,5.15-.24,7.5C0.83,1025.63,2.26,1025.7,3.29,1026Z" transform="translate(307.88 -893.38)"/><path class="cls-1" d="M72.53,1037.47a4.63,4.63,0,0,1-4.61,4.56,4.75,4.75,0,0,1-4.74-5,4.66,4.66,0,0,1,4.46-4.71C69.8,1032.35,72.53,1035.23,72.53,1037.47Z" transform="translate(307.88 -893.38)"/><path class="cls-1" d="M122.71,1075.17a4.75,4.75,0,0,1,3.41-4.42c1.83-.61,6,2.54,6.27,4.6a4.79,4.79,0,0,1-4.08,5.34C125.18,1081,122.7,1078.76,122.71,1075.17Zm4.35,4.08c1-3.59,0-4.76-3.45-4.12Z" transform="translate(307.88 -893.38)"/><path class="cls-1" d="M-51.44,1009.49l30-8.57,0.34,1.18L-51,1010.88Z" transform="translate(307.88 -893.38)"/><path class="cls-1" d="M-0.7,1002.13l24.06-.85,0,1.25c-8,1.25-16,.76-24,0.56Z" transform="translate(307.88 -893.38)"/><path class="cls-1" d="M145.92,1068l-13.35-13,0.78-.81c4.84,3.94,9.93,7.62,13.5,12.92Z" transform="translate(307.88 -893.38)"/><path class="cls-1" d="M152,1133.35a42.82,42.82,0,0,1,18.19-16.27Z" transform="translate(307.88 -893.38)"/><path class="cls-1" d="M-105.07,1033.26l-9.31,6.57L-115,1039l9-7Z" transform="translate(307.88 -893.38)"/><path class="cls-1" d="M103.1,1027.13a0.73,0.73,0,0,0,.35.25c2.32,1.95,5.13,3.44,6.29,6.52a16.16,16.16,0,0,1-7.23-6.1A3.39,3.39,0,0,1,103.1,1027.13Z" transform="translate(307.88 -893.38)"/><path class="cls-1" d="M80.19,1015.54l-8.89-2.22,0.28-1.1c3.19-.26,6,1.12,8.85,2.21Z" transform="translate(307.88 -893.38)"/><path class="cls-1" d="M-131.8,1053.81c1.69-2.22,3.27-4.57,5.65-6.11l0.61,0.6Z" transform="translate(307.88 -893.38)"/><path class="cls-1" d="M63.94,1011l-8.36-3,0.34-.94,8.36,3Z" transform="translate(307.88 -893.38)"/><path class="cls-1" d="M125.59,1047.12l-4.52-4.31,0.34-.33,4.58,4.25Z" transform="translate(307.88 -893.38)"/><path class="cls-1" d="M-11.59,1182.78c-0.87,1.34-1.37,2.14-1.9,2.92-2.83,4.17-5.22,8.57-5.84,13.65-1.31,10.66,5.1,19.46,15.92,22s21.15-3,24.63-13.59c3.56-10.81-1.25-21.93-11.28-26.08-5.52-2.28-11.15-2-16.83-.75l-2.91.6c5.48-5.31,16.67-4.85,24.38.22,9.2,6.05,12.51,17.22,8.28,28.17A22.41,22.41,0,0,1-2.08,1224.1c-11.53-1.92-19.39-10.19-19.89-20.92C-22.43,1193.21-18.33,1184.58-11.59,1182.78Z" transform="translate(307.88 -893.38)"/><path class="cls-1" d="M3.54,1164.32a4.49,4.49,0,0,1-4.34,4.55,4.65,4.65,0,0,1-4.48-4.45,4.22,4.22,0,0,1,4.47-4.57A4.33,4.33,0,0,1,3.54,1164.32Z" transform="translate(307.88 -893.38)"/><path class="cls-1" d="M5,1238.51a4.17,4.17,0,0,1-4.31,4.39,4.25,4.25,0,0,1-4.39-4.37A4.43,4.43,0,0,1,.8,1234C3.29,1234,5,1235.82,5,1238.51Z" transform="translate(307.88 -893.38)"/><path class="cls-1" d="M-27.89,1172.94c0-2.31,2.06-3.83,5.07-3.8a4,4,0,0,1,4,4.12,4.2,4.2,0,0,1-4.39,4.33A4.59,4.59,0,0,1-27.89,1172.94Z" transform="translate(307.88 -893.38)"/><path class="cls-1" d="M39,1196a3.63,3.63,0,0,1,3.68,3.74,4.57,4.57,0,0,1-4.5,4.89,4.06,4.06,0,0,1-4.43-3.94C33.7,1197.75,36.89,1196.39,39,1196Z" transform="translate(307.88 -893.38)"/><path class="cls-1" d="M-31.71,1201.88a3.93,3.93,0,0,1-4.12,4.19,4.2,4.2,0,0,1-4.38-4c-0.1-2.64,1.7-4.34,4.59-4.32A4,4,0,0,1-31.71,1201.88Z" transform="translate(307.88 -893.38)"/><path class="cls-1" d="M-26.25,1230.87c-2.58,0-4.44-1.7-4.41-4s2.29-4.26,4.94-4.28a3.7,3.7,0,0,1,3.83,3.9A4.17,4.17,0,0,1-26.25,1230.87Z" transform="translate(307.88 -893.38)"/><path class="cls-1" d="M32,1227.08a4.74,4.74,0,0,1-4.43,4.54,4.1,4.1,0,0,1-4.06-4.11c-0.08-2.57,1.45-4.15,4.11-4.24A4.2,4.2,0,0,1,32,1227.08Z" transform="translate(307.88 -893.38)"/><path class="cls-1" d="M26.31,1170.35a4.19,4.19,0,1,1,.1,8.38,4.46,4.46,0,0,1-4.22-4.58A4.3,4.3,0,0,1,26.31,1170.35Z" transform="translate(307.88 -893.38)"/><path class="cls-1" d="M34.53,1160.31l8.61,7.62-0.81.91L34,1160.92Z" transform="translate(307.88 -893.38)"/><path class="cls-1" d="M-71,1059.4c14.69-7,29.94-11.94,46.06-14C-40.65,1049-56.16,1053.22-71,1059.4Z" transform="translate(307.88 -893.38)"/><path class="cls-1" d="M126.81,1109.11c-3.34-.93-7.16-5.34-7.51-8.94A21.13,21.13,0,0,1,126.81,1109.11Z" transform="translate(307.88 -893.38)"/><path class="cls-1" d="M-113.9,1092l-12.43,14-0.77-.68,12.48-13.9Z" transform="translate(307.88 -893.38)"/><path class="cls-1" d="M-101.88,1085.43l-6.19,3.77-0.45-.57,9.09-7.75,0.67,0.71-3.2,3.92Z" transform="translate(307.88 -893.38)"/><path class="cls-1" d="M-91.39,1074.82l5.79-4.19,0.76,1-5.72,4.19Z" transform="translate(307.88 -893.38)"/><path class="cls-1" d="M98,1081.49l-7-6.32,0.72-.74c1.06,1.07,2.14,2.13,3.19,3.22s2.25,2.41,3.38,3.61Z" transform="translate(307.88 -893.38)"/><path class="cls-1" d="M145.33,1147.66l-3.44-8.16,0.68-.28,3.38,8.26Z" transform="translate(307.88 -893.38)"/><path class="cls-1" d="M130.75,1114.53l4,4.65-0.75.63-3.92-4.72Z" transform="translate(307.88 -893.38)"/><path class="cls-1" d="M-6.74,1044H5.68v0.59H-6.65Z" transform="translate(307.88 -893.38)"/><path class="cls-1" d="M11.48,1046.24l7.28,1-0.11.75-7.27-1Z" transform="translate(307.88 -893.38)"/><path class="cls-1" d="M164.64,1266.58c3,0.16,4.94,2.08,4.85,4.89a4.86,4.86,0,0,1-5.21,4.86,5.09,5.09,0,0,1-4.79-5.12A4.84,4.84,0,0,1,164.64,1266.58Z" transform="translate(307.88 -893.38)"/><path class="cls-1" d="M-51.56,1145.79l-5.72-7.57,0.81-.54q2.42,4,4.85,8.1Z" transform="translate(307.88 -893.38)"/><path class="cls-1" d="M-93.48,1287.58c6.73-12.54,15.75-22.15,27.87-28.79-4.83,4.42-9.89,8.62-14.44,13.32S-88.79,1282.13-93.48,1287.58Z" transform="translate(307.88 -893.38)"/><path class="cls-1" d="M-93.64,1284.65c4.07-12.73,12.77-21.56,23.91-28.35C-80.55,1263.36-87.8,1273.42-93.64,1284.65Z" transform="translate(307.88 -893.38)"/><path class="cls-1" d="M-92.28,1274.55l-4.46,8.86-0.5-.24,4.37-8.9Z" transform="translate(307.88 -893.38)"/><path class="cls-1" d="M176.89,1204.3a5,5,0,0,1,5.56-5.12,5.81,5.81,0,0,1,5.26,5.62,5.72,5.72,0,0,1-5.57,5.39A5.53,5.53,0,0,1,176.89,1204.3Z" transform="translate(307.88 -893.38)"/><path class="cls-1" d="M80,1271.93l10.17,13-0.61.47-10-13.06Z" transform="translate(307.88 -893.38)"/><path class="cls-1" d="M3.29,899.43l-9,12.17L-6.45,911,2.67,899Z" transform="translate(307.88 -893.38)"/><path class="cls-1" d="M3.78,903.52l0.56,1.71a5.85,5.85,0,0,0-2.22.89c-2.05,2.25-4,4.63-5.92,7l-0.55-.47Z" transform="translate(307.88 -893.38)"/><path class="cls-1" d="M131.05,1202.65H79.85q0-.44,0-0.89a343.55,343.55,0,0,1,51.22-.2Z" transform="translate(307.88 -893.38)"/><path class="cls-1" d="M84.47,1198.24H96.59v0.23H84.47v-0.23Z" transform="translate(307.88 -893.38)"/><path class="cls-1" d="M-171.64,1201c0,3-2,5-4.73,5a5.41,5.41,0,0,1-5.37-5.21,5.14,5.14,0,0,1,4.72-4.92A5.18,5.18,0,0,1-171.64,1201Z" transform="translate(307.88 -893.38)"/><path class="cls-1" d="M-109.77,1204.71l36.27-1.5,0,0.91-36.29.59h0Z" transform="translate(307.88 -893.38)"/></svg>