<svg xmlns="http://www.w3.org/2000/svg" viewBox="0 0 13.92 13.91"><defs><style>.cls-1,.cls-2{fill:#750910;}.cls-1{fill-rule:evenodd;}</style></defs><title>marker</title><g id="Layer_2" data-name="Layer 2"><g id="Layer_2-2" data-name="Layer 2"><path class="cls-1" d="M11.26,12a6.56,6.56,0,0,1-3.17,1.49,6.15,6.15,0,0,1-2.86-.14L4,13s0,0,0,0a1.56,1.56,0,0,0-.28-.23A6.58,6.58,0,0,1,.34,7,1.06,1.06,0,0,0,.2,6.73a.64.64,0,0,1,0-.09l.17,0A6.68,6.68,0,0,1,5.74.44l0-.33c-.15.06-.31.07-.38.16a.47.47,0,0,1-.59.18A.25.25,0,0,0,4.37.6a.44.44,0,0,1-.52.25A.26.26,0,0,0,3.48,1,.43.43,0,0,1,3,1.36c-.21,0-.32,0-.33.25A.42.42,0,0,1,2.23,2a.26.26,0,0,0-.3.29.41.41,0,0,1-.37.45.25.25,0,0,0-.25.34.46.46,0,0,1-.25.49C.74,3.64.7,3.73.91,4a1.43,1.43,0,0,1-.31.41c-.2.14-.26.21-.16.42a.45.45,0,0,1-.15.54.25.25,0,0,0-.09.42.4.4,0,0,1-.08.55.26.26,0,0,0,0,.43.45.45,0,0,1,0,.56c-.17.17-.16.3,0,.44a.44.44,0,0,1,.09.55c-.15.19-.12.31.1.42a.47.47,0,0,1,.16.55.24.24,0,0,0,.12.38.42.42,0,0,1,.28.52.25.25,0,0,0,.22.36.57.57,0,0,1,.35.43c-.06.34.05.42.37.31,0,.07.09.15.14.23s.12.16.11.23c0,.25.08.34.33.31a.48.48,0,0,1,.42.36c0,.22.12.29.33.25a.71.71,0,0,1,.68.51.17.17,0,0,0,.1,0c.4-.07.43-.05.67.27a.37.37,0,0,0,.34,0,.5.5,0,0,1,.56.12.27.27,0,0,0,.43.09.45.45,0,0,1,.55.06.27.27,0,0,0,.44,0,.5.5,0,0,1,.55,0c.18.21.31.11.45,0a.42.42,0,0,1,.55-.08c.18.12.31.08.4-.13a.49.49,0,0,1,.54-.18.24.24,0,0,0,.39-.15.41.41,0,0,1,.52-.25.25.25,0,0,0,.35-.21c0-.26.21-.33.39-.37.39-.08.39-.06.37-.49A.54.54,0,0,0,11.26,12Z"/><path class="cls-1" d="M13.05,3.86c.11-.14.08-.21-.09-.24a.41.41,0,0,1-.3-.5.26.26,0,0,0-.22-.33.41.41,0,0,1-.39-.46c0-.19-.1-.28-.28-.28a.42.42,0,0,1-.45-.41c0-.16-.18-.29-.3-.26a.41.41,0,0,1-.51-.28.58.58,0,0,0-.27-.24s-.12.11-.18.18L9.72.78A.58.58,0,0,1,9.61.63a.26.26,0,0,0-.4-.15A.43.43,0,0,1,8.68.32C8.57.13,8.43.1,8.27.23A.42.42,0,0,1,7.7.14.25.25,0,0,0,7.29.09a.4.4,0,0,1-.59,0,.26.26,0,0,0-.37,0l-.5.37A7,7,0,0,1,8.6.56a6.67,6.67,0,0,1,2.52,1.27A6.82,6.82,0,0,1,12.9,4.07,1.7,1.7,0,0,1,13.05,3.86Z"/><path class="cls-1" d="M13.82,7.23a.79.79,0,0,0,0-.76.49.49,0,0,1-.09-.63c0-.1,0-.33,0-.34s-.19-.22-.24-.35-.1-.16-.14-.24a.36.36,0,0,0,0,.27,6.29,6.29,0,0,1,.08,3.28,6.62,6.62,0,0,1-1.55,2.95,1.65,1.65,0,0,0-.19.27l.07.05a.86.86,0,0,1,.17,0,.29.29,0,0,0,.31-.31.42.42,0,0,1,.36-.45.26.26,0,0,0,.23-.34.41.41,0,0,1,.26-.5.27.27,0,0,0,.19-.4.4.4,0,0,1,.19-.5.27.27,0,0,0,.14-.42.5.5,0,0,1,.11-.56c.2-.13.22-.24.08-.42A.46.46,0,0,1,13.82,7.23Z"/><g id="_Group_" data-name="&lt;Group&gt;"><g id="_Group_2" data-name="&lt;Group&gt;"><g id="_Group_3" data-name="&lt;Group&gt;"><path id="_Path_" data-name="&lt;Path&gt;" class="cls-2" d="M4.1,7.21,4,7.32l.08,0C4.16,7.25,4.2,7.13,4.1,7.21Z"/></g><g id="_Group_4" data-name="&lt;Group&gt;"><polygon id="_Path_2" data-name="&lt;Path&gt;" class="cls-2" points="3.98 7.3 4.01 7.31 4.01 7.23 3.98 7.3"/></g><g id="_Group_5" data-name="&lt;Group&gt;"><path class="cls-2" d="M3,6.59s0,0,0,0v0H3c0-.12-.08-.07-.08-.15L3,6.26c.06-.16,0-.19-.12-.14s0,.09,0,.08l-.06-.07.1,0c.19-.47-.34-.12-.29-.44l0,0a.24.24,0,0,1,.08-.14l-.23,0a.35.35,0,0,0-.24.12c.06,0,.06.16.08.18s-.13,0-.19,0a.42.42,0,0,0,.19.48l.78.44C3.11,6.66,2.92,6.79,3,6.59ZM2.31,6V6c.05-.11,0,0,.09-.11C2.4,6,2.36,6,2.31,6Z"/></g><g id="_Group_6" data-name="&lt;Group&gt;"><path class="cls-2" d="M10.42,10.8s.2-.19.29-.19a.58.58,0,0,1-.06.17h0s0,0,0,0-.09,0-.11,0a.25.25,0,0,1,0,.15.41.41,0,0,0,.32-.59l-.25-.56c0,.07,0,.1-.05.22s.1,0,.07-.09a.48.48,0,0,1,.07.53l-.07-.07,0,.06c0-.19-.15-.19-.26-.31a1.28,1.28,0,0,1-.17.37c-.1,0,.05-.36,0-.36s-.08.15-.05.16-.23,0-.07-.2c0-.07.11.09.18-.14,0,0,0,.15.13.1s.16-.23.09-.24-.15.05-.12,0,.06,0,.13-.09c-.12,0-.11,0-.21,0,.06-.18-.12-.05,0-.29l.1-.09-.1.15c0,.14.25.09.24.31l.11-.12L9.63,7.69a.4.4,0,0,1,.1-.48l1.12-1c.09-.1-.07,0,0-.2v.16L11,6.06V6s0,0,.1-.07l.13-.11a.24.24,0,0,0,0-.12c0,.15-.16.12-.09,0a1.4,1.4,0,0,1,.3-.12l.41-.37a.42.42,0,0,0-.33-.73l-2.2.25c0,.07-.12.15-.08.16-.14.14-.14.14-.23.14a1.27,1.27,0,0,1-.28.52V5.51l.11,0c.09-.14-.05,0-.05-.09l.16-.18c.07-.26,0-.25-.1-.31S8.78,5,8.76,5l.05.18c-.1.05-.15,0-.1-.24a2.8,2.8,0,0,0-.15.3c0-.09-.14.13-.26.2a.44.44,0,0,1,.1-.19l-.15.1.07-.12c-.17,0,0-.28-.19-.15.4-.39,0-.17,0-.38h0c0,.06-.07.1,0,0h0l0,0a.06.06,0,0,0,0,0l.05-.07,0-.07c0,.08-.11.18-.17.18s-.1-.16-.24-.1-.2.23-.18.33a.29.29,0,0,0,.09-.14c.1.07-.25.57,0,.52s.15.54.24.68c-.14.19.06.15-.1.3L8,6.23c0-.05,0-.09,0-.08.28-.3.11,0,.37-.24l-.16.21.1.09.12-.29c.11.07.39-.17.43,0a.64.64,0,0,0,.08-.14l0,.12-.1,0c0,.28.3.18.19.47l-.19.17v.11l.05-.07c.06,0,0,0,0,.11v0s0,0,0,0-.14.16-.17,0l0,.07v.07a0,0,0,0,1,0,0v0s0,0,0-.07a.72.72,0,0,1,.11-.39c-.11,0-.06.1-.18.19,0-.18-.19.14-.21,0l0,0a.74.74,0,0,0,0,.12s0-.07,0-.12,0-.09-.05,0l.15-.24c0-.14,0-.11-.13-.14l-.2.27s.06,0,.09,0h0c.05-.07.11-.17.14-.13s-.09.08-.14.13h0a.25.25,0,0,0-.1.17s.16-.15.1,0l-.07,0c-.32.27.11,0,0,.28,0,0,.05-.05,0-.06s-.11.29-.07.18c.07-.4-.41.21-.39-.13.2-.18,0-.15,0-.28,0,0,.1,0,.2-.07s0-.21-.15-.23l-.09.14c0,.11.24-.16.06.09s-.06-.09-.1-.11l-.06,0s0,0,.06,0l.06,0c.07-.2-.09-.13-.12-.19l0,0s0,0,0,0,.07.06,0,.13a.93.93,0,0,1,0-.13.11.11,0,0,1,0,0c0-.08,0-.15,0-.12s0,.08-.07.14l0-.1,0,0,.06-.19-.08.09c0-.12.27-.3.16-.32s-.17-.13-.31-.06l.11-.15c-.14.08,0-.3.14-.5,0-.11-.24,0-.15-.18l0,0c.06-.08,0-.13.09-.2s.17-.17.23-.19c-.11,0,.21-.31,0-.28,0,0,.18-.16.14-.19s-.1.08-.17.18a.82.82,0,0,1-.1-.24,1.12,1.12,0,0,0-.22.25c.07-.15,0-.26-.13-.11,0,0,0,0,0,0s-.28.13-.17-.08c.12,0,.17-.28.23-.35-.19.29-.09-.06-.27.16s.09,0-.06.15c-.08-.14.2-.23.12-.37S7.06,3.91,7,4V4c-.12,0-.17.14-.29.26s0,0,0,0l-.08.11c0-.1-.13-.2-.27-.12s.09,0,0,.18l-.06,0c-.07.16.1,0,.1.07s-.15,0-.25.2c.08.06,0,.07,0,.16l.08-.15L6.24,5c.1-.16.24-.39.34-.43,0,.15-.27.36-.27.42-.4.44-.25-.12-.55.19.06-.21.11-.4,0-.46.21-.25.31-.13.52-.36,0,0-.06-.18-.19.07-.07-.05,0-.37-.08-.25v0c0-.09,0-.15,0-.22S6,4.07,6,4.06s.28-.3.24-.44l-.06.07.08-.17s.06,0,.13-.06,0-.13,0-.15-.13.09-.18.14c.1-.18,0-.19,0-.25l.07,0S6.39,3,6.34,3s-.06.1-.1.12.06-.32,0-.39.05.06.13-.09l0,.18c.12-.24.1,0,.22-.19.08,0,0,.34.1.35s.19-.22.3-.31l-.07.23,0,0c0,.08-.14.16-.09.22A.89.89,0,0,0,7,3l0,0L7.08,3c-.13.16,0,.14-.11.24.15.18.35.14.54.26s-.06.31.15.28c.06-.05.1-.16.09-.12h0l-.24-.53s0,0,0,.07-.07,0,0-.09h0l-.09,0S7.49,3,7.5,3L7.05,2a.37.37,0,0,0-.18-.19h0a.34.34,0,0,0-.15.26c-.14.11-.2.3-.33.33,0-.11.13-.26.12-.32-.17.16-.09-.09-.23-.05s0,0,0,.05L6,3.21l0-.07L6,3.33,5.72,4.76v0l0,.16a.41.41,0,0,1-.37.33L4,5.4c0,.11-.08.21,0,.26.11-.18.12-.12.19-.24s-.08.15-.12.23c.24-.21,0,.21.06.27L4,6v.13c.09-.19.09-.05.19-.18,0,0,0,.11,0,.13s.05-.11.1-.16a.32.32,0,0,1-.18.27c0,.1-.09.23-.07.28.08-.15.06.06.14,0l0,0v0s0,0,0,0-.1.16,0,.22L4,6.87c.07,0,.13,0,.19,0L4.07,7c.13,0,.1.32.22.35s.08-.12.15-.22c-.07.18.14.19,0,.47l.36.21A.43.43,0,0,1,5,8.22l-.31,1.5s.11,0,0,.18a.35.35,0,0,1-.08,0v0l-.21,1A.42.42,0,0,0,5,11.5a.26.26,0,0,1,.07-.1,0,0,0,0,1,0,.07l.09-.06.12-.11s0,0,0-.09v.06h0c.07-.13.19-.36.15-.33l.17-.23c0,.08-.07.23-.07.34l.12-.12h0l0,0,.37-.34h0c-.36.17.25-.42.07-.48l.15.07c-.11,0-.12.2-.06.21l.09-.17c-.07.15.07.1.12,0a.44.44,0,0,0,.05-.09s0,0,0,0-.21,0-.11-.15c0,.06,0,.05.11-.08l.13.11L6.47,10v0a0,0,0,0,1,0,0l0,0c.09-.16.11,0,.17-.2,0,0,0,0,.06,0l.52-.48a.42.42,0,0,1,.49-.06l2.49,1.41a.3.3,0,0,0,.17.05C10.43,10.83,10.45,10.79,10.42,10.8ZM8,4.91l0-.06ZM7.85,5l-.11.07V5h0V5a.35.35,0,0,1,.09-.17L7.76,5V5ZM8,5.87S8,5.75,8,5.57c0,.21.15,0,.17.08A1.11,1.11,0,0,1,8,5.87ZM6.83,2.79l.09-.11s0-.05.06-.05l-.06.05c0,.07-.08.17-.11.1ZM4.66,10.18l0-.14h0a.16.16,0,0,0,.06-.16l.08,0C4.8,10.06,4.73,10,4.66,10.18ZM5,11.38l-.06,0,0,.14A.33.33,0,0,1,5,11.23Zm-.23-1.07.11-.09c.08,0-.11.2-.09.22Zm.14-.19c-.09.11-.15.07-.14,0s.13-.25.18-.24ZM8.71,8c-.07,0-.05-.18-.2.07,0,0,.06,0,.09,0l-.14.16s-.08,0-.07-.07,0,0,.07,0,.12-.29.1-.25S8.79,7.78,8.71,8Zm-.27-1,0,.15c-.05,0,0,0-.06,0S8.39,7,8.44,6.92Zm-.13-.08.06.09c-.11.16-.11.05-.14,0ZM7.5,6s-.13.11-.11,0S7.52,6,7.5,6Zm-.19-.79c0,.19.2-.13.11,0s-.11,0-.18.08ZM7,4.26v.07s.16-.08,0,.11V4.33S6.94,4.31,7,4.26Zm-.12,0c0,.1-.08.15-.12.23ZM6.78,5c0,.18.3-.2.22.09l-.09,0C6.92,5,6.71,5.12,6.78,5Zm-.17-.22h0l0-.08-.07.2,0-.12-.06.07Zm-.75,1s.08-.06.1-.11l0,.12S5.79,5.9,5.86,5.8Zm-.15-.1h0l-.05.16,0,0Zm-.11.86.2-.07s-.09.14-.09.17c-.06.19.27-.08.06.24A.28.28,0,0,1,5.6,6.56Zm.1.54c-.07.1-.13.15-.18.12S5.66,7.05,5.7,7.1ZM5.08,7,5,7C5.13,6.93,5.11,7,5.08,7Zm.1.52c0-.11-.14-.24-.1-.38A.86.86,0,0,1,5,7.32c0-.15.29-.35.41-.51a.25.25,0,0,1,0-.07.25.25,0,0,1,0,.07c-.05.09-.07.16,0,.15l0,0c0,.21-.09.31,0,.46S5.17,7.47,5.18,7.56Zm.37,1.89s0,0,0-.06,0,0,0,.06v0h0l0,0c.07-.07,0,.06-.09.14a.51.51,0,0,0,0-.09S5.54,9.47,5.55,9.45Zm.35.73-.07.07.08-.18Zm-.08-.11c.1-.16,0-.27-.11-.1v.08l-.13.07.07,0c.19-.35-.1-.31-.11-.4s.18-.16.16-.09l.08-.18,0,.15c.4-.33,0,.21.43-.18.07.19-.26.32-.27.59l0,0ZM6,10l.06-.1c0-.07.18-.22.17-.26-.16.27,0,.1,0,.21A1.61,1.61,0,0,0,6,10Zm.29-.68c0-.13.09-.12.13-.11s0,0,0,0h0S6.31,9.3,6.28,9.3ZM6.47,9a.19.19,0,0,1,0-.08l.06-.14h0a1,1,0,0,1,.06-.16c.14,0,0,.13-.1.29Zm.1.09h0l0-.19h0Zm.72.34,0-.1c0-.17.16-.07.13-.09Zm.13-.31s-.19.19-.17.23c-.29.46-.25,0-.54.44,0-.1.29-.46.11-.4L7,9.22c.06-.11,0-.05,0-.08-.13.17-.19.25-.25.26.18-.19,0-.05.06-.21s0,.08.08,0A1.46,1.46,0,0,0,6.94,9l0,0c0-.09,0-.21.1-.41-.09.22.21-.12.08.13H7l0,.17c.09,0,.2.26.52,0ZM6.7,8.84l0-.1,0,0Zm.8-.39.13-.2S7.56,8.48,7.5,8.45Zm.41,0L8,8.33v0Zm0-.13v0s0,0,0,0V8.18c-.07.13-.07,0-.15.16A2.13,2.13,0,0,1,7.62,8a.89.89,0,0,0-.09.16L7.46,8c.06,0-.24.44-.07.41l-.15,0v0l-.41.16s0-.12.1-.18c-.11,0,0-.18-.14-.15l.13-.08c0-.19-.17.11-.19-.09l-.08.14,0-.12c-.09,0-.26.25-.22.08l-.14.22s.13-.23.08-.26a.38.38,0,0,0-.17.2c-.08,0,.07-.48-.18-.25.1-.11,0-.13.08-.17h0c.11-.19.12-.24,0-.28l-.1.12a.36.36,0,0,0,.07-.32l0,0,.21-.37c-.09,0-.12,0-.23.13s.05,0,0,.14-.28.3-.43.42l.18-.35.06,0a.2.2,0,0,0,0-.14s-.21.09-.27.19l.13-.29c-.1,0-.11,0-.08-.1l.09-.06s.06-.27-.07-.15c0-.05.09-.11.13-.12l0-.12c.08,0,0,.2.16.19s.3,0,.32-.27l0,.13c.13-.17.1,0,.23-.16-.05-.06-.13,0-.16-.19.29-.26,0,.23.26,0a.41.41,0,0,0-.11.29c.12-.23.08-.05.22-.24,0,.1.35-.14.15.2.19-.13.13-.28.25-.46a.39.39,0,0,0,.15.35l-.07.07c0,.15.23-.08.08.25.09.08.14-.14.22-.15-.09.14-.2.24-.22.37.21-.21.2,0,.34-.06l0,.2-.17.11,0,0c-.29.3,0-.19-.19,0l-.19.25,0,0A.68.68,0,0,0,7,7.85a1.22,1.22,0,0,0,.29-.24s0-.06,0-.05c.21-.15-.09.14,0,.13s.14-.13.2-.17c-.1.16,0,.26.09.19l-.05.19.13-.11c-.11.24.4-.14.2.24.05-.14.12-.09.19-.14s-.14.2-.08.26c.12-.23,0,.08.18,0A.52.52,0,0,1,7.87,8.32ZM8.21,7.2l0-.07a.11.11,0,0,1,0,.07c-.05.09-.13.18-.11.24S8.15,7.3,8.21,7.2Zm.12,1c-.11.08-.18,0-.1-.17C8.16,8.24,8.36,8,8.33,8.18Zm.14.26V8.38s-.11.08-.12,0l0,0-.09.23V8.52l.09-.09v0s0,0,.08,0a.18.18,0,0,0,.05-.13v.13S8.48,8.4,8.47,8.44Zm.33.23c-.05.09,0,.14-.06.23s-.11.1-.15,0,.14-.33,0-.21c.12-.18.12,0,.2-.07l.06-.08A.18.18,0,0,1,8.8,8.67ZM8.53,7a.53.53,0,0,1,.14-.25C8.56,6.86,8.61,6.94,8.53,7Zm2-1c-.09.08-.17.14-.22.12l.17-.2Zm-.25-.1h0l0-.15s.12,0,.06.07h0l-.13.23C10.32,5.94,10.16,6.07,10.27,5.91Zm-.73-.78a.2.2,0,0,0,.08.08S9.45,5.27,9.54,5.13Zm-.19-.31.05.06-.16.23C9.28,5,9.39,4.84,9.35,4.82Zm0,1.3s.15.06,0,.18C9.39,6.2,9.32,6.19,9.34,6.12Zm-.25.34c0,.17.08,0,.13-.08l-.07.2C9.1,6.58,9,6.6,9.09,6.46ZM9.2,9.87s0-.12,0-.07l.07-.21c.06,0-.08.24.06.1ZM9.36,7c-.07,0-.11,0-.19.15C9.15,7,9.1,7,9,7a2.52,2.52,0,0,0,.22-.47,2,2,0,0,1,.43-.27v.17c-.14.2-.13.12-.23.15a.7.7,0,0,1-.18.32Zm.77,3.61s0,0-.06,0,.06-.07.11-.12Zm.08.1c.08-.09.14-.16.14-.08S10.28,10.69,10.21,10.73Z"/></g><g id="_Group_7" data-name="&lt;Group&gt;"><path id="_Path_3" data-name="&lt;Path&gt;" class="cls-2" d="M4.21,7.28c-.09.11-.06.08-.09.1l.11,0A.13.13,0,0,1,4.21,7.28Z"/></g><g id="_Group_8" data-name="&lt;Group&gt;"><path id="_Path_4" data-name="&lt;Path&gt;" class="cls-2" d="M4.67,10l.09-.1-.07,0,0,.15Z"/></g><g id="_Group_9" data-name="&lt;Group&gt;"><path id="_Path_5" data-name="&lt;Path&gt;" class="cls-2" d="M7.87,4l0-.09-.07-.16-.07.13C7.88,3.8,7.83,4,7.87,4Z"/></g><g id="_Group_10" data-name="&lt;Group&gt;"><path id="_Path_6" data-name="&lt;Path&gt;" class="cls-2" d="M8.05,4.22H8v0Z"/></g><g id="_Group_11" data-name="&lt;Group&gt;"><path id="_Path_7" data-name="&lt;Path&gt;" class="cls-2" d="M2.87,5.75c0-.09.14-.18.16-.23H3l-.08.12A.17.17,0,0,1,3,5.53H2.84l0,.06a.14.14,0,0,0,0-.06H2.74C2.75,5.67,2.69,5.84,2.87,5.75Z"/></g><g id="_Group_12" data-name="&lt;Group&gt;"><path id="_Path_8" data-name="&lt;Path&gt;" class="cls-2" d="M10.37,9.87c.05.05.11,0,.18-.16l0-.06A1.07,1.07,0,0,0,10.37,9.87Z"/></g><g id="_Group_13" data-name="&lt;Group&gt;"><path id="_Path_9" data-name="&lt;Path&gt;" class="cls-2" d="M8,4.2l0,0H8S8,4.22,8,4.2Z"/></g><g id="_Group_14" data-name="&lt;Group&gt;"><path id="_Path_10" data-name="&lt;Path&gt;" class="cls-2" d="M8,4.09l-.08-.16h0C7.79,4.15,7.92,4.08,8,4.09Z"/></g><g id="_Group_15" data-name="&lt;Group&gt;"><path id="_Path_11" data-name="&lt;Path&gt;" class="cls-2" d="M7.83,3.74l0-.07C7.79,3.72,7.78,3.77,7.83,3.74Z"/></g></g></g></g></g></svg>