<svg xmlns="http://www.w3.org/2000/svg" xmlns:xlink="http://www.w3.org/1999/xlink" viewBox="0 0 467.42 745.9"><defs><style>.cls-1{isolation:isolate;}.cls-2{fill:#f1f1e9;}.cls-3{mix-blend-mode:multiply;}.cls-4{fill:url(#linear-gradient);}.cls-5{fill:#7b3d2f;}</style><linearGradient id="linear-gradient" x1="1.12" y1="372.66" x2="466.92" y2="372.66" gradientUnits="userSpaceOnUse"><stop offset="0" stop-color="#f0f0d6"/><stop offset="0.01" stop-color="#f0f0d6" stop-opacity="0.91"/><stop offset="0.04" stop-color="#f0f0d6" stop-opacity="0.72"/><stop offset="0.08" stop-color="#f0f0d6" stop-opacity="0.55"/><stop offset="0.11" stop-color="#f0f0d6" stop-opacity="0.4"/><stop offset="0.15" stop-color="#f0f0d6" stop-opacity="0.27"/><stop offset="0.19" stop-color="#f0f0d6" stop-opacity="0.17"/><stop offset="0.24" stop-color="#f0f0d6" stop-opacity="0.1"/><stop offset="0.29" stop-color="#f0f0d6" stop-opacity="0.04"/><stop offset="0.36" stop-color="#f0f0d6" stop-opacity="0.01"/><stop offset="0.51" stop-color="#f0f0d6" stop-opacity="0"/><stop offset="0.67" stop-color="#f0f0d6" stop-opacity="0.01"/><stop offset="0.74" stop-color="#f0f0d6" stop-opacity="0.04"/><stop offset="0.79" stop-color="#f0f0d6" stop-opacity="0.09"/><stop offset="0.83" stop-color="#f0f0d6" stop-opacity="0.16"/><stop offset="0.87" stop-color="#f0f0d6" stop-opacity="0.26"/><stop offset="0.9" stop-color="#f0f0d6" stop-opacity="0.38"/><stop offset="0.93" stop-color="#f0f0d6" stop-opacity="0.52"/><stop offset="0.96" stop-color="#f0f0d6" stop-opacity="0.68"/><stop offset="0.98" stop-color="#f0f0d6" stop-opacity="0.86"/><stop offset="1" stop-color="#f0f0d6"/></linearGradient></defs><title>Asset 7</title><g class="cls-1"><g id="Layer_2" data-name="Layer 2"><g id="Layer_2-2" data-name="Layer 2"><path class="cls-2" d="M467.42,732.86s-196.41-10.78-443,11.6L1.12,43.62S265.51-39.22,466.21,25.07l1.21,707.79"/><g class="cls-3"><path class="cls-4" d="M466.92,732.36S271,722.08,24.37,744.46L1.12,43.62s264.09-82.55,464.8-18.26"/><path class="cls-5" d="M465.72,26c.83.18.44-.17-1.82-.78l-1.69-.16Z"/><path class="cls-5" d="M450.78,21c-1.34-.31-2.79-.63-3.7-.76s-1.3-.05-.47.31c2.7.46,3.29.78,6.21,1.24,2.26.63,3.9,1.26,3.48,1.27.82.15,3.47,1.09,4.74,1.25a86.24,86.24,0,0,0-10.48-3.15C449.75,20.8,450.58,21,450.78,21Z"/><path class="cls-5" d="M223.48,3,225,2.9C224.55,2.91,224,2.93,223.48,3Z"/><path class="cls-5" d="M82.94,22.71a10,10,0,0,0,1.54-.38A8.86,8.86,0,0,0,82.94,22.71Z"/><path class="cls-5" d="M59.16,27.5l1.4-.29A12.37,12.37,0,0,0,59.16,27.5Z"/><path class="cls-5" d="M223.48,3l-3.8.19A27.59,27.59,0,0,0,223.48,3Z"/><path class="cls-5" d="M419.94,14.26c.78.15,1.43.25,2,.33l-1.9-.35Z"/><path class="cls-5" d="M286,.16h1.15c.34,0,.66-.09,1-.15Z"/><path class="cls-5" d="M334.06,1.43a4.31,4.31,0,0,0-1.9.27,14.88,14.88,0,0,1,2.38,0S334.42,1.54,334.06,1.43Z"/><path class="cls-5" d="M409.62,11l1.33.23Z"/><path class="cls-5" d="M251.62.94a1.57,1.57,0,0,0-.44-.09S251.36.92,251.62.94Z"/><path class="cls-5" d="M411.31,729.29s0,0,0,.05C411.59,729.32,411.68,729.3,411.31,729.29Z"/><path class="cls-5" d="M466.91,732.43l-.77,0c-.08.05-.17.1-.17.15Z"/><path class="cls-5" d="M16,37.91l.19,0C17.3,37.52,16.67,37.7,16,37.91Z"/><path class="cls-5" d="M12.93,434.76c.1-4.62.57,7.49.62.54C13.46,436,12.9,429,12.93,434.76Z"/><path class="cls-5" d="M418.73,14l-1.93-.39C417.68,13.77,418.27,13.9,418.73,14Z"/><path class="cls-5" d="M13.55,435.3h0v0Z"/><path class="cls-5" d="M2.78,130a7.41,7.41,0,0,0,.09-1A4.87,4.87,0,0,0,2.78,130Z"/><path class="cls-5" d="M.66,53.85l0,1.88Z"/><path class="cls-5" d="M4.49,169.45c0,1,0,1.37.07,2.77l0-.43A20.49,20.49,0,0,1,4.49,169.45Z"/><path class="cls-5" d="M5.86,210.57l0-.76-.06-1.3Z"/><path class="cls-5" d="M286.23,729.39c.9.07,1.46.15,1.9.22C287.49,729.43,293.54,729.26,286.23,729.39Z"/><path class="cls-5" d="M420,14.1a4.61,4.61,0,0,1-1.22-.12l1.34.26C420.19,14.22,420.23,14.19,420,14.1Z"/><path class="cls-5" d="M6.76,171.05l.18,6.53Z"/><path class="cls-5" d="M24.42,711.58l.08,1.5C24.49,712.5,24.46,712,24.42,711.58Z"/><path class="cls-5" d="M7.62,197c-.06,1.17-.07,2.4-.07,3.68,0,.27.06.58.1.76Z"/><path class="cls-5" d="M288.15,729.62h0Z"/><path class="cls-5" d="M331.21,728.47c-6.23,0-2.93.38-4.25.6-7.43.16-3.44-.24-6-.41-4.65.13-8.2.49-11.67.5-.26-.06-.93-.07-.14-.15-4.91.33-14.57.23-20.29.69a6.78,6.78,0,0,1-.74-.08c.93.17,1.07.35.88.49-2.79,0-5.17.32-6.23.09a15.58,15.58,0,0,0,2.65-.21l-2.92.16c-2.64-.31,4-.19,4-.45-5.71.22-12.35.58-16.73.61-.92-.35,10.23-.32,4.39-.52l6.76,0c-5.18-.45,4.12,0-.65-.52-8.9,0-10,.36-18.83.48-2,.24.66.27-1.33.51-12.61.66-10-.6-19.23.09a51.05,51.05,0,0,1-9.92.74l2.24-.47c-8.62.27-4.9.73-13.93.8,1.6-.21,6.76-.37,5.46-.37-5.86-.09-4.13.36-8.62.53l-.94-.31c-9.18.38-19.27,1-29.42,1.54.56-.12,2.29-.31-.09-.3-6.4.38-13.23.69-20,1l-10.07.37-9.62.41-4.7.57c-1.1.06-2,0-.86-.14-4.82.17-.24.2-2.54.45-2.74.18-3.63,0-1.9-.15-8.48.75-24.15,1.91-33.11,2.29l1.74-.21c-7,.38-7.82,1.16-14.29,1.34l1.23-.14c-7.55.48-15.5,1.05-23,1.61S54,741.06,48.22,741.32c-2.15.6-14.95,1.06-15.87,1.73l-4.92.22-1.52.05-.5,0,0-.53v-2c0-1.59-.05-3.68-.09-6.63-.08-3.25-.53-4.83-.73-8.85l.31-.11-.51-5.44.28-2.92-.21-3.76a11.74,11.74,0,0,1-.13,3c-.16-2.94-.23-6.53-.23-9.41a44.73,44.73,0,0,1,.13-5.1l-.73-13.92c.14.31.26,2.64.4,4.48-.56-7.43.28-1.36-.24-8.17,0,.92-.2-.48-.26-.64.07-3.4-.19-11.13-.45-16.85l.25,1.1C23,657.2,22.41,645.76,22,634.17c0,4.16-.36,3.22-.51-.18l.28-1.37c-.27-2.19,0,3.55-.4-1-.1-4.33.28-2.92.46-.44L21.58,626c.08-.31.18.92.31,1.24-.27-2.15,0-9.1-.43-12.21l.09-.3c-.44-11.58-.64-16.84-1-26.28-.29-.17-.35-3.87-.67-6.67-.14-6.94-.17-14.65-.47-23-.34-5.87-.3-1.71-.55-4.34.24-.44-.06-8.79.27-4.47-.38-10-.48-12.81-1.11-25.49-.06,1.38-.05,2.93-.17,2.13a23.7,23.7,0,0,1,.07-4.92l0,.61c-.86-14.23-.35-32.9-1.26-44.22l.05.63-.67-11.75c-.13-5.41.3,3.24.33-.77-.85-12.67-.6-20-1.24-30.49.49-8.11-1-28.69-.88-39.63l-.16.64a44.47,44.47,0,0,1,0-5.5c-.12.3,0,3.07-.21,1.32-1-23.89-1.38-49.34-2-73.85-.25-9-1.09-5.05-1-16.36l.44,3.19c-1-18.07-1.21-37-2.14-54.67a19.12,19.12,0,0,1,.27,2.81c.06-1.88-.05-5.33-.2-8.33-.08-1.5-.16-2.88-.24-3.89a8.67,8.67,0,0,0-.2-1.67c-.07-2.76.15-.64.2-2.35,0-3.75-.62-9.4-.45-11.4a10.45,10.45,0,0,1,.15,1.74c-.19-2.45-.34-11.39-.54-9C8,212,7.56,206,7.55,200.65c-.42-3.44-.23-11.38-.7-12.46.47.46,0-11.66-.38-15.86.19,1.41,0-3.65.27-2-.17-4.8-.4-9.19-.6-8.35.25-8.85-1-17.74-.5-22.73C4.93,125,4.33,111.83,3.8,99c.46.45.51,14.16,1,13.59-.58-12.14-1.2-19.14-1.49-31.2,0-3.12.25,1.77.36,2.82C3,72.09,2.89,60.75,2.29,50c0,0,.13,1.19.2,2.29-.09-2.12-.1-5-.3-4.7l.13,2.07c-.09,1.71-.32-.4-.54-3L1.61,44.7,1.54,44c0-.08,0-.1.09-.11l.15-.06.3-.12,1.21-.45A4.13,4.13,0,0,0,3.87,43c-3.3,1.56,10.29-2.83,5-.53,1.34-.42,3-1,2.66-1,2-.53,2.66-.63.68.09,7.31-2.14,4.64-1.65,11.32-3.42,0,.1-1.34.49-2,.79,3.33-1.09,6.68-2.18,12.36-3.54-.33.15.35.06-1.34.49C42.24,33.36,49,31.22,59.76,29c-3.07,1.13,3.69-.69,4.34-.45l5.75-1.39-2.36.33c5.06-1.1,9.49-2.31,13.87-3.12l-3.73,1c3.15-.71,6.32-1.37,9.49-2l-5.42.94c5.11-1.22-.64-.35,6.14-1.61-1.36.32,5.09-1,7.78-1.33h0c2.5-.6,5.07-1.21,8.85-1.83,1-.06-.71.56,0,.51,1.21-.37,4.18-1,7.25-1.55s6.22-1.14,7.77-1.58c-1,.26-1.06.47-.71.45l2.05-.62c2.38-.33,2.73-.36,2.37-.14,7.13-1.16-2.34-.12,6.15-1.29-.66.13-.34.11-1.71.37,4.26-.63,8.35-1.33,12.37-2s7.95-1.25,11.88-1.77c2.36,0-6.83,1.09-4.14,1,5.64-.86,11.46-1.85,17.26-2.66s11.55-1.7,17-2.24l-2,.19c1.46-.7,8.2-.67,13.72-1.54-1.36.19-1.75.49-1.39.39,3.76-.36,7.61-.73,11.93-1.22l6.9-.77c2.45-.27,5.08-.49,7.93-.76l-1.4.24c2.22-.11,5.15-.31,8.12-.53s6-.45,8.38-.53c1.42-.22,4.17-.36,2.49-.46,3.71,0,7.33-.15,10.88-.34s7-.33,10.46-.53,6.8-.37,10.15-.5,6.65-.06,9.94.05c-1.57,0-3.74.17-2.49.15l11.2-.27a25.91,25.91,0,0,0-3.82-.27c1.41-.14,4.58-.33,7.36-.3-5,.13,0,.36,2.22.53-.36-.08.38-.15.2-.22,5.85.48,1-.45,9-.08l-.43.11c3,0,5.76-.19,9,0,1.33.31-3.19,0-3.4.27,4.53.06,8.95-.2,13,.21l-6.62-.11c4.45.49,5,.43,8.28.6l-.32,0,7.66.45c-.65-.08-1.3-.11-1.95-.17,5.7-.41,11.53.61,19.19.64-7.45-.06-1.25.17-1.84.43,1.94.22,4.89.51,4,.54,3.62.1,6,.77,11.08.9.22.12,3.85.38,3,.55,4.68.37-1.08-.28-.68-.36,1.81.09,3.77.26,5.85.48s4.28.61,6.58.94c4.6.69,9.59,1.37,14.78,1.87,8.88,1.28,10.57,1.23,18.82,2.43,1.37.34.79.31-.14.22s-2.19-.25-2.19-.25c2.23.41,4.17.86,6.08,1.25s3.8.74,5.91,1.12c-.87-.09,0,.16,1.25.52,3.36.67,2.32.12,6.72,1.17-.79-.05-1.8-.08-3.44-.31l6,1.06L434,17c1,.43-2.51-.36-4-.61,4.57,1.06,11.85,2.78,13.33,2.87l-2.91-.82c1.67.4.8.44-.44.18-4-.76-5.61-1.49-5.81-1.64l2.9.66a47.81,47.81,0,0,0-7.61-2.06c-1.63-.39-3.39-.67-5.09-1s-3.36-.6-4.82-.91l2.53.09-6.1-.89c-1.26-.37-2.09-.78.83-.25C412.62,11.55,413,12,409.46,11c-.4-.12-.21-.1.16,0-1.38-.27-2.77-.44-4.16-.63.83.05-.64-.4,1.9.08C400,9,395.29,8.76,392.54,8l.63.08c-5.18-.8-5.45-.74-5.39-.62s.44.29-3.48,0L379.16,6l-1.06.17c-1.07-.15-3.19-.45-2.78-.52-4-.31.66.22-1.68.11-1.28-.23-2.81-.46-4.4-.67s-3.26-.33-4.79-.49a33.46,33.46,0,0,1-6.19-.86c-1.88,0,4.93.66-.61.29-1.53-.65-6.39-.59-11.11-1.17,1.48-.2,5.95.37,1.23-.29-2.89.27-9.23-.71-13.23-.89-.11.18-2.29.07-5.28-.12s-6.8-.29-10.16-.36c.21-.05-3-.22-6.94-.43s-8.84-.27-12-.4l.18-.06c-1.21.36-7.67.19-12.37.25.19-.23,1-.32,3.58-.38-1.47,0-2.95,0-4.42,0-1,.13-2.42.21-5.29.29L283,.15,263.58.66c-.41.27,6,.5-1.95,1-.3-.12-.6-.35,1.49-.48-.69,0-2.44.2-3.83.19L262.48,1c-3.45,0-1.79.25-4.55.33.05-.2-2-.07-1.65-.24.7,0,2.4,0,3.46-.12-3.11.08-6.87.09-8.12,0,.28.1,0,.26-2.26.38-5.87.35-2-.12-5.45,0-1.41.22-5.17.29-5.25.59A13.47,13.47,0,0,1,236,1.81c-3,.24-14.18,1-10.74,1.07l.78,0-.5,0h0c-5,.54-10.13.85-15.28,1.25S199.91,5,195,5.52v-.1c-5.87.72-13.07,1.53-17.23,2.21-1.74.18-4.12.31-3.39.1-4.47.66-5,.84-11.45,1.52,4.48-.76-1.57.05,4.6-.73-5.83.7-7.18.63-13.38,1.83,2.09-.56-4.41.32-7.16.8l4.09-.41c-3.1.49-5.81.86-8.57,1.24l1.44-.54c-6,.67-11.29,1.76-16.26,2.68s-9.57,1.9-14.14,2.34c-3.09.78,6.46-1,3.7-.2-2.72.46-5.52.81-7.85,1.1s-4.19.54-5,.7c-7.48,1.23-6.86,1.74-14.65,3.19,1-.08,2,0-3.76,1.32-5.43,1-6.76.86-3.36.07a8.82,8.82,0,0,1,1.89-.31c1.74-.4,4-.91,1.86-.6l-.68.26c-2.72.39-10.16,2-8.45,1.44-4.07,1-1.71.56,1.33,0-7,1.31-10.84,2.3-18,3.81,1.14-.19,2.22-.29,1.09,0-10.48,2.21-4.54,1.27-11.6,3-4,.78,1.34-.77-5.73,1.08-4.36.95-1-.08.71-.6-6.41,1.8-12.11,2.83-15.8,3.76l3.37-1c-2,.58-3.68,1-5.38,1.44l2-.27a31.47,31.47,0,0,1-3.68.81c-2,.69,1.67,0-2.34,1.25-2.69.57-8,2.3-9,2.26,8.35-2.19-1-.07,6-2-1.35.39-3,.85-5,1.36-.31.05.26-.14.8-.31-8,1.94-3.57,1.34-11.8,3.71.5-.23,0-.18-.79,0L2.08,42,1,42.26l-1,.32L1.83,42c.36-.1.49-.12.64-.15s.28,0,.09.09a4.41,4.41,0,0,1-.42.2L2,42.24l-.26.09-.6.22-.66.24c-.11.05-.26.07-.33.14l0,.42L.28,45c0,5.48.3,5.95.38,8.82l0-3.28c.21,1.1.28,3.84.46,7.66-.13.33-.21-3.46-.22-2.1.45,4.23,0,9.6.4,15.5,0,2.75-.33.28-.33,2.69.45,6.62,0,7.18.42,14.14.17-2,.1-2.36.49,2.54L1.3,79.55l.59,7.34c-.12-3.46-.4-7.29-.42-9.36.31,3.49.24,3.13.38,1.47-.2,4.75.52,9.37.46,14.85l-.6-.15c0,8.23.79,14.59,1,25.27v-3.43c.29,1.42.25,6.59.46,10-.2-.32-.2,1.85-.28,3.33.14-.19.25,7.81.67,8.77l-.1,4.77c.18,8.62.89,9.81,1.1,18.1-.3-2.49-.31,1.28-.65-4.26a42.32,42.32,0,0,0,.27,5.29c-.07,1.62.52,7.66.42,10.21A29.94,29.94,0,0,1,5,176.43c0,.34-.1,0-.1,0s.3,4.86.43,2.14c-.34,8.54.83,23.81.55,31.25.24,6,.54,13.3.76,18.78-.07-.35-.09,0-.11-1.05.07,7.56.72,4.63.8,13.24C7.17,245.18,7,236.21,7,239c-.61,1.21.43,10.38.24,16.18l-.08-1.4c-.07,4.43.6,10.78.8,18,0,0-.07-.34-.1,0,.49,4.93.91,14.28,1.24,21.24-.33-2.16-.24-3.16-.46-1.83.14,3.12.39-.93.66,5.29-.07,2,0,6.52-.3,7.13l-.21-5.87c-.25,3,.27,7.6.31,10.69L8.92,308c.35,9,.75,9.11,1,18.77l.08-1c.57,5.27-.07,4.44.4,9.7l-.35,1.61c.21,3.48.79,12.2,1.07,18.44-.41-3.53-.8-10.84-1.12-15.36.11,3.46.41,11.74.67,13.54-.09-1.39-.24-3.15-.23-4.52q.69,6.34,1,16.69c-.8-1.2.41,17.95,0,23,.69,12.18.68,24.17,1.2,38.36.42-5.05.15,4.15.73,3.26.15,3.3.18,4.56.15,4.86l0,10c-.1,2.38-.24-3.14-.37-2.83.2,7.24-.15,3-.16,7.84.19-1,.4,2.5.45,6.63l.09-5.82c.66,10.1-.22,8.76.44,18.94l-.3-3.21c.29,5.22.64,19.3,1.3,24.41,0,.93-.17,2.15-.29-.15.34,12.51,1.44,27.82,1.46,37.54l-.18-.94c.12,2.33.42,4,.37,7-.07-.15-.18-.94-.16.14.09,1.24.47,6.19.48,9.28l-.25-2.63c.21,12.2,1,18.7,1.47,28.92-.44,0-.26,9.59-.18,14.38l-.06-.16c.41,14.2,1.16,24.11,1.77,37.25-.21,8.18.72,27.66.88,40.79,0-2,.36.31.48,2.65,0,3.08.59,8.5.17,8l0-1.1c-.32,2.34,0,8.66.15,13.6l.55.8c-.34,13,1.41,33.85.95,40.92.24,3.12.36,7,.6,10.07l-.29-.16c.09,3.29.16,6.06.22,8.42l8.83-.72,9.13-.8-2.16.39c6-.49,7.51-1.45,13-1.93l1.7.28c5.24-.45,10.52-.8,15.77-1.19s10.51-.71,15.68-1.27a6.44,6.44,0,0,1-2.17.35c4.94-.33,19.11-1.06,17.28-1.51.15.38,10.82-.76,16.48-1.26l-.87.33c4.77-.64,4.91-.74,11.59-1.23,1.58-.06,1.4.14-.71.19,5.28-.16,4.1-.5,10.5-.73l-2.37.32a65.57,65.57,0,0,0,8-.75,89.72,89.72,0,0,1,11.11-.32,40.42,40.42,0,0,1,6.89-.64c.44.07-.72.18-1.31.24,9.09-.23,13.49-.95,19.75-1a3,3,0,0,0,1.06.11c-7.21.33-13,.59-12.48.54,0,.26,5.84,0,1.22.61,4.67-.42,12.65-1.21,18.34-1.36.27,0,.54,0,.75.06l-.58.05c1.31,0,2.48-.11,3.58-.21,1.82,0,3-.06,4.71-.14.68.16,6.69-.14,9.6-.24-.25-.27,3.55-.36,0-.46a21.79,21.79,0,0,1-2.48.13l-1.24.07.2,0-7.23.31a59.57,59.57,0,0,1,7.91-.42c1.48-.24,3.12-.48,4-.6,4,.25,11.67.19,12.75.39l14.47-.7c4.82-.25,9.22-.44,12-.79a18.3,18.3,0,0,1,3.86.14c-1.46.09-3.19.12-4,.22,5-.27,14.95-.44,16.15-.84,6.37,0-3.57.43,5.17.15l-1.17.14c8.6,0,15.59-.24,22.81-.59s14.68-.7,24.22-.37a20.87,20.87,0,0,1-2.25-.11c21.74.14,44.81-.6,66.27.15a98.91,98.91,0,0,0,10.48-.22l1.32.32,6.37-.27c9-.08,15.61,1,27.05.78l-1.47-.24c4.1.14,13,.19,12.3.41a14.5,14.5,0,0,1,3,0l.12.16,10.08,0c7.8.39-1.24.58,10.15,1,4.24.09,12.07.07,10.49-.11a28.39,28.39,0,0,1-4.48-.46l3.87.09c.73-.42,3.74-.78-5.77-1.53l-6.64,0-2.13-.31,5.58.2a51.05,51.05,0,0,0-7.43-.18,16.59,16.59,0,0,0-2.77-.35l-6.52.25c-.79-.21,2.93-.28-1.44-.51-3.06.11,2.91.5-2.14.48a27.35,27.35,0,0,0-6-.38c-.52-.13.27-.19,1.74-.21-3.32.07-8.77-.15-10.49.06-3.3-.35-11.2-.2-10.86-.62-1,.09-5.85.25-8.89.22,5.57-.44-11.4-.22-9.92-.77-4.13.43-14.89.07-22.18.27a14.42,14.42,0,0,1,1.85-.07c-4.1-.08-5.3-.24-7.94-.33-.52.39-6.92.47-10.37.71-5-.38,3.06-.46,1.48-.82.25.32-8.74.3-7,.57a37.51,37.51,0,0,1-5.3-.44c-.68.49-3.59.06-6.78.39-5.57-.2-1.43-.45-7.55-.26C325.77,728.68,331.21,728.47,331.21,728.47Zm-145.45,4.46h0l3-.15Zm-12.22.57,5.3-.23c.43.07,0,.2-1.26.25A38,38,0,0,0,173.54,733.5Zm25.92.76a16.06,16.06,0,0,1-2.85,0l3.38-.16.23,0A3.36,3.36,0,0,1,199.46,734.26Z"/><path class="cls-5" d="M202.92,733.77l.8,0-1.16,0-.68.11Z"/><path class="cls-5" d="M225.21,2.88l-.26,0h.54A1.8,1.8,0,0,1,225.21,2.88Z"/><polygon class="cls-5" points="25.01 725.18 24.94 725.2 25.04 726.27 25.01 725.18"/><path class="cls-5" d="M292.51,1.45c.13,0,.38.05.88.08A8.11,8.11,0,0,0,292.51,1.45Z"/><path class="cls-5" d="M321.56,2.19l4.11.26Z"/><path class="cls-5" d="M343.86,3.62a1.3,1.3,0,0,0,.44-.1h0Z"/><path class="cls-5" d="M2.49,52.24l0,.87C2.65,55.13,2.58,53.75,2.49,52.24Z"/><path class="cls-5" d="M95.6,21.26l-3.31.79A13.54,13.54,0,0,0,95.6,21.26Z"/><path class="cls-5" d="M6.74,170.33h0l0,.73Z"/><path class="cls-5" d="M87.47,23c1.86-.32,3.4-.64,4.82-1C90.78,22.34,89,22.67,87.47,23Z"/><path class="cls-5" d="M439.32,18.77l1,.27s.05,0,.13,0Z"/><path class="cls-5" d="M440.49,19l1.17.26A8.9,8.9,0,0,0,440.49,19Z"/><path class="cls-5" d="M444.12,19.82l-2.46-.53A23.9,23.9,0,0,0,444.12,19.82Z"/><path class="cls-5" d="M410.5,12.22l-.35,0C410.34,12.27,410.46,12.26,410.5,12.22Z"/><path class="cls-5" d="M401.65,10.68l8.21,1.6.29,0C408.76,12.06,403.69,10.86,401.65,10.68Z"/><path class="cls-5" d="M364.65,4.25l3.75.41,3.74.52c-1.29-.28-3-.65.41-.23-4.7-.78-4.22-.65-3.79-.5S369.57,4.74,364.65,4.25Z"/><path class="cls-5" d="M341.36,2.06c4.05.22,0-.16.19-.21C339,1.78,338.35,1.76,341.36,2.06Z"/><path class="cls-5" d="M172.68,7.85l.37-.3C170,8,173,7.65,172.68,7.85Z"/><path class="cls-5" d="M140.88,13.61c1-.11,2-.19,3-.29l1.39-.44Z"/><polygon class="cls-5" points="121.76 14.89 123.1 14.62 117.98 15.61 121.76 14.89"/><path class="cls-5" d="M5.37,203.26l.28-.95C5.52,200.2,5.15,199.77,5.37,203.26Z"/><path class="cls-5" d="M9.75,325.66a48.48,48.48,0,0,0,.12,6.91C9.8,329.81,9.83,327.06,9.75,325.66Z"/><polygon class="cls-5" points="21.41 692.8 21.22 690.34 21.46 694.98 21.41 692.8"/></g></g></g></g></svg>