<svg xmlns="http://www.w3.org/2000/svg" viewBox="0 0 50.57 63.3"><defs><style>.cls-1{isolation:isolate;}.cls-2{opacity:0.71;mix-blend-mode:multiply;}.cls-3{fill:#3d2775;}</style></defs><title>toggle1</title><g class="cls-1"><g id="Layer_2" data-name="Layer 2"><g id="Layer_2-2" data-name="Layer 2"><g class="cls-2"><path class="cls-3" d="M-209.66-211.89h0a.55.55,0,0,0-.3-.12.91.91,0,0,0-.31.09h0v0h0a1.68,1.68,0,0,1,.24.06h0l.07,0c.13.14.19.1.23,0l0-.1h0Z" transform="translate(240 212)"/><path class="cls-3" d="M-221-150.56a.33.33,0,0,0,.26.39.35.35,0,0,0,.42-.22.42.42,0,0,0-.25-.45A.4.4,0,0,0-221-150.56Z" transform="translate(240 212)"/><path class="cls-3" d="M-232.06-201.46a3.07,3.07,0,0,1-.53.7,5.25,5.25,0,0,0-.89,1.17l-.87,1.15a6.45,6.45,0,0,0-.83,1.35,1.25,1.25,0,0,1-.33.49.74.74,0,0,0-.22.32c-.17.32-.32.66-.52,1a12.21,12.21,0,0,0-.94,1.79c-.27.65-.51,1.31-.8,2-.07.16-.15.32-.21.48-.18.54-.35,1.08-.53,1.61a20.36,20.36,0,0,0-.81,3.6c-.07.42-.13.84-.22,1.25a2.54,2.54,0,0,0-.1.55c0,.86-.14,1.71-.08,2.57a.76.76,0,0,1,0,.21.81.81,0,0,0,0,.38,2.93,2.93,0,0,1,0,.66,3.08,3.08,0,0,1,0,1s0,.09,0,.13a7.09,7.09,0,0,1,.15,1.29,6.11,6.11,0,0,0,.17,1.54,4.76,4.76,0,0,0,.35,1.43.25.25,0,0,1,0,.17,2.46,2.46,0,0,0,.2.85,1,1,0,0,1,.07.2,13,13,0,0,0,.38,1.86.57.57,0,0,0,.11.22,1.11,1.11,0,0,1,.21.59,1.81,1.81,0,0,0,.23.8,3.16,3.16,0,0,1,.25.6,4.5,4.5,0,0,0,.25.7,2.83,2.83,0,0,1,.49,1.22.46.46,0,0,0,.08.19,5.57,5.57,0,0,1,.45.83,4.51,4.51,0,0,0,.39.83,2.51,2.51,0,0,0,.62.89.34.34,0,0,1,.13.2,1.34,1.34,0,0,0,.34.56c.15.17.15.43.27.63.27.46.64.84.89,1.32a4.54,4.54,0,0,0,.7.82c.44.5.88,1,1.34,1.49a1.06,1.06,0,0,0,.15.15c.14.08.31,0,.41,0s-.1.27,0,.39a1.77,1.77,0,0,0,.35.61c.34.29.57.69,1,.91a.61.61,0,0,1,.2.19c.37.58,1,.83,1.46,1.36a.27.27,0,0,0,.13.07.89.89,0,0,1,.34.23,2.57,2.57,0,0,0,.8.58,1.69,1.69,0,0,1,.83.56,2.37,2.37,0,0,0,.94.66l.4.23a11.42,11.42,0,0,0,1.83,1.05l.11.08a10,10,0,0,0,1.63.82,7.65,7.65,0,0,0,1.62.66,4.15,4.15,0,0,0,1,.43,6.36,6.36,0,0,0,.93.4c.46.08.85.32,1.29.43a5.42,5.42,0,0,0,1.37.3.65.65,0,0,1,.31.05,3.58,3.58,0,0,0,1.17.23,5.15,5.15,0,0,0,1.36.13.38.38,0,0,1,.3.09.78.78,0,0,0,.53.14l.32,0a12.5,12.5,0,0,0,1.74.15c.43-.05.89.14,1.33,0,0,0,.07,0,.1,0,.25,0,.47.15.72.12s.66,0,1,0a.25.25,0,0,1,.17,0,1.08,1.08,0,0,0,.73.08c1-.14,2-.29,3-.34a.78.78,0,0,0,.3-.07c.44-.17.94-.1,1.36-.34a.33.33,0,0,1,.14,0,2.8,2.8,0,0,0,1.09-.23,7.85,7.85,0,0,0,1.53-.51.58.58,0,0,1,.14,0,2.13,2.13,0,0,0,1.7-1,.22.22,0,0,1,.1-.09.4.4,0,0,0,.25-.32c0-.29.26-.39.47-.51a2.86,2.86,0,0,1,.74-.32.27.27,0,0,0,.22-.1,2.21,2.21,0,0,1,.7-.52,1.09,1.09,0,0,0,.35-.29.91.91,0,0,1,.43-.3,5,5,0,0,0,1.35-.82c.05,0,.1-.11.16-.13a1.16,1.16,0,0,0,.59-.48.63.63,0,0,1,.34-.24,1.29,1.29,0,0,0,.87-1.29c0-.13-.13-.22-.24-.14a5.35,5.35,0,0,0-.47.29c-.24.23-.52.39-.76.61a.71.71,0,0,1-.21.11c-.2.09-.43.06-.61.16-.35.21-.69.45-1,.68a4.07,4.07,0,0,1-.89.54c-.34.11-.64.28-1,.4s-.48.26-.74.33a4.74,4.74,0,0,0-.78.32,1.82,1.82,0,0,1-.89.3.93.93,0,0,0-.68.23,1,1,0,0,1-.57.24,1.19,1.19,0,0,0-.56.17,1,1,0,0,1-.46.15,1.54,1.54,0,0,0-.61.17.84.84,0,0,1-.34.08,3.2,3.2,0,0,0-1.26.27l-.1,0-1.3.32a4.74,4.74,0,0,1-1.06.21,1,1,0,0,0-.3.08,5.62,5.62,0,0,1-1.67.28,10.32,10.32,0,0,1-1.47,0c-.45,0-.91.08-1.37.06a.5.5,0,0,0-.27,0,.44.44,0,0,1-.47,0,.49.49,0,0,0-.44,0,.88.88,0,0,1-.28,0c-.27,0-.53-.12-.8,0-.06,0-.14,0-.21,0a8.89,8.89,0,0,1-1-.24,12.88,12.88,0,0,0-1.63-.27,3.14,3.14,0,0,1-1-.2,10.05,10.05,0,0,0-1.7-.42,15.74,15.74,0,0,1-2.18-.67,1.18,1.18,0,0,1-.19-.11,6,6,0,0,0-1.12-.45.44.44,0,0,1-.36-.08,5.39,5.39,0,0,0-1.1-.61,1,1,0,0,0-.29-.12,4,4,0,0,1-1.49-.78.84.84,0,0,0-.27-.16,8.12,8.12,0,0,1-1.27-.68c-.62-.36-1.18-.8-1.77-1.21a15,15,0,0,0-1.39-.83c-.15-.09-.31-.18-.36-.37a.75.75,0,0,0-.34-.47,5.13,5.13,0,0,0-.6-.44.72.72,0,0,1-.3-.25c-.14-.28-.51-.36-.59-.7,0,0-.11-.08-.17-.11a1,1,0,0,1-.18-.1,3.21,3.21,0,0,1-.83-1,2.24,2.24,0,0,0-.31-.43l-1.56-2c-.53-.64-.88-1.39-1.36-2.06a5.17,5.17,0,0,1-.42-.85c-.35-.65-.74-1.28-1-2a5.2,5.2,0,0,0-.32-.62,1.88,1.88,0,0,1-.41-.88.15.15,0,0,0,0-.1,1.58,1.58,0,0,1-.35-.87c-.15-.51-.34-1-.45-1.52s-.35-1.07-.44-1.62a9.58,9.58,0,0,1-.21-1c-.05-.62-.22-1.23-.28-1.85s-.13-1.09-.17-1.64-.06-1.06-.07-1.59,0-1.1,0-1.65,0-1.15.11-1.72.08-1.15.19-1.71c0-.15.08-.3.1-.45a6.28,6.28,0,0,1,.38-1.82.2.2,0,0,0,0-.13,1.18,1.18,0,0,1,.08-.59c.07-.26.15-.52.21-.78a5.89,5.89,0,0,1,.38-1.32c.07-.17.08-.35.15-.5.17-.43.12-.94.48-1.3a.27.27,0,0,0,.07-.2c0-.41.31-.71.42-1.09s.24-.45.31-.7a5.19,5.19,0,0,1,.37-.79c.16-.31.3-.64.49-.94s.4-.74.62-1.1a5.52,5.52,0,0,1,.51-.92,4.32,4.32,0,0,0,.61-.86,12.94,12.94,0,0,1,1-1.33c.28-.39.6-.75.91-1.11s.3-.64.65-.82a.2.2,0,0,0,.09-.3.27.27,0,0,0-.36-.11A2,2,0,0,0-232.06-201.46Z" transform="translate(240 212)"/><path class="cls-3" d="M-219.79-209.8a10.88,10.88,0,0,0-2,.86c-.37.15-.71.36-1.08.5a5.42,5.42,0,0,0-1.3.7c-.32.26-.68.45-1,.68s-.68.52-1,.78a.21.21,0,0,0,0,.06.12.12,0,0,0,0,.16.12.12,0,0,0,.16,0,1.77,1.77,0,0,0,.17-.12,1.09,1.09,0,0,1,.57-.32.31.31,0,0,0,.15-.08,6.13,6.13,0,0,1,1.59-1c.24-.1.24-.14.05-.37.17,0,.29.2.42,0a1.65,1.65,0,0,1,.64-.4c.36-.18.73-.34,1.11-.5s.72-.26,1.07-.44a2.51,2.51,0,0,1,1-.44.17.17,0,0,0,.1,0c.06,0,.1-.07.08-.14a.09.09,0,0,0-.11-.06A4.78,4.78,0,0,0-219.79-209.8Z" transform="translate(240 212)"/><path class="cls-3" d="M-226.48-206.06a4,4,0,0,0-.84.51c-.3.31-.72.48-1,.81a1.42,1.42,0,0,0-.7.45c-.19.21-.48.32-.61.57a2.31,2.31,0,0,1-.61.67.36.36,0,0,0-.09.08.83.83,0,0,0-.16.29.28.28,0,0,0,0,.18s0,0,0,.05.13,0,.19,0,.16-.05.18-.1c.09-.24.31-.32.48-.48a14.4,14.4,0,0,1,1.38-1.21c.27-.17.45-.43.7-.62s.66-.38.81-.76a.39.39,0,0,1,.23-.16c.06,0,.13,0,.14-.13a.25.25,0,0,0,0-.13S-226.45-206.08-226.48-206.06Z" transform="translate(240 212)"/><path class="cls-3" d="M-201.07-211.14c-.05-.05-.13,0-.2,0-1-.17-1.95-.34-2.91-.56a1.22,1.22,0,0,0-.78.07c.23,0,.32.19.56.12s.35.15.55.16h.07a1.31,1.31,0,0,1,.93.14.3.3,0,0,0,.2,0c.22-.1.41.05.62.05s.2.15.34.16a3.32,3.32,0,0,1,1.39.31c.38-.05.66.23,1,.35.17.06.35,0,.5.14a1.18,1.18,0,0,0,.8.19.27.27,0,0,1,.23,0c.22.17.5.1.74.18-.29-.09-.47-.36-.75-.45s-.33-.13-.49-.19a7,7,0,0,0-1.85-.47A1.42,1.42,0,0,1-201.07-211.14Z" transform="translate(240 212)"/><path class="cls-3" d="M-216-211c-.2.11-.43.08-.64.19s-.44.06-.56.32c0,.07-.17,0-.27.06s-.2,0-.24.13.1.08.14.06.45,0,.56-.16.37.08.53-.06h0a7,7,0,0,1,.95-.36A.39.39,0,0,0-216-211Z" transform="translate(240 212)"/><path class="cls-3" d="M-209-211.95a2.36,2.36,0,0,1-.28,0,.42.42,0,0,0-.38.1h.06a.41.41,0,0,1,.13.1.39.39,0,0,0,.33.1c.31,0,.61-.27.94-.07.24-.16.51,0,.77-.1a.13.13,0,0,0-.14-.12,3.29,3.29,0,0,0-1,0A1.09,1.09,0,0,1-209-211.95Z" transform="translate(240 212)"/><path class="cls-3" d="M-210.89-211.95a2.66,2.66,0,0,1-.66.13,4.52,4.52,0,0,0-.75.14h-.06l0,0v0s0,0,0,0a.09.09,0,0,0,0,0h0v0h0c-.18,0-.34-.12-.51-.07a5.1,5.1,0,0,1-.78,0,1.5,1.5,0,0,0-.46.09h0a.82.82,0,0,0-.37.1c-.11,0-.23.13-.19.25s.19.09.3.07a9.42,9.42,0,0,1,1.66-.27.71.71,0,0,0,.24-.06l0,0a.23.23,0,0,0,.06-.12h0a.19.19,0,0,1,.15-.06h0l.07,0h0a.46.46,0,0,1,.07.07c.3-.16.64,0,1-.12S-210.9-211.75-210.89-211.95Z" transform="translate(240 212)"/><path class="cls-3" d="M-215.15-211.21c-.2,0-.06.18-.16.3.19,0,.29-.05.28-.2S-215.09-211.22-215.15-211.21Z" transform="translate(240 212)"/><path class="cls-3" d="M-210.4-211.69h0Z" transform="translate(240 212)"/><path class="cls-3" d="M-210.68-211.72a.06.06,0,0,0,0,.06c.07.1.18.08.28,0a1.76,1.76,0,0,0-.2-.09A.14.14,0,0,0-210.68-211.72Z" transform="translate(240 212)"/><path class="cls-3" d="M-196.74-209.75c0,.05,0,.08.06.09s.12,0,.15,0,0-.08-.06-.11A.13.13,0,0,0-196.74-209.75Z" transform="translate(240 212)"/><path class="cls-3" d="M-210.3-211.9c-.08,0-.07.13-.08.2s.16.06.2,0-.07-.11-.11-.16Z" transform="translate(240 212)"/><path class="cls-3" d="M-219-210s0,.06.07,0,0,0,0-.05,0,0,0,0A.05.05,0,0,0-219-210Z" transform="translate(240 212)"/></g></g></g></g></svg>